<svg xmlns="http://www.w3.org/2000/svg" viewBox="0 0 187.16 205.09"><defs><style>.cls-1{fill:#1a3869;}</style></defs><title>资源 36</title><g id="图层_2" data-name="图层 2"><g id="page2"><path class="cls-1" d="M-1648.85-524c12.28,6.15,26-1.11,36.93-6.78,15.6-8.08,31.46-15.81,46.82-24.35a130.39,130.39,0,0,0,20.38-14.09c5.65-4.72,11.85-10,14.06-17.31,2-6.72,1.36-14.14-.37-20.84-1.92-7.4-5.66-14-9.23-20.64-8.06-15.09-16.16-30.17-25-44.82-4.42-7.3-9-14.49-13.91-21.48-4.71-6.74-9.52-13.62-15.2-19.58-5.17-5.43-11.3-10-18.64-11.89a32.11,32.11,0,0,0-18.34.83,45.76,45.76,0,0,0-5,1.43c-9.94,3.45-19.37,8.68-28.42,14-10.69,6.26-21.46,13.09-30.75,21.34-5.16,4.58-9.6,9.94-11.33,16.76a30.74,30.74,0,0,0,.63,16.06c.57,2.87-.7,4.85-2.83,6.94-2.33,2.29-5,4.31-6.57,7.26s-1,6.14.46,9.15c3.77,7.89,7.72,15.69,11.74,23.46q12,23.19,25.21,45.73c4.39,7.49,8.83,15,13.5,22.29C-1660.61-534.12-1655.83-527.5-1648.85-524Zm-54.85-124.49c3.35,8.1,7.76,15.91,11.92,23.53,10.43,19.13,21.81,37.84,34,55.87,3.52,5.2,7.47,10.44,13,13.6a18.35,18.35,0,0,0,2.63,1.22,2.43,2.43,0,0,0,.31.75A15.16,15.16,0,0,1-1643-535.9l-.07.09A11.92,11.92,0,0,1-1645-537c-6.56-5.9-11.73-13.14-16.45-20.55-17.55-27.54-31.89-57-47.28-85.78A33.8,33.8,0,0,0-1703.7-648.49Zm150,69.87a70.25,70.25,0,0,1-6.71,5.32c-12.65,8.83-26.52,15.93-40.18,23.06-7.32,3.82-14.63,7.69-22,11.43-4.86,2.47-10.85,4.95-16.34,4.24a19.32,19.32,0,0,0,1.91-18.52,23.29,23.29,0,0,0,8.56-.8c5.5-1.52,10.85-4.33,15.87-7a191.24,191.24,0,0,0,17-10.39c5.57-3.74,11.06-7.6,16.71-11.24,5.43-3.5,11.09-7.23,17.3-9.21,3.61-1.15,8.85-2,11.77,1.16a8.46,8.46,0,0,1,2,5.85C-1549.21-582.42-1551.77-580.39-1553.74-578.62Zm-104.37,40.7c-4.6-6.34-8.5-13.25-12.52-20q-6.45-10.75-12.6-21.68-12.29-21.79-23.43-44.2c-1.81-3.66-3.81-7.3-5.38-11.07a5.37,5.37,0,0,1,.53-5.33c4.1,7.69,8.15,15.41,12.21,23.13,7.79,14.84,15.63,29.66,24,44.18,7.68,13.29,15.45,27.43,26.78,38a2.17,2.17,0,0,0,.43.5c.2.17.41.3.61.46l.43.39a1.94,1.94,0,0,0,.65.39c7.74,5,17.5,1.94,25.2-2,15.66-8,31.36-16,46.61-24.74a193.15,193.15,0,0,0,18.79-11.9,69,69,0,0,0,6.23-5.36l.57-.54c-.11,2.08,3.39,2.42,4,.13a27.18,27.18,0,0,0,1-6.13,1.56,1.56,0,0,0,0-.93c0-.16,0-.31,0-.47-.1-3.93-1.67-7.82-5.11-9.94-3.8-2.36-8.52-2-12.67-.89-6,1.59-11.53,5.05-16.77,8.31-5.57,3.48-11,7.23-16.39,10.92-10.28,7-21,14-32.74,18.24-5.42,2-11.19,2.06-16.17-1.2-5.25-3.43-8.75-8.94-12.18-14-12-17.87-23.24-36.36-33.46-55.3-2.55-4.72-5-9.49-7.35-14.32a88,88,0,0,1-5.6-13.29c-.09-.35-.18-.7-.29-1.05a1,1,0,0,0-.06-.16,24.9,24.9,0,0,1,1.62-17.68c3.29-6.32,9.27-10.91,14.83-15.13a246.31,246.31,0,0,1,30-19.24c4.72-2.6,9.53-5.06,14.47-7.24a64.68,64.68,0,0,1,9.93-3.69,2.12,2.12,0,0,0,.87-.13,29.61,29.61,0,0,1,9.29-1.92c15.72-.6,25.87,12.5,34.34,23.89A405.08,405.08,0,0,1-1561.2-658c4.09,7.16,8,14.4,12,21.67,3.61,6.71,7.5,13.36,10.76,20.26a48.85,48.85,0,0,1,5,20,24.72,24.72,0,0,1-1.69,10.15,28.41,28.41,0,0,1-6.65,8.86,115.82,115.82,0,0,1-18,14.15c-7,4.49-14.46,8.17-21.84,12l-22.34,11.58c-6.37,3.3-12.67,6.82-19.24,9.71-5.53,2.44-11.66,4.56-17.79,3.86C-1648.49-526.67-1653.86-532.07-1658.11-537.92Z" transform="translate(1716.57 726.75)"/><path class="cls-1" d="M-1627.93-644.92c7-4.09,13.91-8.35,20.82-12.58,5.75-3.52,10.12-9.35,8.2-16.33-.91-3.34-2.91-6.37-4.7-9.29-2.13-3.49-4.37-6.92-6.76-10.23-2-2.78-4.45-5.16-7.82-6.18-3-.9-5.9-.17-8.73.89q-12.57,5.89-24.57,13a207.32,207.32,0,0,0-22.46,14.75c-2.64,2-5.15,4.58-5.93,7.95-.69,3,.31,6.36,1.55,9.09,1.55,3.45,3.49,6.76,5.24,10.11a35.61,35.61,0,0,0,5.47,8.49,11.19,11.19,0,0,0,8.52,3.79c3.47-.06,6.87-1.48,10-2.76A161.29,161.29,0,0,0-1627.93-644.92ZM-1619-655c-5.93,3.64-11.85,7.29-18,10.59a107.16,107.16,0,0,1-18.25,8.14c-3,.93-6,1.22-8.53-.88-2.36-2-3.86-4.78-5.25-7.45s-2.94-5.6-4.4-8.4c-1.29-2.49-2.8-5.35-2.68-8.25s2.79-5.19,5-6.85c2.81-2.12,5.76-4.08,8.68-6a285.74,285.74,0,0,1,36.94-20.81c3.27-1.22,6.13-1.53,9,.73s4.71,5.78,6.62,8.7a92.86,92.86,0,0,1,5.88,9.76c1.5,3,2.22,6.2.49,9.32-1.49,2.7-4.06,4.49-6.64,6C-1613.08-658.59-1616-656.78-1619-655Z" transform="translate(1716.57 726.75)"/><path class="cls-1" d="M-1666.55-664.6a420.62,420.62,0,0,0,41.9-25.13c2.12-1.45,4.48,1.78,2.35,3.24a431.64,431.64,0,0,1-42.81,25.63C-1667.39-659.67-1668.81-663.42-1666.55-664.6Z" transform="translate(1716.57 726.75)"/><path class="cls-1" d="M-1661.82-652.51l44.13-26.28c2.19-1.31,4.56,1.92,2.34,3.24l-44.12,26.28C-1661.66-648-1664-651.19-1661.82-652.51Z" transform="translate(1716.57 726.75)"/><path class="cls-1" d="M-1625.6-661.12l11.32-6.92a2.06,2.06,0,0,1,2.8.45,2,2,0,0,1-.45,2.8l-11.32,6.91a2,2,0,0,1-2.8-.44A2,2,0,0,1-1625.6-661.12Z" transform="translate(1716.57 726.75)"/></g></g></svg>