<svg xmlns="http://www.w3.org/2000/svg" viewBox="0 0 70.78 102.51"><defs><style>.cls-1{fill:#1a3869;}</style></defs><title>资源 37</title><g id="图层_2" data-name="图层 2"><g id="page2"><path class="cls-1" d="M-1839.78-573.62c-1.23-2.88-4.78-3.61-7.54-4a42.55,42.55,0,0,0-12,0c-1.54.21-3.27.78-4.84.51-2-.34-2.52-2.15-2.84-3.89-1.55-8.22-2.4-16.62-3.6-24.9-.25-1.71-.52-3.65-2-4.8a3.53,3.53,0,0,0-4.33-.22c-1.49,1.15-1.78,3.59-2.26,5.27q-.91,3.26-1.73,6.54a214.25,214.25,0,0,0-4.8,26.12l-12.69,2.63-7,1.44c-1.54.32-3.27.68-4.22,2.07-2.46,3.59,2.37,5.93,5,6.76l12.39,3.88q-.47,9.86-.94,19.72c-.16,3.51-.33,7-.5,10.54-.11,2.31-.54,5.82,2.49,6.44,2.6.53,4.21-2.19,5.09-4.18,1.43-3.2,2.79-6.42,4.19-9.62q3.38-7.78,6.76-15.55,4.15,10.29,8.29,20.57l4.8,11.91c1,2.36,2.15,7.81,5.71,7.29s2.42-5.43,2.15-7.77q-.75-6.5-1.91-13c-.76-4.19-1.63-8.35-2.64-12.49-.49-2-1-4-1.56-6a15.1,15.1,0,0,1-.88-5.52c.36-3.19,3.39-5.13,5.93-6.62,3.6-2.1,7.23-4.14,10.85-6.21C-1841.8-568.11-1838.3-570.2-1839.78-573.62Zm-6.49,4.27c-3.3,1.89-6.6,3.76-9.89,5.66a20.88,20.88,0,0,0-6.29,4.9,9.89,9.89,0,0,0-1.7,8.06c.65,3.56,1.84,7.05,2.67,10.58a207.3,207.3,0,0,1,4,22.54c.14,1.08.26,2.17.38,3.25,0,.42.12.87.13,1.3l-.09-.13a16,16,0,0,1-.66-1.61c-.41-1-.83-2-1.24-3.05q-2.33-5.8-4.67-11.6l-9.84-24.43c-.57-1.41-2.52-1.06-3,.15q-3.54,8.12-7.07,16.24c-1.13,2.61-2.27,5.21-3.4,7.82l-1.83,4.21a14.32,14.32,0,0,1-.76,1.64c-.18.29-.87,1-.85,1a35.44,35.44,0,0,1,.19-3.58c.08-1.53.15-3.07.22-4.61.14-2.85.27-5.7.41-8.56l.84-17.77a1.68,1.68,0,0,0-1.08-1.7l-10.46-3.27c-1.63-.51-3.38-.92-5-1.59-.3-.12-1.5-.62-1.5-1s1-.59,1.4-.68c7.12-1.63,14.33-3,21.49-4.45a1.59,1.59,0,0,0,1.27-1.86,1.72,1.72,0,0,0,.18-.58,206,206,0,0,1,3.65-21.37q1.21-5.4,2.73-10.72c.22-.78.44-1.57.68-2.36.17-.57.25-1.71.92-1,.41.42.42,1.42.5,2,.17,1.07.31,2.14.46,3.21,1.06,7.35,1.89,14.78,3.19,22.09.49,2.75,1.63,5.54,4.47,6.53s6.07-.2,8.92-.46a34.66,34.66,0,0,1,11.08.58c.86.21,2.85.74,3,1.82C-1842.57-570.92-1845.44-569.83-1846.27-569.35Z" transform="translate(1910.21 611.6)"/><path class="cls-1" d="M-1861.73-589a24.86,24.86,0,0,0,5-9.07,1.7,1.7,0,0,0-.61-1.93,1.73,1.73,0,0,0-2,.11,13.76,13.76,0,0,0-5,8.5,1.19,1.19,0,0,0,0,.46l0,0a1.66,1.66,0,0,0,.42,2.3A1.69,1.69,0,0,0-1861.73-589Zm1.57-4.9,0-.05a.13.13,0,0,1,0,0C-1860.13-593.89-1860.18-593.83-1860.16-593.89Z" transform="translate(1910.21 611.6)"/><path class="cls-1" d="M-1896.16-583.36c0-.06,0-.11.06-.17a1.51,1.51,0,0,0,.32-1.27,13.39,13.39,0,0,0-5.94-8.51,1.68,1.68,0,0,0-1.84,0,1.65,1.65,0,0,0-.73,1.67,16.7,16.7,0,0,0,5.83,8.71A1.67,1.67,0,0,0-1896.16-583.36Z" transform="translate(1910.21 611.6)"/><path class="cls-1" d="M-1900.17-547.61a1.76,1.76,0,0,0-.84.19,1.44,1.44,0,0,0-.75.16,9.69,9.69,0,0,0-5,8.27,1.7,1.7,0,0,0,.71,1.5,1.61,1.61,0,0,0,1.65.13,12.32,12.32,0,0,0,5.77-8.46A1.66,1.66,0,0,0-1900.17-547.61Zm-1.84,1.74v0C-1902-545.68-1902.13-545.52-1902-545.87Zm-.78,4.15h0l0,0Zm-2.91,1.27c-.09.07-.29.17,0,0Zm5-3.59h0l.08-.06h0C-1900.54-544.15-1900.51-544.16-1900.73-544Z" transform="translate(1910.21 611.6)"/><path class="cls-1" d="M-1847.47-552.32a1.64,1.64,0,0,0-1.88,0,2.51,2.51,0,0,0-1.91,2.21,3.46,3.46,0,0,0,1.06,2.62q1.6,1.77,3.24,3.5a3.73,3.73,0,0,0,2.25,1.33,2.52,2.52,0,0,0,2.59-1.58c.75-1.77-.62-3.39-1.69-4.65A23.83,23.83,0,0,0-1847.47-552.32Z" transform="translate(1910.21 611.6)"/></g></g></svg>