<svg xmlns="http://www.w3.org/2000/svg" viewBox="0 0 197.13 201.06"><defs><style>.cls-1{fill:#ffb53f;}.cls-2{fill:#1a3869;}</style></defs><title>资源 38</title><g id="图层_2" data-name="图层 2"><g id="page2"><path class="cls-1" d="M-3163.18-545.12c-.08,13.57,7.35,23.58,20.57,29.6,17.53,8,27,.33,37.88-10.09,7.12-6.8,22.92-23.7,19.56-40.33-3-14.71-27.11-34.57-47.76-28.23C-3149.59-589-3163.06-564.23-3163.18-545.12Z" transform="translate(3254.43 695.02)"/><path class="cls-1" d="M-3212.37-507.22c0,5.46,3,9.5,8.28,11.92,7.06,3.21,10.87.14,15.26-4.06,2.87-2.74,9.23-9.55,7.88-16.25-1.2-5.92-10.92-13.92-19.24-11.37C-3206.9-524.92-3212.33-514.92-3212.37-507.22Z" transform="translate(3254.43 695.02)"/><path class="cls-2" d="M-3062-588.35c-10.7-18.23-23.5-35.14-37.22-51.19-7-8.18-14.23-16.16-21.58-24-7.08-7.6-14.11-15.33-21.52-22.62-5.48-5.4-12.63-10.53-20.74-8.29-7.94,2.2-14.08,9.06-18.66,15.57s-8.5,13.26-12.65,19.91q-6.84,10.9-13.57,21.88c-8.78,14.31-17.44,28.69-25.73,43.29-6.21,10.91-12.47,21.94-17.44,33.49-.79,1.83-1.54,3.68-2.18,5.57-1.49,3.86-1.75,8.08.31,11.79a13.9,13.9,0,0,0,8.18,6.58c3.93,1.18,8.06,1.06,12.11,1q7.8-.14,15.58-.6c21.09-1.26,42-4.26,62.84-7.88,10.42-1.81,20.81-3.77,31.2-5.76,10.64-2,21.32-4,31.83-6.65,5.24-1.32,10.45-2.81,15.57-4.54,4.35-1.48,8.94-2.93,12.76-5.56,3.34-2.29,5.67-5.77,5.57-9.92C-3057.41-580.74-3059.79-584.66-3062-588.35Zm-2.1,17.84c-3.26,2.81-7.81,4.15-11.81,5.54-1.55.55-3.13,1-4.7,1.53q-1.36-5.22-2.71-10.44a2.05,2.05,0,0,0-2.3-1.64,2,2,0,0,0-1.64,2.3l2.85,11c-1.9.56-3.81,1.11-5.72,1.61-.23-1.32-.45-2.64-.67-4a2.12,2.12,0,0,0-.83-1.31,2.07,2.07,0,0,0-1.47-.33,2,2,0,0,0-1.31.83,2.07,2.07,0,0,0-.33,1.47l.72,4.28c-2.46.61-4.92,1.19-7.4,1.73l-.39-3.93a2,2,0,0,0-.83-1.31,2,2,0,0,0-1.47-.33,2,2,0,0,0-1.31.83,2.25,2.25,0,0,0-.33,1.46l.42,4.15q-4,.83-7.94,1.59-.67-5.61-1.37-11.23a2,2,0,0,0-2.3-1.64,2,2,0,0,0-1.64,2.29l1.38,11.3v0l-7.39,1.37c-.1-1.07-.2-2.15-.31-3.22a2,2,0,0,0-.83-1.31,2,2,0,0,0-1.46-.33,2,2,0,0,0-1.31.83l-.24.45a2,2,0,0,0-.09,1c.1,1.09.21,2.18.31,3.28-2.17.39-4.35.79-6.51,1.2l-.12-2.94a1.61,1.61,0,0,0-.3-.74,1.46,1.46,0,0,0-.53-.57,2,2,0,0,0-1.47-.33,2,2,0,0,0-1.31.83l-.23.45a2,2,0,0,0-.1,1l.12,3-6.34,1.17q-.84-5-1.67-10a2,2,0,0,0-2.3-1.64,2,2,0,0,0-1.64,2.3l1.68,10.07q-4.61.83-9.22,1.61l.12-2.74a2.07,2.07,0,0,0-.46-1.48,2.05,2.05,0,0,0-1.33-.7,2,2,0,0,0-1.48.47,2,2,0,0,0-.7,1.33c-.06,1.26-.11,2.53-.17,3.79l-5.67.92c0-.27-.08-.54-.09-.81s0-.81,0-1.21a2.11,2.11,0,0,0-.47-1.48,2,2,0,0,0-1.33-.69,2,2,0,0,0-1.48.46,2.05,2.05,0,0,0-.7,1.33,16,16,0,0,0,.1,3q-4.14.63-8.28,1.22c-.22-2.72-.52-5.43-.92-8.13a2,2,0,0,0-2.3-1.64,2,2,0,0,0-1.64,2.29q.58,4,.91,8-4.29.57-8.6,1.08c-.11-1.46-.21-2.91-.31-4.36a2.06,2.06,0,0,0-.83-1.31,2,2,0,0,0-1.47-.33,2,2,0,0,0-1.31.83c-.08.15-.16.3-.23.45a1.94,1.94,0,0,0-.1,1c.1,1.39.2,2.77.29,4.15-2.47.27-5,.52-7.44.75l-.06-2.69a1.44,1.44,0,0,0-.09-.77,1.52,1.52,0,0,0-.37-.71,2,2,0,0,0-1.33-.69,2,2,0,0,0-1.48.46,1.93,1.93,0,0,0-.7,1.34c0,1.14,0,2.27.07,3.41q-4.22.36-8.43.62c-.1-1.26-.2-2.53-.26-3.8,0-.06,0-.26,0-.31,0-.22,0-.43,0-.64,0-.43,0-.86,0-1.29,0-.86,0-1.71,0-2.57a2,2,0,0,0-1.8-2.17A2,2,0,0,0-3221-549c0,3.07.09,6.15.32,9.21-1.41.07-2.82.15-4.24.21-4.45.18-9,.42-13.42.19-3.57-.17-7.32-.81-9.8-3.61-2.71-3-2.83-6.69-1.4-10.38,3.26-9.62,8.39-18.71,13.25-27.59,7.28-13.32,15-26.39,22.83-39.39q12.43-20.64,25.3-41c3.92-6.24,7.59-12.81,12.22-18.55s11.54-12.53,19.48-10.8c3.77.83,7.05,3.35,9.83,5.92.73.68,1.44,1.38,2.14,2.08a55.81,55.81,0,0,0-7.26,6.39,2,2,0,0,0-.23,2.81,2,2,0,0,0,2.81.23,56.22,56.22,0,0,1,7.49-6.56c1.52,1.6,3,3.22,4.53,4.81a1.07,1.07,0,0,1,.14.16l-3.53,2.43a2,2,0,0,0-.7,1.33,2,2,0,0,0,.46,1.48,2,2,0,0,0,1.34.7l.51,0a2,2,0,0,0,1-.44l3.56-2.46a.83.83,0,0,0,.14-.13c2.06,2.18,4.13,4.35,6.18,6.53a1.81,1.81,0,0,0-.24.24c-.15.2-.32.39-.48.59a10,10,0,0,1-1.66,1.39c-.22.13-.44.26-.66.37a2.13,2.13,0,0,0-1,1.13,2,2,0,0,0,.07,1.52,2,2,0,0,0,1.12,1,2,2,0,0,0,1.53-.07,12,12,0,0,0,4.08-3.31q2.64,2.83,5.26,5.69a1.51,1.51,0,0,0-.26.18l-7.15,6.2a2,2,0,0,0-.23,2.81,2,2,0,0,0,2.81.23l7.15-6.19a2,2,0,0,0,.33-.38l1.09,1.17q2.19,2.4,4.35,4.83l-3.58,2.31a2,2,0,0,0-.7,1.33,2.09,2.09,0,0,0,.47,1.48,2,2,0,0,0,1.33.69h.52a2,2,0,0,0,1-.45l3.62-2.33s0,0,0,0c1.59,1.8,3.18,3.61,4.75,5.43h0l-2.95,2.39a2,2,0,0,0-.7,1.33,2,2,0,0,0,.47,1.48,2,2,0,0,0,1.33.7,2.11,2.11,0,0,0,1.48-.47l3-2.38a.08.08,0,0,1,0,0q2.86,3.36,5.67,6.76c-1.15.9-2.32,1.78-3.51,2.62l-1.83,1.26-.89.59-.32.2-.42.27a2.22,2.22,0,0,0-1,1.12,2,2,0,0,0,.07,1.53,2,2,0,0,0,2.65,1,91.7,91.7,0,0,0,7.8-5.47c1.53,1.9,3.05,3.8,4.55,5.72,0,0-.08,0-.12.06-.31.25-.64.47-1,.7a15.16,15.16,0,0,1-2.56,1.25,2,2,0,0,0-1,1.12,2,2,0,0,0,.06,1.53,2.05,2.05,0,0,0,1.12,1,2.24,2.24,0,0,0,1.53-.06,16.52,16.52,0,0,0,4.4-2.5q2.57,3.36,5.06,6.78a23.06,23.06,0,0,0-3.93,2.78,2.1,2.1,0,0,0-.7,1.33,2,2,0,0,0,.47,1.48,2,2,0,0,0,2.81.23,21.47,21.47,0,0,1,2.52-1.92c.38-.23.76-.46,1.15-.67.4.56.81,1.11,1.2,1.67,1.16,1.65,2.28,3.31,3.41,5l-9,6a2,2,0,0,0-.23,2.82,2.05,2.05,0,0,0,2.81.23q4.3-2.87,8.63-5.71c1,1.49,2,3,2.91,4.5a111.74,111.74,0,0,1,7,12C-3060.92-577.57-3060.56-573.52-3064.06-570.51Z" transform="translate(3254.43 695.02)"/><path class="cls-2" d="M-3140.54-627.16q-4.55-5.52-9.21-10.94c-2.37-2.75-4.9-6-8.84-6.19-7.55-.39-11.39,8.61-14.64,14q-5.34,8.91-10.4,18c-3.52,6.31-7,12.67-10,19.2-1.09,2.3-2.16,4.63-3,7a14.43,14.43,0,0,0-1.18,4.87v0c-.61,3.6,2.4,6.09,5.78,7,3.92,1,8.42-.1,12.35-.62,9.51-1.25,19-2.83,28.35-4.91,4.61-1,9.2-2.16,13.75-3.45,3.95-1.12,8.14-2.11,11.85-3.9,3-1.45,5.81-3.71,6.55-7.11.82-3.83-1.29-7.26-3.47-10.23C-3128.43-612.17-3134.43-619.73-3140.54-627.16Zm17.34,32.33c-.77,2.83-4.13,4.19-6.62,5.1-3.85,1.4-7.86,2.47-11.82,3.53-8.9,2.37-17.93,4.22-27,5.71q-7,1.15-14,2a47.22,47.22,0,0,1-6.38.64c-1.07,0-5-.62-5-2.25a1.94,1.94,0,0,0,.14-.76c0-2.54,1.58-5.59,2.68-8.07,2.09-4.71,4.47-9.29,6.9-13.83,5.54-10.35,11.44-20.52,17.58-30.52,1.66-2.7,3.63-6.48,7.12-7s6.38,4.18,8.36,6.49q8.16,9.54,15.92,19.41,3.83,4.86,7.55,9.79C-3125.89-602-3122.24-598.35-3123.2-594.83Z" transform="translate(3254.43 695.02)"/></g></g></svg>