<svg xmlns="http://www.w3.org/2000/svg" viewBox="0 0 262.72 291.98"><defs><style>.cls-1{fill:#1a3869;}</style></defs><title>资源 115</title><g id="图层_2" data-name="图层 2"><g id="图层_9" data-name="图层 9"><path class="cls-1" d="M170.41,200.52l24.15,41.68a4,4,0,0,1-.89,5.4c-13.75,9.89-27.65,19.59-41.83,28.84-10.93,7.14-26.64,21.1-40.3,13.18-20.55-11.91-10.94-36.53,1.89-49.81,15.07-15.6,33.24-28.69,51.58-40.18,4.21-2.64,8.73,3.65,4.51,6.29a342,342,0,0,0-33.8,24.17c-9.31,7.56-22.48,17.28-26.92,28.85-5,13.07,3.94,30.24,18.84,23.21,21.83-10.3,42-26.77,61.52-40.84q-.45,2.7-.89,5.4L164.12,205C161.64,200.75,167.91,196.22,170.41,200.52Z"/><path class="cls-1" d="M173,213.5c14.91-10.2,31.33-19.46,45.24-30.95,4.39-3.62,7.23-9.88,12-12.83,6.11-3.77,16.41-4.2,23.43-5.94,2-.5,4.23.09,5,2.25,3.27,9.17,6.51,12.52,1.26,20.26-6.13,9-10.8,16.35-21.67,17.05-14.74,1-37.49,20.34-52.87,29.93-4.21,2.63-8.73-3.65-4.5-6.29,15.16-9.46,31.33-23.53,48-29.91,3.2-1.23,6.66-1.3,10.12-1.57,5.35-.42,2.71,1.42,7.2-4.66,2.63-3.57,9.1-8.26,10.21-12.42-1.43,5.33-1,.44-2.12-1.73-1.27-2.38-1.92-5.37-2.83-7.93l5,2.25c-5.91,1.47-18.86,3.26-21.89,5.17-4.65,2.92-7.87,9.48-12.43,13.1-14,11.12-29.84,20.41-44.6,30.51-4.11,2.82-8.62-3.47-4.51-6.29Z"/><path class="cls-1" d="M113.59,257.89a266.8,266.8,0,0,1,48.34-39c4.21-2.64,8.73,3.64,4.51,6.29a258,258,0,0,0-46.89,37.64c-3.47,3.53-9.45-1.38-6-4.94Z"/><path class="cls-1" d="M119.41,269.39l49.3-35.95c4-2.95,8.53,3.35,4.51,6.29l-49.31,36c-4,2.94-8.53-3.36-4.5-6.29Z"/><path class="cls-1" d="M9.59,36.76Q21,29.5,32.47,22.35C41.73,16.57,53.54,5.56,64.94,8.11c13.62,3.05,31.37,11.48,36.16,25,5.61,15.81,3.84,25-5.19,38.25-6.14,9-14.08,24-25.67,24.78-12.46.88-27.35-3.33-39.52-5.88-4.6-1-12.11-1.58-16-4.31s-3.38-3.54-4-9c-.87-8.06-7.53-34.75-.35-40.78C14.19,33,8.69,27.5,4.9,30.68-2.64,37,.57,53.56,1.31,61.69,2,69.15.76,83.2,5.49,89.39c5.53,7.24,22.06,8.2,30,9.65,11.4,2.09,25.53,5.86,37.24,5C82.1,103.39,87.83,95,93.3,88c6.65-8.47,16.83-19.65,19.11-30.52,2.34-11.1-2.29-29.4-9.45-38.24-6.79-8.38-21-13.18-30.9-16.84-14-5.18-19.51-1.5-31.53,5.84C28.84,15.41,17.25,22.73,5.69,30.08,1.5,32.74,5.37,39.44,9.59,36.76Z"/><path class="cls-1" d="M54,30.08,31.68,41.22a3.85,3.85,0,0,0-1.91,3.34V63.13a4,4,0,0,0,2.84,3.73L46.23,71.4c3.51,1.17,8,3.72,11.64,2.5C61.38,72.74,65.26,69,68.29,67L80.16,59a4,4,0,0,0,1.77-4.37q-1.84-9.29-3.71-18.56a3.78,3.78,0,0,0-2.7-2.71L57,29.69c-4.86-1-7,6.48-2.06,7.46l18.57,3.71-2.7-2.7q1.86,9.29,3.71,18.57.9-2.17,1.78-4.37l-9.69,6.47c-2.9,1.93-10.32,5.05-12.12,8.07.84-1.41,3.57,1,.19-.84-2.06-1.16-4.92-1.64-7.16-2.39L34.67,59.4l2.84,3.73V44.56L35.59,47.9,57.87,36.76C62.33,34.53,58.41,27.86,54,30.08Z"/><path class="cls-1" d="M4.3,87.37c4.34,7.59,8.17,18.13,14,24.55,3.78,4.14,7.26,4,13.08,5.21L65.92,124c4.86,1,10.6,3.48,15.11,1.16,6.37-3.28,13-14.42,17.71-19.68,4.52-5,13.7-11.77,16.23-18.14,2.42-6.09-.59-16.51-1.08-22.81q-1-13.71-2.11-27.43c-.38-4.93-8.12-5-7.74,0,1.14,14.78,5.8,33,3.66,47.58.42-2.81.83-1-2.17,1.71-3.28,3-6.08,6.75-9,10C90,103.64,83.17,110.62,77,118.09c-2.63,3.18,4,.89.15.32-3.52-.52-7-1.41-10.52-2.1L36.1,110.2c-3.39-.68-7.25-1-10.52-2.11-2.58-.91.62,2.93-2.09-2.74C19.89,97.83,15.12,90.7,11,83.46,8.51,79.14,1.82,83,4.3,87.37Z"/><path class="cls-1" d="M70.71,100.28a111.76,111.76,0,0,0,.45,19.53c.55,4.9,8.29,5,7.74,0a111.76,111.76,0,0,1-.45-19.53c.32-5-7.42-5-7.74,0Z"/><path class="cls-1" d="M41,66.75c3.68-3.26,6.65-8.29,11-10.48C57.37,53.51,65,51.4,70.5,54.65c4.3,2.54,8.2-4.15,3.91-6.68-6.61-3.9-13.5-3-20.49-.62-2.8,1-6.43,1.67-8.81,3.47-3.43,2.59-6.23,7.48-9.61,10.46-3.73,3.31,1.76,8.77,5.48,5.47Z"/></g></g></svg>