<svg xmlns="http://www.w3.org/2000/svg" viewBox="0 0 769.73 860.87"><defs><style>.cls-1{fill:#ffb53f;}.cls-2{fill:#1a3869;}.cls-3{fill:#fff;}.cls-4{fill:#edbc2c;}</style></defs><title>many</title><g id="图层_2" data-name="图层 2"><g id="图层_9" data-name="图层 9"><path class="cls-1" d="M326.74-608.88c10.22,9.68,12.38,22.43,7.39,36.66-6.6,18.85-19.11,20.44-34.75,21.12-10.2.45-34.21.15-44.25-14.31-8.88-12.79-6.42-45.14,13.15-56C284.08-630.25,312.35-622.52,326.74-608.88Z" transform="translate(122.01 625.2)"/><path class="cls-1" d="M390.45-618.51c4.12,3.9,5,9,3,14.77-2.66,7.59-7.7,8.23-14,8.51-4.11.18-13.78.05-17.82-5.77-3.58-5.15-2.59-18.18,5.29-22.57C373.27-627.12,384.65-624,390.45-618.51Z" transform="translate(122.01 625.2)"/><path class="cls-2" d="M-84.44-553.67c-.5-1.58-2.33-2.15-3.76-2.51a22.68,22.68,0,0,0-6.31-.64,8.58,8.58,0,0,1-2.58,0c-1-.28-1.21-1.26-1.29-2.2-.38-4.41-.39-8.88-.59-13.3a3.73,3.73,0,0,0-.78-2.64,1.87,1.87,0,0,0-2.27-.34c-.85.53-1.13,1.79-1.47,2.66-.44,1.11-.85,2.22-1.26,3.35a117.14,117.14,0,0,0-3.9,13.51l-6.82.72-3.74.39a3.32,3.32,0,0,0-2.33.87c-1.49,1.76.93,3.25,2.3,3.83l6.32,2.69-1.53,10.35c-.27,1.84-.55,3.68-.82,5.52-.18,1.21-.59,3,1,3.53,1.35.41,2.33-.94,2.9-1.94.92-1.61,1.81-3.23,2.72-4.85l4.38-7.83q1.64,5.64,3.28,11.27c.64,2.18,1.27,4.35,1.9,6.53.38,1.29.73,4.23,2.63,4.14s1.56-2.73,1.54-4q0-3.47-.32-6.92c-.18-2.25-.42-4.49-.74-6.72-.15-1.09-.32-2.17-.5-3.26a8.14,8.14,0,0,1-.18-3c.36-1.66,2.06-2.52,3.48-3.17,2-.92,4-1.8,6-2.7C-85.79-550.87-83.84-551.78-84.44-553.67Zm-3.64,1.91-5.51,2.46A11.08,11.08,0,0,0-97.16-547a5.23,5.23,0,0,0-1.32,4.16c.15,1.91.6,3.82.85,5.72a111,111,0,0,1,.93,12.09c0,.57,0,1.15,0,1.73,0,.22,0,.46,0,.69,0-.05,0-.09,0-.07a9.07,9.07,0,0,1-.26-.89c-.17-.55-.33-1.11-.49-1.67q-.93-3.18-1.85-6.36l-3.9-13.39a.89.89,0,0,0-1.61-.08q-2.3,4.1-4.58,8.19l-2.21,3.94-1.18,2.12c-.16.27-.3.57-.49.83s-.51.49-.5.5a17.17,17.17,0,0,1,.29-1.88l.36-2.41.66-4.49,1.38-9.32a.89.89,0,0,0-.48-1l-5.34-2.27c-.83-.36-1.73-.66-2.53-1.1-.15-.08-.76-.4-.74-.63s.56-.25.78-.28c3.84-.48,7.71-.81,11.56-1.22a.85.85,0,0,0,.77-.91,1.1,1.1,0,0,0,.12-.29,108.54,108.54,0,0,1,3-11.07c.61-1.85,1.28-3.69,2-5.5l.48-1.21c.12-.29.23-.89.54-.49.2.24.15.77.16,1.05,0,.57,0,1.15.08,1.72.17,3.93.21,7.88.51,11.81.12,1.47.57,3,2,3.67s3.2.22,4.72.23a18.07,18.07,0,0,1,5.8.89c.45.15,1.47.54,1.51,1.11S-87.62-552-88.08-551.76Z" transform="translate(122.01 625.2)"/><path class="cls-2" d="M-95.19-562.92a13.15,13.15,0,0,0,3.09-4.52.87.87,0,0,0-.22-1,.9.9,0,0,0-1.07,0,7.25,7.25,0,0,0-3.1,4.21.69.69,0,0,0,0,.25l0,0a.88.88,0,0,0,.1,1.23A.9.9,0,0,0-95.19-562.92Zm1.08-2.5s0,0,0,0l0,0C-94.1-565.42-94.12-565.39-94.11-565.42Z" transform="translate(122.01 625.2)"/><path class="cls-2" d="M-113.63-561.77s0-.05,0-.08a.82.82,0,0,0,.23-.66A7.07,7.07,0,0,0-116-567.3a.9.9,0,0,0-1-.1.87.87,0,0,0-.47.84,8.8,8.8,0,0,0,2.61,4.89A.88.88,0,0,0-113.63-561.77Z" transform="translate(122.01 625.2)"/><path class="cls-2" d="M-117.63-543.14a1,1,0,0,0-.45.06.79.79,0,0,0-.4,0,5.13,5.13,0,0,0-3.09,4.09.89.89,0,0,0,.29.83.86.86,0,0,0,.87.16,6.55,6.55,0,0,0,3.48-4.15A.89.89,0,0,0-117.63-543.14Zm-1.06.82v0h0C-118.72-542.22-118.77-542.14-118.69-542.32Zm-.63,2.15h0l0,0Zm-1.6.52Zm2.81-1.64h0l0,0h0S-118-541.34-118.11-541.29Z" transform="translate(122.01 625.2)"/><path class="cls-2" d="M-89.61-542.85a.88.88,0,0,0-1-.09,1.33,1.33,0,0,0-1.12,1.06,1.8,1.8,0,0,0,.42,1.44c.5.68,1,1.35,1.52,2a2,2,0,0,0,1.11.83,1.34,1.34,0,0,0,1.45-.7c.49-.89-.14-1.82-.64-2.54A12.87,12.87,0,0,0-89.61-542.85Z" transform="translate(122.01 625.2)"/><path class="cls-3" d="M433.6,177.2l-1.45.65c-13.18,5.84-26.81,11.88-39.95,18.43-9,4.43-18.27,9.32-25.77,13.24l-5.32,2.79-1.3.68c-4.84,2.53-10.59,5.5-16.46,8.43-4.54,2.26-9.24,4.62-12.31,8.69l-.06.06-.11.11v.15c-.06,1.25.77,2,2.48,2.14.55.05,1.14.08,1.75.08a20,20,0,0,0,5.89-.91A68.53,68.53,0,0,0,351.69,227l.1,0,1.76-.9.17-.08c10.27-5.22,20.39-10.84,28-15.15,3.25-1.84,6.54-3.76,9.73-5.61l1.33-.77c4.94-2.89,10.54-6.17,16.09-9.15,8.64-4.68,17.76-9.2,27.11-13.43,4.84-2.19,9.72-4.38,14.44-6.49l.13-.06c16.8-7.51,34.17-15.27,50.76-23.85l2.35-1.23c9.52-4.92,19.36-10,29.42-14.27l2.1-.87,1.37-.56-.09-.33c-.07-.23-.14-.46-.21-.72a8.53,8.53,0,0,0-.89-2.23c-.33-.48-.71-.93-1.06-1.36l-.16-.18a18.57,18.57,0,0,1-1.18-1.55l-.17-.25-.28.11a193.93,193.93,0,0,0-22.88,11l-.58.33c-16.31,9.1-33.19,18.51-50.46,26.55C450.34,169.77,441.83,173.54,433.6,177.2Z" transform="translate(122.01 625.2)"/><path class="cls-4" d="M571.53,118l-.1-.16a5.89,5.89,0,0,0-1.22-1.75l-.22-.17-.53.34,0,.15a11.87,11.87,0,0,0-.21,2.71v.54l.51-.19c.58-.22,1.18-.43,1.78-.61l.46-.14-.26-.41C571.64,118.17,571.59,118.06,571.53,118Z" transform="translate(122.01 625.2)"/><path class="cls-4" d="M567.06,117.81l-.5.22-.5.2-.56.22.45.43a.29.29,0,0,1,.08.07c.13.12.3.26.45.42l.7.71-.06-1.14c0-.19,0-.39,0-.59Z" transform="translate(122.01 625.2)"/><path class="cls-4" d="M562.89,122.85l0-.2a1,1,0,0,1,.86-.89l.18,0,.49-.1-.24-.44c-.21-.38-.44-.76-.65-1.08a3.37,3.37,0,0,1-.19-.32l-.11-.18a5,5,0,0,1-.47-1l-.12-.34-.35.11c-2.81.89-5.68,1.75-8.47,2.58l-.86.26c-4.29,1.28-8.74,2.61-13.05,4.09l-.63.21.51.43a9.21,9.21,0,0,1,1.9,2.25,5.81,5.81,0,0,0,.74.93l.27-.25-.23.3a6.47,6.47,0,0,1,.73.91,1.33,1.33,0,0,1,.2,1,.41.41,0,0,0,0,.11l-.06.6.57-.23a204.7,204.7,0,0,0,18.8-8.59Z" transform="translate(122.01 625.2)"/><path class="cls-4" d="M541.3,131l-.09-.11c-.27-.36-.57-.73-.82-1s-.51-.61-.75-.94a5.17,5.17,0,0,0-2.58-2.13,1.16,1.16,0,0,1-.35-.18l-.15-.13-.2.07-1.06.39-.47.19.32.39c.21.25.42.51.64.76l.1.12a9.44,9.44,0,0,1,1.59,2.21c.09.22.2.43.31.65a10.48,10.48,0,0,1,.74,1.8.36.36,0,0,1,0,.1l.16.47.39-.16q1-.41,2-.84l.29-.12-.07-.31a3.51,3.51,0,0,1-.07-1.07Z" transform="translate(122.01 625.2)"/><path class="cls-4" d="M572.57,115.93l.08.13.45.71.72,1.15,0-1.36c0-.32,0-.64,0-1v-.11c0-.39,0-.81,0-1.22l0-.62-1.89,1.09.22.33C572.2,115.33,572.39,115.63,572.57,115.93Z" transform="translate(122.01 625.2)"/><path class="cls-4" d="M579.39,115.39a9.34,9.34,0,0,1-1-.81,9,9,0,0,1-.66-1.1l-.09-.16c-.2-.37-.43-.76-.63-1.09l-.24-.4-.33.32a2.4,2.4,0,0,1-.47.37l-.16.11,0,.18a14,14,0,0,0,.12,2.28c0,.36.07.64.08.85,0,.59,0,1.07,0,1.5l0,.48.48-.1a13.33,13.33,0,0,0,3.13-1l.4-.2-.26-.36a.84.84,0,0,1-.18-.58v-.2Z" transform="translate(122.01 625.2)"/><path class="cls-3" d="M624.62,102.16c1.07-.93,2.06-2,3-3l.31-.33a45.23,45.23,0,0,1,3.43-3.35,123.79,123.79,0,0,0,11.39-10.7l.55-.63h-1.8l-4,0c-2.22,0-4.07,0-5.83-.08-1.22,0-2.42-.08-3.76-.15-2-.09-4.24-.19-6.44-.19-1,0-2,0-3,.07-7.7.41-15.64,2.75-24.3,7.19a45.59,45.59,0,0,0-9.86,6.63c-2.87,2.6-5.93,5.72-7,9.24a7.66,7.66,0,0,0-.31,2.25v.23l.22.1.15.06.13.06.18.08.17-.1.14-.08c4.76-2.77,9.65-5.23,13.88-7.34a.92.92,0,0,1,.44-.1,1,1,0,0,1,.92.82,1.08,1.08,0,0,1-.57,1.26c-4.65,2.32-9,4.52-13.36,7l-.26.16.1.28a.42.42,0,0,0,.07.15c0,.08.07.15.1.23l.29.76L580,112s.05-.07.08-.12a.83.83,0,0,1,.69-.36c2.62-.16,5.75-2,7.83-3.19,1-.57,2-1.11,2.94-1.63l1.15-.63c.95-.52,1.92-1.06,2.87-1.6,3.49-2,7-4.2,10.4-6.29l.81-.49,1.84-1.13,1.17-.71a1,1,0,0,1,.58-.17,1.24,1.24,0,0,1,1.14.87.83.83,0,0,1-.42,1l-.34.2-2.92,1.81-.4.24c-3.73,2.29-7.58,4.65-11.43,6.87-.51.29-1,.59-1.49.86-2.19,1.27-4.45,2.58-6.74,3.67l-.59.29-.38.18a18,18,0,0,1-5.17,1.92l-1,.14.88.54c.29.18.58.34.87.49l.06,0h.06a51,51,0,0,0,6.56.56c.49,0,1,0,1.56,0a36.46,36.46,0,0,0,4.91-.76,22,22,0,0,1,2.78-.33h.06c.57,0,1.15-.09,1.73-.17a34,34,0,0,0,8.17-2.51l0,0,1-.39a54.75,54.75,0,0,0,8-3.76A50,50,0,0,0,624.62,102.16Z" transform="translate(122.01 625.2)"/><path d="M498.54,143.34a663.87,663.87,0,0,1-64.82,31.86c-19.65,8.49-37.59,16.94-54.86,25.82-4.55,2.34-9.15,4.76-13.6,7.11s-9,4.73-13.56,7.07c-1.36.69-2.74,1.38-4.06,2.06-2.88,1.46-5.85,3-8.73,4.53a30.25,30.25,0,0,0-8.11,6h0a1.33,1.33,0,0,0-1.27.88,5,5,0,0,0,.05,4.5,5.35,5.35,0,0,0,4.14,2.37,16,16,0,0,0,2.22.15c4.54,0,9-1.83,12.83-3.6,8.69-4.07,17.23-8.81,25.49-13.4,2.16-1.21,4.41-2.44,6.61-3.67,4.78-2.63,9.56-5.4,14.19-8.1,5.66-3.3,11.52-6.74,17.42-9.86,9.21-4.93,19.18-9.74,32.32-15.61l3.37-1.51c19.19-8.57,39-17.44,57.95-27.32,8.76-4.57,19.17-9.85,29.93-14.39l2.58-1.08h.21a1.61,1.61,0,0,0,1.24-.61l2.89-1.19c8-3.29,16.37-6.7,24.12-11.14a1.72,1.72,0,0,0,.54-.46l.46-.22.25-.11h.06a1.54,1.54,0,0,0,1.23-.59,35.62,35.62,0,0,1,5.18-1.58,2.34,2.34,0,0,0,.39,0,1.43,1.43,0,0,0,.95-.34l.25-.06c2.59-.54,5.53-1.17,7.43-3.06a64.12,64.12,0,0,0,6.74.45h.13a33.19,33.19,0,0,0,5.49-.63,37.72,37.72,0,0,1,4.23-.58A26.52,26.52,0,0,0,608,115l1.67-.63a60.48,60.48,0,0,0,9-4.09c5.71-3.16,10.31-7.67,14.16-11.65a50.69,50.69,0,0,1,3.81-3.37c1.27-1.06,2.58-2.15,3.76-3.35l.75-.75c2.19-2.24,4.27-4.35,6.25-6.73a1.45,1.45,0,0,0,.14-1.52,1.24,1.24,0,0,0-1.14-.78h-7.65c-2.11,0-3.86,0-5.46-.05s-3.34-.09-5-.16c-2.26-.09-4.6-.19-6.9-.19l-1.28,0c-9.5.14-18.18,3.63-24.69,6.63a44.64,44.64,0,0,0-17.66,14,15.66,15.66,0,0,0-2.3,4.63,8.13,8.13,0,0,0-.32,2.38,6.34,6.34,0,0,0,0,.68,3,3,0,0,0-.92,1.36,32.9,32.9,0,0,0-3.87,2.07,2.94,2.94,0,0,0-.26.17,2.56,2.56,0,0,0-2.27,1.45.55.55,0,0,0-.06.18,7.72,7.72,0,0,1-2.74,1.21,1.41,1.41,0,0,0-.85-.29l-.32,0a1.49,1.49,0,0,0-.36,0h-.76a1.5,1.5,0,0,0-1.1.47c-2.75.87-5.56,1.73-8.28,2.55-8.08,2.49-16.46,5-24.47,8.29-9.32,3.79-18.2,8.86-26.79,13.77Zm79.83-35.89c1-3.42,4-6.5,6.86-9.06A45.53,45.53,0,0,1,595,91.82c8.6-4.41,16.49-6.76,24.15-7.16.93,0,1.91-.07,3-.07,2.13,0,4.32.1,6.43.2,1.24.06,2.51.12,3.76.15,1.72,0,3.57.07,5.84.07h5A122.7,122.7,0,0,1,631.8,95.67a46.65,46.65,0,0,0-3.55,3.48c-1,1.07-2.08,2.2-3.21,3.19a48.52,48.52,0,0,1-7.24,5.17,55.51,55.51,0,0,1-8,3.74l-1.06.41a34,34,0,0,1-8.08,2.49c-.59.08-1.19.12-1.77.17a21.41,21.41,0,0,0-2.82.33,37,37,0,0,1-4.86.75c-.5,0-1,0-1.53,0a51.6,51.6,0,0,1-6.52-.55c-.3-.16-.58-.31-.84-.47a18.06,18.06,0,0,0,5.29-2l1-.46c2.32-1.1,4.59-2.42,6.78-3.69.49-.29,1-.58,1.47-.85,4-2.3,8-4.76,11.85-7.12,1.08-.68,2.17-1.34,3.26-2a1.19,1.19,0,0,0,.58-1.4,1.59,1.59,0,0,0-1.49-1.14,1.37,1.37,0,0,0-.78.23l-3,1.84c-3.65,2.24-7.43,4.57-11.2,6.77-1.17.67-2.39,1.33-3.56,2s-2.28,1.23-3.4,1.87c-2.05,1.2-5.14,3-7.66,3.15a1.23,1.23,0,0,0-1,.52,1,1,0,0,0-.1.16c0-.1-.08-.19-.12-.27a1,1,0,0,1,0-.1c4.17-2.42,8.33-4.51,13.32-7a1.46,1.46,0,0,0,.78-1.67,1.38,1.38,0,0,0-1.28-1.12,1.22,1.22,0,0,0-.63.17c-4.49,2.23-9.26,4.64-13.89,7.33l-.14.09-.29-.13A7,7,0,0,1,578.37,107.45Zm-1.51,5.86a3.36,3.36,0,0,0,.54-.42c.23.37.48.83.71,1.24a7.27,7.27,0,0,0,.72,1.18,9.44,9.44,0,0,0,1,.85,1.16,1.16,0,0,0,.25.8,13,13,0,0,1-3,1c0-.43,0-.92,0-1.53,0-.23,0-.53-.09-.89A13.34,13.34,0,0,1,576.86,113.31ZM574,114.72c0,.41,0,.83.06,1.22s0,.74,0,1.1l-.47-.76c-.2-.33-.4-.67-.62-1Zm-3.56,2.19.2-.12a6.11,6.11,0,0,1,1.15,1.65c.09.17.18.34.27.48-.63.19-1.25.41-1.8.62A13.53,13.53,0,0,1,570.43,116.91Zm-3,1.92c0,.21,0,.4,0,.59v.15c-.15-.16-.31-.3-.47-.44a.87.87,0,0,1-.1-.08C567,119,567.2,118.92,567.38,118.83Zm-13.12,3.07c2.9-.87,5.89-1.76,8.83-2.69a5.49,5.49,0,0,0,.51,1.07c.08.14.19.32.31.5s.43.68.63,1l-.13,0a1.3,1.3,0,0,0-1.2,1.22,205.08,205.08,0,0,1-18.77,8.58.17.17,0,0,1,0-.07,1.73,1.73,0,0,0-.26-1.21,7,7,0,0,0-.78-1,6.05,6.05,0,0,1-.73-.89,8.88,8.88,0,0,0-2-2.35C545.19,124.6,549.79,123.24,554.26,121.9Zm-17.11,5.5a1.39,1.39,0,0,0,.47.24,4.83,4.83,0,0,1,2.38,2c.26.33.51.65.77,1s.56.68.81,1a4,4,0,0,0,.08,1.19l-2.07.85c0-.07,0-.14-.05-.19a8.84,8.84,0,0,0-.76-1.86l-.31-.64a9.51,9.51,0,0,0-1.64-2.3c-.25-.29-.48-.58-.73-.86C536.45,127.64,536.8,127.52,537.15,127.4Zm-26.62,12.43a193.07,193.07,0,0,1,22.83-11,17.34,17.34,0,0,0,1.21,1.58,18.63,18.63,0,0,1,1.18,1.51,7.51,7.51,0,0,1,.86,2.15c.07.24.14.47.2.7-1.2.5-2.21.91-3.15,1.32-10.28,4.35-20.32,9.56-30,14.57l-1.79.94c-16.63,8.59-34,16.37-50.86,23.9-4.75,2.12-9.65,4.31-14.45,6.48-9.22,4.18-18.35,8.69-27.12,13.45-5.44,2.92-10.87,6.08-16.1,9.15-3.61,2.1-7.35,4.3-11.05,6.38-7.67,4.31-17.78,9.93-28.05,15.13-.64.33-1.29.65-1.92,1a66.45,66.45,0,0,1-10.76,4.75,19.41,19.41,0,0,1-5.78.91,16.18,16.18,0,0,1-1.71-.08c-2-.19-2.19-1.06-2.14-1.75l.1-.12c3-4,7.68-6.33,12.18-8.58,5.91-3,11.64-5.93,16.46-8.44l6.63-3.46c8.41-4.41,17.11-8.95,25.75-13.25,13.27-6.61,27.05-12.71,40.37-18.61,8.56-3.8,17.43-7.73,26.07-11.75,17.27-8.05,34.15-17.45,50.48-26.56Z" transform="translate(122.01 625.2)"/><path class="cls-4" d="M524.56,101.12a8.25,8.25,0,0,1,1.06,2.93,7.41,7.41,0,0,0,.15,1l.15.74.49-.57a1.1,1.1,0,0,1,.45-.31,7.93,7.93,0,0,0,1.83-1.1l.16-.11v-.21a8.72,8.72,0,0,0-3.72-7l-.09-.07-.18-.22-.26.13c-.64.33-1.32.66-2,1l-.44.2.29.37A19,19,0,0,1,524.56,101.12Z" transform="translate(122.01 625.2)"/><path class="cls-3" d="M588.94,72.77c-1.77.71-3.58,1.39-5.43,2.08-2.6,1-5.84,2.21-8.87,3.52l-.21.09-2.38,1-.61.25c-1.23.53-2.52,1.06-3.77,1.64l-.55.28-.33.18c-.39.21-.85.45-1.33.65l-.34.13.13.34c.12.34.24.68.34,1l.09.31.33,0c.7-.13,1.41-.24,2.13-.35l1.52-.25c3.84-.63,7.8-1.28,11.67-2.22l4.56-1.09.2,0c4.23-1,8.6-2,12.81-3.33l.81-.25a51.27,51.27,0,0,0,7.59-2.84l1.39-.7.38-.19c1.55-.81,3.34-1.73,5.14-2.48.2-.06.38-.1.53-.13a2.93,2.93,0,0,0,.67-.2c.24-.12.4-.44.49-1.62v-.14a15.39,15.39,0,0,0-.07-3.8,22.53,22.53,0,0,0-2.25-7.07c-1.3-2.53-2.75-5.1-4.81-6.46a4,4,0,0,0-2.31-.75,8.37,8.37,0,0,0-4,1.5l-.34.2-1.15.62c-2.1,1-4.29,1.93-6.42,2.82l-.11,0c-2.66,1.1-5.4,2.24-8,3.62a115.84,115.84,0,0,0-14.65,9.81l0,0c-1.45,1.09-2.83,2.28-4.36,3.6-.9.79-1.87,1.62-2.87,2.43l-2.66,2.16L565,75.55l1.35-.71.58-.32c.74-.39,1.49-.79,2.25-1.16,4.07-2,8.25-3.71,12.93-5.58a1,1,0,0,1,.4-.08,1.08,1.08,0,0,1,1,.93.94.94,0,0,1-.62,1.12l-1.12.46c-3.49,1.39-7.09,2.84-10.53,4.5-.75.36-1.56.79-2.55,1.33-.8.44-1.74.94-2.68,1.38l-.38.19-.13.06a7.55,7.55,0,0,0-1.86,1l-.22.19.14.26.59,1.21.13.29.31-.1a5.43,5.43,0,0,0,1.14-.56l.61-.32c.89-.41,1.84-.82,2.89-1.26s2.19-.92,3.1-1.33,1.91-.82,2.87-1.22c2.11-.87,4.29-1.7,6.39-2.5l2.14-.82c1.45-.55,2.94-1.11,4.39-1.7a1.33,1.33,0,0,1,.43-.07,1.08,1.08,0,0,1,1,.92A1,1,0,0,1,588.94,72.77Z" transform="translate(122.01 625.2)"/><path class="cls-3" d="M501.12,123.1c4.35-2.26,9-4.69,13.41-7.12a51.15,51.15,0,0,0,10.05-7.79l.26-.23-.22-.28a6,6,0,0,1-1-2.69v0a8.08,8.08,0,0,0-.56-2,18.47,18.47,0,0,0-2.88-4.51l-.2-.22-.27.14c-1.38.78-2.78,1.61-4.1,2.39a90.38,90.38,0,0,1-9.94,5.38c-2.37,1-4.84,1.93-7.23,2.8l-.76.27c-2.3.84-4.67,1.72-7,2.72l-5,2.2-1,.43c-3.2,1.39-6.5,2.83-9.72,4.3-2.69,1.23-5.35,2.57-7.94,3.88l-.28.15c-2.17,1.09-4.41,2.22-6.65,3.27-7.7,3.59-15.69,6.85-23.43,10l-.69.29c-2.95,1.2-6,2.45-9,3.69-9.64,4-20.12,8.71-33,14.73s-23.22,11.38-32.55,16.84c-11,6.47-21,12.25-31.36,17.44l-.1.08a.38.38,0,0,0-.09.09,3.65,3.65,0,0,0-1.26,2.62,2.4,2.4,0,0,0,1,1.74,14.4,14.4,0,0,0,6.74,3,1,1,0,0,1,.51.25l.15.12.18,0a17.18,17.18,0,0,0,2.23-.75l.4-.17.35-.14,4.19-1.58c2.47-.9,5.14-2,8.21-3.25,6-2.49,11-4.66,15.94-7.1,3.28-1.63,6.59-3.33,9.81-5l.83-.42c6.82-3.49,13.87-7.08,20.95-10.26,4.91-2.2,9.72-4.66,14.36-7l.23-.12c5.68-2.9,11.54-5.9,17.54-8.41l3.19-1.33c10-4.15,20.24-8.45,30.51-12.68l2.71-1.11,1.59-.65h0c9.57-3.93,19.49-8,28.89-12.91Z" transform="translate(122.01 625.2)"/><path class="cls-4" d="M562.25,81.25l-.69.28c.23.67.44,1.38.65,2,0,.18.11.36.16.54l.1.29,0,.11a.22.22,0,0,1,.05.08l.47,1,.24-1.1a1.38,1.38,0,0,1,.08-.27l.07-.13,0-.14C563.07,83.1,562.69,82.18,562.25,81.25Z" transform="translate(122.01 625.2)"/><path class="cls-4" d="M560.43,86.22l.07,0,.26-.15-.09-.28c-.15-.51-.31-1-.45-1.53-.28-.92-.62-2.08-1.05-3.15V81c0-.1-.09-.21-.14-.35l0-.12c-.16-.41-.35-.91-.57-1.4l-.16-.39-.37.22c-1.56.94-3.09,2-4.24,2.73-1.39.91-2.51,1.64-3.55,2.29-2.2,1.34-4.61,2.49-6.93,3.6l-.3.15-2.33,1.11c-3.8,1.85-7.29,3.45-10.65,4.87l-.44.19.3.38c.08.09.15.18.23.26l.1.12a2.55,2.55,0,0,1,.43.56,9.27,9.27,0,0,0,.59.86l.1.13a9.05,9.05,0,0,1,.62.91,10.08,10.08,0,0,1,1.33,3.22l.09.53.46-.28c.93-.54,1.75-1,2.5-1.33,3.91-1.82,7.38-3.53,10.58-5.22.91-.48,1.85-.94,2.74-1.38A46.69,46.69,0,0,0,557,88.37a18.94,18.94,0,0,1,3.41-2.13Z" transform="translate(122.01 625.2)"/><path d="M502.21,126.16c4.78-2.5,9.74-5.09,14.54-7.73,4.06-2.24,7.42-5.37,10.69-8.39,1-1,2.15-2,3.26-3a1.42,1.42,0,0,0,.49-1,12.7,12.7,0,0,0,1-.88,8.52,8.52,0,0,1,2.19-1.25,12.43,12.43,0,0,0,1.15-.55l1.11-.63a19.08,19.08,0,0,1,1.77-1c4-1.86,8.07-3.9,12.48-6.26,1.57-.83,3.22-1.63,4.91-2.35a9.62,9.62,0,0,0,2.56-1.82,9.68,9.68,0,0,1,2.15-1.6c.33-.17.73-.34,1.16-.51a16.87,16.87,0,0,0,3-1.57,1.46,1.46,0,0,0,1,.41,1.37,1.37,0,0,0,1.34-.93l2.86-.49c4.07-.65,8.27-1.36,12.38-2.31.92-.23,1.84-.43,2.75-.64,4.65-1.08,9.45-2.2,14.08-3.58l1.17-.35A63.15,63.15,0,0,0,607,77.48c1.47-.62,2.92-1.34,4.32-2,1.13-.55,2.31-1.14,3.46-1.65a8.55,8.55,0,0,1,.93-.36c1.2-.45,2.56-.93,2.95-2.33a16.67,16.67,0,0,0,.2-7,26.66,26.66,0,0,0-6-12.74,8.14,8.14,0,0,0-5.48-3.14,4.43,4.43,0,0,0-.52,0,9.57,9.57,0,0,0-4.76,1.76c-.51.29-1,.58-1.47.81-2.31,1.16-4.72,2.16-7.05,3.14-2.67,1.11-5.43,2.26-8,3.65a103.84,103.84,0,0,0-12.39,8.21L571.52,67c-1.62,1.19-3.18,2.56-4.7,3.88s-3.16,2.78-4.86,4a1.43,1.43,0,0,0-1.15-.53,1.57,1.57,0,0,0-1.26.6,1.17,1.17,0,0,0-.2.87s0,0-.05.06a2.3,2.3,0,0,0-1.36-.48,1.55,1.55,0,0,0-1.46,1.09,1.41,1.41,0,0,0,.13,1.22c-1.69,1-3.36,2.13-5,3.23l-.65.42A72.27,72.27,0,0,1,542.37,86c-.71.33-1.43.68-2.14,1-3.24,1.59-6.69,3.17-10.22,4.69-1.36.6-2.67,1.26-3.94,1.92-1.49.77-3,1.56-4.62,2.2h-.58a1.41,1.41,0,0,0-1.19.59c-1.48.82-3,1.69-4.39,2.53a102,102,0,0,1-10.51,5.64c-1.84.82-3.78,1.47-5.65,2.1-.7.24-1.41.47-2.1.72-2.41.84-4.78,1.9-7.07,2.92l-1.44.63c-1.5.67-3,1.32-4.52,2-3.92,1.71-8,3.47-12,5.31-2.54,1.19-5.08,2.46-7.55,3.71-2.79,1.4-5.68,2.86-8.58,4.17-6.66,3-13.52,5.81-20.18,8.5-4.27,1.74-8.69,3.53-13,5.38-10.08,4.27-20.84,9.15-32.91,14.88C379,160,369.26,165.13,360,170.54c-8.42,4.94-18.21,10.6-28,15.65a1.14,1.14,0,0,0-1.25.32,4,4,0,0,1-.53.34,2.38,2.38,0,0,0-.72.52l0,0a16.8,16.8,0,0,0-1.89,2.12,4.58,4.58,0,0,0-.18,5c1.17,2.08,3.48,3.59,7.09,4.61a1.43,1.43,0,0,0,1.12.91,5.41,5.41,0,0,0,1.21.13,13.78,13.78,0,0,0,5.09-1.37l1.33-.55c2.88-1.06,5.93-2.22,9-3.46,5-2.07,10.93-4.56,16.68-7.31,4.44-2.15,8.91-4.44,13.23-6.65,6.39-3.28,13-6.68,19.67-9.63,5.07-2.24,10.08-4.81,14.91-7.3,5.57-2.86,11.32-5.81,17.19-8.27,10.26-4.32,20.7-8.64,30.81-12.82l2.9-1.2c2.31-1,4.67-1.89,7-2.79,3.24-1.29,6.6-2.61,9.85-4,5.24-2.26,10.82-4.95,17.09-8.23ZM584.53,69a1.47,1.47,0,0,0-1.38-1.23,1.3,1.3,0,0,0-.55.12c-4.67,1.86-8.85,3.58-13,5.58-.88.44-1.77.92-2.63,1.37-.51.28-1,.56-1.54.82,1-.79,1.93-1.61,2.87-2.43,1.39-1.22,2.86-2.47,4.34-3.59a116.45,116.45,0,0,1,14.64-9.81c2.58-1.37,5.32-2.51,8-3.62,2.17-.89,4.39-1.81,6.52-2.85.51-.26,1-.56,1.51-.83a8,8,0,0,1,3.81-1.44,3.59,3.59,0,0,1,2.09.68c2,1.3,3.41,3.83,4.69,6.31a22.08,22.08,0,0,1,2.2,7,14.64,14.64,0,0,1,.09,3.71v.14c-.1,1.1-.24,1.29-.3,1.33a2.11,2.11,0,0,1-.56.15,4.87,4.87,0,0,0-.6.16c-1.75.73-3.48,1.62-5.18,2.49l-1.77.89a49.58,49.58,0,0,1-7.53,2.82l-.82.25c-4.25,1.35-8.69,2.38-13,3.37l-4.57,1.09c-4,1-8.1,1.64-12.08,2.29l-3.21.52c-.1-.33-.22-.67-.34-1,.47-.2.93-.43,1.37-.67l.87-.45c1.43-.66,2.92-1.28,4.36-1.88l2.6-1.1c2.91-1.26,5.93-2.41,8.86-3.51,1.78-.67,3.62-1.36,5.43-2.08a1.31,1.31,0,0,0,.83-1.53,1.45,1.45,0,0,0-1.38-1.23,1.54,1.54,0,0,0-.55.11c-1.86.75-3.75,1.45-5.59,2.15-2.41.93-4.92,1.87-7.35,2.87-1,.4-1.93.81-2.87,1.23s-2.05.9-3.09,1.32-2,.82-2.92,1.27l-.62.33a5.66,5.66,0,0,1-1.08.53c-.18-.39-.38-.78-.59-1.21a7.77,7.77,0,0,1,1.75-1l.55-.25c.9-.43,1.82-.91,2.69-1.39s1.68-.91,2.52-1.32c3.6-1.75,7.39-3.24,11-4.7l.59-.26A1.3,1.3,0,0,0,584.53,69ZM563.68,84.55a2,2,0,0,0-.1.35c0-.06-.07-.1-.1-.15-.07-.27-.17-.54-.25-.83-.21-.67-.42-1.36-.65-2A22.72,22.72,0,0,1,563.68,84.55Zm-22.32,5.08,2.31-1.1a77.06,77.06,0,0,0,7.27-3.78c1.22-.74,2.41-1.52,3.58-2.29,1.36-.92,2.78-1.85,4.22-2.72.23.53.43,1.09.6,1.5.06.18.12.32.16.43.41,1,.72,2.08,1,3.12.13.51.29,1,.45,1.54a.3.3,0,0,0-.08,0,18.8,18.8,0,0,0-3.47,2.17A46,46,0,0,1,550,92.79c-.9.45-1.82.91-2.74,1.39-3.29,1.73-6.75,3.43-10.56,5.21-.88.41-1.76.89-2.54,1.35a9.57,9.57,0,0,0-1.36-3.34,10.51,10.51,0,0,0-.67-1,10.73,10.73,0,0,1-.63-.92,5.31,5.31,0,0,0-.53-.69,3.83,3.83,0,0,1-.28-.29C534,93.12,537.48,91.53,541.36,89.63Zm-15.94,7.49a.5.5,0,0,0,.13.11,8.41,8.41,0,0,1,3.59,6.7,8.1,8.1,0,0,1-1.76,1,1.6,1.6,0,0,0-.59.41c-.06-.33-.11-.67-.13-.9a9.32,9.32,0,0,0-1.09-3.08,21,21,0,0,0-2.14-3.34C524,97.8,524.68,97.49,525.42,97.12Zm-54.64,40-4.3,1.76c-10.18,4.2-20.51,8.51-30.5,12.68l-3.21,1.33c-6.09,2.55-12,5.61-17.79,8.55-4.66,2.38-9.47,4.86-14.32,7-7.28,3.27-14.51,7-21.5,10.54-3.31,1.68-6.74,3.43-10.12,5.12-4.94,2.45-10,4.61-15.93,7.1-2.4,1-5.25,2.16-8.18,3.25L341,196l-.27.1-.78.3a13.84,13.84,0,0,1-2.17.73,1.39,1.39,0,0,0-.69-.33,13.94,13.94,0,0,1-6.56-2.94,2.12,2.12,0,0,1-.86-1.47,3.46,3.46,0,0,1,1.17-2.35s.07-.06.09-.1c10.56-5.31,20.88-11.29,31.38-17.44,9.33-5.47,19.67-10.81,32.53-16.83s23.27-10.68,33-14.72c3.14-1.31,6.36-2.62,9.48-3.89,7.8-3.19,15.86-6.47,23.65-10.1,2.34-1.1,4.67-2.28,6.94-3.43,2.57-1.29,5.24-2.65,7.91-3.87,3.55-1.62,7.2-3.19,10.73-4.73,1.68-.72,3.36-1.46,5-2.2,2.46-1.07,5-2,7.48-2.9s5-1.81,7.47-2.88a95.09,95.09,0,0,0,10-5.4c1.34-.8,2.72-1.62,4.09-2.39a18,18,0,0,1,2.83,4.42,8.7,8.7,0,0,1,.54,2,6.25,6.25,0,0,0,1,2.86,52,52,0,0,1-10,7.74c-4.42,2.43-9,4.82-13.41,7.12l-1.92,1C490.28,129.16,480.37,133.23,470.78,137.16Z" transform="translate(122.01 625.2)"/><path class="cls-4" d="M107.46,136.39a2.06,2.06,0,0,0-1.69-1.21,10.56,10.56,0,0,0-6,.84c-1.8.74-3.82,1.58-5.7,2.57l-.23.13v.83a32.78,32.78,0,0,1-1.32,6.85l-.08.28c-.27,1-.53,2-.76,3a14.35,14.35,0,0,0-.24,5.22l.08.54.51-.18c1.13-.38,2.24-.71,3.44-1l.31-.07,0-.32v-.18a1,1,0,0,1,.81-1l.16,0,.11-.13c1.1-1.27,2.32-2.46,3.57-3.69a34,34,0,0,0,5.61-6.51C106.9,141,108.22,138.06,107.46,136.39Z" transform="translate(122.01 625.2)"/><path class="cls-4" d="M83.72,164.61a6,6,0,0,0,.09-.63c.08-.6.15-1.22.21-1.84l0-.72-1.41.54a49.59,49.59,0,0,0-5.39,2.22,14.19,14.19,0,0,0-3.34,2.41A13,13,0,0,0,70,173.76,24.67,24.67,0,0,0,71,184.22l.1.29c.06.22.11.44.17.67l0,.11a31.2,31.2,0,0,0,3,8.07l0,.06a13,13,0,0,0,1,1.1l.2.18.26-.1a28.19,28.19,0,0,0,3-1.32l.53-.31-.44-.44,0,0a3.33,3.33,0,0,1-.26-.24c-.27-.34-.6-.73-.87-1.14a16.72,16.72,0,0,1-1.28-2.49,1.17,1.17,0,0,1,.25-1.34,1.51,1.51,0,0,1,1.26-.41,1.21,1.21,0,0,1,.87.76,11.14,11.14,0,0,0,1.83,3.06L81,191a4.4,4.4,0,0,1,.36.41l.25.31.35-.22c.66-.42,1.31-.85,2-1.3l0,0,.56-.41.24-.16-.05-.29a1.73,1.73,0,0,1,.05-.74,2.63,2.63,0,0,0-.32-1.54,1,1,0,0,0-.09-.3l-.09-.23a18.82,18.82,0,0,1-.62-2.26,1.14,1.14,0,0,1,.32-1,1.42,1.42,0,0,1,1.44-.3,1.2,1.2,0,0,1,.83,1,12,12,0,0,0,.52,2l0,.15c.12.34.22.66.31,1l.14.61.53-.33a10,10,0,0,1,2.85-1.25,8.59,8.59,0,0,0,2.28-1c.17-.1.35-.18.52-.26l.4-.2-.17-.4a3.33,3.33,0,0,1-.28-.93,10.19,10.19,0,0,1-.1-2.55c0-.14,0-.29,0-.44v-.21a1,1,0,0,1,.31-.68,1.45,1.45,0,0,1,1.15-.39,1.31,1.31,0,0,1,1.09,1.47v.11c0,.15,0,.3,0,.46a4.92,4.92,0,0,0,.18,2.12,2.69,2.69,0,0,0,.24.43l.15.25.28,0a9.32,9.32,0,0,1,1.4,0,.42.42,0,0,0,.19,0l.1,0c.44-.13.83-.26,1.3-.36l.12,0s.09,0,.14-.07l.4-.16,0-.33c-.09-1-.23-2-.39-2.92v-.16c-.2-1.19-.37-2.36-.45-3.55a1.21,1.21,0,0,1,.37-1,1.42,1.42,0,0,1,1.48-.31,1.1,1.1,0,0,1,.71,1c.08,1.1.25,2.2.4,3.27l0,.29c.14.81.29,1.73.39,2.65l.07.58.54-.2a8.48,8.48,0,0,1,1.15-.33l.69-.18-.11-.43c-.07-.27-.13-.52-.2-.75-.11-.51-.21-.87-.27-1.11a2.06,2.06,0,0,1-.07-.32l0-.07a33.12,33.12,0,0,1-.81-4.75,52.66,52.66,0,0,1-.44-10.83,20.81,20.81,0,0,1,.39-2.32l0-.16a13.14,13.14,0,0,0,.38-4.07,1.56,1.56,0,0,0-.66-1.19c-1-.66-2.72-.27-4,0l-.66.15a47,47,0,0,0-6,1.55l-.47.16.19.45a20.5,20.5,0,0,0,1.43,2.71,1.39,1.39,0,0,1-.24,1.73,1.37,1.37,0,0,1-1,.39,1.06,1.06,0,0,1-.78-.54A35.84,35.84,0,0,1,90,159.3l-.19-.41-.41.2-.63.3-.06,0-.21.1,0,0a.46.46,0,0,0-.17.07l-.12,0-.23.12-1.07.51-.27.12v.3a25.75,25.75,0,0,1-.28,4l0,.3a1.27,1.27,0,0,1-.36.73,1.35,1.35,0,0,1-1.53.18A1.23,1.23,0,0,1,83.72,164.61Z" transform="translate(122.01 625.2)"/><path class="cls-4" d="M83,131.41a8.2,8.2,0,0,0-2,1.45c-4,3.87-3.81,11.71-1.34,16.75a18.23,18.23,0,0,0,3.41,4.51,32.67,32.67,0,0,1,2.22,2.58l2.06,2.73-1.28-3.17c-.06-.14-.09-.28-.16-.41l-.17-.45c-1.59-4.24-3.24-8.62-.36-12.67a22.42,22.42,0,0,1,5.54-5.28l.25-.17-.06-.3a8.86,8.86,0,0,0-.29-1,8.09,8.09,0,0,0-4.08-4.8A4.36,4.36,0,0,0,83,131.41Z" transform="translate(122.01 625.2)"/><path class="cls-4" d="M107.38,157.13a1.35,1.35,0,0,1-.5.51l-.2.13V158c0,.81-.17,1.62-.29,2.41l0,.23c-.1.64-.21,1.28-.3,2a42.56,42.56,0,0,0-.14,6.81l0,.49c0,.33,0,.66,0,1l0,.21a31.12,31.12,0,0,0,.92,7.26l0,.09a2.35,2.35,0,0,1,.11.24l0,.15.11.33v.1l0,.08.13.31.09.28.54,0,.23-.21,0-.08a18,18,0,0,1,1.47-2.49l.1-.15c.15-.21.29-.43.45-.65l.21-.33.06-.1c.06-.14.11-.26.15-.38s.2-.46.26-.66c.18-.43.32-.87.47-1.3l.13-.41a20.13,20.13,0,0,1,1.2-3.16,17.32,17.32,0,0,1,1.18-1.83l.21-.29a15.54,15.54,0,0,0,1.33-2l0-.09c1.1-3.72,1.15-6.19.15-7.36a8.74,8.74,0,0,0-5.41-2.84,2.93,2.93,0,0,0-2.32.79A4.14,4.14,0,0,0,107.38,157.13Z" transform="translate(122.01 625.2)"/><path class="cls-4" d="M91.12,141.44l.19-1.19-.93.77c-.39.33-.7.6-1,.87a12,12,0,0,0-2,2.45c-1.86,3-.85,6.25.36,9.32l.85,2.17,0-2.33a28.73,28.73,0,0,1,1.53-8.23A30.19,30.19,0,0,0,91.12,141.44Z" transform="translate(122.01 625.2)"/><path d="M77.22,199.89a1.72,1.72,0,0,0,1.29-.36,14.77,14.77,0,0,1,3.29-1.86,19,19,0,0,0,2.82-1.5c1.1-.76,2.19-1.57,3.27-2.33s2-1.5,3.07-2.22h0a11.33,11.33,0,0,0,6.38-2.14c.81-.15,1.58-.32,2.34-.51.92-.21,1.84-.43,2.78-.56.48-.08,1-.13,1.48-.17.64-.07,1.3-.14,2-.26.31-.06.69-.16,1.08-.26s1.06-.27,1.59-.36a2.42,2.42,0,0,0,2.17.28,2,2,0,0,0,.66-.42,4.34,4.34,0,0,0,1-2.67,6.57,6.57,0,0,0-.08-1.41,8.2,8.2,0,0,1-.06-1.4,8.09,8.09,0,0,1,1.09-2.78c.06-.16.15-.32.23-.49a11.08,11.08,0,0,0,.58-1.19c.16-.23.31-.44.41-.62l.21-.32a51.79,51.79,0,0,0,3-5.2,22.4,22.4,0,0,0,1.55-4.3c.2-.32.35-.61.49-.89s.22-.47.34-.71a17.41,17.41,0,0,0,1.81-4.87c.2-1.42-.73-2.61-1.7-3.58-4.35-5.56-12.72-4.81-15.19-4.46a1.75,1.75,0,0,0-.35.11,11,11,0,0,0-2.94.17c.72-.75,1.44-1.46,2.15-2.17,3.12-3.1,6.34-6.31,7.54-10.88a6.37,6.37,0,0,0-1.66-6.44c-1.8-1.69-5.23-1.54-7.83-.83a37,37,0,0,0-7.29,2.83,11.32,11.32,0,0,0-4.83-6.55,6.93,6.93,0,0,0-5.54-.6,10,10,0,0,0-4.33,2.48c-3.75,3.64-4.43,9.81-3.83,14.38a20.65,20.65,0,0,0,3.67,9.1A16.66,16.66,0,0,0,82,156.38a22.17,22.17,0,0,1,1.7,1.79,1.72,1.72,0,0,1,.25.35c-.7.28-1.44.56-2.13.81a42.85,42.85,0,0,0-6.43,2.82,13.65,13.65,0,0,0-2.5,1.9,18.55,18.55,0,0,0-4.77,8.35c-1,3.9-.2,8.14.73,11.76l.07.26A43.73,43.73,0,0,0,72,193.66a1.65,1.65,0,0,0,.41,1c.13.14.25.29.38.44.29.47.58.89.87,1.3a1.62,1.62,0,0,0,.89.58,6.06,6.06,0,0,0,.6.42,6,6,0,0,0,.86,1.85A1.74,1.74,0,0,0,77.22,199.89Zm30.87-42a1.84,1.84,0,0,0,.34-.27,3.05,3.05,0,0,0,.32-.38,2.34,2.34,0,0,1,.44-.58,2.51,2.51,0,0,1,2-.66,8.34,8.34,0,0,1,5.09,2.69c.61.71,1.07,2.5-.23,6.92a14.92,14.92,0,0,1-1.3,1.91,18.84,18.84,0,0,0-1.42,2.2,21,21,0,0,0-1.27,3.3c-.18.53-.35,1.08-.55,1.61-.11.32-.27.65-.43,1l-.07.1-.09.16c-.17.24-.32.49-.49.73a20.1,20.1,0,0,0-1.62,2.7.05.05,0,0,1,0,0c0-.1-.09-.21-.14-.32v-.09c-.07-.18-.1-.35-.16-.52s-.08-.22-.13-.33a32.75,32.75,0,0,1-.93-7.36c0-.51,0-1-.07-1.51a41.61,41.61,0,0,1,.14-6.74q.12-1,.3-1.92A23.81,23.81,0,0,0,108.09,157.87Zm-7.16-21.59a10.08,10.08,0,0,1,5.73-.81,1.61,1.61,0,0,1,1.35.94c.64,1.39-.43,4.06-1.33,5.52a33.13,33.13,0,0,1-5.55,6.43c-1.21,1.17-2.46,2.4-3.58,3.72a1.39,1.39,0,0,0-.76.36,1.57,1.57,0,0,0-.44,1.1.57.57,0,0,1,0,.13c-1.16.3-2.3.64-3.47,1a14.43,14.43,0,0,1,.23-5.07c.25-1.1.54-2.2.83-3.28a31.79,31.79,0,0,0,1.34-7c0-.18,0-.37,0-.57C97.07,137.88,99,137.09,100.93,136.28ZM89.19,153.33c-1.19-3-2.14-6.11-.41-8.91a11.7,11.7,0,0,1,1.92-2.36,11.35,11.35,0,0,1,1-.84,30.06,30.06,0,0,1-.92,3.76A29.93,29.93,0,0,0,89.19,153.33Zm-4.81.33a17.84,17.84,0,0,1-3.33-4.41c-2.4-4.89-2.61-12.48,1.25-16.22a7.26,7.26,0,0,1,1.92-1.36,3.82,3.82,0,0,1,3.32-.21A7.58,7.58,0,0,1,91.38,136a8.41,8.41,0,0,1,.27.93,24.62,24.62,0,0,0-3.29,2.66A21.44,21.44,0,0,0,86,142.31c-3,4.25-1.32,8.74.31,13.09.11.29.22.57.33.87A28.94,28.94,0,0,0,84.38,153.66ZM75.65,193a31.13,31.13,0,0,1-3-8.07c-.08-.31-.16-.62-.26-1a24.3,24.3,0,0,1-.95-10.26,12.59,12.59,0,0,1,3.8-6.93,13.26,13.26,0,0,1,3.22-2.33,52.59,52.59,0,0,1,5.34-2.2l.75-.29c-.06.62-.12,1.23-.22,1.82,0,.22,0,.42-.07.62a1.68,1.68,0,0,0,.93,1.76,1.8,1.8,0,0,0,2-.26,1.62,1.62,0,0,0,.49-1l0-.3a29,29,0,0,0,.3-4l1.06-.51.3-.15.18-.08a1.91,1.91,0,0,0,.32-.16l.64-.3a34.36,34.36,0,0,0,1.88,3.4,1.47,1.47,0,0,0,1.1.75,1.76,1.76,0,0,0,1.41-.51,1.82,1.82,0,0,0,.31-2.3A19.25,19.25,0,0,1,93.87,158a44,44,0,0,1,6-1.54l.69-.16c1.14-.27,2.86-.65,3.65-.1a1.15,1.15,0,0,1,.49.87,13.46,13.46,0,0,1-.42,4,22.63,22.63,0,0,0-.39,2.43,52.07,52.07,0,0,0,.45,10.92,29.7,29.7,0,0,0,.81,4.81,1.59,1.59,0,0,0,.08.39c.08.28.18.66.28,1.09.06.25.13.49.19.76l-.25.06a10.33,10.33,0,0,0-1.19.34c-.12-.9-.25-1.81-.38-2.67-.18-1.14-.37-2.33-.45-3.52a1.55,1.55,0,0,0-1-1.4,1.89,1.89,0,0,0-2,.41,1.61,1.61,0,0,0-.5,1.37c.09,1.22.27,2.42.46,3.58.14,1,.3,2,.4,3l-.28.12a13.26,13.26,0,0,0-1.33.38H99a11.53,11.53,0,0,0-1.45,0,3.84,3.84,0,0,1-.22-.39,4.53,4.53,0,0,1-.14-1.9c0-.2,0-.4,0-.58a1.75,1.75,0,0,0-1.48-1.93,1.83,1.83,0,0,0-1.52.51,1.42,1.42,0,0,0-.46,1c0,.21,0,.43,0,.63a12,12,0,0,0,.13,2.67,4.26,4.26,0,0,0,.3,1c-.19.08-.37.18-.54.27a8.55,8.55,0,0,1-2.16.93,10,10,0,0,0-3,1.31c-.09-.4-.21-.78-.34-1.19a9.74,9.74,0,0,1-.49-1.89,1.73,1.73,0,0,0-1.14-1.38,1.87,1.87,0,0,0-1.89.4,1.56,1.56,0,0,0-.46,1.41,14.06,14.06,0,0,0,.67,2.43l0,.14A3,3,0,0,1,85,187a3.6,3.6,0,0,1,.31,1.29,2.17,2.17,0,0,0-.07.94l-.6.44c-.6.43-1.25.86-1.92,1.29-.15-.19-.31-.36-.47-.55l-.19-.2a9.83,9.83,0,0,1-1.75-2.93,1.67,1.67,0,0,0-1.2-1,1.93,1.93,0,0,0-1.68.52,1.61,1.61,0,0,0-.34,1.84,16.14,16.14,0,0,0,1.32,2.55,11.43,11.43,0,0,0,.91,1.2c.08.09.19.19.31.3a.07.07,0,0,0,0,0,28,28,0,0,1-3,1.3A11,11,0,0,1,75.65,193Z" transform="translate(122.01 625.2)"/><path class="cls-3" d="M9.56,99.41a88.63,88.63,0,0,0-5,16.07c-1.32,6-1.21,11.07.33,15.34,2.09,5.78,6.17,9.85,12.43,12.44a30.38,30.38,0,0,0,11.88,2c3,0,6-.26,9-.51l.75-.07a159.28,159.28,0,0,0,21.28-3.39c5.78-1.28,11.17-2.9,13.92-8.53A30,30,0,0,0,76.73,124l.1-.72-.69.22-2,.67a71,71,0,0,1-14.16,3.63,92.14,92.14,0,0,1-17.9.32l-.68-.06c-3.38-.28-9-.74-10.11-4.21a6.58,6.58,0,0,1-.1-2.24c0-.34.05-.67.05-1V108c0-.13,0-.15.05-.16l.26-.1,0-.27s0-.32.32-.32c1.11.06,2.21.15,3.28.23,1.69.12,3.43.26,5.16.26a25.7,25.7,0,0,0,3.13-.17c1.58-.16,3.21-.27,4.76-.37,2.19-.15,4.43-.29,6.62-.61a51.78,51.78,0,0,0,10.63-3l1.48-.53,1.72-.66c.92-.37,1.87-.75,2.8-1a11.22,11.22,0,0,0,1.78-.69l.37-.18-.16-.39c-.59-1.45-1.23-2.85-1.92-4.16A43.52,43.52,0,0,0,59.34,81.24a70.28,70.28,0,0,0-12.57-7l-.06,0c-.81-.38-1.72-.8-2.77-1.31l-.24-.12-.21.15a7.64,7.64,0,0,1-4.3,1h-.63c-3-.08-5.5-.13-8.1-.15h-.18l-.15.15a1.64,1.64,0,0,1-.54.39C21.5,78.47,15.14,86.45,9.56,99.41Z" transform="translate(122.01 625.2)"/><path class="cls-4" d="M76.92,122.35a40.41,40.41,0,0,0,0-8.23A51.35,51.35,0,0,0,74,101.48l-.18-.49-.46.25a18.62,18.62,0,0,1-3.4,1.29l-1,.33c-1.22.42-2.45.88-3.62,1.34a45,45,0,0,1-8.71,2.63c-2.55.39-5.16.59-7.7.78-1.75.13-3.58.26-5.36.47a30.18,30.18,0,0,1-3.09.15c-1.76,0-3.53-.12-5.24-.26-1-.06-2-.14-3-.19l-.47,0v.48c0,1.57,0,3.18.05,4.74.05,3.12.11,6.36-.05,9.5a3.26,3.26,0,0,0,.91,2.5c2.28,2.45,8.39,2.58,11.67,2.64l1.17,0c1.72.08,3.3.12,4.87.12A73,73,0,0,0,61.65,127a73.28,73.28,0,0,0,12.14-3.28l2.82-.93.29-.1Z" transform="translate(122.01 625.2)"/><path class="cls-4" d="M29.7,62.42c-.87,0-1.31.3-1.31.89a10.54,10.54,0,0,0,.15,1.55l0,.19c0,.23.08.46.11.7v.06a2.09,2.09,0,0,1,.05.33l0,.16.06.14c0,.07,0,.14.08.24a6.39,6.39,0,0,1,.27,1.65c0,.28,0,.56.07.84v.07s0,.07,0,.11l0,.18.16.11.07.06.13.09h1.62l2.16,0c1.08,0,2,0,2.82.06l.29,0,.79.08.2,0c.57,0,1.17.12,1.75.12a5.65,5.65,0,0,0,1.33-.14l.27-.09.06-.26a2.91,2.91,0,0,0,.09-.73c0-.38,0-.78-.09-1.21L40.82,67c0-.44-.1-1-.13-1.45s0-1.19,0-1.81a.58.58,0,0,0-.11-.44c-.26-.3-.79-.35-1.49-.39l-.44,0a37,37,0,0,0-4.26-.17H32.08a1.59,1.59,0,0,1-.4,0l-.08,0-.21,0-.19,0A9.71,9.71,0,0,0,29.7,62.42Z" transform="translate(122.01 625.2)"/><path class="cls-4" d="M31.47,31.49c0,4.11.23,8.3.43,12.35L32,45.91a55,55,0,0,0,1.66,12.53l.09.34h.36l.41,0h2.76l0-.41c.21-2.28.46-4.53.74-7s.65-5.61.88-8.55c.4-4.66.41-9.15.4-14.12a65.08,65.08,0,0,0-1-13.39,29,29,0,0,0-2-6.45c-.35-.79-.76-1.55-1.17-2.28l0,0c-.15-.29-.3-.58-.46-.86l0-.06a4,4,0,0,0-.25-.36l-.07-.1a5.21,5.21,0,0,1-.45-.66l-.31-.61-.44.53a5.74,5.74,0,0,0-.83,2.81l0,.21a2.84,2.84,0,0,1,0,.42,72.29,72.29,0,0,0-.73,7.72c-.19,4.36-.1,8.8-.05,12.72C31.43,29.3,31.45,30.4,31.47,31.49Z" transform="translate(122.01 625.2)"/><path d="M74.76,100c-.26.67-2,1.26-2.66,1.45-1.54.46-3,1.15-4.53,1.7-4,1.44-7.76,2.92-12,3.53-3.75.54-7.58.57-11.35,1s-7.61-.14-11.5-.32c-.94,0-1.12,1.42-.17,1.46,4,.17,7.84.76,11.86.32,4.38-.49,8.76-.58,13.09-1.24s8.27-2.58,12.41-4c1.69-.58,5.49-1.39,6.25-3.33A.73.73,0,0,0,74.76,100Z" transform="translate(122.01 625.2)"/><path d="M78.08,122.62c-5.22,1.65-10.25,3.63-15.69,4.45a82.41,82.41,0,0,1-16.08.69c-3.23-.14-13.55.21-13.31-4.71.23-4.72,0-9.54,0-14.27,0-.92-1.45-1.13-1.45-.18v12.56a11.74,11.74,0,0,0,.08,3.35c1.26,4,7.8,4.29,11.17,4.59a92.5,92.5,0,0,0,18-.33c6.25-.72,11.9-2.93,17.84-4.81C79.54,123.68,79,122.33,78.08,122.62Z" transform="translate(122.01 625.2)"/><path d="M15.78,147.65c5,2.26,10.35,2.52,14,2.52,2.09,0,4.16-.1,6.1-.2a178.16,178.16,0,0,0,21.5-2.89l.85-.15c5.37-.94,11.48-2,15.94-5.69,5.84-4.79,7.58-12.9,8-18.84a55.85,55.85,0,0,0-3.62-22.86A48.42,48.42,0,0,0,65.67,80.77c-5-4.57-10.76-7.33-16.84-10.25-.88-.41-1.75-.84-2.6-1.26,0-.55-.11-1.1-.16-1.63a13.79,13.79,0,0,1-.14-2.84c.33-3.33-1.74-4.57-3.46-5.17.23-2.53.52-5.11.8-7.59.38-3.24.75-6.59,1-9.92.41-5.64.32-11.53.2-16.61a54.88,54.88,0,0,0-2.26-15.1,32.17,32.17,0,0,0-3.28-7C37.61,1.18,36,0,34.39,0a2.59,2.59,0,0,0-.48,0c-4.25.59-5,5.37-5.42,8.56v.06a114.84,114.84,0,0,0-.69,18.52v.27c.08,5,.28,10.15.46,15.09l.1,2.92a68.59,68.59,0,0,0,1.43,13.06,5.32,5.32,0,0,0-4.84,3.89A10.51,10.51,0,0,0,25,66l0,.19c.05.41.11.83.14,1.23,0,.18.11.55.18.84s.11.44.16.56c.07.35.11.71.16,1.07a8.13,8.13,0,0,0,.55,2.38c-8.31,5.19-14.85,14-20.55,27.6A82.42,82.42,0,0,0,.4,118.36a29.73,29.73,0,0,0,2.84,18.48C5.58,141.32,9.69,144.88,15.78,147.65ZM32.7,16.08a76.41,76.41,0,0,1,.74-7.67c0-.2.06-.42.08-.64a5.19,5.19,0,0,1,.71-2.58,6.65,6.65,0,0,0,.49.73c.12.15.22.3.28.39.16.31.33.62.5.93.41.74.82,1.5,1.17,2.29a28.46,28.46,0,0,1,2,6.37,65.29,65.29,0,0,1,1,13.29c0,4.74,0,9.38-.38,14.09-.23,2.84-.56,5.73-.88,8.52-.26,2.31-.54,4.68-.76,7.05H35.73c-.27,0-.57,0-.85,0a53.45,53.45,0,0,1-1.62-12.42L33.17,45c-.18-4.26-.4-8.64-.45-13,0-1.1,0-2.19,0-3.27C32.59,24.61,32.53,20.31,32.7,16.08ZM30.52,63.44a8.83,8.83,0,0,1,1.41.16l.44.07a2.11,2.11,0,0,0,.51,0h2.35a35.79,35.79,0,0,1,4.22.17l.45,0c.42,0,1,.06,1.17.22a.11.11,0,0,1,0,.1,14.75,14.75,0,0,0,0,1.88c0,.48.07,1,.13,1.49,0,.21,0,.44.06.65,0,.4.07.8.09,1.18a2,2,0,0,1-.08.63,5.32,5.32,0,0,1-1.21.12A17.53,17.53,0,0,1,38.13,70c-.38,0-.75-.08-1.08-.1-.84,0-1.75-.07-2.86-.07l-2.19,0c-.48,0-1,0-1.45,0a.34.34,0,0,0-.09-.08.68.68,0,0,1,0-.14c0-.28-.06-.54-.07-.82a7.48,7.48,0,0,0-.31-1.77,1,1,0,0,0-.09-.27,1.06,1.06,0,0,0,0-.56c0-.32-.08-.63-.12-.92a8.13,8.13,0,0,1-.14-1.47C29.66,63.73,29.66,63.44,30.52,63.44ZM5.77,116.14a87.48,87.48,0,0,1,5-16C16.31,87.3,22.62,79.39,30.6,75.26a2.27,2.27,0,0,0,.66-.49c2.58,0,5.1.07,8.1.15H40a8.14,8.14,0,0,0,4.57-1.07c.92.45,1.85.9,2.77,1.31a70.57,70.57,0,0,1,12.55,7,43.13,43.13,0,0,1,12,14.48,50.14,50.14,0,0,1,5.37,18.08c.66,6.92-.3,13.26-2.81,18.4-2.65,5.44-8,7-13.6,8.29a159.55,159.55,0,0,1-21.24,3.39l-.36,0c-3,.25-6.18.54-9.31.54a29.83,29.83,0,0,1-11.7-2c-6.15-2.54-10.12-6.52-12.18-12.17C4.57,127,4.47,122.12,5.77,116.14Z" transform="translate(122.01 625.2)"/></g></g></svg>