<svg xmlns="http://www.w3.org/2000/svg" viewBox="0 0 981.47 217.9"><defs><style>.cls-1{fill:#ffb53f;}</style></defs><title>ball</title><g id="图层_2" data-name="图层 2"><g id="POST_5" data-name="POST 5"><path class="cls-1" d="M380,125.57c14.53-1.89,24.17-11.28,28.69-26.31,6-19.91-3.55-28.92-16.28-39.08-8.31-6.64-28.7-21.1-46-15.09-15.31,5.32-33.07,34-23.29,55.21C331.05,117.39,359.57,128.22,380,125.57Z"/><path class="cls-1" d="M427.74,172.73c5.85-.76,9.73-4.55,11.55-10.6,2.42-8-1.43-11.65-6.56-15.74-3.34-2.67-11.56-8.5-18.53-6.08-6.17,2.14-13.32,13.71-9.38,22.24C408,169.43,419.49,173.8,427.74,172.73Z"/></g><g id="图层_9" data-name="图层 9"><path d="M463.77,217.9h.87a52.13,52.13,0,0,0,29.09-9.83l.25,0a.92.92,0,0,0,1-.91c.85-.64,1.69-1.29,2.49-2A59.78,59.78,0,0,0,509,192.5a1.1,1.1,0,0,0,.69-.92v-.13a58.91,58.91,0,0,0,6.92-15A52.31,52.31,0,0,0,518.62,158,50.23,50.23,0,0,0,514,140a51.6,51.6,0,0,0-17.55-20.49,58.93,58.93,0,0,0-13.15-6.66,109.35,109.35,0,0,0-12.93-3.53,1,1,0,0,0-.77-.35l-.89,0-.16,0-.34-.08a1.27,1.27,0,0,0-.26,0,.88.88,0,0,0-.46.12c-1.38,0-3.18-.07-5-.07a67.46,67.46,0,0,0-13,1.05,43.32,43.32,0,0,0-16.54,6.92,49.91,49.91,0,0,0-11.82,11.51,61.38,61.38,0,0,0-7.94,14.48,60.23,60.23,0,0,0-2.5,8.2.81.81,0,0,0-.19.86,57.42,57.42,0,0,0,1,28,52.9,52.9,0,0,0,19,26.8A55.65,55.65,0,0,0,463.77,217.9Zm-24.69-8.47a3.92,3.92,0,0,0-.44-1.62l-.23-.52a15.67,15.67,0,0,1-.56-1.92c-.07-.34-.16-.69-.25-1-.22-.79-.52-1.56-.8-2.3-.11-.3-.23-.59-.34-.89s-.17-.46-.27-.69a11.4,11.4,0,0,1-.6-1.82l1.27.22c1.17.21,2.39.45,3.57.58.14.58.32,1.17.5,1.74.09.28.18.56.26.85.25.84.46,1.71.66,2.54.15.58.28,1.18.45,1.77s.34,1.34.51,2,.34,1.37.52,2c.11.41.26.83.41,1.24h0A50.65,50.65,0,0,1,439.08,209.43Zm6.62,3c-.11-.37-.24-.72-.36-1.06l-.26-.73c-.25-.76-.44-1.56-.62-2.33-.13-.53-.26-1.07-.41-1.6s-.29-1.22-.42-1.82a21.44,21.44,0,0,0-.62-2.45c-.22-.66-.4-1.23-.53-1.8-.06-.29-.16-.56-.25-.85a1.21,1.21,0,0,0-.05-.14l1.11.15.09,0a13.24,13.24,0,0,1,.61,1.77,15.29,15.29,0,0,0,.66,1.9,8.94,8.94,0,0,1,.41,1.1c.13.36.25.73.41,1.08.34.79.63,1.46.88,2.15.14.37.27.75.41,1.14.4,1.13.81,2.3,1.26,3.44.12.3.22.61.34.93C447.47,213,446.57,212.72,445.7,212.4Zm4.67,1.49a1.72,1.72,0,0,0-.1-.26,6.52,6.52,0,0,1-.49-1.17,7.43,7.43,0,0,0-.26-.71c-.44-1.06-.83-2.19-1.2-3.27l-.46-1.29c-.23-.64-.5-1.25-.75-1.85s-.61-1.4-.85-2.13c-.08-.23-.15-.46-.23-.71l.08.05a9.85,9.85,0,0,1,1,.77c.56.53,1.15,1,1.72,1.52l.46.4a1.06,1.06,0,0,0,0,.19c.48,1.6,1.09,3.2,1.68,4.74.16.42.32.83.47,1.25s.33.94.47,1.4.32,1,.52,1.52l0,.08C451.81,214.26,451.09,214.08,450.37,213.89Zm4,.91a4.47,4.47,0,0,1-.37-1c-.05-.17-.1-.33-.15-.46-.18-.5-.35-1-.51-1.52s-.3-1-.48-1.42-.27-.72-.4-1.07c-.22-.58-.45-1.18-.67-1.78.92,1,1.78,2,2.62,3l.3.36c.3.37.61.74.89,1.11l.91,1.11.46.54a7.93,7.93,0,0,1,1.2,1.61C456.9,215.23,455.62,215,454.36,214.8ZM494.19,194c-.1.36-.2.74-.29,1.1a38.93,38.93,0,0,0-.59,3.91l0,.23c-.25,2.21-.5,4.49-.56,6.76a53.06,53.06,0,0,1-14.46,7.39,47,47,0,0,1-14.55,2.28c-.76,0-1.53,0-2.29-.05a1.6,1.6,0,0,0-.5-.71,2.44,2.44,0,0,0-.72-.49,14.46,14.46,0,0,0-2.23-3c-.34-.41-.67-.78-1-1.16-1.16-1.43-2.41-3-3.79-4.42a49.26,49.26,0,0,0-4.11-3.82l-.05,0c-.73-.59-1.41-1.15-2.17-1.68a2.11,2.11,0,0,1-.79-1.08l.2-.54a22,22,0,0,1,.87-2.12c.7-1.42,1.33-2.85,2-4.43.54-1.25,1.27-2.89,2.06-4.49.11-.24.23-.5.35-.79a5.63,5.63,0,0,1,1.58-2.45,1,1,0,0,0,.48-.81c1.39-.05,2.77-.22,4.11-.39l2-.22a.65.65,0,0,0,.19,0,.71.71,0,0,0,.26,0l.13,0h0c1.11-.12,2.22-.26,3.28-.41,1.29-.15,2.62-.33,3.93-.46.93-.09,1.89-.12,2.8-.14l1,0a20.84,20.84,0,0,0,3.1-.41l.79-.14a43.54,43.54,0,0,1,5.79-.52,1.25,1.25,0,0,0,.23.4,12.18,12.18,0,0,0,2.55,1.92l.64.39c1.39.9,2.63,1.71,3.85,2.66,2,1.59,4.32,3.39,6.39,5.34A14.49,14.49,0,0,1,494.19,194ZM449,160.72l.4.44c.61.68,1.23,1.37,1.83,2.08a.76.76,0,0,1,.09.09,21.12,21.12,0,0,0-1.77,2.35c-.18.29-.38.57-.59.85s-.35.47-.51.71l-.33-1-.47-1.48c-.12-.38-.25-.77-.37-1.13s-.28-.84-.4-1.25C447.6,161.86,448.29,161.31,449,160.72Zm-2.6,0a12,12,0,0,1-.25-1.34c.28-.26.55-.55.86-.9.3.35.6.71.91,1.06Zm6,1.41c-.66-.76-1.35-1.52-2-2.26l-.11-.13c.59-.48,1.2-1,1.79-1.45l2.58-2.06.06.05c.57.52,1.14,1,1.68,1.5-.75.85-1.52,1.69-2.28,2.5C453.58,160.86,453,161.48,452.44,162.1Zm.1,2.72-.3.2-.43.3c.19-.25.39-.49.58-.71Zm9.16-10.89.29-.34.2.18a46.06,46.06,0,0,1,3.2,3.41c-.67.44-1.26.83-1.82,1.17-.76.47-1.57,1-2.54,1.52a26,26,0,0,0-2.18-2.15l-.15-.14C459.71,156.37,460.72,155.14,461.7,153.93Zm-.05-2.84c.28-.2.54-.39.77-.58l-.19.25-.29.33-.12.15Zm11.15,13.16-.37.2c-.54-.95-1-1.83-1.57-2.63s-1-1.51-1.57-2.31l2.1-2,2.48-2.4c.42.54.81,1.1,1.18,1.62,1,1.44,2,3,2.95,4.69C476.28,162.37,474.51,163.33,472.8,164.25Zm3.39,0c-.6.5-1.23,1-1.82,1.55-.26.23-.52.49-.84.79l-.36-.7.94-.5Zm-3.87,3.53-.38.37c-.29.28-.58.57-.86.86-.91.89-1.87,1.87-3,3.06-.37-1-.75-1.83-1.12-2.63l.08,0c1.67-1,3.38-2,4.72-2.73C471.93,167,472.11,167.35,472.32,167.75Zm-1.86-11.62-2.15,2.08-.52-.66c1.19-.8,2.37-1.62,3.51-2.45l.8-.57C471.56,155.07,471,155.6,470.46,156.13Zm-2.35,4.52c.32.45.59.84.84,1.21.7,1,1.37,2.12,2.06,3.37-1.27.7-2.76,1.52-4.24,2.41-.19.1-.37.21-.55.32-.19-.39-.38-.78-.55-1.17a25.66,25.66,0,0,0-1.26-2.44l0,0C465.47,163.24,466.62,162.1,468.11,160.65Zm-3.21,8.14c-1.33.85-2.64,1.74-3.93,2.61-.55.38-1.1.76-1.66,1.13l-1.13-1.9c1.62-1.71,3.24-3.35,5-5.13.12.19.22.37.33.56C464,166.93,464.49,167.89,464.9,168.79ZM463.49,163c-.44-.64-.91-1.27-1.38-1.84l1.36-.8c.9-.55,1.87-1.16,3-1.86l.71.89C465.82,160.64,464.62,161.82,463.49,163ZM460,153.49l-2.5,3c-.59-.51-1.06-.94-1.5-1.33.55-.43,1-.79,1.44-1.11.81-.62,1.66-1.21,2.49-1.77l.36-.25.36.3.15.14Zm-4.52,7.73c.73-.78,1.47-1.59,2.19-2.4l.48.41c.49.43,1,.92,1.49,1.45-.38.2-.76.42-1.14.64l-2.59,1.46-2,1.17c-.15-.2-.29-.4-.44-.59C454.12,162.65,454.8,161.92,455.46,161.22Zm0,3.67c1.31-.78,2.66-1.55,4-2.28l1.24-.7a24.36,24.36,0,0,1,1.63,2.19l-1.09,1.09c-1.3,1.31-2.65,2.66-3.94,4l-.05-.09c-.08-.12-.15-.24-.23-.38-.22-.32-.42-.66-.62-1-.51-.81-1-1.65-1.55-2.46Zm1.52,7,.45.74.47.81-2.17,1.41-1.07.67c-.26.17-.51.36-.76.54l-.51.35c.08-.12.16-.22.24-.33l.55-.73C455.19,174,456.11,172.89,457,171.89Zm-2.66,5.81c.85-.59,1.74-1.16,2.6-1.71.58-.36,1.18-.74,1.75-1.12l.06,0h0l.06.1c.46.75.86,1.56,1.26,2.34.15.28.29.58.44.86s.38.67.6,1a2.39,2.39,0,0,0,.13.21,7.52,7.52,0,0,1-1.21,1.3l-1.38.18c-1.7.21-3.45.45-5.18.5a.83.83,0,0,0-.44-.19.11.11,0,0,0,0,0,3.69,3.69,0,0,0-.19-1l-.49-1.23.21-.14.47-.26A14.58,14.58,0,0,0,454.35,177.7Zm6.25-2.9-.46-.82,0-.06,1.3-.88c1.35-.9,2.76-1.86,4.16-2.75.45,1,.87,2,1.25,3.05-.51.53-1,1.08-1.51,1.61l-.71.74c-.23.25-.45.48-.69.72-.51.55-1.05,1.11-1.56,1.68-.05-.08-.11-.17-.15-.25-.25-.47-.5-1-.73-1.41S460.9,175.35,460.6,174.8Zm4.61,2.6.66-.7,1.5-1.59.07-.08c.27.69.57,1.44.94,2.31l-.46.2c-1.14.51-2.34,1-3.47,1.63-.36.19-.74.39-1.13.58l-.1-.2C463.85,178.82,464.54,178.1,465.21,177.4Zm3.8,1.45c0,.11.08.24.12.36s.11.3.16.46c-.52,0-1.08,0-1.64.08l-.72.07Zm-.31-5.15c1-1,2.16-2.26,3.4-3.46.31-.32.64-.63,1-.94.26.57.53,1.14.78,1.7.43.95.89,1.85,1.36,2.77l-.2.12c-1.53.89-3.11,1.81-4.73,2.59l-.41.19C469.43,175.67,469.05,174.66,468.7,173.7Zm1.89,4.42.31-.15c1.63-.77,3.19-1.69,4.71-2.58l.32-.18c.11.21.22.44.33.66.39.77.76,1.45,1.14,2.1.17.26.35.5.54.74-1,.07-1.82.17-2.63.29-.44.06-.88.15-1.32.24a21,21,0,0,1-2.54.36l-.4,0c0-.13-.09-.27-.13-.41s-.08-.27-.12-.37-.19-.44-.29-.68Zm7.32-2.55c-.16-.36-.34-.74-.57-1.21l1-.58c1.16-.71,2.36-1.45,3.57-2.07,0,.52-.08,1-.11,1.51-.07,1-.2,2-.32,2.91s-.22,1.61-.29,2.4l-1.28.05a13.16,13.16,0,0,0-.88-1.32A9.79,9.79,0,0,1,477.91,175.57Zm3.71-5.46a.8.8,0,0,0-.36.09c-1.12.58-2.2,1.24-3.25,1.89l-1.4.86c-.38-.72-.77-1.47-1.1-2.22-.45-1-.85-1.82-1.22-2.6,1.41-1.34,2.61-2.4,3.75-3.33.45-.37.87-.74,1.27-1.11.53.95,1.06,1.93,1.53,3,.05.11.1.25.15.39a3.3,3.3,0,0,0,1,1.55.91.91,0,0,0,.17.09c-.05.51-.09,1-.14,1.53A.62.62,0,0,0,481.62,170.11Zm.28-5a25,25,0,0,0-1.29-2.4l-.08-.14.77-.68c.46-.42.94-.81,1.38-1.17l0,0c-.07,1.69-.16,3.48-.33,5.24v.2c-.08-.17-.15-.34-.23-.5S482,165.25,481.9,165.08Zm.7-6.56c-1,.65-2,1.32-3.2,2-.94-1.6-2-3.28-3.26-5.13-.34-.49-.69-1-1.09-1.5,1.29-1.26,2.42-2.37,3.44-3.4.2.09.39.16.55.24a17.65,17.65,0,0,1,4.37,2.68,12.76,12.76,0,0,0-.57,4.16c0,.22,0,.46,0,.7v.07Zm-7-8.14c-.4.2-.8.42-1.18.65s-.83.53-1.19.77c-.49-.55-1-1.08-1.53-1.59s-.94-.91-1.4-1.34c-.7-.66-1.41-1.34-2.09-2,.45.2.91.38,1.34.58,1.08.46,2.18.93,3.29,1.36a28.06,28.06,0,0,0,2.75.85l.9.25Zm-6.12-.06.68.64c.58.55,1.15,1.14,1.71,1.75l-.93.63c-.93.62-1.86,1.27-2.76,1.9l-1.5,1c-.69-.8-1.39-1.58-2.09-2.33-.5-.53-1.05-1.07-1.61-1.6.46-.56.91-1.15,1.35-1.71.77-1,1.57-2,2.43-2.95C467.68,148.59,468.61,149.47,469.52,150.32Zm-4.2-4-.6.33a11.9,11.9,0,0,0-1.8,1.38l-.6.52c-.54.46-1.15.92-1.92,1.46-.41-.38-.8-.74-1.18-1.12l-.8-.81a2.48,2.48,0,0,0-.26-.19c-.16-.1-.26-.17-.28-.27s0,0,0-.07l.13-.11.47-.38c.93-.78,1.73-1.47,2.45-2.14l.21-.21c.22-.22.88-.91,1.11-.91a4.46,4.46,0,0,1,1,.67,4.84,4.84,0,0,0,.8.59,9.92,9.92,0,0,0,.92.44.71.71,0,0,0,.16.31l.35.43Zm-6.82,4.12c.16.16.33.33.54.52L459,151c-.73.5-1.48,1-2.2,1.55s-1.21.91-2,1.51c-.24-.24-.5-.48-.77-.71a5.4,5.4,0,0,0-1.32-.76l-.35-.16c.57-.55,1.09-1,1.59-1.5.79-.71,1.64-1.46,2.67-2.34a6.27,6.27,0,0,0,1.26,1.26C458.08,150,458.31,150.23,458.5,150.42Zm-5.22,4.42.24.22c-.88.68-1.76,1.39-2.6,2.07l-1.69,1.37c-.43-.48-.8-.91-1.14-1.32l.17-.23c.38-.49.77-1,1.19-1.47s1.07-1.2,1.72-1.87a.88.88,0,0,0,.17.12l.63.33A6.13,6.13,0,0,1,453.28,154.84Zm-2,13,.37-.32a16.74,16.74,0,0,1,1.81-1.38c.62.91,1.21,1.88,1.81,2.86.29.47.57.95.85,1.42l-.59.66a46.87,46.87,0,0,0-3.11,3.91c-.21.29-.45.58-.72.89l-.31.36c-.62-1.76-1.19-3.55-1.72-5.24l-.13-.39-.4-1.27A6.86,6.86,0,0,0,451.3,167.86Zm46.22,28.78c-.08.38-.16.79-.23,1.17-.15.85-.24,1.72-.33,2.54s-.16,1.48-.29,2.22a.81.81,0,0,0-.07.35V203l-1.53,1.26c.1-1.49.26-3,.42-4.34,0-.35.08-.7.11-1.05a24.11,24.11,0,0,1,.45-3l.28-1.06c.16-.57.32-1.14.43-1.72l.5.06a.73.73,0,0,0,.1.42.93.93,0,0,0,.61.42C497.88,194.82,497.7,195.75,497.52,196.64Zm3.73-2.62c-.07.3-.14.57-.18.81-.08.49-.18,1-.26,1.47-.14.66-.27,1.35-.36,2a.72.72,0,0,0,.29.73c-.72.75-1.47,1.48-2.25,2.22,0-.31.07-.6.1-.9.09-.78.17-1.58.31-2.36.07-.46.16-.92.24-1.37a24.12,24.12,0,0,0,.49-3.65c.67-.07,1.31-.09,1.86-.1A9.93,9.93,0,0,1,501.25,194Zm1,3.43c.07-.39.15-.79.22-1.17s.2-1.07.29-1.6c0-.22.08-.44.13-.68s.15-.74.2-1.1c.51,0,1-.07,1.54-.1l.87-.05c.2,0,.38,0,.57-.06A58.5,58.5,0,0,1,502.23,197.45Zm13.21-46a48,48,0,0,1,.93,6.26,49.56,49.56,0,0,1-1.69,17.12,56.07,56.07,0,0,1-7.06,15.6h-.73a8.74,8.74,0,0,0-1.35.08,12,12,0,0,1-1.7.13c-.36,0-.73,0-1.1.05-.21,0-.45,0-.71,0l-.81,0h-1.4l-.85.07c-.42,0-.82.08-1.24.08a5.25,5.25,0,0,1-.56,0,57.28,57.28,0,0,0-6.64-5.78c-.41-.3-.82-.64-1.22-1a14.32,14.32,0,0,0-2.44-1.75,18.34,18.34,0,0,1-2-1.22l-.56-.35a8.93,8.93,0,0,1-1-.65,1,1,0,0,0,.07-.32v-.15a1.22,1.22,0,0,0-.07-.41c.07-.81.18-1.64.29-2.45s.22-1.66.29-2.5l.18-2c.13-1.72.28-3.49.45-5.23.25-2.7.4-4.9.44-6.93l.06-1.7c0-.55.05-1.11.06-1.66a6,6,0,0,1,.66-3,1.17,1.17,0,0,0,.16-.62l.38-.34a19.18,19.18,0,0,1,1.74-1.46,34.55,34.55,0,0,1,3-1.89l.88-.53c1.32-.79,2.71-1.52,4-2.16.24-.12.47-.27.7-.39a5.7,5.7,0,0,1,1.07-.55,6,6,0,0,0,1.45-.74l1.11.47c2.33,1,4.75,2,7.13,2.89.35.14.72.28,1.07.4A15,15,0,0,1,511,149.8a4.08,4.08,0,0,0,2,.72h0l.35.07a5.44,5.44,0,0,1,1.22.44A7.53,7.53,0,0,0,515.44,151.41Zm-6.68-4.95a12.72,12.72,0,0,1,1.2-.67c.19-.1.38-.2.55-.31.36-.18.7-.39,1.07-.62l.55-.34c0,.1-.1.19-.14.28a8,8,0,0,0-1,2.57,1.06,1.06,0,0,0-.27-.13Zm4.21.15c.18-.48.4-1,.62-1.41a.47.47,0,0,1,0-.1c.18.5.35,1,.51,1.49a8,8,0,0,0-1.2.39l-.1,0C512.89,146.88,512.92,146.74,513,146.61Zm-1.79-7.15c.51,1,1,2,1.4,3-.45.23-.89.5-1.33.76-.25.16-.49.31-.73.44l-.71.4c-.34.2-.71.39-1.06.6l-.64.37a15.71,15.71,0,0,1,1.59-3.27l.64-1C510.62,140.34,510.91,139.9,511.18,139.46Zm-3.44-3.35a5.29,5.29,0,0,1,.76-1.27c.53.81,1.05,1.65,1.53,2.51-.62.42-1.22.91-1.8,1.39l-1.13.88c-.52.38-1.05.76-1.57,1.11l-.44.3-.36.29-.11.07c.43-.75.89-1.54,1.41-2.31.39-.59.74-1.22,1.07-1.83.17-.3.34-.61.52-.91Zm-2.34-3.32a15.7,15.7,0,0,0,.5-1.51c.59.73,1.17,1.5,1.71,2.27a3.54,3.54,0,0,0-.81,1l0,0c-.32.55-.65,1.1-.95,1.65l-1.1,1.86-.57.88a17.85,17.85,0,0,0-1.24,2.14,4.63,4.63,0,0,1-.3.52,2.12,2.12,0,0,0-.47,1.47.83.83,0,0,0,.71.69l.25,0a2.87,2.87,0,0,0,1.59-.59l.89-.62c.42-.27.86-.57,1.29-.87l1.7-1.23c-.28.41-.56.83-.81,1.25a13.9,13.9,0,0,0-1.5,3.67l-3.14-1.28c-.65-.26-1.28-.53-1.92-.78,0-.12,0-.25,0-.4a3.1,3.1,0,0,1,.52-1.28l.13-.21a29.16,29.16,0,0,0,1.69-3.59c.53-1.31,1-2.68,1.5-4.2C505.17,133.41,505.29,133.09,505.4,132.79ZM460.78,118.7c.09-.69.17-1.4.24-2.09s.15-1.43.24-2.14c.13-1.1.27-2.25.32-3.37h.7c1.77,0,3.56,0,5.26.08a1.8,1.8,0,0,0-.2.18c-.29.3-.61.59-.91.88s-.51.47-.75.72a15.5,15.5,0,0,0-2.44,3.38c-.24.41-.48.84-.72,1.24a34.78,34.78,0,0,1-2,3.25C460.6,120.12,460.69,119.39,460.78,118.7Zm3.82-.21.47-.82a15.67,15.67,0,0,1,2.83-3.73c.57-.54,1.15-1.11,1.69-1.66h0l.25-.24c.13-.13.28-.26.4-.4a92.61,92.61,0,0,1,16,4.83,52.64,52.64,0,0,1,15,9.82c1,.91,2,1.9,2.87,2.93a1,1,0,0,0-.31.72,8.17,8.17,0,0,1-.64,2.39c-.12.31-.24.64-.34,1-.42,1.33-.93,2.67-1.37,3.79a26.12,26.12,0,0,1-1.57,3.38,8.78,8.78,0,0,0-.71,1.44,4.45,4.45,0,0,0-.15.9.74.74,0,0,0-.24.11h-.3a1.12,1.12,0,0,0-.86.37,5,5,0,0,1-.85.37l-.25.09a6.64,6.64,0,0,0-1.15.61,6.58,6.58,0,0,1-.73.42c-1.63.83-2.94,1.54-4.11,2.26l-.93.56c-.87.52-1.77,1.07-2.62,1.64a18.57,18.57,0,0,0-2.08,1.71l-.49.43a20.05,20.05,0,0,0-3.91-2.39,21.93,21.93,0,0,0-4-1.38c-.8-.23-1.64-.47-2.45-.76-1.29-.47-2.58-1-3.82-1.57-.84-.36-1.71-.74-2.56-1.08l-.54-.22a14.81,14.81,0,0,1-2.3-1,5.47,5.47,0,0,1-.68-.51,6.28,6.28,0,0,0-.76-.57,1,1,0,0,0-.23-.51c-.15-.62-.36-1.25-.56-1.85-.11-.31-.21-.62-.31-.93a29,29,0,0,1-.82-4.09c0-.18-.05-.35-.07-.54-.23-1.45-.51-2.93-.77-4.36l-.05-.24c-.05-.26-.09-.52-.14-.78-.08-.43-.16-.88-.25-1.32-.05-.26-.12-.53-.18-.8a9.87,9.87,0,0,1-.27-1.42,1.11,1.11,0,0,0,.27-.19A25.46,25.46,0,0,0,464.6,118.49Zm-9,3a22.82,22.82,0,0,1,.36-3.51c.07-.43.14-.87.2-1.32.09-.69.23-1.4.35-2.09a30.5,30.5,0,0,0,.48-3.28c.94-.06,1.93-.1,2.95-.12-.05,1-.17,1.95-.29,2.91-.07.66-.16,1.33-.22,2s-.15,1.48-.25,2.22c-.16,1.31-.33,2.68-.36,4a.81.81,0,0,0,.13.47c-.1.11-.21.2-.3.3a1,1,0,0,0-.35.6,3.78,3.78,0,0,1-1.26-.59,6.14,6.14,0,0,0-.54-.31c-.42-.22-.83-.45-1.24-.68A.7.7,0,0,0,455.61,121.44ZM451.76,119c.06-.46.11-.94.15-1.4.1-.86.19-1.76.36-2.63,0-.19.07-.39.1-.58a19.64,19.64,0,0,1,.66-2.82c.76-.1,1.54-.18,2.34-.25-.09.88-.25,1.77-.42,2.63-.12.67-.25,1.37-.34,2.06-.06.5-.15,1-.23,1.52a24.94,24.94,0,0,0-.39,3.69,17.21,17.21,0,0,1-1.72-1.46l-.57-.54A.71.71,0,0,0,451.76,119Zm-3.62-2.37a8.65,8.65,0,0,0,.32-1.61c0-.26.08-.54.13-.82s.1-.52.15-.76c.09-.39.17-.78.24-1.19.75-.16,1.52-.31,2.31-.44-.11.41-.19.83-.27,1.23s-.13.68-.21,1a30.85,30.85,0,0,0-.51,3.39c0,.22,0,.43-.07.64-.47-.3-1-.57-1.45-.83l-.73-.41A.61.61,0,0,0,448.14,116.66ZM446.31,113l.95-.26c-.06.31-.12.63-.2,1h0a9.56,9.56,0,0,0-.17,1,8.61,8.61,0,0,1-.23,1.25l-.26-.23a10.49,10.49,0,0,1-1.17-1.3l-.31-.39c-.15-.17-.3-.35-.46-.5C445.11,113.32,445.71,113.13,446.31,113Zm-16.95,9.57a42.86,42.86,0,0,1,12.74-8.1l.31.28a4,4,0,0,1,.51.5c.27.28.53.59.78.88s.58.69.89,1a9.16,9.16,0,0,0,2.54,1.75A14.12,14.12,0,0,1,449,120c.55.45,1.11.94,1.64,1.41a21.64,21.64,0,0,0,2.81,2.2c.83.52,1.69,1,2.5,1.4a4.91,4.91,0,0,1,.5.28,5.08,5.08,0,0,0,1.15.55c.09.64.25,1.31.4,2s.24,1,.34,1.55.19,1.1.29,1.65c.18.94.35,1.92.51,2.9.06.31.1.63.16,1,.18,1.18.37,2.4.67,3.6.14.5.31,1,.48,1.51a20.22,20.22,0,0,1,.57,2,8.44,8.44,0,0,0-1.78,1.45l-.62.58c-.75.67-1.54,1.31-2.3,1.95-1,.8-2,1.64-2.92,2.51-1.69,1.54-3.21,2.95-4.67,4.51-.65.7-1.34,1.48-2.09,2.38l-.65.85a14.63,14.63,0,0,1-.92,1.16H445a1.08,1.08,0,0,0-.59-.54c-1.34-.54-2.72-1.07-4.06-1.58-1.67-.64-3.4-1.3-5.06-2-.88-.37-1.74-.84-2.57-1.29s-1.4-.75-2.14-1.09c-.57-.27-1.14-.59-1.69-.9-.22-.14-.46-.27-.69-.4s-.4-.2-.59-.31a5,5,0,0,1-1.44-.92c0-.06,0-.11,0-.16a2.92,2.92,0,0,0-.08-.46,14.26,14.26,0,0,1-.23-1.87v-.15a15,15,0,0,0-.69-3.14c-.15-.53-.32-1.07-.44-1.61-.07-.35-.15-.69-.23-1a43.29,43.29,0,0,1-1.45-9.08,1,1,0,0,0-.36-.78A53.82,53.82,0,0,1,429.36,122.52Zm-8.52,10.08a40.71,40.71,0,0,0,.91,5.57l-.35-.34-.46-.44a8.27,8.27,0,0,1-1.39-1.53v0a1,1,0,0,0-.27-.7C419.77,134.27,420.29,133.42,420.84,132.6Zm-2.55,4.29a11.83,11.83,0,0,0,1.39,1.52c.17.15.32.29.46.44.64.64,1.33,1.29,2.26,2.1,0,.22.1.44.15.66.11.51.26,1,.4,1.51s.33,1.17.44,1.75c-.73-.71-1.57-1.47-2.53-2.26a26.6,26.6,0,0,1-2.33-2.11,6.71,6.71,0,0,0-1.45-1.21C417.47,138.47,417.88,137.67,418.29,136.89Zm-1.9,3.9a.08.08,0,0,1,.07,0,5.27,5.27,0,0,1,1,.9l.24.25c.57.58,1.19,1.1,1.87,1.68a37.88,37.88,0,0,1,4.21,4c0,.28.09.49.13.72s.05.3.08.47a.78.78,0,0,0,0,.14,6.63,6.63,0,0,0-.7.86,27.1,27.1,0,0,1-2.56-2.47l-1.06-1.1-2.33-2.33c-.13-.12-.24-.25-.37-.38a4.73,4.73,0,0,0-1.27-1.1C415.93,141.85,416.16,141.32,416.39,140.79Zm-1.28,3.14a6.37,6.37,0,0,1,1.22,1.17c.17.2.33.38.49.54l1.05,1.06,1.38,1.38c.28.27.57.57.84.85a23.11,23.11,0,0,0,2.32,2.21l-.58.86-.45.62h0a5.57,5.57,0,0,1-2-1.73l0,0c-.46-.55-1-1.06-1.45-1.56l-.55-.57c-.38-.4-.74-.82-1.09-1.24s-.54-.64-.82-.95-.33-.4-.48-.59-.28-.36-.43-.53C414.76,144.89,414.93,144.4,415.11,143.93ZM414,147.25a5.66,5.66,0,0,0,.43.54l.86,1c.44.51.89,1,1.37,1.53.33.34.66.72,1,1.12A10.09,10.09,0,0,0,420.4,154c-.33.47-.67.93-1,1.38h-.08a5.37,5.37,0,0,1-.72-.56,5.07,5.07,0,0,0-.44-.37,11.72,11.72,0,0,1-1.37-1.36c-.12-.13-.23-.27-.34-.38-.54-.6-1.05-1.24-1.53-1.87s-.94-1.2-1.45-1.78C413.63,148.43,413.8,147.83,414,147.25Zm-1,3.68c.27.33.53.68.8,1,.52.67,1.06,1.35,1.65,2l.18.2a14.5,14.5,0,0,0,2.8,2.56,15.43,15.43,0,0,1-1.32,1.52,1,1,0,0,0-.11-.28,17,17,0,0,0-1.47-2c-.29-.36-.6-.74-.88-1.12l-1-1.33c-.31-.41-.63-.83-.94-1.26C412.77,151.82,412.87,151.4,413,150.93Zm-.71,3.45.2.27c.21.28.42.55.62.83l.93,1.17a18.89,18.89,0,0,1,1.65,2.23.78.78,0,0,0,.38.32c-.33.28-.67.56-1,.83-.68-.79-1.31-1.64-1.91-2.47-.36-.5-.73-1-1.11-1.5C412.08,155.5,412.17,154.94,412.27,154.38Zm-.55,4a.72.72,0,0,0,.11.15c.59.81,1.2,1.67,1.88,2.45l-.41.3-.22-.35a20.92,20.92,0,0,0-1.42-2C411.68,158.74,411.69,158.55,411.72,158.38Zm-.24,3.07.29.43c.09.15.19.31.29.45a5.78,5.78,0,0,0-.63.74C411.44,162.53,411.46,162,411.48,161.45ZM424.89,198l0,.23a1.55,1.55,0,0,0,0,.31c-.27-.28-.54-.58-.79-.86h.1a.82.82,0,0,0,.62-.43H425C425,197.5,424.93,197.75,424.89,198Zm-.87-3-.24,0a.72.72,0,0,0-.48-.18.74.74,0,0,0-.49.19,1.55,1.55,0,0,1-.68.36,51.4,51.4,0,0,1-4.77-7.18,50.31,50.31,0,0,1-5.92-22.59,2.57,2.57,0,0,0,.86-.65,1.16,1.16,0,0,0,.94-.64,3.76,3.76,0,0,1,1.17-1,3.81,3.81,0,0,0,.53-.38l1-.75,1.13-.89a20.75,20.75,0,0,0,3.26-3.39c.74-.95,1.46-1.95,2.15-2.93l.95-1.33c.26-.35.51-.75.77-1.17.16-.25.32-.53.49-.78l.13-.19a6.42,6.42,0,0,1,.73-.93,16.12,16.12,0,0,0,1.78,1c.34.18.71.36,1,.56,1.42.8,2.91,1.55,4.34,2.28l.6.31a38.89,38.89,0,0,0,4.13,1.69l1.47.54c1.2.46,2.41,1,3.58,1.43l1,.43a1,1,0,0,0,.38.14,22,22,0,0,0,1.31,5.36l.15.47c.52,1.56,1,3.16,1.51,4.7.24.78.49,1.57.74,2.35.81,2.56,1.52,4.72,2.3,6.88l.21.55a19.59,19.59,0,0,1,.87,2.79,1.29,1.29,0,0,1,0,.19,2.77,2.77,0,0,0,.24.8,7,7,0,0,0-1.19,1.94c-.11.21-.22.45-.34.67-.82,1.56-1.55,3.18-2.28,4.83l-.45,1c-.55,1.26-1.12,2.56-1.73,3.81-.1.21-.22.43-.32.63a10.45,10.45,0,0,0-.69,1.48c0,.06,0,.11-.05.18l-.74-.11c-.55-.07-1.12-.14-1.69-.19-1.24-.12-2.5-.33-3.72-.54-.62-.12-1.27-.23-1.9-.32l-.5-.08c-1.79-.28-3.64-.56-5.46-.89a26.19,26.19,0,0,0-4.68-.51A14.45,14.45,0,0,0,424,195Zm2.37,5.13v-.3c0-.4,0-.81,0-1.21s.08-.55.12-.82l.09-.57c.4,0,.82.07,1.29.13h0a25.17,25.17,0,0,0,1.07,5.1.24.24,0,0,1,0,.08C428.12,201.81,427.24,201,426.39,200.17Zm3.51-2.45c1,.19,2.07.35,3.08.5l.83.13a1,1,0,0,0,.16.45,10,10,0,0,0,.57,1.85c.2.49.38,1,.56,1.49s.46,1.25.71,1.88a11.07,11.07,0,0,1,.49,1.77c.09.36.18.74.29,1.11s.29.91.45,1.33l0,.09a56,56,0,0,1-6-4,2.86,2.86,0,0,1-.07-.28l-.05-.2c-.06-.22-.12-.44-.17-.66a10.43,10.43,0,0,0-.33-1.25,22.16,22.16,0,0,1-.92-4.25Z"/><path d="M13,92.24a60.71,60.71,0,0,0,6.08,7.5A63.76,63.76,0,0,0,26.35,106a54.1,54.1,0,0,0,17.7,8.86,72.76,72.76,0,0,0,19.63,2.88h1.09c13.6,0,26.22-3.65,36.48-10.57A45.36,45.36,0,0,0,113.7,94.52a56.56,56.56,0,0,0,7.15-16.91,69.22,69.22,0,0,0,2.24-18.82A65,65,0,0,0,120,40.12c-3.68-11.36-11.33-21.46-22.13-29.23A62.36,62.36,0,0,0,81.07,2.14,28,28,0,0,0,72.36.73h-1L69.68.51c-1-.15-2.06-.31-3.1-.42C66,0,65.32,0,64.58,0S63.1,0,62.39.06L61.22.1A37.47,37.47,0,0,0,50.7,2,94.7,94.7,0,0,0,32.38,9.9C28.57,12.1,11.71,22.29,5.07,36.26,2.34,42,.31,47.91,0,54.36c-.26,6.21,1,12.89,3.79,20.41A81.27,81.27,0,0,0,13,92.24Zm8,6a62.08,62.08,0,0,1-8.2-10.73.32.32,0,0,0,0-.13c.36-2.39,3-3.91,5.44-4.18a4.86,4.86,0,0,1,.66,0,8.16,8.16,0,0,1,5.41,2.61A47.64,47.64,0,0,0,26.23,92a45.94,45.94,0,0,0,5.87,11.22c.55.77,1.15,1.52,1.73,2.24s1.34,1.69,2,2.57c.31.46.65.92,1,1.38A53.49,53.49,0,0,1,21.06,98.19Zm74.56,9.52c-8.62,5-19.23,7.57-30.71,7.57a79.21,79.21,0,0,1-8.53-.47A62.91,62.91,0,0,1,42,111.5a64.85,64.85,0,0,1-5-6l-1.48-1.93a42.1,42.1,0,0,1-5.43-8.65A51.46,51.46,0,0,1,27.85,89c1.48,1.41,2.67,2.54,3.8,3.59,1.67,1.56,3.47,3,5.22,4.42,1,.83,2.12,1.7,3.16,2.59a31.89,31.89,0,0,0,8.35,4.75,51.28,51.28,0,0,0,9.68,3.09,54.8,54.8,0,0,0,11.19,1.11,66.74,66.74,0,0,0,9.35-.68A85.79,85.79,0,0,0,102.5,101a27.79,27.79,0,0,0,6.92-4.77A46,46,0,0,1,95.62,107.71Zm16.16-78.86A53.92,53.92,0,0,1,118,42.12,64.62,64.62,0,0,1,117.59,80c-.22.7-1.4,2.4-1.52,2.86-.88,3.22-3.1,5.84-5.25,8.38l-.25.3a34.08,34.08,0,0,1-7.83,6.53,24,24,0,0,1-3.9,1.83l-.87.35c-1.62.67-3.35,1.3-5.29,1.94A77.61,77.61,0,0,1,82,104.85,73.74,73.74,0,0,1,69.22,106a55.75,55.75,0,0,1-7.95-.55,41.72,41.72,0,0,1-10.15-2.69,40.8,40.8,0,0,1-8.64-4.41,106.94,106.94,0,0,1-9.63-8c-.94-.87-1.88-1.79-2.78-2.67-1.12-1.08-2.27-2.2-3.43-3.26a81.41,81.41,0,0,1-1.15-9.25l-.09-1.07c-.22-2.53-.34-5.07-.37-7.55,4.82-.43,9.36-3.33,12.34-5.7,5-4,8.84-9.05,12.62-14,3.27-4.28,6.66-8.72,10.73-12.37a43.16,43.16,0,0,1,17.7-9.56,70.66,70.66,0,0,1,10.47-2,60.84,60.84,0,0,1,7.3-.5,36.56,36.56,0,0,1,4,.22c4.22.5,7.58,2.76,11.32,6A1,1,0,0,0,111.78,28.85ZM68.62,3.64a21.23,21.23,0,0,1,2.91-.39h.12c.35,0,.71,0,1.07,0A24.1,24.1,0,0,1,79,4.1c5.36,1.46,10.94,4.26,17.07,8.56a61.41,61.41,0,0,1,10.6,9.44c-.66-.35-1.31-.65-2-.92A19.71,19.71,0,0,0,97.17,20c-1.18,0-2.35.05-3.23.1a71.83,71.83,0,0,0-20.9,4A44.5,44.5,0,0,0,56.7,34.91a124.87,124.87,0,0,0-9.6,11.47c-.56.72-1.11,1.45-1.68,2.17-4,5.09-7.51,9.09-12,12.11A20.19,20.19,0,0,1,25,64c.2-11.84,2.59-22.08,7.12-30.44A63.49,63.49,0,0,1,58.93,7,39.87,39.87,0,0,1,68.62,3.64ZM18,24.41a17.06,17.06,0,0,1,1-1.62A81.37,81.37,0,0,1,47.41,5.67,51.51,51.51,0,0,1,58.92,2.75a44.82,44.82,0,0,1,4.57-.3l-2.16.8A56.16,56.16,0,0,0,45.08,13.41,69,69,0,0,0,32.72,27.76C26.31,37.61,22.91,49.81,22.61,64A8.31,8.31,0,0,1,17,61.29c-3.84-4.24-3.86-10.86-3.86-16.18v-.19A44.44,44.44,0,0,1,18,24.41ZM4.76,42.93a47,47,0,0,1,8.82-14.54,49.16,49.16,0,0,0-1.79,6.3,46.34,46.34,0,0,0-1.08,10.69,55.64,55.64,0,0,0,.56,8.68,18.23,18.23,0,0,0,3.1,7.77,11.21,11.21,0,0,0,6.89,4.52,13.3,13.3,0,0,0,1.33.19v.07c0,3.6.24,7.44.74,12.46.09,1,.23,2,.37,3a9.16,9.16,0,0,0-4.79-1.38,9.56,9.56,0,0,0-2.36.31,8.84,8.84,0,0,0-5.3,3.76c-.44-.78-.87-1.56-1.27-2.32A65.37,65.37,0,0,1,3.06,62.69,39.14,39.14,0,0,1,4.76,42.93Z"/><path d="M876.29,131.82c1.07,3.21,2.23,6.45,3.35,9.57,1.71,4.77,3.48,9.7,5,14.62,2,6.74,4.7,15.63,7.14,24.53.41,1.46.76,3,1.11,4.43.44,1.9.9,3.85,1.48,5.74,1.16,3.89,2.77,6.48,4.9,7.92s4.55,1.66,7.72.93l.53-.13a30.13,30.13,0,0,0,4.07-1.48,43.6,43.6,0,0,1,4.64-1.56l.91-.26c3.55-1,7.76-2.26,12.09-3.29,2.9-.69,5.79-1.61,8.59-2.5l3.16-1,4.8-1.47,1.45-.8a8.45,8.45,0,0,0,3.34-2.49,7.5,7.5,0,0,0,1.1-4.51,18,18,0,0,0-.48-3.18c-.13-.64-.27-1.31-.36-2-.32-2.36-.61-4.26-.9-6-.67-4-1.72-8.07-2.64-11.65-.61-2.38-1.12-4.85-1.6-7.23-.34-1.66-.7-3.38-1.08-5-1.17-5.07-2.49-10.18-3.77-15.13-.77-3-1.57-6.11-2.33-9.17-1.48-6-3.34-11.82-5-16.77a1.28,1.28,0,0,0,.9-1l0-.11a139.35,139.35,0,0,1,14.16,14.47c2.47,2.85,4.75,5.93,7,8.91s4.66,6.3,7.25,9.24a33.07,33.07,0,0,0,7.3,6.49A7.86,7.86,0,0,0,976,143.4a5.43,5.43,0,0,0,1.83-.81c4.93-3.42,3.83-11.43,2.73-15.9a30.51,30.51,0,0,0-7.86-13.7,53.41,53.41,0,0,0-12.7-9.57,55.76,55.76,0,0,0-15.85-6.08,18.54,18.54,0,0,0-7.46-.28c-.27.06-.54.14-.8.22a5.68,5.68,0,0,0-.63.27,12.21,12.21,0,0,0-.78-1.44L934.4,96a1.24,1.24,0,0,0-1.39-.47h0a8.31,8.31,0,0,0-2,.78,72.42,72.42,0,0,0-6.46-14.85A45.62,45.62,0,0,0,914,69.77a21.08,21.08,0,0,0-13.84-4.52,23.5,23.5,0,0,0-4.81.64q-1.32.3-2.73.75c-.63.2-4.63,1.31-5.92,1.87-7.07,3-12,10.81-14.84,18.25-2.5,6.44-3.19,13.46-2.11,21.47,1,7.14,3.32,14.11,5.6,20.85C875.68,130,876,130.91,876.29,131.82Zm60.17-32.09a3.74,3.74,0,0,1,.91-.33,12.86,12.86,0,0,1,4.2.06l.37.05a42.05,42.05,0,0,1,10.92,3.24,53.87,53.87,0,0,1,16.89,10.84c5.3,5.12,8.43,11.23,9.06,17.67.2,2.12.3,5.24-1.18,7.89a3.34,3.34,0,0,1-2.14,1.77c-1.66.38-3.64-.68-5-1.65-3.56-2.5-6.35-5.88-8.92-9.13-1.47-1.86-2.9-3.8-4.28-5.67s-2.67-3.6-4-5.37a122.67,122.67,0,0,0-17.74-18.58A2.79,2.79,0,0,1,936.46,99.73Zm-4.66-.91s0,0,0,0a3.48,3.48,0,0,1,.66-.39l.35-.16a1.9,1.9,0,0,1,.24.57,1.08,1.08,0,0,0-.36,0,1.29,1.29,0,0,0-.75.48v0l-.16-.45Zm-.58,6.18c1.43,4.24,2.7,8.08,3.78,12.13.72,2.74,1.41,5.54,2.07,8.25.32,1.34.66,2.71,1,4.07.49,2,1,4,1.55,6,.77,2.92,1.57,6,2.27,9,.43,1.91.84,3.85,1.23,5.73.63,3,1.27,6,2,9a126,126,0,0,1,2.9,14.28c.13.92.3,1.86.47,2.76.22,1.24.46,2.52.59,3.79a5.92,5.92,0,0,1-.51,3.05c-.27.63-2.15,1.36-2.38,1.42s-8.56,3.35-12.27,4.48c-2.53.77-5.13,1.45-7.64,2.1-1.45.39-3,.77-4.41,1.18-.77.22-1.57.43-2.34.63a65.14,65.14,0,0,0-8.92,2.83,26.37,26.37,0,0,1-4.38,1.55,9.08,9.08,0,0,1-4.13.1,5.91,5.91,0,0,1-3.58-2.92,20.5,20.5,0,0,1-1.9-4.5c-.61-1.94-1.08-4-1.53-5.93-.33-1.39-.67-2.83-1-4.24-2.31-8.45-4.8-16.79-7.14-24.54-1.42-4.69-3.1-9.38-4.73-13.91-1-2.89-2.11-5.87-3.1-8.82l-1-2.88c-1.22-3.58-2.47-7.28-3.53-11,.25,0,.5.06.77.1a9,9,0,0,0,1.56.12l.53,0a22.28,22.28,0,0,0,3.76-.36c1.24-.28,2.5-.49,3.79-.71a48.55,48.55,0,0,0,3,7.94c.3.68.62,1.39.92,2.09s.72,1.66,1.07,2.49c1.29,2.95,2.61,6,3.77,9.05,1.86,4.82,3.41,9.75,4.81,14.36-.6.62-1.3,1.34-2,2.07-.33.37-.67.75-1,1.13-.63.72-1.28,1.47-2,2.15a9.7,9.7,0,0,0-2.22,3,1.18,1.18,0,0,0,.16,1.25,1.35,1.35,0,0,0,1.31.46,1.13,1.13,0,0,0,.8-.69,8.25,8.25,0,0,1,1.9-2.42l.2-.2c.64-.63,1.23-1.33,1.8-2,.29-.35.6-.71.91-1l.86-.94.27.9.49,1.6a44.47,44.47,0,0,0-2.34,6.41,2.32,2.32,0,0,0,.5,2.22,2.12,2.12,0,0,0,2,.55,2.69,2.69,0,0,0,.65-.24,5.91,5.91,0,0,0,1.23-1c.2-.2.39-.38.58-.54,1.16-1,2.25-2,3.27-3s2-2,3-2.95c.35,1,.71,2,1.06,3.07l.51,1.51a1.14,1.14,0,0,0,1.38.76,2.09,2.09,0,0,0,.28,1.5,1.38,1.38,0,0,0,1,.54,3.33,3.33,0,0,0,1.33-.05,7.82,7.82,0,0,0,1.68-.66,8,8,0,0,1,1.64-.65l.32,0c1.38-.2,1.82,1.74,2.13,3.16.08.36.14.67.22.92a3.24,3.24,0,0,0,3.29,2.53,6.49,6.49,0,0,0,.77,0,6,6,0,0,1,1.19,0c.55.06.72,1,.81,1.51l0,.15c.32,1.67.72,3.1,2.53,3.53a1.28,1.28,0,0,0,.55,0,1.16,1.16,0,0,0,.85-1.19,1.25,1.25,0,0,0-1-1.27c-.36-.09-.49-1.11-.56-1.67a4.39,4.39,0,0,0-.09-.56,4.09,4.09,0,0,0-1.51-2.47,3.85,3.85,0,0,0-2.55-.52l-.42,0c-.73.08-1.17.12-1.47-.6a12.76,12.76,0,0,1-.51-1.69c-.38-1.46-.77-3-2.25-3.78a4.24,4.24,0,0,0-3.17-.32l-.08,0a5.38,5.38,0,0,0-1.37.61,8.44,8.44,0,0,1-1.1.52c.05-.13.11-.25.16-.35l0-.07a9.13,9.13,0,0,0,.42-1.21c.06-.24.13-.48.21-.71.2-.58.46-1.18.71-1.74a15.66,15.66,0,0,0,.94-2.5,25,25,0,0,1,1.48-3.86,27.22,27.22,0,0,0,1.39-3.59,1,1,0,0,0-.24-1,1.45,1.45,0,0,0-1.33-.39h-.08a6.63,6.63,0,0,0-2.34,1.47l-.09.08c-.48.39-1,.77-1.48,1.13s-1,.71-1.4,1.09c-.86.7-1.76,1.48-2.77,2.39-.92-2.66-1.73-4.89-2.52-7,1-1.71,1.85-3.08,2.72-4.3,0-.06.12-.12.17-.19l.21-.21c.29-.3.59-.6.88-.91.6-.64,1.23-1.29,1.87-1.91l.6-.58a14.22,14.22,0,0,0,2.12-2.32,1.34,1.34,0,0,0,0-1.51,1.13,1.13,0,0,0-1.2-.51,1.41,1.41,0,0,0-.48.23,27.5,27.5,0,0,0-6,6.23c-.73.75-1.48,1.54-2.27,2.4-.81-2.05-1.6-3.94-2.4-5.76l-1.2-2.73c-1.26-2.85-2.55-5.79-3.85-8.67l-1.11-2.46L896.05,122c-.24-.54-.52-1.1-.79-1.64a18,18,0,0,1-1.61-3.94,2.39,2.39,0,0,0-.15-.37l5.53-1.12c2.53-.51,5.14-1,7.71-1.59l.73-.16c3.81-.88,7.55-2.14,11.17-3.36l4-1.34a37.27,37.27,0,0,0,4.84-2.07c.58-.28,1.17-.57,1.77-.84.32-.15.66-.29,1-.44l.85-.36Zm-38.61,15.41.49,1.06,1.35,3,1.42,3.13c1,2.22,2,4.48,3,6.68.76,1.72,1.55,3.51,2.34,5.26,1.07,2.41,2.13,5,3.23,7.78-.63.7-1.16,1.32-1.66,1.9-.73.85-1.5,1.68-2.19,2.38-1.13-3.67-2.49-8-4.1-12.29-1.15-3.1-2.48-6.19-3.77-9.18l-.84-1.92c-.4-.94-.83-1.89-1.26-2.81a46.06,46.06,0,0,1-3.12-8.13c.71-.12,1.59-.28,2.48-.48l1.21-.26,0,.18A17.87,17.87,0,0,0,892.61,120.41Zm10.45,38,.6-1.36.11-.24c.72-1.67,1.48-3.39,2.3-5,.66,1.78,1.34,3.71,2.11,5.89l0,.06-.79.74c-.75.7-1.48,1.44-2.19,2.15L903.72,162c-.32-1-.62-2-.93-3Zm-1.38-3.08c-.1-.34-.2-.67-.31-1,.47-.47.94-.95,1.4-1.44C902.4,153.71,902,154.53,901.68,155.34Zm.12,8.5-.54.48c-.28.23-.55.47-.83.73.05-.12.1-.22.14-.33a5.24,5.24,0,0,0,.2-.51c.15-.49.32-1,.53-1.59l.22.73A1.19,1.19,0,0,0,901.8,163.84Zm9.26-5.44c.54-.5,1-1,1.51-1.37,1.1-1,2.22-1.91,3.32-2.77l.07-.06c-.3.78-.61,1.55-.89,2.33s-.61,1.63-.92,2.42c-.51,1.35-1,2.73-1.47,4.14l-.27-.79C912,161,911.52,159.7,911.06,158.4Zm19.32-56c-.45.22-.91.4-1.37.58s-.84.32-1.19.49l-.86.41a44.46,44.46,0,0,1-5.61,2.37l-3.67,1.22c-3.66,1.22-7.44,2.47-11.29,3.36l-.89.2c-2.37.51-4.78,1-7.11,1.47-3,.6-6.17,1.23-9.24,1.92-1.43.33-2.91.56-4.34.8-1.27.21-2.6.43-3.89.7a18.24,18.24,0,0,1-2.49.27c-.42,0-.85,0-1.26.07a7.72,7.72,0,0,1-1.79-.1,9.92,9.92,0,0,0-1.46-.12l-.09-.34,3.49-.79,4.35-1c2.34-.54,4.26-1,6-1.43,3.13-.77,6.27-1.67,9.31-2.54,1.92-.55,3.91-1.11,5.87-1.64,1-.27,2.07-.53,3.08-.77,1.45-.36,3-.73,4.42-1.16,1.13-.34,2.28-.72,3.38-1.09s2.43-.82,3.65-1.17c1-.29,2-.54,3-.78,1.49-.37,3-.74,4.52-1.26q.4-.15.81-.27a13.74,13.74,0,0,0,2.24-.89,6.47,6.47,0,0,1,1.05-.44l.61-.24C929.91,101,930.15,101.71,930.38,102.42Zm-57.92,7a41.33,41.33,0,0,1,1.41-20.86,45.89,45.89,0,0,1,4.54-9.19,23.93,23.93,0,0,1,7-7.52,8.88,8.88,0,0,1,1.8-.88,44.1,44.1,0,0,0,4.32-1.32,42.05,42.05,0,0,1,4.31-1.31l.15,0a21.61,21.61,0,0,1,10.15.13c3.71,1,6.69,3.41,9.34,5.89a43.28,43.28,0,0,1,7,8.63c3,4.7,4.86,10.12,6.41,14.86a2,2,0,0,0-.27.23c-.23.1-.47.19-.71.27a4.58,4.58,0,0,0-1.32.6,1.82,1.82,0,0,1-.71.28l-.19,0-.19.05a2.69,2.69,0,0,0-.47.14c-.61.24-1.23.47-1.88.68-1.3.43-2.66.75-4,1.07-1,.23-2,.48-3,.77-1.23.36-2.46.77-3.65,1.17-1,.33-2,.66-3,1-1.51.47-3.07.84-4.58,1.2-1,.24-1.94.47-2.9.73-2.11.56-4.25,1.18-6.31,1.76-2.74.78-5.57,1.59-8.38,2.3-1.7.42-3.52.87-5.75,1.38l-4.47,1-3.89.88C872.93,111.94,872.68,110.66,872.46,109.4Z"/></g></g></svg>