<svg xmlns="http://www.w3.org/2000/svg" viewBox="0 0 1674.41 642.02"><defs><style>.cls-1{fill:#1a3869;}</style></defs><title>run</title><g id="图层_2" data-name="图层 2"><g id="图层_9" data-name="图层 9"><path class="cls-1" d="M1579.22,17.61c2.79,7.51,2.75,15.5,3.43,23.36.39,4.88.81,9.94,4,13.92-.92-4.78.1-9.53.42-14.32.62-8.27-1.11-17.49-7.84-23Z"/><path class="cls-1" d="M1586,52.8a26,26,0,0,0,3,10.61l-.22-.39.69,1.25a17.45,17.45,0,0,0-4.72,4.74c2.06-1,4.32-1.58,6.47-2.37,3.85-1.59.11-5.61-1.13-7.85a37.55,37.55,0,0,0-4.14-6Z"/><path class="cls-1" d="M1586.35,70.06a8.78,8.78,0,0,0-.24,5.2c-1.68,1.15-3.86,2.69-2.47,4.95.18.32.71,1.54.63.66h0c-.73-3.71,4.82-2.55,3.88-6.14a37.8,37.8,0,0,1-1.8-4.67Zm-.26,5.27,0,0,0,0Zm-.06,0,0,0,0,0Zm-1.75,5.3v0Z"/><path class="cls-1" d="M1585.11,83.14c-.71,2.37-2.53,4.16-3.31,6.49-1.25,2.65.26,5.7-1,8.27a7.64,7.64,0,0,1-6.23,3.26c4.76,3,11.81-1.37,10.44-7.09-1.11-3.66,1.07-7.34.06-10.93Z"/><path class="cls-1" d="M1539.37,74a23.86,23.86,0,0,0,8.84,17,31.57,31.57,0,0,0,12.62,8c1.35.54,9.14,2.82,5.48.86l.08,0a75.33,75.33,0,0,1-15-12.68c-4.92-3.57-8.39-8.42-12-13.19Zm27.45,26.14h0Z"/><path class="cls-1" d="M1532.44,47.61c-11,.54-6.65,14.87-1,19.6,5.55,4.57,3.73,2.88,1.23-1.79-1.35-3.29-4.39-11.27-2-14.24a9.65,9.65,0,0,1,6.7-2.07,6.92,6.92,0,0,0-5-1.5Z"/><path class="cls-1" d="M1566.82,101.21a11.32,11.32,0,0,0-9.13,8.57c-1,1.51-.27,11.31.63,6,1.67-5.21,4.76-10.3,9.66-13a10,10,0,0,1,3-1,6.9,6.9,0,0,0-4.13-.57Zm-8.47,14.47,0,.11,0-.11Zm-.15.51v0Z"/><path class="cls-1" d="M1547.11.28c-10.32,1.26-20.63,4.68-28,12.38-6.07,6.62-11.74,16.81-11.88,25.94a55.86,55.86,0,0,0,3.56,19.14c1.55,4.08,3.63,7.93,4.72,12.19,1.43,4.31,2.72,8.74,1.89,13.31,3.28-5.62,2.42-12.39,1.5-18.56-2.16-8.86-5.78-17.48-5.58-26.77.31-6,3.51-11.5,6.3-16.73a33.55,33.55,0,0,1,25.14-14.85c11.36-1.35,24.65-.25,33.62,7.5a26,26,0,0,1,2.13,2.9c-.16-.83-.34-1.64-.57-2.45-1.22-4.1-4.74-6.88-8.26-9-7.16-4.82-16.17-5.87-24.6-5Zm7.24-.21h.54l-.65,0Zm-.11,0h0Z"/><path class="cls-1" d="M1516.29,89.49c-3.2,4.28-8.64,6.06-13.31,8.27a166.55,166.55,0,0,0-16.3,7.77c-7.1,4.45-19.73,8.67-23,16.5,3-3.13,7.12-4.46,11.09-5.8a172.41,172.41,0,0,0,17-6.76c8.25-4.64,22.08-10.11,24.59-20Zm-1.17,1.45,0,0,0,0Z"/><path class="cls-1" d="M1521.26,96.14c3,8.94,8,17.72,16.62,22.28,3.8,1.87,8.27,4.18,12.55,3-11.72-3.8-19.72-17.76-29.17-25.24Z"/><path class="cls-1" d="M1564.73,107.74c3.24,2.17,5.2,5.64,7.91,8.36,4.87,4.59,8.3,5.67,10.86,12.5,1-5.42-1.61-10.39-5.93-13.62-3.75-3.1-7.68-7.13-12.84-7.24Z"/><path class="cls-1" d="M1463.58,121.19c-4.62,1.3-8.2,4.52-11,8.29-5.8,6.77-11,14-16.45,21-9.62,12.87-23.89,25.26-29.87,39.25h0c3.39-3,6.35-6.46,9.57-9.65,3.83-3.45,7.77-6.79,11.36-10.5,5.65-5.3,10.16-11.61,15.24-17.41A131.28,131.28,0,0,0,1455.78,132c2-4,4.22-8,7.8-10.76Z"/><path class="cls-1" d="M1406.28,190.44c.14.28.27.55.41.82h0c2.58,4.89,8.7,6.09,13.29,8.44,6.75,3.24,14,5.55,20.22,9.83l-.25-.16a46.3,46.3,0,0,1,4.25,3.41c-.27-.63-.54-1.3-.84-1.93-2.28-4.79-6.37-8.37-10.69-11.31-3.9-2.7-8.56-4.15-13.13-5.3s-9.53-.82-13.26-3.79Zm.41.81,0,0,0,0Z"/><path class="cls-1" d="M1486.37,182.51c-4.73,5.29-11.62,7.92-18.36,9.62-8.12,1.75-21.43,5.88-20,16.38,3.32-9.47,15.5-8.09,23.19-11.42,6.49-2.78,12.89-7.65,15.12-14.58Z"/><path class="cls-1" d="M1491.07,159.47a64.92,64.92,0,0,0-1.11,16.92c3-5.07,3.78-11.55,1.11-16.92Z"/><path class="cls-1" d="M1397.5,206.6c.88,6,4.61,11.11,7.57,16.28,4.4,8.11,11.12,14.51,17.58,21,14,14.29,30.07,26.18,45.41,38.93a46.55,46.55,0,0,1,3.75,3.68,33.47,33.47,0,0,0-4.2-8c-6-9-15-15.25-23.09-22.22-17.14-14.94-34.49-30.58-47-49.67Z"/><path class="cls-1" d="M1407.84,194.2c-5.3.29-12.59,6-9.68,11.75.17-2.5,1.91-4.33,3.67-5.93,2-2,3.73-4.19,6-5.82Z"/><path class="cls-1" d="M1434.12,204c1.88,1.89,4,3.54,5.05,6.08l0-.06c.84,1.7,1.69,3.4,2.58,5.08l-.21-.4c9.36,19.25,21.12,38.77,40.46,49.3-8.23-11-17.57-21.17-24.92-32.79-4.1-6.12-8.09-12.32-12.56-18.17-2.81-3.78-5.68-7.62-10.37-9Z"/><path class="cls-1" d="M1473.14,285c-.35,12.8,9.33,15.81,19.78,18.4,3.24.42,3.89,2.93,6.46,3.64a2.86,2.86,0,0,0,3.06-1c-.17,0-.36.11-.55.15h0c-3,.67-3.08-3.49-5.12-4.75-10.39-7.63-16.81-3.34-23.67-16.41Z"/><path class="cls-1" d="M1495.74,293.81a25.79,25.79,0,0,0,3.78,4.8c1.65,1.77,4.92,3.34,3.69,6.22,5-4.65-3.89-9.12-7.47-11Z"/><path class="cls-1" d="M1501.63,287.13c.89,3.55,3.93,5.91,6,8.77.64,1.91-1.94,3.24-2.77,4.72,5.36-1,7.82-5.3,2.82-9-2-1.58-4.29-2.7-6-4.52Z"/><path class="cls-1" d="M1507.84,278.44c2.7,5.33,9.23,7.12,3.31,13.23,3.17-.66,6.48-3.91,4.73-7.28-1.61-2.85-5-4-7.59-5.68l0,0-.29-.18h0a1.51,1.51,0,0,0-.2-.12Z"/><path class="cls-1" d="M1509.53,269.07c1.92,4.21,6.64,6.42,8.84,10.36-.15,1.9-2.9,6.66.54,2.71h0c6.42-6.15-5.32-10.34-9.37-13.08Zm8.79,10.08s0,.05,0,.08l0-.08Zm.52,3.06-.06.05.06-.05Z"/><path class="cls-1" d="M1515.91,265.51c3.37,2.53,15.35,6.39,4.85,8.58a5.65,5.65,0,0,0,5.11.22c4.19-1.9,1.73-6.55-1.81-7.47a25.35,25.35,0,0,0-8.15-1.33Z"/><path class="cls-1" d="M1499.65,258c-5.94,1.27-11.81,4.17-18,3.11,5.76,4.2,13.26,2.81,19.81,1.83,3.26.15,6.22,1.67,9.36,2.37a18.51,18.51,0,0,0,5.8.19c-1.58-.8-3.21-1.57-4.75-2.47-3.66-2.41-7.53-5.57-12.19-5Z"/><path class="cls-1" d="M1493.77,280.82c-2.47,0-3,2.71-2.69,4.66.77-1.08,1.1-2.42,2-3.4s3.19-1.12.68-1.26Z"/><path class="cls-1" d="M1499.55,273c-1.38.82-1.55,2.61-1.22,4a7.63,7.63,0,0,1,3.13-3.92l-.09,0c2.75-1.17-.74-.89-1.82-.16Z"/><path class="cls-1" d="M1460.94,202c-3.16,6.93-2.88,15-.52,22.12,2.65,6.28,6.16,12.18,7.68,18.9,1.42-6.63-.24-13.28-2.47-19.55a134.17,134.17,0,0,1-4.69-21.47Z"/><path class="cls-1" d="M1460.35,275.78c-7.22,8.79-8.77,20.52-9.52,31.51.17,1.64.21,2,.73.17a88.38,88.38,0,0,0,8.79-31.68Zm-.76,5.69v0Z"/><path class="cls-1" d="M1452,312.13c-.64,8.76,17.86,8.36,23.93,10.22,11.85,2.63,24.7,3.35,36-1.85-13.5,1.7-26.25-3.9-39.56-4.69-5.32-.92-18.16,2.54-20.33-3.68Z"/><path class="cls-1" d="M1585.45,132.82c-1.64,7.93,1.34,14.8,2.21,22.5.58,4.57-1.21,8.93-1.56,13.45-1,7.65-4.13,14.78-6.16,22.18l.24-.75c-3.91,11.64-6,23.78-8.38,35.79a165.28,165.28,0,0,1-4.18,24c-1.28,5.08-1.49,10.34-2.55,15.46-1,4.93-2.33,9.82-2.82,14.85a98.35,98.35,0,0,0,3.49,36.6c-1.89.92-4.12.33-6.13.13,2.11,1.12,4.45,2.56,7,2.13,2.74-.39,2.1-3.42,1.88-5.42a81.44,81.44,0,0,1-.36-8.7c-.11-7.09-.53-14.19-.36-21.29.27-7.91,2.45-15.55,3.44-23.37.61-7.11,3.15-13.83,4.41-20.82,1-5.21,1.35-10.5,2.27-15.71,1.17-6.3,2.84-12.51,3.94-18.84,2.73-12.12,9.11-23.25,10.86-35.6.82-5.44,2-11,.16-16.36-2.24-6.82-5.81-13.17-7.35-20.23Zm-1.75,65.35c0,.11-.07.22-.11.34,0-.12.07-.23.11-.34Z"/><path class="cls-1" d="M1537.57,317.75c-4.87.15-9.39,2-13.83,3.86-5.3,1.9-10.89,2.82-16.28,4.45,5.94.55,12.08,1.33,18,.08,9.91-3,20.14-4.39,30.17-6.87-5.79-1.71-12-1.63-18-1.52Zm16.85,1.74h0Z"/><path class="cls-1" d="M1478.05,196.77c-3.24,15.07,12.18,24.41,24,29.51-4-3.7-7.63-7.74-11.33-11.71-5-5.37-10.44-10.63-12.67-17.8Z"/><path class="cls-1" d="M1485.07,204.3c6.85,9.44,16.3,17.32,28.67,15.24-3-1.16-6.31-1.83-9.06-3.61-6.12-4.5-12.37-9.11-19.61-11.63Z"/><path class="cls-1" d="M1586.61,190.66a8.7,8.7,0,0,0,5.84,6.93,37.26,37.26,0,0,0-5.84-6.93Z"/><path class="cls-1" d="M1593.75,195.9a24.36,24.36,0,0,0-6.87,5.13c4.57-.69,8.72-2.87,13.19-3.95,1.58-.43,5.06-.66,5.64-1.44h0c-3.94-.53-8.21-1.72-12,.26Zm11.66-.28h0Zm.29,0h0Z"/><path class="cls-1" d="M1609,212.61a89.3,89.3,0,0,0-17.07,6.26c-3.63,1.71-6.92,4.15-10.64,5.64-.86.27-2.61-.46-1,.55,3.27,1.52,7.11-.35,10.4-1.13,8.11-2.63,15.66-6.59,23.06-10.77,1.39-.67,2.83-1.29,4.21-1.94a32.25,32.25,0,0,0-8.93,1.39Z"/><path class="cls-1" d="M1619.35,175.42c-6.87,4-16.07,8.73-12.06,18.1.53,1.28,1.41,2.54,1.32,4-.12.84.17.31.47-.13,1.08-1.87.31-4.1.44-6.14.08-3.23,2-5.71,4.08-8,1.91-2.61,4-5.13,5.75-7.86Z"/><path class="cls-1" d="M1619.61,176.4c2.86,3.78-2.82,5.9-2.91,9.54,1.43-2.06,4.47-2.78,5.23-5.3a3.61,3.61,0,0,0-2.32-4.24Zm.4.75,0,0,0,0Z"/><path class="cls-1" d="M1628.14,174.37c-2.05.69-4.16,2-4.75,4.21,2.4-1.64,5.41-2.22,8.09-3.31a5.16,5.16,0,0,1,2.7-.05c-1.47-1.68-4.1-1.49-6-.85Z"/><path class="cls-1" d="M1631.29,177c-1.06,2.48-2.92,4.59-3.47,7.3-1.3,5,2.43,7.69,5.08,3.64h0c-1.26.2-3.28,1.15-2.91-1,.35-3.29,2-6.63,1.29-9.95ZM1630,188.05l.09.1-.09-.1Zm0,.12.08.05h0l-.09-.06Zm.09.06,0,0,0,0Zm0,0h0Zm0,0,.14,0-.14,0Z"/><path class="cls-1" d="M1635.58,174.38c1.92,4.66-2.18,9.42-3.35,13.85,2.65-2.33,5.83-5.14,5.67-9,.06-1.85-.36-4.17-2.32-4.85Z"/><path class="cls-1" d="M1627.49,190.26c-2.72.54-3.72,5.49-.22,5.65-.41-.52-1.12-1-1.16-1.68.39-1.33.4-2.91,1.38-4Zm-1.37,3.83s0,.08,0,.13a.53.53,0,0,1,0-.13Zm.58,1.2,0,0,0,0Z"/><path class="cls-1" d="M1639.14,182.75c1.89,2.52,0,5.87-2.66,6.84q-3.4,2.1-6.66,4.42c-1.19,1.07-4.93,3.44-1.1,2.11,4.52-1.6,12.82-2.84,13-8.81,0-1.81-.58-4.09-2.59-4.56Z"/><path class="cls-1" d="M1626.12,199c-2.42,4.78,4.09,5.63,7,3.28-2.6-.19-6.88.38-7-3.28Z"/><path class="cls-1" d="M1642.46,190.88c.77,4.32-1,5.13-4.34,7-2.23,1.54-4.49,3.05-6.65,4.69,5.63-.59,17.41-4.58,11-11.73Z"/><path class="cls-1" d="M1634.62,203.41c-2.76,4.24,2.76,5.56,5.32,2.77-1.66.15-3.82.65-5-.78l0,.08c-.19-.67-.15-1.41-.31-2.07Zm.24,1.94s0,0,0,.06l0-.06Zm.16.27,0,0,0,0Z"/><path class="cls-1" d="M1646.74,197.54c3.8,3.19-6.21,6-7.79,8.62,3.58-.93,8.34-1.36,10-5.28a2.43,2.43,0,0,0-2.17-3.34Z"/><path class="cls-1" d="M1632.24,208.25c-1.3.16-2.59.38-3.87.65h0l-.36.07h.08c-.64.13-1.27.29-1.9.47l.21-.05a46.9,46.9,0,0,1-7.65.94,13.6,13.6,0,0,0,8.65,1.63,23.9,23.9,0,0,0,8.83-3.85,23.55,23.55,0,0,0-4,.15Z"/><path class="cls-1" d="M1454.26,313.89c-4.45,7.25-4.23,16.62-.45,24.11.93,1.93,2.2,3.68,3.1,5.63,1,3.08,1.51,6.35,2.52,9.43,1.11-5.79,1.57-11.27-1.19-16.68a70.52,70.52,0,0,1-4-22.49Z"/><path class="cls-1" d="M1457.34,353.68c-2.3,6-5.55,11.59-8.41,17.36a80.12,80.12,0,0,0-6.41,22.07,30.87,30.87,0,0,0-.24,8.2c.5,2.61.51,2.64.86-.06,3.6-16.12,16.22-30.35,14.2-47.57Z"/><path class="cls-1" d="M1444,404.51c4.39,5,10.64,8,16.6,10.71,5.43,1.87,11.22,1.27,16.83,1.4,7.35,1.45,13.7,5.87,20.88,7.92-7.84-6-15.25-15-26.07-14.17-4.32-.15-8.77.31-12.94-1.1-5.06-1.68-10.41-2.64-15.3-4.76Z"/><path class="cls-1" d="M1478.77,380.75c5.75,11.12,11.74,22.17,16.65,33.7l0,0c2.72,7.5,4.45,15.38,7.95,22.58.89,1.69,1.84,3.4,2.87,5-.27-1.16-.51-2.33-.77-3.49-2-8.58-2.08-17.52-4.42-26a71.75,71.75,0,0,0-22.26-31.7Zm16.8,34.07c0,.11.09.22.14.33,0-.11-.1-.22-.14-.33Z"/><path class="cls-1" d="M1523.68,431.11c-3.62,1.19-3.37,6.25-3.8,9.39a38.4,38.4,0,0,0-11-1.64c2.53,1.67,5.22,3.14,7.89,4.6,7.09,5.1,8.41-.2,8.64-6.63,2.46,2.49,5.41,5.08,9.14,4.95a11,11,0,0,1-3.12-2.46c-2.44-2.67-3.25-8.64-7.78-8.21Z"/><path class="cls-1" d="M1585.15,424.09l-.1.14h0c-2.7,4.59-8.47,4.67-13,6.46a257.37,257.37,0,0,1-25.57,7.36,84.45,84.45,0,0,0-9.11,1.08c4.67,1.38,9.35,3.35,14.31,2.73a52.47,52.47,0,0,0,18.89-5.32c2.59-1.37,5.17-2.78,7.67-4.31,3.32-1.77,6.51-4.1,6.9-8.13Z"/><path class="cls-1" d="M1552.41,322.33c1.16,6.61,3.26,13,4,19.72,1.13,8.56,1.45,17.23,3.23,25.7,4.26,18,13.45,34.47,23.3,50,1,1.62,1.77,3.38,2.63,5a34.57,34.57,0,0,0-1.67-9.3c-5.74-18.43-18.2-34.49-20.47-54l.09.66c-1.48-15.1-3.23-24.58-11.12-37.82Z"/><path class="cls-1" d="M1462.79,348.55c.19,6.13,3.42,11.41,7.57,15.72a31.61,31.61,0,0,0-7.57-15.72Z"/><path class="cls-1" d="M1428.32,424.16c-15.22,1.33-29.79,8.1-43.31,14.86-12,5.55-23.6,12-33.84,20.41-1.3,1-2.7,1.93-4.07,2.82a47.75,47.75,0,0,0,12.83-4.49c23.35-11.19,45.53-28.09,72.14-29.94,6.89-.95,15.5,1.46,21.45-1.32h0c-3.77.49-7.51-.76-11.19-1.44a73.92,73.92,0,0,0-14-.9Z"/><path class="cls-1" d="M1462.22,415.41c-3.79,7.23-4.16,10.2-11.32,15.18h0c-3.4,2.33,5.85-.91,6.85-1.82,4.47-2.78,4.86-8.6,4.46-13.35Z"/><path class="cls-1" d="M1500.06,456.86c-9.49,5.28-9.8,4.73-20.34,3.9a136.41,136.41,0,0,0-25,.73c-21.3,2.26-42.85,3.7-63.59,9.38-16.08,2.77-29.84,9.29-41.29,21.11,6.24-2.49,12.41-5.26,18.5-8.15,8.75-4.46,18.31-6.79,27.76-9.26,18.64-5.15,38.05-6.76,57.27-8.06,9.48-.78,19-.59,28.47-.93,10.84-.4,10.89-.78,18.21-8.72Z"/><path class="cls-1" d="M1509.07,442.65c-5.87,4.92-8.72,12.27-12.76,18.57,6.8-3.44,10.83-10.34,12.5-17.57h0c.08-.33.2-.68.26-1Z"/><path class="cls-1" d="M1321.51,453.39c-2.69.1-5.37.34-8.06.44a30.61,30.61,0,0,0,4.7,2.13c6,2.24,12.49,2.26,18.8,2.84,7.62.17,6.89,11.44,7.16,2.74-.77-8.56-16.19-8.11-22.6-8.15Z"/><path class="cls-1" d="M1344.22,465.93c-2,4.56-8.08,6.19-8.78,11.53-1,5.06,1.69,10,5.54,13.08,2.69,2.38,5.93,5,9.74,3.86,1.17-.17,2.48-.52,3.54.13a3.71,3.71,0,0,0-2.49-1.57c-3.3-.32-5.37-2.51-7.09-5.15-2.33-3-4.54-6.37-4.48-10.28.4-4.16,4.89-7.18,4-11.6Zm-2,2.93-.09.08.09-.08Z"/><path class="cls-1" d="M1355.24,496.37c-4.51,4.4-11.59,3.95-16.65,7.56a51.91,51.91,0,0,0-13.32,13.92c-3.44,6.63,3.39,19.64-7.09,21.3-1.85.42-4.19.11-.71.92,3.67.78,8.06.18,9.75-3.62,2.92-4.83,2.19-10.84,4-15.94,1.94-2.42,4.08-4.69,6-7.15,6-9.38,15.27-9.87,18-17Z"/><path class="cls-1" d="M1308.93,453.28c-3.74,4.42-3.87,12-5,17.54-1.83,12.13-1.28,24.45.16,36.59,1.51,9,1.4,24.47,8.84,30.49a5.53,5.53,0,0,0,4.95.23c-3.11.15-4.93-2.26-5.54-5.07-1.47-6.78-1.45-13.8-2.61-20.64-1.24-8.16-2.86-16.31-3-24.6-.11-8.95-.44-17.92.5-26.85.34-2.58.4-5.4,1.7-7.69Z"/><path class="cls-1" d="M1317.12,460.63c-7.17,18.43-10.3,60.71,2,77-2.64-12.69-2.87-25.83-3.93-38.74,0,.19,0,.37,0,.55-.34-13-.62-26.1,1.92-38.86Z"/><path class="cls-1" d="M1343.42,495.81h0c-6.94,1.63-13.62,6.3-15.14,13.7,3.46-4,8.06-6.88,12-10.47l-.06,0c1.06-1,2.68-2,3.23-3.28Z"/><path class="cls-1" d="M1531.58,439.58c1.66,3.7,1.89,7.87,2.94,11.77,1.73,7.37,3.62,14.82,3.64,22.44.65,14.3-1.65,28.83,1.56,42.93,4.27,12.9,10.86,25,17.35,36.93,5.5,12.74,12.42,24.73,19.28,36.76,1.09,2,2,4.18,2.87,6.26a43.17,43.17,0,0,0-3.24-16.44c-7.78-19.24-19.78-36.42-27.66-55.63-4.34-8.78-5.2-18.62-4.9-28.28,0-9.75,1.06-19.54-.16-29.25-1.27-7-4.1-13.59-7.23-19.94-1.32-2.59-2.36-5.49-4.45-7.55Zm.48,1.06,0,0,0,0Z"/><path class="cls-1" d="M1581.48,432.17c1.06,10.64-3.62,21.13-3,31.83-.9,17.72,2.25,35.35,4.88,52.81,4.26,19.75,5.77,41.52,18.45,58.09,1,1.24,2,2.5,3.11,3.68-.37-1.09-.75-2.17-1.13-3.24h0a417.7,417.7,0,0,1-18.89-85.63c-.33-6.07-1-12.15-1-18.23.41-4.83.29-9.66.26-14.5.19-5,.6-9.95-.25-14.89-.67-3.3-.48-7.09-2.46-9.93Zm-1.48,17c0,.19-.07.37-.1.56,0-.19.07-.37.1-.56Zm23.78,126.21,0,.09,0-.09Z"/><path class="cls-1" d="M1575.75,597.08c-5.7,8.86-1.86,19.78,1.46,28.81a1.8,1.8,0,0,0-.08-.21c.79,2.35,2.25,5,1,7.45h0c4-2.11,2.17-9.5,1.72-13.7-1-7.37-5.23-15.29-2.69-22.62h-.08a1.27,1.27,0,0,1,.69.12h0c1,.77-.69-2.12-2,.16Zm1.63-.28h0Zm-.41.19,0,0s0,0,0,0Z"/><path class="cls-1" d="M1606.46,577.37c-9,2.49-7.89,16.63-11.43,23.81-2.36,6.28-8.81,7.09-12.31,1.22-.78-.88-1.6-1.76-2.43-2.57,1.34,3.41,1.75,7.7,5.13,9.77,8.81,5,16.31-3.32,17.41-11.81.8-4.1.69-8.3,1.17-12.44s2.31-6.22,6.4-6.72c.58-.19,1.19-.36,1.74-.58-1.91,0-3.78-.69-5.68-.68Z"/><path class="cls-1" d="M1612.28,578c5.53,12.27,23.72,18.34,36.38,17.89a65.55,65.55,0,0,0,12.41-1.49c3.39-.92,7.39-1.6,10.42.65a10.64,10.64,0,0,1,2.92,3.83,9.42,9.42,0,0,0-7.09-8.75c-4.19-1.21-8.62-.14-12.91-.52-2.52-.14-5-.27-7.56-.3-12-1-25.36-3-34.57-11.31Z"/><path class="cls-1" d="M1672.45,594.74c-7.72,20.26-21.26,27-41.87,29.32-5.38,1.14-10,4.18-15.06,6.25a87.59,87.59,0,0,1-19.33,5.15c-5.11.18-10.33,0-15.2-1.68,3.13,2.92,7.2,4.46,11.31,5.48,9.29,2.16,19.2.15,27.84-3.58,3.67-1.61,7.09-3.87,11.06-4.72,4-1,8.1-.86,12-1.88,6.06-1.75,12.32-3.85,17.37-7.75,7.5-6.64,11.52-16.71,11.83-26.59ZM1585.78,635h0Z"/><path class="cls-1" d="M1651.51,612.72c-10.52,1.44-21.29,1.14-31.47,4.67-10.59,3.23-20.61,8.58-31.92,8.67,4.89,1.69,10.16,3,15.36,1.93,9-1.48,17.79-4.3,26.39-7.37,7.22-2.6,15-3.91,21.64-7.9Zm-56.94,12.72h0Z"/><path class="cls-1" d="M1618.67,585.34c-5.66,4.49-9.59,11.22-7.13,18.51,2.1-6.27,5.06-12.24,7.13-18.51Z"/><path class="cls-1" d="M1626.55,588.55c-6.75,1.92-10.26,8.84-9.57,15.53,3.18-4.59,5.06-10,8.63-14.33l0,0,.06-.09,0,0c.25-.3.49-.61.73-.92v0c.06-.1.16-.19.21-.28Zm-.51.66h0Zm-1,1.21,0,0,0,0Zm.54-.67h0v0Z"/><path class="cls-1" d="M1631.59,592.2c-6.45,1.79-9.32,9-7.86,15.18,1.44-3,2.69-6.17,4.07-9.24l0,.05a20,20,0,0,1,3.61-5.73h0a2.47,2.47,0,0,0,.21-.27Zm-.22.28h0Z"/><path class="cls-1" d="M1636.57,594.22a16.7,16.7,0,0,0-6.45,11.34,24.38,24.38,0,0,0,6.45-11.34Z"/><path class="cls-1" d="M1603.78,592.43a29.88,29.88,0,0,0,20.37,11c3.85.54,10.64.82,12.92-1h0a37.83,37.83,0,0,1-8.82-2.12l.07,0-2.16-.76.52.18c-7.54-2.73-15.39-4.54-22.91-7.3Zm33.31,10h0Z"/><path class="cls-1" d="M1334.19,492.79a17.56,17.56,0,0,0,8.33,9.26c6.77,4,.9-1.06-.82-3.39l.08.09a31.73,31.73,0,0,0-7.59-6Zm7.36,5.71.14.15-.14-.15Z"/><path class="cls-1" d="M1329.43,498.5c.16,6.41,5.64,10.38,11.13,12.48-3.36-4.45-7.53-8.25-11.13-12.48Z"/><path class="cls-1" d="M1326.69,501.72c-2.64,5.35,3.68,9.51,7.91,11.31-2.31-3.95-7-6.73-7.91-11.31Zm.24,1.21v0Z"/><path class="cls-1" d="M3.75,623.45C35.2,605.76,73.09,600.89,108.6,599.4a513.34,513.34,0,0,1,107.29,6.8c46.56,7.9,92.41,20.18,139.61,24a334.07,334.07,0,0,0,34.37,1.09c9.22-.22,20.36.64,28.38-4.79,3.37-2.29,7.08-6.16,6-10.64-1.23-5.08-7.08-6.18-11.24-4.1s-6.82,7.29-7.14,11.86c-.51,7.27,4.85,12.47,11.15,15.12,7.83,3.29,17,3,25.28,3.21,11.52.22,23-.07,34.55-.74,46.49-2.74,92.28-11.78,138-20C661,613,707.66,605.39,754.7,606.15c5.58.09,11.63-.2,17.09,1.18,5.05,1.27,13.71,8.28,7.3,13.46l-3.71.91q-4.27-8.44,3-9a47.39,47.39,0,0,1,8.83-.69c7.08-.26,14.17-.37,21.26-.39A716,716,0,0,1,881.19,615c94.3,9.27,206.67,55.65,293.17-5a2.55,2.55,0,0,0,.51-3.93c-3.63-4.11-11.2-7.59-16.52-4.18-4.43,2.85-3.82,10.75-2.52,15.18,4.87,16.57,23,20.35,38.09,20.46,27.12.2,54.38-2.56,81.37-4.86,66.8-5.69,133.63-13,200.72-14.27,30.43-.59,61.83-.66,91.7,6,3.13.7,4.47-4.12,1.33-4.82-22.39-5-45.58-6-68.44-6.27-29.41-.33-58.84,1.09-88.19,3-58.21,3.81-116.2,10.29-174.39,14.3-12.52.87-25.07,1.62-37.63,1.87-10.1.21-21.51.57-30.45-5-5.21-3.22-9.51-8.92-10-15.19-.61-8.23,6.52-8.2,11.36-2.72l.51-3.92c-80,56.1-182.24,17.94-269.53,6.74a717.54,717.54,0,0,0-72.64-5.59q-16.7-.44-33.4-.1c-7.73.16-19.62-1.38-26,4.24-8.57,7.5,1.1,20.6,10.75,14.7,4.13-2.52,5.84-8.53,4.67-13-1.79-6.83-9.17-9.65-15.43-10.65-21.62-3.46-45.63-.67-67.28,1.33-22.3,2.06-44.46,5.37-66.52,9.1-47.36,8-94.45,18.16-142.35,22.5-10.51,1-21.05,1.63-31.6,1.93-12.11.34-25.14,1.2-37.11-.93-5.38-1-13-3.3-14.38-9.5a10.37,10.37,0,0,1,2.58-8.81l2.77-1.8q4.08,4.26-.6,6.38c-3.26,3.35-9.61,3.26-13.87,3.57-7,.51-14,.65-21,.61-50.16-.35-99.11-12.83-148.1-22.15-39.37-7.49-79.4-11.26-119.5-10-37.9,1.2-78.49,6-112.07,24.9-2.8,1.58-.28,5.9,2.53,4.32Z"/></g></g></svg>