<svg xmlns="http://www.w3.org/2000/svg" viewBox="0 0 424.69 266.98"><defs><style>.cls-1{fill:#edbc2c;}.cls-2{fill:#fff;}.cls-3{fill:#3f89ff;}</style></defs><title>book</title><g id="图层_2" data-name="图层 2"><g id="图层_9" data-name="图层 9"><path class="cls-1" d="M327.55,19.61c-.3.74-.64,1.46-1,2.26l-.1.19a31.24,31.24,0,0,0-1.31,3.12c-.09.26-.17.53-.25.79l-.07.19c-1.1,3.39-2.23,6.9-4.29,9.85a12.28,12.28,0,0,0-1.19,2.25,10.64,10.64,0,0,1-1.48,2.64l-.71.81.91.07.7,0h.47c1.46,0,2.89,0,4.32.08a53.44,53.44,0,0,1,9.22,1.42l.34.07.14-.26a54.93,54.93,0,0,0,7.88-10.52c.7-1.18,1.39-2.4,2.05-3.6l.11-.19a68.29,68.29,0,0,1,4.4-7.25l.5-.67a73.62,73.62,0,0,0,6.66-10.28A20.28,20.28,0,0,1,358,5.81c.16-.19.35-.38.56-.59l.16-.17c.15-.16.31-.33.45-.5l.79-.91-1.17.17-.73.11c-.76.05-1.5.06-2.07.06H335.74a33.7,33.7,0,0,1-4-.33c-.26,0-.52-.08-.78-.1l-.53-.07,0,.52a31.69,31.69,0,0,1-1,9.65A48.26,48.26,0,0,1,327.55,19.61Z"/><path class="cls-1" d="M184.06,44.69c-1.56.57-3.13,1.15-4.7,1.7-2.31.84-4.68,1.56-7,2.27l-.47.14a102.23,102.23,0,0,0-11.62,4.08L157.85,54l-1.51.68c-4.54,2-9.24,4.08-13.71,6.45a128.8,128.8,0,0,1-18.33,8l-4.67,1.56c-4.45,1.49-9.5,3.17-14.2,5.2C102,77.36,98.31,78.56,95,79.63l-.09,0c-3,1-6,2-9,3.19A86.2,86.2,0,0,0,63.22,96.29l-.38.32.37.36a1.54,1.54,0,0,1,.37.47l.08.17.18,0c1.54.43,3.08.81,4.59,1.18l.25.06a65.29,65.29,0,0,1,9,2.64c5.53,2.2,11.63,3.23,17.39,4,2,.28,4.15.52,6.17.75l.93.1c3.54.39,7.21.8,10.81,1.41l.16,0,2.86.47c4.21.69,9.46,1.56,14.44,2.54a83.05,83.05,0,0,0,10.67,1.23h.2c1.9.13,3.93.29,5.91.5a45.81,45.81,0,0,1,8.51,2.09,46.55,46.55,0,0,0,7.92,2c1.57.24,3.14.6,4.88,1,1.52.36,2.88.7,4.27.92l2,.3a38.3,38.3,0,0,1,5.83,1.16c.49.16,1,.31,1.49.49l.09,0a21.08,21.08,0,0,0,6.41,1.4,6.44,6.44,0,0,0,1,0,19,19,0,0,0,7.38-3c1.91-1.17,3.72-2.41,5.71-3.81.85-.58,1.72-1.19,2.6-1.78a59,59,0,0,1,7.75-4.25c2.73-1.34,5.44-2.77,8.08-4.19l.17-.09c3-1.58,6.31-3.39,9.69-5,1.59-.76,3.23-1.49,4.82-2.2,4.35-2,9.27-4.28,13.93-6.73,5.68-3,12.12-6.39,18.53-9.27l2-.88.87-.37a70.11,70.11,0,0,0,6.64-3.09,84.77,84.77,0,0,1,8.27-4l.39-.19c6.21-2.6,12.08-5.08,17.93-8.17,4-2.09,7.93-4.36,11.72-6.54,6.15-3.55,12.49-7.2,19.1-10.19l1.09-.5-1.16-.33a50.69,50.69,0,0,0-11.27-2.09c-.78-.05-1.56-.08-2.31-.1l-.47,0a41,41,0,0,1-6-.42c-1.58-.27-3.19-.52-4.74-.73l-4.1-.63c-4.22-.67-8.45-1.49-12.53-2.28l-1.84-.34c-1.39-.28-2.8-.54-4.19-.79-5.33-1-10.79-2.15-17.71-3.77-1.76-.41-3.52-.85-5.28-1.25l-.58-.15c-4.49-1-8.54-2-12.64-2.92l-2.65-.6-.5-.13c-4.54-1.07-9.23-2.17-13.89-2.17h-.95c-9.66.32-18.8,4-27.64,7.53l-.06,0c-2.06.82-4.25,1.7-6.38,2.5-4.62,1.73-9.35,3.45-13.92,5.09Z"/><path class="cls-2" d="M233.7,183.12l.78-.71-1-.06c-2.42-.14-4.72-.42-7.25-.73a23.52,23.52,0,0,0-3.15-.2c-1.25,0-2.55.08-3.78.15l-.37,0c-1.32.08-2.72.16-4.08.16H204.15c-6.83,0-13.89,0-20.81-.49-2.37-.17-4.78-.36-6.62-.51l-.49,0c-4.72-.36-9.62-.76-14.45-.9-5-.14-10.43-.21-17.08-.21-4.11,0-8.3,0-12.34.06l-4.11,0c-3.61,0-7.35,0-11,0H95.15c-3.13,0-6.27.16-9.5.31l-.6,0c-2.91.14-5.91.27-8.86.27-.83,0-1.45,0-2,0-.8,0-1.63,0-2.44,0a129.11,129.11,0,0,0-19,1.5,62.61,62.61,0,0,0-6.78,1.28l-.23.08-.08.21a1.5,1.5,0,0,1-.67.77,5.88,5.88,0,0,0-2,2.2,8.14,8.14,0,0,1-1.09,1.54,18.83,18.83,0,0,0-3.29,4.57,39.77,39.77,0,0,0-3.55,10.31l-.21,1a51.64,51.64,0,0,0-1.4,10.5c0,.36,0,.84-.07,1.39v.24c-.16,2.63-.37,6.22,1,7.74l.13.14h.18c.48,0,1,0,1.51,0,1,0,2,0,3-.07l.79,0c1,0,1.74-.06,2.47-.07h.21l.28-.34c.33-.4.65-.76,1-1.14l.62-.74a64.81,64.81,0,0,1,6.86-7.29,33.89,33.89,0,0,1,4.38-3.07l.13-.1a38.49,38.49,0,0,0,4.29-3,16.76,16.76,0,0,1,3.12-1.94l.09,0,.05-.08a1.54,1.54,0,0,1,1.09-.55h.08l.09,0a14.42,14.42,0,0,0,2.47-1.65,1.49,1.49,0,0,1,2,0l.2.17.25-.09c.16-.08.33-.15.51-.22l.12-.05a2.24,2.24,0,0,1,.64-.12,1.73,1.73,0,0,1,1.51,1l.15.29.32-.06c1.41-.22,2.73-.42,3.94-.63l.06,0c1.84-.29,3.73-.6,5.6-.86a50.65,50.65,0,0,1,5.91-.33h.07c1.22,0,2.48-.06,3.73-.13l1-.07c1.15-.09,2.36-.17,3.57-.17a16.52,16.52,0,0,1,3.39.31,1.79,1.79,0,0,1,1.46,1.51,1.71,1.71,0,0,1-1,1.78,59.19,59.19,0,0,0-13.28,9.3,52.37,52.37,0,0,0-5.51,5.61l-.59.73h.93c6.84,0,13,0,19.37-.42,3.93-.23,7.92-.76,11.44-1.23,2.94-.36,6.27-.8,9.53-1.06,8-.66,16-.73,22.8-.73,2.46,0,5.15,0,8.44,0l8.43,0c2.19,0,4.56-.14,6.46-.24h.08c2.15-.11,4.37-.22,6.55-.22a36.89,36.89,0,0,1,7.46.64,38.39,38.39,0,0,0,7.57.63c1.39,0,2.79,0,4-.07s2.63-.08,4-.08c1.13,0,2.09,0,2.94.08,1.07.06,2.23.15,3.69.25,1.95.16,4,.33,6,.34.56,0,1.13,0,1.69,0h.84c2.49,0,4.74,0,7,.12a46.52,46.52,0,0,1,12.39,2.18l.59.2v-.63c0-.33,0-.67,0-1v-.06a54.73,54.73,0,0,1,.14-7.37,80.66,80.66,0,0,0,.61-9V186.46l-.26-.12a1.88,1.88,0,0,1-1-1.13,1.6,1.6,0,0,1,.25-1.47A3.18,3.18,0,0,1,233.7,183.12Z"/><path class="cls-2" d="M331.59,64.73A28.81,28.81,0,0,1,331,61c-.06-.72-.14-1.47-.24-2.23-.05-.37-.12-.72-.18-1.06l-.09-.48c-.13-.66-.26-1.35-.33-2l-.07-.66-.58.32c-3.62,1.89-7.23,4-10.72,6l-.56.33c-2.45,1.41-5.31,3.05-8.16,4.6-5.62,3.1-10.87,5.73-16.05,8-1.47.65-3,1.27-4.45,1.89l-.47.19a89.41,89.41,0,0,0-10,4.63,93.38,93.38,0,0,1-9.83,4.59l-.23.11c-2.07.88-4.2,1.78-6.23,2.76-2.8,1.34-5.58,2.83-8.42,4.34l-.42.21c-2.41,1.31-4.91,2.64-7.42,3.86-2.85,1.38-5.73,2.71-8.94,4.2-2.57,1.18-5.08,2.34-7.55,3.53-2.62,1.25-5.21,2.66-7.71,4l-.35.19c-2.26,1.24-4.59,2.5-6.94,3.64a65.7,65.7,0,0,0-8.94,5l-.68.48c-2.27,1.57-4.6,3.21-7,4.62-2.25,1.32-5.33,3.15-8.33,3.29h-.76a26.43,26.43,0,0,1-7.64-1.37l-.94-.28.23.78c1.07,3.59,1.11,7.41,1.14,11.1v.06c0,.83,0,1.72,0,2.6s.05,1.81.07,2.72l0,.75a112.56,112.56,0,0,1,0,11.62l0,.6.59-.14a12.13,12.13,0,0,0,4-2l0,0,1.16-.77c1.76-1.1,3.61-2.14,5.65-3.18.53-.26,1-.51,1.56-.78l.23-.1a54.4,54.4,0,0,0,7.07-3.94l.44-.29.87-.62.09-.06c1.9-1.33,3.87-2.7,5.91-3.9,1.33-.78,2.61-1.69,3.85-2.57l.14-.09a50.85,50.85,0,0,1,4.51-3c2.93-1.64,5.86-3.4,8.72-5.24a152.36,152.36,0,0,1,17.39-10.11c1.88-.88,4-1.86,6.6-3.06,3.65-1.68,7.79-3.59,11.82-5.59l3.69-1.88,1.35-.7c4.24-2.18,9-4.65,13.81-6.61,2.95-1.22,6-2.37,9.13-3.52s6.62-2.43,9.94-3.84c3.61-1.51,7.16-3.33,10.29-5,2.41-1.25,5.13-2.65,7.86-3.91,1.21-.55,2.41-1.19,3.66-1.85l.39-.22c3-1.64,6.17-3.32,9.51-3.9l.37-.06v-.39A51.89,51.89,0,0,0,331.59,64.73Z"/><path class="cls-1" d="M86.78,211.11l.54-.49a38.1,38.1,0,0,1,4.85-3.75l1.29-.85-1.56,0H89.66a45.29,45.29,0,0,0-7.52.53A114.27,114.27,0,0,1,66,208.75h-.09l-.08,0-.24.11a11.09,11.09,0,0,0-2.47,1.42,13.83,13.83,0,0,1-1.23.82l-.26.17c-3.3,2-6.71,4-9.44,6.85-2.56,2.64-5.18,5.62-8,9.09-1.47,1.83-2.92,3.81-4.08,5.39-.68.92-1.39,1.89-2.1,2.83A41.16,41.16,0,0,1,29.79,243a46.75,46.75,0,0,1-9.52,5.83A24.48,24.48,0,0,1,10,250.71l-1.52,0H7.31l.6.73.08.09a29.8,29.8,0,0,0,3.74,2.66l.1.08c.66.4,1.31.83,1.93,1.25a47.62,47.62,0,0,1,4.17,3.37c.59.52,1.2,1,1.82,1.57a5.19,5.19,0,0,1,.45.4l.16.14a4.55,4.55,0,0,0,2.5,1.52l.42,0a6.8,6.8,0,0,0,3.09-1l.17-.09c1.86-.94,3.73-1.95,5.54-2.94l.14-.08c3-1.61,6.37-3.45,9.75-4.88a59.1,59.1,0,0,0,13.6-8.29,102.22,102.22,0,0,0,21.52-23.73C79.72,217.57,83.31,214.29,86.78,211.11Z"/><path class="cls-2" d="M58.34,134.88V135a7,7,0,0,0-.17,1.27v.22l.19.12a3.5,3.5,0,0,1,.81.66l.08.1.11,0c.4.14.78.3,1.11.45a6.27,6.27,0,0,0,2.58.67h2.18l2.2,0a31.94,31.94,0,0,0,3.68-.15c1.37-.14,2.79-.35,3.94-.53l.43-.08c1-.15,2.11-.33,3.15-.44,1.7-.17,3.38-.21,4.81-.21l1.53,0c1.14,0,2.29,0,3.43,0h.68l2.79,0c1.25,0,2.22,0,3.11.07,1.24.05,2.51.18,3.74.29l.2,0c1.47.16,3,.3,4.51.33,1.71,0,3.43.17,5.1.31l.35,0c1.08.1,2.06.19,3,.25,1.39.09,2.82.11,4.3.11,1,0,2.12,0,3.18,0a73.27,73.27,0,0,1,15.91,2.5l1.35.36a53.54,53.54,0,0,0,6.92,1.55l2.09.28.23,0c2,.25,4.05.51,6,.93a87.42,87.42,0,0,1,14.84,4.32c2.37,1,4.84,1.81,7.25,2.61l.25.09c.74.25,1.47.56,2.13.85l.12,0a19.81,19.81,0,0,0,1.85.74l.56.19,0-.58c.16-3.28.05-6.57,0-9.76v-.14c-.05-1.51-.1-3.05-.11-4.57,0-.62,0-1.25,0-1.94,0-3.85,0-7.82-1.4-11.5l0-.09-.08-.08a1.74,1.74,0,0,1-.52-1.25v-.36l-.34-.07c-2.26-.48-4.56-.91-6.8-1.3l-.53-.1c-2.41-.42-5.4-.94-8.18-1.56-2.43-.56-4.86-1.3-7-2-.87-.27-1.76-.55-2.65-.8a44.88,44.88,0,0,0-9.94-1.41H141a77.26,77.26,0,0,1-10.3-1.14c-3.52-.69-6.63-1.26-9.51-1.73-7.33-1.22-14.37-2.21-21.52-3.06-6.62-.8-13.65-1.74-20.38-3.82-1.33-.43-2.67-.94-3.85-1.4a42.82,42.82,0,0,0-5.77-1.9L67.43,102l-.15,0c-1-.2-2-.42-3-.68l-.46-.09-.07.41v0a18.56,18.56,0,0,1-1.27,2.52l0,.07A15,15,0,0,0,61,107a18.3,18.3,0,0,0-1.25,5.64,1.47,1.47,0,0,1-.48,1.13l-.14.09v.19a9.19,9.19,0,0,0-.07,1c-.07,1.24-.17,2.5-.27,3.72l0,.42c-.16,2.06-.34,4.19-.34,6.31,0,.83,0,1.79.06,2.94a49,49,0,0,1-.06,5.82A4.94,4.94,0,0,1,58.34,134.88Z"/><path class="cls-1" d="M58,101.12l-.07,0-.06,0c-1.39,1.42-2.65,2.78-3.83,4.17a1.6,1.6,0,0,1-1.29.63,1.78,1.78,0,0,1-.35,0l-.27,0-.15.21c-4.93,6.67-5.75,16.44-5.88,20.32-.15,4.89.62,11.39,5.16,14.36a15.87,15.87,0,0,0,8.5,2.35c1.73.05,3.52.17,5.07.3h.08c1.59.12,3.23.23,4.84.28,2.7.07,5.43.1,8.07.12h.61c4.09,0,8.33.07,12.49.34,6.73.45,13.67,1.29,21.24,2.53l1.85.32c6.29,1.06,12.78,2.13,19.25,2.88l1.65.18,2,.22c5.53.59,11.25,1.19,16.56,2.83a74.35,74.35,0,0,1,9,3.67l0,0a77.13,77.13,0,0,0,8.81,3.61,22.62,22.62,0,0,0,6.7,1c4.24,0,8.89-1,14.62-3.27a140.46,140.46,0,0,0,18.57-9.11c5.88-3.36,12-6.74,18.72-10.29,12.18-6.48,25.31-13.32,38.85-19.62,15.07-7,27.44-13.06,38.94-19,7.12-3.71,14.2-7.77,21.05-11.69l.65-.36c3.81-2.18,7.74-4.42,11.65-6.58l1.11-.62-1.26-.22a23.4,23.4,0,0,0-3.85-.28,1.79,1.79,0,0,1-.94-.32l-.26-.21-.28.2a1.59,1.59,0,0,1-.77.32c-3.55.11-6.81,1.9-10,3.61l-.36.19c-.54.31-1.11.62-1.65.91l-1.45.73c-5,2.57-10.57,5.5-16.24,8-4.18,1.88-8.54,3.47-12.39,4.9l-.53.19c-2,.77-4.16,1.55-6.23,2.37-5.36,2.12-10.57,4.73-15.62,7.27l-.13.06c-1,.52-2,1-3,1.53-5.75,2.88-11.83,5.78-18.56,8.84a141,141,0,0,0-18.16,10.12c-2.05,1.33-4.14,2.59-6.17,3.82l-.06,0c-3.69,2.24-7.49,4.56-11,7.2a24.09,24.09,0,0,1-2.4,1.48l-.09,0c-.77.43-1.47.83-2.11,1.26s-1.51,1-2.26,1.58l-1.18.81a61.76,61.76,0,0,1-7.56,4.35l-1.29.64a51.31,51.31,0,0,0-7.51,4.26,12.46,12.46,0,0,1-6.8,2.81H182a1.69,1.69,0,0,1-1.27-.53l-.17-.14h-.28a13.16,13.16,0,0,1-4.39-1.3c-.63-.28-1.38-.58-2.13-.84l-1.52-.5c-1.86-.61-4-1.29-6-2.13a74.27,74.27,0,0,0-15.56-4.56c-1.62-.29-3.28-.51-4.72-.69-1.18-.16-2.4-.32-3.61-.5a57.73,57.73,0,0,1-6-1.42l-1.51-.39a70.31,70.31,0,0,0-15.84-2.49c-4.63-.12-9.31-.39-13.85-.64l-.22,0c-6.48-.37-13.16-.74-19.85-.74a68.21,68.21,0,0,0-8.24.67,66.88,66.88,0,0,1-7.62.67l-1,0c-.24,0-.47,0-.69,0H67c-.81,0-1.62,0-2.44,0-1,0-1.87,0-2.62-.08a6.29,6.29,0,0,1-2.13-.7,6.11,6.11,0,0,0-1.93-.66,1.71,1.71,0,0,1-1.35-1l-.08-.17-.16-.08-.08,0v0a4.44,4.44,0,0,1-.83-.73v0a3.16,3.16,0,0,1-.52-1.11,7.45,7.45,0,0,1,.09-2.78,31.55,31.55,0,0,0,.18-6.16c0-.74-.08-1.73-.08-2.68,0-2.09.17-4.21.34-6.26l0-.23c.11-1.5.23-3.06.28-4.61a32.77,32.77,0,0,1,1.46-7.53l0-.16c.19-.71.39-1.44.56-2.14a1.8,1.8,0,0,1,1.09-1.26l.15-.06.19-.35c.36-.65.74-1.34,1.06-2l.41-.9-.94.28A14.33,14.33,0,0,0,58,101.12Z"/><path class="cls-1" d="M31.26,204.21l.38-1.87A39.7,39.7,0,0,1,36,190.12a23.92,23.92,0,0,1,1.75-2.47l.09-.12c.3-.38.58-.75.85-1.12l.89-1.28-1.45.61-.09,0-.11.08a45.3,45.3,0,0,1-3.78,3,1.6,1.6,0,0,1-1,.34.78.78,0,0,1-.21,0l-.24,0-.21.2c-.68.7-1.38,1.4-2,2.13a23,23,0,0,0-3.58,6.19c-1.65,4-2.36,8.59-2.22,14.56v.33c.07,3.11.2,8.89,3.61,10.15a10.53,10.53,0,0,0,1.55.48l.68.19-.14-.71a24.51,24.51,0,0,1-.33-5v-.36c0-.47,0-.93,0-1.4a41.29,41.29,0,0,1,.3-6.65C30.59,207.51,30.94,205.75,31.26,204.21Z"/><path class="cls-3" d="M344.7,56.17a104.56,104.56,0,0,0-10.53-.82h-.52l.08.52c0,.32.1.68.15,1l0,.18c.13.8.28,1.72.34,2.58a25.65,25.65,0,0,0,1.21,6.21c1,3.14.92,6.8.84,10.33v.29l0,.76.58-.17a1.7,1.7,0,0,1,.61-.09,19,19,0,0,1,9.62,2.37,1.34,1.34,0,0,1,.69,1.22,2.21,2.21,0,0,1-1.08,1.74c-5.54,3-11.13,6.2-16.06,9l-.23.12c-5,2.87-10.17,5.84-15.33,8.65-8.44,4.58-17.22,8.84-25.7,13l-2.29,1.12L283.44,116c-4.67,2.28-9.55,4.62-13.79,6.64-8.34,4-17,8.13-25.33,12.45-5.58,2.91-11.52,6.05-19.24,10.17-2.7,1.44-5.42,3-8,4.47l-.68.4c-3.11,1.76-6.41,3.62-9.67,5.34a97.28,97.28,0,0,1-19.38,8,34.35,34.35,0,0,1-9.39,1.42,26,26,0,0,1-9.33-1.71c-2.21-.83-4.42-1.86-6.57-2.87a52,52,0,0,0-11.66-4.38c-6-1.21-12.17-1.93-18.14-2.64l-.27,0c-.82-.1-1.62-.18-2.44-.29-5.49-.62-11.22-1.56-15.83-2.31-7.35-1.17-15-2.4-22.59-3h-.24l-.14.19a1.84,1.84,0,0,1-.48.43c-2.78,1.72-5.63,3.44-8.39,5.12l-.49.31c-2.72,1.63-4.78,2.87-6.66,4A75.42,75.42,0,0,0,67.25,163c-1.21,1-2.49,1.77-3.74,2.59s-2.34,1.51-3.43,2.37c-2.63,2-5.14,4.2-7.57,6.33l-.27.25c-1.38,1.22-2.81,2.47-4.25,3.68l-1.32,1.12,1.69-.35c2.1-.41,4.4-.76,7-1.08l1.36-.16a106,106,0,0,1,12.52-1h.19c1.4,0,2.83,0,4.22.07h.41c1.53,0,3.28.09,5,.09,2,0,3.69-.06,5.24-.2,4.8-.4,9.48-.49,15-.49H127.5c3.48,0,7.09,0,10.28,0,2.86,0,6.6-.05,10.29-.05,6.55,0,15.17.08,23.69.7,1.23.08,2.48.18,3.7.28l1.58.11c4.83.38,10.3.81,15.71.93,4.56.11,9.15.12,12.65.12h8.11c1.6,0,3.22-.08,4.79-.15l.6,0c1.49-.09,3-.14,4.53-.14h1a31.68,31.68,0,0,1,4.46.48h.08a34.6,34.6,0,0,0,4.6.48h.32c.63,0,1.3,0,2-.07l.52,0c.91-.06,2-.12,3-.12a10.87,10.87,0,0,1,5.15,1l.21.12.2-.1c1.07-.53,2.17-1,3.21-1.43a19.33,19.33,0,0,0,5.69-3.89A17.05,17.05,0,0,1,258,172l.07-.05a23.09,23.09,0,0,0,2.62-1.42c2.37-1.5,4.82-3,7.3-4.43,2-1.13,4-2.35,6.38-3.72l.12-.07c6.52-3.83,13.26-7.76,20-11.32,1.47-.79,2.94-1.7,4.22-2.5s2.65-1.67,4.11-2.43a28.65,28.65,0,0,0,4-2.74l.26-.2c.88-.7,1.81-1.43,2.8-2.07a79.55,79.55,0,0,0,10.72-9l.2-.2c1.2-1.13,2.43-2.31,3.68-3.43,2.6-2.35,5.38-4.55,8-6.62,1-.81,2.08-1.56,3.1-2.28,1.4-1,3-2.13,4.39-3.37,3.84-3.36,8-6.45,12.05-9.44l.16-.12c1.55-1.16,3.14-2.33,4.69-3.51a144.4,144.4,0,0,1,16.32-11.21,48.35,48.35,0,0,0,6.54-4.64l.3-.25c.36-.29.72-.6,1.09-.88,1.85-1.44,3.86-2.69,5.8-3.91l.42-.27c.63-.36,1.27-.76,1.9-1.17,3.23-2.09,6.43-4.28,9.44-6.36,2.59-1.77,5.27-3.59,7.93-5.34l.09,0,.05-.09a1.25,1.25,0,0,1,.94-.61l.09,0,.08,0c.6-.39,1.2-.78,1.8-1.15l.14-.1c2.28-1.46,4.86-3.07,7.27-4.87L418.45,61l-1.72.25a1.09,1.09,0,0,0-.26,0h-.15c-.61.06-1.18.11-1.54.11-1.9,0-3.79-.17-5.72-.33s-3.91-.31-5.76-.32A112.58,112.58,0,0,1,387.25,59c-2.78-.44-5.29-.84-7.8-1.16a189.07,189.07,0,0,0-22.89-1.15A93.31,93.31,0,0,1,344.7,56.17Z"/><path class="cls-2" d="M237.25,211v0a30.06,30.06,0,0,0-.33,3c-.07,2.43,0,5,0,7,0,.61,0,1.22,0,1.82v.5l.49-.05a3.93,3.93,0,0,0,1.75-1.08,4.62,4.62,0,0,1,.81-.61,15,15,0,0,0,4.18-2.79,66.18,66.18,0,0,1,6.59-5c.69-.48,1.39-1,2.09-1.46,1.06-.76,2.11-1.51,3.18-2.26l.88-.64c5.23-3.77,10.65-7.68,16.4-11,3.23-1.88,6.55-3.78,9.75-5.62l.56-.3c8.69-5,17.67-10.1,26.23-15.7l3.17-2.1c4.36-2.87,9.29-6.14,14.25-9,3.6-2.1,7.06-4.38,10.88-6.91,1.89-1.26,4.09-2.71,6.22-4.05,1.4-.9,2.87-1.68,4.3-2.44l.19-.12c1.27-.65,2.86-1.49,4.3-2.39l8.11-5.07a97.91,97.91,0,0,0,16.4-12.34,95.93,95.93,0,0,1,9.32-7.74l.33-.26c1.87-1.44,3.82-2.92,5.67-4.47,1-.87,2-1.81,2.9-2.72l1-1a18.36,18.36,0,0,1,1.39-1.23l.14-.14a16.88,16.88,0,0,0,1.75-1.63l.24-.25a16.35,16.35,0,0,1,4.68-4l.23-.11v-.25c.05-.59.1-1.18.15-1.75v-.14l-.06-.12a1.91,1.91,0,0,1,.21-2l.08-.09.07-.71c.07-.65.14-1.32.21-2A45.54,45.54,0,0,0,406,95v-.14c-.08-1.39-.14-2.83-.12-4.26,0-1.76.18-3.54.33-5.31s.31-3.49.33-5.32,0-3.74,0-5.93V73.2l-.68.47c-1.69,1.13-3.36,2.27-5.05,3.42l-2.24,1.52c-1.85,1.27-3.8,2.45-5.7,3.64l-.06,0c-2.82,1.74-5.74,3.54-8.4,5.57-1,.76-2,1.57-2.88,2.34l-.24.18c-.83.7-1.68,1.42-2.55,2.08a30.54,30.54,0,0,1-3.92,2.38l-.5.28c-.4.21-.79.41-1.17.64a122.9,122.9,0,0,0-13.72,9.61l-.06,0-3.16,2.42c-2.28,1.76-5.69,4.35-9.06,6.82-1.57,1.13-3,2.4-4.52,3.71l-.23.18c-.92.8-1.87,1.63-2.84,2.4a22.15,22.15,0,0,1-2.21,1.55l-.06,0a21.2,21.2,0,0,0-2.1,1.44c-.64.51-1.28,1-1.89,1.56l-.48.37L331.44,127c-2.93,2.33-5.21,4.3-7.18,6.21l-1.61,1.58c-1.83,1.8-3.72,3.65-5.74,5.31-1.39,1.15-2.89,2.19-4.23,3.11l-.09.07c-1,.7-2.07,1.43-3.07,2.19a77.55,77.55,0,0,1-15,9.24,91.37,91.37,0,0,0-10.41,5.85l-.2.14c-2,1.25-4.12,2.56-6.2,3.73l-.25.13c-3.16,1.76-6.42,3.57-9.58,5.47-1.08.64-2.16,1.35-3.11,2l-.07,0a58.45,58.45,0,0,1-5.2,3.15,29.51,29.51,0,0,0-4.73,2.92c-.31.24-.66.53-1.08.88a13.11,13.11,0,0,1-2.08,1.53,30.4,30.4,0,0,1-2.79,1.3l-.13,0c-.95.41-1.89.8-2.78,1.27l-.09.06a1.89,1.89,0,0,1-.78.45l-.27.17-.43.26a1.49,1.49,0,0,1-1,.33,1.77,1.77,0,0,1-1.1-.4l-.15-.14-.19,0a8.51,8.51,0,0,0-2.22.55,7.78,7.78,0,0,1-1.31.33h-.07l-.22,0-.53.09v19.51c0,.43,0,.87,0,1.3a29.15,29.15,0,0,1-.09,3.47C237.43,209.9,237.33,210.54,237.25,211Z"/><path class="cls-3" d="M252.37,227.7c10-2.3,18.41-8.8,26.57-15.1l.38-.29c1.71-1.3,3.46-2.65,5.17-3.9,6.35-4.67,13-9.37,18.93-13.52s11.3-7.95,16.63-11.82c4.74-3.44,9.5-7.09,13.69-10.3l.38-.29c6.8-5.19,13.84-10.55,21-15.43,24.2-16.37,44.58-32.2,62.34-48.39l.93-.84-1.26.08-.37,0-.36,0c-.5,0-1,.11-1.38.11h-.27c-1.18-.08-2.4-.21-3.57-.32l-.88-.09c-.35,0-.7-.07-1.06-.13l-.45,0,0,.46c-.11,1.58-.18,3.12-.18,4.69a1.33,1.33,0,0,1-1.43,1.44,2.06,2.06,0,0,1-1.59-.74l-.3-.37-.34.32c-.56.5-1.05,1-1.54,1.58-.28.31-.56.62-.86.93-.66.7-1.37,1.32-2.17,2-.61.53-1.32,1.16-2,1.8a88.94,88.94,0,0,1-10.16,8.44c-2.38,1.77-4.59,3.75-6.74,5.66l-.73.65c-.88.8-1.81,1.62-2.73,2.41a139.33,139.33,0,0,1-11.33,8.6,120.61,120.61,0,0,1-16.62,10.17,56.79,56.79,0,0,0-9.07,5.56c-1.22.88-2.51,1.72-3.76,2.51l-.51.34c-1.28.81-2.6,1.65-3.84,2.57a57,57,0,0,1-5.43,3.26l-.19.09c-1.17.65-2.38,1.3-3.5,2l-.27.16c-2.72,1.69-5.53,3.44-8.19,5.29-5,3.5-10.4,6.64-15.57,9.68-.49.28-1,.57-1.45.84l-.49.29c-2.82,1.65-5.72,3.31-8.53,4.91l-.71.41c-9.2,5.25-18.71,10.68-27.34,17.08-1.38,1-2.83,2-4.23,3l-1,.73a110.5,110.5,0,0,0-9.79,7.35,42.92,42.92,0,0,1-6.21,4.21,6.24,6.24,0,0,1-2.28.86l-.13,0-.09.07c-.09,0-.18.12-.28.17l-.57.28-1.12-.56c-6-3-12.69-3.58-17.83-3.68-1.27,0-2.53,0-3.6,0-1.94,0-4,0-5.92-.12-.84-.06-1.71-.13-2.56-.21l-1-.06c-1.77-.15-3.6-.29-5.39-.3-1.51,0-3,0-4.53.07l-1,0c-1.16,0-2.37.06-3.55.06h-.81A40.7,40.7,0,0,1,184,222c-1.46-.2-2.79-.4-4.16-.45-1.55-.12-3.25-.18-5.2-.18-2.46,0-5,.09-7.21.18s-4.73.14-7.2.14-4.76,0-7.11,0h-1.23c-2.31,0-5.36,0-8.36,0a209.58,209.58,0,0,0-24.06,1.1l-5.17.64-.33,0c-4.72.59-9.6,1.19-14.47,1.4-6.61.29-13.37.29-19.32.29a1.75,1.75,0,0,1-.62-.12l-.34-.14-.2.31c-.23.36-.49.77-.77,1.17l-.35.51.59.18a51,51,0,0,0,13.83,1.53c1.09,0,2.19,0,3.27,0l.79,0,2.93,0h.54c4.84,0,9.77.44,14.55.87l.41,0c2.76.25,5.62.5,8.41.66,5.94.37,12.3.55,18.88.55,7.9,0,16-.25,24.81-.77,9.36-.56,18.91-1.07,28.16-1.54l4-.2c4-.21,8-.43,12-.63,1.38-.08,2.78-.16,4.12-.26l.41,0c3-.2,6.15-.41,9.22-.41a52.44,52.44,0,0,1,7.37.48l1.07.15c.57.08,1.14.15,1.71.25l2.93.41-.08,0a60.23,60.23,0,0,0,7.44.51A32.45,32.45,0,0,0,252.37,227.7Z"/><path d="M114.44,69.19c-2.89,1-5.8,2.09-8.6,3.14s-5.9,2.25-8.89,3.26a163.27,163.27,0,0,0-17.71,6.89A82.68,82.68,0,0,0,56.54,98.4C51,101.18,47,107.15,44.69,116.21c-4.33,17,.34,24.76,5,28.25,4.07,3,9.54,3.24,14.39,3.43l2.52.11c3.87.23,7.8.24,11.61.27,2,0,4.07,0,6.13.06l-1.45.83c-3,1.77-6.18,3.58-9.13,5.6l-1.41,1c-2,1.35-4.06,2.74-6,4.27-1.47,1.13-3,2.17-4.51,3.17-.89.6-1.83,1.22-2.74,1.87A104.6,104.6,0,0,0,50,172.54c-1.39,1.25-2.84,2.53-4.27,3.76a49.94,49.94,0,0,1-4.08,3c-1,.68-2,1.4-3,2.14-.66.51-1.3,1-1.91,1.56-.23.05-.49.12-.72.19a4.56,4.56,0,0,0-2,.79,2,2,0,0,0-1.19.72c-.84,1-1.77,2-2.67,2.89s-2,2-2.85,3.08a27.81,27.81,0,0,0-3.82,7.51c-2,5.12-2.06,10.79-1.86,16.16.19,5.79,1.78,9.71,4.85,11.94,2.14,1.58,5.46,1.68,7.89,1.76,1,0,2.14,0,3.48,0h1.78c-.75,1-1.41,1.85-2,2.71a35,35,0,0,1-6.94,7.71,54.17,54.17,0,0,1-9.16,6.36,21.2,21.2,0,0,1-10.35,2.56H8.8c-1,0-1.75,0-2.47,0a10.2,10.2,0,0,1-2-.33,14.29,14.29,0,0,0-2-.33H2.17a2.1,2.1,0,0,0-2.11,1.55,2.33,2.33,0,0,0,1.2,2.59,20.22,20.22,0,0,1,4.2,3.39c.5.47,1,1,1.54,1.43a25.41,25.41,0,0,0,3.78,2.64c.86.54,1.76,1.09,2.59,1.69a30.74,30.74,0,0,1,2.81,2.45c2.4,2.23,4.88,4.52,8.23,4.52a7.54,7.54,0,0,0,1.05-.08A17,17,0,0,0,31,264.63c.58-.34,1.14-.64,1.68-.93,3-1.53,5.66-2.91,8.11-4.25,1.29-.71,2.65-1.33,4-1.93s2.38-1.09,3.55-1.71a68.36,68.36,0,0,0,6.65-4.11c8.47-5.78,15.3-13.54,21.58-21,5.61,1.93,11.37,2.18,16.77,2.18H96.6c6.08,0,12.22.45,18.15.9l1.88.14c9.47.7,18.77,1.06,27.64,1.06,5.17,0,10.34-.12,15.35-.36,8.84-.43,17.82-.93,26.5-1.41,5.68-.32,11.54-.65,17.32-1l1,0,9.78-.52c1.45-.07,2.94-.2,4.36-.33,2.25-.21,4.57-.4,6.85-.4h.37a90.55,90.55,0,0,1,10.45.93,84.65,84.65,0,0,0,10.49,1h.36c12.46,0,23.35-8,31.32-13.91,13.33-9.83,24.4-17.84,34.85-25.19s20.7-15,30.69-22.42l4.53-3.36c5.68-4.25,11.6-8.4,17.3-12.4s11.42-8,17-12.18a483.16,483.16,0,0,0,41.1-34,2.37,2.37,0,0,0,.8-1.82,2.1,2.1,0,0,0-.82-1.57,6.76,6.76,0,0,0-4.39-1.29c-.69,0-1.37,0-2.08.09-.4,0-.81,0-1.25,0-1.42,0-2.87-.17-4.29-.31l-1.41-.17q.07-.67.18-1.32a39.06,39.06,0,0,0,0-7.87c-.06-1-.12-2.07-.16-3.09a53.61,53.61,0,0,1,.34-6.47c.13-1.49.27-3,.32-4.55.08-2.36,0-4.76,0-7.08,0-.73,0-1.45,0-2.19l.86-.57c.54-.38,1.08-.75,1.64-1.11l2-1.29a60.12,60.12,0,0,0,8.24-6.07,2.22,2.22,0,0,0,.38-3c-1.09-1.49-2.95-1.68-4.61-1.68l-1,0h-2.18c-2.49,0-5-.11-7.78-.34-1.67-.15-3.39-.22-5-.31-2.52-.12-5.12-.25-7.67-.6-1.72-.23-3.48-.52-5.17-.79-2.51-.41-5.12-.84-7.7-1.12a212.2,212.2,0,0,0-23.59-1.43h-4.34a63.09,63.09,0,0,1-8.45-.44c-3.28-.43-6.1-.69-8.7-.84,1.69-.74,3.29-1.41,4.9-2A2.16,2.16,0,0,0,344.24,48a2,2,0,0,0-1.36-1.93c-1.71-.56-3.16-1-4.55-1.42a78.38,78.38,0,0,0,8.52-12.55c1.74-3,3.54-6,5.59-8.89a86.69,86.69,0,0,0,7.15-11.35A14.82,14.82,0,0,1,362,8.69c1.46-1.64,3-3.36,3.22-5.61A2.2,2.2,0,0,0,363.85.81,6.89,6.89,0,0,0,361.32.4c-.71,0-1.42.07-2.11.13a17.85,17.85,0,0,1-2.07.15H338.49a45.94,45.94,0,0,1-4.87-.33c-1.35-.15-2.73-.3-4.13-.35h-.08a2.38,2.38,0,0,0-1.84.83,1.94,1.94,0,0,0-.45,1.63c1.3,7.89-1.77,15.46-4.58,21.17a35.26,35.26,0,0,0-1.73,4.54A30.52,30.52,0,0,1,319,32.88a15.09,15.09,0,0,1-.94,1.63,15.51,15.51,0,0,0-1.39,2.66,6,6,0,0,1-3.11,3.53,1.75,1.75,0,0,0-.48.3c-.87-.15-1.72-.28-2.59-.41-2.06-.31-4.19-.62-6.29-1-1.58-.28-3.2-.62-4.75-1-1.77-.38-3.6-.77-5.43-1.06-3.19-.5-6.69-1.13-11-2-5.91-1.19-11.87-2.62-17.65-4-1.12-.27-2.24-.53-3.35-.81-6.5-1.52-13.87-3.27-21.19-4.56a35.39,35.39,0,0,0-5.8-.46,48.66,48.66,0,0,0-13.33,2c-6,1.67-11.8,3.95-17.43,6.15l-2.36.92c-6,2.32-12.05,4.5-18,6.63l-2,.73c-1,.36-2,.75-3,1.15a45.11,45.11,0,0,1-6.28,2.13,69.87,69.87,0,0,0-8,2.37,160.54,160.54,0,0,0-15.44,6.64l-1.15.53c-2.25,1-4.47,2.21-6.62,3.33-3.07,1.61-6.23,3.27-9.5,4.62-4.29,1.78-8.78,3.29-13.12,4.73Zm-52.2,38.52a15.5,15.5,0,0,1,1.37-2.77,18.94,18.94,0,0,0,1.33-2.62.25.25,0,0,0,0-.07c1,.25,2.07.47,3.08.7l2.36.51a43.25,43.25,0,0,1,5.7,1.89c1.26.48,2.57,1,3.9,1.39a110.22,110.22,0,0,0,20.44,3.84c7.25.86,14.29,1.87,21.51,3.07,3,.5,6.15,1.07,9.49,1.74a85.7,85.7,0,0,0,10.36,1.15H142a46.05,46.05,0,0,1,9.85,1.39l2.64.79c2.29.7,4.65,1.4,7,2,2.71.62,5.51,1.12,8.21,1.59,2.41.43,4.89.85,7.31,1.39a2.26,2.26,0,0,0,.66,1.57c1.35,3.61,1.36,7.55,1.37,11.37,0,.64,0,1.29,0,1.92,0,1.58.08,3.18.13,4.73.1,3.17.21,6.47,0,9.71-.65-.22-1.3-.52-1.93-.79s-1.44-.62-2.17-.86l-.25-.09c-2.38-.78-4.85-1.62-7.21-2.6a87.48,87.48,0,0,0-14.93-4.35c-2-.43-4.15-.68-6.19-.94-.73-.08-1.48-.19-2.2-.29a51.39,51.39,0,0,1-6.86-1.54l-1.36-.36a73.72,73.72,0,0,0-16-2.5c-1.08,0-2.17-.06-3.23-.06-1.39,0-2.83,0-4.24-.1-1-.07-2-.14-3-.24-1.79-.16-3.64-.33-5.49-.35-1.54,0-3.1-.18-4.61-.33-1.25-.13-2.55-.25-3.83-.32-.94,0-1.93,0-3.13,0l-2.79,0-2.76,0-1.44,0H84.23a46.18,46.18,0,0,0-4.85.2c-1.21.14-2.43.32-3.61.51s-2.61.41-3.91.55c-1,.1-2.21.15-3.65.15-.73,0-1.47,0-2.19,0l-2.17,0a6,6,0,0,1-2.45-.66c-.36-.15-.72-.3-1.11-.43a4.65,4.65,0,0,0-.89-.74,6.14,6.14,0,0,1,.16-1.16c0-.27.09-.52.12-.7a50.48,50.48,0,0,0,0-5.9c0-1,0-2,0-2.92,0-2.11.17-4.26.34-6.33.11-1.33.22-2.71.3-4.07,0-.32,0-.65.07-1a1.83,1.83,0,0,0,.64-1.42A18.15,18.15,0,0,1,62.24,107.71ZM78.68,144c-2.65,0-5.41,0-8.11-.1-1.63-.05-3.3-.17-4.9-.28s-3.39-.25-5.1-.29A15.34,15.34,0,0,1,52.31,141c-4.38-2.87-5.11-9.2-5-14,.13-3.86.94-13.49,5.8-20l.41,0a2.06,2.06,0,0,0,1.63-.78c1.16-1.37,2.4-2.73,3.8-4.14a14.93,14.93,0,0,1,1.62-.6c-.32.72-.7,1.41-1.07,2.07l-.09.17a2.26,2.26,0,0,0-1.35,1.56c-.18.75-.4,1.53-.6,2.29A32.79,32.79,0,0,0,56,115.19c-.05,1.62-.19,3.25-.3,4.83-.17,2.06-.34,4.19-.34,6.3,0,.87,0,1.78.07,2.67a30.77,30.77,0,0,1-.16,6.09,7.63,7.63,0,0,0-.1,2.94,4,4,0,0,0,.58,1.25l0,0s0,.05,0,.06a5.09,5.09,0,0,0,.89.79l0,0,.15.07a2.15,2.15,0,0,0,1.72,1.28,5.59,5.59,0,0,1,1.79.61,6.31,6.31,0,0,0,2.28.74c.79.06,1.67.09,2.66.09s1.93,0,2.87-.06l1.72,0a71.61,71.61,0,0,0,7.68-.68,64.61,64.61,0,0,1,8.17-.67c6.63,0,13.34.38,19.84.74,4.61.27,9.37.53,14.08.66a69.75,69.75,0,0,1,15.74,2.47c.5.13,1,.26,1.5.41a55.71,55.71,0,0,0,6.08,1.4c1.21.2,2.44.36,3.63.51,1.54.19,3.13.42,4.69.68a74.56,74.56,0,0,1,15.46,4.54c2,.81,4.05,1.5,6,2.15l1.52.5c.72.24,1.42.53,2.1.82a13.77,13.77,0,0,0,4.53,1.33h.16a2.17,2.17,0,0,0,1.59.67h.1a12.91,12.91,0,0,0,7-2.89,52.36,52.36,0,0,1,7.46-4.25c.43-.19.86-.41,1.28-.61a62.46,62.46,0,0,0,7.62-4.39l1.18-.82,2.26-1.56c.66-.45,1.38-.86,2.08-1.24a22.74,22.74,0,0,0,2.54-1.56c3.53-2.64,7.35-5,11-7.21,2-1.22,4.15-2.5,6.18-3.8a138.9,138.9,0,0,1,18.1-10.1c6.75-3.09,12.83-6,18.58-8.86l3-1.51c5.08-2.57,10.33-5.21,15.72-7.33,2.23-.88,4.53-1.73,6.74-2.56,4.11-1.51,8.35-3.09,12.42-4.9,5.52-2.48,11-5.31,16.27-8.06l1.43-.75c.67-.34,1.36-.72,2-1.09,3.1-1.7,6.32-3.44,9.76-3.57a1.91,1.91,0,0,0,1-.39,1.94,1.94,0,0,0,1.2.39,24.42,24.42,0,0,1,3.79.3c-4.08,2.27-8.18,4.6-12.15,6.88-6.9,4-14,8-21.18,11.75-11.47,6-23.84,12-38.93,19-13.53,6.29-26.68,13.15-38.86,19.63-6.67,3.53-12.8,6.9-18.74,10.28a137.58,137.58,0,0,1-18.52,9.1c-5.65,2.2-10.25,3.23-14.46,3.23a22.27,22.27,0,0,1-6.55-1,78.73,78.73,0,0,1-8.8-3.59,72.77,72.77,0,0,0-9-3.7c-5.32-1.66-11.08-2.27-16.65-2.85l-3.64-.4c-6.48-.74-13-1.84-19.28-2.88l-1.79-.29c-7.56-1.27-14.54-2.1-21.29-2.56C87.4,144,83,144,78.68,144Zm104.83-1.66c0-1.17-.08-2.32-.11-3.49,0-.87,0-1.77,0-2.63,0-3.74-.08-7.58-1.17-11.22l.16.05a26.56,26.56,0,0,0,7.77,1.39l.77,0c3.11-.14,6.26-2,8.55-3.34,2.45-1.44,4.81-3.09,7.09-4.69l.64-.44a62.2,62.2,0,0,1,8.88-5c2.48-1.22,4.92-2.55,7.3-3.84s5.08-2.78,7.68-4,5.07-2.41,7.55-3.54c2.95-1.36,6-2.76,8.95-4.19,2.67-1.31,5.31-2.71,7.86-4.07,2.73-1.48,5.55-3,8.39-4.35,2.1-1,4.28-1.91,6.41-2.82a99.21,99.21,0,0,0,9.91-4.65,87.15,87.15,0,0,1,10-4.6c1.62-.68,3.29-1.37,4.93-2.09,5.19-2.32,10.45-5,16.09-8.05,2.73-1.51,5.49-3.09,8.16-4.63,3.68-2.11,7.46-4.29,11.27-6.28.08.72.21,1.42.35,2.14.08.47.17,1,.25,1.42.11.75.18,1.49.24,2.22a27.42,27.42,0,0,0,.56,3.78,52.76,52.76,0,0,1,1.24,11.88c-3.4.59-6.59,2.3-9.66,4-1.39.75-2.69,1.46-4,2.06-2.67,1.24-5.31,2.61-7.88,3.92-3.31,1.71-6.73,3.48-10.24,5-3.27,1.39-6.66,2.63-9.93,3.83-3,1.11-6.13,2.27-9.15,3.52-4.74,1.94-9.36,4.32-13.85,6.64-1.65.84-3.36,1.7-5,2.57-3.89,1.93-7.9,3.79-11.79,5.59-2.17,1-4.42,2-6.61,3.06a154.17,154.17,0,0,0-17.44,10.13c-2.83,1.82-5.76,3.58-8.69,5.23a50.91,50.91,0,0,0-4.55,3c-1.28.92-2.6,1.85-4,2.64-2.08,1.24-4.09,2.63-6,4-.44.31-.87.62-1.31.91a56,56,0,0,1-7,3.91l-1.78.88c-2.12,1.06-4,2.12-5.69,3.19l-1.18.77a11.4,11.4,0,0,1-3.86,2A116.27,116.27,0,0,0,183.51,142.3ZM32,202.8c-.12.63-.25,1.25-.37,1.87-.34,1.65-.69,3.36-1,5.07a44.6,44.6,0,0,0-.3,6.73c0,.45,0,.92,0,1.38v.36a25.11,25.11,0,0,0,.35,5.07,14.89,14.89,0,0,1-1.5-.46c-3.14-1.16-3.26-6.75-3.33-9.76v-.33c-.14-5.91.56-10.48,2.19-14.39a22.28,22.28,0,0,1,3.51-6.06c.65-.73,1.36-1.44,2.05-2.13l.31,0a2.13,2.13,0,0,0,1.23-.41c1.34-.93,2.59-2,3.8-3l.12,0c-.3.41-.62.81-.94,1.22a23.32,23.32,0,0,0-1.78,2.53A40.13,40.13,0,0,0,32,202.8Zm5,21.12c-.53,0-1,0-1.49,0-1.3-1.38-1.08-5-.94-7.45,0-.65.08-1.19.08-1.61a52.56,52.56,0,0,1,1.41-10.51l.19-.94a39.94,39.94,0,0,1,3.51-10.2A18.58,18.58,0,0,1,43,188.71a10,10,0,0,0,1.15-1.61,5.38,5.38,0,0,1,1.81-2,1.94,1.94,0,0,0,.85-1,63.5,63.5,0,0,1,6.74-1.31,132.29,132.29,0,0,1,19-1.47c.81,0,1.62,0,2.43,0l2,0c3.17,0,6.38-.17,9.49-.3s6.3-.32,9.47-.32H118c4.57,0,9.23,0,13.73-.05s9.15-.07,13.73-.07c6.56,0,12,.07,17.07.21s10,.55,14.91.95c2.17.18,4.41.35,6.63.5,6.94.49,14,.49,20.84.49h10.64c1.36,0,2.76-.06,4.11-.15s2.77-.17,4.13-.17a23.83,23.83,0,0,1,3.09.18c2.31.3,4.76.6,7.29.74a4.17,4.17,0,0,0-.63.71,2.06,2.06,0,0,0-.3,1.87,2.45,2.45,0,0,0,1.24,1.39V204.6a76.05,76.05,0,0,1-.61,9,54.68,54.68,0,0,0-.13,7.47l0,1a46,46,0,0,0-12.5-2.2c-2.33-.14-4.71-.15-7-.15h-2.53c-2,0-4.05-.19-6-.35l-3.71-.26c-.9,0-1.88-.07-3-.07-1.33,0-2.68,0-4,.07s-2.63.08-4,.08a36.74,36.74,0,0,1-7.49-.63,37.38,37.38,0,0,0-7.55-.64c-2.21,0-4.47.12-6.65.23s-4.32.22-6.43.22c-2.81,0-5.66,0-8.42,0s-5.64,0-8.44,0c-6.75,0-14.74.09-22.85.75-3.2.27-6.43.67-9.55,1.08-3.72.49-7.58,1-11.4,1.22-6.5.39-13,.4-19.35.4a52.28,52.28,0,0,1,5.47-5.55,57.68,57.68,0,0,1,13.18-9.23,2.19,2.19,0,0,0,1.25-2.26,2.24,2.24,0,0,0-1.82-1.87,16.47,16.47,0,0,0-3.47-.32c-1.21,0-2.43.08-3.61.17l-1,.08c-1.26.07-2.54.1-3.78.12a50.09,50.09,0,0,0-6,.34c-1.9.26-3.82.56-5.68.87-1.28.23-2.61.44-3.93.64a2.17,2.17,0,0,0-1.91-1.23,2.59,2.59,0,0,0-.78.12c-.22.12-.46.19-.66.29A2,2,0,0,0,69,203.4a2,2,0,0,0-1.29.5,13.55,13.55,0,0,1-2.39,1.61,1.91,1.91,0,0,0-1.39.71,16.52,16.52,0,0,0-3.19,2,35.68,35.68,0,0,1-4.25,2.93,41.39,41.39,0,0,0-4.57,3.21,66.74,66.74,0,0,0-7,7.4l-.57.67c-.38.46-.75.9-1.14,1.34l-2.48.06C39.53,223.87,38.27,223.92,37,223.92Zm19.07,21.63a59,59,0,0,1-13.51,8.21c-3.32,1.39-6.61,3.19-9.78,4.9-1.87,1-3.78,2-5.67,3l-.17.08a6.5,6.5,0,0,1-2.88.93,2.34,2.34,0,0,1-.38,0,4.29,4.29,0,0,1-2.25-1.41c-.22-.19-.42-.38-.63-.55-.61-.51-1.22-1.05-1.81-1.56a44.27,44.27,0,0,0-4.21-3.39c-.64-.45-1.31-.88-1.94-1.28a28.43,28.43,0,0,1-3.78-2.7l0,0h1.75a24.73,24.73,0,0,0,10.45-1.92,47.79,47.79,0,0,0,9.61-5.86,41.16,41.16,0,0,0,8.27-7.64c.71-.93,1.42-1.9,2.1-2.82,1.3-1.78,2.66-3.61,4.07-5.38,2.82-3.49,5.42-6.45,8-9.07a45.28,45.28,0,0,1,9.35-6.78l.26-.14c.47-.28.89-.58,1.29-.87a9.81,9.81,0,0,1,2.33-1.35l.28-.12h0A112.32,112.32,0,0,0,83,207.6a45.65,45.65,0,0,1,7.55-.53h1.62a4.87,4.87,0,0,0,.54,0,40.27,40.27,0,0,0-4.9,3.82l-.54.48c-3.49,3.2-7.11,6.51-9.76,10.56A102.48,102.48,0,0,1,56.09,245.55Zm178-18.14-1.06-.16a53.47,53.47,0,0,0-7.44-.48c-3.13,0-6.32.21-9.41.42-1.42.08-2.9.18-4.36.25q-6,.34-12,.64c-10.55.55-21.48,1.1-32.21,1.74-8.85.54-16.95.79-24.78.79-6.46,0-12.81-.19-18.86-.56-2.85-.15-5.77-.43-8.58-.68-4.86-.42-9.88-.88-14.81-.88h-.54l-2.94,0c-1.33,0-2.7,0-4,0A49.74,49.74,0,0,1,79.41,227c.29-.4.54-.82.77-1.18A2,2,0,0,0,81,226c6,0,12.72,0,19.35-.3,5-.2,10-.83,14.83-1.43,1.7-.22,3.44-.45,5.17-.65a211.25,211.25,0,0,1,24-1.08c2.79,0,5.62,0,8.36,0s5.57,0,8.34,0c2.4,0,4.85-.06,7.21-.15s4.8-.15,7.21-.15c1.89,0,3.58,0,5.16.14,1.39.1,2.78.27,4.14.47a41.3,41.3,0,0,0,5.42.53H191c1.41,0,2.83,0,4.21-.09s2.8-.07,4.2-.07H200c2,0,4,.19,5.93.34,1,.07,2,.16,3,.22,2,.11,4,.11,5.95.12,1.18,0,2.39,0,3.58,0,5.13.12,11.73.66,17.65,3.64Zm4-5.72c0-2.31,0-4.68,0-7a23.59,23.59,0,0,1,.33-3c.09-.58.18-1.2.25-1.8a26,26,0,0,0,.08-3.53c0-.42,0-.86,0-1.29V185.9l.38-.07a8.93,8.93,0,0,0,1.49-.38,7.68,7.68,0,0,1,2.09-.53,2.2,2.2,0,0,0,1.39.52,2,2,0,0,0,1.24-.42l.58-.36a2.54,2.54,0,0,0,.94-.55c.89-.46,1.83-.87,2.74-1.25s2-.84,3-1.35a12.62,12.62,0,0,0,2.16-1.58c.34-.3.7-.59,1.06-.87a28.59,28.59,0,0,1,4.66-2.9,51.36,51.36,0,0,0,5.32-3.2c1-.65,2-1.34,3.08-2,3.15-1.89,6.41-3.71,9.57-5.46l.24-.11c2.15-1.21,4.29-2.56,6.35-3.84a90,90,0,0,1,10.44-5.88,78.44,78.44,0,0,0,15.09-9.3c1-.77,2.1-1.52,3.14-2.25,1.43-1,2.9-2,4.26-3.13,2-1.67,3.92-3.52,5.76-5.34.54-.51,1.07-1,1.62-1.57,2-2,4.29-3.9,7.14-6.19.6-.47,1.19-1,1.77-1.44s1.3-1.09,2-1.62a25,25,0,0,1,2.12-1.46,26.58,26.58,0,0,0,2.24-1.56c1.06-.84,2.09-1.74,3.09-2.6,1.44-1.27,2.93-2.56,4.48-3.69,3.12-2.28,6.28-4.68,9.08-6.82,1.05-.8,2.13-1.62,3.16-2.42a120.1,120.1,0,0,1,13.72-9.63l1.58-.87a27.73,27.73,0,0,0,4.06-2.48c1-.72,1.91-1.51,2.81-2.26s1.89-1.58,2.86-2.33c2.65-2,5.56-3.81,8.38-5.54,1.92-1.18,3.89-2.4,5.77-3.67q3.64-2.49,7.29-5c0,2.08,0,4,0,5.94,0,1.76-.18,3.55-.34,5.27s-.31,3.56-.32,5.35c0,1.49.05,3,.13,4.43a47.33,47.33,0,0,1,0,6.84c-.07.67-.14,1.35-.22,2l-.06.58a2.39,2.39,0,0,0-.25,2.46c-.05.59-.09,1.17-.14,1.75a16.75,16.75,0,0,0-4.8,4.14l-.25.24a17.09,17.09,0,0,1-1.86,1.74c-.46.4-.95.81-1.4,1.26l-.89.86c-1,1-2,2-3,2.83-2,1.64-4,3.21-6,4.73a100.92,100.92,0,0,0-9.37,7.76,95.79,95.79,0,0,1-16.31,12.3q-4.06,2.52-8.11,5.08c-1.39.85-2.86,1.63-4.28,2.37s-3.05,1.62-4.52,2.56c-2.09,1.32-4.19,2.71-6.22,4.06-3.52,2.33-7.15,4.72-10.86,6.89-4.89,2.82-9.66,6-14.28,9-1.05.7-2.11,1.4-3.16,2.08-8.5,5.58-17.51,10.73-26.21,15.69-3.39,1.92-6.9,3.92-10.32,5.94-5.76,3.35-11.2,7.26-16.45,11l-4,2.9-2.08,1.45a64.72,64.72,0,0,0-6.63,5,15,15,0,0,1-4.06,2.72,4.5,4.5,0,0,0-.92.67,4.21,4.21,0,0,1-1.52,1C238.12,222.9,238.12,222.3,238.11,221.69ZM411.94,108.74c1.17.13,2.38.25,3.59.32h.29c.49,0,1.05-.07,1.64-.13a4,4,0,0,1,.5,0c-17.72,16.15-38.1,32-62.29,48.35-7.32,4.95-14.48,10.44-21.41,15.72-4.46,3.43-9.09,6.94-13.69,10.28-5.49,4-11.14,8-16.62,11.83-6.23,4.39-12.68,8.93-18.93,13.52-1.85,1.35-3.73,2.81-5.56,4.21-8.13,6.26-16.54,12.74-26.4,15a30.84,30.84,0,0,1-7,.73,63.28,63.28,0,0,1-7.88-.57,2.64,2.64,0,0,0,.35-.23,7,7,0,0,0,2.46-.93,42.89,42.89,0,0,0,6.27-4.24,113.46,113.46,0,0,1,9.75-7.34c1.74-1.21,3.53-2.47,5.27-3.77,8.61-6.4,18.15-11.83,27.37-17.08,3-1.72,6.12-3.49,9.15-5.29.65-.37,1.29-.76,1.93-1.13,5.21-3,10.58-6.18,15.61-9.69,2.68-1.86,5.5-3.62,8.24-5.31l.2-.12c1.17-.74,2.44-1.42,3.66-2.1a45.17,45.17,0,0,0,5.48-3.29c1.31-.95,2.7-1.84,4.05-2.69s2.74-1.74,4.07-2.73a57.28,57.28,0,0,1,9-5.51,121.33,121.33,0,0,0,16.68-10.2,142.08,142.08,0,0,0,11.37-8.63c1.06-.92,2.1-1.85,3.12-2.77,2.25-2,4.57-4.08,7.06-5.93a91.23,91.23,0,0,0,10.2-8.49c.62-.61,1.29-1.2,1.94-1.78s1.51-1.31,2.2-2c.3-.31.59-.63.87-1a18.34,18.34,0,0,1,1.5-1.55,2.53,2.53,0,0,0,1.93.93,1.8,1.8,0,0,0,1.89-1.9c0-1.54.06-3.08.18-4.66C410.65,108.61,411.3,108.67,411.94,108.74ZM345.43,57.18a96.6,96.6,0,0,0,11.92.51,182.17,182.17,0,0,1,22.83,1.17c2.59.31,5.23.74,7.79,1.14a109.51,109.51,0,0,0,16.1,1.75c1.92,0,3.86.19,5.75.35s3.82.3,5.74.33h0a14.4,14.4,0,0,0,1.56-.13l.43,0c-2.32,1.72-4.81,3.32-7.24,4.84-.64.43-1.29.84-1.94,1.25a1.73,1.73,0,0,0-1.25.82c-2.68,1.74-5.36,3.59-8,5.36-3.07,2.13-6.24,4.3-9.42,6.34-.72.47-1.47.94-2.19,1.38a65.84,65.84,0,0,0-6,4l-1.39,1.13A48.6,48.6,0,0,1,373.76,92a143.21,143.21,0,0,0-16.38,11.24c-1.59,1.22-3.23,2.41-4.81,3.59-4.05,3-8.25,6.13-12.1,9.49a50.1,50.1,0,0,1-4.37,3.34c-1,.74-2.09,1.5-3.11,2.3-2.63,2.07-5.41,4.28-8,6.65-1.31,1.18-2.59,2.41-3.84,3.58a78.66,78.66,0,0,1-10.71,9c-1,.65-1.92,1.37-2.83,2.1a30.88,30.88,0,0,1-4.19,2.89c-1.43.76-2.82,1.63-4.15,2.45s-2.77,1.72-4.19,2.48c-6.81,3.6-13.59,7.57-20.15,11.4-2.09,1.24-4.25,2.49-6.38,3.73-2.42,1.4-4.89,2.9-7.32,4.46a28.61,28.61,0,0,1-2.6,1.39,18,18,0,0,0-4.27,2.64,18.85,18.85,0,0,1-5.57,3.81c-1,.42-2.13.9-3.22,1.44a11.2,11.2,0,0,0-5.37-1.09c-1,0-2.05.06-3,.12s-1.75.12-2.51.12h-.29a32.92,32.92,0,0,1-4.57-.48,40.77,40.77,0,0,0-4.59-.48h-1c-1.66,0-3.34.09-5,.16s-3.3.16-4.94.16h-4.06l-4.07,0c-3.75,0-8.19,0-12.62-.12-5.25-.12-10.56-.54-15.69-.94l-5.28-.41c-8.62-.6-17.21-.68-23.73-.68-3.43,0-6.92,0-10.3.06s-6.84,0-10.26,0H100.12c-5.61,0-10.31.09-15.07.49-1.56.14-3.21.2-5.2.2-1.65,0-3.33,0-5-.1s-3.1-.07-4.64-.07h-.19a109.6,109.6,0,0,0-12.74,1l-1.18.14c-2.59.31-4.92.66-7.07,1.09,1.51-1.27,3-2.59,4.46-3.86,2.44-2.16,5-4.39,7.61-6.4,1.09-.83,2.26-1.6,3.4-2.33s2.54-1.65,3.77-2.62a73.32,73.32,0,0,1,7.4-5.27c2.21-1.35,4.47-2.72,6.66-4,2.92-1.79,5.94-3.6,8.88-5.43a2.28,2.28,0,0,0,.6-.55c7.58.56,15.19,1.79,22.56,3,5.18.84,10.53,1.69,15.84,2.32.81.1,1.63.18,2.44.27,6.05.71,12.3,1.43,18.37,2.66,4,.81,7.85,2.61,11.57,4.34,2.14,1,4.37,2.07,6.6,2.9a26.8,26.8,0,0,0,9.48,1.75,34.77,34.77,0,0,0,9.51-1.45,99,99,0,0,0,19.47-8c3.26-1.73,6.51-3.58,9.67-5.38,2.85-1.61,5.78-3.29,8.72-4.85,7.76-4.13,13.69-7.27,19.23-10.16,8.37-4.33,17-8.46,25.35-12.45,4.52-2.16,9.19-4.4,13.76-6.63l5.67-2.78c8.58-4.17,17.45-8.51,26-13.14,5.26-2.83,10.51-5.85,15.59-8.78s10.64-6.1,16-9a2.58,2.58,0,0,0,1.31-2.1,1.81,1.81,0,0,0-.9-1.62,19.55,19.55,0,0,0-9.84-2.43h0a2.71,2.71,0,0,0-.71.1v-.44c.09-3.57.17-7.27-.85-10.48a25.36,25.36,0,0,1-1.2-6.09c-.07-.89-.2-1.77-.34-2.62L335,56.35A99.68,99.68,0,0,1,345.43,57.18ZM319,41.74A11.5,11.5,0,0,0,320.52,39a13,13,0,0,1,1.14-2.19c2.09-3,3.24-6.53,4.35-10,.11-.32.22-.63.32-1a27.51,27.51,0,0,1,1.39-3.26c.36-.76.72-1.52,1-2.29a49.33,49.33,0,0,0,1.95-6,32.36,32.36,0,0,0,1-9.8l.77.11a33.84,33.84,0,0,0,4.08.34h20.22c.63,0,1.36,0,2.12-.08l.75-.09c-.2.23-.42.44-.61.66a6.07,6.07,0,0,0-.56.58A21,21,0,0,0,355.23,11a77.24,77.24,0,0,1-6.67,10.26l-.45.63a68.92,68.92,0,0,0-4.49,7.36c-.68,1.23-1.39,2.5-2.1,3.71a54.37,54.37,0,0,1-7.87,10.47l0,0A52.39,52.39,0,0,0,324.35,42c-1.46-.06-2.94-.06-4.36-.06h-.46c-.22,0-.44,0-.67,0A1.74,1.74,0,0,0,319,41.74ZM125.23,70.09a129,129,0,0,0,18.39-8c4.49-2.37,9.21-4.47,13.77-6.47,1.29-.58,2.58-1.15,3.87-1.74a96.85,96.85,0,0,1,11.57-4.05c2.46-.76,5-1.53,7.48-2.42l5-1.82c4.92-1.77,10-3.6,15-5.47,2.12-.8,4.29-1.67,6.38-2.51,8.84-3.55,18-7.19,27.55-7.51.31,0,.62,0,.94,0,4.58,0,9.26,1.08,13.79,2.16l3.16.72c4.21.94,8.5,1.94,12.63,2.95,2,.46,3.91.91,5.86,1.38,7,1.64,12.52,2.8,17.73,3.76,2,.37,4.05.77,6,1.16,4.1.78,8.35,1.61,12.53,2.26,1.25.18,2.49.38,3.73.57,1.68.24,3.42.51,5.12.79a45.13,45.13,0,0,0,6.09.44l2.76.09a51.89,51.89,0,0,1,11.18,2.1c-6.58,3-13,6.63-19.12,10.19-3.82,2.18-7.77,4.48-11.72,6.55-5.86,3.09-11.75,5.56-18,8.2l-.31.12c-2.76,1.17-5.56,2.54-8.3,4a66.7,66.7,0,0,1-6.6,3.06c-1,.44-2,.83-2.91,1.26-6.35,2.86-12.56,6.12-18.56,9.3-4.55,2.37-9.31,4.58-13.91,6.68-1.58.74-3.22,1.49-4.83,2.23-3.3,1.56-6.56,3.31-9.7,5-2.68,1.43-5.45,2.92-8.23,4.27a63,63,0,0,0-7.81,4.28c-.88.59-1.75,1.2-2.6,1.8-1.85,1.28-3.74,2.59-5.69,3.79a18.9,18.9,0,0,1-7.19,2.92c-.3,0-.62.05-.94.05a21.12,21.12,0,0,1-6.36-1.41c-.51-.16-1-.34-1.5-.48a35.11,35.11,0,0,0-5.89-1.18c-.67-.09-1.36-.2-2-.32-1.41-.23-2.84-.56-4.23-.91-1.61-.38-3.27-.78-4.93-1a46.78,46.78,0,0,1-7.84-2,45.24,45.24,0,0,0-8.6-2.12c-2-.21-4-.36-5.92-.51A85.11,85.11,0,0,1,131.28,111c-4.8-.95-9.71-1.76-14.45-2.54-1-.16-2-.34-3-.49-3.59-.61-7.28-1-10.83-1.42-2.33-.26-4.73-.54-7.09-.87-5.72-.76-11.77-1.78-17.28-4a67,67,0,0,0-9-2.66c-1.59-.38-3.22-.78-4.83-1.24a2.15,2.15,0,0,0-.45-.58A85.29,85.29,0,0,1,86.94,83.81c3-1.2,6-2.22,9-3.19,3.45-1.15,7-2.33,10.43-3.79,4.61-2,9.45-3.61,14.16-5.18C122.08,71.15,123.67,70.6,125.23,70.09Z"/></g></g></svg>