<svg xmlns="http://www.w3.org/2000/svg" viewBox="0 0 786.48 390.77"><defs><style>.cls-1{fill:#1a3869;}</style></defs><title>chess</title><g id="图层_2" data-name="图层 2"><g id="图层_9" data-name="图层 9"><path class="cls-1" d="M21.21,260.08c2.83,11.05,5.55,22.22,7,33.55C29,300.18,29.43,307,28,313.48c-2.15,9.84-9.63,17.55-15,25.71-1.6,2.41,2.27,4.65,3.85,2.26,5.83-8.79,13.31-16.79,15.63-27.38,1.46-6.7,1-13.69.22-20.44-1.4-11.74-4.23-23.3-7.15-34.74-.71-2.79-5-1.6-4.31,1.19Z"/><path class="cls-1" d="M71.62,256.13a101.89,101.89,0,0,0-7,47.64c1.18,13.81,5.43,28.81,16,38.46,2.11,1.94,5.28-1.21,3.15-3.16-10-9.21-13.64-23.46-14.77-36.58a97.18,97.18,0,0,1,7-45.17c1.11-2.66-3.21-3.81-4.3-1.19Z"/><path class="cls-1" d="M20.38,256.22c-1.37,0-3.19,0-3.18-1.67s1.91-3.55,3.31-4.46c2.41-1.56.17-5.43-2.25-3.86-3,1.93-5.49,5-5.53,8.65,0,4.19,4.06,5.9,7.65,5.81,2.87-.07,2.88-4.54,0-4.47Z"/><path class="cls-1" d="M71.31,261.41c3.75-2.28,7.11-5.6,7.6-10.15.54-5.09-5.11-7.54-9.13-8.34-2.82-.56-4,3.74-1.19,4.31,2.18.43,6.39,1.28,5.79,4.36-.5,2.65-3.18,4.66-5.33,6-2.45,1.49-.21,5.35,2.26,3.85Z"/><path class="cls-1" d="M24.38,245.47c.1-9.74,10.65-9.62,18.06-9.74,8.54-.15,20.53-.5,22,10.43.36,2.81,4.83,2.85,4.46,0-1.75-13.38-13.73-14.94-25.12-14.91-10.43,0-23.7,1-23.84,14.22,0,2.88,4.44,2.88,4.47,0Z"/><path class="cls-1" d="M11.77,339.83c-5.16,5.77,4.95,12.27,8.54,15.62,1.87,1.75,5.71,5,4,7.85-1.33,2.17-4.82,3.26-7,4.05a88.82,88.82,0,0,1-14.83,3.51c-1.9.33-2.17,3.24-.53,4.08A41.19,41.19,0,0,0,7,377.34c2.71,1,3.87-3.35,1.18-4.31a32.11,32.11,0,0,1-4-1.95c-.18,1.36-.35,2.72-.53,4.08,7.21-1.25,30.28-4.34,24.71-16.91-1.61-3.65-5.33-6.44-8.24-9-.83-.74-6.26-5-5.14-6.25,1.91-2.14-1.24-5.31-3.16-3.16Z"/><path class="cls-1" d="M22.64,376.67c19.66,0,39.26,2.94,58.93,1.41a57.59,57.59,0,0,0,9.55-1.87,15,15,0,0,1,6.25-.52,4.32,4.32,0,0,1,2.53,7.11c-2.65,3.27-9,2.4-12.69,2.27-4.92-.18-9.81-.86-14.72-1.1-9.61-.47-19.46,1.4-29.06,2-9.44.57-19.18.76-28.56-.71A29.77,29.77,0,0,1,8,383.35c-2.78-1.18-5.35-4.29-1.23-5.91,4.84-1.9,10.81-.81,15.87-.77,2.88,0,2.88-4.44,0-4.46-6.24,0-14.15-1.47-19.66,2.21-5.86,3.92-2.07,10.45,2.77,12.79,8.09,3.89,18.47,3.56,27.16,3.55,13.21,0,26.4-2.68,39.58-2.32,9.13.24,23.06,4.6,30.57-2.48,5.58-5.28.91-14.55-6.24-14.85-4.49-.19-8.69,1.41-13,2.28-6.78,1.35-14.39.79-21.26.6-13.3-.38-26.56-1.79-39.88-1.78C19.76,372.21,19.76,376.67,22.64,376.67Z"/><path class="cls-1" d="M82.34,342.52c.61.24-1.88,3.76-2.51,4.63-1.78,2.43-3.73,4.73-5.48,7.19-2.29,3.21-5.07,8.42-1.4,11.73,3.45,3.11,9.7,3.94,14,5.1,2.68.73,5.37,1.43,8,2.27a13.17,13.17,0,0,1,2.11.82c-.46-.24,1.26-3.18.35-2.88a8.61,8.61,0,0,1-1.5.28c-2.84.42-1.63,4.72,1.18,4.31,5.31-.77,4.39-4.86.12-6.47-6.16-2.32-12.75-3.32-18.94-5.59-2.81-1-3.13-2-1.7-4.76,1.61-3.08,4-5.74,6.13-8.49,2.78-3.63,7.17-9.92.8-12.45-2.67-1.06-3.83,3.26-1.18,4.31Z"/><path class="cls-1" d="M20.72,258.79c3-1.29,8.12,1.11,11.24,1.56a98.92,98.92,0,0,0,14,.72c8.26,0,16.36.12,23.92-3.65,1.29-.65.15-2.57-1.13-1.93-8.93,4.46-19.92,3.58-29.65,3.23a60.67,60.67,0,0,1-12.59-1.79c-2.32-.57-4.65-1-6.9-.07-1.32.57-.18,2.5,1.13,1.93Z"/><path class="cls-1" d="M19.49,248.65c9.88.11,19.71,1.22,29.59,1.39,6.06.1,12.88,1.71,18.12-2.23,1.14-.86,0-2.8-1.13-1.93-5.4,4.07-13.54,1.94-19.82,1.9-8.94-.06-17.82-1.27-26.76-1.37a1.12,1.12,0,0,0,0,2.24Z"/><path class="cls-1" d="M12.68,343.9c11.94-.59,24,.17,35.9.23,11.28.05,23.74.67,34.65-2.69,1.37-.42.78-2.58-.6-2.15-11.08,3.41-23.8,2.66-35.26,2.6s-23.15-.79-34.69-.22c-1.43.07-1.44,2.3,0,2.23Z"/><path class="cls-1" d="M137.58,378.64c21.59-4.52,44.54-3.05,66.41-2,22.48,1.05,45,3.24,67.55,2.8,3.22-.07,3.22-5.07,0-5-22.52.45-45.08-1.72-67.55-2.8s-45.69-2.41-67.73,2.21c-3.16.66-1.82,5.48,1.32,4.82Z"/><path class="cls-1" d="M137.16,374.72c-3.77,1.17-9.68,5.11-3.86,8.45,4.17,2.39,10.15,2.76,14.86,3.12,20.22,1.55,40.74-.12,61,.25,15.3.28,30.61.64,45.91.87,2.19,0,4.39,0,6.58.09,3.56.12,8,1.46,11.33-.33,6.53-3.5,7.27-10.93-.8-12.67-3.14-.68-4.47,4.13-1.32,4.82,2.06.44,2.91.89,1.25,2.5-1.42,1.38-3.34,1.2-5.17,1.13-2.42-.1-4.81-.46-7.24-.48-4.27,0-8.53-.11-12.79-.19-12.58-.23-25.17-.5-37.75-.74-14.37-.26-28.72,0-43.1.07-7.11,0-14.38.28-21.44-.71a58.8,58.8,0,0,1-6.58-1.28,10.2,10.2,0,0,1-2.63-1q-.84,2.85.39,1.92a11.45,11.45,0,0,1,2.67-1c3.06-1,1.75-5.78-1.33-4.82Z"/><path class="cls-1" d="M143.94,374.7c3.23,0,3.23-5,0-5s-3.22,5,0,5Z"/><path class="cls-1" d="M146.44,372.2c-.51-10.31,3.72-17.95,12-23.84,6.65-4.71,14.2-7.94,20.66-12.94,2.55-2-1-5.49-3.53-3.54-7.29,5.65-16,9.08-23.22,14.86-7.91,6.35-11.42,15.45-10.93,25.46.16,3.21,5.16,3.22,5,0Z"/><path class="cls-1" d="M179.58,230.35c10.14-2.41,20.92-3.83,31-.53,5.23,1.7,9.38,5.12,13.16,9,7.44,7.6,10.78,16.12,14.44,25.95,2.9,7.81,6.74,15.22,9.6,23.05,3.52,9.66,4.6,19.83,4.75,30.05.06,4.52-.3,7.76,2.17,11.59,6.66,10.33,8.12,21.41,8.31,33.64.07,4.69-.11,9.37-.36,14.05-.18,3.22,4.82,3.21,5,0,.81-15,1.6-32.61-6.08-46.21-1.25-2.2-3.31-4.54-3.93-6.68-.82-2.81-.11-7.73-.23-11.07a104.81,104.81,0,0,0-1.83-16c-1.51-7.77-4.57-15-7.78-22.22-4.14-9.27-6.93-19.18-11.58-28.21-5.75-11.13-17.16-20.7-29.53-23.08-9.42-1.81-19.24-.32-28.46,1.87-3.14.74-1.81,5.56,1.33,4.82Z"/><path class="cls-1" d="M123.65,261.15c-8.23,4.16-3.21,15.51,2.21,19.84,4,3.22,9.3,3.57,14.13,2.35a39.33,39.33,0,0,0,8.32-3.74c1.29-.68,3-1.33,3.83-2.61,1-1.45-.28-4-2.16-3.76-2.61.35-4.67,2.68-3.4,5.29,1,2,4.47,1.91,6.19,2.31,3.79.87,7.22,2.83,11.13,3.24,12.07,1.28,26.85-2.87,32.52-14.53,1.41-2.88-2.9-5.42-4.31-2.52-3.72,7.64-11.86,11-19.91,12a28.1,28.1,0,0,1-13-1.34,63.56,63.56,0,0,0-6.46-2c-.79-.12-1.58-.25-2.36-.39.08.95.17,1.9.25,2.84.57-.29.35-.26-.66.08l-2.16-3.76c.87-1.33.07-.32-.74.13-1.27.7-2.57,1.37-3.86,2-3.64,1.88-7.26,3-11.33,1.94s-11.4-10.23-5.72-13.1c2.88-1.46.35-5.77-2.52-4.32Z"/><path class="cls-1" d="M126.68,264.18c3.52-4.47,8.15-7.08,12.82-10.16,5.21-3.44,8.51-8,12.36-12.8,3.32-4.12,7.38-7.48,12.46-9.1,4.65-1.49,9.76-1.38,14.59-1.68,3.21-.2,3.22-5.2,0-5-10.12.62-19,1.24-26.89,8.3-5.56,5-8.79,11.64-15.05,16-5,3.44-10,6.1-13.82,10.95-2,2.5,1.54,6.06,3.53,3.53Z"/><path class="cls-1" d="M182.94,278.14c-.05,8.26-4.42,16.76-6.59,24.62-2.85,10.34-3.92,21-1.41,31.55.75,3.14,5.57,1.81,4.82-1.33-2.64-11.08-.67-22,2.52-32.77,2.11-7.12,5.62-14.52,5.66-22.07,0-3.22-5-3.22-5,0Z"/><path class="cls-1" d="M174,226.17c-3.1-2.85-5.48-6.3-8.28-9.43s-6.76-7.81-11.25-7.47c-3.2.24-3.22,5.24,0,5,3.38-.26,7.75,6,9.64,8.22a79.2,79.2,0,0,0,6.35,7.22c2.37,2.17,5.91-1.35,3.54-3.54Z"/><path class="cls-1" d="M157,210.87c-.09-2.06,11.63-5.33,13.84-6A116.71,116.71,0,0,1,196.63,200a111.6,111.6,0,0,1,30.35,2c10.59,2.13,18.61,7.57,26.84,14.31,7.65,6.26,13.21,14.42,17.59,23.2,4.85,9.74,5.86,20,6.4,30.73.93,18.54,4.39,41.55-6,58.24-1.7,2.75,2.62,5.26,4.32,2.53,11.4-18.36,7.58-43.58,6.5-63.94-.59-11.19-2.57-21.35-7.59-31.43a76.25,76.25,0,0,0-21.3-25.79c-8.7-6.95-17.43-11.22-28.4-13.24a119.2,119.2,0,0,0-60,4.72c-3.93,1.35-13.56,3.93-13.33,9.47.13,3.21,5.13,3.22,5,0Z"/><path class="cls-1" d="M273.74,327.41c-5.95-2.12-12.33-5.74-18.78-3.59-3.05,1-1.74,5.84,1.32,4.82,5.35-1.78,11.2,1.83,16.13,3.59,3,1.08,4.35-3.75,1.33-4.82Z"/><path class="cls-1" d="M124.48,269a12.11,12.11,0,0,0,3,4.69,2.5,2.5,0,1,0,3.53-3.53c-.22-.21-.44-.43-.65-.66l-.29-.34c.16.2.15.18,0-.05a7.77,7.77,0,0,1-.48-.78,3.84,3.84,0,0,1-.21-.4c-.34-.67.15.45-.12-.25a2.55,2.55,0,0,0-3.07-1.75,2.49,2.49,0,0,0-1.74,3.07Z"/><path class="cls-1" d="M176.81,205.5c-.16.05,3.39,7.13,3.58,7.52a73.33,73.33,0,0,1,5.54,15.17c.36,1.57,2.77.91,2.41-.66a85.84,85.84,0,0,0-7.42-19.1c-.77-1.54-2.41-6-4.77-5.34a1.25,1.25,0,0,0,.66,2.41Z"/><path class="cls-1" d="M195.53,200.71c3.28,0,2.93,21.35,2.94,24.25a1.25,1.25,0,0,0,2.5,0,155.22,155.22,0,0,0-.85-17.11c-.31-2.66-.69-9.59-4.59-9.64a1.25,1.25,0,0,0,0,2.5Z"/><path class="cls-1" d="M219.45,200.42A229.51,229.51,0,0,1,215,229.47c-.37,1.56,2,2.23,2.41.66,2.33-9.78,3.5-19.72,4.56-29.71.17-1.6-2.33-1.58-2.5,0Z"/><path class="cls-1" d="M241.12,206.55c-1.4,4.47-1.37,9.15-3,13.62-1.75,4.92-4.86,9.33-7.89,13.52-.95,1.3,1.22,2.55,2.15,1.26a68.58,68.58,0,0,0,7.48-12.47c2.21-5,2-10.17,3.62-15.27.49-1.54-1.93-2.19-2.41-.66Z"/><path class="cls-1" d="M255.93,221.08c-.06,4.66-5,9.82-7.86,13.09a82.14,82.14,0,0,1-8.88,8.62c-1.23,1.06.55,2.82,1.76,1.77a85.56,85.56,0,0,0,11.85-12.22c2.53-3.24,5.58-7,5.63-11.26a1.25,1.25,0,0,0-2.5,0Z"/><path class="cls-1" d="M271.92,240.47c-8.29,11-22.34,14.86-34.09,20.85-1.44.73-.18,2.89,1.26,2.16,12.26-6.26,26.35-10.32,35-21.75,1-1.29-1.2-2.53-2.15-1.26Z"/><path class="cls-1" d="M278.24,265.07c-3.92,3.29-9.76,4.78-14.55,6.42a135,135,0,0,1-14.27,3.91c-1.57.35-.9,2.76.67,2.41a145.35,145.35,0,0,0,17.37-5c4.3-1.52,9-3,12.55-6,1.24-1-.54-2.79-1.77-1.76Z"/><path class="cls-1" d="M280.74,287.94c-9.83.65-19.51,2.73-29.37,2.91a1.25,1.25,0,0,0,0,2.5c9.86-.18,19.54-2.26,29.37-2.91,1.6-.1,1.61-2.6,0-2.5Z"/><path class="cls-1" d="M278.47,310.26c-1.84.31-3.54-.69-5.24-1.24a24.64,24.64,0,0,0-5.14-.77c-4.25-.39-8.6.18-12.85.35-1.6.06-1.61,2.56,0,2.5,4.29-.17,8.56-.55,12.85-.35,3.79.18,7.32,2.55,11.05,1.92,1.58-.27.91-2.68-.67-2.41Z"/><path class="cls-1" d="M273.31,320.59c-5.49,1.24-11.31-4.23-15.82-6.65-1.42-.77-2.69,1.39-1.27,2.15,5.3,2.85,11.28,8.37,17.75,6.91,1.57-.36.91-2.77-.66-2.41Z"/><path class="cls-1" d="M156.7,253.1c-3.11-6.35,15.41-10.13,18.44-13.6,1.06-1.21-.7-3-1.76-1.77-4.15,4.74-23.68,6.74-18.84,16.63.71,1.45,2.86.18,2.16-1.26Z"/><path class="cls-1" d="M155.62,251a14,14,0,0,0,6.29-.83c1.92-.89,3-3,3.86-4.83.66-1.45-1.5-2.73-2.16-1.26s-1.43,3.11-3,3.93-3.48.53-5,.49a1.25,1.25,0,0,0,0,2.5Z"/><path class="cls-1" d="M161.84,245.47c-.69.26-1.37.52-2,.84s-1.8.94-2,1.73a1.51,1.51,0,0,0,1,1.86,2.48,2.48,0,0,0,2-.63,1.27,1.27,0,0,0,.45-1.71,1.26,1.26,0,0,0-1.71-.45,4.45,4.45,0,0,1-.51.33c-.29.18,0,0,.1,0l.64.17.15.13.32.55c0,.22,0,.25,0,.08-.13.3-.25.59-.37.89a8,8,0,0,1,2.62-1.38,1.26,1.26,0,0,0,.87-1.54,1.24,1.24,0,0,0-1.53-.87Z"/><path class="cls-1" d="M187.93,277c1.14-2.33,6.71-2.57,8.91-2.95,3.09-.52,6.42-.78,9.28-2.14,1.46-.7.19-2.85-1.26-2.16-3.34,1.59-7.6,1.67-11.2,2.34-2.51.47-6.61,1-7.89,3.65-.7,1.44,1.46,2.71,2.16,1.26Z"/><path class="cls-1" d="M177.15,370.9c-2.22-9.78,3.47-15.89,10.64-21.42,3.34-2.58,6.25-5.63,9.65-8.16,5.05-3.77,10.69-6.2,16.48-8.59,10.1-4.18,19.84-9.86,27.78-17.42,6.66-6.33,8.78-14.35,8.87-23.3a1.25,1.25,0,0,0-2.5,0c0,5-.54,9.84-2.72,14.38-2.51,5.26-7.37,9.19-11.92,12.61-10,7.55-21.84,10.89-32.55,17.06-7.07,4.08-13.47,10-19.56,15.47-5.92,5.29-8.35,12.26-6.58,20,.35,1.57,2.76.91,2.41-.66Z"/><path class="cls-1" d="M182.56,370.6c.6-18.75,22.93-27,37.57-32.8,15.64-6.19,30.85-13.53,34.93-31.35.36-1.57-2.05-2.23-2.41-.66C248,326,228.6,331.34,211.75,338.5c-13.84,5.88-31.14,15-31.69,32.1-.05,1.61,2.45,1.61,2.5,0Z"/><path class="cls-1" d="M338.18,213.93c-2.65-7.78-.31-18.76,5.7-24.61a16,16,0,0,0,4.35-6c1.46-3.78-1.23-7.81.44-11.6a13.45,13.45,0,0,1,7.65-7.44c3.75-1.22,5.53,2.85,6.4,5.58,1.64,5.22,1.53,11.07,1.35,16.48a2.24,2.24,0,0,0,2.21,2.21c12.7,1,14.74,15.77,14.83,26,0,2.85,4.45,2.85,4.42,0-.12-13-3.74-29.17-19.25-30.38l2.21,2.21c.24-7,.08-14.36-2.73-20.87-3.19-7.41-11.24-6.58-16.5-2a17.72,17.72,0,0,0-5.57,9.52c-.46,2.35.28,4.89.47,7.24.26,3.16-2.2,4.79-4.16,6.7-6.73,6.56-9,19.59-6.09,28.19.92,2.68,5.19,1.53,4.27-1.18Z"/><path class="cls-1" d="M335,213.31a26,26,0,0,0-16.31,8.44c-2,2.07,1.16,5.2,3.13,3.13,3.67-3.89,7.81-6.45,13.18-7.14,2.79-.36,2.83-4.79,0-4.43Z"/><path class="cls-1" d="M318.16,223.9c1.51,9.19,4,18.06,8.55,26.25,4.24,7.69,10.38,14.18,16.8,20.08,2.09,1.93,5.23-1.19,3.12-3.12-6.21-5.72-11.86-11.85-16.1-19.2-4.46-7.71-6.67-16.46-8.11-25.18-.46-2.81-4.72-1.62-4.26,1.17Z"/><path class="cls-1" d="M397,219c.32,18.82-10,34.43-19.73,49.69-1.55,2.41,2.28,4.62,3.81,2.23,10.21-15.95,20.68-32.28,20.35-51.92-.05-2.85-4.47-2.86-4.43,0Z"/><path class="cls-1" d="M384.78,217.66c4.27-1.3,9.39,1.68,13.56,2.51,2.79.55,4-3.71,1.18-4.27-5.15-1-10.6-4.13-15.92-2.51-2.72.83-1.56,5.1,1.18,4.27Z"/><path class="cls-1" d="M344.48,269.55c-7,1.69-6.76,9.75-3.45,14.76,4.26,6.47,15.44,5.57,22.15,5.7,6.43.14,14.31-.32,19.45-4.66,6.25-5.26-.9-13.43-4.91-17.24-2.07-2-5.2,1.16-3.13,3.13,2.6,2.46,9,8.18,4.24,11.5-3.68,2.6-9.24,2.72-13.55,2.84a74.17,74.17,0,0,1-14.82-.88c-2.92-.51-5.11-1.5-6.54-4.17-1.29-2.4-1.35-6,1.74-6.72,2.77-.67,1.59-4.94-1.18-4.26Z"/><path class="cls-1" d="M342.06,285.51c-7.93,0-16.26,2.86-22.88,7.15a2.23,2.23,0,0,0,1.11,4.12c27.53,1.7,55.28,5.24,82.88,2.92,1.68-.14,3.23-2.45,1.56-3.78-7.12-5.65-16.66-8-25-11.33-2.65-1.06-3.79,3.21-1.17,4.26,7.54,3,16.57,5.07,23,10.2.52-1.26,1-2.52,1.57-3.77-27.6,2.32-55.35-1.22-82.88-2.92l1.12,4.12c6-3.88,13.47-6.59,20.65-6.55,2.85,0,2.85-4.4,0-4.42Z"/><path class="cls-1" d="M341.86,296.75c.91,19.56.11,41.18-16.26,54.59-2.2,1.81.94,4.92,3.13,3.12,17.25-14.13,18.51-37,17.55-57.71-.13-2.84-4.56-2.85-4.42,0Z"/><path class="cls-1" d="M375,301.17c-7.3,17.49.86,36.83,11,51.15,1.63,2.31,5.47.11,3.82-2.23-9.53-13.46-17.44-31.24-10.55-47.74,1.1-2.63-3.18-3.77-4.26-1.18Z"/><path class="cls-1" d="M301,364.06c5.48-2,10.42-5,15.65-7.53,7-3.35,12.19-1.79,16.48,4.76,1.56,2.38,5.39.16,3.82-2.23-3.89-5.93-8.77-9.73-16.1-8.61-7.49,1.14-14,6.79-21,9.34-2.66,1-1.51,5.24,1.17,4.27Z"/><path class="cls-1" d="M298.28,363.34c-1.5,4.42-1.08,9-1.08,13.63,0,2.85,4.43,2.85,4.42,0,0-4.2-.44-8.41.93-12.45.92-2.71-3.35-3.86-4.27-1.18Z"/><path class="cls-1" d="M297.3,378.88c10,5.42,21.12,7.25,32.35,8.17,12.4,1,24.82,1.62,37.23,2.69a110.21,110.21,0,0,0,31-1.2c6.72-1.31,16.06-3.43,19.84-9.83,1.46-2.46-2.36-4.68-3.81-2.23-3.57,6-14.28,7.34-20.51,8.4-9.9,1.69-20,1.05-29.91.14-10.78-1-21.54-1.56-32.33-2.28s-21.89-2.42-31.62-7.68c-2.51-1.36-4.74,2.46-2.23,3.82Z"/><path class="cls-1" d="M419,375.75c-1.64-4.06-.39-8.2-1-12.4-.41-2.81-4.67-1.61-4.26,1.18a31.16,31.16,0,0,1-.13,5.46,16.87,16.87,0,0,0,1.13,6.93c1.06,2.61,5.34,1.47,4.26-1.17Z"/><path class="cls-1" d="M415.27,361.81c-2.35.89-4.94-1.45-6.71-2.75a94.49,94.49,0,0,0-9.12-6.4c-7.28-4.07-14.34-2.12-19.69,4-1.87,2.13,1.25,5.27,3.13,3.12,2.71-3.09,5.9-5.58,10.22-4.84,3.42.59,6.47,2.89,9.2,4.9,3.73,2.75,9,8.21,14.15,6.24,2.64-1,1.49-5.28-1.18-4.26Z"/><path class="cls-1" d="M344.86,184.83a15.69,15.69,0,0,0,14.73,5.68c4.11-.77,9-4.3,7-8.87-1.16-2.61-5-.35-3.82,2.23.56,1.26-4.78,2.37-5.46,2.37-3,0-6.71-1.16-8.6-3.64-1.7-2.23-5.55,0-3.82,2.23Z"/><path class="cls-1" d="M334.41,216.1A34.66,34.66,0,0,0,336.18,229a2.21,2.21,0,0,0,2.13,1.62c3.77-.38,7.51.08,11.28,0a2.23,2.23,0,0,0,2.13-2.8c-.56-1.89-1.07-3.79-1.51-5.72-.4-1.75-1.86-6.07.67-5.7,6.89,1,14.42-1.2,21.14.65l-1.63-2.13c0,4.09.17,8.17.28,12.26a2.24,2.24,0,0,0,2.21,2.21,82.4,82.4,0,0,0,9.56,0,2.29,2.29,0,0,0,2.21-2.21c.47-4,1.15-8,2-11.92.56-2.78-3.7-4-4.27-1.17-.87,4.34-1.59,8.69-2.1,13.09.74-.74,1.47-1.48,2.21-2.21a82.4,82.4,0,0,1-9.56,0l2.21,2.21c-.1-4.09-.28-8.17-.27-12.26a2.24,2.24,0,0,0-1.63-2.13c-4.65-1.28-9.84-.63-14.62-.55a45.33,45.33,0,0,1-7.37-.23c-1.32-.19-2.86-.44-4.08.28-4.64,2.71-.75,13,.34,16.7l2.13-2.8c-3.77.06-7.51-.4-11.28,0l2.14,1.63a31.16,31.16,0,0,1-1.62-11.7c.09-2.86-4.33-2.85-4.42,0Z"/><path class="cls-1" d="M343,267c9.26,7.59,29.07,8.72,37.74-.5,1-1-.58-2.61-1.56-1.57-7.78,8.27-26.29,7.34-34.62.51-1.09-.89-2.67.66-1.56,1.56Z"/><path class="cls-1" d="M339.45,190.54c-2,2-4.84,6.21-2.09,8.86,4.39,4.23,12.5,3.91,18.11,3.59,7.39-.43,15.22-.77,22.53-1.87,4.32-.65,2.19-5,.47-7-.94-1.08-2.49.49-1.57,1.56,3.7,4.28-1.94,3.57-3.76,3.66l-4.94.24c-3.19.17-6.37.6-9.55.93a67.73,67.73,0,0,1-9.55.36c-4.67-.17-14.22-2.85-8.09-8.76,1-1-.54-2.55-1.56-1.56Z"/><path class="cls-1" d="M353.9,165.59c0,3.14.66,6.22.86,9.36s.16,6,1,9a1.11,1.11,0,0,0,2.13-.59A37.26,37.26,0,0,1,357,175c-.12-3.14-.82-6.21-.86-9.36a1.11,1.11,0,0,0-2.21,0Z"/><path class="cls-1" d="M359,299.57c-1,2.95-.32,6.22-.07,9.25.47,5.64,0,11.51-.27,17.16-.45,11.26-1,22.49-1,33.77a1.11,1.11,0,0,0,2.21,0c0-10.68.41-21.31.9-32,.24-5.4.4-10.81.4-16.21,0-3.63-1.24-7.92-.07-11.41.46-1.35-1.68-1.93-2.13-.59Z"/><path class="cls-1" d="M338.43,365.88c4,3.84,10,4.28,15.32,4.35a52.86,52.86,0,0,0,8.8-.52c4.33-.67,8.3-2.59,12.63-3.29,1.4-.23.8-2.36-.59-2.13-5.95,1-11.23,3.3-17.34,3.65-5.58.32-12.94.49-17.26-3.62-1-1-2.6.57-1.56,1.56Z"/><path class="cls-1" d="M657.65,26.21c0,4.92-.27,9.84-.41,14.77-.07,2.43,3.7,2.42,3.76,0,.14-4.93.39-9.85.41-14.77,0-2.43-3.75-2.43-3.76,0Z"/><path class="cls-1" d="M659.66,28a118.69,118.69,0,0,0,11.92,3c2.37.43,3.39-3.2,1-3.63a116.69,116.69,0,0,1-11.92-3c-2.34-.67-3.33,3-1,3.63Z"/><path class="cls-1" d="M659.62,42.79a51.19,51.19,0,0,1,12.46-2.71c2.4-.22,2.42-4,0-3.76a54.82,54.82,0,0,0-13.46,2.84c-2.26.83-1.28,4.47,1,3.63Z"/><path class="cls-1" d="M680.55,41.08c7.17,3.68,14,7.94,21,11.93,2.11,1.2,4-2.06,1.9-3.25-7-4-13.85-8.25-21-11.93-2.15-1.1-4.05,2.14-1.89,3.25Z"/><path class="cls-1" d="M703.7,49.63c-1.6-6.84-1.15-13.9-1.81-20.84-.23-2.39-4-2.42-3.76,0,.69,7.29.26,14.66,2,21.84.55,2.36,4.18,1.36,3.62-1Z"/><path class="cls-1" d="M681.18,31.93c6.31,0,12.53-1.14,18.83-1.26,2.42-.05,2.43-3.81,0-3.76-6.3.12-12.52,1.24-18.83,1.25-2.42,0-2.43,3.77,0,3.77Z"/><path class="cls-1" d="M683.06,29.42c-.26-8.31.89-18.77,4.34-26.4,1-2.2-2.25-4.11-3.25-1.9-3.73,8.23-5.14,19.3-4.85,28.3.08,2.42,3.84,2.42,3.76,0Z"/><path class="cls-1" d="M668.06,8.71c6.05-.6,13.53-1.52,18.67-5,2-1.35.11-4.62-1.9-3.25-4.56,3.1-11.4,4-16.77,4.5-2.39.24-2.42,4,0,3.77Z"/><path class="cls-1" d="M673.9,29.69c2.73-7.34-1.47-16.53-4-23.37-.84-2.25-4.48-1.27-3.63,1,2.31,6.15,6.47,14.79,4,21.36-.85,2.28,2.79,3.26,3.63,1Z"/><path class="cls-1" d="M688,1.93a2.21,2.21,0,0,0-.9-1.2C687,.67,686,.2,686.45.45l.86,1.12,0-.05-.86,2.13c-.25.12-.16.13.28,0l-1.45-.19A13.55,13.55,0,0,1,689,6c1.07,1.1,2,2.3,3.1,3.37,1.75,1.69,4.41-1,2.66-2.66-1.4-1.36-2.56-3-4-4.25S686.6-.86,684.53.4a1.88,1.88,0,0,0-.87,2.12,2.07,2.07,0,0,0,.89,1.18c.12.06,1.08.54.67.28l-.86-1.12,0,.07c.84,2.25,4.48,1.28,3.63-1Z"/><path class="cls-1" d="M691.79,7.76c-3,6.58-3.46,13.91-4,21-.19,2.42,3.58,2.4,3.77,0,.5-6.4.8-13.2,3.51-19.13,1-2.19-2.25-4.11-3.25-1.9Z"/><path class="cls-1" d="M700.33,30.41c.69-.51,2-.06,2.73.12a25.47,25.47,0,0,1,4,1.33c2.24.92,3.21-2.72,1-3.63-2.51-1-7.08-3-9.61-1.07-1.91,1.45,0,4.72,1.9,3.25Z"/><path class="cls-1" d="M704.33,51.88c.36-2.31,3.71-3.54,5.59-4.33a1.94,1.94,0,0,0,1.32-2.32,1.89,1.89,0,0,0-2.32-1.31c-3.09,1.3-7.63,3.18-8.22,7A2,2,0,0,0,702,53.2a1.89,1.89,0,0,0,2.31-1.32Z"/><path class="cls-1" d="M705.66,28.79c-.15,5.24.67,10.44.62,15.69,0,2.43,3.75,2.42,3.77,0,0-5.25-.78-10.45-.63-15.69.07-2.43-3.69-2.42-3.76,0Z"/><path class="cls-1" d="M674.67,82.47c-.27-14.59,1.52-29.4,0-43.95-.25-2.39-4-2.42-3.76,0,1.51,14.55-.28,29.36,0,43.95.05,2.43,3.81,2.43,3.76,0Z"/><path class="cls-1" d="M679.68,39c-1,7.13-.17,14.84,0,22s0,14.83,1.07,22c.37,2.39,4,1.37,3.63-1-.91-5.89-.7-13.6-.91-20-.22-7.08-1.22-15-.2-22,.35-2.38-3.28-3.4-3.63-1Z"/><path class="cls-1" d="M686.66,44.07c-.43,6.51.59,12.93,1.17,19.4.55,6,.37,12,1.58,17.91.48,2.37,4.11,1.36,3.63-1-1.25-6.1-1-12.29-1.58-18.46-.55-6-1.43-11.84-1-17.85.16-2.43-3.61-2.41-3.76,0Z"/><path class="cls-1" d="M654,308.88a60.3,60.3,0,0,0-17.78,3.36c-5.08,1.67-11.51,4.17-14.61,8.82-7.54,11.27,12.27,13.9,18.94,14.86s13.38,2,20.11,2.6c11.61,1,23.32.36,34.93-.14,19.37-.84,39.47-2,57.08-10.84a1.86,1.86,0,0,0,.93-1.63c0-3.73.45-7.46-2.58-10.21-5.61-5.09-16.18-5.18-23.18-6-2.4-.28-2.38,3.49,0,3.76,6,.69,15.43.82,20.52,4.88,2.21,1.77,1.5,5.08,1.48,7.55l.93-1.62c-15.19,7.65-32.44,9.17-49.17,10-18.2,1-35.94,1.22-54-1.26-4-.55-26.45-1.9-23.43-9,1.93-4.52,8.89-6.8,13.07-8.25A54.11,54.11,0,0,1,654,312.64c2.42,0,2.43-3.8,0-3.76Z"/><path class="cls-1" d="M621.74,326.58c-2.84,6-2,12.42-1.93,18.83,0,2.42,3.79,2.43,3.76,0-.06-5.59-1.07-11.71,1.42-16.94,1-2.17-2.21-4.09-3.25-1.89Z"/><path class="cls-1" d="M620.07,343.59c-8.39,1.8-14.19,7.93-21.13,12.49-2,1.32-.13,4.58,1.9,3.25,6.63-4.36,12.21-10.39,20.23-12.11,2.37-.5,1.37-4.13-1-3.63Z"/><path class="cls-1" d="M597,357.2c-2.86,8.18-2.6,17.14-1.74,25.65.24,2.39,4,2.42,3.76,0-.83-8.19-1.15-16.77,1.61-24.65.81-2.29-2.83-3.27-3.63-1Z"/><path class="cls-1" d="M596,383.55c5.63,2.1,11.74,1.9,17.65,2.3,8.71.6,17.41,1.25,26.13,1.65,17,.8,34.08.89,51.11,1.72s34.09,1.14,51.1-1c14.21-1.75,28.2-4.33,42.57-4.64,2.42-.06,2.43-3.82,0-3.77-13.82.31-27.28,2.63-40.94,4.44-17,2.25-33.92,2-51,1.25-16.46-.76-32.92-1-49.38-1.65-8.14-.31-16.27-.82-24.39-1.4-7.15-.52-15.1,0-21.88-2.57-2.28-.85-3.25,2.79-1,3.63Z"/><path class="cls-1" d="M781,358.82c.65,6.71,1.59,13.37,1.68,20.12,0,2.42,3.79,2.43,3.76,0-.09-6.75-1-13.41-1.68-20.12-.23-2.39-4-2.41-3.76,0Z"/><path class="cls-1" d="M783.87,357.2c-8.75-6.27-19.12-10.22-27.66-16.77-1.93-1.48-3.8,1.8-1.9,3.25,8.54,6.55,18.91,10.5,27.66,16.77,2,1.41,3.85-1.85,1.9-3.25Z"/><path class="cls-1" d="M751.7,325.29c.33,5.78.4,11.6,1.74,17.27.56,2.36,4.19,1.35,3.63-1-1.27-5.33-1.29-10.82-1.61-16.26-.14-2.41-3.9-2.43-3.76,0Z"/><path class="cls-1" d="M643.17,91.74C654,87.83,665.78,86,677.24,85.08c11.69-.92,27.24-1.51,37,6.18,1.89,1.48,4.57-1.16,2.66-2.66-9.89-7.78-24.13-8-36.13-7.5-12.91.57-26.43,2.62-38.63,7-2.26.81-1.28,4.45,1,3.62Z"/><path class="cls-1" d="M713.71,88.67c-1,19.83-3.87,40.52-13.57,58.15-1.17,2.13,2.08,4,3.25,1.9,10-18.23,13-39.54,14.08-60,.13-2.42-3.63-2.41-3.76,0Z"/><path class="cls-1" d="M642,89.43c-1.7,9.84,2.33,20.78,5.66,29.86,3.65,9.93,8.15,20.41,15,28.55,1.57,1.86,4.22-.82,2.66-2.66-6.46-7.64-10.58-17.63-14.07-26.89-3.1-8.25-7.22-18.88-5.66-27.86.41-2.37-3.22-3.39-3.63-1Z"/><path class="cls-1" d="M669.83,144.7c-9,3.08-13,10.05-9.08,19,3.55,8.13,12.91,15.74,21.86,16.58a23.77,23.77,0,0,0,23.63-14c4.31-9.41.31-18.91-8.17-24.13-2.07-1.28-4,2-1.9,3.25,16,9.81,5,31.11-11.47,31.28-12.78.14-32.76-21.88-13.87-28.34,2.28-.79,1.3-4.42-1-3.63Z"/><path class="cls-1" d="M662.22,192.56c0,39.23,2.18,79.84-10,117.7-.74,2.32,2.89,3.3,3.63,1C668.13,273.09,666,232.11,666,192.56c0-2.43-3.77-2.43-3.76,0Z"/><path class="cls-1" d="M704.17,193.25c-.57,25,5.18,49.41,11.11,73.54,2.17,8.84,3.76,17.54,5.18,26.52,1,6.48,1.86,14.3,6.09,19.62,1.52,1.9,4.16-.79,2.66-2.66-4.1-5.16-4.53-14.06-5.49-20.31-1.35-8.76-3.11-17.22-5.23-25.84-5.71-23.26-11.1-46.77-10.55-70.87,0-2.43-3.71-2.42-3.77,0Z"/><path class="cls-1" d="M672.2,172.17c-6.58-2.22-14.5-2.62-20.28,1.86-4.77,3.69-8.13,9.81-3.76,14.93,3.94,4.62,11.71,5.17,17.29,5.55,7.79.54,15.61-.22,23.41,0,8.83.21,17.59,1.38,26.35-.38,3.16-.63,7.29-2,9.63-4.38,1.83-1.82,0-7.76-.63-9.91-3.77-12-17.74-6.72-26.77-7.76-2.41-.27-2.38,3.49,0,3.77,4.89.56,9.77-.52,14.67-.42,7.65.15,9.4,6.28,9.52,13l.93-1.63c-7.86,5.7-18.29,4.79-27.48,4.27-8-.46-15.9-.09-23.88-.11-6.28,0-16.89.42-21-5.43-2.38-3.37,3.31-8.2,5.82-9.61,4.62-2.59,10.44-1.68,15.19-.08,2.3.77,3.28-2.86,1-3.63Z"/><path class="cls-1" d="M648.61,89.87c3.31,2.59,4.37,7.24,6.14,10.88,1.06,2.18,4.3.27,3.25-1.9-1.93-4-3.12-8.81-6.73-11.64-1.89-1.48-4.57,1.16-2.66,2.66Z"/><path class="cls-1" d="M656.91,101.14a57,57,0,0,0,8-.53c2.4-.2,2.42-4,0-3.77a55.51,55.51,0,0,1-8,.54c-2.43-.15-2.41,3.62,0,3.76Z"/><path class="cls-1" d="M661.53,86.89c1,4.64,1.19,9.42,2.68,13.94.75,2.3,4.39,1.31,3.63-1-1.49-4.52-1.69-9.3-2.68-13.94-.51-2.37-4.14-1.36-3.63,1Z"/><path class="cls-1" d="M673.79,85.86c.18,3.8,1.16,7.48,1.61,11.26.28,2.38,4.05,2.4,3.77,0-.45-3.77-1.44-7.47-1.61-11.26-.12-2.42-3.88-2.43-3.77,0Z"/><path class="cls-1" d="M677.82,99.53a88.88,88.88,0,0,1,9.65-.53c2.43,0,2.43-3.72,0-3.77a88.89,88.89,0,0,0-9.65.54c-2.4.22-2.42,4,0,3.76Z"/><path class="cls-1" d="M687.2,84.78V97.12a1.88,1.88,0,0,0,3.76,0V84.78a1.88,1.88,0,0,0-3.76,0Z"/><path class="cls-1" d="M700.13,85.89c-.81,3.9-.65,7.93-1.6,11.8-.59,2.35,3,3.35,3.62,1,1-3.88.8-7.9,1.61-11.8.5-2.37-3.13-3.37-3.63-1Z"/><path class="cls-1" d="M700.91,100.54c2.32.54,4.87.39,7.06,1.42s4.1-2.22,1.9-3.25c-2.57-1.2-5.25-1.16-8-1.8-2.36-.56-3.36,3.07-1,3.63Z"/><path class="cls-1" d="M709.73,87.21c-3.34,3.06-1.64,8.7-2.63,12.62-.58,2.36,3,3.36,3.63,1a25.7,25.7,0,0,0,.54-5.4c.05-1.63-.2-4.35,1.12-5.56,1.8-1.64-.87-4.3-2.66-2.66Z"/><path class="cls-1" d="M648.29,112.33c20.23-4.54,41.86-6.86,62.27-2.14,2.37.55,3.37-3.08,1-3.63-21.09-4.88-43.36-2.56-64.27,2.15-2.36.53-1.36,4.16,1,3.62Z"/><path class="cls-1" d="M684.13,151.26c-3.83-1.85-7.22.54-8.22,4.41-1.16,4.45,1.54,8.48,5.74,9.83,4.71,1.51,10.58-.82,11.41-6,1-6.13-4.52-8.25-9.38-9.48-2.35-.59-3.35,3-1,3.63s6.33,1.11,6.7,4.1c.46,3.61-3.29,4.84-6.2,4.29a4.35,4.35,0,0,1-3.74-4.65c0-1.43,1.06-3.69,2.79-2.86,2.18,1.05,4.09-2.19,1.9-3.24Z"/><path class="cls-1" d="M681.84,193.63c-.35,11.27,1.6,22.6,1.73,33.9.14,12.43.19,24.86.47,37.29.42,18.65,1,37.23,1,55.89a1.89,1.89,0,0,0,3.77,0c0-18.66-.56-37.24-1-55.89-.29-11.84-.34-23.68-.46-35.51-.05-5.78,0-11.56-.54-17.33-.53-6.13-1.4-12.18-1.21-18.35.07-2.43-3.69-2.42-3.76,0Z"/><path class="cls-1" d="M651.81,312.13c.34,4.65,9.3,7.23,12.67,8.68,6.51,2.79,13.16,5.2,19.81,7.61,2.29.83,3.26-2.81,1-3.63-5.22-1.89-10.43-3.8-15.59-5.86-3.13-1.26-6.23-2.59-9.26-4.08-1-.49-4.86-2.62-4.87-2.72-.17-2.4-3.94-2.42-3.76,0Z"/><path class="cls-1" d="M686.4,329.56a39.88,39.88,0,0,0,12.79-3.69c5.38-2.34,10.83-4.26,16.34-6.25s14.75-4.53,18.07-9.76c1.31-2.05-2-3.94-3.25-1.9-1.52,2.4-5.33,3.61-7.81,4.7-3.69,1.63-7.42,3.14-11.23,4.48-8,2.81-16.4,7.95-24.91,8.66-2.4.2-2.42,4,0,3.76Z"/><path class="cls-1" d="M621.64,345.93c4.29,2,8.06,4.91,12.38,6.9a54.6,54.6,0,0,0,11.71,3.63c9.41,2,19.19,2.87,28.74,3.83,14.76,1.48,29.57,1.46,44.19-1.16,5.77-1,48.79-7.15,44.43-16.85-1-2.21-4.23-.3-3.25,1.9-.35-.78-.41-.07-1.3.49a23.1,23.1,0,0,1-4.34,2,116.32,116.32,0,0,1-12.69,3.78c-8.43,2.13-17,3.84-25.54,5.34-13.71,2.41-27.7,2-41.5.73-9.25-.87-18.6-1.94-27.74-3.69a52.75,52.75,0,0,1-12.2-3.9c-3.85-1.77-7.16-4.46-11-6.26-2.18-1-4.09,2.21-1.9,3.25Z"/><path class="cls-1" d="M483.22,328.34c-7.55.15-19.9,2.47-24.53,9.21-5.95,8.64,8.14,11,13.57,11.85a209.52,209.52,0,0,0,41,2c15-.64,30.4-1.42,44-8.23a1.88,1.88,0,0,0,.93-1.62c0-2.95.27-5.79-2.07-8-4.25-3.94-12.34-4-17.68-4.61-2.4-.28-2.38,3.49,0,3.76,4.39.51,11.29.61,15,3.52,1.54,1.19,1,3.62,1,5.31l.93-1.62c-11.2,5.58-23.8,6.76-36.12,7.43-13.4.72-26.84,1.33-40.13-.82-3-.48-18.86-1.23-17.94-5.79.71-3.51,7.35-5.5,10.11-6.43a39.76,39.76,0,0,1,11.91-2.22c2.43-.05,2.43-3.82,0-3.77Z"/><path class="cls-1" d="M458.65,341.82c-2.17,4.55-1.56,9.44-1.51,14.33,0,2.42,3.79,2.42,3.76,0,0-4.08-.81-8.62,1-12.43,1-2.18-2.2-4.09-3.25-1.9Z"/><path class="cls-1" d="M457.69,354.33c-6.33,1.36-10.7,5.95-15.92,9.39-2,1.33-.14,4.59,1.9,3.25,4.92-3.23,9.07-7.74,15-9,2.37-.51,1.36-4.13-1-3.63Z"/><path class="cls-1" d="M440.07,364.85c-2.15,6.17-2,12.89-1.33,19.31.24,2.39,4,2.42,3.77,0-.62-6.1-.85-12.44,1.18-18.31.8-2.3-2.83-3.28-3.62-1Z"/><path class="cls-1" d="M439.71,385.14c3.89,1.41,8,1.45,12.13,1.66,6.26.32,12.52.9,18.79,1.22,12.95.66,25.92.68,38.88,1.32s25.84,1,38.73-.56c10.91-1.3,21.64-3.31,32.66-3.57,2.43-.06,2.43-3.82,0-3.77-10.45.25-20.65,2-31,3.37-12.27,1.62-24.56,1.48-36.89.93s-24.73-.8-37.11-1.25c-6.46-.23-12.91-.64-19.35-1.1-5.22-.38-10.89-.09-15.85-1.88-2.29-.83-3.27,2.81-1,3.63Z"/><path class="cls-1" d="M577.77,366.18c.48,5,1.19,10,1.25,15.05,0,2.43,3.8,2.43,3.77,0-.07-5-.77-10-1.26-15.05-.23-2.39-4-2.41-3.76,0Z"/><path class="cls-1" d="M580.6,364.56c-6.56-4.67-14.28-7.67-20.7-12.55-1.93-1.47-3.8,1.81-1.9,3.25,6.42,4.88,14.14,7.88,20.7,12.55,2,1.41,3.86-1.86,1.9-3.25Z"/><path class="cls-1" d="M555.82,341.09c.25,4.37.3,8.77,1.32,13.05.56,2.36,4.19,1.36,3.63-1-.94-3.95-1-8-1.19-12.05-.14-2.41-3.9-2.42-3.76,0Z"/><path class="cls-1" d="M476.05,166.34c13.26-12.43,39.58-15.36,51.9,0,1.52,1.89,4.16-.79,2.66-2.66-13.62-17-42.6-13.7-57.22,0-1.78,1.66.89,4.31,2.66,2.66Z"/><path class="cls-1" d="M527.4,164.07c-.8,14.78-2.91,30.09-10.1,43.26-1.16,2.13,2.09,4,3.25,1.9,7.52-13.77,9.78-29.7,10.61-45.16.13-2.43-3.63-2.42-3.76,0Z"/><path class="cls-1" d="M473.77,164.51c-1.21,7.32,1.59,15.24,4,22,2.77,7.72,6.26,15.79,11.58,22.13,1.56,1.86,4.21-.82,2.66-2.66-4.64-5.54-7.63-12.68-10.2-19.35-2.39-6.24-5.57-14.33-4.44-21.15.39-2.38-3.24-3.39-3.63-1Z"/><path class="cls-1" d="M494.91,205.53c-17,6-3.69,25.93,9.16,27.49,16.53,2,27.76-19.7,12.34-29.36-2.06-1.29-3.95,2-1.9,3.25,11.49,7.2,3.48,22.29-8.35,22.52-9.08.18-23.67-15.56-10.25-20.28,2.28-.79,1.3-4.43-1-3.62Z"/><path class="cls-1" d="M488.87,241.79c0,29.33,1.59,59.62-7.46,87.93-.74,2.32,2.89,3.31,3.63,1,9.15-28.63,7.62-59.27,7.59-88.93a1.88,1.88,0,0,0-3.76,0Z"/><path class="cls-1" d="M520.26,242.31c-.39,18.49,3.76,36.51,8.13,54.37,1.69,6.87,3,13.63,4.07,20.61.79,5,1.49,10.76,4.68,14.89,1.49,1.92,4.13-.77,2.66-2.66-3.07-4-3.35-10.8-4.07-15.56-1-6.21-2.21-12.19-3.71-18.28-4.31-17.54-8.38-35.21-8-53.37.05-2.43-3.71-2.43-3.76,0Z"/><path class="cls-1" d="M496.94,226.08c-5.14-1.68-11.5-2-15.9,1.71-3.16,2.69-6.18,7.55-2.89,11.24,3.13,3.51,8.06,4.2,12.5,4.62,6.37.59,12.79-.12,19.17.07,6.54.2,13,1,19.46-.35,2.38-.48,5.5-1.61,7.25-3.37,1.56-1.56.25-5.78-.27-7.65-2.68-9.54-13.55-5.62-20.57-6.38-2.41-.26-2.38,3.51,0,3.77,3.35.36,6.69-.25,10-.33,5.94-.14,7.47,3.83,7.6,9.26l.93-1.62c-5.32,3.77-12,3.52-18.24,3.23-5.76-.26-11.43-.3-17.2-.2-5.4.09-11.81.4-16.63-2.44-3.56-2.09-.26-5.94,2-7.51,3.44-2.36,8-1.63,11.73-.42,2.31.75,3.29-2.88,1-3.63Z"/><path class="cls-1" d="M505.5,211.29c-2.59-1.25-4.79.44-5.46,3a5.62,5.62,0,0,0,4,6.79c3.3,1.06,7.38-.54,8-4.19.68-4.29-3.35-5.67-6.69-6.52a.94.94,0,0,0-.5,1.82c2,.51,5,1,5.35,3.52.39,3-2.79,4.12-5.22,3.65a3.71,3.71,0,0,1-3.15-3.93c0-1.46,1.14-3.33,2.79-2.53,1.09.52,2.05-1.1.95-1.63Z"/><path class="cls-1" d="M504.49,242.59c-.21,8.59,1.21,17.2,1.3,25.81.11,9.45.15,18.89.37,28.34.32,13.66.75,27.26.74,40.93a.94.94,0,0,0,1.88,0c0-13.67-.38-27.27-.74-40.93-.23-8.86-.26-17.71-.35-26.57-.09-9.2-1.55-18.42-1.32-27.58a.94.94,0,0,0-1.88,0Z"/><path class="cls-1" d="M482,331.25c.39,3.07,6.19,4.75,8.47,5.75,5.07,2.23,10.29,4.11,15.49,6,1.15.41,1.63-1.41.5-1.82-3.87-1.4-7.73-2.82-11.55-4.34-1.46-.58-10.76-3.49-11-5.58-.15-1.19-2-1.2-1.89,0Z"/><path class="cls-1" d="M507.44,343.82c7.13-.68,13.93-4.7,20.63-7,4.43-1.56,11.48-3.44,14.28-7.46.69-1-.94-1.94-1.63-.95-2.59,3.73-10.77,5.76-14.7,7.14-6,2.11-12.2,5.82-18.58,6.43-1.2.12-1.21,2,0,1.88Z"/><path class="cls-1" d="M459.22,356.13c6,2.87,10.75,6.23,17.33,7.72,7,1.57,14.3,2.18,21.39,2.91a119.41,119.41,0,0,0,33.19-.74c3.86-.69,35.93-5.6,33.38-11.75-.46-1.11-2.28-.62-1.82.5,1.24,3-29.92,9.06-33.15,9.63-10.44,1.83-21.09,1.48-31.6.48A210.08,210.08,0,0,1,477.05,362c-6.42-1.27-11.15-4.77-16.88-7.52-1.09-.53-2,1.1-.95,1.62Z"/><path class="cls-1" d="M495.53,151.34c-2.91-.71-3-5.87-1.88-7.91,1.64-3,6.18-3.73,9.22-3.19s10.44,9.34,5.7,11.1c-2.26.84-1.28,4.48,1,3.63,9.83-3.65.45-17.26-6.53-18.51-4.88-.87-11.29,1.31-13.22,6.24-1.59,4.07-.11,11.09,4.71,12.27,2.36.58,3.36-3.05,1-3.63Z"/><path class="cls-1" d="M488.78,204.85c8-5.11,19.71-2.14,28.63-1.64,2.43.13,2.41-3.63,0-3.76-9.71-.55-21.74-3.44-30.53,2.15-2,1.3-.16,4.55,1.9,3.25Z"/><path class="cls-1" d="M478.85,167.87c3.5-1,7.68-.29,11.29-.34,4.43,0,8.85-.21,13.27-.43,8.26-.4,16.34-1.51,24.62-1.44,2.43,0,2.43-3.74,0-3.76-8.83-.07-17.47,1.09-26.27,1.52-4.43.22-8.85.32-13.28.37-3.54,0-7.19-.49-10.63.45a1.88,1.88,0,0,0,1,3.63Z"/></g></g></svg>