<svg xmlns="http://www.w3.org/2000/svg" viewBox="0 0 521.32 255.29"><defs><style>.cls-1{fill:#1a3869;}</style></defs><title>rocket_1</title><g id="图层_2" data-name="图层 2"><g id="POST_2" data-name="POST 2"><path class="cls-1" d="M271.32,118.6a13.23,13.23,0,0,1-9-4.15c-2.14-2.53-1.81-6.31-1.6-9.4a1.46,1.46,0,0,0-2.27-1.28,1.54,1.54,0,0,0-1.72,1.48,19,19,0,0,1-12.85,17.08,1.56,1.56,0,0,0,.42,3,16,16,0,0,1,10.22,5.73c2.56,3.18,3.51,7.25,3.91,11.23a1.55,1.55,0,0,0,3.09,0c.6-4.56.63-9.47,2.7-13.68a15.45,15.45,0,0,1,7.88-7.17C273.61,120.78,272.7,118.7,271.32,118.6Zm-9.78,8.48a24.42,24.42,0,0,0-2,6.58,18.55,18.55,0,0,0-2.83-4.74,18.22,18.22,0,0,0-7.87-5.51,22.06,22.06,0,0,0,9.27-10.59,9.72,9.72,0,0,0,2,3.82,15,15,0,0,0,6.84,4.23A16.67,16.67,0,0,0,261.54,127.08Z" transform="translate(0 81.69)"/><path class="cls-1" d="M248.59,149.88c-2.82.25-5.48-1.66-7.41-3.54a8.93,8.93,0,0,1-2.72-8.24,1.61,1.61,0,0,0-2.68-1.48,1.4,1.4,0,0,0-.67,1.26c0,6.5-2.77,14.81-10.39,15.42-1.61.13-2.26,2.75-.41,3,3.49.53,7.47,1.24,9.91,4,2.75,3.17,2.71,7.77,2.73,11.72a1.55,1.55,0,0,0,3.09,0c.26-4.23.39-8.84,2.07-12.8,1.36-3.18,4.29-5.05,7.26-6.54A1.56,1.56,0,0,0,248.59,149.88Zm-9.14,7.84a22.44,22.44,0,0,0-1.18,3.37,12.24,12.24,0,0,0-1.55-2.51,13.06,13.06,0,0,0-6.27-4,15.86,15.86,0,0,0,6.47-8.63,11.7,11.7,0,0,0,1.77,2.29,18,18,0,0,0,5.58,4A13.85,13.85,0,0,0,239.45,157.72Z" transform="translate(0 81.69)"/><path class="cls-1" d="M69.93,44.34c-.25-2.93-3.18-4.63-5.51-5.81A39.65,39.65,0,0,0,53.79,35c-1.44-.27-3.14-.28-4.45-1-1.66-.88-1.61-2.65-1.38-4.29C49,21.92,50.76,14.2,52.14,6.49c.29-1.6.63-3.4-.32-4.85A3.31,3.31,0,0,0,48,.16c-1.67.58-2.64,2.66-3.57,4Q42.69,6.79,41,9.47A200.4,200.4,0,0,0,29,31.25L16.93,29.82,10.33,29c-1.46-.17-3.11-.37-4.37.59-3.24,2.46.35,6,2.48,7.5l9.85,7.11Q15,52.87,11.61,61.49L8,70.7c-.78,2-2.21,5,.3,6.46,2.16,1.25,4.39-.7,5.77-2.2,2.21-2.42,4.38-4.87,6.57-7.31L31.3,55.85l1.26,20.73q.36,6,.73,12c.14,2.38-.41,7.58,2.91,8.17s3.76-4.1,4.21-6.26q1.26-6,2.15-12.07t1.36-11.88q.24-2.9.4-5.81a13.83,13.83,0,0,1,.85-5.15c1.27-2.74,4.53-3.56,7.23-4.13,3.82-.8,7.66-1.53,11.49-2.3C66.49,48.63,70.22,47.81,69.93,44.34Zm-7,1.87c-3.48.69-7,1.37-10.46,2.09a19.49,19.49,0,0,0-7,2.48,9.26,9.26,0,0,0-3.9,6.67c-.48,3.35-.46,6.8-.77,10.18A194.82,194.82,0,0,1,37.6,88.85q-.3,1.5-.63,3c-.09.38-.15.81-.27,1.19,0-.1,0-.17,0-.15a14.53,14.53,0,0,1-.11-1.62c-.07-1-.13-2-.19-3.08Q36,82.35,35.65,76.5l-1.5-24.62c-.09-1.42-1.92-1.68-2.75-.76q-5.55,6.16-11.09,12.32L15,69.38l-2.88,3.2a12.24,12.24,0,0,1-1.16,1.23c-.25.21-1.08.65-1.06.67a31.88,31.88,0,0,1,1.23-3.12l1.56-4c1-2.49,1.94-5,2.9-7.48q3-7.77,6-15.54a1.57,1.57,0,0,0-.45-1.83l-8.32-6a48.45,48.45,0,0,1-3.94-2.88c-.23-.2-1.15-1-1-1.37S8.91,32,9.29,32c6.81.67,13.61,1.61,20.41,2.42a1.49,1.49,0,0,0,1.68-1.28,1.54,1.54,0,0,0,.33-.45,194.62,194.62,0,0,1,9.58-17.91Q44,10.38,46.89,6.1c.44-.63.87-1.27,1.31-1.89.32-.46.74-1.45,1.13-.64.23.49-.06,1.38-.14,1.88-.17,1-.36,2-.54,3C47.41,15.28,45.94,22.13,44.93,29c-.38,2.58-.2,5.41,2,7.12s5.45,1.63,8.06,2.24a32.67,32.67,0,0,1,9.67,3.8c.7.44,2.32,1.51,2.16,2.52C66.65,45.9,63.78,46,62.89,46.21Z" transform="translate(0 81.69)"/><path class="cls-1" d="M55,24.17a23.48,23.48,0,0,0,7.1-6.58,1.55,1.55,0,0,0-1.79-2.4,12.91,12.91,0,0,0-7,6.06,1.2,1.2,0,0,0-.12.42l0,0a1.55,1.55,0,0,0-.31,2.16A1.59,1.59,0,0,0,55,24.17Zm2.84-3.89,0,0,0,0C57.86,20.29,57.79,20.33,57.83,20.28Z" transform="translate(0 81.69)"/><path class="cls-1" d="M22.72,19a1.27,1.27,0,0,0,.11-.13,1.43,1.43,0,0,0,.66-1,12.48,12.48,0,0,0-2.75-9.31,1.58,1.58,0,0,0-1.63-.56A1.52,1.52,0,0,0,18,9.19a15.51,15.51,0,0,0,2.59,9.46A1.55,1.55,0,0,0,22.72,19Z" transform="translate(0 81.69)"/><path class="cls-1" d="M8.56,49.53a1.71,1.71,0,0,0-.8-.08A1.33,1.33,0,0,0,7,49.37,9.08,9.08,0,0,0,.12,55.22,1.59,1.59,0,0,0,.3,56.77a1.5,1.5,0,0,0,1.43.6,11.52,11.52,0,0,0,7.63-5.8A1.55,1.55,0,0,0,8.56,49.53Zm-2.15,1v0C6.32,50.69,6.2,50.8,6.41,50.53ZM4.49,54h0l0,0Zm-3,.27c-.11,0-.31.05,0,0ZM7,52.54H7l.09,0h0C7.21,52.49,7.24,52.5,7,52.54Z" transform="translate(0 81.69)"/><path class="cls-1" d="M56.78,61a1.55,1.55,0,0,0-1.68-.54,2.35,2.35,0,0,0-2.35,1.4,3.21,3.21,0,0,0,.17,2.64c.6,1.36,1.21,2.72,1.84,4.07a3.5,3.5,0,0,0,1.6,1.85,2.37,2.37,0,0,0,2.77-.64c1.19-1.35.46-3.19-.12-4.63A22.4,22.4,0,0,0,56.78,61Z" transform="translate(0 81.69)"/></g><g id="图层_9" data-name="图层 9"><path class="cls-1" d="M481.19-32.3c-10.6-2.29-21.73.56-31.09,5.66h0a219.4,219.4,0,0,0-16.47-19.44,160.11,160.11,0,0,0-19.69-17.55h0a1.38,1.38,0,0,0-.61-.45h0a128.77,128.77,0,0,0-11.63-7.72,96.65,96.65,0,0,0-18.23-8.67c-5.64-1.86-12.83-1.74-17.73,1.93-5.09,3.81-7.18,10.36-8.19,16.37a82.91,82.91,0,0,0-1,18,107.9,107.9,0,0,0,8.13,35,151.75,151.75,0,0,0,19,33h0a32.93,32.93,0,0,0-5.52,4.15,1.61,1.61,0,0,0-.56.54,34.06,34.06,0,0,0-10,20.6c-1.23,10.82,2.21,21.88,7.95,31,6.68,10.61,16.6,19.29,27.14,26,3.5,2.22,8.49,4.3,12.26,1.48,4.68-3.5,2.71-9.79.63-14.13a21.93,21.93,0,0,1-2.51-8,19.6,19.6,0,0,1,.92-7.49,19.14,19.14,0,0,1,9.38-11.26,17.24,17.24,0,0,0,8.29-.18h0c.33,4.11,4.06,7.27,8,7.89a12.44,12.44,0,0,0,1.6.12,28.11,28.11,0,0,0-2,8.53c-.2,3-.28,7.16,1.68,9.62,2.27,2.86,5.59,1.07,7.64-1a48.33,48.33,0,0,0,5-5.92,67.51,67.51,0,0,0,5,9.06c1.21,1.86,2.48,3.68,3.76,5.49a32.82,32.82,0,0,0,3.58,4.77,5.12,5.12,0,0,0,4.09,1.7,3.9,3.9,0,0,0,3.18-3.38,36.64,36.64,0,0,0,.1-6.87c0-1.7,0-3.39-.05-5.09l9.16,6c2.72,1.8,6.08,4.5,9.52,2.9,3.12-1.44,4.15-5.27,3.4-8.41-.87-3.59-3.61-6.24-4.85-9.66-.18-.5-.84-2.19-.41-2.67s1.27-.11,1.8,0c1.7.39,3.37.84,5.11,1.07,3,.39,6.46.14,9-1.65,3.77-2.63.19-7.46-1.89-9.88A66.13,66.13,0,0,0,492.7,59c.69-.24,1.4-.42,2-.62A28.34,28.34,0,0,0,499,56.77c3.44-1.81,4.57-5.23,2.16-8.42-2.12-2.8-5.57-4.68-8.71-6.12a34.79,34.79,0,0,0-9.43-2.61,8.83,8.83,0,0,0-.21-3.94,10.19,10.19,0,0,0-4.16-6h0a12.7,12.7,0,0,0,1.21-3.23h0a14,14,0,0,1,11.61-5.34c5.45.2,9.93,4.57,14.4,7.21,3.66,2.18,8.44,3.72,12.11.71,4.05-3.32,3.66-9,2.53-13.6-1.29-5.19-3.82-10.24-6.07-15.08A82.44,82.44,0,0,0,506.11-14C499.94-22.32,491.59-30.06,481.19-32.3Zm-1.11,54.18v0c-.73-5.54-4.28-10.39-7.18-15-3.95-6.27-8-12.5-12.12-18.64-2.84-4.17-5.76-8.31-8.79-12.36a54.74,54.74,0,0,1,6.47-2.94A396.26,396.26,0,0,1,485.19,19,17.33,17.33,0,0,0,480.08,21.88Zm-119-53.61c-2.1-11-2.69-23.34.38-34.27,1.63-5.82,5-11.33,11.45-12.33s12.43,1.65,18.14,4.36A120.1,120.1,0,0,1,409.31-63.2h0a102.7,102.7,0,0,0-48.09,32.1h0C361.19-31.31,361.15-31.51,361.11-31.73Zm.94,4.4a1.25,1.25,0,0,0,.23-.23,100,100,0,0,1,50.16-33.35h0c1.65,1.23,3.26,2.51,4.85,3.81h0a118.59,118.59,0,0,0-44.21,26.9A114.14,114.14,0,0,0,364-20.25v0Q362.89-23.76,362.05-27.33ZM409.88,84.32a20.19,20.19,0,0,0,1.06,6.21c.87,2.5,2.32,4.76,3.18,7.27.74,2.17,1.1,5.15-.72,6.92-1.56,1.51-3.9,1.09-5.74.4a27.38,27.38,0,0,1-5.92-3.44c-2.55-1.76-5.05-3.6-7.45-5.56A80.67,80.67,0,0,1,381.5,83.25c-6.32-8.1-10.74-18.11-11.1-28.48a32.08,32.08,0,0,1,8.4-23.21,210.22,210.22,0,0,0,35,39.66A23.12,23.12,0,0,0,409.88,84.32Zm5.76-15.55A206.94,206.94,0,0,1,381,29.4a30.18,30.18,0,0,1,4.42-3.16C394,37.47,403.73,47.9,413.53,58q3,3,6,6.08a1.17,1.17,0,0,0,.24,1.11h0A21.51,21.51,0,0,0,415.64,68.77Zm75.12-24a23.48,23.48,0,0,1,7.4,4.7c.93,1,1.91,2.26.87,3.48a7.33,7.33,0,0,1-3.27,1.81c-2.29.78-5.14,1.32-7,2.94a1.55,1.55,0,0,0,.29,2.43,76.61,76.61,0,0,1,10.84,9,23.23,23.23,0,0,1,4,5,5.12,5.12,0,0,1,.62,1.66.69.69,0,0,1-.21.64c-2.2,1.8-5.92,1.46-8.49,1-2.32-.46-6-2.19-8-.06-2.09,2.29-.41,6.16.85,8.43,1.5,2.72,4.4,5.9,3.68,9.26-.35,1.62-1.55,3-3.3,2.66s-3.63-1.9-5.14-2.9l-11.52-7.6a1.55,1.55,0,0,0-2.32,1.31q.07,6.12.13,12.23c0,1,.23,3.65-1.41,2.72-1.33-.76-2.17-2.37-3-3.57-4.07-5.73-7.92-11.49-10.54-18.05-.47-1.18-2.1-.9-2.68,0a48.83,48.83,0,0,1-4.67,6.13,20.52,20.52,0,0,1-2.51,2.51c-1.27,1-2.1.61-2.57-.87-1.45-4.65-.31-10.56,1.63-14.89a1.54,1.54,0,0,0,.14-.57c3.57-.86,6.9-3,9.93-5a119.45,119.45,0,0,0,15.39-11.66,80.74,80.74,0,0,0,6.63-6.71,32.26,32.26,0,0,0,5.36-7.55c.1-.2.18-.41.27-.61A31.4,31.4,0,0,1,490.76,44.81ZM477.05,32.27a7,7,0,0,1,2.86,4.35,6.3,6.3,0,0,1,0,3.05,1.51,1.51,0,0,0-.4,1.29,14.79,14.79,0,0,1-.64,1.42c-2.34,4.55-6.34,8.42-10,11.88a106.84,106.84,0,0,1-12.37,9.87c-3.77,2.6-7.86,5.74-12.37,6.89-3.84,1-9.69-.57-9.44-5.5v-.09c.63-.27,1.26-.56,1.86-.87a55.6,55.6,0,0,0,8.78-6L451,54c.22.24.46.48.68.73l0,0a7.8,7.8,0,0,0,9.8,1.76,8.87,8.87,0,0,0,4.38-9.17,14.77,14.77,0,0,0-1.41-4c2.44-1.91,4.85-3.84,7.26-5.81A33.11,33.11,0,0,0,477,32.27h0Zm-17.67,9.08c.32.43.65.88,1,1.35a19.6,19.6,0,0,1,1.59,2.69c1.05,2.2,1.45,4.55-.11,6.75a4.9,4.9,0,0,1-8,.47l0,0-.43-.45-2.08-2.27A184.23,184.23,0,0,1,439.08,35.2c-2.54-3.42-4.93-6.94-7.25-10.51-2.22-3.41-4.54-6.53-4.7-10.74a4.32,4.32,0,0,1,1.61-3.83c1.05-.9,2.58-1.7,4-1.21,4.19,1.46,7.07,6.27,9.58,9.6,2.93,3.89,5.78,7.84,8.67,11.75C453.72,34,456.65,37.61,459.38,41.35Zm16.9-13.63a20,20,0,0,1-5.57,6.69c-2.53,2.17-5.21,4.2-7.81,6.27,0,0-.08,0-.1.08-1.25-1.81-2.69-3.49-4-5.13-3.6-4.63-7-9.4-10.52-14.13-1.67-2.26-3.34-4.52-5.05-6.76a36.5,36.5,0,0,0-5.23-6c-1.62-1.38-3.68-2.94-5.89-3.06A7.89,7.89,0,0,0,427,7.55c-3.37,2.67-3.39,6.52-2.35,10.4a20.65,20.65,0,0,0,2.9,5.83c1.51,2.36,3,4.71,4.63,7A195,195,0,0,0,448.9,51.76L446,54.05c-5,3.94-10.13,8.61-16.6,9.74a12.8,12.8,0,0,1-6.18-.35l0,0C404.28,44.26,385.07,24.58,372.54.5a126.2,126.2,0,0,1-7.44-17.28h0a115.37,115.37,0,0,1,54.94-38c1,.89,2,1.78,3,2.68,20.22,18.43,35.55,41.6,49.83,64.75,2.3,3.72,4.78,8.15,4.1,12.56a1.32,1.32,0,0,0-.11.63h0a0,0,0,0,1,0,0A9.59,9.59,0,0,1,476.28,27.72ZM502.17-14.1a73,73,0,0,1,8.4,13.4,124.25,124.25,0,0,1,6.14,14c1.39,3.94,3.25,10.74-1,13.62-3.75,2.52-8.88-1.69-11.87-3.68-4.5-3-9.12-5.78-14.72-5.12-.3,0-.59.1-.88.14a2.28,2.28,0,0,0-.13-.36,397.18,397.18,0,0,0-26.62-46,39.54,39.54,0,0,1,16.24-1.68C487.83-28.57,496-21.81,502.17-14.1Z" transform="translate(0 81.69)"/><path class="cls-1" d="M421-39.13c-5.55-3.33-12.94-3.78-19.09-2a30.72,30.72,0,0,0-15.51,11.34,25.41,25.41,0,0,0-1.21,28.54A26.26,26.26,0,0,0,412.44,10,27,27,0,0,0,433-11.6C434.64-22,430.27-33.56,421-39.13Zm9.23,24.19A23.85,23.85,0,0,1,414.81,6.11,23.05,23.05,0,0,1,389.74-.34c-6.85-7.74-6.88-19.78-.66-27.89,5.94-8.4,17.61-13.3,27.55-9.62C425.7-34.5,430.66-24.17,430.25-14.94Z" transform="translate(0 81.69)"/><path class="cls-1" d="M399.32-31.49a21.12,21.12,0,0,0-8.84,10,17.92,17.92,0,0,0,4.77,19.28c5.71,5.06,14,6.94,20.89,3.09s10.12-11.69,9.56-19.33a19,19,0,0,0-4.29-11.35A15.41,15.41,0,0,0,411-34.89C406.83-35.21,402.84-33.69,399.32-31.49ZM422.45-20c.95,6.31-1,13.26-6.27,17.16S404.26.38,399-3.2a14.94,14.94,0,0,1-5.53-17.49,17.2,17.2,0,0,1,6.76-7.71,18.51,18.51,0,0,1,8.58-3.41,12.59,12.59,0,0,1,8.92,2.68A14.2,14.2,0,0,1,422.45-20Z" transform="translate(0 81.69)"/><path class="cls-1" d="M402.65-17.37a1.58,1.58,0,0,0-.6,2.1q1.27,3,2.56,5.94a1.53,1.53,0,0,0,2.09.61,1.58,1.58,0,0,0,.61-2.09l-2.56-6A1.56,1.56,0,0,0,402.65-17.37Z" transform="translate(0 81.69)"/><path class="cls-1" d="M410.31-23.95a1.55,1.55,0,0,0-1,.71,1.51,1.51,0,0,0-.17,1.15c.76,2,1.51,3.92,2.27,5.87a1.67,1.67,0,0,0,.71,1,1.59,1.59,0,0,0,1.15.17,1.56,1.56,0,0,0,1-.72,1.46,1.46,0,0,0,.17-1.15c-.75-2-1.51-3.91-2.26-5.87a1.73,1.73,0,0,0-.72-1A1.59,1.59,0,0,0,410.31-23.95Z" transform="translate(0 81.69)"/></g></g></svg>