<svg xmlns="http://www.w3.org/2000/svg" viewBox="0 0 137.51 110.07"><defs><style>.cls-1{fill:#ffb53f;}</style></defs><title>two</title><g id="图层_2" data-name="图层 2"><g id="POST_5" data-name="POST 5"><path class="cls-1" d="M52.87,54.57C52.88,69.21,61,80,75.3,86.38c19,8.5,29.13.17,40.84-11.16,7.63-7.39,24.58-25.76,20.83-43.7C133.66,15.65,107.44-5.63,85.19,1.37,67.23,7,52.85,33.92,52.87,54.57Z"/><path class="cls-1" d="M0,95.85c0,5.9,3.26,10.23,9,12.81,7.65,3.42,11.74.07,16.46-4.49,3.07-3,9.9-10.38,8.39-17.61C32.54,80.17,22,71.6,13,74.42,5.79,76.69,0,87.53,0,95.85Z"/></g></g></svg>