<svg xmlns="http://www.w3.org/2000/svg" viewBox="0 0 277.38 267.24"><defs><style>.cls-1{fill:#1a3869;}</style></defs><title>资源 44</title><g id="图层_2" data-name="图层 2"><g id="page3"><path class="cls-1" d="M-1406.67,1226.1c-6.16-31.23-33.35-55.36-63.38-63.13-4.28-1.11-8.61-2-13-2.66-15.59-2.48-31.45-.5-45.6,6.65a74,74,0,0,0-33.34,34.89c-7,14.81-10.27,31.75-7.86,48a72.88,72.88,0,0,0,21.71,42.39,105.49,105.49,0,0,0,23,15.93,146.48,146.48,0,0,0,26.49,11.2c16.7,5,35.09,5.61,51.1-2.05,15.6-7.46,27.19-23.12,33.88-38.67a103.69,103.69,0,0,0,7.25-27.77C-1405.33,1242.56-1405,1234.39-1406.67,1226.1Zm-32.31,80.32c-27.48,23.85-68.64,9-95.14-8.72-13.55-9.07-23.83-21.64-28.77-37.28-4.69-14.85-4-30.49.52-45.29,4.63-15.07,13.38-29.07,26.25-38.4a68.34,68.34,0,0,1,40.73-13.08,74,74,0,0,1,11.31,1c15.08,2.42,29.55,7,41.95,16.17,11.91,8.81,22,20.55,27.57,34.37a62.91,62.91,0,0,1,4.7,21.93,100.81,100.81,0,0,1-3.3,26.15C-1417.22,1279.78-1426.06,1295.2-1439,1306.42Z" transform="translate(1610.22 -1093.57)"/><path class="cls-1" d="M-1334.4,1203.13c-4.08-14-15.2-24.26-28.85-28.83a40,40,0,0,0-27,.32c-6.93,2.46-13.59,7.64-13.89,15.15a1.92,1.92,0,0,0-.29.72c-.91-1.32-1.84-2.63-2.82-3.9a104.78,104.78,0,0,0-19.81-19.66,11.17,11.17,0,0,0,3-11.66c-1.4-4.53-5.07-7.92-9.2-10-4-2-8.62-3.55-13.1-2.57s-7.2,4.83-9.44,8.55l-1.23-.47q-4.92-1.74-10-3a1.31,1.31,0,0,0-.21-.08l-.71-.16-.93-.22a135.63,135.63,0,0,0-31.58-3.89c1.22-.39,2.44-.76,3.65-1.17,7-2.37,12.67-6.68,13.21-14.58.51-7.44-3.41-14.85-8.12-20.35-20.71-24.17-63.73-14.69-74.28,14.64a36.45,36.45,0,0,0-.17,24.64c2.56,6.87,9,13.44,16.64,10.7l.19,0c2.31-.69,4.64-1.34,6.95-2a97.87,97.87,0,0,0-19.65,16.1c-14.47,15.31-23.47,35.47-26.29,56.27a111.32,111.32,0,0,0-1,16.51c-7.34.41-16,1.77-19.57,9a11.11,11.11,0,0,0,.22,10.86c2.25,3.47,6.27,5.17,10.11,6.25a36.77,36.77,0,0,0,13.85,1.13,79.12,79.12,0,0,0,9.72,18c13.12,18.32,32.64,30.94,53.33,39.18,11,4.38,22.74,8.52,34.7,10.65-.42,7.35.08,16.42,7.59,20.12,7,3.45,16.91.92,19.79-6.71a30.16,30.16,0,0,0,1.36-7q.42-3.18.82-6.35a73.36,73.36,0,0,0,13.8-4.69,82,82,0,0,0,14.16-7.65c9.19-6.39,16.8-15.13,23.14-24.28,12.33-17.8,19.82-38.84,19.07-60.64,0-.3,0-.6,0-.9.3.65.56,1.32.87,2,3.43,7,9.12,12.13,17.21,12.46s16-4,21.87-9.14C-1335.3,1235.88-1329.94,1218.44-1334.4,1203.13Zm-111-56.17c3.14-.75,6.65.55,9.44,1.91,3,1.48,6,3.64,7.29,6.85a7,7,0,0,1-1.88,8.36c-.08.07-.14.15-.21.22a111.9,111.9,0,0,0-20.94-11.45C-1450.14,1150.34-1448.36,1147.68-1445.36,1147Zm-117.6-5a33,33,0,0,1,1.25-19c4.33-12,15.32-20.45,27.37-23.65,13.41-3.56,28.38-.55,38.15,9.61,4.31,4.49,7.94,10.65,8.18,17,.29,7.61-5.58,10.67-12,12.64-16.4,5-33.06,9.19-49.51,14.08a2.22,2.22,0,0,0-1,.24C-1557.28,1156.33-1561.72,1147-1563,1142Zm-34.56,124c-3.37-1-7.82-2.65-8.25-6.68-.41-3.78,2.24-6.8,5.38-8.46,3.42-1.81,7.38-2.12,11.21-2.28a101.45,101.45,0,0,0,1.07,10.28,61.25,61.25,0,0,0,1.9,8.25A33,33,0,0,1-1597.52,1266Zm133.85,84.93c-1.21,3.55-4.74,5.25-8.3,5.44-4.19.22-7.74-1.61-9.47-5.5-1.51-3.42-1.42-7.28-1.18-11a78.6,78.6,0,0,0,20.67.18c-.18,1.34-.35,2.67-.52,4A34.61,34.61,0,0,1-1463.67,1350.89Zm61.83-64.42a113.05,113.05,0,0,1-18.76,26.81,74.55,74.55,0,0,1-25.63,17.61,68.91,68.91,0,0,1-12.56,4.13l0,0a2.43,2.43,0,0,0-1.9.41,67,67,0,0,1-14.7.66c-10.4-.6-20.35-3.36-30.21-6.52-20.67-6.63-40.4-16-56-31.41a81.34,81.34,0,0,1-18.12-26.24c-4-9.61-5.27-19.92-5.19-30.27a101.9,101.9,0,0,1,17.51-56.62c9.27-13.5,22.81-25.26,38-31.56,14.83-6.13,31.06-6.69,46.77-4.31,4.58.69,9.12,1.62,13.62,2.69a106,106,0,0,1,48.25,26.26,95.46,95.46,0,0,1,27.5,50.11C-1389.34,1248.06-1392.73,1268.49-1401.84,1286.47Zm53.84-45.61c-4.7,5-11.71,9.49-18.67,10.16-7.67.73-12.77-3.71-16-10.25-3.76-7.71-6.21-16.25-9-24.36s-5.45-16.52-8.11-24.8h0c-1.36-7.46,6.92-11.61,12.72-13.4a34.66,34.66,0,0,1,21.62,0c11.75,3.75,21.9,12.13,26,24a35.73,35.73,0,0,1,1.09,21A42.31,42.31,0,0,1-1348,1240.86Z" transform="translate(1610.22 -1093.57)"/><path class="cls-1" d="M-1368.09,1208.93a14.86,14.86,0,0,1,2.07.71l-.08,0,.15.07.46.2c.36.15.72.32,1.07.49.66.31,1.3.65,1.93,1a2.24,2.24,0,0,0,3-.85,2.26,2.26,0,0,0-.84-3,32.13,32.13,0,0,0-8.82-3.43,2.25,2.25,0,0,0-2.68,1.62,2.25,2.25,0,0,0,1.62,2.68C-1369.49,1208.54-1368.78,1208.72-1368.09,1208.93Z" transform="translate(1610.22 -1093.57)"/><path class="cls-1" d="M-1362.65,1218.38l-8.47-3.31a2.22,2.22,0,0,0-1.67.25,2.29,2.29,0,0,0-1,1.37,2.26,2.26,0,0,0,.25,1.67,2.63,2.63,0,0,0,1.37,1l8.47,3.31a2.25,2.25,0,0,0,1.68-.25,2.25,2.25,0,0,0,1-1.37,2.26,2.26,0,0,0-.25-1.67A2.68,2.68,0,0,0-1362.65,1218.38Z" transform="translate(1610.22 -1093.57)"/><path class="cls-1" d="M-1534,1127.46a2.25,2.25,0,0,0,3-.84q2-4.15,4.1-8.31a2.26,2.26,0,0,0-.85-3,2.25,2.25,0,0,0-3,.85l-4.11,8.31A2.26,2.26,0,0,0-1534,1127.46Z" transform="translate(1610.22 -1093.57)"/><path class="cls-1" d="M-1522.92,1129a2.25,2.25,0,0,0,3-.85l3.51-7.2a2.25,2.25,0,0,0-.85-3,2.24,2.24,0,0,0-3,.85l-3.51,7.19A2.26,2.26,0,0,0-1522.92,1129Z" transform="translate(1610.22 -1093.57)"/><path class="cls-1" d="M-1446,1186.63a3.16,3.16,0,0,0-2-1,2.28,2.28,0,0,0-2.53.42,15.63,15.63,0,0,0-3.75,4.9,7,7,0,0,0-.89,3.17,3.3,3.3,0,0,0,2.26,3.2c2.57.83,4.62-2.08,5.88-3.87S-1444.09,1188.74-1446,1186.63Zm-4.81,7.25v0Zm0,.33s0-.1,0-.17C-1450.79,1194.14-1450.8,1194.23-1450.81,1194.21Zm0-.2v0h0v0h0v0s0,.07,0,0a1.32,1.32,0,0,1,0,.2A1.55,1.55,0,0,0-1450.77,1194Zm2.73-4v0l0,0h0l0,0,0,0c-.08.06-.12.07-.09,0s0,0,0,0l0,0a.11.11,0,0,1,.07,0l0,0,0-.05c.09-.18.15-.08,0,.06C-1448,1189.91-1448,1189.93-1448,1190Z" transform="translate(1610.22 -1093.57)"/><path class="cls-1" d="M-1448,1189.9a.48.48,0,0,0,.1-.12A.58.58,0,0,1-1448,1189.9Z" transform="translate(1610.22 -1093.57)"/><polygon class="cls-1" points="162.2 96.33 162.2 96.33 162.2 96.34 162.2 96.33"/><polygon class="cls-1" points="162.14 96.38 162.15 96.38 162.15 96.38 162.14 96.38"/><path class="cls-1" d="M-1448.07,1190h0Z" transform="translate(1610.22 -1093.57)"/><polygon class="cls-1" points="162.19 96.35 162.2 96.34 162.19 96.35 162.19 96.35"/><path class="cls-1" d="M-1448,1189.92l0,0h0l0,0Z" transform="translate(1610.22 -1093.57)"/><polygon class="cls-1" points="162.19 96.35 162.2 96.35 162.19 96.35 162.19 96.35"/><path class="cls-1" d="M-1450.76,1194h0v0h0Z" transform="translate(1610.22 -1093.57)"/><path class="cls-1" d="M-1424.78,1275.94a5.42,5.42,0,0,0-2.18-1.46c-1-.38-2-.74-2.92-1.1a6.45,6.45,0,0,0-2.86-.63,3.32,3.32,0,0,0-3.15,3.28,3.23,3.23,0,0,0,.18.83,2.1,2.1,0,0,0,1.06,1.72c1.66.91,3.32,1.83,5,2.72a4.93,4.93,0,0,0,3.08.69,3.32,3.32,0,0,0,2.72-2.52A4,4,0,0,0-1424.78,1275.94Zm-3.41,2.83h0a.32.32,0,0,0,0,.08Z" transform="translate(1610.22 -1093.57)"/><path class="cls-1" d="M-1516.43,1281.1a3,3,0,0,0-1.81.15,2.14,2.14,0,0,0-2.15.54,25.89,25.89,0,0,0-4.76,6.74c-.69,1.46-1.11,3.23-.18,4.7a4.22,4.22,0,0,0,4,1.91c3.07-.32,4.76-3.33,5.89-5.87a16,16,0,0,0,1.35-4C-1513.85,1283.52-1514.48,1281.58-1516.43,1281.1Zm-5.48,9.59h0Zm.1,0,0,0h0l0,0h-.06l0,0Zm0,0h0Zm5.2-5.4,0,0,0,0h0l.13-.13C-1516.41,1285.24-1516.56,1285.32-1516.6,1285.33Z" transform="translate(1610.22 -1093.57)"/><path class="cls-1" d="M-1521.77,1290.73h0Z" transform="translate(1610.22 -1093.57)"/><path class="cls-1" d="M-1536.45,1202.66a14.15,14.15,0,0,0-5-3.52,10.5,10.5,0,0,0-2.94-1.12,3.79,3.79,0,0,0-3.84,1.64,3.66,3.66,0,0,0,2.32,5.48,45.38,45.38,0,0,0,8.19,5.24c1.15.57,3,.12,3.24-1.4A8.08,8.08,0,0,0-1536.45,1202.66Z" transform="translate(1610.22 -1093.57)"/><path class="cls-1" d="M-1462.92,1205.48a231.9,231.9,0,0,0-22.82,29,7.18,7.18,0,0,0-1.12-.23c-3.62-2-8.37-.64-10.72,2.67a8.69,8.69,0,0,0-1.51,5.81l-9.4-.5c-3-.16-6.15-.59-9,.46a2.23,2.23,0,0,0,.1,4.27,47.4,47.4,0,0,0,20.17,2.15,2.68,2.68,0,0,0,.75-.2,10.37,10.37,0,0,0,11.1,2.89c3.76-1.51,6.67-5.46,6.19-9.64a8.9,8.9,0,0,0-.93-3l.18-.22,20.55-30.85C-1458,1206-1461.23,1203.66-1462.92,1205.48Zm-31,33.86c-.06.08-.13.15,0,0Zm10.05,5.1c0,.08-.09.23-.11.31a9,9,0,0,1-.43.81c-.09.16-.2.31-.3.46l-.07.07-.71.74-.07.06a5.58,5.58,0,0,1-.64.44l-.35.2-.1.06h0a7.83,7.83,0,0,1-.9.29s-.71.12-.29.07l-.43,0c-.22,0-.43,0-.65,0l-.37,0a6.4,6.4,0,0,1-1-.19l-.42-.12-.37-.15c-.29-.13-.58-.28-.86-.44-.12-.08-.24-.16-.37-.23l-.14-.09-.1-.09c-.27-.24-.54-.48-.79-.75,0,0-.44-.56-.2-.23l-.24-.36a6.71,6.71,0,0,1-.49-.87,1.3,1.3,0,0,1,0-.14c-.09-.27-.19-.54-.26-.82s-.07-.28-.1-.42a.19.19,0,0,0,0-.08s0,0,0-.09c0-.32,0-.64,0-1,0,0,0-.38,0-.42s0-.18,0-.26.09-.42.14-.62l.12-.34a6.53,6.53,0,0,1,.54-1l0,0c.14-.15.27-.3.41-.43l.31-.25.36-.25.44-.24h0l.31-.11c.12,0,.25-.08.38-.12l.49-.1.32,0h.51a2.07,2.07,0,0,0,1.85.94,7.88,7.88,0,0,1,.84,0s.56.08.69.12.31.11.47.14h0l.06,0c.31.18.62.34.91.54,0,0,.41.33.48.4s.37.41.43.45a7,7,0,0,1,.47.73s.14.28.17.32.1.28.14.42.09.31.13.47a.2.2,0,0,0,0,0,.17.17,0,0,0,0,.07,8.66,8.66,0,0,1,0,1c0-.1.08-.42,0,0,0,.2-.07.4-.12.59A3.64,3.64,0,0,1-1483.83,1244.44Z" transform="translate(1610.22 -1093.57)"/><path class="cls-1" d="M-1484.85,1182.55a2.27,2.27,0,0,0,.67,1.53,2.25,2.25,0,0,0,1.6.62,2.24,2.24,0,0,0,2.15-2.27l-.15-5.64a2.29,2.29,0,0,0-.67-1.52,2.25,2.25,0,0,0-1.6-.63,2.25,2.25,0,0,0-2.16,2.27C-1485,1178.79-1484.9,1180.67-1484.85,1182.55Z" transform="translate(1610.22 -1093.57)"/><path class="cls-1" d="M-1512,1181.66a2.32,2.32,0,0,0-1-1.3,2.22,2.22,0,0,0-1.71-.19,2.23,2.23,0,0,0-1.31,1,2.24,2.24,0,0,0-.19,1.7c.47,1.42.93,2.84,1.39,4.26a2.34,2.34,0,0,0,1,1.31,2.31,2.31,0,0,0,1.71.19,2.2,2.2,0,0,0,1.31-1,2.27,2.27,0,0,0,.19-1.71C-1511.07,1184.5-1511.54,1183.08-1512,1181.66Z" transform="translate(1610.22 -1093.57)"/><path class="cls-1" d="M-1424.28,1220.15a2.23,2.23,0,0,0-1.6-.63l-4.2.19a2.38,2.38,0,0,0-1.53.67,2.34,2.34,0,0,0-.63,1.6,2.23,2.23,0,0,0,.67,1.53,2.28,2.28,0,0,0,1.61.63l4.2-.19a2.38,2.38,0,0,0,1.53-.67,2.29,2.29,0,0,0,.62-1.61A2.22,2.22,0,0,0-1424.28,1220.15Z" transform="translate(1610.22 -1093.57)"/><path class="cls-1" d="M-1429.46,1253.81l3,1.71a2.26,2.26,0,0,0,1.71.2,2.29,2.29,0,0,0,1.3-1,2.22,2.22,0,0,0,.19-1.71,2.26,2.26,0,0,0-1-1.31l-3-1.71a2.26,2.26,0,0,0-1.71-.2,2.25,2.25,0,0,0-1.3,1,2.22,2.22,0,0,0-.19,1.71A2.37,2.37,0,0,0-1429.46,1253.81Z" transform="translate(1610.22 -1093.57)"/><path class="cls-1" d="M-1452.24,1297.92a2.27,2.27,0,0,0-1-1.31,2.26,2.26,0,0,0-1.71-.19,2.23,2.23,0,0,0-1.31,1,2.41,2.41,0,0,0-.19,1.71c.37,1.47.74,2.95,1.1,4.43a2.32,2.32,0,0,0,1,1.3,2.27,2.27,0,0,0,1.71.2,2.28,2.28,0,0,0,1.31-1,2.42,2.42,0,0,0,.19-1.71C-1451.51,1300.87-1451.88,1299.39-1452.24,1297.92Z" transform="translate(1610.22 -1093.57)"/><path class="cls-1" d="M-1487.39,1298.19a2.27,2.27,0,0,0-1.71-.19,2.2,2.2,0,0,0-1.31,1l-2.06,4.38a2.37,2.37,0,0,0-.19,1.71,2.3,2.3,0,0,0,1,1.31,2.26,2.26,0,0,0,1.71.19,2.18,2.18,0,0,0,1.3-1q1-2.19,2.06-4.38a2.37,2.37,0,0,0,.2-1.71A2.34,2.34,0,0,0-1487.39,1298.19Z" transform="translate(1610.22 -1093.57)"/><path class="cls-1" d="M-1540.6,1263.69a2.35,2.35,0,0,0-1.68.25c-.18.11-.38.2-.57.3a9.46,9.46,0,0,1-1.57.47c-.32,0-.65.07-1,.08a2.27,2.27,0,0,0-1.53.67,2.25,2.25,0,0,0-.62,1.6,2.22,2.22,0,0,0,.67,1.53,2.3,2.3,0,0,0,1.6.62,10.8,10.8,0,0,0,5.28-1.48,2.28,2.28,0,0,0,1-1.36,2.22,2.22,0,0,0-.26-1.67A2.21,2.21,0,0,0-1540.6,1263.69Z" transform="translate(1610.22 -1093.57)"/><path class="cls-1" d="M-1547.58,1231.61l-4.79-1.43a2.23,2.23,0,0,0-2.68,1.62,2.26,2.26,0,0,0,1.62,2.67l4.78,1.43a2.22,2.22,0,0,0,2.68-1.62A2.24,2.24,0,0,0-1547.58,1231.61Z" transform="translate(1610.22 -1093.57)"/></g></g></svg>