<svg xmlns="http://www.w3.org/2000/svg" viewBox="0 0 39.06 39.72"><defs><style>.cls-1{fill:#1a3869;}</style></defs><title>资源 46</title><g id="图层_2" data-name="图层 2"><g id="page3"><path class="cls-1" d="M-3029.95,954.47c-2.48-1.56-5.69-1.1-8.45-1l-3.15.09c.08-1.92.17-3.85.22-5.77.12-3.14-.31-6.86-3.31-8.63-2.65-1.55-5.54-.15-7,2.17a1.43,1.43,0,0,0-.45.84,1.45,1.45,0,0,0-.15.84,74.68,74.68,0,0,0-1,11c-2.64.1-5.27.19-7.92.26a1.36,1.36,0,0,0-.3,0h-.15c-2.2.25-4.11,1.33-4.74,3.57a5.91,5.91,0,0,0,2.49,6.48c2.4,1.54,5.59,1,8.27.89l2-.09c0,1-.1,2-.16,3.05-.17,3-.07,6.31,2.31,8.48,1.94,1.74,4.93,2.22,7,.35s2.06-4.67,2.17-7.12c.08-1.76.17-3.54.26-5.3,2.41-.1,4.83-.21,7.23-.36,2.67-.18,5.48-.89,6.82-3.45A4.85,4.85,0,0,0-3029.95,954.47Zm-3.92,6.32a66.6,66.6,0,0,1-8,.46c-.53,0-1.07,0-1.59,0s-1.2.07-1.8.09c-.06,1.12-.11,2.24-.16,3.37s-.09,2.19-.15,3.28c-.07,1.61.41,6.61-2,6.85-1.57.16-2.49-1.7-2.76-2.94a17,17,0,0,1,0-4.4c.05-.86.1-1.71.14-2.57,0-1.11.08-2.23.13-3.35l-3,.14-.39,0-4.56.21a8.58,8.58,0,0,1-3.5-.24,2.51,2.51,0,0,1-1.62-2.85c.26-1,1.14-1.21,2.09-1.31,2.58-.07,5.16-.17,7.73-.27l3.37-.11c0-1.12.05-2.24.08-3.36a63,63,0,0,1,1-10.65,1.9,1.9,0,0,1,3.51-.19,7.86,7.86,0,0,1,.73,4.57c-.06,2-.16,4.06-.25,6.08-.06,1.13-.11,2.24-.16,3.36l2-.08,1.37-.06a58.46,58.46,0,0,1,7.82-.15c1,.08,2.76.41,3,1.66C-3030.53,960-3032.74,960.61-3033.87,960.79Z" transform="translate(3066.55 -938.49)"/></g></g></svg>