<svg xmlns="http://www.w3.org/2000/svg" viewBox="0 0 166.4 162.7"><defs><style>.cls-1{fill:#ffb53f;}.cls-2{fill:#1a3869;}</style></defs><title>资源 45</title><g id="图层_2" data-name="图层 2"><g id="page3"><path class="cls-1" d="M-1681.77,926.91c9.82,9.31,11.91,21.56,7.11,35.25-6.36,18.12-18.38,19.65-33.42,20.31-9.81.43-32.9.14-42.55-13.77-8.54-12.29-6.17-43.4,12.65-53.88C-1722.79,906.36-1695.61,913.79-1681.77,926.91Z" transform="translate(1783.05 -836.61)"/><path class="cls-1" d="M-1620.51,917.65c4,3.75,4.8,8.68,2.87,14.2-2.56,7.3-7.41,7.91-13.46,8.18-4,.17-13.26.06-17.14-5.55-3.44-5-2.49-17.48,5.09-21.7C-1637,909.37-1626.08,912.36-1620.51,917.65Z" transform="translate(1783.05 -836.61)"/><path class="cls-2" d="M-1642.59,905.71c-.85-11.25-4.93-22.57-13.52-30.23-17.67-15.77-45.24-14.85-66.24-7.06-10.62,3.94-21.64,9.57-29,18.47-7.84,9.52-9.39,21.47-8.45,33.43.9,11.5,3.75,23.87,11.87,32.53,6.59,7,17.14,12.21,27,12a5.57,5.57,0,0,0-.46,1.1c-.7,2.53-.22,5.28,2,6.89a7.53,7.53,0,0,0,3.74,1.31c-.15.22-.3.44-.43.67a6.75,6.75,0,0,0,.45,7.49,7.68,7.68,0,0,0,4.33,2.57,6,6,0,0,0-.85,3.44c.22,3,3.12,4.83,5.88,5.12,3.72.4,7.82-.43,11.5-1,.93-.13,1.86-.31,2.79-.47a9.46,9.46,0,0,0,1.88,5.17,7.29,7.29,0,0,0,5.72,2.17,8.81,8.81,0,0,0,6-2.13,8.77,8.77,0,0,0,3-4.76,8.37,8.37,0,0,0-.47-4.69c.92-.34,1.83-.7,2.73-1.09,3.09-1.31,6.84-2.7,9.14-5.27,1.88-2.1,2.6-5.21,1-7.67a6.48,6.48,0,0,0-1.86-1.83,7.25,7.25,0,0,0,1.53-4.51,5.68,5.68,0,0,0-3.15-5,8.77,8.77,0,0,0,2.8-4.59,6,6,0,0,0-2-5.87,40,40,0,0,0,16-13C-1642.93,929.57-1641.75,916.93-1642.59,905.71Zm-72.06,25c2.71,1.94,6.71,2.09,9.15-.42,2.65-2.73,1.53-7.2-1.39-9.24-2.71-1.89-6.06-1.53-8.9-.14,0-.22-.09-.45-.13-.66a19.18,19.18,0,0,1,.77-8.77c1.81-5.75,6.17-11.18,12.64-11.29,6-.09,11,3.91,13.65,9.13a11.12,11.12,0,0,0-6.12,3,8.3,8.3,0,0,0-1.71,10.12,6.73,6.73,0,0,0,9.12,2.42c3.74-2,5-6.23,4.56-10.23,0-.26-.08-.52-.13-.78l.46.17c6.39,2.62,8.8,10.15,9.27,16.48a36.43,36.43,0,0,1-4.78,20.9,2.27,2.27,0,0,0-.26.74c-9.76,2.72-19.88,3.87-29.67,6.43a1.7,1.7,0,0,0-.1-.14c-6.4-7.4-16.92-21.14-9.39-30.82A11.77,11.77,0,0,0-1714.65,930.76Zm.18-5.92c1.79-1.06,4-1.6,5.52-.19,2.45,2.22-.61,4.34-2.9,3.08A6.76,6.76,0,0,1-1714.47,924.84Zm27.27-6.54c-.63,2.34-3.86,5-5.82,2.36-1.77-2.37.19-5.29,2.38-6.49a7.75,7.75,0,0,1,3.27-.91A9.94,9.94,0,0,1-1687.2,918.3Zm7.62,71a6.36,6.36,0,0,1,.27,1c0,.11,0,.38,0,.44s0,.33,0,.5,0,.13,0,.19v.06l-.12.42s-.19.43-.23.5a5.2,5.2,0,0,1-.35.6c0,.07-.38.46-.07.12l-.44.49a10.69,10.69,0,0,1-1,.9s-.35.22-.41.26l-.13.07-.12,0a7.59,7.59,0,0,1-1.25.3l-.49,0h-.73l-.69,0h-.1l-.09,0-.71-.19-.07,0-.25-.13-.28-.17,0,0c-.08-.08-.48-.61-.26-.25a4.53,4.53,0,0,1-.27-.48c.1.2-.16-.45-.18-.54a9,9,0,0,1-.42-2.14c1.46-.31,2.92-.62,4.37-1s2.63-.74,3.93-1.15C-1679.64,989.14-1679.61,989.22-1679.58,989.26Zm13.28-11.62c-.75,2-3.75,3.12-5.52,4a70.7,70.7,0,0,1-13.58,4.86,101.7,101.7,0,0,1-14.27,2.5c-2.06.22-5.57,1.1-7.47,0-2.31-1.28.32-3.5,1.81-4.21,2.69-.38,5.37-1,8-1.53a187.38,187.38,0,0,0,21-5.41,48.54,48.54,0,0,0,7.4-2.78C-1667.37,974.73-1665.59,975.72-1666.3,977.64Zm-5.15-12c.69-.57,3.33,0,3.87.75,1.3,1.77-1.25,3.91-2.8,4.85l-.12,0a2.57,2.57,0,0,0-.51.31c-5.16,2.57-11.28,3.93-16.83,5.35-5.75,1.47-11.56,2.68-17.4,3.69-2.16.38-6.18,1.22-7.47-1.3s2.17-4.72,4.1-5.52c2.91-.24,5.81-.55,8.71-1a132.87,132.87,0,0,0,21.5-4.74c1.64-.52,3.62-1.15,5.59-2A2,2,0,0,0-1671.45,965.67Zm2.68-11c3.51,1.74-1.11,5.22-2.8,6.21-5.35,3.13-11.68,4.59-17.68,5.95a138.71,138.71,0,0,1-19.23,3h0a1.77,1.77,0,0,0-1,.07c-1.3.1-2.61.2-3.91.25-1.12,0-3.13.25-3.9-.87-1.28-1.86.8-3.68,2.44-4.71a1.82,1.82,0,0,0,1.3,0c11.34-4,24.63-5.19,36.77-8.55a2,2,0,0,0,.72-.14l.51-.21c1.28-.37,2.55-.77,3.79-1.2A5,5,0,0,1-1668.77,954.65Zm22.07-38.34a41.24,41.24,0,0,1-3.85,16.24c-4.56,9.13-13.25,14.63-22.58,18a40.36,40.36,0,0,0,3.36-23.61c-1.29-7.89-6-16-14.47-17.52l-.13,0c-2.38-6-7.43-11.19-13.74-12.71-8.75-2.09-16.27,2.92-19.82,10.79-2,4.54-3,10.87-1.52,16.14a17.17,17.17,0,0,0-4.65,10.94c-.58,9,5.22,17.5,10.91,24.36l-.24.09c-9.09,4.52-21.06-.12-28.42-6.07-8.32-6.73-11.86-17.33-13.31-27.61-1.55-11-1.56-23.27,4.77-32.88,5.87-8.89,15.73-14.47,25.3-18.57a81.47,81.47,0,0,1,31.94-6.68c10.73,0,21.39,2.05,30.37,8.2,8.71,6,13.79,15.29,15.53,25.58A70.36,70.36,0,0,1-1646.7,916.31Z" transform="translate(1783.05 -836.61)"/><path class="cls-2" d="M-1665.72,857.56a.36.36,0,0,0,0,.09,2.79,2.79,0,0,0,3.3,1,10.47,10.47,0,0,0,3.86-3,18.77,18.77,0,0,0,2.67-3.81,12.49,12.49,0,0,0,1.6-4.94,3.83,3.83,0,0,0-3.64-4.18c-1.89,0-3.32,1.56-4.44,2.91a21.13,21.13,0,0,0-4.58,9.52A2.1,2.1,0,0,0-1665.72,857.56Z" transform="translate(1783.05 -836.61)"/><path class="cls-2" d="M-1721.59,853.58c1.16,2.23,3.69,4.92,6.42,3.23a3.41,3.41,0,0,0,1.49-2.17,1.55,1.55,0,0,0,.64-1,24.42,24.42,0,0,0-.2-8.31,21.54,21.54,0,0,0-1.08-3.62,11.82,11.82,0,0,0-2-3.65,4.19,4.19,0,0,0-4.18-1.28,4.12,4.12,0,0,0-2.57,2.64,10.78,10.78,0,0,0-.45,3.3,33.79,33.79,0,0,0,0,3.63A19,19,0,0,0-1721.59,853.58Z" transform="translate(1783.05 -836.61)"/><path class="cls-2" d="M-1767.28,889a33.52,33.52,0,0,0-4.52-2.37,16.35,16.35,0,0,0-5.48-1.63,5.62,5.62,0,0,0-4.81,2.09,4.3,4.3,0,0,0-.28,5,7.42,7.42,0,0,0,4.08,2.7A26.65,26.65,0,0,0-1773,896c1.57.19,3.46.45,4.92-.33a2.93,2.93,0,0,0,1.33-1.42,2,2,0,0,0,.31-1.69.47.47,0,0,1,0-.1,3.63,3.63,0,0,0-.15-.54.34.34,0,0,0,.08-.09A2.08,2.08,0,0,0-1767.28,889Zm-11.69.85a.06.06,0,0,0,0,0A.06.06,0,0,1-1779,889.88Z" transform="translate(1783.05 -836.61)"/></g></g></svg>