<svg xmlns="http://www.w3.org/2000/svg" viewBox="0 0 64.12 93.57"><defs><style>.cls-1{fill:#1a3869;}</style></defs><title>资源 42</title><g id="图层_2" data-name="图层 2"><g id="page3"><path class="cls-1" d="M-1528.4,551.31c-.85-2.69-4-3.66-6.4-4.27a38.1,38.1,0,0,0-10.74-1.1c-1.4.06-3,.41-4.38,0-1.74-.49-2.07-2.16-2.21-3.75-.65-7.5-.66-15.11-1-22.64-.07-1.56-.13-3.32-1.33-4.48a3.18,3.18,0,0,0-3.86-.59c-1.44.9-1.92,3.06-2.5,4.53q-1.11,2.84-2.14,5.7a195.31,195.31,0,0,0-6.63,23l-11.62,1.22-6.36.67c-1.41.15-3,.32-4,1.48-2.52,3,1.59,5.53,3.91,6.51l10.76,4.59q-1.29,8.79-2.6,17.6c-.47,3.13-.93,6.27-1.39,9.4-.31,2.06-1,5.17,1.65,6,2.29.71,4-1.59,4.94-3.3,1.56-2.73,3.08-5.5,4.62-8.25q3.72-6.66,7.45-13.33,2.79,9.6,5.59,19.19,1.62,5.55,3.23,11.1c.65,2.2,1.23,7.2,4.47,7s2.66-4.65,2.63-6.77q-.1-5.91-.56-11.78t-1.25-11.44q-.39-2.77-.86-5.53a13.72,13.72,0,0,1-.29-5c.61-2.84,3.5-4.3,5.91-5.41,3.41-1.56,6.86-3.06,10.29-4.59C-1530.71,556.07-1527.38,554.51-1528.4,551.31Zm-6.2,3.25q-4.7,2.09-9.37,4.18a18.89,18.89,0,0,0-6.09,3.84,8.93,8.93,0,0,0-2.24,7.07c.26,3.25,1,6.49,1.45,9.72a189.08,189.08,0,0,1,1.58,20.58c0,1,0,2,0,2.94,0,.38,0,.8,0,1.18,0-.09-.07-.15-.07-.13a15.25,15.25,0,0,1-.45-1.5c-.27-1-.55-1.9-.83-2.84l-3.15-10.83q-3.32-11.38-6.64-22.78c-.38-1.31-2.16-1.17-2.74-.13l-7.78,13.92-3.75,6.71c-.68,1.2-1.35,2.41-2,3.61a14.09,14.09,0,0,1-.83,1.41c-.19.24-.87.83-.85.85a28.56,28.56,0,0,1,.49-3.19c.2-1.37.4-2.74.61-4.11.37-2.55.75-5.09,1.13-7.64q1.17-7.93,2.35-15.86a1.52,1.52,0,0,0-.82-1.62l-9.08-3.87c-1.43-.61-2.95-1.12-4.31-1.87-.26-.14-1.3-.69-1.26-1.07s1-.43,1.32-.48c6.53-.82,13.11-1.38,19.66-2.07a1.43,1.43,0,0,0,1.31-1.55,1.6,1.6,0,0,0,.21-.5,188.86,188.86,0,0,1,5.19-18.84q1.57-4.73,3.41-9.36c.27-.69.54-1.37.82-2.05.21-.5.38-1.52.92-.84.33.41.25,1.31.27,1.8.06,1,.09,1.94.13,2.91.29,6.69.36,13.42.88,20.1.19,2.5,1,5.11,3.42,6.25s5.46.36,8,.38a31,31,0,0,1,9.88,1.52c.75.26,2.49.91,2.55,1.9C-1531.14,553.48-1533.81,554.21-1534.6,554.56Z" transform="translate(1592.33 -514.09)"/><path class="cls-1" d="M-1546.7,535.57a22.75,22.75,0,0,0,5.27-7.69,1.53,1.53,0,0,0-.38-1.78,1.56,1.56,0,0,0-1.82-.09,12.4,12.4,0,0,0-5.27,7.17,1.19,1.19,0,0,0,0,.42l0,0a1.5,1.5,0,0,0,.17,2.1A1.54,1.54,0,0,0-1546.7,535.57Zm1.84-4.25,0-.05,0,0C-1544.83,531.32-1544.88,531.37-1544.86,531.32Z" transform="translate(1592.33 -514.09)"/><path class="cls-1" d="M-1578.08,537.53s0-.1.07-.14a1.37,1.37,0,0,0,.4-1.12,12,12,0,0,0-4.56-8.15,1.51,1.51,0,0,0-1.65-.18,1.47,1.47,0,0,0-.8,1.43,15,15,0,0,0,4.44,8.33A1.5,1.5,0,0,0-1578.08,537.53Z" transform="translate(1592.33 -514.09)"/><path class="cls-1" d="M-1584.87,569.23a1.4,1.4,0,0,0-.77.09,1.18,1.18,0,0,0-.69.08,8.72,8.72,0,0,0-5.26,7,1.54,1.54,0,0,0,.5,1.41,1.46,1.46,0,0,0,1.47.27,11.13,11.13,0,0,0,5.93-7.07A1.49,1.49,0,0,0-1584.87,569.23Zm-1.81,1.39v0C-1586.73,570.78-1586.82,570.92-1586.68,570.62Zm-1.07,3.65h0l0,0Zm-2.72.88c-.09.05-.28.12,0,0Zm4.78-2.78h0l.08,0h0Z" transform="translate(1592.33 -514.09)"/><path class="cls-1" d="M-1537.2,569.72a1.48,1.48,0,0,0-1.69-.16,2.29,2.29,0,0,0-1.91,1.81,3.14,3.14,0,0,0,.72,2.45c.85,1.15,1.72,2.29,2.59,3.42a3.35,3.35,0,0,0,1.89,1.4,2.27,2.27,0,0,0,2.47-1.19c.83-1.51-.25-3.09-1.1-4.32A21.43,21.43,0,0,0-1537.2,569.72Z" transform="translate(1592.33 -514.09)"/></g></g></svg>