<svg xmlns="http://www.w3.org/2000/svg" viewBox="0 0 185.2 80.9"><defs><style>.cls-1{fill:#1a3869;}</style></defs><title>cloud</title><g id="图层_2" data-name="图层 2"><g id="图层_9" data-name="图层 9"><path class="cls-1" d="M93.37,33.78a21.14,21.14,0,0,1,10.85-13.6,1.89,1.89,0,1,0-1.91-3.27A24.93,24.93,0,0,0,89.72,32.77c-.6,2.36,3,3.37,3.65,1Z"/><path class="cls-1" d="M112.85,17.43a7.62,7.62,0,0,1,1.42-.8l-.45.19a7.37,7.37,0,0,1,1.92-.52l-.51.07a7.11,7.11,0,0,1,1.9,0l-.5-.07.27,0a2.11,2.11,0,0,0,1.46-.19,2,2,0,0,0,.87-1.13,1.91,1.91,0,0,0-.2-1.46,1.83,1.83,0,0,0-1.13-.87,9.93,9.93,0,0,0-3.84.09,8.77,8.77,0,0,0-3.12,1.39,2,2,0,0,0-.87,1.13,1.89,1.89,0,0,0,2.78,2.14Z"/><path class="cls-1" d="M4.32,60.19C3.51,50,11.46,39.51,22,38.8s19.91,8.51,20.38,18.75c.11,2.44,4.22,2.46,4.25,0,.07-6.06,4.87-12,11.15-12.36s11.43,5.07,11.9,11.16c.19,2.42,4.22,2.48,4.26,0,.34-21.07,12.45-42.79,33.08-50,19.71-6.84,43.07.24,51.75,20.16,4.31,9.89,4.77,21.54-.24,31.28-.94,1.81,1.18,3.52,2.91,2.56a13.33,13.33,0,0,1,15.66,1.78A13.92,13.92,0,0,1,179.59,78c-1.18,2.34,2.6,4,3.67,1.89a17.44,17.44,0,0,0-3.18-20.4c-5.49-5.25-14.29-6-20.82-2.37l2.91,2.57c10-19.37,1.15-44.41-17.88-54.46C123.21-5.86,96.75,1.44,82.35,19.73a61,61,0,0,0-12.7,36.62h4.26C73.27,48,66.34,41,57.75,41.44a16.54,16.54,0,0,0-15.4,16.11H46.6C46,45.13,34.56,34.27,22,35.05S-.93,47.66.07,60.19c.19,2.43,4.45,2.43,4.25,0Z"/></g></g></svg>