<svg xmlns="http://www.w3.org/2000/svg" viewBox="0 0 166.33 164.71"><defs><style>.cls-1{fill:#1a3869;}</style></defs><title>hand</title><g id="图层_2" data-name="图层 2"><g id="图层_9" data-name="图层 9"><path class="cls-1" d="M-340,848.88-391.3,964l53.67,26.67q5.38-10,10.76-20A31.1,31.1,0,0,1-332.4,959a6,6,0,0,1,.25-4.44c1.2-2,4.21-2.13,6.18-.92s3.18,3.33,4.29,5.36l-6-15c-1-2.39-1.79-5.44,0-7.25,1.37-1.36,3.69-1.24,5.37-.29a14.73,14.73,0,0,1,4,4.07,11.23,11.23,0,0,0,4.27,3.78L-319.89,932c-1.09-2.29-2.08-5.28-.33-7.11s5.23-.76,7.11,1.15,3.23,4.47,5.62,5.68a16.15,16.15,0,0,0-2-6.35,22.06,22.06,0,0,1-2.39-6.24,6.71,6.71,0,0,1,1.86-6.15c1.71-1.45,4.72-1.33,6,.2a311.3,311.3,0,0,0,15.72-36Zm-23.44,89.42,28.6,13.62a69.69,69.69,0,0,0-5.63,11.1L-368,949.34Zm27.34-58.38c3.63-3.77,9-6.06,14.16-5,5.63,1.11,10,6,11.73,11.46,2.69,8.42-.16,17.95-5.85,24.7s-13.87,11-22.31,13.58a45.31,45.31,0,0,1-4.46-30.76C-341.77,888.73-339.74,883.68-336.12,879.92Zm8.5,7.28a6.58,6.58,0,0,0-2.34,7A6.46,6.46,0,0,0-327.3,898a5.84,5.84,0,0,0,6,0,6.23,6.23,0,0,0,2.95-5.27,6.69,6.69,0,0,0-2.82-5.38C-322.43,886.5-325.46,885.71-327.62,887.2Z" transform="translate(444.36 -837.42)"/><path class="cls-1" d="M-338.91,860.8l-6.89,15.69c-.5,1.14-2.22.26-1.72-.88l6.88-15.69c.5-1.14,2.23-.26,1.73.88Z" transform="translate(444.36 -837.42)"/><path class="cls-1" d="M-348.69,883.55l-1.41,3.11a1,1,0,0,1-1.3.43,1,1,0,0,1-.43-1.3l1.42-3.12a1,1,0,0,1,1.3-.43,1,1,0,0,1,.42,1.31Z" transform="translate(444.36 -837.42)"/><path class="cls-1" d="M-403.95,967.58a.86.86,0,0,0,.75,0l5-2.5a.83.83,0,0,0,.38-1.11.83.83,0,0,0-1.12-.37l-5,2.5a.82.82,0,0,0-.37,1.11A.81.81,0,0,0-403.95,967.58Z" transform="translate(444.36 -837.42)"/><path class="cls-1" d="M-402.11,962.66a.83.83,0,0,0,.78,0l6-3.35a.82.82,0,0,0,.32-1.13.82.82,0,0,0-1.13-.31l-6,3.34a.84.84,0,0,0-.32,1.13A1,1,0,0,0-402.11,962.66Z" transform="translate(444.36 -837.42)"/><path class="cls-1" d="M-399.47,956.91a.83.83,0,0,0,.78,0l5.75-3.17a.82.82,0,0,0,.33-1.12.83.83,0,0,0-1.13-.33l-5.75,3.17a.83.83,0,0,0-.33,1.13A.88.88,0,0,0-399.47,956.91Z" transform="translate(444.36 -837.42)"/><path class="cls-1" d="M-397.22,951.35a.81.81,0,0,0,.81,0l5.65-3.48a.83.83,0,0,0,.27-1.14.83.83,0,0,0-1.14-.27l-5.65,3.48a.83.83,0,0,0-.27,1.14A.73.73,0,0,0-397.22,951.35Z" transform="translate(444.36 -837.42)"/><path class="cls-1" d="M-394.32,945.49a.84.84,0,0,0,.8,0l5.76-3.41a.84.84,0,0,0,.29-1.14.84.84,0,0,0-1.14-.29l-5.75,3.42a.81.81,0,0,0-.29,1.13A.84.84,0,0,0-394.32,945.49Z" transform="translate(444.36 -837.42)"/><path class="cls-1" d="M-391.13,939.16a.82.82,0,0,0,.76,0l5.26-2.74a.83.83,0,0,0,.36-1.12.83.83,0,0,0-1.12-.35l-5.27,2.74a.84.84,0,0,0-.35,1.12A.76.76,0,0,0-391.13,939.16Z" transform="translate(444.36 -837.42)"/><path class="cls-1" d="M-352.21,848.71a.85.85,0,0,0,.88-.07l4.76-3.58a.83.83,0,0,0,.16-1.16.83.83,0,0,0-1.16-.17l-4.76,3.58a.83.83,0,0,0-.17,1.16A.73.73,0,0,0-352.21,848.71Z" transform="translate(444.36 -837.42)"/><path class="cls-1" d="M-353.93,853.49a.83.83,0,0,0,.86-.06l4.94-3.48a.84.84,0,0,0,.21-1.16.83.83,0,0,0-1.16-.2l-4.95,3.48a.84.84,0,0,0-.2,1.16A.93.93,0,0,0-353.93,853.49Z" transform="translate(444.36 -837.42)"/><path class="cls-1" d="M-355.64,858.61a.85.85,0,0,0,.87-.07l4-3a.83.83,0,0,0,.18-1.16.84.84,0,0,0-1.16-.17l-4,3a.83.83,0,0,0-.18,1.16A.86.86,0,0,0-355.64,858.61Z" transform="translate(444.36 -837.42)"/><path class="cls-1" d="M-327.8,987.88a28.34,28.34,0,0,0,10.21-4.17,28.66,28.66,0,0,0,8.39-8.87c4.93-7.59,8.68-16.12,11.89-24.55a50.8,50.8,0,0,0,3.36-11.82,19.82,19.82,0,0,0-2-11.4,46.32,46.32,0,0,0-6.53-9.21c-1.26-1.46-2.53-3.29-4.29-4.17-2.06-1-4.11-.05-4.24,2.33-.13,2.22.88,4.4,1.65,6.44.85,2.24,1.77,4.46,2.76,6.64a92.18,92.18,0,0,0,7,12.73l-2.12.85A46.69,46.69,0,0,0-310.08,931a37.66,37.66,0,0,0-5.22-4.72c-1-.7-2.55-1.41-3.75-.68s-1.27,2.39-.95,3.63c.58,2.25,2,4.42,3,6.46,1.2,2.31,2.42,4.61,3.69,6.88,2.52,4.54,5.17,9,7.91,13.43l-2,1.11a93.31,93.31,0,0,0-9.45-13.17,54.73,54.73,0,0,0-5.5-5.79,4.72,4.72,0,0,0-3.36-1.48c-1.52.15-2.15,1.46-2.12,2.87,0,2.46,1.34,5,2.28,7.18s2.09,4.67,3.27,6.94a127.06,127.06,0,0,0,8.48,13.83c.94,1.34-1.08,2.26-2,1.12-2.54-3.25-5.08-6.51-7.89-9.53a29.63,29.63,0,0,0-4.28-4.1c-1.86-1.32-3.38-.31-3.65,1.84-.45,3.57,2.2,7.46,4,10.33a56.15,56.15,0,0,0,7.31,9.31,1.11,1.11,0,1,1-1.54,1.58,58.41,58.41,0,0,1-9-11.86c-1.9-3.36-4.58-8-2.58-11.9a3.92,3.92,0,0,1,4.1-2.23c2.1.32,3.73,2,5.18,3.39a122.14,122.14,0,0,1,10.32,12.05l-2,1.12c-5.53-7.93-10.79-16.6-13.81-25.84-1.12-3.42-.87-8.33,3.82-8.35a8,8,0,0,1,5.35,2.51,70.82,70.82,0,0,1,5,5.26,93.54,93.54,0,0,1,10,13.81c.82,1.37-1.2,2.36-2,1.11a232.77,232.77,0,0,1-14.27-25.59c-1.48-3.22-1.37-8.1,3.14-8.44a7.71,7.71,0,0,1,5.17,1.95,48.42,48.42,0,0,1,5.15,4.77,50.36,50.36,0,0,1,8.72,12.31c.64,1.29-1.45,1.87-2.12.85a95.1,95.1,0,0,1-7-12.52c-1.05-2.25-2-4.55-2.91-6.87a27.6,27.6,0,0,1-1.94-6.25c-.24-1.85,0-3.91,1.49-5.2a5.16,5.16,0,0,1,4.78-.89,10.92,10.92,0,0,1,5,3.67c1.41,1.58,2.79,3.2,4.09,4.87a31.36,31.36,0,0,1,6,10.93,24.65,24.65,0,0,1-.39,12.95,105.83,105.83,0,0,1-5.14,14,153,153,0,0,1-7,14.39c-2.51,4.5-5.44,9.1-9.59,12.26a30,30,0,0,1-12.72,5.75c-1.37.24-2.42-1.91-.86-2.17Z" transform="translate(444.36 -837.42)"/><path class="cls-1" d="M-343.35,840.68q-21.78,50.37-43.58,100.73-6.15,14.22-12.31,28.45c-.56,1.31-2.78.19-2.22-1.13L-357.87,868q6.15-14.24,12.31-28.46c.56-1.31,2.78-.18,2.21,1.13Z" transform="translate(444.36 -837.42)"/><path class="cls-1" d="M-374.52,897a37.91,37.91,0,0,0,2.95-13.41,37.16,37.16,0,0,0-.44-7c-.32-2.09-.69-5.23-2.74-6.38s-4.66.29-6.06,1.84a24.61,24.61,0,0,0-3.58,6.26q-3.25,6.93-6,14.07a284.45,284.45,0,0,0-9.52,30q-2,7.56-3.67,15.2c-.57,2.54-1.12,5.09-1.65,7.63a15.75,15.75,0,0,1-.72,3.38c-.43.89-1.89,1.09-2.76,1.4l-34.05,12.37c-1.34.48-2.36-1.64-.87-2.18l36.09-13.1-.77.8c3.53-17.16,7.66-34.23,13.52-50.75q2.2-6.23,4.76-12.3a107.45,107.45,0,0,1,5.38-11.63c1.65-2.9,4.15-5.49,7.68-5.66s5.8,2.5,6.69,5.7c2.24,8.12,1.2,17.16-2,24.85-.55,1.32-2.77.19-2.22-1.13Z" transform="translate(444.36 -837.42)"/><path class="cls-1" d="M-379.31,981A294.53,294.53,0,0,1-422,998.07c-1.36.43-2.38-1.7-.87-2.17A290.41,290.41,0,0,0-380.73,979c1.24-.61,2.79,1.28,1.42,2Z" transform="translate(444.36 -837.42)"/><path class="cls-1" d="M-305.15,912.74l16-35.7.61,1.54L-341,849.28l1.6-.41q-2.47,5.77-5,11.57l-11.85,27.62q-7.17,16.7-14.33,33.4L-383,950.34q-2.06,4.78-4.1,9.57a25.54,25.54,0,0,1-1.94,4.52,1.33,1.33,0,0,0-.09.21c-.21-.52-.41-1-.61-1.54l17.75,9.14,28.33,14.6,6.53,3.37-1.61.41,10.07-20c.64-1.28,2.86-.16,2.22,1.12l-10.07,20a1.2,1.2,0,0,1-1.6.41L-355.84,983l-28.32-14.6-6.54-3.36a1.21,1.21,0,0,1-.61-1.54q2.49-5.79,5-11.57l11.85-27.63q7.17-16.69,14.33-33.39L-347.78,862l4.11-9.56a48.7,48.7,0,0,1,1.93-4.52,1.89,1.89,0,0,0,.09-.21,1.2,1.2,0,0,1,1.61-.41l52.52,29.3a1.21,1.21,0,0,1,.61,1.54l-16,35.7c-.59,1.3-2.81.18-2.22-1.13Z" transform="translate(444.36 -837.42)"/><path class="cls-1" d="M-339.1,924.1c8.52-4,17.2-8.44,23.12-16,5.12-6.53,7.59-15.74,3.75-23.51-3.43-7-12.33-10.6-19.2-6.33-6.62,4.12-9.3,12.87-10.32,20.15a44.25,44.25,0,0,0,4.49,26.37c.73,1.4-1.63,1.82-2.27.58a46.16,46.16,0,0,1-4.84-25.64c.8-8.12,3.56-17.57,10.41-22.66s16.28-3,21.62,3.26c5.77,6.77,5.4,16.92,1.45,24.46-5.53,10.56-16.41,16.42-26.79,21.27C-338.94,926.64-340.48,924.75-339.1,924.1Z" transform="translate(444.36 -837.42)"/><path class="cls-1" d="M-322.9,885.44a8,8,0,0,1,5.74,7.09,7.45,7.45,0,0,1-5.14,7.23,7.51,7.51,0,0,1-8.51-2.87,7.25,7.25,0,0,1-.42-8.06,7.53,7.53,0,0,1,8.33-3.39,1.3,1.3,0,0,1,1,1.38,1.12,1.12,0,0,1-1.39.81,5.14,5.14,0,0,0-5.36,1.79,5.14,5.14,0,0,0-.75,5.42,5,5,0,0,0,5.1,3,5.57,5.57,0,0,0,4.65-4.46,5.35,5.35,0,0,0-3.64-5.78,1.31,1.31,0,0,1-1-1.38A1.11,1.11,0,0,1-322.9,885.44Z" transform="translate(444.36 -837.42)"/><path class="cls-1" d="M-334,952.92l-5.25,11.18a1.19,1.19,0,0,1-1.61.41l-28.21-13.36a1.19,1.19,0,0,1-.61-1.54l5.43-11.56a1.2,1.2,0,0,1,1.6-.41c9.33,4.62,18.66,9.24,28,13.74a1.1,1.1,0,1,1-1,2c-9.38-4.5-18.71-9.11-28-13.74l1.61-.41-5.43,11.56c-.21-.51-.41-1-.62-1.54l28.22,13.36-1.61.41,5.25-11.18C-335.66,950.5-333.44,951.63-334,952.92Z" transform="translate(444.36 -837.42)"/><path class="cls-1" d="M-299.13,920.16c6.33-15.33,12.66-30.66,18.79-46.07.21.51.41,1,.62,1.54q-32.13-19.26-65.62-36.11l1.43-.17-3.42,3.27a14.12,14.12,0,0,0-1.55,1.43,2.43,2.43,0,0,0-.16.37,18.83,18.83,0,0,0-.88,2l-3.67,8.38q-6.41,14.66-12.82,29.33l-15.83,36.21q-6.94,15.87-13.88,31.75l-4.59,10.49-1.44,3.3a10.41,10.41,0,0,1-.76,1.74.88.88,0,0,0-.1.22l-.61-1.54,23.56,11.45,37.23,18.1,8.58,4.17-1.61.41Q-330.41,990-325,979.51l1.56-3c.66-1.27,2.88-.15,2.22,1.12q-5.44,10.47-10.88,20.93l-1.56,3a1.18,1.18,0,0,1-1.6.41l-23.57-11.45L-396,972.43l-8.58-4.17a1.21,1.21,0,0,1-.62-1.54l5.6-12.8q6.66-15.23,13.31-30.43l16-36.54q6.72-15.35,13.42-30.7l4.2-9.59a28.51,28.51,0,0,1,1.64-3.76A10.51,10.51,0,0,1-349.2,841l3.42-3.28a1.24,1.24,0,0,1,1.43-.17q33.48,16.81,65.62,36.11a1.21,1.21,0,0,1,.61,1.54c-6.14,15.4-12.46,30.74-18.79,46.07-.54,1.31-2.76.19-2.22-1.13Z" transform="translate(444.36 -837.42)"/><path class="cls-1" d="M-319.92,909.18a27.37,27.37,0,0,1-6.81,5.69c-1.2.71-2.74-1.18-1.41-2a25.38,25.38,0,0,0,6.35-5.34,1.27,1.27,0,0,1,1.71,0,1.12,1.12,0,0,1,.16,1.6Z" transform="translate(444.36 -837.42)"/><path class="cls-1" d="M-330.16,916.61l-1.7.93a1.26,1.26,0,0,1-.89.11.94.94,0,0,1-.45-.21,1,1,0,0,1-.36-.32,1.2,1.2,0,0,1-.21-.84,1.06,1.06,0,0,1,.5-.7l1.69-.93a1.31,1.31,0,0,1,.89-.11,1.28,1.28,0,0,1,.46.21,1,1,0,0,1,.35.33,1.1,1.1,0,0,1,.21.84,1,1,0,0,1-.49.69Z" transform="translate(444.36 -837.42)"/></g></g></svg>