<svg xmlns="http://www.w3.org/2000/svg" viewBox="0 0 237.83 100.33"><defs><style>.cls-1{fill:#1a3869;}</style></defs><title>map</title><g id="图层_2" data-name="图层 2"><g id="图层_9" data-name="图层 9"><path class="cls-1" d="M235.4,27.78l-36.53,52.5.77-.52Q168.1,87.14,136.47,94.2l-17.42,3.9,1,.12A238.76,238.76,0,0,1,71.16,57.49a1.35,1.35,0,0,0-1.25-.29A371.78,371.78,0,0,1,1.24,70c.31.64.61,1.29.91,1.94Q22.83,50.81,45,31.31q5.55-4.87,11.18-9.67,2.82-2.4,5.67-4.78c.79-.66,1.57-1.35,2.38-2a10.12,10.12,0,0,1,3.47-1.49A250.65,250.65,0,0,1,93.19,6.83a275.93,275.93,0,0,1,32.26-4.49L124.54,2l39.53,31.75,4.5,3.61c1,.78,1.94,2,3.27,1.9.31,0,.63-.1.95-.14l5.76-.87,45.26-6.84,13-2c1.66-.25.86-2.42-.68-2.19l-22,3.32-34.92,5.28-8.1,1.22,1.26.3-34-27.33-8.51-6.83c-1.11-.9-2.45-2.42-3.76-3s-3.58.09-5,.22C114.54,1.08,108,1.91,101.42,3A253,253,0,0,0,65,11.85c-2.87.93-5.25,3.66-7.54,5.59q-4,3.39-8,6.81-7.9,6.83-15.63,13.83Q16.63,53.7.33,70.29a1.14,1.14,0,0,0,.91,1.94A374.6,374.6,0,0,0,70.59,59.38l-1.25-.29A222.6,222.6,0,0,0,98,85.55c5.18,4,10.53,7.86,16,11.5,1.27.85,2.55,1.68,3.83,2.51a3.39,3.39,0,0,0,1.62.77,11.61,11.61,0,0,0,2.7-.57l10-2.25q20.58-4.62,41.15-9.31,10.72-2.45,21.44-5c1.66-.38,3.33-.75,5-1.16s2.28-1.94,3.22-3.29l6.21-8.92,28.5-40.95C238.53,27.62,236.22,26.6,235.4,27.78Z"/><path class="cls-1" d="M71.61,58A392,392,0,0,1,113.08,13.5q6.36-5.84,13-11.39c1.25-1.06-.71-2.54-1.83-1.6a394.41,394.41,0,0,0-43.6,42.82q-5.77,6.62-11.24,13.48c-1,1.24,1.33,2.27,2.22,1.15Z"/><path class="cls-1" d="M120.34,99.21a520.26,520.26,0,0,1,39-47q6-6.39,12.21-12.59c1.16-1.16-.78-2.64-1.82-1.6a519.37,519.37,0,0,0-40.83,45.87q-5.5,7-10.8,14.18c-.94,1.28,1.37,2.31,2.23,1.15Z"/><path class="cls-1" d="M19.37,63.49Q31.64,51.91,44,40.4L56.33,28.85l6-5.66,3-2.83c.23-.22.48-.43.69-.66-.23.26.38-.53.13-.36l.07,0a14,14,0,0,1,3.07-.94q3.38-1,6.78-2c6.67-1.91,13.37-3.71,20.12-5.34a177.68,177.68,0,0,1,23.52-4.49l-.91-.33c10.27,7.39,20,15.54,29.64,23.74q5.81,4.95,11.54,10a68.51,68.51,0,0,0,5.2,4.59c1,.72,3.1.05,4.25-.11l9.27-1.33,26.84-3.83,17.33-2.48-1.46-1.66L198.55,70.7l-3.28,5.09c.26-.17.52-.34.77-.52l-25.11,5.64-40,9L121.71,92l1,.12A242.82,242.82,0,0,1,87.08,64.6,108.28,108.28,0,0,1,75,51.53,1.39,1.39,0,0,0,73.54,51,344.25,344.25,0,0,1,21.84,61.2c-1.12.13-2.25.25-3.39.35-1.61.14-1.63,2.42,0,2.27A294.14,294.14,0,0,0,54.83,58q9.77-2.12,19.4-4.75l-1.46-.53c6.84,9,15.4,16.57,24.14,23.62q10.34,8.33,21.4,15.7c1.08.73,2.68,2.31,4.09,2.15a21.34,21.34,0,0,0,2.37-.53l15.56-3.49,44.25-9.93c3.91-.88,7.85-1.66,11.74-2.64a2.62,2.62,0,0,0,1.7-1.42l3.64-5.65,21.52-33.43.5-.78c.66-1-.53-1.8-1.46-1.67l-19,2.72L172.8,41.66l-7,1,1.25.29q-8.2-7.32-16.6-14.44-7.5-6.37-15.13-12.57-3.76-3-7.59-6-1.81-1.39-3.64-2.76a22,22,0,0,0-3.71-2.71c-.94-.42-2.39,0-3.39.16-1.49.2-3,.42-4.44.67-3,.49-5.91,1.08-8.85,1.71-6.23,1.33-12.41,2.87-18.56,4.52q-7.2,1.92-14.33,4l-4.17,1.24A5.51,5.51,0,0,0,64,18.31c-15.46,14.57-31,29-46.47,43.58C16.35,63,18.3,64.5,19.37,63.49Z"/><path class="cls-1" d="M53.5,30.79c5.87,1.74,12-1.46,17.77.54,3.13,1.09,4.17,3.43,4.38,6.59.19,2.79.6,5.27,2.63,7.34,4.44,4.55,11.1,3.55,16.52,5.92,2.55,1.12,5.18,3.5,5,6.54-.21,2.86-2.4,5.15-2.5,8.08a5.1,5.1,0,0,0,1.16,3.52c1,1.11,2.36,1.47,3.55,2.25a6,6,0,0,1,1.79,7.89c-.8,1.38,1.5,2.4,2.23,1.15a8.15,8.15,0,0,0,.5-7.23,8.06,8.06,0,0,0-2-2.85c-1.06-1-2.47-1.34-3.59-2.19-2.83-2.15.37-6.36,1.08-8.79a7.68,7.68,0,0,0-1.9-7.46c-4.66-5.13-12-3.62-17.67-6.69a8.09,8.09,0,0,1-3.24-2.95c-.89-1.56-.86-3.35-1-5.09-.24-2.85-1.13-5.32-3.59-7-6.32-4.21-13.71.19-20.43-1.8a1.15,1.15,0,1,0-.68,2.19Z"/><path class="cls-1" d="M139.29,20.93a10,10,0,0,0-2,9,10.33,10.33,0,0,0,5.88,6.77,14.2,14.2,0,0,1,3.95,2.3c1.65,1.68.59,3.66-.59,5.25-2,2.79-3.59,5.23-3,8.84a10.72,10.72,0,0,0,4.76,7.41c3.47,2.18,7.71,1.43,11.36.19,3.91-1.32,8.8-3.84,12.74-1.3,2,1.27,2.38,3.07,2.11,5.29-.24,2-.44,3.77.66,5.53,2.53,4,7.84,3.94,12,3.5a49.23,49.23,0,0,0,15.37-4.28c1.52-.71.07-2.6-1.3-2A46.32,46.32,0,0,1,188,71.35c-3.42.46-9.79,1.22-11-3.23-.51-1.83.4-3.76.21-5.62A6.48,6.48,0,0,0,175,58.41c-2.58-2.34-6.17-2.67-9.46-2-4.16.84-8.05,3.39-12.4,3.24a7.58,7.58,0,0,1-6.86-5.88,7.82,7.82,0,0,1,0-4.21c.51-1.76,1.8-3.05,2.82-4.51,1.72-2.45,2.25-5.39-.09-7.64s-6.37-2.68-8.24-5.79a8.21,8.21,0,0,1,.77-9.54c1-1.19-1.29-2.22-2.22-1.15Z"/><path class="cls-1" d="M126.71,20.23l-2.19,5.25a1.15,1.15,0,0,0,.9,1.4,1.36,1.36,0,0,0,1.59-.8l2.19-5.25a1.14,1.14,0,0,0-.9-1.39,1.35,1.35,0,0,0-1.59.79Z"/><path class="cls-1" d="M123.5,30.88c-.24,1.36-.49,2.72-.73,4.08a1.09,1.09,0,0,0,.13.88,1.29,1.29,0,0,0,.77.52,1.41,1.41,0,0,0,1-.11,1.18,1.18,0,0,0,.6-.68l.73-4.09a1.15,1.15,0,0,0-.13-.87,1.32,1.32,0,0,0-.77-.52,1.44,1.44,0,0,0-1,.11,1.1,1.1,0,0,0-.59.68Z"/><path class="cls-1" d="M122.84,42l.09,4.67a1.22,1.22,0,0,0,1.29,1.13,1.25,1.25,0,0,0,1.29-1.13L125.42,42a1.3,1.3,0,0,0-2.58,0Z"/><path class="cls-1" d="M124.19,53.53l1.56,4.68a1.34,1.34,0,0,0,1.59.79,1.14,1.14,0,0,0,.9-1.39l-1.56-4.69a1.34,1.34,0,0,0-1.59-.79,1.15,1.15,0,0,0-.9,1.4Z"/><path class="cls-1" d="M131.42,65.54,134.77,68a1.49,1.49,0,0,0,.92.34,1.41,1.41,0,0,0,.91-.34,1.13,1.13,0,0,0,.38-.8,1.06,1.06,0,0,0-.38-.8l-3.36-2.48a1.44,1.44,0,0,0-.91-.34,1.39,1.39,0,0,0-.91.34,1.09,1.09,0,0,0-.38.8,1.06,1.06,0,0,0,.38.8Z"/><path class="cls-1" d="M145.17,71.57l5.11-.44c.6,0,1.32-.43,1.29-1.14a1.24,1.24,0,0,0-1.29-1.13l-5.11.44c-.6,0-1.33.42-1.29,1.13a1.25,1.25,0,0,0,1.29,1.14Z"/><path class="cls-1" d="M157.38,71.67l4.52,1.17a1.34,1.34,0,0,0,1.59-.79,1.16,1.16,0,0,0-.91-1.4l-4.52-1.17a1.33,1.33,0,0,0-1.58.79,1.15,1.15,0,0,0,.9,1.4Z"/><path class="cls-1" d="M165.81,75.25l1.9,4.24a1.25,1.25,0,0,0,.59.67,1.44,1.44,0,0,0,1,.12,1.37,1.37,0,0,0,.77-.52,1.06,1.06,0,0,0,.13-.88q-1-2.11-1.9-4.23a1.27,1.27,0,0,0-.59-.68,1.5,1.5,0,0,0-1-.11,1.28,1.28,0,0,0-.77.52,1,1,0,0,0-.13.87Z"/><path class="cls-1" d="M107.6,27.4c.87,2.71,1.75,5.42,2.62,8.13a1.33,1.33,0,0,0,1.59.79,1.16,1.16,0,0,0,.9-1.39,6.53,6.53,0,0,0-.2-.76c-.34-1.11-.71-2.21-1.08-3.32-.44-1.35-.9-2.7-1.35-4.06A1.32,1.32,0,0,0,108.5,26a1.15,1.15,0,0,0-.9,1.4q1,3,2,6c.2.63.42,1.27.59,1.91a1.31,1.31,0,0,1,.06.27l2.49-.6c-.88-2.72-1.75-5.43-2.63-8.14C109.64,25.41,107.12,25.93,107.6,27.4Z"/><path class="cls-1" d="M106.71,32.61l7.75-2.3a1.15,1.15,0,0,0,.9-1.39,1.33,1.33,0,0,0-1.59-.8L106,30.42a1.16,1.16,0,0,0-.9,1.4,1.32,1.32,0,0,0,1.58.79Z"/><path class="cls-1" d="M23.05,58.39l2.71,3.38a1.34,1.34,0,0,0,.77.52,1.42,1.42,0,0,0,1-.11,1.16,1.16,0,0,0,.59-.68,1,1,0,0,0-.13-.87l-2.7-3.39a1.42,1.42,0,0,0-.77-.52,1.47,1.47,0,0,0-1,.12,1.15,1.15,0,0,0-.6.68,1,1,0,0,0,.13.87Z"/><path class="cls-1" d="M25.94,55.5l4.53,5.61a1.41,1.41,0,0,0,1.76.41A1.08,1.08,0,0,0,32.7,60l-4.53-5.61A1.43,1.43,0,0,0,26.4,54a1.07,1.07,0,0,0-.46,1.55Z"/><path class="cls-1" d="M29,52.82l2.9,2.9a1.38,1.38,0,0,0,.91.33,1.4,1.4,0,0,0,.92-.33,1.08,1.08,0,0,0,.37-.8,1.18,1.18,0,0,0-.37-.8l-2.9-2.9a1.38,1.38,0,0,0-.91-.33,1.4,1.4,0,0,0-.92.33,1.08,1.08,0,0,0-.37.8,1.16,1.16,0,0,0,.37.8Z"/><path class="cls-1" d="M33.46,57.78l2.41,2.61a1.34,1.34,0,0,0,.91.34,1.37,1.37,0,0,0,.91-.34,1,1,0,0,0,.38-.8l0-.3a1,1,0,0,0-.33-.5l-2.4-2.61a1.36,1.36,0,0,0-.92-.34,1.41,1.41,0,0,0-.91.34,1.09,1.09,0,0,0-.38.8c0,.1,0,.2.05.3a1,1,0,0,0,.33.5Z"/><path class="cls-1" d="M214.51,37.43l2.76,3.29a1.46,1.46,0,0,0,.77.52,1.56,1.56,0,0,0,1-.11,1.2,1.2,0,0,0,.59-.68,1,1,0,0,0-.13-.88l-2.76-3.28a1.39,1.39,0,0,0-1.76-.41,1.15,1.15,0,0,0-.6.68,1,1,0,0,0,.13.87Z"/><path class="cls-1" d="M209.84,38.92l5.39,5.92a1.41,1.41,0,0,0,1.82,0,1.08,1.08,0,0,0,0-1.61l-5.39-5.91a1.38,1.38,0,0,0-1.82,0,1.07,1.07,0,0,0,0,1.6Z"/><path class="cls-1" d="M204,39.14a48.24,48.24,0,0,0,5.32,6,1.41,1.41,0,0,0,1.83,0,1.07,1.07,0,0,0,0-1.6c-.92-.88-1.81-1.79-2.65-2.74l-.14-.16c.08.09.06.06,0,0l-.31-.36-.61-.74c-.41-.5-.81-1-1.21-1.54a1.39,1.39,0,0,0-1.76-.41,1.07,1.07,0,0,0-.46,1.55Z"/><path class="cls-1" d="M211,47.05l2,1.63a1.44,1.44,0,0,0,.91.34,1.41,1.41,0,0,0,.91-.34,1.07,1.07,0,0,0,.38-.8,1.13,1.13,0,0,0-.38-.8l-2-1.64a1.43,1.43,0,0,0-.91-.33,1.4,1.4,0,0,0-.91.33,1.09,1.09,0,0,0-.38.8,1.13,1.13,0,0,0,.38.81Z"/></g></g></svg>