<svg xmlns="http://www.w3.org/2000/svg" viewBox="0 0 24.15 32"><defs><style>.cls-1{fill:#1a3869;}</style></defs><title>onestar</title><g id="图层_2" data-name="图层 2"><g id="图层_9" data-name="图层 9"><path class="cls-1" d="M1.66,17.15c7.42-1.43,9.73-9.25,11-15.66C13-.06,10.46-.61,10.1.86A10.21,10.21,0,0,0,23.18,12.94l-1-2.15A25.36,25.36,0,0,0,7.44,30.87c-.18,1.49,2.15,1.41,2.63.32a11.8,11.8,0,0,0,.15-9.53C8.62,18.08,5.31,16,1.66,14.87A1.2,1.2,0,1,0,1,17.15c3,.9,5.77,2.71,6.94,5.74a10.06,10.06,0,0,1-.4,7.67l2.63.31a23,23,0,0,1,13.38-18c1.4-.63.3-2.59-1-2.16a7.65,7.65,0,0,1-9.77-9.18L10.1.86C9,6.29,7.37,13.63,1,14.87-.76,15.2.06,17.46,1.66,17.15Z"/></g></g></svg>