<svg xmlns="http://www.w3.org/2000/svg" viewBox="0 0 151.68 146.93"><defs><style>.cls-1{fill:#1a3869;}.cls-2{fill:#fff;}</style></defs><title>pock</title><g id="图层_2" data-name="图层 2"><g id="图层_9" data-name="图层 9"><path class="cls-1" d="M101,54.6c-2-3.26-4.14-6.59-5-10.34s-.38-8,2.26-10.86A12.54,12.54,0,0,1,105.79,30c3.15-.44,6.59-.1,9.12,1.83,4,3.06,4.45,9.31,2.11,13.79s-6.76,7.49-11,10.26A6.66,6.66,0,0,0,101,54.6Z"/><path class="cls-1" d="M35.59,114.6Q33.3,120.78,31,127l46.4,7.13a3.71,3.71,0,0,0-6.27-3.58,2,2,0,1,0-3.21-2.21,7.08,7.08,0,0,0-13.65-3.75,3.08,3.08,0,1,0-5.52-2.74,8.33,8.33,0,0,0-4.25-9C41.29,111.22,36.62,111.85,35.59,114.6Z"/><path class="cls-1" d="M14.16,40.18A266.77,266.77,0,0,0,29,73.29c6.31-6.68,9.46-13.91,12.45-22.61,2.16-6.27.26-14.73,6.61-17.62,3.58-1.63,7.74-.33,11.45,1l20,7.05c-5.24-8.81-8-16.76-12.35-26Z"/><path class="cls-2" d="M99,33.23a4,4,0,0,0,2.25,4.93c2.15,1,4.55-.07,6.13-1.6l-1.59-1.23A4.11,4.11,0,0,0,108,41.39c2.63.85,4.77-1.26,6.25-3.14l-1.72-.71a5.09,5.09,0,0,0,6.25,5.1c1.27-.27.73-2.22-.54-2a3,3,0,0,1-3.69-3.15c0-.81-1.17-1.42-1.72-.72-.86,1.1-2,2.61-3.49,2.73a2.07,2.07,0,0,1-1.83-3.2,1,1,0,0,0-1.58-1.22c-.94.91-2.37,1.72-3.71,1.26a2,2,0,0,1-1.3-2.62c.49-1.21-1.46-1.73-1.94-.54Z"/><path class="cls-2" d="M95,40.68A5.9,5.9,0,0,0,98.25,46a6,6,0,0,0,6.41-1l-1.69-1a4.18,4.18,0,1,0,8,2.58l-2-.27a4,4,0,0,0,4.91,3.72c1.27-.29.73-2.24-.53-1.94A2,2,0,0,1,111,46.38a1,1,0,0,0-2-.27,2.27,2.27,0,0,1-2.81,1.37,2.3,2.3,0,0,1-1.24-2.87c.34-1-1-1.59-1.69-1A3.8,3.8,0,0,1,97,40.68a1,1,0,0,0-2,0Z"/><path class="cls-2" d="M24.78,54.59a3.28,3.28,0,0,1,4.11-5.09c.82.52,2-.55,1.39-1.38A1.39,1.39,0,0,1,32,46c.92.39,1.73-1.06,1-1.69-2.15-1.78-2.88-5-.76-7.16a3.85,3.85,0,0,1,6.41,1.35c.4,1.23,2.35.71,1.95-.54a5.87,5.87,0,0,0-9.36-2.62c-3.29,2.73-2.83,7.78.33,10.4l1-1.69a3.39,3.39,0,0,0-4,5.12l1.38-1.38A5.29,5.29,0,0,0,23.35,56a1,1,0,0,0,1.43-1.43Z"/><path class="cls-2" d="M61.78,30.16,61.71,30c0,.11,0,.11,0,0s-.07-.22-.1-.32l-.06-.34c0,.26,0-.1,0-.15a4,4,0,0,1,0-.59c0,.26,0-.1,0-.15s0-.22.09-.33.07-.18.1-.28,0-.05,0,.05l.07-.15.17-.3s.23-.32.09-.14a3.24,3.24,0,0,1,.4-.43l.13-.11c-.09.07-.09.08,0,0a2.82,2.82,0,0,1,.29-.18s.36-.16.14-.08l.32-.1a1.83,1.83,0,0,1,.25-.06l.16,0c-.13,0-.13,0,0,0s.45,0,.68,0-.14,0,.07,0l.33.08.32.1c.11,0,.11,0,0,0l.15.07c.18.09.35.2.51.3h0A.69.69,0,0,1,66,27a1.75,1.75,0,0,1,.24.23s.25.31.11.12a2.9,2.9,0,0,1,.19.29,1,1,0,0,0,1.74-1,4.89,4.89,0,0,0-4.9-2.25,4.58,4.58,0,0,0-3.7,3.6,4.79,4.79,0,0,0,.4,3.2,1,1,0,0,0,1.74-1Z"/><path class="cls-2" d="M39.53,118.25l-.63,2.23a1,1,0,0,0,.11.77,1,1,0,0,0,.6.47,1.06,1.06,0,0,0,.78-.1,1.08,1.08,0,0,0,.46-.61c.21-.74.42-1.48.62-2.22a1.06,1.06,0,0,0-.1-.78,1,1,0,0,0-.6-.46,1,1,0,0,0-.78.1,1,1,0,0,0-.46.6Z"/><path class="cls-1" d="M37.93,123.94l-.45,1.87a1.12,1.12,0,0,0,.1.78,1.08,1.08,0,0,0,.61.46A1,1,0,0,0,39,127a1,1,0,0,0,.47-.61c.15-.62.29-1.24.44-1.86a1.06,1.06,0,0,0-.1-.78,1,1,0,0,0-.6-.46,1,1,0,0,0-.78.1,1,1,0,0,0-.46.6Z"/><path class="cls-2" d="M43.54,121.39l-1.16,2.67a1,1,0,0,0,.36,1.38,1.06,1.06,0,0,0,.78.1,1,1,0,0,0,.61-.47c.38-.88.77-1.77,1.15-2.66a1.12,1.12,0,0,0,.1-.78,1,1,0,0,0-.46-.6,1,1,0,0,0-.78-.1.93.93,0,0,0-.6.46Z"/><path class="cls-1" d="M112.85,66.48q-11.3,39.51-22.58,79l1.6-.79C68,140.92,44.25,136.49,20.5,132l.91,1.41q9.12-30.08,18.2-60.16Q42.3,64.39,45,55.51l-1.59.8c23.4,4.88,47,8.87,70.74,11.62,1.64.19,1.61-2.1,0-2.29-23.52-2.72-46.88-6.7-70-11.53a1.35,1.35,0,0,0-1.6.79Q33.33,85.32,24.1,115.7l-5.19,17.12a1.14,1.14,0,0,0,.9,1.4c23.75,4.47,47.5,8.91,71.37,12.69a1.36,1.36,0,0,0,1.6-.8q11.28-39.51,22.57-79C115.77,65.6,113.25,65.08,112.85,66.48Z"/><path class="cls-1" d="M31.77,98.25A459.46,459.46,0,0,1,2.55,31.38L2,32.67,25.66,22.31,63.25,5.89l8.63-3.77L70,1.43,79,22.9Q86.18,40,93.35,57.09l3.29,7.83c.56,1.34,3.1.81,2.5-.61q-4.5-10.73-9-21.46L75.76,8.66Q74.13,4.74,72.47.83a1.38,1.38,0,0,0-1.9-.69L46.86,10.5,9.27,26.92.64,30.69A1.1,1.1,0,0,0,.05,32,464.11,464.11,0,0,0,29.53,99.41c.68,1.28,3,.25,2.24-1.16Z"/><path class="cls-1" d="M80.74,20.79Q84,13.49,87.36,6.2l-1.6.8a528.28,528.28,0,0,1,64,21l-.6-1.29Q143.38,40.34,137.62,54q-9.15,21.75-18.32,43.5l-4.18,9.94,1.6-.8-11.87-3.71a1.15,1.15,0,1,0-.69,2.2L116,108.84a1.34,1.34,0,0,0,1.59-.79q5.76-13.67,11.5-27.32l18.32-43.49q2.1-5,4.19-9.94A1.09,1.09,0,0,0,151,26,532.82,532.82,0,0,0,86.45,4.8a1.36,1.36,0,0,0-1.6.79q-3.3,7.31-6.62,14.59c-.63,1.39,1.91,1.92,2.51.61Z"/><path class="cls-1" d="M36.05,82.76A430.91,430.91,0,0,1,15.61,39.11L15,40.39C32.48,32.17,50,23.94,67.57,16l-1.91-.68Q76.3,39,86.94,62.71c.59,1.32,3.13.79,2.5-.6Q78.8,38.42,68.16,14.74a1.37,1.37,0,0,0-1.9-.68C48.64,22,31.17,30.19,13.7,38.42a1.11,1.11,0,0,0-.6,1.29,436.51,436.51,0,0,0,20.71,44.2c.69,1.28,3,.26,2.24-1.15Z"/><path class="cls-1" d="M31.38,73.06a81.07,81.07,0,0,0,12-25.4c1-3.76,1.26-8.37,3.57-11.64,3.07-4.35,8.87-1.6,12.88-.32l17.83,5.69a1.15,1.15,0,1,0,.69-2.2L61.4,33.79c-4.29-1.37-9.69-3.9-14-1.42-3.45,2-4.56,6.12-5.35,9.72A86.15,86.15,0,0,1,37.67,56.4a79.08,79.08,0,0,1-8.53,15.51c-.92,1.31,1.41,2.34,2.24,1.15Z"/><path class="cls-1" d="M41.45,50.79A10.81,10.81,0,0,0,51,42.37H48.53a5.67,5.67,0,0,0,7.6,4,5.46,5.46,0,0,0,2.27-7.87l-2,1.38a7.65,7.65,0,0,0,11.06-2c.81-1.38-1.51-2.41-2.24-1.15a4.86,4.86,0,0,1-7,1.51c-.93-.72-2.89.1-2,1.39a3.32,3.32,0,0,1-1.07,4.63c-1.8.9-3.73-.75-4.05-2.48-.21-1.11-2.29-1.1-2.51,0a8.32,8.32,0,0,1-7.08,6.74c-1.61.16-1.64,2.45,0,2.29Z"/><path class="cls-1" d="M85,30q2.88-6.64,5.77-13.28l-1.6.8,43,13.17,6,1.85-.91-1.4-9,21.68Q121,70.12,113.8,87.42c-1.12,2.67-2.23,5.33-3.34,8l1.6-.8-4.23-1.41a1.15,1.15,0,1,0-.69,2.2l4.23,1.41A1.35,1.35,0,0,0,113,96l9-21.68q7.2-17.31,14.41-34.6l3.33-8c.27-.65-.35-1.24-.9-1.41l-43-13.17-6-1.85a1.34,1.34,0,0,0-1.59.8q-2.89,6.63-5.78,13.27c-.61,1.41,1.93,1.94,2.51.61Z"/><path class="cls-1" d="M102,53.4c-2.61-4.11-5.31-8.86-4.82-13.9a10.79,10.79,0,0,1,7.6-9.13,9.46,9.46,0,0,1,10.34,3.9c2.69,3.84,1.91,8.47-.71,12.13a25.21,25.21,0,0,1-5.94,5.53c-.58.42-1.18.83-1.78,1.24a6,6,0,0,1-1.37.89c-1.17.3-2.81-.57-3.79-1.07-1.35-.7-2.81,1.2-1.31,2a11.92,11.92,0,0,0,3.87,1.32,6.41,6.41,0,0,0,1.75,0,4.81,4.81,0,0,0,2-1A40.48,40.48,0,0,0,115,49.62c3.62-3.87,5.86-9.39,3.55-14.51a12.46,12.46,0,0,0-11.69-7.39,13.34,13.34,0,0,0-11.29,8c-2.78,6.46.82,13.42,4.26,18.83C100.56,55.78,102.88,54.75,102,53.4Z"/><path class="cls-1" d="M99.46,54c-.76,2.82-1.53,5.63-2.29,8.45-.41,1.49,2.11,2,2.5.61q1.14-4.23,2.3-8.45c.4-1.49-2.12-2-2.51-.61Z"/><path class="cls-1" d="M104.54,55.6l-3.45,8.68a1.15,1.15,0,0,0,.9,1.41,1.37,1.37,0,0,0,1.6-.8L107,56.21a1.13,1.13,0,0,0-.9-1.4,1.35,1.35,0,0,0-1.6.79Z"/><path class="cls-1" d="M99,61l4,.85a1.5,1.5,0,0,0,1-.11,1.25,1.25,0,0,0,.6-.68,1.16,1.16,0,0,0-.91-1.41l-4-.85a1.56,1.56,0,0,0-1,.11,1.17,1.17,0,0,0-.6.69A1.15,1.15,0,0,0,99,61Z"/><path class="cls-1" d="M87.72,35.4a2.13,2.13,0,0,1,2.15-1.26,2.26,2.26,0,0,1,1.76,2,1.31,1.31,0,0,0,2.6,0,5.44,5.44,0,0,1,1.68-4,2.16,2.16,0,0,1,2.9,0c1,1.06,3-.44,1.84-1.62a4.94,4.94,0,0,0-6-.42c-2,1.32-2.84,3.7-3,6h2.6a4.69,4.69,0,0,0-3.84-4.26,4.83,4.83,0,0,0-5.18,2.89c-.26.62.35,1.26.91,1.4a1.36,1.36,0,0,0,1.6-.8Z"/><path class="cls-1" d="M118.21,44.78a3.44,3.44,0,0,1,3.19,5A1.1,1.1,0,0,0,122,51.1a1.51,1.51,0,0,0,1.58-.18,5.4,5.4,0,0,1,3.23-1.18A2.43,2.43,0,0,1,128.89,51a1.38,1.38,0,0,0,1.6.8c.55-.14,1.19-.79.91-1.41a5,5,0,0,0-4.26-2.9,8.16,8.16,0,0,0-5.41,1.83l2.17,1.11a5.64,5.64,0,0,0-.59-5.54,6,6,0,0,0-5.1-2.38,1.26,1.26,0,0,0-1.3,1.14,1.24,1.24,0,0,0,1.3,1.14Z"/><path class="cls-1" d="M108.55,66.14c.93-1.34,2-3,3.64-3.57a2.06,2.06,0,0,1,2.74,1.32c.27,1.24,2.1,1,2.5,0A4.53,4.53,0,0,1,125,62.58a1.45,1.45,0,0,0,1.78.41c.51-.26.91-1.05.46-1.56a7.41,7.41,0,0,0-6.73-2.58,7.27,7.27,0,0,0-5.55,4.43h2.5c-.5-2.29-3.06-3.32-5.2-3.05-2.71.34-4.48,2.66-5.92,4.75-.91,1.32,1.42,2.35,2.24,1.16Z"/><path class="cls-1" d="M48.65,65.34Q39.32,95.88,30,126.43a1.14,1.14,0,0,0,.91,1.4l18.74,3.25,30.06,5.21,6.86,1.19a1.36,1.36,0,0,0,1.6-.8q2.77-10.49,5.54-21,4.45-16.81,8.9-33.62,1-3.86,2-7.71a1.14,1.14,0,0,0-.9-1.4l-46.89-7.4-6.58-1c-1.55-.25-2.36,1.94-.69,2.2l46.89,7.4,6.58,1-.91-1.41q-2.78,10.49-5.54,21-4.45,16.82-8.9,33.63c-.68,2.56-1.35,5.13-2,7.7l1.59-.8L68.5,132l-30-5.21-6.87-1.19c.3.47.6.94.91,1.41q9.33-30.56,18.67-61.1C51.61,64.47,49.08,63.94,48.65,65.34Z"/><path class="cls-1" d="M67.42,112.09C73.89,102.6,78.7,92.07,84,81.9l-2.42-.57a198.67,198.67,0,0,0,1.74,33.24c.2,1.47,2.8,1.46,2.6,0a196.57,196.57,0,0,1-1.74-33.24c0-1.17-1.9-1.58-2.42-.58-5.28,10.17-10.1,20.69-16.56,30.19-.91,1.32,1.42,2.35,2.24,1.15Z"/><path class="cls-1" d="M71.05,106.41c1.33-1.62,3.21-3.39,5.46-3.33,2.51.06,4.42,2.32,5.93,4.06a1.45,1.45,0,0,0,1.78.41c.5-.27.91-1,.46-1.57-2.16-2.49-4.63-5.09-8.17-5.19-3.2-.08-5.8,2.14-7.7,4.47a1.08,1.08,0,0,0,.46,1.56,1.42,1.42,0,0,0,1.78-.41Z"/><path class="cls-1" d="M76.38,95.84a30,30,0,0,1,5.6,1.4,1.34,1.34,0,0,0,1.6-.8A1.18,1.18,0,0,0,82.67,95a30.8,30.8,0,0,0-5.6-1.4,1.37,1.37,0,0,0-1.6.8,1.15,1.15,0,0,0,.91,1.41Z"/><path class="cls-1" d="M82.46,77l-1,4.48a1.12,1.12,0,0,0,.13.88,1.36,1.36,0,0,0,.78.53c.58.12,1.45-.12,1.6-.8.31-1.49.63-3,.95-4.48a1.09,1.09,0,0,0-.13-.88,1.31,1.31,0,0,0-.77-.53c-.58-.11-1.46.12-1.6.8Z"/><path class="cls-1" d="M38.7,106.83a99.16,99.16,0,0,1,31.48-3.18,1.14,1.14,0,1,0,0-2.28A101.75,101.75,0,0,0,38,104.62a1.16,1.16,0,1,0,.69,2.21Z"/><path class="cls-1" d="M83.44,104.39a49.81,49.81,0,0,1,9.92,2.39A1.33,1.33,0,0,0,95,106c.22-.7-.31-1.2-.9-1.41a49.79,49.79,0,0,0-9.92-2.38,1.36,1.36,0,0,0-1.6.8,1.15,1.15,0,0,0,.91,1.4Z"/><path class="cls-1" d="M36.58,115.31c4.65-3.54,10.91,0,11,5.64,0,1.32,1.74,1.37,2.42.58,1.24-1.44,2.63,1.83,2.89,2.54a1.37,1.37,0,0,0,2.51,0,6,6,0,0,1,6.91-3.33,6.16,6.16,0,0,1,3.89,7.11A1.29,1.29,0,0,0,68.33,129c.9-1,1.6,0,1.46,1s1.29,1.38,1.95,1a2.36,2.36,0,0,1,3.55,2.74c-.39,1.5,2.14,2,2.5.61A4.87,4.87,0,0,0,70.43,129l1.95,1c.48-3.32-3.72-4.87-5.89-2.59l2.17,1.11a8.43,8.43,0,0,0-5.7-9.92,8.66,8.66,0,0,0-10.11,4.92h2.51c-.63-1.7-1.49-3.46-3.29-4.17a3.73,3.73,0,0,0-4.35,1.09l2.42.57c-.07-8-9.22-12-15.4-7.26-1.31,1,.67,2.51,1.84,1.62Z"/><path class="cls-1" d="M47.42,80.54A5.8,5.8,0,0,1,55,87.73c-.35,1.2,1.37,1.91,2.17,1.12a3.5,3.5,0,0,1,5.9,3.36c-.29,1.25,1.29,1.83,2.17,1.11a4.71,4.71,0,0,1,7.68,3c.21,1.46,2.81,1.46,2.6,0A7.4,7.4,0,0,0,63.38,91.7l2.17,1.11a6,6,0,0,0-2.87-6.69,6.34,6.34,0,0,0-7.37,1.11l2.17,1.11a8.26,8.26,0,0,0-10.75-10,1.16,1.16,0,1,0,.69,2.2Z"/><path class="cls-1" d="M84.34,89.71a6.09,6.09,0,0,1,4-1.78,2.53,2.53,0,0,1,2.4,1.95c.23,1.08,2.3,1.13,2.5,0a4.65,4.65,0,0,1,6.64-3.63c1.36.68,2.82-1.22,1.31-2-4.21-2.1-9.62.21-10.45,5h2.5a5,5,0,0,0-4.45-3.58c-2.34-.25-4.5,1-6.24,2.4-1.27,1.06.71,2.56,1.84,1.62Z"/></g></g></svg>