<svg xmlns="http://www.w3.org/2000/svg" viewBox="0 0 138.76 52.98"><defs><style>.cls-1{fill:#1a3869;}</style></defs><title>star</title><g id="图层_2" data-name="图层 2"><g id="图层_9" data-name="图层 9"><path class="cls-1" d="M137.1,14.85c-7.42,1.44-9.73,9.25-11,15.66-.32,1.55,2.23,2.1,2.58.63a10.21,10.21,0,0,0-13.07-12.08c.35.72.69,1.43,1,2.15A25.35,25.35,0,0,0,131.32,1.13c.17-1.49-2.16-1.41-2.63-.32a11.8,11.8,0,0,0-.15,9.53c1.6,3.58,4.91,5.69,8.56,6.79a1.2,1.2,0,1,0,.71-2.28c-3-.9-5.78-2.71-6.94-5.74a10,10,0,0,1,.4-7.67l-2.63-.31a23,23,0,0,1-13.38,18.05c-1.4.62-.3,2.58,1,2.15a7.66,7.66,0,0,1,9.78,9.18l2.58.63c1.11-5.43,2.74-12.77,9.16-14C139.52,16.8,138.7,14.54,137.1,14.85Z"/><path class="cls-1" d="M29.49,30.5C19.76,32.37,16.73,42.62,15,51c-.42,2,2.92,2.76,3.39.82A13.39,13.39,0,0,0,1.27,36c.46.94.91,1.88,1.36,2.82A33.24,33.24,0,0,0,21.91,12.5c.23-1.95-2.82-1.85-3.45-.41a15.48,15.48,0,0,0-.2,12.49c2.1,4.69,6.44,7.46,11.23,8.9a1.56,1.56,0,1,0,.93-3c-3.93-1.18-7.57-3.56-9.1-7.53a13.16,13.16,0,0,1,.53-10.06L18.4,12.5A30.1,30.1,0,0,1,.85,36.16C-1,37,.46,39.55,2.21,39A10,10,0,0,1,15,51l3.39.82c1.44-7.11,3.59-16.75,12-18.37C32.66,33,31.59,30.09,29.49,30.5Z"/></g></g></svg>