<svg xmlns="http://www.w3.org/2000/svg" viewBox="0 0 176.02 143.63"><defs><style>.cls-1{fill:#edbc2c;}.cls-2{fill:#3f89ff;}.cls-3{fill:#fff;}</style></defs><title>资源 47</title><g id="图层_2" data-name="图层 2"><g id="图层_9" data-name="图层 9"><path class="cls-1" d="M-1710.63,2387.75a2.09,2.09,0,0,0-.3-.11,2.24,2.24,0,0,1-.26-.1l-.07,0a14.94,14.94,0,0,0-4.2-1.12,1.89,1.89,0,0,0-.71.11,8.91,8.91,0,0,0-4,3.21c-.36.46-.7.86-1,1.21l-.15.16a1.63,1.63,0,0,0-.22.23l-.07,0a11.94,11.94,0,0,0-1.77,2.17c-.86,1.45.14,2.34,1.37,3.08a28.41,28.41,0,0,0,3.65,1.76l.14.07c.82.35,1.68.72,2.51,1.14a8.2,8.2,0,0,0,3.75,1.06,5.75,5.75,0,0,0,3.48-1.21,26.79,26.79,0,0,0,4.51-4.07,3.52,3.52,0,0,0,.94-2.78,3.83,3.83,0,0,0-1.94-2.47,22.83,22.83,0,0,0-4.66-2Z" transform="translate(1737.77 -2304.24)"/><path d="M-1701.95,2396.94a4.73,4.73,0,0,0,.55-6.18c-1.36-2-4.07-3-6.25-3.75l-.57-.21c-.38-.15-.79-.32-1.23-.48a12.47,12.47,0,0,0-4.83-1.29,6.62,6.62,0,0,0-4.84,2.2l-1.42,1.38c-.66.65-1.34,1.3-2,2-1.4,1.46-3.52,3.66-2,6.34a6.33,6.33,0,0,0,2.6,2c.19.1.36.18.53.28a38.53,38.53,0,0,0,4.55,2.06l.45.16c.39.17.76.32,1.11.49a11.45,11.45,0,0,0,3,1,7.54,7.54,0,0,0,.83.06,7.48,7.48,0,0,0,3.52-1A24.6,24.6,0,0,0-1701.95,2396.94Zm-6.2,2.63a5.3,5.3,0,0,1-3.27,1.15,8.29,8.29,0,0,1-3.61-1c-.86-.45-1.76-.83-2.63-1.21a31.39,31.39,0,0,1-3.65-1.76c-1.29-.77-1.94-1.47-1.26-2.64a11.83,11.83,0,0,1,1.79-2.14l.38-.38c.37-.41.72-.82,1.05-1.24a8.75,8.75,0,0,1,3.89-3.11,1.91,1.91,0,0,1,.59-.08,15,15,0,0,1,4.16,1.12,3.25,3.25,0,0,1,.53.21c.33.1.65.21,1,.33a23.51,23.51,0,0,1,4.6,2,3.5,3.5,0,0,1,1.78,2.25,3.17,3.17,0,0,1-.87,2.51A25.62,25.62,0,0,1-1708.15,2399.57Z" transform="translate(1737.77 -2304.24)"/><path class="cls-2" d="M-1661.08,2327.88c-1.7,2-3.24,3.94-3.31,6.41s1.84,4.4,3.74,5.81c3.24,2.4,7.18,3.88,11,5.3l.53.19,1.34.5,1.54.6c4.14,1.56,8.42,3.18,12.57,4.91a131.58,131.58,0,0,1,13.88,6.63l.11.07c3.4,1.92,7.62,4.31,11.76,4.31a9.41,9.41,0,0,0,3.3-.56c5-1.84,8.79-6.37,11.12-9.84,1.18-1.76,2.78-4.39,3-7.07a7,7,0,0,0-3.13-6.24c-3.11-2.27-6.9-3.61-10.56-4.91l-.11,0c-1.09-.38-2.21-.77-3.27-1.18-4.86-1.86-10.05-3.91-15.15-6.21-1.64-.75-3.32-1.56-4.81-2.28a102.43,102.43,0,0,0-9.8-4.36,21.27,21.27,0,0,0-7.13-1.65,11.32,11.32,0,0,0-1.43.09c-.85.14-1.68.31-2.46.51l-.24.06v.25a.72.72,0,0,1-.47.66C-1652.68,2321.29-1657.63,2323.86-1661.08,2327.88Z" transform="translate(1737.77 -2304.24)"/><path class="cls-1" d="M-1682.9,2359.43c-.22-.07-.43-.15-.67-.25l-.56-.19a15,15,0,0,0-4.24-1.13,1.93,1.93,0,0,0-.71.11,8.85,8.85,0,0,0-4,3.21c-.32.39-.66.81-1,1.22l-.13.12-.25.26a11.88,11.88,0,0,0-1.85,2.2c-.85,1.46.16,2.35,1.38,3.07a26.53,26.53,0,0,0,3.39,1.66l.31.14c.84.35,1.75.75,2.62,1.19a8.35,8.35,0,0,0,3.74,1.06,5.72,5.72,0,0,0,3.47-1.21,25,25,0,0,0,4.52-4.08,3.44,3.44,0,0,0,.93-2.78,3.72,3.72,0,0,0-1.93-2.46,24.21,24.21,0,0,0-4.66-2Z" transform="translate(1737.77 -2304.24)"/><path class="cls-1" d="M-1697.15,2373.79l-.92-.32-.61-.22a14.52,14.52,0,0,0-4.2-1.12,1.83,1.83,0,0,0-.7.11,8.87,8.87,0,0,0-4.05,3.24c-.32.38-.65.8-1,1.18a4.4,4.4,0,0,1-.37.38l0,0a12.28,12.28,0,0,0-1.79,2.18c-.87,1.47.15,2.35,1.37,3.09A30.13,30.13,0,0,0-1706,2384l.22.09c.84.36,1.73.75,2.61,1.2a8.3,8.3,0,0,0,3.75,1,5.64,5.64,0,0,0,3.46-1.2,25.77,25.77,0,0,0,4.52-4.07,3.49,3.49,0,0,0,.94-2.78,3.81,3.81,0,0,0-1.93-2.47,23.45,23.45,0,0,0-4.47-2Z" transform="translate(1737.77 -2304.24)"/><path class="cls-1" d="M-1680,2416.41a29,29,0,0,0,3.64,1.76l.06,0c.89.38,1.77.78,2.61,1.2a8.23,8.23,0,0,0,3.75,1,5.71,5.71,0,0,0,3.47-1.2,24.39,24.39,0,0,0,4.51-4.06,3.44,3.44,0,0,0,.94-2.79,3.81,3.81,0,0,0-1.93-2.47,22.94,22.94,0,0,0-4.65-2c-.3-.13-.61-.23-.91-.33l-.16-.06c-.14-.05-.29-.12-.44-.16a14.94,14.94,0,0,0-4.28-1.15,2,2,0,0,0-.7.12,9,9,0,0,0-4,3.21c-.31.38-.66.82-1,1.21-.13.12-.25.26-.38.39a11.55,11.55,0,0,0-1.84,2.2C-1682.2,2414.8-1681.19,2415.68-1680,2416.41Z" transform="translate(1737.77 -2304.24)"/><path class="cls-1" d="M-1701,2407.68a32.27,32.27,0,0,0,3.66,1.76l0,0c.85.36,1.75.75,2.62,1.19a8.3,8.3,0,0,0,3.75,1,5.65,5.65,0,0,0,3.47-1.22,24.35,24.35,0,0,0,4.51-4,3.59,3.59,0,0,0,1-2.8,3.77,3.77,0,0,0-1.94-2.46,22.67,22.67,0,0,0-4.66-2l-.28-.09-.68-.25a.93.93,0,0,0-.26-.1,1.57,1.57,0,0,0-.28-.1l-.12-.05a14.91,14.91,0,0,0-4.15-1.08,1.88,1.88,0,0,0-.71.1,8.88,8.88,0,0,0-4,3.2,12,12,0,0,1-1,1.21l-.1.1a3.84,3.84,0,0,1-.28.3l0,.05a11.75,11.75,0,0,0-1.78,2.16C-1703.2,2406.05-1702.19,2406.93-1701,2407.68Z" transform="translate(1737.77 -2304.24)"/><path class="cls-1" d="M-1678.33,2397.43a5.71,5.71,0,0,0,3.48-1.21,26.55,26.55,0,0,0,4.51-4,3.47,3.47,0,0,0,.93-2.79,3.74,3.74,0,0,0-1.93-2.47,23.62,23.62,0,0,0-4.66-2l-.3-.1c-.22-.08-.44-.16-.67-.26a3.23,3.23,0,0,1-.52-.18,15.49,15.49,0,0,0-4.28-1.13,1.73,1.73,0,0,0-.71.11,8.72,8.72,0,0,0-4,3.21c-.36.44-.68.83-1,1.22l-.38.37a12.28,12.28,0,0,0-1.83,2.21c-.85,1.45.16,2.34,1.38,3.09a31.72,31.72,0,0,0,3.69,1.78c1,.44,1.87.82,2.62,1.18A8.35,8.35,0,0,0-1678.33,2397.43Z" transform="translate(1737.77 -2304.24)"/><path class="cls-1" d="M-1661.89,2370.47l-.58-.22-.41-.15-.12,0a14.89,14.89,0,0,0-4.27-1.13,1.81,1.81,0,0,0-.7.11,8.83,8.83,0,0,0-4,3.2l-.14.17c-.28.35-.57.71-.89,1l-.37.39a11.2,11.2,0,0,0-1.84,2.21c-.87,1.44.14,2.34,1.37,3.09a34.33,34.33,0,0,0,3.62,1.75l.07,0c.8.34,1.73.74,2.62,1.2a8.4,8.4,0,0,0,3.75,1,5.73,5.73,0,0,0,3.47-1.22,25.49,25.49,0,0,0,4.51-4.05,3.46,3.46,0,0,0,.94-2.8,3.72,3.72,0,0,0-1.93-2.45,23,23,0,0,0-4.66-2A3.1,3.1,0,0,0-1661.89,2370.47Z" transform="translate(1737.77 -2304.24)"/><path class="cls-1" d="M-1657.32,2406.16a5.62,5.62,0,0,0,3.46-1.2,25.52,25.52,0,0,0,4.52-4.06,3.5,3.5,0,0,0,.94-2.8,3.79,3.79,0,0,0-1.93-2.46,22.92,22.92,0,0,0-4.66-2c-.33-.13-.66-.24-1-.35l-.46-.16-.08,0a15,15,0,0,0-4.27-1.14,2.16,2.16,0,0,0-.71.11,8.89,8.89,0,0,0-4,3.18l0,.05c-.32.4-.65.81-1,1.2-.13.12-.26.26-.37.38a12.76,12.76,0,0,0-1.85,2.21c-.86,1.48.16,2.35,1.38,3.08a33.09,33.09,0,0,0,3.69,1.78l.26.12c.78.34,1.59.69,2.36,1.07A8.17,8.17,0,0,0-1657.32,2406.16Z" transform="translate(1737.77 -2304.24)"/><path class="cls-1" d="M-1606.07,2385.16a25.12,25.12,0,0,0,4.51-4.07,3.44,3.44,0,0,0,.94-2.78,3.81,3.81,0,0,0-1.93-2.47,22.34,22.34,0,0,0-4.42-2l-.38-.13-.82-.29-.61-.22a14.61,14.61,0,0,0-4.2-1.12,1.85,1.85,0,0,0-.71.11,8.76,8.76,0,0,0-4,3.21l-.09.11c-.31.37-.62.75-1,1.1l-.4.41a12.05,12.05,0,0,0-1.81,2.18c-.87,1.46.14,2.35,1.37,3.09a32.07,32.07,0,0,0,3.5,1.69l.2.09c.8.35,1.73.74,2.61,1.2a8.23,8.23,0,0,0,3.74,1A5.69,5.69,0,0,0-1606.07,2385.16Z" transform="translate(1737.77 -2304.24)"/><path class="cls-1" d="M-1642.82,2391.89a5.69,5.69,0,0,0,3.47-1.2,25.31,25.31,0,0,0,4.51-4.07,3.49,3.49,0,0,0,.95-2.79,3.81,3.81,0,0,0-1.94-2.47,24,24,0,0,0-4.67-2l-.46-.17-.49-.16-.07,0c-.15-.07-.32-.12-.46-.17a14.78,14.78,0,0,0-4.28-1.15,1.75,1.75,0,0,0-.71.12,8.9,8.9,0,0,0-4,3.2l-.15.18a12.17,12.17,0,0,1-.9,1l-.06.09-.3.31,0,0a11.1,11.1,0,0,0-1.81,2.19c-.87,1.44.15,2.33,1.37,3.07a31.26,31.26,0,0,0,3.69,1.78c.9.39,1.78.77,2.62,1.2A8.21,8.21,0,0,0-1642.82,2391.89Z" transform="translate(1737.77 -2304.24)"/><path class="cls-1" d="M-1645.16,2428c.46-.37,16.27-17.33,17.09-18.33a3.57,3.57,0,0,0,1-2.79,3.83,3.83,0,0,0-1.94-2.47,24,24,0,0,0-4.65-2,3.12,3.12,0,0,1-.43-.15c-.18,0-.36-.12-.54-.19a1,1,0,0,0-.21-.06l-.33-.14-.1,0a14.72,14.72,0,0,0-4.17-1.11,2.08,2.08,0,0,0-.71.11,8.92,8.92,0,0,0-4,3.17l0,.05c-.23.28-.44.54-.65.77l0,.08a30.4,30.4,0,0,1-2.59,3.08c-1.41,1.61-3.26,3.67-5.06,5.67l-.67.75c-3.71,4.11-6.56,7.29-6.82,7.72-.86,1.47.15,2.35,1.37,3.08a28.82,28.82,0,0,0,3.7,1.78l.44.2c.72.3,1.46.63,2.18,1a8.4,8.4,0,0,0,3.75,1A5.68,5.68,0,0,0-1645.16,2428Z" transform="translate(1737.77 -2304.24)"/><path class="cls-1" d="M-1568.31,2345.75l-.13,1.07a24,24,0,0,1-1.29,5.29c-3.46,9.44-9.63,18.15-15.64,26.25-6.47,8.72-13.11,17.38-19.74,25.7l-.52.67c-6.34,8-12.89,16.25-20.07,23.93-4.38,4.67-10.37,11.08-17.38,14.74l-2.42,1.27,2.65-.64a35.73,35.73,0,0,0,7.92-2.8c4.36-2.28,8-5.87,11.42-9.33l11.85-11.85c4.33-4.33,8.33-9.12,11.87-13.35l0,0c2.93-3.48,6-7.09,9.13-10.48,1.39-1.49,2.83-3,4.23-4.45l.89-.92c5.44-5.63,11-11.45,15.46-18.07,3-4.59,5.87-9.57,5.83-14.85,0-3.89-1.71-7.51-3.6-11.17Z" transform="translate(1737.77 -2304.24)"/><path class="cls-3" d="M-1623.51,2423.94c6.77-7.64,13-15.46,20.39-24.9,6.11-7.77,13-16.58,19.45-25.66a136.39,136.39,0,0,0,8.62-13.62c2.35-4.33,5-9.25,5.19-14.43.18-4.91-2-9.13-6.62-12.53a66.26,66.26,0,0,0-12.87-7.28c-10.22-4.51-20.13-8.56-29.48-12-11.34-4.17-21.35-6.7-30.61-7.75h-.09l-.07,0a56.77,56.77,0,0,0-16.46,10.68c-5,4.55-9.52,9.49-14.12,14.6-6,6.67-12,13.43-17.65,19.79-3.45,3.91-7.17,8.12-10.89,12.28-.9,1-1.82,2-2.73,3.06-6,6.65-12.14,13.51-17.38,21l-.07.1c-2.73,3.88-5.83,8.27-7.06,13s.12,9.61,3.89,13.46a45.54,45.54,0,0,0,10.6,7.64c4.51,2.46,9.24,4.82,14.48,7.21l2,.93a295.5,295.5,0,0,0,27.5,11.48c6.19,2.1,13.39,4.35,20.44,4.35a26.39,26.39,0,0,0,10.46-2C-1637.08,2439.28-1629.56,2430.78-1623.51,2423.94Zm-28.81,5.86c-.36-.17-.74-.32-1.12-.48l-.56-.23a36.16,36.16,0,0,1-4.4-2l-.31-.17-.26-.14a6,6,0,0,1-2.45-1.88c-1.43-2.45.5-4.48,1.92-5.94.13-.15.35-.41.64-.81s.54-.68.64-.77l1.79-1.46.06-.06c.06-.1.5-.6,1-1.25l.59-.71c2.46-2.94,7-8.41,7.82-9.22s1.38-1.38,2-2l.29-.29,1.12-1.09a6.28,6.28,0,0,1,4.62-2.1,12.35,12.35,0,0,1,4.7,1.26l.46.19.77.3.35.13.24.08c2.13.77,4.78,1.71,6.08,3.62a4.44,4.44,0,0,1-.53,5.78c-.9,1-4.46,5-7.81,8.85l-1.62,1.84c-1.6,1.81-2.85,3.24-3.15,3.57a23.33,23.33,0,0,1-5.9,5,7.11,7.11,0,0,1-3.36,1,4.45,4.45,0,0,1-.77-.05,11.37,11.37,0,0,1-2.83-1Zm-2.36-109.2a.63.63,0,0,1,.28-.74,18.09,18.09,0,0,1,9.65-3.13h0a25.28,25.28,0,0,1,10.11,2.61c2,.89,4.13,1.88,6.57,3l.81.37c4.78,2.2,9.7,4.48,14.68,6.47,2.48,1,5,1.94,7.46,2.87l.49.19c1.21.46,2.43.92,3.65,1.4l.59.21a1.66,1.66,0,0,0,.31.12l0,0c2.71,1,5.5,2.09,7.66,3.95,2.42,2.1,3.56,4.41,3.38,6.86a17.54,17.54,0,0,1-3.33,8.34c-3.12,4.46-6.27,7.52-9.63,9.33-3.8,2-8.19,2-12.81.05-2.42-1.06-4.73-2.29-7.29-3.67l-.16-.09c-2-1.1-4.15-2.24-6.29-3.22-4.64-2.1-9.56-4.14-14.6-6-.93-.36-1.87-.71-2.79-1l-.83-.31c-3.44-1.26-7-2.57-10.34-4.17-3.76-1.79-7.71-4.1-8.69-7.78-1.11-4.16,2-8.09,4.7-10.63a38.23,38.23,0,0,1,6.18-4.64l.22-.13Zm.62,52.45a4.47,4.47,0,0,1-.53,5.78,23.77,23.77,0,0,1-5.89,5,7.33,7.33,0,0,1-3.37,1,4,4,0,0,1-.77-.06,11.47,11.47,0,0,1-2.77-.95l-.11,0c-.32-.16-.72-.33-1.13-.49l-.46-.19a38.38,38.38,0,0,1-4.5-2l-.05,0-.49-.27a5.92,5.92,0,0,1-2.47-1.91c-1.44-2.44.49-4.46,1.9-5.94.66-.67,1.35-1.35,2-2l1.41-1.38a6.26,6.26,0,0,1,4.62-2.09,12.58,12.58,0,0,1,4.69,1.25c.47.2.87.36,1.24.49.19.07.39.13.58.21C-1658,2370.18-1655.37,2371.13-1654.06,2373.05Zm1.48,16.78a3.3,3.3,0,0,0-.41-.23l-.18-.1a6,6,0,0,1-2.43-1.87c-1.43-2.45.49-4.47,1.91-6,.57-.58,1.2-1.22,2-2,.4-.36.79-.76,1.17-1.15l.25-.23a6.33,6.33,0,0,1,4.61-2.1,12,12,0,0,1,4.58,1.21l.29.11c.37.16.73.31,1.07.43l.33.11.24.1c2.14.75,4.8,1.7,6.1,3.61a4.45,4.45,0,0,1-.53,5.78,24,24,0,0,1-5.89,5,7.38,7.38,0,0,1-3.37,1,4.06,4.06,0,0,1-.76-.07,11.13,11.13,0,0,1-2.89-1c-.3-.14-.7-.32-1.13-.49l-.45-.18A39.32,39.32,0,0,1-1652.58,2389.83Zm16.95-12.07-.53-.22a38.25,38.25,0,0,1-4.43-2l-.54-.29a5.85,5.85,0,0,1-2.46-1.91c-1.43-2.43.49-4.46,1.91-5.94.66-.67,1.35-1.35,2-2l.38-.36c.34-.35.68-.68,1-1a6.29,6.29,0,0,1,4.62-2.08,12.51,12.51,0,0,1,4.7,1.23l.28.12a10,10,0,0,0,1,.38l.33.13a.84.84,0,0,1,.25.09c2.13.75,4.77,1.69,6.08,3.62a4.41,4.41,0,0,1-.52,5.77,24,24,0,0,1-5.9,5,7.14,7.14,0,0,1-3.36,1,4,4,0,0,1-.77-.06,12.12,12.12,0,0,1-2.83-1l-.23-.09C-1635,2378-1635.3,2377.89-1635.63,2377.76Zm-52.47,17.58-.55-.28a6.13,6.13,0,0,1-2.46-1.9c-1.44-2.46.5-4.48,1.92-5.95.65-.67,1.33-1.35,2-2l.17-.16,1.22-1.22a6.36,6.36,0,0,1,4.63-2.09,12.25,12.25,0,0,1,4.7,1.26c.44.18.85.34,1.24.48l.57.21c2,.71,4.77,1.68,6.09,3.61a4.43,4.43,0,0,1-.53,5.78,23.62,23.62,0,0,1-5.88,5,7.39,7.39,0,0,1-3.37,1,5.09,5.09,0,0,1-.77-.06,10.84,10.84,0,0,1-2.81-1l-.18-.09c-.33-.13-.68-.3-1-.44l-.44-.17A35.77,35.77,0,0,1-1688.1,2395.34Zm21,8.74c-.18-.08-.36-.2-.54-.28l-.09,0a6,6,0,0,1-2.39-1.87c-1.43-2.45.51-4.46,1.92-5.94.55-.57,1.13-1.14,1.69-1.69l.3-.3c.47-.44,1-.91,1.41-1.38a6.35,6.35,0,0,1,4.62-2.09,12.49,12.49,0,0,1,4.63,1.22l.06,0a13,13,0,0,0,1.25.5c.18.07.37.14.57.2,2.14.77,4.79,1.71,6.09,3.62a4.43,4.43,0,0,1-.52,5.78,23.86,23.86,0,0,1-5.89,5,7.23,7.23,0,0,1-3.37,1,3.94,3.94,0,0,1-.77-.07,11.64,11.64,0,0,1-2.89-1l-.36-.15c-.24-.12-.49-.22-.77-.35l-.47-.17A40,40,0,0,1-1667.09,2404.08Zm18.95-48.93c2.12.76,4.76,1.7,6.08,3.62a4.43,4.43,0,0,1-.53,5.77,23.78,23.78,0,0,1-5.89,5.05,6.47,6.47,0,0,1-4.13.9,11,11,0,0,1-2.88-1l-1.13-.48-.73-.29a32.71,32.71,0,0,1-4.22-1.92l-.48-.25-.13-.06a6,6,0,0,1-2.42-1.88c-1.43-2.45.5-4.47,1.91-5.94.7-.74,1.44-1.46,2-2l1.41-1.37a6.2,6.2,0,0,1,4.61-2.09,12.56,12.56,0,0,1,4.61,1.2l.08,0a12.49,12.49,0,0,0,1.25.49Zm33.33,31.16a37.79,37.79,0,0,1-4.5-2l-.27-.14-.31-.17a6.13,6.13,0,0,1-2.43-1.88c-1.44-2.46.57-4.55,1.91-5.94.65-.67,1.31-1.32,2-2,.16-.16.33-.32.5-.5l.91-.89a6.31,6.31,0,0,1,4.62-2.09,12.44,12.44,0,0,1,4.7,1.25l.41.18.83.32.25.09.32.11,0,0c2.11.76,4.75,1.7,6,3.61a4.4,4.4,0,0,1-.52,5.76,23.94,23.94,0,0,1-5.89,5.06,7.33,7.33,0,0,1-3.37,1,4.77,4.77,0,0,1-.76-.07,11,11,0,0,1-2.83-.95l-.06,0c-.38-.18-.76-.35-1.13-.5Zm-48.89-32.83a23.42,23.42,0,0,1-5.89,5,6.38,6.38,0,0,1-4.13.9,11,11,0,0,1-2.82-.94l-.06,0c-.37-.18-.75-.34-1.14-.5l-.54-.2a39,39,0,0,1-4.42-2l-.2-.1a1.86,1.86,0,0,0-.34-.18,5.93,5.93,0,0,1-2.47-1.91c-1.44-2.45.5-4.47,1.91-5.94.6-.62,1.24-1.25,1.85-1.84l.52-.51,1-1a6.31,6.31,0,0,1,4.61-2.08,12.4,12.4,0,0,1,4.7,1.25l.33.13.91.35a1.27,1.27,0,0,1,.18.06l.39.15c2.13.76,4.78,1.68,6.09,3.62A4.43,4.43,0,0,1-1663.7,2353.48Zm-17.5,4.9c2.11.76,4.74,1.71,6,3.6a4.44,4.44,0,0,1-.53,5.78,23.8,23.8,0,0,1-5.89,5,7.36,7.36,0,0,1-3.37,1,3.5,3.5,0,0,1-.76-.06,11.8,11.8,0,0,1-2.83-1l-.06,0c-.41-.19-.77-.35-1.13-.49l-.47-.19a40.88,40.88,0,0,1-4.5-2l-.11-.06-.43-.24a5.94,5.94,0,0,1-2.46-1.89c-1.44-2.46.58-4.56,1.91-5.94.59-.62,1.24-1.25,2-2l.58-.58c.27-.26.55-.54.82-.82a6.32,6.32,0,0,1,4.62-2.08,12.2,12.2,0,0,1,4.69,1.25c.46.2.88.35,1.24.49l.43.16Zm-14.57,14.25,0,0c2.12.76,4.75,1.7,6,3.61a4.43,4.43,0,0,1-.52,5.76,24.13,24.13,0,0,1-5.89,5.06,6.53,6.53,0,0,1-4.15.89,10.88,10.88,0,0,1-2.83-1h0l-1.13-.5-.46-.18a35.4,35.4,0,0,1-4.5-2l-.28-.14a1.65,1.65,0,0,1-.25-.15l0,0a6,6,0,0,1-2.43-1.88c-1.44-2.46.57-4.56,1.91-5.94.58-.61,1.19-1.21,1.78-1.79l.22-.21c.15-.15.3-.29.45-.45.33-.3.65-.6,1-.93a6.29,6.29,0,0,1,4.61-2.09,12.35,12.35,0,0,1,4.7,1.25l.48.19c.26.12.51.21.78.31l.24.09Zm-6.49,17.9a4.43,4.43,0,0,1-.53,5.77,24,24,0,0,1-5.88,5,7.17,7.17,0,0,1-3.38,1,5,5,0,0,1-.76-.06,11.06,11.06,0,0,1-2.79-.95l-.1-.05c-.36-.17-.73-.32-1.13-.49l-.51-.2a41.17,41.17,0,0,1-4.45-2c-.17-.1-.35-.2-.54-.29l0,0a6.06,6.06,0,0,1-2.43-1.89c-1.44-2.46.5-4.47,1.92-5.94.65-.68,1.31-1.32,2-2l1.42-1.39a6.3,6.3,0,0,1,4.61-2.1,12.08,12.08,0,0,1,4.71,1.26l1.23.49.58.21C-1706.21,2387.66-1703.57,2388.6-1702.26,2390.53Zm.48,11c.66-.68,1.37-1.38,2-2l.26-.25,1.16-1.15a6.31,6.31,0,0,1,4.61-2.08,12.35,12.35,0,0,1,4.7,1.26c.17.06.33.13.48.2l.77.29a2,2,0,0,1,.31.12l.25.08c2.14.75,4.78,1.69,6.09,3.63a4.4,4.4,0,0,1-.52,5.76,23.65,23.65,0,0,1-5.89,5,6.55,6.55,0,0,1-4.14.9,11,11,0,0,1-2.88-1c-.39-.19-.79-.35-1.13-.49l-.45-.18a35.56,35.56,0,0,1-4.51-2l-.15-.07c-.12-.08-.26-.15-.41-.23a6,6,0,0,1-2.45-1.89C-1705.13,2405-1703.19,2403-1701.78,2401.49Zm21,8.73c.65-.67,1.35-1.36,2-2,.46-.46,1-.92,1.42-1.38a6.27,6.27,0,0,1,4.6-2.08,12.38,12.38,0,0,1,4.62,1.21l.32.13c.36.15.69.29,1,.4l.42.14.15.06c2.13.76,4.79,1.7,6.09,3.63a4.43,4.43,0,0,1-.53,5.77,23.45,23.45,0,0,1-5.89,5,7.23,7.23,0,0,1-3.36,1c-.28,0-.55,0-.78-.05a11.51,11.51,0,0,1-2.88-1l-.31-.13c-.27-.12-.54-.25-.81-.35l-.74-.28a42.19,42.19,0,0,1-4.22-1.91,4.69,4.69,0,0,0-.55-.32,5.89,5.89,0,0,1-2.47-1.89C-1684.12,2413.73-1682.19,2411.71-1680.78,2410.22Zm53.79-9.71a37.25,37.25,0,0,1-4.33-2,5.64,5.64,0,0,0-.55-.29,6,6,0,0,1-2.45-1.91c-1.44-2.46.57-4.55,1.91-5.93.66-.71,1.35-1.38,2-2,.46-.46.94-.91,1.4-1.38a6.32,6.32,0,0,1,4.62-2.1,12,12,0,0,1,4.69,1.26l1.25.49.13,0c.15.07.3.12.46.18,2.13.75,4.77,1.7,6.07,3.62a4.42,4.42,0,0,1-.53,5.77,23.62,23.62,0,0,1-5.89,5,7.1,7.1,0,0,1-3.36,1,5.09,5.09,0,0,1-.77-.06,11.6,11.6,0,0,1-2.82-1l-.06,0c-.36-.17-.74-.31-1.14-.49Z" transform="translate(1737.77 -2304.24)"/><path class="cls-1" d="M-1627.34,2376.41a25.79,25.79,0,0,0,4.51-4.06,3.47,3.47,0,0,0,.93-2.79,3.75,3.75,0,0,0-1.93-2.46,23.62,23.62,0,0,0-4.67-2c-.32-.11-.64-.2-.94-.31a1.28,1.28,0,0,0-.31-.11,1.22,1.22,0,0,0-.24-.1,14.56,14.56,0,0,0-4.27-1.15,1.86,1.86,0,0,0-.7.12,9,9,0,0,0-4,3.21c-.32.4-.67.81-1,1.22-.12.12-.24.26-.37.37a12.28,12.28,0,0,0-1.84,2.21c-1,1.69.61,2.62,1.38,3.08a28.43,28.43,0,0,0,3.68,1.79l.46.19c.72.31,1.45.63,2.16,1a8.21,8.21,0,0,0,3.76,1A5.66,5.66,0,0,0-1627.34,2376.41Z" transform="translate(1737.77 -2304.24)"/><path class="cls-1" d="M-1665.93,2347.3a21.81,21.81,0,0,0-4.67-2l-.21-.09c-.25-.09-.5-.17-.76-.28a3.22,3.22,0,0,1-.42-.16l-.1,0a15.52,15.52,0,0,0-4.28-1.12,1.87,1.87,0,0,0-.71.1,8.91,8.91,0,0,0-4,3.2l-.16.2c-.29.34-.57.69-.88,1l-.13.13-.24.26-.06.06a12.1,12.1,0,0,0-1.79,2.15c-.86,1.46.15,2.34,1.38,3.09a30.21,30.21,0,0,0,3.49,1.69l.2.08c1,.4,1.79.77,2.62,1.21a8.4,8.4,0,0,0,3.75,1,5.63,5.63,0,0,0,3.47-1.22,24.39,24.39,0,0,0,4.51-4.06,3.49,3.49,0,0,0,.94-2.78A3.74,3.74,0,0,0-1665.93,2347.3Z" transform="translate(1737.77 -2304.24)"/><path class="cls-1" d="M-1650.65,2355.92l-.34-.13a14.88,14.88,0,0,0-4.27-1.15,2.41,2.41,0,0,0-.72.12,9,9,0,0,0-4,3.22l0,.05a14.94,14.94,0,0,1-1,1.15c0,.07-.11.12-.17.2l-.19.19a12.41,12.41,0,0,0-1.84,2.21c-.87,1.46.15,2.35,1.38,3.09a33.92,33.92,0,0,0,3.69,1.77c.85.36,1.75.75,2.61,1.18a8.13,8.13,0,0,0,3.75,1,5.69,5.69,0,0,0,3.48-1.2,24.85,24.85,0,0,0,4.51-4.06,3.5,3.5,0,0,0,.94-2.79,3.83,3.83,0,0,0-1.93-2.46,22.86,22.86,0,0,0-4.66-2l-.44-.16a5.62,5.62,0,0,1-.53-.19Z" transform="translate(1737.77 -2304.24)"/><path class="cls-1" d="M-1621.55,2400.64a5.68,5.68,0,0,0,3.47-1.21,25.1,25.1,0,0,0,4.52-4.07,3.5,3.5,0,0,0,.94-2.78,3.85,3.85,0,0,0-1.93-2.47,24.42,24.42,0,0,0-4.63-2h0l-.52-.19-.42-.14-.28-.11a1.9,1.9,0,0,1-.28-.1l-.09,0a14.64,14.64,0,0,0-4.18-1.12,1.81,1.81,0,0,0-.7.11,8.82,8.82,0,0,0-4,3.21c-.29.36-.64.8-1,1.21a2.83,2.83,0,0,1-.24.25l-.24.25a11.85,11.85,0,0,0-1.73,2.1c-.86,1.45.15,2.34,1.38,3.08a31.2,31.2,0,0,0,3.69,1.78l.14.07c.81.35,1.66.7,2.48,1.12A8.13,8.13,0,0,0-1621.55,2400.64Z" transform="translate(1737.77 -2304.24)"/><path d="M-1656.59,2344.73c3.46,1.65,7.12,3,10.67,4.3,1.1.39,2.22.79,3.32,1.22,5,1.88,9.93,3.92,14.58,6.05,2.19,1,4.35,2.17,6.44,3.3,2.35,1.26,4.8,2.57,7.3,3.67a17.35,17.35,0,0,0,6.83,1.52,13,13,0,0,0,6.28-1.59c3.41-1.84,6.6-4.93,9.75-9.43a17.94,17.94,0,0,0,3.38-8.5c.19-2.58-1-5-3.49-7.14-2.21-1.9-5-3-7.8-4-.3-.11-.6-.24-.9-.34-1.38-.55-2.76-1.06-4.13-1.59-2.45-.93-5-1.9-7.45-2.87-5.25-2.09-10.44-4.51-15.48-6.84l-6.56-3a25.72,25.72,0,0,0-10.26-2.63h-.06A18.44,18.44,0,0,0-1654,2320a1,1,0,0,0-.42,1.11,37.38,37.38,0,0,0-6.24,4.68c-2.82,2.61-5.95,6.62-4.8,10.95C-1664.44,2340.54-1660.4,2342.91-1656.59,2344.73Zm-3.65-16.23c3.41-3.95,8.32-6.51,11.84-7.94a1,1,0,0,0,.67-.95q1.23-.32,2.43-.51a12.66,12.66,0,0,1,1.39-.08h0a20.74,20.74,0,0,1,7,1.63,97.94,97.94,0,0,1,9.76,4.35c1.58.75,3.21,1.54,4.83,2.28,5.07,2.29,10.29,4.35,15.16,6.22,1.07.41,2.19.8,3.28,1.18,3.69,1.31,7.49,2.64,10.58,4.9a6.7,6.7,0,0,1,3,6c-.2,2.59-1.77,5.19-2.93,6.92-2.3,3.43-6.07,7.89-11,9.68a9,9,0,0,1-3.19.57c-4.05,0-8.24-2.38-11.59-4.28l-.1-.06a129,129,0,0,0-13.93-6.64c-4.24-1.78-8.62-3.44-12.84-5l-1.28-.51c-.58-.2-1.17-.42-1.76-.65-3.83-1.43-7.78-2.89-11-5.28-1.83-1.37-3.69-3.09-3.61-5.53S-1661.9,2330.43-1660.24,2328.5Z" transform="translate(1737.77 -2304.24)"/><path d="M-1682.8,2356.15l.53.29a38.45,38.45,0,0,0,4.55,2l.46.17c.38.17.75.33,1.11.51a11.4,11.4,0,0,0,3,1,3.68,3.68,0,0,0,.82.07,7.6,7.6,0,0,0,3.52-1,24,24,0,0,0,6-5.11,4.73,4.73,0,0,0,.55-6.19c-1.35-2-4.07-3-6.24-3.73-.2-.1-.39-.14-.57-.22-.38-.13-.79-.32-1.23-.49a12.72,12.72,0,0,0-4.83-1.26,6.62,6.62,0,0,0-4.85,2.18c-.46.47-1,.92-1.41,1.38-.66.65-1.35,1.32-2,2-1.4,1.46-3.52,3.67-2,6.33A6.09,6.09,0,0,0-1682.8,2356.15Zm-.68-4.86a12,12,0,0,1,1.8-2.14l.37-.39c.38-.4.72-.83,1.06-1.23a8.56,8.56,0,0,1,3.88-3.12,2,2,0,0,1,.59-.08,14.54,14.54,0,0,1,4.16,1.12l.54.19c.31.12.63.24,1,.35a22.17,22.17,0,0,1,4.6,2,3.42,3.42,0,0,1,1.78,2.24,3.14,3.14,0,0,1-.87,2.52,26.12,26.12,0,0,1-4.44,4,5.39,5.39,0,0,1-3.28,1.13,8,8,0,0,1-3.6-1c-.87-.45-1.77-.83-2.64-1.21a33,33,0,0,1-3.65-1.75C-1683.5,2353.14-1684.16,2352.43-1683.48,2351.29Z" transform="translate(1737.77 -2304.24)"/><path d="M-1647.44,2355.25l-.58-.2c-.38-.14-.8-.32-1.23-.5a13,13,0,0,0-4.82-1.26,6.58,6.58,0,0,0-4.85,2.18l-1.4,1.38c-.67.65-1.36,1.32-2,2-1.4,1.47-3.51,3.67-2,6.34a6.2,6.2,0,0,0,2.61,2c.18.1.37.18.53.29a37.53,37.53,0,0,0,4.54,2l.46.18,1.12.48a11.25,11.25,0,0,0,3,1,4.47,4.47,0,0,0,.82.07,7.63,7.63,0,0,0,3.53-1,24,24,0,0,0,6-5.1,4.75,4.75,0,0,0,.55-6.19C-1642.56,2357-1645.27,2356-1647.44,2355.25Zm3.94,8.57a25.26,25.26,0,0,1-4.46,4,5.31,5.31,0,0,1-3.27,1.14,7.89,7.89,0,0,1-3.6-1c-.86-.43-1.76-.82-2.63-1.18a34.15,34.15,0,0,1-3.66-1.77c-1.27-.78-1.94-1.48-1.25-2.64a11.57,11.57,0,0,1,1.79-2.13c.12-.14.25-.26.38-.39.37-.39.72-.83,1-1.23a8.58,8.58,0,0,1,3.89-3.12,1.88,1.88,0,0,1,.59-.09,14.81,14.81,0,0,1,4.15,1.12l.55.21,1,.33a22.43,22.43,0,0,1,4.6,2,3.47,3.47,0,0,1,1.78,2.23A3.2,3.2,0,0,1-1643.5,2363.82Z" transform="translate(1737.77 -2304.24)"/><path d="M-1643.29,2373.93a6.38,6.38,0,0,0,2.6,2c.19.08.36.18.54.27a38.94,38.94,0,0,0,4.52,2.05l.47.19,1.12.48a12.23,12.23,0,0,0,3,1,4.47,4.47,0,0,0,.82.07,7.47,7.47,0,0,0,3.51-1,23.67,23.67,0,0,0,6-5.11,4.72,4.72,0,0,0,.56-6.17c-1.36-2-4.07-3-6.25-3.76l-.58-.2c-.38-.14-.79-.31-1.22-.49a12.73,12.73,0,0,0-4.83-1.27,6.61,6.61,0,0,0-4.85,2.17c-.46.47-.94.93-1.4,1.39-.67.65-1.36,1.32-2,2C-1642.73,2369.06-1644.85,2371.27-1643.29,2373.93Zm3.71-5,.38-.39c.37-.41.73-.82,1-1.24a8.71,8.71,0,0,1,3.89-3.12,2.33,2.33,0,0,1,.59-.08,14.62,14.62,0,0,1,4.16,1.12l.54.2c.31.12.63.23,1,.33a23.69,23.69,0,0,1,4.6,2,3.46,3.46,0,0,1,1.79,2.23,3.22,3.22,0,0,1-.87,2.54,25.5,25.5,0,0,1-4.45,4,5.48,5.48,0,0,1-3.28,1.13,7.92,7.92,0,0,1-3.59-1c-.87-.45-1.77-.83-2.64-1.2a29.88,29.88,0,0,1-3.65-1.77c-1.28-.77-1.93-1.48-1.26-2.63A11.5,11.5,0,0,1-1639.58,2369Z" transform="translate(1737.77 -2304.24)"/><path d="M-1605.17,2372.73c-.2-.06-.39-.15-.57-.2-.39-.14-.8-.31-1.23-.49a12.64,12.64,0,0,0-4.82-1.28,6.68,6.68,0,0,0-4.86,2.18c-.46.48-.94.94-1.4,1.4-.67.64-1.35,1.3-2,2-1.4,1.46-3.51,3.67-2,6.33a6.22,6.22,0,0,0,2.61,2l.53.29a39.22,39.22,0,0,0,4.54,2.05l.46.18c.38.16.75.31,1.11.48a11.18,11.18,0,0,0,3,1,3.77,3.77,0,0,0,.83.08,7.57,7.57,0,0,0,3.51-1,23.27,23.27,0,0,0,6-5.12,4.73,4.73,0,0,0,.56-6.18C-1600.28,2374.47-1603,2373.52-1605.17,2372.73Zm4,8.57a26,26,0,0,1-4.46,4,5.36,5.36,0,0,1-3.28,1.14,7.88,7.88,0,0,1-3.58-1c-.87-.44-1.78-.84-2.64-1.2a33.18,33.18,0,0,1-3.66-1.76c-1.27-.78-1.93-1.49-1.25-2.64a12.18,12.18,0,0,1,1.78-2.14c.13-.12.26-.26.38-.39.38-.39.73-.82,1.06-1.22A8.58,8.58,0,0,1-1613,2373a1.86,1.86,0,0,1,.59-.08,15.12,15.12,0,0,1,4.15,1.11c.2.08.38.15.55.2s.64.23,1,.34a23.58,23.58,0,0,1,4.6,2,3.51,3.51,0,0,1,1.78,2.24A3.18,3.18,0,0,1-1601.22,2381.3Z" transform="translate(1737.77 -2304.24)"/><path d="M-1694.81,2370.43c.19.08.37.19.54.28a37.25,37.25,0,0,0,4.53,2l.47.19,1.12.48a11.7,11.7,0,0,0,3,1,4.36,4.36,0,0,0,.81.06,7.74,7.74,0,0,0,3.53-1,23.78,23.78,0,0,0,6-5.12,4.72,4.72,0,0,0,.56-6.17c-1.36-2-4.07-3-6.24-3.75a5.83,5.83,0,0,1-.58-.23c-.39-.13-.79-.29-1.23-.47a12.68,12.68,0,0,0-4.82-1.27,6.64,6.64,0,0,0-4.86,2.17l-1.4,1.4c-.67.63-1.35,1.31-2,2-1.4,1.44-3.51,3.65-2,6.33A6.33,6.33,0,0,0-1694.81,2370.43Zm-.67-4.87a11.56,11.56,0,0,1,1.79-2.14l.37-.38c.38-.42.73-.82,1.06-1.24a8.56,8.56,0,0,1,3.89-3.1,1.42,1.42,0,0,1,.59-.1,14.9,14.9,0,0,1,4.15,1.12l.54.19,1,.35a24,24,0,0,1,4.61,2,3.49,3.49,0,0,1,1.78,2.25,3.15,3.15,0,0,1-.87,2.51,24.29,24.29,0,0,1-4.45,4,5.39,5.39,0,0,1-3.28,1.15,7.91,7.91,0,0,1-3.59-1c-.87-.45-1.77-.84-2.64-1.21a31.32,31.32,0,0,1-3.65-1.75C-1695.5,2367.42-1696.16,2366.72-1695.48,2365.56Z" transform="translate(1737.77 -2304.24)"/><path d="M-1670.92,2369.75c-.48.45-.95.93-1.41,1.38-.67.64-1.35,1.3-2,2-1.4,1.45-3.52,3.68-2,6.34a6.31,6.31,0,0,0,2.61,2c.18.08.36.19.53.28a35.15,35.15,0,0,0,4.53,2l.47.19,1.12.47a11.65,11.65,0,0,0,3,1,7.36,7.36,0,0,0,.82.06,7.79,7.79,0,0,0,3.53-1,24.41,24.41,0,0,0,6-5.12,4.75,4.75,0,0,0,.55-6.18c-1.36-2-4.08-3-6.25-3.75-.19-.08-.39-.14-.58-.21-.38-.13-.79-.3-1.22-.48a12.5,12.5,0,0,0-4.82-1.27A6.57,6.57,0,0,0-1670.92,2369.75Zm8.94,1.23,1,.34a23.32,23.32,0,0,1,4.6,2,3.42,3.42,0,0,1,1.78,2.23,3.14,3.14,0,0,1-.87,2.53,24.69,24.69,0,0,1-4.45,4,5.31,5.31,0,0,1-3.28,1.15,8,8,0,0,1-3.59-1c-.87-.44-1.77-.82-2.64-1.19a35,35,0,0,1-3.65-1.77c-1.28-.77-1.94-1.48-1.26-2.63a11.61,11.61,0,0,1,1.8-2.15l.37-.37c.38-.41.72-.83,1-1.24a8.57,8.57,0,0,1,3.89-3.11,1.66,1.66,0,0,1,.59-.09,14.54,14.54,0,0,1,4.16,1.12Z" transform="translate(1737.77 -2304.24)"/><path d="M-1642.26,2394.31a7.54,7.54,0,0,0,3.52-1,24.08,24.08,0,0,0,6-5.12,4.73,4.73,0,0,0,.55-6.18c-1.36-2-4.07-3-6.25-3.74l-.57-.21c-.39-.13-.79-.31-1.23-.48a12.64,12.64,0,0,0-4.83-1.28,6.61,6.61,0,0,0-4.85,2.19c-.47.46-.94.94-1.41,1.38-.65.64-1.34,1.31-2,2-1.4,1.47-3.51,3.67-2,6.34a6.21,6.21,0,0,0,2.61,2c.18.1.36.19.53.3a40.92,40.92,0,0,0,4.54,2l.45.18c.39.14.77.32,1.12.48a11.77,11.77,0,0,0,3,1A7,7,0,0,0-1642.26,2394.31Zm-6.21-4.55a30.6,30.6,0,0,1-3.65-1.77c-1.27-.76-1.93-1.47-1.26-2.61a11.05,11.05,0,0,1,1.8-2.15l.37-.39c.38-.4.73-.83,1.06-1.23a8.75,8.75,0,0,1,3.88-3.12,1.71,1.71,0,0,1,.6-.08,15,15,0,0,1,4.16,1.12c.19.06.37.14.53.2l1,.34a23.42,23.42,0,0,1,4.59,2,3.45,3.45,0,0,1,1.79,2.24,3.21,3.21,0,0,1-.87,2.53,26,26,0,0,1-4.45,4,5.4,5.4,0,0,1-3.28,1.14,8,8,0,0,1-3.6-1C-1646.69,2390.53-1647.59,2390.13-1648.47,2389.76Z" transform="translate(1737.77 -2304.24)"/><path d="M-1617.18,2387q-.28-.12-.57-.21l-1.23-.48a12.42,12.42,0,0,0-4.82-1.29,6.62,6.62,0,0,0-4.85,2.2l-1.4,1.37c-.67.65-1.36,1.31-2,2-1.4,1.46-3.52,3.66-2,6.34a6.41,6.41,0,0,0,2.6,2c.18.1.37.18.53.28a39.06,39.06,0,0,0,4.54,2l.46.17c.39.17.76.32,1.11.49a11.91,11.91,0,0,0,3,1,7.18,7.18,0,0,0,.82.06,7.48,7.48,0,0,0,3.52-1,24.23,24.23,0,0,0,6-5.11,4.73,4.73,0,0,0,.55-6.18C-1612.28,2388.75-1615,2387.78-1617.18,2387Zm4,8.55a23.83,23.83,0,0,1-4.47,4,5.26,5.26,0,0,1-3.27,1.15,8.22,8.22,0,0,1-3.59-1c-.87-.45-1.77-.83-2.64-1.21a32.19,32.19,0,0,1-3.65-1.76c-1.28-.77-1.94-1.47-1.26-2.64a12.2,12.2,0,0,1,1.78-2.13l.38-.39c.39-.41.73-.82,1.06-1.24a8.64,8.64,0,0,1,3.89-3.11,1.91,1.91,0,0,1,.59-.08,14.81,14.81,0,0,1,4.15,1.12,3.93,3.93,0,0,1,.55.21l1,.32a24.16,24.16,0,0,1,4.6,2,3.54,3.54,0,0,1,1.78,2.25A3.16,3.16,0,0,1-1613.22,2395.56Z" transform="translate(1737.77 -2304.24)"/><path d="M-1709.3,2384.7l.53.29a39.22,39.22,0,0,0,4.54,2.05l.46.18c.38.16.75.31,1.12.48a10.92,10.92,0,0,0,3,1,3.86,3.86,0,0,0,.84.08,7.57,7.57,0,0,0,3.51-1,23.67,23.67,0,0,0,6-5.12,4.75,4.75,0,0,0,.55-6.18c-1.36-2-4.07-3-6.25-3.75-.2-.06-.39-.15-.57-.2-.39-.14-.79-.31-1.23-.49a12.69,12.69,0,0,0-4.83-1.28,6.67,6.67,0,0,0-4.85,2.18c-.46.48-1,.94-1.41,1.4-.66.64-1.35,1.3-2,2-1.4,1.46-3.51,3.67-2,6.33A6.16,6.16,0,0,0-1709.3,2384.7Zm-.69-4.87a12.25,12.25,0,0,1,1.79-2.14c.13-.12.26-.26.38-.39.38-.39.73-.82,1.06-1.22a8.55,8.55,0,0,1,3.88-3.12,1.91,1.91,0,0,1,.59-.08,15.27,15.27,0,0,1,4.16,1.11,5.21,5.21,0,0,0,.54.2l1,.34a23.58,23.58,0,0,1,4.6,2,3.49,3.49,0,0,1,1.79,2.24,3.21,3.21,0,0,1-.87,2.52,26,26,0,0,1-4.46,4,5.35,5.35,0,0,1-3.27,1.14,8,8,0,0,1-3.6-1c-.87-.44-1.76-.84-2.63-1.2a31.39,31.39,0,0,1-3.65-1.76C-1710,2381.69-1710.66,2381-1710,2379.83Z" transform="translate(1737.77 -2304.24)"/><path d="M-1685.44,2384c-.45.47-.93.94-1.39,1.4-.67.63-1.36,1.31-2,2-1.4,1.45-3.53,3.67-2,6.33a6.27,6.27,0,0,0,2.6,2,5.24,5.24,0,0,1,.53.28,36.5,36.5,0,0,0,4.57,2l.43.17c.39.18.76.34,1.12.48a11,11,0,0,0,3,1,3.68,3.68,0,0,0,.82.08,7.53,7.53,0,0,0,3.52-1,23.94,23.94,0,0,0,6-5.1,4.72,4.72,0,0,0,.55-6.18c-1.36-2-4.06-3-6.25-3.75a5.42,5.42,0,0,1-.56-.22c-.38-.13-.8-.3-1.24-.47a12.41,12.41,0,0,0-4.82-1.28A6.67,6.67,0,0,0-1685.44,2384Zm9,1.23c.32.14.64.25,1,.36a23,23,0,0,1,4.6,2,3.4,3.4,0,0,1,1.77,2.24,3.17,3.17,0,0,1-.85,2.51,26.89,26.89,0,0,1-4.46,4,5.42,5.42,0,0,1-3.27,1.14,8,8,0,0,1-3.6-1c-.87-.44-1.77-.83-2.64-1.2a32.12,32.12,0,0,1-3.65-1.75c-1.28-.78-1.93-1.49-1.26-2.64a11.56,11.56,0,0,1,1.79-2.14l.38-.39c.37-.4.72-.82,1.06-1.22a8.51,8.51,0,0,1,3.88-3.13,1.86,1.86,0,0,1,.59-.08,15,15,0,0,1,4.16,1.12Z" transform="translate(1737.77 -2304.24)"/><path d="M-1667.2,2404.5l.53.29a42.07,42.07,0,0,0,4.55,2.06l.46.16,1.11.49a11.43,11.43,0,0,0,3,1,4.56,4.56,0,0,0,.82.08,7.56,7.56,0,0,0,3.53-1,24,24,0,0,0,6-5.11,4.74,4.74,0,0,0,.55-6.18c-1.37-2-4.07-3-6.26-3.74l-.57-.21c-.38-.14-.79-.3-1.23-.5a13,13,0,0,0-4.82-1.26,6.65,6.65,0,0,0-4.85,2.19l-1.4,1.38c-.67.65-1.36,1.31-2,2-1.41,1.46-3.51,3.68-2,6.33A6.17,6.17,0,0,0-1667.2,2404.5Zm-.68-4.86a11.62,11.62,0,0,1,1.8-2.14c.12-.14.25-.27.37-.39a15,15,0,0,0,1-1.24,8.76,8.76,0,0,1,3.89-3.11,1.91,1.91,0,0,1,.59-.08,15.05,15.05,0,0,1,4.16,1.12l.54.2c.32.1.64.22,1,.34a21.68,21.68,0,0,1,4.6,2,3.42,3.42,0,0,1,1.79,2.23,3.2,3.2,0,0,1-.88,2.52,24.69,24.69,0,0,1-4.45,4,5.42,5.42,0,0,1-3.27,1.14,8,8,0,0,1-3.6-1c-.86-.44-1.77-.83-2.64-1.21a27.67,27.67,0,0,1-3.64-1.76C-1667.9,2401.5-1668.55,2400.79-1667.88,2399.64Z" transform="translate(1737.77 -2304.24)"/><path d="M-1680.84,2408a4.73,4.73,0,0,0,.55-6.17c-1.36-2-4.08-3-6.25-3.74a6,6,0,0,0-.57-.22c-.39-.15-.8-.32-1.24-.48a12.37,12.37,0,0,0-4.82-1.29,6.67,6.67,0,0,0-4.85,2.18l-1.41,1.4c-.66.65-1.35,1.31-2,2-1.4,1.45-3.52,3.66-2,6.33a6.23,6.23,0,0,0,2.59,2l.54.29a37.74,37.74,0,0,0,4.55,2.05l.44.18a11.43,11.43,0,0,1,1.12.48,12,12,0,0,0,3,1,4.46,4.46,0,0,0,.82.06,7.62,7.62,0,0,0,3.53-1A24.2,24.2,0,0,0-1680.84,2408Zm-6.21,2.63a5.3,5.3,0,0,1-3.27,1.15,8,8,0,0,1-3.6-1c-.86-.44-1.77-.83-2.64-1.2a34.93,34.93,0,0,1-3.65-1.76c-1.27-.79-1.93-1.48-1.25-2.64a12.16,12.16,0,0,1,1.78-2.15c.13-.11.26-.25.38-.37.38-.4.72-.82,1.06-1.25a8.55,8.55,0,0,1,3.89-3.09,1.61,1.61,0,0,1,.58-.09,15.33,15.33,0,0,1,4.17,1.11l.53.2,1,.34a23.76,23.76,0,0,1,4.59,2,3.52,3.52,0,0,1,1.79,2.26,3.22,3.22,0,0,1-.87,2.52A25.27,25.27,0,0,1-1687,2410.63Z" transform="translate(1737.77 -2304.24)"/><path d="M-1659.84,2416.74a4.74,4.74,0,0,0,.56-6.18c-1.36-2-4.07-3-6.25-3.75l-.58-.2c-.39-.13-.8-.32-1.23-.5a13,13,0,0,0-4.82-1.26A6.65,6.65,0,0,0-1677,2407c-.47.48-1,.94-1.4,1.39-.67.65-1.36,1.32-2,2-1.4,1.48-3.51,3.68-2,6.34a6.1,6.1,0,0,0,2.6,2l.53.3a42.64,42.64,0,0,0,4.54,2l.47.19c.38.15.75.32,1.11.47a11.38,11.38,0,0,0,3,1,5.57,5.57,0,0,0,.83.07,7.72,7.72,0,0,0,3.52-1A23.61,23.61,0,0,0-1659.84,2416.74Zm-6.2,2.63a5.31,5.31,0,0,1-3.27,1.14,7.87,7.87,0,0,1-3.61-1c-.86-.43-1.77-.82-2.63-1.2a29.12,29.12,0,0,1-3.65-1.76c-1.29-.77-1.94-1.47-1.26-2.63a11.89,11.89,0,0,1,1.79-2.14c.12-.13.25-.26.37-.37.38-.41.73-.84,1.06-1.24a8.63,8.63,0,0,1,3.89-3.11,1.61,1.61,0,0,1,.59-.1,14.6,14.6,0,0,1,4.15,1.13c.19.05.37.13.55.19l1,.34a23,23,0,0,1,4.6,2,3.45,3.45,0,0,1,1.77,2.24,3.08,3.08,0,0,1-.87,2.52A24.23,24.23,0,0,1-1666,2419.37Z" transform="translate(1737.77 -2304.24)"/><path d="M-1625.42,2405c-1.37-2-4.08-3-6.26-3.75l-.57-.21c-.39-.14-.79-.31-1.23-.49a12.77,12.77,0,0,0-4.82-1.28,6.67,6.67,0,0,0-4.86,2.19c-.46.47-.94.94-1.4,1.39-.67.65-1.36,1.32-2,2-.8.82-5.48,6.41-8,9.41-.79.95-1.41,1.67-1.5,1.8-.46.38-1,.76-1.41,1.15l-.37.3a7.58,7.58,0,0,0-.7.84c-.23.3-.48.62-.62.78-1.41,1.46-3.52,3.66-2,6.34a6.39,6.39,0,0,0,2.6,2l.54.28a40.22,40.22,0,0,0,4.55,2.06l.44.18c.39.15.76.32,1.11.48a12,12,0,0,0,3,1,4.39,4.39,0,0,0,.82.07,7.57,7.57,0,0,0,3.52-1,24.2,24.2,0,0,0,6-5.11c.4-.45,2.43-2.75,4.78-5.43l7.8-8.85A4.74,4.74,0,0,0-1625.42,2405Zm-2.31,4.81c-.81,1-16.59,17.92-17,18.28a5.35,5.35,0,0,1-3.27,1.14,8.09,8.09,0,0,1-3.6-1c-.87-.45-1.76-.83-2.63-1.21a27.91,27.91,0,0,1-3.66-1.76c-1.28-.77-1.94-1.47-1.26-2.63.25-.41,3.56-4.09,6.78-7.67,2-2.27,4.15-4.61,5.73-6.4a28.18,28.18,0,0,0,2.64-3.16c.23-.27.45-.53.66-.81a8.63,8.63,0,0,1,3.89-3.1,1.44,1.44,0,0,1,.59-.09,14.66,14.66,0,0,1,4.16,1.13l.53.18,1,.35a23,23,0,0,1,4.6,2,3.46,3.46,0,0,1,1.78,2.25A3.23,3.23,0,0,1-1627.73,2409.84Z" transform="translate(1737.77 -2304.24)"/><path d="M-1565.81,2345.73c-.56-1.07-1.08-2.07-1.56-3.08a1.27,1.27,0,0,0-.21-.29c-.07-.47-.17-1-.28-1.41-.74-3-2.72-5.8-6-8.58-5.6-4.69-12.53-7.55-19.24-10.33-1.09-.44-2.22-.91-3.32-1.38-16.55-7-33.68-14.24-51.87-16.32a.78.78,0,0,0-.4-.09h-.32a.86.86,0,0,0-.43.11,53.07,53.07,0,0,0-12.49,7.08,107.83,107.83,0,0,0-10.89,10c-6.33,6.49-12.41,13.45-18.29,20.17-1.1,1.25-2.2,2.52-3.32,3.78-4.91,5.61-10,11.22-14.84,16.68-2.44,2.7-5,5.54-7.43,8.3-6.47,7.25-13.1,15.15-17.88,23.73-2.75,5-3.66,9.1-2.89,13.12.66,3.37,2.8,6.63,6.53,9.9a58.31,58.31,0,0,0,10.52,7c4.14,2.26,8.61,4.44,14.52,7.13l1,.47c9.24,4.21,18.78,8.56,28.54,11.81,5.94,2,12.92,4,19.87,4h1.29a1,1,0,0,0,.44.16,20.14,20.14,0,0,0,3.07.23,43,43,0,0,0,11.37-2,33,33,0,0,0,12.68-6.58c3.09-2.6,6-5.54,8.78-8.39.79-.79,1.57-1.58,2.36-2.36s1.8-1.8,2.72-2.7c2.82-2.79,5.75-5.7,8.46-8.69,2.45-2.67,4.79-5.51,7.06-8.25l3-3.64c3.69-4.36,7.62-8.52,10.63-11.66l.93-.94c6.71-7,13.65-14.15,18.44-22.77,2.7-4.86,3.82-9.25,3.45-13.47C-1562.16,2352.66-1564,2349.14-1565.81,2345.73Zm-90.62,99.62c-7,0-14.17-2.22-20.32-4.32-9.43-3.22-18.7-7.46-27.64-11.55l-1.88-.86c-5.32-2.43-10-4.79-14.45-7.2a44.51,44.51,0,0,1-10.52-7.58c-3.69-3.76-5-8.42-3.81-13.14s4.33-9.06,7-12.93l0,0c5.21-7.38,11.38-14.27,17.35-20.93.92-1,1.84-2.05,2.74-3.07,3.65-4.09,7.33-8.24,10.9-12.28,5.75-6.51,11.71-13.23,17.63-19.8,4.6-5.07,9.13-10,14.11-14.56a56.72,56.72,0,0,1,16.36-10.62c9.2,1,19.19,3.57,30.52,7.75,9.38,3.45,19.29,7.5,29.47,12a65.07,65.07,0,0,1,12.81,7.23c4.47,3.34,6.66,7.47,6.48,12.26-.18,5.08-2.81,10-5.15,14.28a135.8,135.8,0,0,1-8.61,13.59c-6.35,9-13.3,17.84-19.43,25.64-7.1,9-13.53,17.15-20.37,24.88-6,6.81-13.52,15.28-22.95,19.25A26.12,26.12,0,0,1-1656.43,2445.35Zm86.71-72.4c-4.42,6.64-10.06,12.47-15.51,18.13-1.66,1.71-3.39,3.49-5,5.28-3.19,3.4-6.24,7-9.19,10.54-3.75,4.5-7.64,9.11-11.85,13.32l-4.65,4.65-7.13,7.16-.06,0c-3.46,3.46-7,7-11.35,9.26a34,34,0,0,1-7.84,2.77c7.07-3.68,13-10.05,17.48-14.83,7.12-7.59,13.71-15.89,20.08-23.93l.52-.66c6.66-8.38,13.29-17,19.74-25.71,6-8.14,12.22-16.87,15.69-26.34a24.37,24.37,0,0,0,1.32-5.36c1.8,3.5,3.54,7.12,3.57,11C-1563.91,2363.48-1566.7,2368.4-1569.72,2373Z" transform="translate(1737.77 -2304.24)"/></g></g></svg>