<svg xmlns="http://www.w3.org/2000/svg" viewBox="0 0 402.95 202.3"><defs><style>.cls-1{fill:#edbc2c;}</style></defs><title>资源 49</title><g id="图层_2" data-name="图层 2"><g id="图层_9" data-name="图层 9"><path class="cls-1" d="M-3303.93,1640.35a.38.38,0,0,1,.11.08l.21.15.14-.23a1.12,1.12,0,0,1,.13-.24l.11-.2a6.24,6.24,0,0,0,.47-.93l.06-.16-.14-.11a1,1,0,0,1-.18-.13c-.22-.19-.46-.37-.77-.59l-.21-.14-.12.21-.06.12,0,.08a1.64,1.64,0,0,1-.16.26h0a1.47,1.47,0,0,0-.14.28v0c0,.05,0,.1-.08.16a2.42,2.42,0,0,0-.25.48l-.09.18.18.11C-3304.52,1639.93-3304.26,1640.11-3303.93,1640.35Z" transform="translate(3361.83 -1519.81)"/><path class="cls-1" d="M-3343.59,1611.5a2,2,0,0,0,.58.1c.64,0,1-.43,1.41-.92l0,0c.08-.09.16-.19.25-.28a4.56,4.56,0,0,1,.84-.75l0,0a.86.86,0,0,1,.34-.26l.26-.16.11-.07.09-.06a5.13,5.13,0,0,0,.64-.56l.2-.2-.25-.16-.18-.11a3.09,3.09,0,0,1-.42-.51,1.8,1.8,0,0,0-.44-.5.36.36,0,0,0-.19-.11l-.15,0-.1.14c-.37.49-.82,1-1.26,1.45l-.17.18-.75.79c-.05.06-.11.12-.16.19l-.13.16a5.44,5.44,0,0,1-1.18,1.12l-.35.21.36.18A4.66,4.66,0,0,0-3343.59,1611.5Z" transform="translate(3361.83 -1519.81)"/><path class="cls-1" d="M-3293.92,1648.64l.23.22.14-.28,0,0,0,0a2.19,2.19,0,0,1,.26-.37,1.11,1.11,0,0,1,.22-.21h0c.17-.16.37-.34.39-.55a.19.19,0,0,1,0-.08l.07-.16-.12-.11-1.13-1.07-.23-.22-.25-.25-.16.23a2.07,2.07,0,0,1-.33.39l0,0-.2.21-.12.17,0,0a1,1,0,0,1-.29.33l-.12.07-.25.17.24.2A18.45,18.45,0,0,1-3293.92,1648.64Z" transform="translate(3361.83 -1519.81)"/><path class="cls-1" d="M-3252.42,1647.74a13.51,13.51,0,0,1-2.55-1.42l-.1-.06a16.89,16.89,0,0,0-2.08-1.26l-2.51-1.15-.11,0c-.8-.36-1.61-.72-2.41-1.1s-1.88-.85-2.78-1.22l-.54-.22c-.37-.15-.75-.32-1.12-.49-.73-.31-1.45-.7-2.14-1.06l-.16-.1c-.55-.3-1.18-.65-1.8-.94-1.68-.8-3.51-1.51-5-2.07s-3.16-1.19-4.72-1.93l-.4-.19L-3284,1633l-.08,0-.08,0h-.11a.7.7,0,0,1-.65-.38l0-.08-.08,0c-1.89-1-3.4-1.78-4.75-2.63l-2.55-1.61c-2.1-1.34-4.47-2.87-6.9-4.13a66.88,66.88,0,0,0-6.3-2.76c-1.17-.45-2.4-.93-3.61-1.45l-2.78-1.25-.91-.41c-2.06-1-4.18-1.94-6.34-2.75a53.3,53.3,0,0,0-10.42-3.15,19.75,19.75,0,0,1-8-3.08l-.18-.13-.13.16a1.29,1.29,0,0,1-.46.44l-.27.16-.29.21.25.2a1.5,1.5,0,0,1,.24.21c.14.14.29.27.42.42l0,0c.36.33.81.78,1.24,1.25.22.25.45.52.69.84a9.68,9.68,0,0,0,2.4,2.33,3.55,3.55,0,0,1,.76.62l.05,0h.06a15,15,0,0,1,3.25,1.4l.08,0c.34.19.71.38,1.21.64,1.21.59,2.4,1,3.66,1.54l.12,0,.66.27a37.87,37.87,0,0,1,5.06,2.52l.4.21c1.06.59,2.15,1.21,3.27,1.75l.59.28a79,79,0,0,0,8.66,3.73,24.68,24.68,0,0,1,2.67,1c.24.1.53.26.87.44a11.94,11.94,0,0,0,1.44.68,37.25,37.25,0,0,1,4.44,1.86c1,.49,2.09.92,3.13,1.34l.21.09a29.85,29.85,0,0,1,5.81,2.86c.5.33,1,.69,1.41,1a29.11,29.11,0,0,0,3,2c1.37.8,2.85,1.61,4.82,2.6l.65.34c1.33.67,2.7,1.37,4,2.16a36,36,0,0,0,4.63,2.46c1.72.71,3.32,1.31,4.91,1.8l.24.08.26.08a23,23,0,0,1,4,1.5,20.52,20.52,0,0,1,2.72,1.83l.26.21,1.19.86.44.31a10.63,10.63,0,0,0,1.54,1h0a3.8,3.8,0,0,0,.53.23l.23.1.07-.24c0-.14.07-.27.1-.4l0-.14a1.16,1.16,0,0,0,0-.18.72.72,0,0,1,.7-.56h.18l.07-.09c.18-.26.33-.45.46-.63l0,0,.23-.3a3.69,3.69,0,0,0,1.11-2.14C-3249.35,1649.18-3251.27,1648.19-3252.42,1647.74Z" transform="translate(3361.83 -1519.81)"/><path class="cls-1" d="M-3292.17,1650.32l.19.17.15-.21a5.18,5.18,0,0,1,.36-.42l.28-.33a2.84,2.84,0,0,1,.44-.47l.22-.18-.21-.18c-.39-.32-.78-.68-1.24-1.09l-.22-.19-.14.25a1.23,1.23,0,0,1-.27.34l0,0a.71.71,0,0,1-.07.09.53.53,0,0,0-.13.13c-.1.12-.19.24-.28.37l-.06.1-.06.09a.67.67,0,0,0-.09.14l-.1.15.13.13C-3292.95,1649.59-3292.57,1650-3292.17,1650.32Z" transform="translate(3361.83 -1519.81)"/><path class="cls-1" d="M-3291.45,1651l.1.09.09.07a2.88,2.88,0,0,1,.61.66l.06.12a2.1,2.1,0,0,0,.14.24l.19.28.19-.28a5.28,5.28,0,0,1,.49-.59,5.4,5.4,0,0,0,.67-.9l0-.05.06-.09.13-.18-.19-.15c-.38-.29-.8-.6-1.21-.93l-.1-.08-.12,0a1.67,1.67,0,0,0-.67.65l0,.05-.23.28-.06.06c-.08.1-.19.21-.27.33l-.15.21.22.14Z" transform="translate(3361.83 -1519.81)"/><path class="cls-1" d="M-3296.27,1646.7l.22.18.19-.17c.17-.17.34-.32.5-.5a5.49,5.49,0,0,1,.4-.43,1.7,1.7,0,0,0,.34-.46l0-.16-.11-.1c-.33-.32-.63-.6-.92-.86l-.23-.21c-.05,0-.11-.1-.16-.16l-.27-.25-.11.36a1.65,1.65,0,0,1-.5.72l-.09.1a4.11,4.11,0,0,0-.56.74l-.1.18.16.12Z" transform="translate(3361.83 -1519.81)"/><path class="cls-1" d="M-3281.9,1692.39l.14-.17-.16-.14a26.92,26.92,0,0,1-2.24-2.65l-.18-.24-.46-.59-.93-1.16-.5-.63c-.73-.9-1.52-1.88-2.26-2.86-1.28-1.67-2.43-3.52-3.45-5.15s-2.06-3.34-3.17-4.83c-.71-1-1.52-2-2.45-3.21l-.22-.29c-1.23-1.61-2.5-3.28-3.69-5-.76-1.06-1.48-2.17-2.1-3.12a58.38,58.38,0,0,0-3.75-5.28,92,92,0,0,1-5.95-8.27c-.4-.63-.81-1.29-1.17-1.88-.52-.85-1.06-1.74-1.63-2.58s-1-1.38-1.45-2l-.12-.15-1.33-1.85c-.89-1.29-1.82-2.58-2.72-3.83l-.11-.16c-1.06-1.47-2.15-3-3.21-4.51s-1.92-3.12-2.68-4.52c-.52-1-1.12-1.91-1.69-2.81l-.11-.16c-.33-.52-.62-1-.88-1.39-.68-1.08-1.31-2.26-1.87-3.29-.14-.26-.27-.52-.42-.77l-.13-.26c-.05-.09-.11-.21-.16-.32l-.09-.18a3.5,3.5,0,0,0-1.13-1.57,7.4,7.4,0,0,1-1.47-1.21l0-.05c-.56-.56-1.11-1.17-1.61-1.74l-.1-.09c-.49-.55-1-1.1-1.51-1.62l0-.05c-.37-.28-.47-.42-.49-.48l0-.1-.11,0a1.26,1.26,0,0,1-.26-.13l-.17-.11-.14.13-.4.46a5.37,5.37,0,0,1-.74.77l-.22.18.22.17a8.19,8.19,0,0,1,2.22,3.59,27,27,0,0,0,2.52,5l1.55,2.48.11.19c1.6,2.54,3.25,5.18,5.11,7.62,1.14,1.49,2.33,3,3.49,4.43l.46.57c.82,1,1.65,2.07,2.46,3.11,2.24,2.89,4.32,5.94,6.23,8.79,1.3,1.93,2.57,3.93,3.8,5.85l.24.37c2.61,4.11,5.3,8.35,8.39,12.29.85,1.07,1.7,2.14,2.65,3.31l.27.34.69.88,1.08,1.27.12.14a22.18,22.18,0,0,1,2.15,2.78c.66,1.06,1.37,2.13,2.05,3.15l.48.72c1,1.51,2.17,3.23,3.19,4.94.66,1.12,1.35,2.23,2,3.29l.28.45c1,1.55,2,3.13,2.91,4.76l0,.07.08.13v0c.29.52.68,1.23,1.27,1.4a2.24,2.24,0,0,0,.35,0,3.07,3.07,0,0,0,1.88-1A16.49,16.49,0,0,0-3281.9,1692.39Z" transform="translate(3361.83 -1519.81)"/><path class="cls-1" d="M-3310.71,1661l-.18-.32-.2.3-.74,1-.44.63c-.31.42-.62.86-.92,1.28l-.11.18.14.13,0,0,.21.21.16-.26a12.88,12.88,0,0,1,2.16-2.72l.13-.15-.12-.16Z" transform="translate(3361.83 -1519.81)"/><path class="cls-1" d="M-3304.5,1638l.05-.1.14-.21-.24-.11a2.78,2.78,0,0,0-.94-.29h-.09l-.27.19-.32.27-.06.06a1.1,1.1,0,0,1-.14.15l-.05,0,0,0a2.63,2.63,0,0,1-.33.49l-.21.26.31.11a12,12,0,0,1,1.16.48l.22.11.09-.23a4.59,4.59,0,0,1,.53-1C-3304.62,1638.2-3304.56,1638.11-3304.5,1638Z" transform="translate(3361.83 -1519.81)"/><path class="cls-1" d="M-3300.84,1649.74l-.12.14c-.46.52-.93,1.07-1.44,1.55a13.89,13.89,0,0,0-1.6,1.89l0,0-.5.66-.37.49-.05.08a5.09,5.09,0,0,1-1.12,1.27.61.61,0,0,1-.14.07l-.27.13.19.23.25.32.34.44.18-.24a3,3,0,0,0,.24-.38l0-.06a2.37,2.37,0,0,1,.15-.21l.15-.22a12.12,12.12,0,0,1,1-1.2c.64-.66,1.27-1.39,1.85-2.08l.2-.23.44-.5c.38-.44.72-.9,1.1-1.37l.14-.19a17.88,17.88,0,0,1,2.46-2.8l.23-.21-.25-.17s0,0,0,0a.1.1,0,0,1-.05,0l-.13-.07-.13.07A13.78,13.78,0,0,0-3300.84,1649.74Z" transform="translate(3361.83 -1519.81)"/><path class="cls-1" d="M-3298.31,1645.09l.21.18.19.14.13-.2c.09-.14.19-.27.29-.41a2.25,2.25,0,0,1,.21-.24l.09-.09a1.33,1.33,0,0,0,.49-.76.13.13,0,0,1,0-.11l.2-.17-.2-.19-.82-.69-.15-.13-.16.15-.19.19a11.69,11.69,0,0,0-1.18,1.28l-.12.16.14.13C-3298.9,1644.56-3298.64,1644.79-3298.31,1645.09Z" transform="translate(3361.83 -1519.81)"/><path class="cls-1" d="M-3300,1643.56c.08.06.16.15.25.23l.18.16.15-.19a17.27,17.27,0,0,1,1.24-1.33l.25-.24-.21-.17c-.47-.37-1-.73-1.46-1.07l-.22-.17-.13.25a2.36,2.36,0,0,1-.33.46s0,0,0,0l0,0-.12.14a7,7,0,0,0-.51.63l-.1.16.94.9Z" transform="translate(3361.83 -1519.81)"/><path class="cls-1" d="M-3302.72,1641.14a5.7,5.7,0,0,1,1.18.93l.19.17.24-.3.23-.3a1,1,0,0,1,.21-.24c.27-.28.49-.55.45-.8l0-.11-.12-.07-.21-.14-.13-.07-1.46-1-.23-.17-.11.26c-.13.27-.27.52-.41.77l-.12.21-.17.3-.09.18.17.12Z" transform="translate(3361.83 -1519.81)"/><path class="cls-1" d="M-3289.91,1637.14a.52.52,0,0,1-.15.06,4.27,4.27,0,0,0-1.58,1.38l-.13.14-.19.21a24.62,24.62,0,0,0-1.59,2c-.11.13-.21.29-.33.46l0,0a5.66,5.66,0,0,1-1,1.27l-.21.16.2.18.22.22.31.28.23.21.13-.28a2,2,0,0,1,.18-.29c.23-.28.51-.61.8-.94.66-.77,1.22-1.54,1.68-2.19.17-.25.34-.5.51-.78a16.23,16.23,0,0,1,1-1.39.57.57,0,0,0,.12-.15l0,0,.08-.09a.27.27,0,0,1,.07-.08l1-1.11Z" transform="translate(3361.83 -1519.81)"/><path class="cls-1" d="M-3345,1609.74h0c.24,0,.54-.27,1.18-1.09l.05-.05a4.07,4.07,0,0,1,.43-.49,2.33,2.33,0,0,0,.37-.45l0-.07a5.13,5.13,0,0,1,.38-.47l.28-.28c.18-.18.37-.35.54-.54l.19-.2-.22-.15-.19-.14-.14-.09-.18-.13-.13.18a10.61,10.61,0,0,1-1.35,1.45,8.25,8.25,0,0,0-1.83,2.19l-.22.45.48-.12A.76.76,0,0,1-3345,1609.74Z" transform="translate(3361.83 -1519.81)"/><path class="cls-1" d="M-3346.61,1608.69a9.52,9.52,0,0,1,1.17-1.49l.24-.29a6.76,6.76,0,0,1,.62-.58l.07-.06a3.71,3.71,0,0,0,.8-.83c.11-.17.22-.32.33-.47l.14-.21-.21-.12-.31-.23-.89,1c-.47.54-.88,1-1.27,1.4a7.15,7.15,0,0,0-.62.74l0,0c-.17.21-.36.45-.54.65l0,0-.21.17.59.54Z" transform="translate(3361.83 -1519.81)"/><path class="cls-1" d="M-3345,1603.85l.18-.2-.25-.18c-.13-.11-.26-.2-.37-.31l-.11-.1-.14.06a3.6,3.6,0,0,0-1.19,1l-.08.09-.3.34,0,0a5.67,5.67,0,0,0-.65.8,4.6,4.6,0,0,1-.94,1.2l-.22.18.3.25.38.31.17.15.15-.18c.29-.32.54-.62.77-.91l.63-.75C-3346.14,1605-3345.59,1604.44-3345,1603.85Z" transform="translate(3361.83 -1519.81)"/><path class="cls-1" d="M-3279,1622.88c-.28.39-.54.78-.78,1.18l-.07.12a11.66,11.66,0,0,1-.91,1.3c-1,1.26-2.19,2.51-3.2,3.61l-1.32,1.44-.2.23.53.28.36.2.18.1.12-.18a28.91,28.91,0,0,1,2.27-2.87c.36-.43.8-1,1.2-1.45l1.71-2.13.81-1c.11-.13.23-.25.35-.38l.19-.19a3.82,3.82,0,0,0,1-1.3l.19-.38-.43.06a2.89,2.89,0,0,0-.69.27A4.25,4.25,0,0,0-3279,1622.88Z" transform="translate(3361.83 -1519.81)"/><path d="M-3220.94,1670.92c-.15-.09-.32-.19-.5-.32a.86.86,0,0,0-.72-.77,1.66,1.66,0,0,1-.37-.11,3,3,0,0,1-.28-.24l-.69-.58a11.4,11.4,0,0,0-2.12-1.26c-.29-.15-.59-.28-.87-.45-.85-.46-1.75-.85-2.62-1.24a23.48,23.48,0,0,1-3.6-1.84.83.83,0,0,0,.36-.55.9.9,0,0,0-.47-1,5.4,5.4,0,0,1-1.31-1,12.47,12.47,0,0,0-1.07-.88c-.33-.25-.67-.52-1-.79a6.89,6.89,0,0,0-1.17-.88,11.4,11.4,0,0,1-1-.7l-.46-.41a17.75,17.75,0,0,0-1.57-1.3l-1.53-1.09c-1-.73-2.12-1.49-3.15-2.26-.25-.19-.53-.37-.81-.56a7.08,7.08,0,0,1-1.27-.94,3.47,3.47,0,0,0-.37-.3,3.09,3.09,0,0,0-.54-2.36,6.61,6.61,0,0,0-2.53-1.94l-.08,0c-.29-.15-.59-.29-.88-.42a11,11,0,0,1-1.09-.54c-.37-.23-.75-.48-1.11-.73s-.77-.52-1.17-.76a27.34,27.34,0,0,0-3.64-1.71c-.19-.08-.38-.15-.57-.24-.83-.35-1.66-.75-2.47-1.14-.65-.33-1.32-.67-2-1l-1.16-.5a32.34,32.34,0,0,1-2.94-1.36,39.16,39.16,0,0,0-4.73-2.21c-3.44-1.31-6.72-2.72-9.76-4.16a1.92,1.92,0,0,0-.29-.14,20.77,20.77,0,0,1,1.52-1.83c.21-.22.4-.44.6-.67.62-.72,1.19-1.47,1.75-2.22.36-.48.73-1,1.11-1.45.27-.33.56-.67.85-1a14,14,0,0,0,1.49-1.87,1.89,1.89,0,0,0-.22-2.54,1.88,1.88,0,0,0-1.15-.39c-1.58,0-3.22,1.9-3.87,2.9a43,43,0,0,1-4.59,5.61c-.43.47-.87.94-1.3,1.42-1.62-.9-3.33-2-5.4-3.28a73.65,73.65,0,0,0-9.3-5.21c-1.8-.8-3.67-1.55-5.48-2.28-1.49-.59-3-1.21-4.52-1.85-.38-.17-.77-.35-1.16-.51a111.24,111.24,0,0,0-12.12-4.75,40.15,40.15,0,0,0-4.32-1l-.6-.12a.19.19,0,0,0,.05-.09,15.66,15.66,0,0,0,1.45-9.34,17.51,17.51,0,0,0-4-8.25,15.58,15.58,0,0,0-11.7-5.26,16.08,16.08,0,0,0-3.17.32,19.07,19.07,0,0,0-12.8,9.73,18.81,18.81,0,0,0-1.31,15.8,15.85,15.85,0,0,0,7.93,8.49,13.13,13.13,0,0,0,5.68,1.17c.52,0,1,0,1.58-.06a18.68,18.68,0,0,0,3.61-.72c.69-.19,1.4-.43,2.14-.68a4.77,4.77,0,0,0,.54-.24,2.78,2.78,0,0,1,1-.35.85.85,0,0,0,.23,0c1.8,3.06,3.5,5.75,5.18,8.21s3.75,5.08,5.69,7.49l.59.74c2,2.53,4.06,5.25,6.23,8.33,2,2.8,3.84,5.76,5.64,8.61,1,1.6,2,3.25,3.09,4.86a.52.52,0,0,0-.13.18c-.45.65-.94,1.32-1.41,2s-.95,1.31-1.4,2a.92.92,0,0,0,.17,1.24,6,6,0,0,1,1,.92l.28.32a1,1,0,0,0,.7.32.9.9,0,0,0,.81-.53,12,12,0,0,1,2.23-3.11c.48.68.92,1.31,1.34,1.87,2.09,2.85,4.36,5.65,6.56,8.36l.36.45.31.39a35.23,35.23,0,0,1,2.86,3.85c1.1,1.8,2.08,3.26,3.07,4.61s1.91,2.92,2.8,4.41c.44.75.89,1.53,1.36,2.28.3.47.61.92.91,1.36.44.64.89,1.3,1.28,2,.13.24.27.52.4.77a14.1,14.1,0,0,0,1.12,1.88,2.73,2.73,0,0,0,2.22,1.13,3.82,3.82,0,0,0,.57,0,.84.84,0,0,0,.28.35,10.77,10.77,0,0,1,2,2.3c.3.42.6.82.92,1.2a9.71,9.71,0,0,1,.6.83,10.77,10.77,0,0,0,.67.88,13.17,13.17,0,0,0,.95,1c.27.26.54.56.8.84.49.55,1,1.16,1.41,1.73s1,1.26,1.52,1.86c.22.25.47.49.7.74a11.54,11.54,0,0,1,1.67,2,.71.71,0,0,0,.5.37.84.84,0,0,0,.78.59,1.15,1.15,0,0,0,.37-.06,2.43,2.43,0,0,0,.53-.35,26.37,26.37,0,0,1,3.86,4.12c.46.56.94,1.15,1.42,1.7s1.17,1.42,1.7,2.11l.89,1.14.38.5a4.27,4.27,0,0,0,1.91,1.77.84.84,0,0,0,.27,0,1,1,0,0,0,.92-.84.76.76,0,0,0-.56-.86c-.27-.08-.56-.47-.78-.76,0-.08-.12-.16-.17-.25s-.23-.26-.35-.42a10.28,10.28,0,0,1-.93-1.24,15.52,15.52,0,0,0-1.73-2.12l-.67-.77c-.41-.47-.82-1-1.22-1.44a26,26,0,0,0-3.78-4,2.32,2.32,0,0,1,.3-.26h0a.75.75,0,0,0,.77-.8v-.13a.91.91,0,0,0-.06-.39.83.83,0,0,0-.17-.26,3.68,3.68,0,0,0-.37-.64l-.18-.3c-.08-.15-.15-.28-.23-.41a11.14,11.14,0,0,0-1.28-1.88c-.85-.93-1.62-1.94-2.37-2.9-.35-.47-.72-1-1.09-1.41s-.87-1-1.32-1.5a20.86,20.86,0,0,1-1.7-2,21.82,21.82,0,0,0-2.88-3.32l.13-.14c.54-.57,1.23-1.27,1.23-2a1,1,0,0,0-1-1,.78.78,0,0,0-.54.19.76.76,0,0,0-.24.59s0,.11-.22.34a19.9,19.9,0,0,1-2-2.33c-.23-.3-.47-.62-.71-.92l-3.43-4.31a79.16,79.16,0,0,1-5.8-8.77l-.08-.13a25.37,25.37,0,0,0-1.77-2.48c-.43-.56-.87-1.15-1.28-1.73a51.92,51.92,0,0,0-3.34-4.39,44.57,44.57,0,0,1-3.24-4.62c-.67-1-1.36-2.13-2.1-3.16a5.89,5.89,0,0,0,.69-.89c.1-.15.19-.3.28-.42a32.39,32.39,0,0,1,2.13-2.51c.14-.16.27-.29.4-.46.52-.58,1-1.23,1.54-1.91a17.15,17.15,0,0,1,3.07-3.38c1,.82,1.88,1.69,2.89,2.66l.66.56a4.46,4.46,0,0,1,1.11,1.1,2.64,2.64,0,0,0,1.32,1.17,1,1,0,0,0,.73.32.79.79,0,0,0,.82-.77,1.74,1.74,0,0,1,.65-1.08l.24-.25a4.8,4.8,0,0,0,.53-.77,4.46,4.46,0,0,1,.5-.73.74.74,0,0,0,.19-.77.84.84,0,0,0-.36-.48,43.27,43.27,0,0,1-5.71-4.84c.08-.12.16-.25.22-.36a2.76,2.76,0,0,1,.32-.49c.25-.32.53-.63.79-.93s.54-.62.8-.94a10.74,10.74,0,0,0,.75-1.06,9.84,9.84,0,0,1,.56-.82,6.57,6.57,0,0,0,.34-.57,3.29,3.29,0,0,1,.81-1.1.79.79,0,0,0,.31-.22c.42.28.8.53,1.15.81a50.76,50.76,0,0,0,8.15,4.79c.3.16.62.3.92.46,1.16.58,2.31,1.23,3.42,1.88a45.07,45.07,0,0,0,5.88,3c1.08.43,2.24.8,3.36,1.15a24.21,24.21,0,0,1,6.12,2.52c.7.44,1.36,1,2,1.45a18.75,18.75,0,0,0,3.54,2.31,2.77,2.77,0,0,0,1.06.26,1.38,1.38,0,0,0,1.19-.63l.06,0a31.61,31.61,0,0,0,2.82,2.63c.39.33.77.66,1.14,1a36.36,36.36,0,0,0,5.11,3.75l1.21.7,1.23.72c.28.16.56.39.83.58a5.78,5.78,0,0,0,1.55,1,1.27,1.27,0,0,0,.48.08,2,2,0,0,0,1.38-.59c.05-.06.11-.12.15-.18a30.15,30.15,0,0,0,3,1.75c1.22.61,2.22,1,3.06,1.39.45.18.9.33,1.33.49.69.26,1.39.5,2.06.79.14.06.28.13.43.18.52.24,1.07.46,1.62.66a9.34,9.34,0,0,0,1.39,1,.92.92,0,0,0,.47.14,1,1,0,0,0,.93-.71A.74.74,0,0,0-3220.94,1670.92Zm-62.4-41.4c1.07-1.16,2.18-2.36,3.2-3.61a11.59,11.59,0,0,0,1-1.44c.24-.39.5-.8.78-1.17a4.07,4.07,0,0,1,1.21-1,1.92,1.92,0,0,1,.62-.25h0a4,4,0,0,1-.93,1.22c-.2.2-.39.39-.56.58l-.82,1-1.7,2.12c-.38.49-.79,1-1.2,1.44a28.1,28.1,0,0,0-2.28,2.91l-.64-.34Zm-57.44-8.89a10.59,10.59,0,0,1-1.3.49,17.57,17.57,0,0,1-5.06.79l-.9,0a12.48,12.48,0,0,1-8.4-4.32c-3.64-4.07-4.63-10.19-2.57-16a17.93,17.93,0,0,1,12.38-11.29,13.85,13.85,0,0,1,3.26-.4,14.45,14.45,0,0,1,11.8,6.56,15.59,15.59,0,0,1,2.34,6.62,14.23,14.23,0,0,1-1.51,7.26.7.7,0,0,0-.08.39h-.08c.83-4.06.66-7.23-.54-10a11.26,11.26,0,0,0-5.35-5.49,11.11,11.11,0,0,0-5.08-1.2,13.88,13.88,0,0,0-9.69,4.22c-4.05,4-6,10.22-4.9,15.39a8,8,0,0,0,3.67,5.29,11.6,11.6,0,0,0,6.17,1.59,15.81,15.81,0,0,0,4.3-.59c.9-.25,1.86-.55,3-1,.15.35.31.67.46,1A11.27,11.27,0,0,0-3340.78,1620.63Zm-5.77-12c.21-.23.41-.48.6-.72s.39-.49.6-.72c.44-.45.87-.93,1.28-1.39.25-.26.5-.54.75-.82a.69.69,0,0,0,.13.11h0l-.33.47a3.54,3.54,0,0,1-.81.83,7.82,7.82,0,0,0-.66.63l-.25.29a8.87,8.87,0,0,0-1.19,1.51l0,0-.14-.15Zm-.56-2.07c-.25.3-.51.61-.78.89l-.46-.38a4.56,4.56,0,0,0,1-1.26,6.63,6.63,0,0,1,.65-.79l.3-.35.06-.06a3.45,3.45,0,0,1,1.12-1c.13.12.28.23.43.35-.6.63-1.15,1.24-1.69,1.85C-3346.7,1606.07-3346.91,1606.32-3347.11,1606.58Zm4,1.11a10.56,10.56,0,0,0,1.38-1.49l.33.23c-.17.19-.36.36-.54.55l-.27.26a4.53,4.53,0,0,0-.45.57,3.14,3.14,0,0,1-.35.43,4,4,0,0,0-.5.57c-.28.34-.8,1-1,1l-.16,0a.66.66,0,0,0-.21,0A7.8,7.8,0,0,1-3343.14,1607.69Zm.77,2.42c.08-.1.16-.22.24-.3l.74-.78c.5-.54,1-1.09,1.46-1.65a.19.19,0,0,1,.1,0,1.9,1.9,0,0,1,.4.47,2.93,2.93,0,0,0,.47.53l.2.15a5.16,5.16,0,0,1-.6.53l-.21.14-.19.14a.86.86,0,0,0-.45.32,5.87,5.87,0,0,0-.87.78l-.26.3c-.41.48-.72.86-1.26.86a2.05,2.05,0,0,1-.51-.08c-.18-.07-.34-.15-.54-.25A6.16,6.16,0,0,0-3342.37,1610.11Zm3-4.49a4.21,4.21,0,0,1-.59-.45,4,4,0,0,0-1.56-1l-.16-.13-.46-.35-.09-.09a1,1,0,0,0-.18-.76.81.81,0,0,0-.65-.37.72.72,0,0,0-.49.19,6.66,6.66,0,0,1-.82-.65.78.78,0,0,0-.53-.24.79.79,0,0,0-.32.08l-.2,0a1.11,1.11,0,0,0-.3.05,5,5,0,0,0-2.15,1.75c-.09.1-.17.21-.26.3l0,.06a8.56,8.56,0,0,0-.71.94.91.91,0,0,0-.11.16c-.18.32-.4.68-.71.71a.8.8,0,0,0-.75.76.91.91,0,0,0,.46.89.83.83,0,0,0,.33.88,8.42,8.42,0,0,1,.83.71,1,1,0,0,0,.86.83c.32.33.66.63,1,.94a.82.82,0,0,0,.28.47.64.64,0,0,0,.3.33c.22.13.44.29.66.44a6.31,6.31,0,0,0,3.19,1.37.76.76,0,0,0,.36.52,6.28,6.28,0,0,1,2.05,3.18,1.8,1.8,0,0,1,.08.21,22.25,22.25,0,0,1-7.11,1.41c-3.57,0-6-1.4-7.18-4.19-1.4-3.22-1-9,3.12-14.09a12,12,0,0,1,9.21-4.61,10.72,10.72,0,0,1,3.63.64,9.55,9.55,0,0,1,5.14,4.62c1.51,3,1.14,6.41.61,9.08a17,17,0,0,1-3.7-1.94.91.91,0,0,0-.34-.65,2.26,2.26,0,0,0-.66-.3,2,2,0,0,1-.68-.4c-.14-.13-.27-.28-.39-.41A4.31,4.31,0,0,0-3339.35,1605.62Zm26.81,58.79-.06-.05c.3-.44.61-.87.92-1.28s.79-1.12,1.18-1.67l.16.24A13.42,13.42,0,0,0-3312.54,1664.41Zm34.15,33.16a27.69,27.69,0,0,0,2.2,2.6l.56.6c.59.66,1.14,1.39,1.66,2.1s1,1.3,1.52,1.92l.09.08a15.27,15.27,0,0,1,1.42,1.81c.18.3.42.77.58,1.1a.56.56,0,0,0,.09.17c-.17.15-.32.32-.44.43l-.13.14-.43.47h0a14.63,14.63,0,0,0-1.9-2.2l-.43-.44a27.5,27.5,0,0,1-1.78-2.13,20.47,20.47,0,0,0-1.43-1.77c-.24-.28-.49-.53-.75-.78l-.71-.75a10.59,10.59,0,0,1-.82-1.08c-.22-.31-.46-.65-.71-.95s-.58-.73-.86-1.11a13,13,0,0,0-1.78-2.07,10.4,10.4,0,0,0,1.39-1.23A18.86,18.86,0,0,1-3278.39,1697.57Zm-25-34.76c.66,1,1.37,2.11,2.1,3.13,1.26,1.79,2.61,3.53,3.92,5.24.81,1,1.64,2.13,2.44,3.21,1.15,1.55,2.18,3.2,3.17,4.82s2.19,3.52,3.46,5.18c.74,1,1.51,1.93,2.26,2.85.47.59,1,1.19,1.43,1.8l.64.82a25.77,25.77,0,0,0,2.27,2.68c-.45.49-.87.9-1.29,1.3a3,3,0,0,1-1.73.94,1.54,1.54,0,0,1-.3,0c-.49-.15-.86-.81-1.13-1.31,0-.07-.07-.14-.11-.2-.92-1.63-1.94-3.23-2.91-4.77-.77-1.23-1.56-2.48-2.31-3.73-1-1.7-2.11-3.36-3.2-5-.83-1.26-1.7-2.56-2.51-3.85a25.11,25.11,0,0,0-2.25-2.91c-.38-.42-.76-.87-1.12-1.32l-1-1.19-2.65-3.32c-3.07-3.9-5.76-8.16-8.38-12.27-1.3-2.05-2.65-4.18-4-6.24-1.92-2.85-4-5.9-6.25-8.8-1-1.23-1.94-2.45-2.89-3.64-1.17-1.46-2.37-3-3.52-4.46-1.89-2.49-3.57-5.18-5.21-7.78-.5-.82-1-1.67-1.56-2.49a28.16,28.16,0,0,1-2.48-5,8.37,8.37,0,0,0-2.3-3.68,5.22,5.22,0,0,0,.77-.79l.4-.44a1.17,1.17,0,0,0,.34.15c0,.14.22.32.56.58h0c.55.56,1.08,1.16,1.6,1.72s1.06,1.19,1.61,1.75l.06,0a6.93,6.93,0,0,0,1.5,1.25,3.44,3.44,0,0,1,1,1.48l.26.51.55,1c.59,1.1,1.21,2.23,1.88,3.31.29.47.59.95.88,1.39.61,1,1.24,1.93,1.79,3a51.29,51.29,0,0,0,2.69,4.55c1.05,1.51,2.15,3,3.21,4.51.93,1.31,1.91,2.64,2.83,4,.44.61.9,1.23,1.33,1.84s1.07,1.44,1.57,2.19,1.11,1.72,1.63,2.59l1.17,1.87a89.57,89.57,0,0,0,6,8.27A63,63,0,0,1-3303.35,1662.81Zm-.91-23a3,3,0,0,1,.24-.47,1.24,1.24,0,0,0,.1-.2,1.67,1.67,0,0,1,.12-.23,2.37,2.37,0,0,0,.22-.33,1.11,1.11,0,0,1,.07-.16,9.47,9.47,0,0,1,.75.58c.07,0,.13.1.19.14a5.32,5.32,0,0,1-.5,1c-.06.12-.14.24-.2.37l-.13-.09c-.28-.2-.56-.41-.86-.59Zm0-1.68a1.87,1.87,0,0,1-.16.28,5.12,5.12,0,0,0-.55,1c-.4-.19-.82-.36-1.18-.49a2.69,2.69,0,0,0,.35-.53.73.73,0,0,0,.2-.2l0,0,.31-.26.07,0,.09-.08,0,0a3.68,3.68,0,0,1,.88.28Zm2,2.31a7.15,7.15,0,0,0,.42-.77c.48.34,1,.66,1.46,1l.13.09a.74.74,0,0,1,.22.14l0,0h0c0,.16-.23.42-.4.59a2.56,2.56,0,0,0-.23.27c-.07.09-.14.19-.22.28l-.08.12a6.09,6.09,0,0,0-1.23-1,2.65,2.65,0,0,1-.39-.23C-3302.49,1640.82-3302.39,1640.66-3302.3,1640.48Zm2.41,1.69.09-.13.1-.1a2.23,2.23,0,0,0,.38-.53c.5.35,1,.71,1.46,1.08l-.07.06c-.43.44-.86.88-1.25,1.36-.14-.13-.26-.26-.4-.38l-.45-.42-.34-.34A3.51,3.51,0,0,1-3299.89,1642.17Zm-.06-3.3c-.41-.27-.81-.57-1.23-.9a10.46,10.46,0,0,0-2.84-1.73.66.66,0,0,0-.16-.35.91.91,0,0,0-.74-.36.79.79,0,0,0-.52.19c-.27.27-.57.51-.86.75l-.41.33,0,0a2.45,2.45,0,0,0-.59.65.43.43,0,0,0,0,.12c0,.07-.13.28-.18.28a.89.89,0,0,0-.77.8v.22a1,1,0,0,0,.05.34.83.83,0,0,0,0,.62.91.91,0,0,0,.5.44,14.55,14.55,0,0,1,5,2.71c.61.55,1.22,1.12,1.8,1.68s1.25,1.2,1.89,1.76a20.32,20.32,0,0,0-3.45,3.62c-.3.38-.65.72-1,1.07s-.78.81-1.13,1.26c-.18.24-.36.51-.55.8a6.33,6.33,0,0,1-1.41,1.7.65.65,0,0,0-.17.16c-1.39-1.76-2.82-3.57-4.06-5.48-.64-1-1.26-2-1.87-3-1.15-1.86-2.34-3.77-3.66-5.58-.5-.66-1-1.35-1.43-2s-.93-1.38-1.42-2.06l-1.32-1.75c-.65-.84-1.32-1.73-1.94-2.62a45.11,45.11,0,0,1-2.79-4.46q-.37-.67-.72-1.35a20.12,20.12,0,0,0-1.86-3.14,25.89,25.89,0,0,1-2.24-3.65q-.25-.48-.51-.93c-.09-.18-.17-.34-.26-.5.49.22,1,.51,1.44.75s.91.51,1.38.74c1.13.55,2.31,1,3.46,1.44.43.16.88.32,1.33.51a38.51,38.51,0,0,1,4.83,2.47c1.25.72,2.53,1.44,3.88,2l1.53.71a79.59,79.59,0,0,0,7.78,3.24,20.69,20.69,0,0,1,2.31,1,24.18,24.18,0,0,0,2.26,1,30.63,30.63,0,0,1,3.49,1.47c.42.2.87.4,1.31.58.77.36,1.56.68,2.32,1s1.6.67,2.39,1a10.17,10.17,0,0,0-1.44,1.49c-.17.19-.32.38-.47.54a16.5,16.5,0,0,0-1.18,1.47l-.15.21c-.07.1-.16.23-.26.4s-.33.51-.51.75l-.21,0a.79.79,0,0,0-.65.33A38.93,38.93,0,0,0-3299.95,1638.87Zm-.06,11.62c-.42.55-.81,1.07-1.23,1.55-.22.24-.44.5-.64.75-.6.69-1.21,1.4-1.84,2.07a9.54,9.54,0,0,0-1,1.27l-.12.15-.18.28a2.73,2.73,0,0,1-.23.38l-.41-.53.17-.08a5.35,5.35,0,0,0,1.19-1.36l.4-.54.5-.66a13.91,13.91,0,0,1,1.6-1.88c.56-.54,1.07-1.14,1.58-1.72a12.91,12.91,0,0,1,2.65-2.57l.08.06A18.63,18.63,0,0,0-3300,1650.49Zm3.06-5.87a3.22,3.22,0,0,0-.32.32l-.29.42-.18-.15c-.28-.25-.56-.5-.82-.76a11.15,11.15,0,0,1,1.16-1.22,2.19,2.19,0,0,1,.2-.22l.81.7a.41.41,0,0,0-.13.27A1.32,1.32,0,0,1-3296.95,1644.62Zm1.3,2.25-.07-.06-1.19-.91a4.6,4.6,0,0,1,.53-.7l.08-.09a1.91,1.91,0,0,0,.56-.82l.39.37.92.85a1.46,1.46,0,0,1-.29.39c-.15.15-.28.3-.4.44A6.63,6.63,0,0,1-3295.65,1646.87Zm5.26,3.44c.14-.19.36-.51.58-.59.41.34.82.65,1.22,1l-.08.12a5.45,5.45,0,0,1-.67.89,4.55,4.55,0,0,0-.51.63,2.26,2.26,0,0,1-.14-.26l0-.08a2.63,2.63,0,0,0-.68-.73,2.31,2.31,0,0,0-.19-.16l-.07-.08.25-.29.31-.36Zm-1.68-1.82a1.69,1.69,0,0,0,.34-.41c.45.41.85.76,1.24,1.08a3.81,3.81,0,0,0-.47.52l-.27.3a5.81,5.81,0,0,0-.38.46c-.39-.36-.75-.72-1.13-1.09a1.59,1.59,0,0,0,.15-.21,5,5,0,0,1,.33-.44A1.24,1.24,0,0,1-3292.07,1648.49Zm-.32-1a.42.42,0,0,0,0,.16.87.87,0,0,1-.33.41l-.23.23a5.15,5.15,0,0,0-.32.45.13.13,0,0,1,0,.06c-.54-.51-1.1-1-1.61-1.38l.08-.05a1.18,1.18,0,0,0,.37-.4c.05-.06.09-.13.13-.17s.13-.14.2-.21a4.31,4.31,0,0,0,.38-.44l0,.05Zm2.86-9.65a1.19,1.19,0,0,1-.15.18,15.46,15.46,0,0,0-1,1.42l-.52.78a27,27,0,0,1-1.66,2.17c-.28.3-.53.63-.8.94a1.61,1.61,0,0,0-.2.33l-.54-.49a5.46,5.46,0,0,0,1.09-1.3c.12-.18.23-.34.35-.5a23.11,23.11,0,0,1,1.57-1.95c.1-.1.21-.24.33-.37a4.19,4.19,0,0,1,1.46-1.3.66.66,0,0,0,.21-.08Zm39.31,15.08c-.09.13-.18.22-.26.32s-.32.4-.48.63h-.06a.93.93,0,0,0-.92.73,1.29,1.29,0,0,0,0,.19c-.05.17-.08.35-.13.52a3.66,3.66,0,0,1-.51-.23h0a9.15,9.15,0,0,1-1.5-.94l-.44-.31c-.5-.33-1-.71-1.44-1a20,20,0,0,0-2.75-1.85,23.06,23.06,0,0,0-4.05-1.53l-.49-.15c-1.58-.49-3.18-1.07-4.89-1.79a38.2,38.2,0,0,1-4.6-2.45c-1.36-.83-2.79-1.54-4.18-2.26l-.49-.24c-1.85-1-3.38-1.77-4.81-2.6a35.27,35.27,0,0,1-3-2c-.46-.34-.93-.68-1.4-1a30.29,30.29,0,0,0-5.92-2.89c-1.08-.45-2.21-.89-3.27-1.41a41.22,41.22,0,0,0-4.47-1.88,11.07,11.07,0,0,1-1.41-.65,8,8,0,0,0-.87-.45,26.75,26.75,0,0,0-2.7-1,77.9,77.9,0,0,1-8.66-3.73l-.56-.28c-1.19-.56-2.35-1.22-3.48-1.85a42.31,42.31,0,0,0-5.26-2.63l-.66-.26c-1.3-.51-2.53-1-3.76-1.58-.41-.2-.82-.4-1.21-.63a14.36,14.36,0,0,0-3.38-1.45,3.27,3.27,0,0,0-.8-.66,9,9,0,0,1-2.35-2.28c-.23-.29-.47-.58-.71-.84-.39-.44-.81-.86-1.24-1.27l-.45-.45a1.22,1.22,0,0,0-.27-.24c.1-.05.19-.13.29-.17a1.89,1.89,0,0,0,.53-.48,20,20,0,0,0,8.11,3.11,53.17,53.17,0,0,1,10.38,3.14c2.17.83,4.31,1.83,6.38,2.76,1.19.54,2.42,1.12,3.64,1.64s2.42,1,3.61,1.47a64.1,64.1,0,0,1,6.28,2.73c2.39,1.25,4.68,2.71,6.89,4.12.83.54,1.69,1.09,2.54,1.62,1.39.87,2.91,1.71,4.78,2.65a.93.93,0,0,0,.86.53l.17,0c1.21.59,2.46,1.17,3.55,1.69,1.55.72,3.17,1.34,4.73,1.94s3.36,1.28,5,2c.6.29,1.21.61,1.79.94a22.88,22.88,0,0,0,2.32,1.17c.55.26,1.12.48,1.66.71.93.38,1.87.78,2.77,1.23l2.52,1.13c.83.36,1.68.74,2.51,1.14a17.65,17.65,0,0,1,2.05,1.23,14.23,14.23,0,0,0,2.7,1.52c.48.19,2.92,1.17,2.93,2.64A3.55,3.55,0,0,1-3250.22,1652.88Zm14.61,11.25a4.37,4.37,0,0,0-.31.39c-.19.26-.31.41-.46.41a.86.86,0,0,1-.47-.21c-.88-.62-1.81-1.18-2.7-1.72l-1.75-1.08a37.79,37.79,0,0,1-4.39-3.3l-.9-.76a31.71,31.71,0,0,1-3-2.86l.52-.69c.33-.44.66-.9,1-1.35.2.14.51.4.73.58l.38.33c.56.38,1.11.8,1.64,1.2.23.19.47.36.71.55.73.54,1.48,1.05,2.21,1.57s1.39.94,2.06,1.45a7.05,7.05,0,0,1,.77.69,5.71,5.71,0,0,0,.82.72l.66.51c.49.38,1,.77,1.51,1.1a13.79,13.79,0,0,1,1.32,1.08c.19.18.38.36.59.53A11.47,11.47,0,0,0-3235.61,1664.13Z" transform="translate(3361.83 -1519.81)"/><path class="cls-1" d="M-3114.54,1581.32l-.15-.55-.11-.39-.37.2a5.47,5.47,0,0,0-1.06.78l-.1.08a4.79,4.79,0,0,1-1.57,1l-.52.25-.26.13.09.27a1.13,1.13,0,0,1,.08.33l0,.25.24.06a10.61,10.61,0,0,0,2.18.22h0a11.15,11.15,0,0,0,1.51-.1l.29,0v-.28c0-.11,0-.2,0-.32a5.69,5.69,0,0,0-.17-1.57Z" transform="translate(3361.83 -1519.81)"/><path class="cls-1" d="M-3018,1529.25l0,0a.67.67,0,0,0-.27.15,2,2,0,0,0-.19.23l-.25.43.49.08a3.18,3.18,0,0,0,.49.07h.11l.09,0a5.17,5.17,0,0,0,.63-.21l.87-.33-.9-.28A1.81,1.81,0,0,0-3018,1529.25Z" transform="translate(3361.83 -1519.81)"/><path class="cls-1" d="M-3108.38,1577.89c.4,2.18,1,5.16,3.61,5.54a2.22,2.22,0,0,0,.37,0,4.5,4.5,0,0,0,1.14-.17,13.55,13.55,0,0,0,1.6-.62,2.28,2.28,0,0,1,.36-.15l1-.43c1.23-.52,2.51-1.06,3.78-1.54,2.39-.88,4.77-1.9,7.07-2.9l.47-.2a108.06,108.06,0,0,1,10.38-4.08,31.89,31.89,0,0,0,5.25-2.36l.29-.15c.87-.47,1.63-.86,2.34-1.2l.32-.15-.16-.31c-.17-.29-.33-.56-.5-.82l-.06-.1a10.75,10.75,0,0,1-1-1.9,30.45,30.45,0,0,1-1-3.24l-.24-.91-.58.23-2.3,1c-1.4.59-3,1.26-4.61,1.8-1.89.64-3.84,1.32-5.72,2-.63.22-1.26.43-1.89.66s-1.35.46-2,.7c-3,1-6.19,1.92-9,2.71l-4.76,1.35-.75.19c-.19.07-.38.11-.56.16l-.17,0a3.55,3.55,0,0,0-2.46,1.65,5.26,5.26,0,0,0-.42,1.6l0,.3,0,.06C-3108.56,1576.94-3108.48,1577.32-3108.38,1577.89Z" transform="translate(3361.83 -1519.81)"/><path class="cls-1" d="M-3068.68,1567.33c.16.24.31.49.49.79l.17.3.28-.18.23-.09.42-.19-.31-.35c-1.43-1.61-2.07-3.87-2.65-6.24l-.08-.25h-.32l-.46.19.14.47c.3,1,.59,2.09.89,3.15A9.8,9.8,0,0,0-3068.68,1567.33Z" transform="translate(3361.83 -1519.81)"/><path class="cls-1" d="M-3111.6,1583.94l.47-.1a5.17,5.17,0,0,0,.71-.16c.23-.07.49-.14.75-.23l.37-.13-.19-.35a16.06,16.06,0,0,1-1.44-4.55c-.06-.34-.14-.65-.21-1l-.09-.39-.36.16c-.21.07-.42.17-.64.23l-.09,0,0,.07c-.18.21-.3.69.23,2.61l.07.24c.07.28.15.55.24.83a4.38,4.38,0,0,1,.32,2.22Z" transform="translate(3361.83 -1519.81)"/><path class="cls-1" d="M-2972.33,1532.46v.45l.61-.19c.13,0,.26-.09.4-.12a38.19,38.19,0,0,0,6.49-2.72,4.79,4.79,0,0,0,2.34-2.81,3.06,3.06,0,0,0-.67-2.63l-.05,0-.42-.24a10.47,10.47,0,0,0-3.87-1.48,12.06,12.06,0,0,0-1.38-.08,31.82,31.82,0,0,0-6.88,1l-.41.09.19.38c.23.45.51,1,.81,1.47l.26.44C-2973.78,1527.9-2972.35,1530.34-2972.33,1532.46Z" transform="translate(3361.83 -1519.81)"/><path d="M-2959.56,1524.05a1.41,1.41,0,0,0-.84-1.16,1.36,1.36,0,0,0-.24-.13l-.15-.07h0l-1.24-.63c-.63-.33-1.27-.66-1.95-1a9.43,9.43,0,0,0-4.67-.58,44.63,44.63,0,0,0-7.89,1.14,3,3,0,0,0-2-1.54,10.88,10.88,0,0,0-5.05,0c-2.56.54-5.13,1.19-7.63,1.9-1.86.52-3.66,1.08-5.38,1.68-4.92,1.67-10,3.3-14.44,4.74-.52.18-1.06.34-1.59.5a2,2,0,0,0-.76-2.67,2.91,2.91,0,0,0-2.62-.32,11.29,11.29,0,0,0-3.44,1.91,6.24,6.24,0,0,0-1.83,2,2.18,2.18,0,0,0,.11,2.57c.85,1,2.17,1.28,4.05.87a6.56,6.56,0,0,0,1.88-.17h.07a1.88,1.88,0,0,0,1-.73c2.43-.81,4.91-1.59,7.3-2.34,3.49-1.1,7.09-2.24,10.61-3.44,1.43-.5,3-1,4.86-1.5s3.46-1,5.16-1.39l.13,0,.59-.16.38-.12.39-.11a11.08,11.08,0,0,1,3.69-.59l.23,0-1.43.4c-1.17.33-2.35.67-3.49,1-.64.2-1.28.38-1.92.56a199.11,199.11,0,0,0-19.81,7.07c-4.93,2-9.83,4.31-14.56,6.55-1.5.69-3.05,1.44-4.57,2.12-3.17,1.48-6.55,3-10,4.43l-2.19.84a69.36,69.36,0,0,0-6.75,2.91,152.22,152.22,0,0,1-14.54,6.29c-1.12.42-2.24.86-3.35,1.3s-2,.79-3,1.2l-1.25.49a1.52,1.52,0,0,0-1.29-.15,2,2,0,0,0-1.31,1.19c-.85.33-1.93.75-3,1.15-.85.32-1.69.69-2.48,1.06-.54.25-1.1.5-1.64.73s-1.26.47-1.89.67-1.33.45-2,.71c-2.23.93-4.59,1.69-6.88,2.4l-2.74.91c-3.25,1.09-6.61,2-9.51,2.86l-4.92,1.4-.51.15c-.19,0-.39.09-.57.15a5.67,5.67,0,0,0-2.2,1,6.17,6.17,0,0,0-1.42,1.73,8.5,8.5,0,0,1-3.11,1.8,2.47,2.47,0,0,0-1.53,1.77c0,.08,0,.18,0,.25a2.9,2.9,0,0,0-.38.24,1.59,1.59,0,0,0-.56.43,1.84,1.84,0,0,0-.22.32,7.61,7.61,0,0,0-2,1.4,5,5,0,0,1-1.23.81l-.35.22a7.37,7.37,0,0,0-2.64,2.05l-.23.06-1,.27c-.32.09-.61.18-.87.28l-.52.15a1.49,1.49,0,0,0-.78.51,3.79,3.79,0,0,0-1.22,1.42,1.34,1.34,0,0,0,.46,1.71c.89.67,2.16.76,3.92.3.4-.12.81-.2,1.22-.28s.89-.18,1.34-.31a5.36,5.36,0,0,0,1.33-.54l.18,0,.18,0a12.82,12.82,0,0,0,5.4-.12,1.39,1.39,0,0,0,.47.2,4.75,4.75,0,0,0,2.73-.14c.51-.13,1-.33,1.49-.5l.92-.32.25-.1a5.09,5.09,0,0,0,1,.37,7.94,7.94,0,0,0,4.27-.16,25.62,25.62,0,0,0,3.63-1.44c.83-.36,1.6-.72,2.4-1,2.56-.93,5.11-2.06,7.58-3.13a100,100,0,0,1,10.27-4,43.65,43.65,0,0,0,6.37-2.83c.91-.47,1.84-.95,2.75-1.37.51-.24,1-.5,1.54-.73,2.45-1.17,5-2.36,7.57-3.3,5.46-2,10.94-4.14,16.26-6.24,7.08-2.76,14.39-5.63,21.73-8.12,2.57-.88,5.17-1.75,7.74-2.6,10.42-3.5,21.2-7.13,31.62-11.1,2.8-1.08,5.78-2.22,9.34-3.63,1.06-.4,2.16-.8,3.25-1.16a53.13,53.13,0,0,0,5.46-2.12,9.61,9.61,0,0,0,4.91-4.92A4.89,4.89,0,0,0-2959.56,1524.05Zm-154.86,57.22c.09.31.16.59.25.9a6.16,6.16,0,0,1,.15,1.49v.29a10,10,0,0,1-3.57-.12,1.76,1.76,0,0,0-.09-.42c.15-.07.32-.16.49-.22a4.66,4.66,0,0,0,1.66-1.09A6.83,6.83,0,0,1-3114.42,1581.27Zm5.23,2.29c-.22.06-.48.15-.73.21s-.54.14-.67.17a4.76,4.76,0,0,0-.33-2.39c-.09-.27-.17-.55-.24-.82l-.07-.24c-.49-1.8-.39-2.21-.3-2.29l.66-.25c.07.3.14.61.21.94A16.79,16.79,0,0,0-3109.19,1583.56Zm38.9-13.79c-.79.37-1.59.79-2.35,1.21a34.25,34.25,0,0,1-5.48,2.48,109.58,109.58,0,0,0-10.43,4.1c-2.44,1.06-5,2.16-7.51,3.09-1.43.54-2.83,1.15-4.2,1.72l-.58.26-.36.15c-.51.21-1,.44-1.56.6a3.29,3.29,0,0,1-1.38.14c-2.41-.35-2.92-3.08-3.33-5.28-.08-.47-.16-.92-.26-1.3v-.11a5.45,5.45,0,0,1,.42-1.62,3.2,3.2,0,0,1,2.25-1.49l.73-.19.74-.19,1.41-.4,1.42-.41,1.41-.39.54-.16c3-.84,6-1.7,9-2.72l3.92-1.36,5.72-2c1.59-.53,3.15-1.19,4.63-1.81l2.52-1c.05.2.1.38.16.56a30.89,30.89,0,0,0,1,3.26,10.69,10.69,0,0,0,1.07,2C-3070.65,1569.17-3070.46,1569.46-3070.29,1569.77Zm3.24-1.53-.26.12c-.17-.27-.34-.55-.5-.79a9.87,9.87,0,0,1-1.16-2.32c-.29-1.06-.59-2.1-.89-3.16l-.06-.18.12,0h0C-3069.24,1564.09-3068.59,1566.52-3067,1568.24Zm50.58-38.16c-.2.08-.4.14-.58.2l-.09,0a1.55,1.55,0,0,1-.47-.08,1,1,0,0,1,.13-.15,1,1,0,0,1,.15-.1A1.65,1.65,0,0,1-3016.47,1530.08Zm41.36,4.11-.08.1-7.38,2.86c-5.74,2.19-11.67,4.26-17.41,6.26l-2.33.82c-4.6,1.59-9.27,3.16-13.8,4.69l-5.75,1.93c-3.3,1.12-6.58,2.43-9.76,3.68s-6.21,2.46-9.36,3.54c-3.6,1.22-7.21,2.64-10.69,4-2.69,1-5.47,2.15-8.21,3.14-1.24.45-2.52,1-4,1.62a7.37,7.37,0,0,1-1.94-3.33c-.27-.94-.53-1.87-.8-2.83,4.35-1.67,8.77-3.47,13.13-5.28,3.1-1.28,6.13-2.56,9.15-4.12a64.2,64.2,0,0,1,6.35-2.73l2.54-1c5.48-2.24,10.92-4.79,16.18-7.24,7.16-3.35,14.56-6.81,22.16-9.54,4.22-1.5,8.45-2.87,12.6-4,2-.55,3.92-1.08,5.85-1.55a1,1,0,0,0,.52.33c.47,1.06,1,2.11,1.56,3.12.22.39.42.76.62,1.17l.18.34C-2975.19,1531.28-2974.16,1533.21-2975.11,1534.19Zm12.88-6.79a4.43,4.43,0,0,1-2.18,2.61,36.25,36.25,0,0,1-6.44,2.68c-.18.07-.36.12-.55.18,0-2.2-1.46-4.65-2.64-6.66-.39-.69-.76-1.33-1.05-1.9a26.72,26.72,0,0,1,8.15-.9,10.41,10.41,0,0,1,3.78,1.47l.33.18A2.67,2.67,0,0,1-2962.23,1527.4Z" transform="translate(3361.83 -1519.81)"/></g></g></svg>