<svg xmlns="http://www.w3.org/2000/svg" viewBox="0 0 170.67 186.68"><defs><style>.cls-1{fill:#1a3869;}</style></defs><title>door</title><g id="图层_2" data-name="图层 2"><g id="图层_9" data-name="图层 9"><path class="cls-1" d="M139.44,172.26c1.94-4.9,3.44-10,4.91-15,1.41-4.89,2.76-9.79,4.31-14.63,1.4-4.37,3.62-8.92,2.82-13.61-.77-4.51-3.77-6.9-7.4-9.25-4.26-2.77-7.26-6.53-7-11.86.19-4,1.53-9.26,5.26-11.37,4.17-2.37,9.67-3.11,14.4-2.88a5,5,0,0,0,3.27-2c6.49-13.7,13.14-28.54,9.76-44s-17-23.08-30.5-29A290.5,290.5,0,0,0,92,2.54C78.55-.75,64.12-2,52,6,36.44,16.11,30,34.12,24.46,50.89a2.68,2.68,0,0,0-.13,1.16,2.75,2.75,0,0,0,1.79,3.47,18.44,18.44,0,0,1,10.51,7.85,22.83,22.83,0,0,1,3.3,13.37,11.22,11.22,0,0,1-6.86,9.37c-4.68,1.7-10.22,0-14.64-1.7a2.4,2.4,0,0,0-2.49.67,2.63,2.63,0,0,0-1.1,1.42c-4,11.54-8,23.09-11.31,34.86-2.45,8.78-6.51,20.11,0,28.14,3.1,3.87,7.76,5.91,12.3,7.6,5.47,2,11,3.86,16.56,5.71q17.49,5.83,35.2,11c7.76,2.26,15.56,4.38,23.37,6.44a2.93,2.93,0,0,0,3.87,1c2.79.72,5.57,1.47,8.36,2.17,8.58,2.14,19.15,5.73,27.43.78C135,181.52,137.59,177,139.44,172.26ZM44.21,161.17a379,379,0,0,1,15-50.37C62.46,102.35,66.1,94.05,70.16,86c3.81-7.59,7.72-15.85,14-21.73,5.08-4.74,12.17-7.58,19-5.15,6.26,2.23,11,8.14,13.25,14.22,5.46,14.69-1.73,31.35-6.26,45.31L91.88,175q-3.91-1.11-7.8-2.18C70.75,169.22,57.42,165.38,44.21,161.17Zm84.88,17.51c-3.65,2.95-8.66,2.87-13.06,2.15a186,186,0,0,1-19-4.35q8.85-27.25,17.69-54.52c4.93-15.21,12.5-32.87,7.26-49C117.52,59.13,103.54,48.46,89,54.7c-7.85,3.36-13.28,10.24-17.5,17.42A228.41,228.41,0,0,0,58.53,98.27a363.69,363.69,0,0,0-19.46,61.24c-7.38-2.42-14.71-4.94-22-7.64C12.19,150,6.8,147.42,5.65,141.79c-1.08-5.26.94-11,2.28-16.07,3.19-12,7.2-23.67,11.26-35.35A27.92,27.92,0,0,0,31.7,91.91a15.67,15.67,0,0,0,11-7.26C47.68,77.1,45.25,65.9,40.19,59A23.49,23.49,0,0,0,30,51.26c4.55-13.65,9.55-27.91,20.7-37.62C61.23,4.48,74.33,4.16,87.35,7A262.07,262.07,0,0,1,129.9,20.5c12.2,5,27.95,10.53,33.25,23.81,5.9,14.77-1.15,30.49-7.48,43.87-7-.16-16.27,1.58-20.36,7.67-4.47,6.65-5.13,16.47-.26,23,2.34,3.14,5.64,4.7,8.65,7,3.5,2.72,2.62,6.67,1.38,10.36-3.19,9.54-5.66,19.29-8.81,28.84C134.71,169.85,133.12,175.43,129.09,178.68Z"/><path class="cls-1" d="M104.21,108.61a9.1,9.1,0,0,0-4.13-3.6,2.46,2.46,0,0,0-1.5-1c-4.84-1-10.38.29-13.72,4.11a12.85,12.85,0,0,0-2,13.94,11.59,11.59,0,0,0,12.53,6c5.1-1,8.61-6.06,9.79-10.85A11.45,11.45,0,0,0,104.21,108.61ZM98.09,120l-.12.19-.13.16-.38.43a11.92,11.92,0,0,1-1,1l-.19.13-.4.27a5.48,5.48,0,0,1-1.16.56l-.88.21-.47,0h-.51l-.35,0s-.46-.08-.49-.09a8.91,8.91,0,0,1-1.12-.32l-.29-.13c-.19-.09-.38-.2-.57-.3a7.15,7.15,0,0,1-.73-.49l-.36-.31c-.13-.12-.25-.24-.37-.37s-.24-.25-.35-.38-.22-.27,0-.07l-.21-.32a6.61,6.61,0,0,1-.5-.95l-.12-.32c-.06-.21-.12-.42-.17-.64s-.07-.28-.1-.43,0-.15,0-.18A14.06,14.06,0,0,1,87,116s0-.13,0-.2.06-.37.1-.55c.08-.39.2-.77.31-1.16,0-.07,0-.11,0-.16s0,0,0,0c.09-.2.18-.4.29-.6a11.05,11.05,0,0,1,.68-1.14l.05-.08.08-.08c.18-.2.36-.4.55-.59l.49-.46.14-.14.16-.11A10.93,10.93,0,0,1,91.2,110l.51-.25c.06,0,.45-.16.48-.17a9.75,9.75,0,0,1,1.31-.36l.51-.1.62,0a2.32,2.32,0,0,0,2,.84,4.89,4.89,0,0,1,.66,0c.09,0,.35,0,.36,0l.19.05.34.13a4,4,0,0,1,1.4,1.28c.07.14.15.27.22.4l.09.19c.07.23.14.45.2.69,0,0,.06.3.07.37a8,8,0,0,1,0,1.2,4.3,4.3,0,0,1-.13,1.16A11.86,11.86,0,0,1,98.09,120Z"/><path class="cls-1" d="M73,26.55a2.78,2.78,0,0,0-3.69-1L57.48,31.08a2.71,2.71,0,0,0-1,3.69,2.76,2.76,0,0,0,3.68,1L72,30.24A2.71,2.71,0,0,0,73,26.55Z"/><path class="cls-1" d="M74.92,40.83a2.6,2.6,0,0,0-2-.26L64,44.07a3,3,0,0,0-1.63,1.27,2.77,2.77,0,0,0-.25,2A2.71,2.71,0,0,0,63.42,49a2.64,2.64,0,0,0,2,.26l8.82-3.51a3,3,0,0,0,1.64-1.26,2.77,2.77,0,0,0,.25-2A2.68,2.68,0,0,0,74.92,40.83Z"/></g></g></svg>