<svg xmlns="http://www.w3.org/2000/svg" viewBox="0 0 36.05 40.39"><defs><style>.cls-1{fill:#1a3869;fill-rule:evenodd;}</style></defs><title>phone</title><g id="图层_2" data-name="图层 2"><g id="图层_9" data-name="图层 9"><g id="_222222" data-name="222222"><path class="cls-1" d="M32.16,28.73c-1.49-1.27-3.47-2.74-5.55-2.26-1.6.36-3,2.55-4.13,3.58a1.45,1.45,0,0,1-1.93.09A26.52,26.52,0,0,1,9.37,16.79a1.63,1.63,0,0,1,.57-2.16c1.12-1,2.51-2,3-3.45a8.4,8.4,0,0,0-.3-4.73c-.5-1.83-1-4.39-2.51-5.64A4.68,4.68,0,0,0,5,.72,10.28,10.28,0,0,0,.14,8.18,11.44,11.44,0,0,0,0,10.79a21.39,21.39,0,0,0,1.51,6.06,43.62,43.62,0,0,0,1.91,4.32,40.12,40.12,0,0,0,9.37,12.16,34,34,0,0,0,6.37,4.44C21.75,39.12,24,40.46,27,40.39s6.51-1.46,8.22-4.21a4.91,4.91,0,0,0,.8-2.72C36,31.48,33.56,29.91,32.16,28.73Z"/></g></g></g></svg>