<svg xmlns="http://www.w3.org/2000/svg" viewBox="0 0 250.89 233.61"><defs><style>.cls-1{fill:#1a3869;}</style></defs><title>plane</title><g id="图层_2" data-name="图层 2"><g id="图层_9" data-name="图层 9"><path class="cls-1" d="M249.83,7.3c-2.38-4.57-7.92-5.93-12.64-6.41C222.63-.6,207.6,0,193,1.07c-30,2.2-59.69,8.13-88.91,15.22q-11,2.68-22,5.55c-5.24,1.36-12.51,2.21-16,6.92-3.93,5.34,0,11.38,4,15.31a86.09,86.09,0,0,0,15.49,12.2,84.87,84.87,0,0,0,7.9,4.29c1.55,9.17,2.34,18.45,3.21,27.7.42,4.5.79,9,1.41,13.5.39,2.85,1.12,6,3.39,8a6.13,6.13,0,0,0,6.11,1.09,30.66,30.66,0,0,0,5-1.89c3.68-1.65,7.25-3.55,10.79-5.49,7.26-4,14.38-8.2,21.73-12,3.19,1.78,6.44,3.41,9.75,4.86,6.12,2.68,12.55,3.88,18.82,1,5.88-2.69,10.75-7.59,15.52-11.84a393.23,393.23,0,0,0,55.72-61.23C248.41,19.54,253,13.38,249.83,7.3ZM80.61,48a82.38,82.38,0,0,1-7-6.08c-2-1.95-4.35-4.22-5-7.06-1.37-6.14,8-7.44,12-8.49q10-2.62,20.08-5.12c26.86-6.64,54-12.39,81.58-15.21A332.67,332.67,0,0,1,223.8,4.23c5.71.13,12-.21,17.59,1.47L128.92,45.85,96.36,57.47l-.07,0A83.89,83.89,0,0,1,80.61,48Zm20,38.66c-.79-8.49-1.62-17-3-25.39l114.79-41,9.44-3.36-73.73,38.4Q134.55,62.4,121,69.46a1.7,1.7,0,0,0-1,1.27,1.94,1.94,0,0,0-.47.89,172,172,0,0,1-9.8,29.18A34.19,34.19,0,0,1,107,106a6.11,6.11,0,0,1-.84,1.09,5.45,5.45,0,0,1-.87.11,2.34,2.34,0,0,1-1-.34c-2.16-1.48-2.21-5.53-2.47-7.78C101.34,95,101,90.8,100.57,86.64Zm21.69,12.91c-3.29,1.81-6.61,3.6-10,5.2a108.38,108.38,0,0,0,5.64-13.94c1.7-4.9,3.27-9.86,4.63-14.87A162,162,0,0,0,141,89.13C134.71,92.47,128.53,96.09,122.26,99.55ZM244.52,18a176.52,176.52,0,0,1-11.37,15.22Q227.27,40.62,221,47.75q-12.58,14.4-26.54,27.53-6.9,6.5-14.11,12.65c-4.59,3.91-9.72,7.8-16.11,7.1S152,90.67,146.62,87.62A154.21,154.21,0,0,1,130.35,77c-2.07-1.55-4.09-3.15-6.08-4.8L218.6,23.09,245.74,9a1.77,1.77,0,0,0,.32-.21,5.71,5.71,0,0,1,.47.88C247.66,12.49,246,15.58,244.52,18Z"/><path class="cls-1" d="M164.77,63a2,2,0,0,0-2.42,1.45q-.94,3.86-1.9,7.71a2,2,0,0,0,3.88,1l1.89-7.7A2,2,0,0,0,164.77,63Z"/><path class="cls-1" d="M179.53,58.88a2.06,2.06,0,0,0-2.42,1.46c-.71,2.1-1.41,4.21-2.12,6.31a2.08,2.08,0,0,0,.24,1.54,2,2,0,0,0,3.64-.57c.7-2.11,1.41-4.21,2.11-6.32a2,2,0,0,0-1.45-2.42Z"/><path class="cls-1" d="M82.73,114.44A36.69,36.69,0,0,0,55.93,129a33.54,33.54,0,0,0-3.44,5.73,35.19,35.19,0,0,0-17.93.68c-9.89,3.05-18.28,10.51-20.71,20.81a29.27,29.27,0,0,0-.57,10.15c-7.82,6.09-11.76,16.34-12.92,26a53.46,53.46,0,0,0,12,40.54c1.64,2,4.63-.64,3-2.61C3.51,216-.35,193.42,9.32,176.92a26.89,26.89,0,0,1,4.85-6,22.44,22.44,0,0,0,8.53,12.41c4.12,2.9,10,4.41,14.62,1.73,4.14-2.41,5.92-7.31,5.27-11.93-.7-5-4.5-8.85-9.09-10.61a20.06,20.06,0,0,0-15.91,1.11c-.2.1-.39.22-.59.33a24.22,24.22,0,0,1,10.37-20.75,30.52,30.52,0,0,1,23.57-4.68c-2.41,7.14-2.32,15.15,4.72,19.18,4.16,2.39,10.18,1.52,12.69-2.85,2.61-4.54.26-10.15-3.2-13.52a25.24,25.24,0,0,0-8.87-5.48,32.73,32.73,0,0,1,27.19-17.51C86,118.19,85.24,114.3,82.73,114.44Zm-50,52c3.78,1.65,6.38,5.19,6,9.4a6.9,6.9,0,0,1-7.61,6.58c-7.29-.6-12-7.41-13.54-14.2C22.07,165.36,27.44,164.17,32.71,166.46Zm30.94-20.83c2.31,3.16,2.93,8.43-2,9.33-5.48,1-8.38-5.11-8.16-9.69a20.64,20.64,0,0,1,1.17-5.74A18.55,18.55,0,0,1,63.65,145.63Z"/></g></g></svg>