<svg xmlns="http://www.w3.org/2000/svg" viewBox="0 0 277.58 258.45"><defs><style>.cls-1{fill:#1a3869;}</style></defs><title>资源 24</title><g id="图层_2" data-name="图层 2"><g id="图层_10" data-name="图层 10"><path class="cls-1" d="M-2910.3-1839.64c-2.63-5.06-8.76-6.56-14-7.09-16.11-1.65-32.73-1-48.86.2-33.23,2.44-66,9-98.37,16.84q-12.19,3-24.34,6.14c-5.8,1.5-13.83,2.44-17.68,7.66-4.34,5.9.06,12.58,4.41,16.93a95.46,95.46,0,0,0,17.13,13.5,94.8,94.8,0,0,0,8.75,4.75c1.71,10.15,2.59,20.41,3.55,30.64.46,5,.87,10,1.56,14.94.43,3.16,1.23,6.66,3.75,8.85a6.76,6.76,0,0,0,6.75,1.21,34.31,34.31,0,0,0,5.5-2.1c4.08-1.82,8-3.92,11.94-6.07,8-4.39,15.91-9.08,24.05-13.26,3.53,2,7.12,3.77,10.79,5.38,6.76,3,13.87,4.29,20.82,1.11,6.5-3,11.89-8.4,17.17-13.1a434.29,434.29,0,0,0,61.64-67.74C-2911.87-1826.1-2906.8-1832.91-2910.3-1839.64Zm-187.21,45a90.25,90.25,0,0,1-7.75-6.73c-2.22-2.15-4.81-4.67-5.51-7.81-1.52-6.79,8.81-8.23,13.28-9.39q11.09-2.89,22.21-5.67c29.72-7.34,59.77-13.7,90.26-16.83a372.61,372.61,0,0,1,45.92-2c6.33.14,13.34-.22,19.46,1.64L-3044.07-1797l-36,12.85-.08,0A92.65,92.65,0,0,1-3097.51-1794.63Zm22.07,42.77c-.87-9.39-1.78-18.77-3.26-28.09l127-45.33,10.43-3.72-81.56,42.49-30,15.65a1.86,1.86,0,0,0-1.06,1.4,2.11,2.11,0,0,0-.53,1,190.83,190.83,0,0,1-10.83,32.29,38.75,38.75,0,0,1-3,5.77,6.52,6.52,0,0,1-.93,1.21,6.63,6.63,0,0,1-1,.12,2.58,2.58,0,0,1-1.11-.38c-2.38-1.63-2.45-6.12-2.73-8.61C-3074.58-1742.66-3075-1747.26-3075.44-1751.86Zm24,14.28c-3.64,2-7.3,4-11.07,5.75a119.55,119.55,0,0,0,6.24-15.42c1.88-5.42,3.61-10.91,5.12-16.45a178.4,178.4,0,0,0,20.5,14.59C-3037.66-1745.41-3044.5-1741.4-3051.44-1737.58Zm135.27-90.25c-3.71,5.89-8.26,11.38-12.58,16.83s-8.81,10.85-13.4,16.11q-13.93,15.95-29.36,30.46-7.63,7.18-15.61,14c-5.09,4.33-10.76,8.64-17.82,7.87s-13.57-4.83-19.54-8.21a169.27,169.27,0,0,1-18-11.71c-2.29-1.71-4.52-3.49-6.72-5.31l104.36-54.37,30-15.64a2.36,2.36,0,0,0,.35-.23,5.29,5.29,0,0,1,.52,1C-2912.69-1833.9-2914.5-1830.48-2916.17-1827.83Z" transform="translate(3186.7 1847.71)"/><path class="cls-1" d="M-3004.41-1778a2.23,2.23,0,0,0-2.67,1.6l-2.1,8.53a2.25,2.25,0,0,0,1.61,2.68,2.26,2.26,0,0,0,2.68-1.61c.7-2.84,1.39-5.69,2.09-8.53A2.22,2.22,0,0,0-3004.41-1778Z" transform="translate(3186.7 1847.71)"/><path class="cls-1" d="M-2988.08-1782.57a2.26,2.26,0,0,0-2.67,1.61l-2.34,7a2.18,2.18,0,0,0,.26,1.69,2.24,2.24,0,0,0,1.35,1,2.25,2.25,0,0,0,2.67-1.6l2.34-7a2.21,2.21,0,0,0-.26-1.7A2.28,2.28,0,0,0-2988.08-1782.57Z" transform="translate(3186.7 1847.71)"/><path class="cls-1" d="M-3095.18-1721.11a40.56,40.56,0,0,0-29.64,16.1,37.35,37.35,0,0,0-3.81,6.33,39.11,39.11,0,0,0-19.83.75c-10.95,3.38-20.23,11.63-22.92,23a32.52,32.52,0,0,0-.63,11.23c-8.65,6.73-13,18.08-14.29,28.78a59.74,59.74,0,0,0,7.85,37.13A60.6,60.6,0,0,0-3173-1590c1.81,2.17,5.12-.71,3.31-2.89-13.15-15.78-17.41-40.8-6.71-59.06a29.66,29.66,0,0,1,5.36-6.65,24.9,24.9,0,0,0,9.43,13.73c4.57,3.2,11.07,4.87,16.18,1.9,4.58-2.67,6.55-8.08,5.83-13.19-.77-5.53-5-9.79-10.06-11.74a22.18,22.18,0,0,0-17.6,1.23c-.22.11-.43.24-.65.36a26.78,26.78,0,0,1,11.47-23,33.8,33.8,0,0,1,26.08-5.18c-2.67,7.91-2.57,16.77,5.22,21.23,4.6,2.64,11.26,1.68,14-3.16,2.89-5,.29-11.23-3.54-14.95a28,28,0,0,0-9.81-6.07,36.5,36.5,0,0,1,3-4.86,36.38,36.38,0,0,1,27-14.5C-3091.54-1716.95-3092.39-1721.26-3095.18-1721.11Zm-55.33,57.56c4.18,1.82,7.06,5.74,6.66,10.4a7.61,7.61,0,0,1-8.42,7.27c-8.06-.66-13.24-8.19-15-15.7C-3162.28-1664.77-3156.34-1666.08-3150.51-1663.55Zm34.23-23c2.56,3.5,3.24,9.33-2.2,10.33-6.07,1.12-9.27-5.66-9-10.72a23.28,23.28,0,0,1,1.29-6.36C-3122.38-1692-3118.65-1689.85-3116.28-1686.6Z" transform="translate(3186.7 1847.71)"/></g></g></svg>