<svg xmlns="http://www.w3.org/2000/svg" viewBox="0 0 154.53 254.65"><defs><style>.cls-1{fill:#1a3869;}</style></defs><title>资源 26</title><g id="图层_2" data-name="图层 2"><g id="图层_10" data-name="图层 10"><path class="cls-1" d="M-3350.52-861.6c7.44-13.36,14.53-27,21.39-40.65A528.31,528.31,0,0,0-3293-994.81a2.67,2.67,0,0,0,.22-.74,3,3,0,0,0,.11-.81,309,309,0,0,0,3.14-39.84,228.5,228.5,0,0,0-1.05-28.77,3,3,0,0,0-.19-1.46c-.22-1.87-.42-3.74-.72-5.59-1.19-7.39-3-17-10-21.1-5.75-3.36-11.35-1.69-16.75,1.44a127.3,127.3,0,0,0-17.94,12.92c-13.58,11.43-25.62,24.59-37.54,37.7a2.8,2.8,0,0,0-.37.5l-.1.1c-7.75,10-14.32,20.94-20.54,32-13.22,23.46-24.79,47.85-35.93,72.35-5.57,12.27-11.43,24.69-13,38.23-1.2,10.53.79,21.6,6.85,30.31a3.08,3.08,0,0,0,.33.5l.27.33a37.19,37.19,0,0,0,2.62,3.16,3.2,3.2,0,0,0,.55.45c11.36,12.1,27.72,20.13,44,22.37,7.27,1,14.81.57,21.54-2.58C-3359.71-847-3354.59-854.3-3350.52-861.6Zm1.9-15.56a171.41,171.41,0,0,0-82.82-43.49c1.24-3,2.56-6,3.92-9a189.76,189.76,0,0,1,83.24,44.16l.07,0Zm-20.14-34a196,196,0,0,0-23.46-12.51q21.09-46.57,43.93-92.33a2.83,2.83,0,0,0,.28-1.79c2.89-5.67,10.56-7.51,16.06-4.38,6.7,3.82,8.08,12.75,6,19.57C-3341.19-972.53-3353.6-941.18-3368.76-911.12Zm-3-123a2.65,2.65,0,0,0,1.19-.43c3.72-2.33,8.39-1.3,11.55,1.57,3.91,3.57,5.12,9.25,5.49,14.3a2.6,2.6,0,0,0,.1.4q-22.86,45.8-44,92.45a192.79,192.79,0,0,0-27.63-9.06c1.28-2.72,2.57-5.44,3.82-8.14,5.43-11.76,11-23.45,16.84-35C-3394.74-997.29-3384.63-1016.79-3371.81-1034.16Zm73.26-43.86c.39,1.44.7,2.9,1,4.37a44.69,44.69,0,0,0-23.14-9.75c2.18-1.46,4.4-2.87,6.7-4.13,4.24-2.33,9-2.45,11.94,1.29C-3300.32-1084.07-3299.3-1080.82-3298.55-1078Zm.86,76.71a21.88,21.88,0,0,0-21.73-5.35c.57-8.19-2.72-16.89-10.3-20.75a18.43,18.43,0,0,0-19.21,1.82c-1.15-4.8-3.29-9.31-7.27-12.43a16.62,16.62,0,0,0-9.4-3.51c10.8-11.82,21.84-23.53,34.16-33.79,1.05-.87,2.12-1.73,3.2-2.58h.17a38.84,38.84,0,0,1,31.88,13.57s0,.1,0,.15A267.75,267.75,0,0,1-3297.69-1001.31Zm-17.59,55c-7.64,19-16.71,37.45-26.22,55.62A197.93,197.93,0,0,0-3363.93-908c15.19-30.09,27.61-61.49,42.86-91.56,7.12-4.43,17.28-2.34,21.55,5.13a2.83,2.83,0,0,0,.34.47A494.51,494.51,0,0,1-3315.28-946.26Zm-55.39,98.07c-6.69,2.94-14.5,2.6-21.5,1.07-15.14-3.33-29.54-11-39.47-23.08-7.75-10.36-7.79-24.45-4.53-36.63.76-2.85,1.68-5.65,2.68-8.43a165.81,165.81,0,0,1,82.07,43.31l-3,5.64C-3358.33-859.12-3362.87-851.6-3370.67-848.19Z" transform="translate(3443.99 1094.97)"/><path class="cls-1" d="M-3411.62-874.07a2.93,2.93,0,0,1-3.47-2.07q-2.22-7.51-4.45-15a2.87,2.87,0,0,1,2.07-3.47,2.92,2.92,0,0,1,3.46,2.07q2.24,7.5,4.46,15A2.87,2.87,0,0,1-3411.62-874.07Z" transform="translate(3443.99 1094.97)"/><path class="cls-1" d="M-3401.56-878.6l-2.7-11a2.9,2.9,0,0,1,2.07-3.47,2.91,2.91,0,0,1,3.47,2.08l2.7,11a2.88,2.88,0,0,1-2.07,3.46A2.91,2.91,0,0,1-3401.56-878.6Z" transform="translate(3443.99 1094.97)"/></g></g></svg>