<svg xmlns="http://www.w3.org/2000/svg" viewBox="0 0 127.38 101.19"><defs><style>.cls-1{fill:#ffb53f;}</style></defs><title>资源 29</title><g id="图层_2" data-name="图层 2"><g id="图层_10" data-name="图层 10"><path class="cls-1" d="M-3239.1-1186.11c-.08,13.53,7.33,23.52,20.53,29.53,17.48,8,26.91.33,37.79-10.06,7.1-6.79,22.87-23.66,19.51-40.25-3-14.67-27.05-34.49-47.64-28.16C-3225.54-1229.94-3239-1205.18-3239.1-1186.11Z" transform="translate(3288.18 1236.26)"/><path class="cls-1" d="M-3288.18-1148.3c0,5.45,2.95,9.48,8.27,11.9,7,3.2,10.84.13,15.22-4.06,2.86-2.73,9.21-9.52,7.86-16.21-1.2-5.91-10.9-13.89-19.19-11.34C-3282.72-1165.95-3288.14-1156-3288.18-1148.3Z" transform="translate(3288.18 1236.26)"/></g></g></svg>