<svg xmlns="http://www.w3.org/2000/svg" viewBox="0 0 53.32 75.15"><defs><style>.cls-1{fill:#1a3869;}</style></defs><title>资源 25</title><g id="图层_2" data-name="图层 2"><g id="图层_10" data-name="图层 10"><path class="cls-1" d="M-3000.89-1146.29c-3.51-.26-7.33-1.71-9.65-4.45s-1.95-6.77-1.73-10.08a1.57,1.57,0,0,0-2.43-1.38,1.68,1.68,0,0,0-1.85,1.59,20.4,20.4,0,0,1-13.78,18.32,1.67,1.67,0,0,0,.44,3.26,17.08,17.08,0,0,1,11,6.16c2.75,3.41,3.77,7.78,4.2,12a1.66,1.66,0,0,0,3.32,0c.64-4.9.67-10.17,2.89-14.69a16.63,16.63,0,0,1,8.46-7.69C-2998.43-1143.95-2999.41-1146.18-3000.89-1146.29Zm-10.49,9.11a26.4,26.4,0,0,0-2.17,7,20.18,20.18,0,0,0-3-5.09,19.74,19.74,0,0,0-8.45-5.91,23.75,23.75,0,0,0,9.95-11.36,10.4,10.4,0,0,0,2.18,4.1,16,16,0,0,0,7.34,4.53A17.85,17.85,0,0,0-3011.38-1137.18Z" transform="translate(3052.53 1162.42)"/><path class="cls-1" d="M-3025.28-1112.72c-3,.26-5.88-1.79-7.95-3.8a9.59,9.59,0,0,1-2.92-8.84,1.73,1.73,0,0,0-2.87-1.6,1.5,1.5,0,0,0-.72,1.36c0,7-3,15.89-11.15,16.54-1.72.14-2.42,3-.45,3.26,3.75.58,8,1.34,10.64,4.35,3,3.41,2.91,8.34,2.93,12.58,0,2.15,3.19,2.12,3.32,0,.28-4.54.41-9.48,2.22-13.73,1.46-3.42,4.6-5.42,7.79-7C-3023-1110.35-3023.64-1112.86-3025.28-1112.72Zm-9.81,8.41a23.15,23.15,0,0,0-1.26,3.62,13.82,13.82,0,0,0-1.66-2.7,14.07,14.07,0,0,0-6.74-4.31,17,17,0,0,0,6.95-9.26,13.33,13.33,0,0,0,1.89,2.46,19.42,19.42,0,0,0,6,4.26A15.07,15.07,0,0,0-3035.09-1104.31Z" transform="translate(3052.53 1162.42)"/></g></g></svg>