<svg xmlns="http://www.w3.org/2000/svg" viewBox="0 0 319.22 400.65"><defs><style>.cls-1{fill:#1a3869;}</style></defs><title>bag</title><g id="图层_2" data-name="图层 2"><g id="图层_9" data-name="图层 9"><path class="cls-1" d="M287.38,1612.05c-.92-2.49-3.89-3.25-6.2-3.71a35.78,35.78,0,0,0-10.12-.51,14.15,14.15,0,0,1-4.1.23c-1.66-.37-2-1.92-2.25-3.41-1-7-1.34-14.13-2-21.17-.14-1.46-.28-3.11-1.47-4.14a3,3,0,0,0-3.64-.37c-1.31.92-1.65,3-2.13,4.36q-.9,2.72-1.73,5.45a182.18,182.18,0,0,0-5.13,21.87l-10.83,1.69-5.93.93c-1.31.21-2.79.44-3.65,1.58-2.22,2.93,1.75,5.1,4,5.92l10.31,3.78q-.81,8.31-1.61,16.62c-.29,3-.57,5.92-.86,8.88-.19,2-.7,4.9,1.84,5.54,2.17.56,3.64-1.67,4.47-3.32,1.34-2.64,2.62-5.3,3.94-8q3.17-6.42,6.35-12.85l6.15,17.72,3.56,10.26c.71,2,1.49,6.68,4.52,6.39s2.27-4.49,2.14-6.48q-.36-5.52-1.08-11t-1.71-10.66c-.33-1.72-.69-3.43-1.07-5.15a12.64,12.64,0,0,1-.51-4.69c.44-2.68,3.07-4.2,5.28-5.34,3.12-1.63,6.28-3.2,9.42-4.8C285.44,1616.62,288.49,1615,287.38,1612.05Zm-5.66,3.34c-2.86,1.45-5.73,2.9-8.58,4.36a17.57,17.57,0,0,0-5.52,3.88,8.34,8.34,0,0,0-1.77,6.74c.4,3,1.26,6,1.82,9.05a176.94,176.94,0,0,1,2.45,19.21q.11,1.38.18,2.76c0,.35.07.74.06,1.1l-.07-.12a13.29,13.29,0,0,1-.49-1.38l-.92-2.63-3.46-10q-3.66-10.53-7.31-21a1.41,1.41,0,0,0-2.57,0l-6.64,13.42c-1.07,2.16-2.13,4.31-3.2,6.46-.57,1.16-1.14,2.32-1.72,3.48a9.23,9.23,0,0,1-.71,1.36c-.16.24-.78.83-.75.84a27.94,27.94,0,0,1,.3-3c.13-1.29.25-2.59.38-3.88.23-2.41.46-4.81.7-7.22q.72-7.48,1.45-15a1.44,1.44,0,0,0-.85-1.48l-8.69-3.19a42.66,42.66,0,0,1-4.13-1.55c-.25-.12-1.25-.59-1.23-.94s.87-.45,1.21-.51c6.09-1.09,12.23-1.92,18.34-2.88a1.34,1.34,0,0,0,1.15-1.52,1.31,1.31,0,0,0,.17-.47,176.42,176.42,0,0,1,4-17.9q1.26-4.52,2.75-8.94c.22-.66.44-1.32.67-2,.17-.48.29-1.44.83-.83.32.37.29,1.22.34,1.68.1.9.17,1.81.26,2.72.58,6.26,1,12.57,1.77,18.8.3,2.33,1.15,4.74,3.51,5.69s5.13.09,7.55,0a29.62,29.62,0,0,1,9.33,1c.72.22,2.39.75,2.49,1.66C284.92,1614.21,282.45,1615,281.72,1615.39Z" transform="translate(-227.53 -1578.51)"/><path class="cls-1" d="M269.48,1598.16a21.21,21.21,0,0,0,4.57-7.46,1.43,1.43,0,0,0-.44-1.65,1.44,1.44,0,0,0-1.7,0,11.7,11.7,0,0,0-4.61,7,1.08,1.08,0,0,0,0,.4l0,0a1.41,1.41,0,0,0,.26,2A1.44,1.44,0,0,0,269.48,1598.16Zm1.52-4.08a.05.05,0,0,0,0,0l0,0C271,1594.08,271,1594.13,271,1594.08Z" transform="translate(-227.53 -1578.51)"/><path class="cls-1" d="M240.16,1601.49a1.47,1.47,0,0,0,.06-.14,1.28,1.28,0,0,0,.32-1.07,11.27,11.27,0,0,0-4.66-7.42,1.41,1.41,0,0,0-2.24,1.29,14.1,14.1,0,0,0,4.56,7.59A1.41,1.41,0,0,0,240.16,1601.49Z" transform="translate(-227.53 -1578.51)"/><path class="cls-1" d="M235.3,1631.52a1.41,1.41,0,0,0-.72.12,1.21,1.21,0,0,0-.64.11,8.2,8.2,0,0,0-4.6,6.77,1.44,1.44,0,0,0,.53,1.3,1.39,1.39,0,0,0,1.4.18,10.42,10.42,0,0,0,5.22-6.91A1.4,1.4,0,0,0,235.3,1631.52Zm-1.63,1.39v0C233.63,1633.07,233.55,1633.2,233.67,1632.91Zm-.83,3.48h0l0,0Zm-2.51.95c-.08.05-.26.13,0,0Zm4.35-2.83h0l.07,0h0C234.84,1634.42,234.87,1634.42,234.68,1634.51Z" transform="translate(-227.53 -1578.51)"/><path class="cls-1" d="M280,1629.72a1.42,1.42,0,0,0-1.6-.07,2.14,2.14,0,0,0-1.7,1.79,3,3,0,0,0,.79,2.26c.85,1,1.72,2.07,2.59,3.09a3.21,3.21,0,0,0,1.84,1.22,2.15,2.15,0,0,0,2.26-1.24c.7-1.46-.38-2.88-1.24-4A19.79,19.79,0,0,0,280,1629.72Z" transform="translate(-227.53 -1578.51)"/><path class="cls-1" d="M545.53,1865.6c-1.89-5.36-5.44-10.06-9-14.42-3.41-4.17-7.25-8.28-12-11-4.38-2.52-10-3.11-14,.29-7.78-9.11-16.72-17.93-28-21.91a15.93,15.93,0,0,0-.68-2.48,36.38,36.38,0,0,0-4.89-8.59,88.1,88.1,0,0,0-5.56-7.18,75.68,75.68,0,0,0-14-12.38c-4.91-3.37-10.37-6.23-16.31-7.16a41.26,41.26,0,0,0-14.57.52c-2.38-5.12-6.12-10.31-12.13-11.12a9.63,9.63,0,0,0-7.39,1.92,8.11,8.11,0,0,0-3.16,7.11,20.73,20.73,0,0,0,1.37,5.12c.54,1.5,1.17,3,1.82,4.42q-2.35,1.27-4.61,2.63l-.35.21c-5.32-6.58-13.64-12.82-22.3-9.59a28.67,28.67,0,0,0-6.16,3,16.93,16.93,0,0,0-4.52,4.83c-2.42,3.58-3.92,7.91-3.19,12.25.86,5.13,4.14,9.08,8.29,11.9-1.47,1.44-2.94,2.9-4.38,4.37-4.91-3-10.39-5.43-16.3-4.87a33.39,33.39,0,0,0-18.15,8.09c-10.09,8.79-8.95,23-6.34,34.87,1.73,7.88,4.75,15.33,7.65,22.82a189.25,189.25,0,0,1,7.22,23c3.72,14.93,6.9,30.36,15.53,43.4a48.35,48.35,0,0,0,16.74,16c6,3.26,13.73,5,19.9,1.45,2.15,4.12,4.37,8.34,7.58,11.62a14.81,14.81,0,0,0,13.28,4.21c6-1,12.64-4.77,15.86-10.15,15.6,1,29.79-6.71,42.18-15.43,13.26-9.33,26.19-19.41,37.77-30.78a129.4,129.4,0,0,0,15.57-17.67c3.82-5.42,6.59-11.45,6.94-18.11a12.78,12.78,0,0,0,10.1-7.52A18.68,18.68,0,0,0,545.53,1865.6ZM408.5,1783a14.42,14.42,0,0,1-1.15-4.5,5,5,0,0,1,3.8-4.68,8,8,0,0,1,6.79,1.49,17.2,17.2,0,0,1,5.17,6.8,72.43,72.43,0,0,0-12.94,5C409.56,1785.79,409,1784.41,408.5,1783Zm-39.25,16.3a15.79,15.79,0,0,1,6.27-11.37c3.71-2.52,8.39-4.27,12.8-2.78a20.87,20.87,0,0,1,6.26,3.89,34,34,0,0,1,4.54,4.43c-.82.53-1.64,1.07-2.44,1.62a42.26,42.26,0,0,0-5.92-5c-2.69-1.9-5.66-2.87-8.88-1.67-3,1.12-4.9,3.33-6.68,5.87s-2.61,5.56-1.32,8.66a16.79,16.79,0,0,0,5.15,6.41l-2.21,2.07C372.58,1808.78,369,1804.61,369.25,1799.31Zm12.4,7.69a20.28,20.28,0,0,1-2.47-2.35,8.83,8.83,0,0,1-2.34-3.91,4.76,4.76,0,0,1,.84-3.87,18,18,0,0,1,2.62-3.39,7.58,7.58,0,0,1,3.62-2,5.36,5.36,0,0,1,4,.94,31.75,31.75,0,0,1,5.83,4.71A154.59,154.59,0,0,0,381.65,1807Zm-3.83,151.54a43.18,43.18,0,0,1-14.23-13.06c-8.25-11.58-11.72-25.47-15-39.08-1.78-7.29-3.56-14.58-6.05-21.67s-5.45-13.74-7.75-20.77a80,80,0,0,1-3.93-18.61c-.44-5.7.09-11.58,3-16.6,3.53-6,10.62-9.76,17.21-11.34,5.92-1.43,11.27.54,16.27,3.49l0,0a91,91,0,0,0-7.94,9.17l-.06,0c-7.81-5.44-19.07-.63-20.37,8.86-.59,4.33.9,8.83,2.24,12.89a125.89,125.89,0,0,0,5.26,13.77c2.44,5.19,5.18,10.25,7,15.72,1.84,5.67,3,11.62,4.37,17.4,2.61,10.76,5,22,9.76,32,4.56,9.63,11.95,18.4,22.17,22.15a1.76,1.76,0,0,0,.8.12c1.27,2.21,2.56,4.41,3.78,6.62a3.9,3.9,0,0,0,.19.35C389.27,1963,382.8,1961.26,377.82,1958.54ZM354,1839.89a28.9,28.9,0,0,0,.19,19.08c0,.08,0,.16.07.25l.25.61.11.3.05.1a489,489,0,0,0,33.2,67.85l-1.46,1.34a1.53,1.53,0,0,0-.44.68c-2.82,3.7-2.37,8.9-.59,13.06.75,1.74,1.59,3.45,2.48,5.15-16.18-8.19-21.1-28.07-25.23-44.45-2.6-10.34-4.35-21.08-8.78-30.83-2.11-4.65-4.57-9.14-6.44-13.89a126.16,126.16,0,0,1-4.06-12.14c-1.22-4.45-1.85-9.15,1.59-12.82a9.68,9.68,0,0,1,12.45-1.18A34.44,34.44,0,0,0,354,1839.89Zm75.57,127.63a21.06,21.06,0,0,1-10.24,7.22c-4,1.36-8.37,1.39-11.83-1.28-3.78-2.94-5.88-7.71-8.13-11.8-3-5.35-5.94-10.7-8.87-16.07-2.32-4.24-5.17-10.35-.85-14.35a1.54,1.54,0,0,0,.27-.31c3-2.79,6.52-5.75,10.7-6.15s7.79,2.17,10.61,5a89.83,89.83,0,0,1,9.59,12.28,142.63,142.63,0,0,1,8.39,13.1c1.84,3.43,2.83,7.17,1.29,10.66a1.76,1.76,0,0,0-.17.37A10.21,10.21,0,0,1,429.57,1967.52ZM513,1917.37c-10.84,11.1-23,20.77-35.54,29.9-12.72,9.28-26.91,18.52-43.17,18.1a12.74,12.74,0,0,0,.16-6.39c-1.26-5.48-5.13-10.44-8.17-15a136.25,136.25,0,0,0-11.14-15c-3.49-4-8-7.63-13.56-7.68-4.18,0-7.81,2-11,4.55a484.57,484.57,0,0,1-32.67-66.86,26.16,26.16,0,0,1-1.05-16.46c1.67-6.09,5.9-11.36,10.06-16,3.47-3.84,7.1-7.61,10.86-11.24a1.74,1.74,0,0,0,.68-.64A167.3,167.3,0,0,1,397.22,1799a1.82,1.82,0,0,0,.58-.4l0,0,.6-.43c10.36-7.16,22.73-13.67,35.57-14.26,11.74-.55,21.77,6.09,30,13.81a75,75,0,0,1,12,14.61c1.83,2.88,3.55,6.19,3.27,9.7-.21,2.74-2.08,5-4,6.89l-.26-.34a80.64,80.64,0,0,0-5.1-6.82c-1.77-2-4.26-3.39-7-2.88a6.75,6.75,0,0,0-5.16,4.58c-1.12,2.46.9,4.84,2.4,6.72,1.82,2.29,3.53,4.65,5.27,7l.4.54c-10.8,10.11-22.55,19.14-34.34,28.07-1.35-2-2.67-4-4.1-6a14.34,14.34,0,0,0-4.89-4.66,6.53,6.53,0,0,0-9.3,6.61,1.61,1.61,0,0,0,.14.5,1.76,1.76,0,0,0,.22.63l4.86,8.53c.54.95,1.07,1.91,1.6,2.88-4.25,2.81-9,5.21-14.21,5-5.78-.21-10.74-3.9-14.71-7.79-7.88-7.74-15.74-19.29-28.37-17.82-2.23.26-2.13,3.77.12,3.51,13.15-1.53,20.41,12.85,29.21,19.87,4.36,3.47,9.56,6,15.25,5.72,5.26-.25,10.1-2.61,14.45-5.46.45.73.91,1.45,1.4,2.15,1.5,2.1,3.53,4.1,6.2,4.47a6.94,6.94,0,0,0,6.33-2.47c3.52-4.21.5-8.91-2.22-12.8,11.83-9,23.61-18,34.48-28.14a19,19,0,0,0,3.11,3.63c1.56,1.2,3.81,2.09,5.75,1.39A8,8,0,0,0,481,1841c.65-2.08-.39-4.07-1.39-5.87a32.29,32.29,0,0,0-2.24-3.37,18.7,18.7,0,0,0,4.8-6.64,10.1,10.1,0,0,0,.6-2.76c10.9,4.28,19.56,13.8,26.93,22.54a216.59,216.59,0,0,1,13.71,17.52c4,5.8,7.28,12.28,8.14,19.34C533.38,1896.32,522.44,1907.72,513,1917.37ZM469,1836c-1.39-1.88-2.76-3.78-4.18-5.65-.78-1-1.59-2.05-2.4-3.06-.61-.74-1.82-1.84-1.16-2.84a1.62,1.62,0,0,0,.28-.75,3.18,3.18,0,0,1,2.35-1.47c1.6-.15,3,1.18,3.91,2.3,2,2.39,3.82,5,5.63,7.6a1.8,1.8,0,0,0,.29.43c.52.74,1,1.48,1.56,2.2a14.68,14.68,0,0,1,2.41,4.25c.32,1.16-.73,2.21-1.59,2.9s-2.2,0-3-.67a16.53,16.53,0,0,1-2-2.46C470.36,1837.9,469.66,1837,469,1836Zm-52.24,25.23a3,3,0,0,1,5-2.52,15.47,15.47,0,0,1,3.23,3.66c1.27,1.82,2.49,3.68,3.74,5.52s2.72,3.85,3.91,5.87c1,1.66,1.83,3.6.49,5.31-3.06,3.89-6.75-1-8.3-3.61C422.07,1870.79,419.42,1866,416.72,1861.27Zm118.54,22c-.89-14.42-11.15-26.29-19.9-37-.83-1-1.67-2-2.53-3.08,4.1-3.71,10-.3,13.57,2.6a63.82,63.82,0,0,1,11.3,12.74c3,4.3,5.68,9.15,5.55,14.56C543.13,1877.8,540.12,1882.58,535.26,1883.27Z" transform="translate(-227.53 -1578.51)"/><path class="cls-1" d="M490.78,1857.67c-7-3-13.54-.32-19.65,3.4-8,4.87-15.26,10.8-22.41,16.8-3.44,2.88-7.08,5.68-9.71,9.36a20.86,20.86,0,0,0-3.46,8.15,1.71,1.71,0,0,0-.23.68c-.05.51-.09,1-.11,1.5l-.06.5a1.68,1.68,0,0,0,0,.56c0,6.48,2.92,12.39,6.7,17.69a95.6,95.6,0,0,0,7.45,9.22,22.27,22.27,0,0,0,7.88,5.82c7,2.76,13.52-2.24,19-6a195.21,195.21,0,0,0,19.64-15.73c3.07-2.73,6.17-5.44,9.15-8.27a24.32,24.32,0,0,0,6.13-8.24c2.71-6.74.08-14.23-4.16-19.7C502.55,1867.62,497.72,1860.64,490.78,1857.67Zm-52.1,40.08c.74-7,5.48-11.48,10.6-15.8,5.71-4.82,11.47-9.59,17.59-13.89a98.81,98.81,0,0,1,8.59-5.46c2.83-1.57,6-2.93,9.25-2.83,6.89.2,11.81,6.18,15.76,11.1l1.36,1.68c-18.4,14.74-36.79,29.54-56.29,42.82C441.72,1910.24,438.3,1904.26,438.68,1897.75Zm70.08-9.38c-.53,6.46-6.49,10.81-10.91,14.81-5.58,5-11.2,10.06-17.17,14.64-2.94,2.26-6,4.41-9.08,6.4-2.59,1.65-5.34,3.68-8.39,4.33-6.52,1.4-11.87-5.64-15.54-10.4,19.51-13.3,37.89-28.1,56.31-42.85C506.84,1879.13,509.17,1883.29,508.76,1888.37Z" transform="translate(-227.53 -1578.51)"/><path class="cls-1" d="M486.11,1870.61h0l.14.13Z" transform="translate(-227.53 -1578.51)"/><path class="cls-1" d="M483.52,1876.55a5,5,0,0,0,5.55-1.6,5,5,0,0,0,.4-5.83,5.31,5.31,0,0,0-5.39-2.22H484a4.51,4.51,0,0,0-3,1.41,4.81,4.81,0,0,0-1.29,3.09,5,5,0,0,0,.93,3A5.78,5.78,0,0,0,483.52,1876.55Zm2.52-6,.07.06.05,0c.1.06.13.12.08.09l.19.16,0,0,.18.3a.76.76,0,0,0,0,.11.83.83,0,0,0,0,.15c0,.12,0,.23,0,.35a.5.5,0,0,0,0,.12,1.09,1.09,0,0,0,0,.22l0,0-.12.26-.1.17.07-.08-.07.09h0a.4.4,0,0,1-.11.13l-.07.09c-.13.14-.51.38,0,0-.14.1-.27.2-.41.28l0,0-.34.1H485l-.45-.1h0l.06,0-.18-.08a3.11,3.11,0,0,1-.4-.22l-.22-.18-.15-.16a4.15,4.15,0,0,1-.24-.34l-.06-.11-.09-.33c0,.08,0,.09,0,0a.28.28,0,0,1,0-.09s0,0,0-.08l0,.07a2.62,2.62,0,0,1,0-.28h0l0-.16,0-.11,0-.05.09-.15s0,0,0,0a3.2,3.2,0,0,0,.25-.27l-.11.07.12-.09,0,0h0l.06,0,0,0a1.26,1.26,0,0,0,.63-.09,2.65,2.65,0,0,1,.37-.12s0,0,.07,0h0l.21,0-.12,0h0l.21,0h0c.11,0,.23,0,.34.06s.57.25.07,0l.39.19.12.06Z" transform="translate(-227.53 -1578.51)"/><path class="cls-1" d="M483.75,1870.56l-.06,0v0l.09-.06Z" transform="translate(-227.53 -1578.51)"/><path class="cls-1" d="M484.57,1873.22c-.29-.15-.14,0,0,0Z" transform="translate(-227.53 -1578.51)"/><path class="cls-1" d="M483.25,1871.71a.56.56,0,0,1,0,.12.46.46,0,0,0,0-.13Z" transform="translate(-227.53 -1578.51)"/><path class="cls-1" d="M486.43,1872.64h0l-.12.15Z" transform="translate(-227.53 -1578.51)"/><path class="cls-1" d="M484.84,1870.32l-.07,0,.17,0Z" transform="translate(-227.53 -1578.51)"/><path class="cls-1" d="M452.07,1896.07c.07-.15,0-.1,0,0Z" transform="translate(-227.53 -1578.51)"/><path class="cls-1" d="M452,1896.8v0a.76.76,0,0,0,0-.16S452,1896.75,452,1896.8Z" transform="translate(-227.53 -1578.51)"/><path class="cls-1" d="M454.3,1894.49h0Z" transform="translate(-227.53 -1578.51)"/><path class="cls-1" d="M455.16,1894.84l-.12-.09h0C455.09,1894.82,455.15,1894.85,455.16,1894.84Z" transform="translate(-227.53 -1578.51)"/><path class="cls-1" d="M450.65,1900.51a4.85,4.85,0,0,0,3,.57,6.53,6.53,0,0,0,4.95-3,4.73,4.73,0,0,0-1-5.83,5.69,5.69,0,0,0-6.69-.4,1.62,1.62,0,0,0-.67.81,5.49,5.49,0,0,0-1.22,1.68,5.21,5.21,0,0,0-.36,3.41A4.39,4.39,0,0,0,450.65,1900.51Zm1.47-3.3h0Zm0,0v0s0,0,.1.13l0,0Zm3.23-2.2,0,0C455.2,1894.88,455.29,1894.93,455.36,1895Zm-1.09-.55h0l.21,0,.17,0,.34.17,0,0,.07.06.06,0c.06,0,.07.06.06.06h0l.23.23.13.2.06.12c0,.11.06.25.11.37v.23c0,.06,0,.12-.05.18a.19.19,0,0,1,0,.08,2.14,2.14,0,0,1-.13.22.1.1,0,0,1,0,0,2,2,0,0,1-.28.3l-.05,0-.05,0a3.8,3.8,0,0,1-.62.38l-.2.08-.49.15-.23,0c.22,0-.22,0-.31,0s-.29,0-.42,0l-.22,0-.07,0-.07,0-.07,0-.13-.11a1.34,1.34,0,0,0-.18-.28h0l-.06-.24v.09s0-.07,0-.11v0c0-.07,0-.12,0-.1v-.05a1.08,1.08,0,0,1,0-.18v0l.06-.25,0-.08-.06.11c.08-.15.14-.32.22-.47a1.54,1.54,0,0,0,.14-.23h0a4.4,4.4,0,0,1,.35-.39l.19-.18,0-.05a2.73,2.73,0,0,0,.25-.23l.06,0,.4-.1.24,0h.19A.37.37,0,0,1,454.27,1894.48Z" transform="translate(-227.53 -1578.51)"/><path class="cls-1" d="M414,1830.41a2,2,0,0,0,.18.47c1.09,2.91,2.45,5.84,5.23,7.49s5.67,1.1,8.16-.65c2.78-2,5.53-4,8.2-6.16s5.63-4.15,7.11-7.12c1.36-2.73.66-5.28-1.06-7.66s-3.69-4.53-6.54-5.08c-2.68-.52-5.25.68-7.37,2.18s-4.16,2.94-6.16,4.52c-3.3,2.61-8.32,6.51-7.86,11.26A1.71,1.71,0,0,0,414,1830.41Zm4.42-4a22.8,22.8,0,0,1,3.8-3.93c1.54-1.32,3.17-2.53,4.82-3.72a30,30,0,0,1,4.51-3.09,4.64,4.64,0,0,1,5.7,1c1.17,1.16,3.11,3.23,2.89,5-.27,2.28-2.93,4.1-4.52,5.44-2.18,1.85-4.48,3.55-6.81,5.22-1.79,1.28-4.11,4-6.55,3.39-2.84-.68-4-4-4.9-6.39A4.25,4.25,0,0,1,418.41,1826.45Z" transform="translate(-227.53 -1578.51)"/></g></g></svg>