<svg xmlns="http://www.w3.org/2000/svg" xmlns:xlink="http://www.w3.org/1999/xlink" viewBox="0 0 2300.2 1217.73"><defs><style>.cls-1{fill:none;}.cls-2{clip-path:url(#clip-path);}.cls-3{fill:#1a3869;}.cls-4{clip-path:url(#clip-path-2);}.cls-5{fill:#fff;}</style><clipPath id="clip-path" transform="translate(-5.59 -513.46)"><rect class="cls-1" x="138.67" width="1920" height="1080"/></clipPath><clipPath id="clip-path-2" transform="translate(-5.59 -513.46)"><path class="cls-1" d="M22,961s47.11-193.5,260.8-290.44c218.44-99.09,436.78,8,645-14.71,441.33-48.22,756.46-187.7,1052,11.07,211.1,142,316.33,609.76,76.5,873.38C1780.12,1843.9,752.84,1776,416.34,1684.51S-57.56,1404,22,961Z"/></clipPath></defs><title>half</title><g id="图层_2" data-name="图层 2"><g id="图层_9" data-name="图层 9"><g id="_23" data-name="23"><g class="cls-2"><path class="cls-3" d="M2080.11,709.1c-22.66-25.57-47.48-47.67-74.12-65.46-297.81-198.8-617.07-59-1063-11.21C732.58,655,511.93,548.53,291.22,646.92,75.32,743.17,27.76,935.36,27.76,935.36c-80.28,440,58.58,627.75,398.62,718.72s1378.07,158.58,1657.08-142.91c170-183.68,173.83-462.86,83.45-664.89h-86.8Z" transform="translate(-5.59 -513.46)"/><path class="cls-3" d="M2080.11,846.28h86.8c-23.15-51.76-52.49-98.45-86.8-137.18Z" transform="translate(-5.59 -513.46)"/><g class="cls-4"><polygon class="cls-5" points="2249.25 0 2249.25 332.81 2074.52 332.81 2074.52 0 17.73 0 17.73 861.05 2300.2 861.05 2300.2 0 2249.25 0"/><rect class="cls-5" x="2074.52" width="174.74" height="332.81"/></g></g></g></g></g></svg>