<svg xmlns="http://www.w3.org/2000/svg" viewBox="0 0 377.61 130.62"><defs><style>.cls-1{fill:#edbc2c;}.cls-2{fill:#fff;}</style></defs><title>paper1</title><g id="图层_2" data-name="图层 2"><g id="图层_9" data-name="图层 9"><path class="cls-1" d="M292.12,41.2a27.2,27.2,0,0,1-3.54-.25l-.27-.05-.33-.09v-.2a.82.82,0,0,1,.27-.59,5.46,5.46,0,0,1,3.41-1,3.93,3.93,0,0,1,2.08.46,1,1,0,0,1,.51,1.29C294.18,41,293.46,41.2,292.12,41.2Z"/><path d="M287.41,44.47a5.64,5.64,0,0,0,1,.07,7.38,7.38,0,0,0,2.38-.4c.1,1.6.69,3.35,3.53,4a11.93,11.93,0,0,0,2.55.28,22.19,22.19,0,0,0,7.35-1.64l1.56-.52a1.3,1.3,0,0,0-.1.15c-.58.73-1.15,1.5-.41,2.38a2,2,0,0,0,1.5.55,1.52,1.52,0,0,0,.29,0,30.2,30.2,0,0,0,8.69-2.63c.53-.22,1.06-.45,1.62-.67,1-.41,2-.85,3-1.35-.54.35-1.12.69-1.76,1A8.64,8.64,0,0,0,317,46.89a5.08,5.08,0,0,1-3.67,1.66,7.13,7.13,0,0,1-.89,0l-.39,0c-.77,0-1.36.3-1.47.74s.33.88,1.34,1a11.24,11.24,0,0,0,1.41.09,9.81,9.81,0,0,0,7.26-3.14A7.46,7.46,0,0,1,322.36,46c.49-.26,1-.54,1.38-.8.82-.59,1.54-1.17,2.21-1.76a7.53,7.53,0,0,0,2.21-3.08c.1-.23-.05-.49-.35-.69a2.64,2.64,0,0,0-1.31-.32,3.55,3.55,0,0,0-.64.06A10.36,10.36,0,0,0,322.39,41a29.6,29.6,0,0,1-4.58,2.49c-.47.21-.95.44-1.44.68a41.37,41.37,0,0,1-8,3,6.84,6.84,0,0,1,.55-.87c.43-.61.88-1.25.74-1.82s-.8-.76-1.67-.76a2.54,2.54,0,0,0-.56.05A33.91,33.91,0,0,0,302,45.4l-.18.05-.34.12a15.69,15.69,0,0,1-4.66,1.12,2.92,2.92,0,0,1-1.24-.23c-1.66-.78-1.53-2.37-1.44-3.66a2.45,2.45,0,0,0,0-.27c.32-.08.61-.18.9-.27a1.49,1.49,0,0,0,1-.87c.28-.91-.78-2.07-1.52-2.59a6.49,6.49,0,0,0-3.76-.95,12.49,12.49,0,0,0-3.2.41c-1.63.43-2.67,1.13-3.07,2.07a15.79,15.79,0,0,1-5.38-2.44,2.16,2.16,0,0,1-.63-.88,2.41,2.41,0,0,0-.72-1,10.07,10.07,0,0,0-2.2-1.21c-.17-.06-.33-.14-.5-.21a2.41,2.41,0,0,0-1-.22,2,2,0,0,0-1.54.61c-.25.36-.07.72.48,1l.43.19a7,7,0,0,1,1.64.88.51.51,0,0,1,.21.49.73.73,0,0,0,.21.62,13.38,13.38,0,0,0,2,1.39l.6.36a21.08,21.08,0,0,0,6.4,2.42C284.63,42.87,285.12,44.15,287.41,44.47Zm.12-3.46a.67.67,0,0,1,.19-.46,4.73,4.73,0,0,1,2.91-.86,3.08,3.08,0,0,1,1.64.35.8.8,0,0,1,.37,1c0,.08-.38.21-1.57.21a25.93,25.93,0,0,1-3.38-.25Z"/><path class="cls-2" d="M149.42,117.71l-.39.41-.57-.34a37.69,37.69,0,0,0-4.63-2.19l-.32-.13-1.48-.62-.28-.11a49.2,49.2,0,0,0-5-1.75l-.25-.08c-1.6-.5-3.24-1-4.71-1.64l-.89-.38,1.1-.16a40.46,40.46,0,0,1,8.37-.4c3.27.18,7.59.74,9.62,2.4S150.86,116.19,149.42,117.71Z"/><path class="cls-2" d="M13.57,68.42a30.12,30.12,0,0,1,12.09-2.86h.69a47.1,47.1,0,0,1,12.08,1.64c6.62,1.78,12.29,4.62,17.78,7.38l3.41,1.69c12.13,5.94,26.73,12.72,43,17.89,2.34.75,4.75,1.5,7.1,2.22l.93.28c5.36,1.65,10.59,3.27,15.62,5a118.7,118.7,0,0,1,15.19,6.47l1.2.61-1.65-.08c-.69,0-1.42-.05-2.24-.05a52.49,52.49,0,0,0-13.17,1.57c-6.27,1.73-10.72,5.11-11.36,8.6l-.12.71-.9-.53c-13.7-8-32.88-12.65-51.42-17.13l-.06,0c-14.15-3.4-28.77-6.91-41.08-12C14.37,87.23,8,84.34,5.81,80.22S6.57,71.56,13.57,68.42Z"/><path class="cls-2" d="M121.64,114c-5,2.87-5.5,7-1.23,9.72,3.55,2.3,9.69,3.71,18.29,4.2,2.26.12,4.6.19,6.94.19a162.22,162.22,0,0,0,44.54-6.62c8-2.41,15.64-5.42,22.37-8.08l.09,0c3.37-1.33,6.86-2.67,10.21-4l1.45-.55c4.41-1.69,7.93-3,11.07-4.28,6-2.38,12.44-5,18.26-7.86,6.35-3.18,11.94-6.25,17.12-9.38S281,81,286.26,77.4L289,75.52c3.94-2.69,8-5.48,12.54-8a142.9,142.9,0,0,1,32.81-13,106.63,106.63,0,0,1,23-3.37q.58,0,1.32,0a58.41,58.41,0,0,1,12.42,1.48l1.35.3-.59-.71c-2.76-3.27-8-5.77-12.25-7.57-7.15-3-15.1-5.78-22.11-8.2-13.76-4.77-28.19-9.15-42.16-13.39l-3.07-.93-2.74-.84-6.12-1.86L278.5,18c-12.3-3.77-25.4-7.77-38.42-11.57-4-1.17-8.05-2.23-11.91-3.15a6.89,6.89,0,0,1-.75-.18l-.1,0a37.09,37.09,0,0,0-8.49-1.34,11.9,11.9,0,0,0-4.08.63,22.78,22.78,0,0,0-7.35,4.53l-.27.22a65.43,65.43,0,0,1-8,5.25c-5,2.95-10.65,5.7-16.07,8.37l-.65.32c-5.14,2.5-11,5.34-16.11,8.31a132.25,132.25,0,0,0-15.12,10.6l-2,1.58c-3.69,2.86-8.26,6.41-12.16,9.91a52.71,52.71,0,0,1-13.78,9.25c-5.89,2.69-13.69,4-20.54,4.87C98,66.13,93.1,66.59,88.75,67l-.39,0c-3,.28-6.09.57-9.12.9A110.75,110.75,0,0,0,57.7,72.3l-.14,0-.06.06-.1.08-.19.21.31.15.7.34,1,.51c10.8,5.27,20.06,9.41,29.14,13,5.34,2.14,10.18,4.05,15.36,5.72,3,1,6,1.91,9,2.81l.8.25c2.51.77,5,1.53,7.29,2.27a142,142,0,0,1,28.54,12.11l.09.06.07.05.11,0c3.37,1.15,5.05,3,4.87,5.28-.09,1.34-1.48,2.66-2.71,3.83l-.07.07-.39.38c-.21.19-.38.38-.56.56a2.52,2.52,0,0,1-3.12,0c-1.52-1.57-4.48-2.73-7.33-3.84l-.13,0-2-.77c-1.25-.52-2.62-.95-3.93-1.37l-.51-.16a39.14,39.14,0,0,1-5.83-2.17l-.3-.15-.38.1A24.49,24.49,0,0,0,121.64,114Zm48.21-12-.89,0c-6,.32-10.27,1.34-12.94,3.1a1.82,1.82,0,0,1-.9.22,1.16,1.16,0,0,1-1-.34l0-.07-1.61-2.59c-2.6-4.27-5.3-8.68-9.49-12.74l-.45-.43c-3.49-3.37-7.44-7.19-3.83-10.92,2.71-2.83,9.57-4.89,16.3-4.89h.9v-.31c0-.85,0-1.63,0-2.39l0-.1-.1-.08-1.11-.84L154,69c-.91-.69-1.83-1.39-2.69-2.1l-.18-.15C150,65.89,148.91,65,149.3,64c.14-.34.68-.46,1.12-.46a1.62,1.62,0,0,1,.85.19c.18.12.24.25.17.41-.26.75.58,1.43,1.42,2.09.32.25.57.44.75.61A12.86,12.86,0,0,0,155.14,68l1,.72.07-.88c.09-.89.18-1.8.24-2.7v-.25l-.46-.07a.87.87,0,0,1-.63-.31A16.17,16.17,0,0,0,151,61c-.19-.11-.36-.22-.55-.32l-.51-.31c-.49-.28-.95-.54-1.38-.84a3,3,0,0,1-.55-.59c-.58-.7-.79-.83-1-.9L147,58c-.47-.11-.69-.34-.58-.62a1,1,0,0,1,1-.47,2,2,0,0,1,.46.06,2.77,2.77,0,0,1,1.67,1,10.2,10.2,0,0,0,2.8,2.11,20.76,20.76,0,0,1,3.13,2.16l1.09.91V62q0-1.43-.06-2.76v-.3h-.74a1.18,1.18,0,0,1-1-.35,22.14,22.14,0,0,0-2.85-2.73l-.06-.05a22.06,22.06,0,0,1-2.77-2.68A16.36,16.36,0,0,0,148,51.89l-.06-.08c-1-1.1-2-2.24-2.19-3.39A.44.44,0,0,1,146,48a2,2,0,0,1,.86-.18c.23,0,1,0,1,.48a3.72,3.72,0,0,0,1.19,1.83l.16.17.25.27a19.11,19.11,0,0,1,1.23,1.59c.22.33.5.72.81,1.1a16.47,16.47,0,0,0,2.62,2.47.88.88,0,0,0,.13.11l.1.09.58.56.57-.64c.14-.1.29-.21.47-.36l.09-.09,0-.09a5.21,5.21,0,0,0-.1-.69c0-.18,0-.35-.07-.53a.38.38,0,0,1,.24-.43,1.82,1.82,0,0,1,.86-.19h.48l.25-.6a2.21,2.21,0,0,0,.15-.37l0-.06c.18-.39.35-.77.53-1.14a8.27,8.27,0,0,0,1-3c0-.28.39-.46.94-.46a2.12,2.12,0,0,1,.93.2.47.47,0,0,1,.28.43,11.75,11.75,0,0,1-1.86,4.84c-.08.12-.14.25-.21.38s-.11.2-.18.3a8.64,8.64,0,0,1-1,1.6l-.06.07v.07c.12.93.19,2,.23,3.23l0,1.28,1.32-1.4c.27-.3.56-.62.88-.94a10.2,10.2,0,0,0,1.8-2.9l.06-.12a11.81,11.81,0,0,1,1.13-2,1.06,1.06,0,0,1,.91-.33,1.69,1.69,0,0,1,1,.26c.21.16.25.33.11.5a22.25,22.25,0,0,0-1.47,2.44l-.1.16c-.33.63-.61,1.16-.93,1.67l-.3.49-.43.54c-.47.6-1,1.18-1.52,1.75l-.12.13c-.54.57-1.16,1.24-1.69,1.92a.93.93,0,0,1-.42.27l-.28.09,0,.34-.09,2.08-.07,1.16,1.16-1c2.53-2.17,3.94-4.4,4.18-6.61l.08-.7.36-.11a2.22,2.22,0,0,1,1.41.13c.23.12.34.27.32.45-.13,2.91-2.22,5.84-6.17,8.73a1.46,1.46,0,0,1-.78.21h-.58l0,.31c-.09,1.65-.16,3.61-.07,5.6v.22l.39.07a13.54,13.54,0,0,1,9.87,7l.24.41.66-.25a5.41,5.41,0,0,1,.79-.23l.17,0,.1-.08a1.55,1.55,0,0,1,1-.34l.26,0h.07a4.37,4.37,0,0,0,2-.15,7,7,0,0,1,1.06-.21c1.05-.08,2.65-.22,4.27-.31.59,0,1.11,0,1.63,0a39.28,39.28,0,0,1,5.79.47,19.5,19.5,0,0,1,8.14,3c4.12,2.71,5.7,6.91,4,10.72-1.57,3.55-6.32,6-14.13,7.28a80.85,80.85,0,0,1-11.65,1.06h-1.59l.43.44s0,0,0,.06c1.39,1.46,2.72,3,3.85,4.22l.9,1,1.67,1.82.46.49.55-.46a1,1,0,0,0,.19-.18l.09-.1,0,0a13.94,13.94,0,0,0,.3-1.76v-.18c0-.37.71-.46,1.1-.46a1.89,1.89,0,0,1,.81.15.36.36,0,0,1,.24.32v.16a7,7,0,0,1-.13,1.24c-.39,2.81-1.66,4.27-3.79,4.33h-.41a14.65,14.65,0,0,1-8.34-2.82c-.24-.18-.27-.38-.08-.57a1.52,1.52,0,0,1,1-.35,1.39,1.39,0,0,1,.79.23,13.15,13.15,0,0,0,5.73,2.37H177a3.29,3.29,0,0,0,.37,0l.88-.17-.68-.35A7.23,7.23,0,0,1,175.2,109l0,0c-.27-.36-.5-.66-.74-.93-.44-.47-.85-.94-1.27-1.43l-.58-.63c-1-1-1.93-2.14-2.92-3.19a.3.3,0,0,1-.09-.37ZM205.55,75l-.26-.13c-.34-.18-.66-.37-.94-.55l-.25-.17-.39.07a4.44,4.44,0,0,1-.69,0H203c-.81,0-1.14-.37-1.15-.6s.27-.46.75-.51l.36,0L203,73a1,1,0,0,1,1-.41,1.66,1.66,0,0,1,1.09.36,7.16,7.16,0,0,0,1.22,1l.37.25.45-.21a8.42,8.42,0,0,1,1.57-.49l.44-.09-.07-.25a2.74,2.74,0,0,1-.11-1.3c.06-.26.58-.5,1.09-.5a1.2,1.2,0,0,1,.36,0,39.75,39.75,0,0,1,7,2.93c1.23.61,2.48,1.24,3.81,1.8.32.13.83.3,1.43.5l.23.08c2.46.85,6.19,2.12,5.15,3.27-1.58,1.75.33,3.7,1.89,5A13.39,13.39,0,0,0,233.18,87a3.79,3.79,0,0,0,1.58.38,1.29,1.29,0,0,0,1.27-.62c.17-.53-.43-1.23-1.94-1.53-.51-.09-.74-.31-.65-.57s.47-.51,1.07-.51a2.73,2.73,0,0,1,.44,0c1.84.36,3.4,1.47,3.51,2.53.08.75-.59,1.32-1.91,1.67a6.62,6.62,0,0,1-1.6.2c-2.53,0-4.75-1.44-6.42-2.69-2.76-2.13-3.71-4.09-2.86-6,.31-.69-.79-1.07-1.76-1.4l-.12,0-.64-.23-.15-.06c-1.57-.63-3.19-1.28-4.72-2-.67-.28-1.27-.58-1.95-.92l-.76-.37-.22.53a1,1,0,0,1-.18.3,2,2,0,0,1-1.21.65l-.58.13.36.37.23.28c.23.27.45.54.65.8,1.53,1.94,1.43,3.25-.29,3.9a3.78,3.78,0,0,1-1.34.24,10.25,10.25,0,0,1-4.55-1.55l-.08,0c-2-1.11-4.15-3.58-2.93-5.35ZM248.5,68.9l.19.58A4.55,4.55,0,0,0,249,70a3.35,3.35,0,0,1,.33.82c0,.16-.07.33-.29.46a1.56,1.56,0,0,1-.94.17,3.62,3.62,0,0,1-2.54-1.22,3.26,3.26,0,0,1-.43-.76l0-.06c-.62-1.23-1-1.65-1.57-1.73a3.94,3.94,0,0,0-.68,0c-.34,0-.64,0-.91,0h-1a24.7,24.7,0,0,1-3.78-.42,22.38,22.38,0,0,1-4.58-1.54l-.55-.24-.34.34c-.24.23-.75.56-2.34.61h-.1c-.78,0-1.08-.36-1.09-.58s.35-.52.93-.55a1.43,1.43,0,0,0,.76-.17c.17-.12.17-.29.12-.55l0-.05a.45.45,0,0,1,0-.16.57.57,0,0,1,.36-.48,1.83,1.83,0,0,1,1.36,0l.07,0c.25.11.51.21.75.33l.25.11a33.24,33.24,0,0,0,5.29,1.89,13.38,13.38,0,0,0,3.19.29h1a19,19,0,0,1,2.06.1,2.58,2.58,0,0,1,2,1.16l.25.36L247,68a2.83,2.83,0,0,1,.47-.1h.11l.53,0a11.41,11.41,0,0,1,3.55.77l.06,0,.29.1.15,0c.79.26,1.61.5,2.4.74l1,.28a19.56,19.56,0,0,0,3.32.57l.71.08c.26,0,.54,0,.81.09a2.2,2.2,0,0,1,2.07,2c0,.18.09.34.15.5a2.85,2.85,0,0,0,1,1.15l.42.33.51-.29a5.88,5.88,0,0,1,2.71-.86,1.58,1.58,0,0,1,1.46.74,1.55,1.55,0,0,1-.48,2.08,3.78,3.78,0,0,1-3.08.25,8.47,8.47,0,0,1-3.79-2.07,3.59,3.59,0,0,1-.59-1.09c-.46-1.1-.71-1.49-1.06-1.64l-.12,0h-.15a5.69,5.69,0,0,0-.77,0h-.39a5.23,5.23,0,0,1-.9-.06c-1.47-.3-2.82-.7-4.13-1.08-.32-.09-.74-.25-1.25-.44a23.22,23.22,0,0,0-2.45-.79Zm33.8-7.61-.08.07a4.35,4.35,0,0,0-1,.87,4.32,4.32,0,0,1-.81.78,2.4,2.4,0,0,1-1.51.51,5.37,5.37,0,0,1-3.57-1.92,2.22,2.22,0,0,1-.19-.27l-.14-.2L274.9,61l-.3-.4-.63.28a9.43,9.43,0,0,1-1.86.51H272a3.61,3.61,0,0,1-.85.08,8,8,0,0,1-3.49-1.06,9.47,9.47,0,0,1-4.55-4.21l-.27-.5-.72.36a7,7,0,0,1-2.16.68,1.87,1.87,0,0,1-.37,0c-.65,0-1-.31-1.1-.54s.17-.46.65-.55a3.29,3.29,0,0,0,2.91-2,1.25,1.25,0,0,1,1.11-.48c.53,0,.93.19,1,.48s.18.51.28.78a6.55,6.55,0,0,0,3,4.23l.6.36a6.17,6.17,0,0,0,3.22,1.26,2.74,2.74,0,0,0,.56-.06,8.52,8.52,0,0,0,1.27-.35l.14,0a8.06,8.06,0,0,1,1.69-.4h.15a1.71,1.71,0,0,1,.83.23,4.46,4.46,0,0,1,1.19,1.25l0,0c.22.29.44.6.67.87a1.88,1.88,0,0,0,.32.29l.48.31.45-.33a2.9,2.9,0,0,0,.49-.5l.1-.13a6.92,6.92,0,0,1,4.93-2.2l.57,0c2.17.2,3.36,1.06,3.5,2.53s-1.17,2.8-4,4a1.53,1.53,0,0,1-.62.13,1.34,1.34,0,0,1-1-.42c-.15-.23,0-.46.35-.62C286,63.71,287,62.38,286.25,61a1.39,1.39,0,0,0-1.3-.73A5.21,5.21,0,0,0,282.3,61.29Zm25.64-16.18-1.4.46-1.21.41-.37.12c-2.9,1-5.92,2.06-9.36,1.33a3.57,3.57,0,0,1-3.15-3.69l0-.55-.88.31a6.58,6.58,0,0,1-2.08.35,5.53,5.53,0,0,1-.84-.06,2.65,2.65,0,0,1-2.51-1.93l-.06-.18-.3-.06a20.31,20.31,0,0,1-6.19-2.34l-.6-.36-.1-.06A11,11,0,0,1,277,37.58a.52.52,0,0,1-.14-.44.7.7,0,0,0-.3-.68,7.63,7.63,0,0,0-1.76-1c-.15,0-.28-.12-.42-.18-.37-.17-.48-.4-.31-.64a1.41,1.41,0,0,1,1.61-.26l.53.23.09,0a9.19,9.19,0,0,1,2,1.08,2.27,2.27,0,0,1,.63.92,2.36,2.36,0,0,0,.7,1,16.24,16.24,0,0,0,5.6,2.54l.69.19.17-.39a3.74,3.74,0,0,1,2.74-1.86,11.68,11.68,0,0,1,2.94-.38,5.79,5.79,0,0,1,3.3.83c.72.51,1.65,1.58,1.41,2.35a1.13,1.13,0,0,1-.76.67q-.39.14-.81.24l-.33.09v.19a1.41,1.41,0,0,1,0,.21v0c-.1,1.35-.23,3,1.64,3.91a3.82,3.82,0,0,0,1.61.3,16.37,16.37,0,0,0,5-1.15l.54-.19a33,33,0,0,1,5.34-1.52,1.48,1.48,0,0,1,.38,0c.57,0,1,.21,1.09.5.11.5-.33,1.12-.72,1.66a7,7,0,0,0-.57.91l-.29.61,1.09-.25a40,40,0,0,0,8-3l.27-.12,1.32-.62a32,32,0,0,0,4.66-2.53,9.53,9.53,0,0,1,3.27-1.5,1.92,1.92,0,0,1,.38,0,1.63,1.63,0,0,1,.85.22c.2.12.28.28.23.42a7.36,7.36,0,0,1-2.13,3c-.7.6-1.41,1.17-2.2,1.73a14.28,14.28,0,0,1-1.31.76,8.77,8.77,0,0,0-1.87,1.22,9.1,9.1,0,0,1-6.72,3,10.13,10.13,0,0,1-1.29-.09c-.73-.09-.93-.45-.87-.67s.54-.51,1.16-.45a7.35,7.35,0,0,0,1,.07,5.68,5.68,0,0,0,4.16-1.81,9,9,0,0,1,1.57-1.18c.72-.39,1.29-.72,1.8-1.05l-.85-.42c-1,.5-2,.93-3,1.33l-.66.28-1,.39A29.78,29.78,0,0,1,308,48.6h-.16a1.27,1.27,0,0,1-.95-.37c-.65-.77-.1-1.46.41-2.14l.05-.08.07-.09ZM259.08,30.55c0-.36.51-.64,1.12-.64a1.47,1.47,0,0,1,.81.22c.53.35,1,.73,1.53,1.09l.27.2c.5.37,1,.76,1.57,1.12a5.54,5.54,0,0,0,3.1.91,9,9,0,0,0,2.41-.37,2,2,0,0,1,.48-.06,1,1,0,0,1,.89.43c.15.29-.08.56-.57.69a12.22,12.22,0,0,1-3.11.43,10.59,10.59,0,0,1-6.36-2.41l-.42-.29-.47.25a1.5,1.5,0,0,1-.72.16,1.53,1.53,0,0,1-1.06-.35c-.18-.18-.12-.37.14-.54S259.18,30.86,259.08,30.55ZM249.41,49l-.27-.55a1.11,1.11,0,0,0-.14-.25.33.33,0,0,1,.09-.49,1.65,1.65,0,0,1,1-.26,1.16,1.16,0,0,1,.94.33c.48.65.81,1.32,0,1.88a3.14,3.14,0,0,1-1.74.38,7.79,7.79,0,0,1-1.4-.12,7.26,7.26,0,0,1-5.22-3.11l-.17-.26-.52.07a6.39,6.39,0,0,1-.78.05h-.07c-.79,0-1.09-.35-1.1-.59s.33-.51.89-.53H241a2,2,0,0,0,.31,0l.49-.07-.08-.27c0-.13,0-.24.16-.34a1.86,1.86,0,0,1,1-.23,1.15,1.15,0,0,1,1,.34,1.78,1.78,0,0,1,.12.24,5.66,5.66,0,0,0,3,3.19,6.52,6.52,0,0,0,1.43.42ZM222.34,21.23a14.44,14.44,0,0,0,3.63-.62l.3-.08c.15,0,.31-.09.47-.12a5.54,5.54,0,0,1,1.27-.19,3.42,3.42,0,0,1,1.28.25,17.61,17.61,0,0,1,1.64.74,6.89,6.89,0,0,0,3.24.55H235c.46,0,1.18.13,1.22.49.1,1,2.71,4.19,5.47,4.19a3.17,3.17,0,0,0,1.52-.38,1.77,1.77,0,0,1,.82-.18,1.61,1.61,0,0,1,1.15.37c.18.23-.06.4-.22.49a6.73,6.73,0,0,1-3.17.78,9,9,0,0,1-7.51-4.39l-.1-.24h-.46a8.59,8.59,0,0,1-4-.76l-.13-.07-.2-.09a3.11,3.11,0,0,0-1.54-.45,3.93,3.93,0,0,0-1,.13l-.22.05-.23.06a17.2,17.2,0,0,1-2.59.51c-3.47.31-6.4-.59-8.16-2.46l-.09-.09-.15,0c-.27-.08-.43-.22-.43-.41V19c0-.38.65-.64,1.22-.64a1,1,0,0,1,.86.35,5.6,5.6,0,0,0,3.93,2.41A6.41,6.41,0,0,0,222.34,21.23Zm-6,34a1.67,1.67,0,0,1,1-.28,1,1,0,0,1,.87.36l1.8,2.82a.36.36,0,0,1-.13.5,1.79,1.79,0,0,1-1,.27,1,1,0,0,1-.88-.34l-1.79-2.83A.35.35,0,0,1,216.32,55.27ZM200.68,33.4a1.47,1.47,0,0,1,1-.35,1.31,1.31,0,0,1,.38,0,7.06,7.06,0,0,1,1.59.6l.11,0,.12,0a15.2,15.2,0,0,0,3.13.06h.26c.39,0,.8,0,1.17,0a3.32,3.32,0,0,1,2.35.64,12.82,12.82,0,0,0,3,1.66l.07,0c.44.19,1,.44,1.4.65A15.26,15.26,0,0,0,223,38.69a1.59,1.59,0,0,1,.81.18.6.6,0,0,1,.39.48c0,.29-.35.47-.9.47a17.84,17.84,0,0,1-5.79-.66,35.25,35.25,0,0,1-5.24-2.41l-.57-.31-1-.51a9,9,0,0,1-1.58-.86l-.2-.15-.37,0-.91.06-.2,0c-.36,0-.71.08-1,.09l-.73,0,.2.37a1,1,0,0,1-.31,1.4,1.63,1.63,0,0,1-.85.21h-.18a4.7,4.7,0,0,1-1.73-.53c-.34-.17-.46-.38-.32-.61a.92.92,0,0,1,.54-.38l.43-.14-.21-.25a2.22,2.22,0,0,0-.51-.43l-.07-.06-.11,0a7.13,7.13,0,0,1-1.77-.73A.35.35,0,0,1,200.68,33.4ZM198.31,49a8,8,0,0,0-.94.06l-.21,0-.13.09a5.32,5.32,0,0,1-3.81.48,9.72,9.72,0,0,1-3.79-1.83l-.28-.23-.48.13a6.33,6.33,0,0,1-3.75-.17,6.55,6.55,0,0,1-1.56-.82l-.21-.15-.34,0h-.49a12.27,12.27,0,0,1-6.56-2.47l-.3-.19-.39-.24,0,0a5.77,5.77,0,0,1-1.77-1.38c-.39-.54-1.53-.58-2.57-.58h-.3l-.19.12a1.31,1.31,0,0,1-1.37.07l-.56-.31c-.41-.2-.52-.44-.35-.67a1.3,1.3,0,0,1,1-.34l.4,0a8.67,8.67,0,0,0,1.65,0l.5,0,.77,0a4.43,4.43,0,0,1,1.49.2,3.59,3.59,0,0,1,1.53,1,4.22,4.22,0,0,0,1.06.87c.47.27.93.55,1.34.82a19.09,19.09,0,0,0,2.47,1.39l2,.91L181,44.55c-.79-.88-1.41-2.14.1-3.13a1.86,1.86,0,0,1,1.52-.11,5.77,5.77,0,0,1,2.34,2.1c.23.35.91,1.53.27,2.38l-.13.17.33.22.35.21a2.51,2.51,0,0,0,1.32.4,1.36,1.36,0,0,0,.84-.25l.16-.12-.09-.15a7.84,7.84,0,0,1-.49-.83.44.44,0,0,1,.22-.57,1.62,1.62,0,0,1,.84-.24,1.49,1.49,0,0,1,.81.25c.61.41.94.88.9,1.35v.06l.06.06a4.79,4.79,0,0,0,4.69,2.14l.21,0,.13-.1a1.23,1.23,0,0,1,.5-.22,7.28,7.28,0,0,1,2-.28,8.94,8.94,0,0,1,.93,0,8.12,8.12,0,0,1,7.48,5.7c.07.17,0,.3-.17.41a1.62,1.62,0,0,1-.85.2c-.44,0-1-.12-1.13-.48S202.4,49,198.31,49Zm-7.46,19a23,23,0,0,1,3.73,1.25c.35.16.47.41.3.64a1.42,1.42,0,0,1-1.6.26A20.29,20.29,0,0,0,189.85,69c-.77-.2-1.38-.37-1.94-.55-.88-.28-1.72-.6-2.55-.91l-1-.37v.59a.29.29,0,0,1-.06.19,1.63,1.63,0,0,1-1.15.38,1.85,1.85,0,0,1-.83-.19c-1.59-.85-3-1.71-2.58-2.92a1.22,1.22,0,0,1,1.09-.5,1.17,1.17,0,0,1,.38,0A66.12,66.12,0,0,1,187.82,67c.92.35,1.94.63,2.92.9Z"/><path class="cls-2" d="M155.58,103.67l-.26-.45-.59-1-.5-.82a60.53,60.53,0,0,0-6.65-9.58c-.74-.84-1.64-1.67-2.59-2.55l-.23-.2c-2.55-2.35-5.19-4.78-5.36-7.36-.11-1.85,1.55-3.65,4.68-5.08a26.61,26.61,0,0,1,10-2.17h.37c.4,0,.73,0,1,0l.49,0,0,.26A27.27,27.27,0,0,0,159.53,84c.86,1.56,1.83,3.19,3,5,.21.32.44.61.69.92a3.28,3.28,0,0,1,1,2.07c0,.29.35.48.89.48s1.24-.23,1.24-.63A4.51,4.51,0,0,0,165,89a27,27,0,0,1-3.13-4.78l0-.09a29.29,29.29,0,0,1-3.56-8.77l-.08-.58,1,.28c4.53,1.35,6.65,4.62,8.12,7.65.1.21.42.34.86.34a1.71,1.71,0,0,0,1.13-.35l.16-.17a2.55,2.55,0,0,1,2-1,1.35,1.35,0,0,0,.63-.16l.16-.09h.23a13.6,13.6,0,0,0,1.74-.2l.19,0c.5-.08,1-.16,1.7-.21,1.35-.11,3.14-.24,4.89-.24a27.43,27.43,0,0,1,4.22.29c3.73.56,6.61,1.67,8.53,3.3,4,3.37,4.64,7.94,1.58,11.11-4.32,4.46-12.62,4.89-21.4,5.35-6.35.32-12.9.66-17.6,2.76Z"/><path class="cls-1" d="M208.29,76c.57.14,1.18.27,1.94.39.23,0,.51.09.76.11l.33,0,.12.16a9,9,0,0,1,.5.87,4.27,4.27,0,0,0,.68.94,3.88,3.88,0,0,1,.76,1.21c.14.45.08.74-.16.9a.91.91,0,0,1-.55.14,6.6,6.6,0,0,1-2.56-.86c-1.78-1-2.73-2.28-2.67-3.63l0-.49Z"/><path d="M8.76,67.83C3.1,70.7-.17,74.42,0,77.78c.42,8.13,14.51,13.69,28.25,18,9.64,3.06,20,5.61,30,8.08,5.7,1.39,11.59,2.85,17.29,4.38l1.28.35c7.87,2.12,16,4.29,22.81,7.22a69,69,0,0,1,16.3,9.45,2.53,2.53,0,0,0,1,.44c.26.14.49.27.74.38,5.89,3,14.52,4.49,25.65,4.49a159.85,159.85,0,0,0,16-.88,177.34,177.34,0,0,0,24.14-4A197.66,197.66,0,0,0,206,118.53c4.2-1.6,8.44-3.25,12.55-4.85l9.93-3.85c1.71-.66,3.47-1.32,5.18-2,5.91-2.21,12-4.51,17.29-7.1a305.1,305.1,0,0,0,36.69-21.25c1-.68,2-1.36,3-2a143.27,143.27,0,0,1,14.38-9,135,135,0,0,1,19.22-8.4,117.88,117.88,0,0,1,24.71-5.81,72.25,72.25,0,0,1,8.77-.6,42.17,42.17,0,0,1,5.88.39A78.19,78.19,0,0,1,372,55.75s0,0,0,0c.22.69,1.29,1,2.27,1a4.11,4.11,0,0,0,1.47-.25,2,2,0,0,0,1.81-.93c.25-.58-.22-1.12-1.21-1.37l-.32-.09a8.73,8.73,0,0,0-.93-1.69c-2.44-3.26-7.17-6.24-14.89-9.37-6.37-2.58-13.45-5.18-22.29-8.21-13.71-4.68-28.09-9.06-42-13.29l-6-1.84-10-3.06c-12.51-3.83-25.44-7.79-38.28-11.54-3.73-1.08-8.16-2.33-12.91-3.43l-.18,0A50.7,50.7,0,0,0,217.82,0h-.47c-6.42,0-10.15,2.91-13.43,5.48-.73.55-1.39,1.09-2.1,1.57-6.68,4.72-15,8.81-23,12.74-3.72,1.82-7.57,3.72-11.21,5.65-10.11,5.35-18.11,11.66-25.85,17.76-2,1.58-4.08,3.22-6.16,4.82-1.5,1.15-2.86,2.34-4.19,3.51a45.42,45.42,0,0,1-9.18,6.7c-5.35,2.81-12.68,4.68-23,5.87-3.5.39-7.09.72-10.57,1-4.59.42-9.36.86-14,1.47a115,115,0,0,0-21.26,4.71c-6.51-3.15-14.25-6.53-23.78-7.27-1.23-.09-2.46-.14-3.65-.14A37.94,37.94,0,0,0,8.76,67.83ZM121,114.61a24.24,24.24,0,0,1,5.45-2.21,40,40,0,0,0,5.93,2.21c1.47.47,3,.94,4.39,1.51l2,.77c2.86,1.12,5.82,2.26,7.3,3.79a3,3,0,0,0,2.11.71,2.93,2.93,0,0,0,2.06-.7c.27-.3.63-.6.94-.93,1.29-1.23,2.75-2.6,2.85-4,.19-2.42-1.57-4.33-5.13-5.55a.74.74,0,0,0-.16-.1A142.76,142.76,0,0,0,120,97.91c-2.41-.77-4.89-1.54-7.3-2.28-3.2-1-6.51-2-9.73-3-5.18-1.68-10-3.58-15.3-5.71-9.06-3.62-18.31-7.76-29.11-13L56.88,73a.24.24,0,0,0,.08-.06,110.86,110.86,0,0,1,21.36-4.33c3.14-.35,6.36-.65,9.48-.94,4.61-.42,9.37-.85,14-1.46,6.92-.91,14.79-2.2,20.79-4.93A53.41,53.41,0,0,0,136.46,52c3.78-3.38,8-6.69,12.15-9.89.67-.52,1.36-1.05,2-1.58a128.76,128.76,0,0,1,15.09-10.57c5.05-2.91,10.64-5.65,16.06-8.3,5.64-2.76,11.51-5.62,16.75-8.69a66.51,66.51,0,0,0,8.05-5.3l.27-.22A22.57,22.57,0,0,1,214,3a10.92,10.92,0,0,1,3.74-.58A36.52,36.52,0,0,1,226,3.7l.84.2c3.94.94,7.93,2,11.87,3.14,12.89,3.76,25.87,7.72,38.41,11.56,3.67,1.12,7.35,2.25,11,3.36,1.93.59,3.87,1.19,5.81,1.77,14,4.25,28.43,8.64,42.13,13.37,7,2.43,15,5.19,22.06,8.19,4.25,1.8,9.37,4.25,12.08,7.46a59.12,59.12,0,0,0-12.62-1.5c-.46,0-.92,0-1.37,0a106.71,106.71,0,0,0-23.22,3.4,143.57,143.57,0,0,0-33,13c-4.56,2.51-8.64,5.31-12.58,8l-2.76,1.88c-5.38,3.64-10.44,6.89-15.48,10s-10.7,6.15-17.1,9.36c-5.68,2.84-11.85,5.33-18.2,7.83-3.68,1.45-7.42,2.9-11.06,4.28-3.85,1.48-7.81,3-11.68,4.52-6.75,2.66-14.37,5.68-22.38,8.08a161.07,161.07,0,0,1-44.25,6.59c-2.35,0-4.67-.07-6.9-.19-8.41-.48-14.44-1.86-17.88-4.09C115.73,121.29,116.24,117.37,121,114.61Zm27.4-1.33c1.93,1.57.81,3.22-.56,4.68a41.27,41.27,0,0,0-5-2.36c-.58-.23-1.16-.48-1.74-.73a51.61,51.61,0,0,0-5.14-1.78c-1.66-.52-3.37-1-4.88-1.69a42.52,42.52,0,0,1,6.06-.46c.7,0,1.41,0,2.09.07C142.36,111.18,146.5,111.73,148.42,113.28ZM12.9,69a28.93,28.93,0,0,1,11.72-2.78h.69a46.27,46.27,0,0,1,11.82,1.6c6.54,1.76,12.17,4.59,17.62,7.32,1.12.57,2.29,1.15,3.43,1.7,12.18,6,26.83,12.76,43.1,17.93,2.65.85,5.39,1.69,8,2.51,5.18,1.59,10.52,3.24,15.59,5A118.4,118.4,0,0,1,140,108.76c-.75,0-1.51-.05-2.28-.05a54.06,54.06,0,0,0-13.45,1.59c-6.45,1.79-11,5.29-11.68,8.86-13.79-8.08-33-12.73-51.67-17.22-14.17-3.41-28.83-7-41-12C13.76,87.4,7.5,84.56,5.33,80.52S6.07,72.1,12.9,69Z"/><path d="M269.91,34.8a13,13,0,0,1-3.38.47,11.35,11.35,0,0,1-6.84-2.54,2.45,2.45,0,0,1-1.13.25,2.23,2.23,0,0,1-1.58-.53c-.28-.29-.19-.61.21-.87a.52.52,0,0,0,.27-.59.11.11,0,0,1,0,0c0-.53.77-1,1.7-1a2.39,2.39,0,0,1,1.26.34c.61.4,1.17.82,1.71,1.22s1.09.81,1.67,1.19a4.72,4.72,0,0,0,2.64.79,8.16,8.16,0,0,0,2.14-.33,3.18,3.18,0,0,1,.74-.09,1.62,1.62,0,0,1,1.48.66C271,34.2,270.64,34.61,269.91,34.8Z"/><path d="M240.7,28.22c-3.81,0-7.19-2.64-8.09-4.64a9.28,9.28,0,0,1-4.41-.84l-.32-.15a2.44,2.44,0,0,0-1.17-.38,3.07,3.07,0,0,0-.71.1l-.49.12a16.77,16.77,0,0,1-2.7.53c-.49,0-1,.06-1.43.06A9.89,9.89,0,0,1,214,20.33c-.45-.13-.72-.38-.72-.68v-.32c0-.56.92-.95,1.78-.95a1.72,1.72,0,0,1,1.43.56,5,5,0,0,0,3.61,2.23,4.91,4.91,0,0,0,1.18.13,14,14,0,0,0,3.42-.59l.74-.2a6.23,6.23,0,0,1,1.51-.22,4.44,4.44,0,0,1,1.62.32,14.26,14.26,0,0,1,1.7.77,6.05,6.05,0,0,0,2.83.46h.78c.86,0,1.76.27,1.8.77.11,1,2.7,3.9,4.9,3.9a2.25,2.25,0,0,0,1.11-.29,2.79,2.79,0,0,1,1.23-.27,2.29,2.29,0,0,1,1.68.57c.23.28.11.59-.35.82A7.49,7.49,0,0,1,240.7,28.22Z"/><path d="M261.5,56.64a8.7,8.7,0,0,1-2.4.75,3.51,3.51,0,0,1-.55,0,1.73,1.73,0,0,1-1.69-.8c-.13-.4.3-.75,1.06-.89a2.87,2.87,0,0,0,2.53-1.83,1.84,1.84,0,0,1,1.67-.71c.81,0,1.45.29,1.62.73.1.25.17.5.27.78a6.39,6.39,0,0,0,2.82,4.07l.64.38a5.73,5.73,0,0,0,2.76,1.14,2.46,2.46,0,0,0,.4,0,7.46,7.46,0,0,0,1.18-.34,9.84,9.84,0,0,1,2-.47H274a2.42,2.42,0,0,1,1.3.35,5.16,5.16,0,0,1,1.29,1.32l0,.05c.24.33.45.6.66.84a2.37,2.37,0,0,0,.23.23,2.54,2.54,0,0,0,.43-.44,1,1,0,0,1,.12-.15,7.51,7.51,0,0,1,5.46-2.38c.22,0,.43,0,.64,0,2.46.23,3.85,1.2,4,2.82s-1.21,3-4.22,4.24a2.5,2.5,0,0,1-1,.19,2,2,0,0,1-1.58-.62c-.23-.37,0-.72.55-1,2.5-1,3.41-2.23,2.69-3.51a.86.86,0,0,0-.74-.52,4.78,4.78,0,0,0-2.2,1l-.07,0a4.62,4.62,0,0,0-.92.84,5,5,0,0,1-.84.8,3.18,3.18,0,0,1-2,.64,5.91,5.91,0,0,1-4.12-2.11,2.53,2.53,0,0,1-.25-.35c-.08-.09-.15-.2-.22-.29a10.68,10.68,0,0,1-2.07.57h-.05a5.43,5.43,0,0,1-1.08.09A8.54,8.54,0,0,1,266.2,61,9.79,9.79,0,0,1,261.5,56.64Z"/><path d="M248.23,50.78a9.78,9.78,0,0,1-1.58-.14,7.84,7.84,0,0,1-5.6-3.3,8.09,8.09,0,0,1-.86.07h-.12c-1.06,0-1.67-.45-1.69-.9s.56-.81,1.45-.84h.29a.54.54,0,0,1,.28-.58,2.8,2.8,0,0,1,1.43-.34,1.81,1.81,0,0,1,1.53.55,1,1,0,0,1,.14.28,5.37,5.37,0,0,0,2.79,3,6.22,6.22,0,0,0,1.24.37,1,1,0,0,0-.12-.21.51.51,0,0,1,.15-.78,2.46,2.46,0,0,1,1.48-.4,1.84,1.84,0,0,1,1.47.54c.51.68.91,1.49-.07,2.17A3.94,3.94,0,0,1,248.23,50.78Z"/><path d="M222,38.77c1.1,0,1.76.49,1.75,1s-.59.77-1.46.77a18.36,18.36,0,0,1-6.12-.71,34.71,34.71,0,0,1-5.33-2.45l-1.54-.81a10.31,10.31,0,0,1-1.67-.91l-.86.06c-.44,0-.87.1-1.33.11a1.17,1.17,0,0,1-.4,1.67,2.49,2.49,0,0,1-1.32.34h-.24a5.46,5.46,0,0,1-2.08-.62c-.49-.24-.68-.58-.49-.92a1.44,1.44,0,0,1,.8-.56,2,2,0,0,0-.43-.37,7.78,7.78,0,0,1-1.93-.8c-.4-.24-.48-.58-.21-.88a2.1,2.1,0,0,1,1.53-.54,2.88,2.88,0,0,1,.65.07,8.39,8.39,0,0,1,1.72.66,8.57,8.57,0,0,0,1.35.1c.5,0,1,0,1.51-.06s1,0,1.52,0a4.12,4.12,0,0,1,2.86.8,13.3,13.3,0,0,0,2.94,1.6c.55.24,1,.47,1.42.66A14.61,14.61,0,0,0,222,38.77Z"/><path d="M231.08,66.38a4.28,4.28,0,0,1-2.83.78h-.14c-1,0-1.63-.46-1.67-.89s.57-.82,1.47-.87a.82.82,0,0,0,.34,0c.06,0,0-.21,0-.32a2.42,2.42,0,0,1,0-.25c0-.25.17-.51.51-.7a2.67,2.67,0,0,1,1.18-.26,2.45,2.45,0,0,1,1,.19l.84.37a34.62,34.62,0,0,0,5.39,1.95,12.41,12.41,0,0,0,2.94.26h1a18.29,18.29,0,0,1,2.19.1,3.08,3.08,0,0,1,2.43,1.36,3.39,3.39,0,0,1,.64-.14c.26,0,.52-.05.78-.05a12.18,12.18,0,0,1,3.91.84l.45.16c.92.3,1.89.58,2.82.85l.53.16a18.23,18.23,0,0,0,3.14.53c.5.06,1,.1,1.55.18A2.56,2.56,0,0,1,262,72.86a3.37,3.37,0,0,0,.15.48,2.43,2.43,0,0,0,.87,1,6.86,6.86,0,0,1,3.15-1,2.21,2.21,0,0,1,2,1,1.74,1.74,0,0,1-.56,2.36,3.62,3.62,0,0,1-2.1.57,6.68,6.68,0,0,1-1.72-.23,9.24,9.24,0,0,1-4-2.19,3.83,3.83,0,0,1-.66-1.21c-.2-.46-.56-1.31-.86-1.44s-.44,0-.65,0h-.39a4.75,4.75,0,0,1-1.12-.09c-1.48-.29-2.83-.68-4.19-1.08-.38-.12-.83-.28-1.31-.46a21.54,21.54,0,0,0-2.36-.76c.06.17.16.35.24.53a3.74,3.74,0,0,1,.36.86c0,.26-.11.5-.44.7a2.34,2.34,0,0,1-1.18.29l-.28,0a4.24,4.24,0,0,1-3-1.39,3.53,3.53,0,0,1-.48-.82c-.19-.41-.75-1.52-1.19-1.57a2.75,2.75,0,0,0-.52,0c-.27,0-.55,0-.82,0l-.88,0h-.24a24.73,24.73,0,0,1-4-.44A22.73,22.73,0,0,1,231.08,66.38Z"/><path d="M216.27,55.07a1.63,1.63,0,0,1,1.43.57l1.8,2.81a.56.56,0,0,1-.22.79,2.54,2.54,0,0,1-1.45.4,1.67,1.67,0,0,1-1.45-.56l-1.79-2.83c-.18-.27-.1-.56.23-.78A2.4,2.4,0,0,1,216.27,55.07Z"/><path d="M196.47,49.74a6.36,6.36,0,0,1-4.56.57,10.49,10.49,0,0,1-4-1.93,7,7,0,0,1-1.81.24,8,8,0,0,1-2.55-.43,7.06,7.06,0,0,1-1.69-.89h-.57a13,13,0,0,1-7-2.59c-.23-.14-.47-.28-.7-.44a6.17,6.17,0,0,1-1.92-1.5c-.2-.28-.75-.38-2-.38h0a2.14,2.14,0,0,1-1.21.36,2.42,2.42,0,0,1-1-.25l-.3-.16-.29-.17c-.54-.27-.71-.65-.45-1a2,2,0,0,1,1.54-.53,3.48,3.48,0,0,1,.55,0,5.32,5.32,0,0,0,.75,0c.32,0,.62,0,1,0s.71,0,1.06,0a5.55,5.55,0,0,1,1.81.26,3.75,3.75,0,0,1,1.73,1.16,4.31,4.31,0,0,0,1,.79c.48.27.93.56,1.37.84a17.2,17.2,0,0,0,2.4,1.35c-.73-.81-1.61-2.28.17-3.46a2.55,2.55,0,0,1,1.35-.34,2.36,2.36,0,0,1,1,.19,6,6,0,0,1,2.55,2.24,2.3,2.3,0,0,1,.25,2.59l.45.29a1.73,1.73,0,0,0,.87.29.56.56,0,0,0,.36-.11,6.2,6.2,0,0,1-.5-.86.65.65,0,0,1,.31-.83,2.51,2.51,0,0,1,1.31-.36,2.31,2.31,0,0,1,1.27.36,1.87,1.87,0,0,1,1,1.55,4.38,4.38,0,0,0,3.41,2,3.56,3.56,0,0,0,.57,0,1.91,1.91,0,0,1,.77-.34,8.48,8.48,0,0,1,2.24-.31,9.87,9.87,0,0,1,1,.06c4,.38,6.7,2.37,8,5.95.09.26,0,.48-.31.66a2.41,2.41,0,0,1-1.29.32c-.72,0-1.53-.23-1.7-.74-.59-1.67-2.38-4.5-5.32-4.5A5.43,5.43,0,0,0,196.47,49.74Z"/><path d="M200.19,74.09c0,.44.63.91,1.72.91H202a6.78,6.78,0,0,0,.84-.07,9.47,9.47,0,0,0,1,.57c-1.29,1.89.91,4.48,3.08,5.66l.07,0a10.71,10.71,0,0,0,5,1.65,4.6,4.6,0,0,0,1.68-.29c2-.75,2.15-2.19.5-4.28l-.9-1.1-.07-.08a2.6,2.6,0,0,0,1.53-.81,1.13,1.13,0,0,0,.2-.35c.64.32,1.29.64,2,.94,1.59.7,3.27,1.37,4.9,2,.24.1.51.19.78.28,1.07.37,1.72.62,1.51,1.07-.88,2,.09,4,3,6.22,1.73,1.31,4.07,2.82,6.89,2.82a7.7,7.7,0,0,0,1.86-.23c1.54-.4,2.33-1.09,2.23-2-.12-1.18-1.83-2.41-3.92-2.82a4.15,4.15,0,0,0-.59,0h0c-.92,0-1.53.39-1.66.77s.26.77,1,.91c1.22.24,1.71.78,1.58,1.19,0,.11-.19.37-.69.37a3.07,3.07,0,0,1-1.2-.31,12.82,12.82,0,0,1-3.15-2c-1.49-1.25-3.3-3.11-1.86-4.72,1.28-1.42-2.77-2.78-5.47-3.7-.64-.21-1.18-.39-1.5-.53-1.32-.55-2.56-1.18-3.78-1.78a39.75,39.75,0,0,0-7.08-3,2,2,0,0,0-.67-.1c-.81,0-1.59.37-1.65.78a2.71,2.71,0,0,0,.09,1.38,8.52,8.52,0,0,0-1.73.54,7.07,7.07,0,0,1-1.15-.91,2.45,2.45,0,0,0-1.6-.51,1.68,1.68,0,0,0-1.54.63C200.67,73.34,200.19,73.66,200.19,74.09ZM207,76.65c.65.17,1.31.29,2,.41l.83.12a6.8,6.8,0,0,1,.5.84,4.35,4.35,0,0,0,.69,1,3.69,3.69,0,0,1,.74,1.14c.16.52,0,.64,0,.67s0,0-.08,0a5.84,5.84,0,0,1-2.15-.77C207.83,79.16,206.92,77.9,207,76.65Z"/><path d="M179.77,64.77a2.52,2.52,0,0,1,.67.09,69.29,69.29,0,0,1,6.69,2.3c.92.36,2,.64,3,.92a24.26,24.26,0,0,1,3.83,1.29c.54.26.71.63.45,1a1.89,1.89,0,0,1-1.51.59,2.42,2.42,0,0,1-1-.21,18.78,18.78,0,0,0-3.3-1.1c-.65-.17-1.31-.35-2-.56-.92-.3-1.81-.63-2.67-1a.42.42,0,0,1-.11.3,2.28,2.28,0,0,1-1.69.57,2.7,2.7,0,0,1-1.24-.28c-1.63-.87-3.21-1.83-2.74-3.18C178.24,65.12,179,64.77,179.77,64.77Z"/></g></g></svg>