<svg xmlns="http://www.w3.org/2000/svg" viewBox="0 0 235.54 213.03"><defs><style>.cls-1{fill:#1a3869;}</style></defs><title>rocket</title><g id="图层_2" data-name="图层 2"><g id="图层_9" data-name="图层 9"><path class="cls-1" d="M-1343.48,1776.22c1.92-13.47-2.65-27.14-9.87-38.41h0a275.77,275.77,0,0,0,22.87-22.36,201.56,201.56,0,0,0,20.21-26.23h0a1.67,1.67,0,0,0,.52-.8v0h0a164.49,164.49,0,0,0,8.63-15.25,121.49,121.49,0,0,0,9.22-23.6c1.82-7.23,1-16.22-4-22-5.23-6-13.61-8.06-21.23-8.79a103.87,103.87,0,0,0-22.64.38,135.28,135.28,0,0,0-43.07,13.3,190.36,190.36,0,0,0-39.58,26.68h0a42.06,42.06,0,0,0-5.69-6.54,2.06,2.06,0,0,0-.73-.65,42.75,42.75,0,0,0-26.69-10.67c-13.65-.57-27.18,4.73-38.07,12.72-12.69,9.32-22.67,22.51-30.08,36.31-2.47,4.58-4.62,11-.75,15.48,4.79,5.55,12.5,2.52,17.74-.47,3.1-1.77,6.16-3.34,9.73-3.86a25,25,0,0,1,9.47.48,24.12,24.12,0,0,1,14.93,10.74,21.76,21.76,0,0,0,1,10.36v0c-5.11.78-8.74,5.73-9.16,10.78a13.36,13.36,0,0,0,0,2,35.62,35.62,0,0,0-10.86-1.7c-3.74,0-9,.3-11.9,3-3.37,3.09-.83,7.09,1.92,9.47a61.49,61.49,0,0,0,7.86,5.71,83.84,83.84,0,0,0-10.9,7c-2.23,1.68-4.38,3.44-6.54,5.21-1.89,1.56-4.08,3-5.65,4.91-1.21,1.46-2.19,3.33-1.77,5.27a4.9,4.9,0,0,0,4.52,3.68c2.81.32,5.8-.26,8.61-.49l6.37-.52q-3.39,6-6.76,12c-2,3.57-5.08,8-2.78,12.17,2.09,3.78,7,4.73,10.83,3.51,4.42-1.41,7.5-5.08,11.67-6.93.61-.27,2.67-1.25,3.3-.76s.26,1.59.15,2.25c-.33,2.17-.75,4.31-.88,6.5-.22,3.79.4,8.1,2.87,11.15,3.63,4.49,9.36-.43,12.21-3.25a82.79,82.79,0,0,0,11.67-15.13c.36.84.65,1.72,1,2.45a35.55,35.55,0,0,0,2.42,5.29c2.57,4.15,7,5.26,10.73,2,3.32-2.9,5.36-7.39,6.88-11.45a43.23,43.23,0,0,0,2.42-12,11.28,11.28,0,0,0,4.93-.61,12.78,12.78,0,0,0,7.15-5.75h0a16.18,16.18,0,0,0,4.16,1.22h0c4.68,2.9,7.54,8.64,7.72,14.06.24,6.84-4.82,12.85-7.74,18.67-2.39,4.78-3.89,10.9.2,15.23,4.52,4.78,11.63,3.78,17.25,2,6.39-2.08,12.49-5.7,18.34-9a102.47,102.47,0,0,0,17.19-11.76C-1354.31,1800.6-1345.36,1789.44-1343.48,1776.22Zm-67.94,3.46h.05c6.88-1.42,12.62-6.29,18.11-10.33,7.5-5.51,15-11.09,22.25-16.85,5-3.92,9.9-7.94,14.7-12.1a67.88,67.88,0,0,1,4.25,7.83,496.38,496.38,0,0,1-55.34,37.6A21.45,21.45,0,0,0-1411.42,1779.68Zm56.49-153.75c13.64-3.61,29-5.45,42.94-2.58,7.43,1.52,14.64,5.3,16.47,13.23s-1,15.71-3.84,23.11a152,152,0,0,1-11.86,23.78v0a129.12,129.12,0,0,0-44.49-57.34h0Zm-5.43,1.58a2.86,2.86,0,0,0,.31.27,125.44,125.44,0,0,1,46.24,59.81h0c-1.39,2.17-2.85,4.3-4.34,6.41h0a148.81,148.81,0,0,0-37.63-53,145.71,145.71,0,0,0-13.26-10.52h0C-1366.17,1629.43-1363.29,1628.42-1360.36,1627.51Zm-135.51,69.86a25.44,25.44,0,0,0-7.68,1.89c-3.06,1.31-5.76,3.33-8.82,4.62-2.65,1.12-6.35,1.84-8.72-.28-2-1.82-1.72-4.78-1-7.15a35,35,0,0,1,3.79-7.72c2-3.35,4-6.65,6.29-9.83a101.5,101.5,0,0,1,15-17.16c9.58-8.63,21.71-15.06,34.66-16.43a40.27,40.27,0,0,1,29.82,8.43,263.85,263.85,0,0,0-46.53,47.32A29,29,0,0,0-1495.87,1697.37Zm20,5.82a260.36,260.36,0,0,1,46.21-46.84,37.71,37.71,0,0,1,4.34,5.26c-13.29,11.72-25.48,24.8-37.19,38-2.37,2.66-4.72,5.33-7.08,8a1.49,1.49,0,0,0-1.37.4h0A26.94,26.94,0,0,0-1475.89,1703.19Zm36.72,91.91c-1.21,3.34-2.82,7.05-5.23,9.69-1.13,1.24-2.65,2.59-4.27,1.4a9,9,0,0,1-2.56-3.93c-1.19-2.81-2.11-6.32-4.31-8.54a2,2,0,0,0-3,.59,96.05,96.05,0,0,1-10.3,14.38,28.75,28.75,0,0,1-5.86,5.48,6.29,6.29,0,0,1-2,.93.86.86,0,0,1-.82-.2c-2.46-2.6-2.35-7.29-2-10.55.37-2.94,2.2-7.75-.65-10-3-2.42-7.74,0-10.47,1.81-3.27,2.14-7,6-11.27,5.44-2-.29-3.85-1.67-3.62-3.89s2.06-4.71,3.17-6.7l8.49-15.09a2,2,0,0,0-1.85-2.79l-15.3,1.26c-1.22.09-4.55.6-3.53-1.54.83-1.72,2.78-2.92,4.2-4.08,6.81-5.61,13.67-10.94,21.66-14.8,1.43-.7.93-2.72-.2-3.36a63.68,63.68,0,0,1-8.09-5.31,26,26,0,0,1-3.36-2.92c-1.33-1.5-1-2.57.86-3.29,5.69-2.24,13.19-1.33,18.78.71a2.15,2.15,0,0,0,.73.12c1.4,4.4,4.37,8.38,7.1,12a151.26,151.26,0,0,0,16,18.24,106,106,0,0,0,9,7.69,40.92,40.92,0,0,0,9.93,6l.8.28A39.56,39.56,0,0,1-1439.17,1795.1Zm14.47-18.29a8.82,8.82,0,0,1-5.19,4,7.9,7.9,0,0,1-3.81.29,1.91,1.91,0,0,0-1.65-.38,18.57,18.57,0,0,1-1.84-.68c-5.9-2.52-11.11-7.19-15.78-11.51a131.85,131.85,0,0,1-13.45-14.6c-3.59-4.49-7.89-9.33-9.74-14.88-1.57-4.71-.15-12.17,6-12.3l.12,0c.39.77.81,1.53,1.26,2.26a68.74,68.74,0,0,0,8.34,10.46c2.05,2.24,4.08,4.46,6.13,6.68-.29.3-.57.61-.86.92l0,0c-3.26,3.5-4,8.35-1.33,12.43a11.15,11.15,0,0,0,11.87,4.66,17.88,17.88,0,0,0,4.85-2.12q3.93,4.34,7.93,8.57a41,41,0,0,0,7.15,6.2h0Zm-12.94-21.3c-.52.43-1,.89-1.6,1.33a24.82,24.82,0,0,1-3.24,2.23c-2.65,1.52-5.56,2.22-8.46.47-3.82-2.31-4.3-6.73-1.3-9.94l0,0c.18-.19.37-.38.54-.58.88-.94,1.76-1.87,2.65-2.8a229.48,229.48,0,0,1,17.25-16.63c4-3.48,8.25-6.79,12.51-10,4.07-3.09,7.77-6.26,13-6.84a5.35,5.35,0,0,1,4.93,1.68c1.23,1.23,2.36,3.07,1.87,4.85-1.45,5.38-7.21,9.41-11.16,12.86-4.61,4-9.29,7.93-13.93,11.9C-1428.94,1747.76-1433.2,1751.75-1437.64,1755.51Zm18.57,19.93c-3.47-1.26-6.31-3.77-8.88-6.37-2.94-3-5.71-6.14-8.54-9.22,0,0-.07-.09-.11-.12,2.16-1.72,4.13-3.68,6.07-5.41,5.48-4.92,11.13-9.65,16.74-14.43,2.69-2.3,5.37-4.59,8-6.94a45.45,45.45,0,0,0,7.06-7.08c1.58-2.15,3.35-4.86,3.3-7.64a9.89,9.89,0,0,0-2.81-6.24c-3.64-4-8.47-3.67-13.23-2a25.91,25.91,0,0,0-7,4.15c-2.83,2.11-5.63,4.23-8.4,6.43a243.31,243.31,0,0,0-24.72,22.76l-3.13-3.4c-5.38-5.87-11.69-11.91-13.68-19.91a16,16,0,0,1-.11-7.77l0-.06c22.26-25.39,45.19-51.21,74.22-69a157.54,157.54,0,0,1,21-10.86h0a144.76,144.76,0,0,1,52.46,65.4q-1.53,2-3.09,4c-21.26,27-48.9,48.23-76.61,68.18-4.46,3.21-9.77,6.71-15.36,6.26a1.58,1.58,0,0,0-.79-.09h0A11.76,11.76,0,0,1-1419.07,1775.44Zm54.67,28.69a92.57,92.57,0,0,1-16,11.71,156.24,156.24,0,0,1-17,8.94c-4.8,2.09-13.15,5-17.13-.08-3.49-4.48,1.31-11.28,3.54-15.19,3.35-5.91,6.42-11.94,5.1-18.9-.07-.37-.18-.72-.27-1.09a1.54,1.54,0,0,0,.44-.19,498.42,498.42,0,0,0,55.24-37.44,49.63,49.63,0,0,1,3.55,20.18C-1347.55,1784.87-1355.3,1795.67-1364.4,1804.13Z" transform="translate(1526.51 -1618.25)"/><path class="cls-1" d="M-1340.32,1700.28c3.69-7.25,3.58-16.54.79-24.08-2.72-7.35-8.91-14.37-15.57-18.4-10.64-7-25.65-6.66-35.85,1a33,33,0,0,0-11.67,35.09c3.83,12.79,15.57,22.65,28.91,23.8S-1346.46,1712.36-1340.32,1700.28Zm-29.45,13.72a29.92,29.92,0,0,1-27.74-17.45,29,29,0,0,1,5.83-32c9.09-9.27,24.16-10.37,34.86-3.31,11,6.68,18.23,20.86,14.52,33.63C-1345.69,1706.55-1358.18,1713.68-1369.77,1714Z" transform="translate(1526.51 -1618.25)"/><path class="cls-1" d="M-1351.81,1673.8c-3.38-4.64-7.75-8.44-13.29-10.18a22.48,22.48,0,0,0-23.72,7.7c-5.82,7.6-7.43,18.2-2,26.43s15.54,11.62,25,10.24c5.15-.75,10.11-2.63,13.83-6.39a19.29,19.29,0,0,0,5.41-13.44C-1346.48,1682.87-1348.75,1678-1351.81,1673.8Zm-12.35,30c-7.82,1.75-16.69,0-22-6.32s-5.06-14.64-1-21.57a18.74,18.74,0,0,1,21.39-8.49c4.18,1.32,7.64,4.35,10.27,7.77,2.36,3.07,4.44,6.56,5,10.45a15.76,15.76,0,0,1-2.56,11.4C-1355.74,1700.75-1359.82,1702.82-1364.16,1703.79Z" transform="translate(1526.51 -1618.25)"/><path class="cls-1" d="M-1369.2,1679.23a2,2,0,0,0-2.68-.57l-7.21,3.74a2,2,0,0,0-.58,2.68,2,2,0,0,0,2.68.57l7.22-3.74A1.94,1.94,0,0,0-1369.2,1679.23Z" transform="translate(1526.51 -1618.25)"/><path class="cls-1" d="M-1360.27,1688.23a2,2,0,0,0-1-1.14,1.86,1.86,0,0,0-1.46-.1l-7.14,3.36a2.11,2.11,0,0,0-1.14,1,2,2,0,0,0-.1,1.45,1.91,1.91,0,0,0,1,1.14,1.9,1.9,0,0,0,1.46.11l7.14-3.36a2.11,2.11,0,0,0,1.13-1A2,2,0,0,0-1360.27,1688.23Z" transform="translate(1526.51 -1618.25)"/></g></g></svg>