<svg xmlns="http://www.w3.org/2000/svg" viewBox="0 0 540.63 156.07"><defs><style>.cls-1{fill:#ffb53f;}.cls-2{fill:#1a3869;}</style></defs><title>three</title><g id="图层_2" data-name="图层 2"><g id="图层_9" data-name="图层 9"><path class="cls-1" d="M-721.2,1558.38c11.78,11.16,14.27,25.86,8.52,42.27-7.62,21.73-22,23.56-40.07,24.36-11.76.51-39.45.16-51-16.51-10.24-14.75-7.4-52,15.17-64.61C-770.38,1533.74-737.8,1542.65-721.2,1558.38Z" transform="translate(1183.75 -1505.04)"/><path class="cls-1" d="M-647.74,1547.28c4.74,4.49,5.74,10.42,3.43,17-3.07,8.76-8.88,9.5-16.14,9.82-4.74.2-15.89.06-20.56-6.65-4.12-5.94-3-21,6.11-26C-667.56,1537.35-654.43,1540.94-647.74,1547.28Z" transform="translate(1183.75 -1505.04)"/><path class="cls-2" d="M-1135.15,1585.74a13.42,13.42,0,0,1-9.09-4.19c-2.16-2.56-1.83-6.38-1.62-9.49a1.48,1.48,0,0,0-2.29-1.3,1.57,1.57,0,0,0-1.74,1.5,19.2,19.2,0,0,1-13,17.24,1.57,1.57,0,0,0,.42,3.07,16.06,16.06,0,0,1,10.32,5.79c2.59,3.21,3.55,7.32,3.95,11.34a1.56,1.56,0,0,0,3.12,0c.6-4.61.63-9.57,2.72-13.82a15.61,15.61,0,0,1,8-7.23C-1132.84,1587.94-1133.76,1585.84-1135.15,1585.74Zm-9.87,8.56a24.5,24.5,0,0,0-2,6.65,19,19,0,0,0-2.85-4.8,18.57,18.57,0,0,0-7.95-5.56,22.32,22.32,0,0,0,9.36-10.69,9.75,9.75,0,0,0,2.06,3.85,15,15,0,0,0,6.9,4.27A16.89,16.89,0,0,0-1145,1594.3Z" transform="translate(1183.75 -1505.04)"/><path class="cls-2" d="M-1158.1,1617.32c-2.86.25-5.53-1.68-7.49-3.57a9,9,0,0,1-2.74-8.32,1.63,1.63,0,0,0-2.7-1.5,1.39,1.39,0,0,0-.68,1.27c0,6.56-2.81,15-10.5,15.57-1.62.13-2.28,2.78-.41,3.07,3.53.54,7.54,1.25,10,4.09,2.78,3.21,2.73,7.85,2.75,11.84a1.56,1.56,0,0,0,3.12,0c.27-4.28.39-8.93,2.1-12.93,1.37-3.21,4.32-5.09,7.33-6.61A1.57,1.57,0,0,0-1158.1,1617.32Zm-9.23,7.92a20.45,20.45,0,0,0-1.19,3.4,12.55,12.55,0,0,0-1.57-2.54,13.22,13.22,0,0,0-6.33-4,16,16,0,0,0,6.53-8.72,12,12,0,0,0,1.79,2.32,18.19,18.19,0,0,0,5.63,4A14,14,0,0,0-1167.33,1625.24Z" transform="translate(1183.75 -1505.04)"/><path class="cls-2" d="M-853.22,1658.62c9,5.47,20,.75,28.69-2.91,12.45-5.22,25.07-10.16,37.36-15.75a100.79,100.79,0,0,0,16.48-9.52c4.62-3.27,9.69-6.93,11.83-12.39,2-5,1.92-10.74,1-16-1-5.79-3.47-11-5.79-16.38-5.24-12-10.5-24.1-16.37-35.86-2.93-5.86-6-11.66-9.32-17.31a126.49,126.49,0,0,0-10.43-15.93c-3.62-4.48-8-8.34-13.54-10.26a24.59,24.59,0,0,0-14.09-.5,34.7,34.7,0,0,0-3.91.79c-7.83,2-15.37,5.44-22.63,8.94-8.57,4.14-17.24,8.7-24.86,14.44-4.23,3.19-8,7-9.72,12.13a23.7,23.7,0,0,0-.51,12.34c.26,2.23-.83,3.67-2.59,5.14-1.93,1.61-4.11,3-5.49,5.15s-1.12,4.64-.21,7c2.4,6.28,4.94,12.5,7.54,18.69q7.74,18.51,16.47,36.58c2.9,6,5.84,12,9,17.9C-861.6,1650.14-858.36,1655.51-853.22,1658.62Zm-34.3-98.72a189.58,189.58,0,0,0,7.67,18.76c6.8,15.29,14.36,30.32,22.61,44.88,2.38,4.2,5.08,8.46,9.13,11.22a14.49,14.49,0,0,0,2,1.1,1.61,1.61,0,0,0,.18.59,11.63,11.63,0,0,1-2,13.42l-.06.06a10.75,10.75,0,0,1-1.38-1c-4.65-4.92-8.16-10.79-11.32-16.75-11.73-22.18-20.89-45.63-30.89-68.61A26.14,26.14,0,0,0-887.52,1559.9Zm110.5,62.78a53.17,53.17,0,0,1-5.47,3.66c-10.23,6-21.29,10.56-32.19,15.17-5.84,2.47-11.67,5-17.54,7.39-3.88,1.59-8.62,3.12-12.78,2.23a14.82,14.82,0,0,0,2.61-14.06,17.88,17.88,0,0,0,6.6-.08,62.59,62.59,0,0,0,12.59-4.37,145.24,145.24,0,0,0,13.64-6.9c4.5-2.52,8.94-5.13,13.49-7.57,4.37-2.34,9-4.85,13.82-6,2.84-.66,6.9-1,8.94,1.62a6.47,6.47,0,0,1,1.17,4.6C-773.32,1620.05-775.4,1621.44-777,1622.68Zm-82.43,24.71c-3.13-5.15-5.69-10.68-8.36-16.07q-4.26-8.64-8.3-17.38-8.07-17.45-15.2-35.29c-1.17-2.92-2.47-5.83-3.44-8.82a4.11,4.11,0,0,1,.73-4c2.67,6.14,5.29,12.3,7.92,18.46,5.05,11.85,10.14,23.68,15.66,35.32,5.05,10.65,10.12,22,18.15,30.77a1.54,1.54,0,0,0,.29.41l.44.39.31.33a1.6,1.6,0,0,0,.47.34c5.62,4.3,13.28,2.56,19.42,0,12.49-5.13,25-10.32,37.22-16.06a145.06,145.06,0,0,0,15.12-8,51.65,51.65,0,0,0,5.11-3.72l.46-.37c-.2,1.58,2.46,2.06,3.09.34a20.51,20.51,0,0,0,1.15-4.63,1.11,1.11,0,0,0,.07-.71c0-.12,0-.24,0-.36a9,9,0,0,0-3.3-7.93c-2.77-2-6.4-2-9.65-1.46-4.7.85-9.14,3.15-13.35,5.33-4.48,2.31-8.84,4.85-13.23,7.34-8.31,4.71-16.92,9.43-26.19,11.94-4.28,1.16-8.7.89-12.31-1.91-3.81-3-6.15-7.39-8.46-11.51-8.09-14.43-15.55-29.28-22.2-44.42-1.66-3.77-3.26-7.57-4.74-11.41a67.48,67.48,0,0,1-3.47-10.52c0-.28-.09-.55-.15-.83,0,0,0-.08,0-.12a19.12,19.12,0,0,1,2.34-13.44c2.9-4.64,7.77-7.79,12.28-10.67a190.09,190.09,0,0,1,24.15-12.88c3.78-1.7,7.61-3.28,11.53-4.64a50.32,50.32,0,0,1,7.83-2.22,1.47,1.47,0,0,0,.68,0,22.63,22.63,0,0,1,7.23-.88c12.07.51,19,11.17,24.81,20.41a309.27,309.27,0,0,1,17.52,32.9c2.69,5.74,5.27,11.53,7.82,17.33,2.35,5.36,4.91,10.7,7,16.18a37.38,37.38,0,0,1,2.63,15.6,19,19,0,0,1-1.92,7.67,22.06,22.06,0,0,1-5.64,6.38,90,90,0,0,1-14.65,9.72c-5.64,3-11.58,5.36-17.46,7.83l-17.83,7.48c-5.07,2.13-10.12,4.44-15.33,6.25-4.39,1.52-9.21,2.76-13.86,1.85C-852.78,1656.59-856.56,1652.13-859.45,1647.39Z" transform="translate(1183.75 -1505.04)"/><path class="cls-2" d="M-829.73,1567.32c5.62-2.7,11.17-5.53,16.73-8.35,4.61-2.33,8.32-6.53,7.29-12a28.91,28.91,0,0,0-3-7.4c-1.41-2.81-2.91-5.57-4.54-8.26a11.8,11.8,0,0,0-5.6-5.21,10.35,10.35,0,0,0-6.75.14q-10,3.74-19.61,8.4a161.18,161.18,0,0,0-18.11,9.9c-2.15,1.42-4.23,3.19-5,5.72-.72,2.26-.16,4.9.62,7.07,1,2.73,2.25,5.38,3.38,8.06a27.67,27.67,0,0,0,3.67,6.84,8.61,8.61,0,0,0,6.29,3.43c2.66.17,5.35-.71,7.86-1.49A122.92,122.92,0,0,0-829.73,1567.32Zm7.46-7.14c-4.77,2.41-9.53,4.85-14.43,7a81.94,81.94,0,0,1-14.48,5.11c-2.32.53-4.66.56-6.47-1.21a17.67,17.67,0,0,1-3.56-6c-.94-2.23-1.9-4.46-2.84-6.7-.84-2-1.82-4.26-1.55-6.48s2.46-3.8,4.25-4.94c2.28-1.44,4.65-2.77,7-4.08a218.55,218.55,0,0,1,29.57-13.64c2.58-.74,4.79-.8,6.88,1.11s3.24,4.72,4.52,7.07a71.58,71.58,0,0,1,3.91,7.84c1,2.42,1.31,4.89-.21,7.17a13.19,13.19,0,0,1-5.46,4.21Q-818.7,1558.37-822.27,1560.18Z" transform="translate(1183.75 -1505.04)"/><path class="cls-2" d="M-858.08,1549.86a323.39,323.39,0,0,0,33.64-16.65c1.71-1,3.32,1.65,1.6,2.63a331.12,331.12,0,0,1-34.37,17C-859,1553.58-859.88,1550.63-858.08,1549.86Z" transform="translate(1183.75 -1505.04)"/><path class="cls-2" d="M-855.2,1559.41l35.41-17.39c1.76-.87,3.38,1.75,1.6,2.63L-853.61,1562C-855.37,1562.9-857,1560.29-855.2,1559.41Z" transform="translate(1183.75 -1505.04)"/><path class="cls-2" d="M-826.94,1555.06l9.1-4.6a1.57,1.57,0,0,1,2.11.52,1.55,1.55,0,0,1-.51,2.11l-9.1,4.6a1.57,1.57,0,0,1-2.11-.52A1.55,1.55,0,0,1-826.94,1555.06Z" transform="translate(1183.75 -1505.04)"/></g></g></svg>