<svg xmlns="http://www.w3.org/2000/svg" viewBox="0 0 244.9 519.73"><defs><style>.cls-1{fill:#1a3869;}.cls-2{fill:#fff;}</style></defs><title>card</title><g id="图层_2" data-name="图层 2"><g id="图层_9" data-name="图层 9"><path class="cls-1" d="M4.4,216.2l40.12-29.07L213,208l-.7,62.86L35.85,257Z"/><path class="cls-1" d="M89.53,51.26C90,56.54,94.71,61,100,61.57s10.62-2.23,13.55-6.63a19.2,19.2,0,0,0,2.22-15.26,27.75,27.75,0,0,0-8.35-13.24A45.22,45.22,0,0,1,89.53,51.26Z"/><path class="cls-1" d="M91.67,49.79c.11.23.21.46.3.7.25.57-.13-.34.1.23L92.58,52c.31.79.62,1.58.91,2.38.61,1.62,1.16,3.27,1.68,4.92a1.93,1.93,0,0,0,3.72-1A103.72,103.72,0,0,0,95,47.84a1.93,1.93,0,0,0-2.64-.69,2,2,0,0,0-.7,2.64Z"/><path class="cls-1" d="M97,43.59l3.17,6.22a1.94,1.94,0,0,0,2.64.69,2,2,0,0,0,.69-2.64l-3.17-6.22A2,2,0,0,0,97.69,41,2,2,0,0,0,97,43.59Z"/><path class="cls-1" d="M101.85,54.57l2.07,6.82a1.93,1.93,0,0,0,3.72-1l-2.07-6.81a1.93,1.93,0,1,0-3.72,1Z"/><path class="cls-1" d="M101.16,37.81A63.7,63.7,0,0,1,110,59.57c.49,2.43,4.21,1.4,3.72-1a66.81,66.81,0,0,0-9.18-22.67c-1.34-2.09-4.68-.16-3.34,1.94Z"/><path class="cls-1" d="M105.45,31.43c1,1.66,2.11,3.32,3.16,5a2.05,2.05,0,0,0,1.16.88,1.92,1.92,0,0,0,2.17-2.83c-1-1.67-2.11-3.33-3.16-5a2.08,2.08,0,0,0-1.15-.89,2,2,0,0,0-1.49.2,2,2,0,0,0-.69,2.64Z"/><path class="cls-1" d="M111.05,40.07c.41.74.8,1.5,1.17,2.27q.25.52.51,1.08l.21.46c0,.07.3.72.14.32a48.62,48.62,0,0,1,1.67,4.65,2,2,0,0,0,2.37,1.35,2,2,0,0,0,1.35-2.37,50.83,50.83,0,0,0-4.09-9.71,1.94,1.94,0,0,0-2.64-.69,2,2,0,0,0-.69,2.64Z"/><path class="cls-2" d="M57,234.76A213.2,213.2,0,0,1,61.46,212l-1.86,1.42c1.75.11,6,.34,5.83,3-.19,2.95-4.44,2.94-6.48,2.66a2,2,0,0,0-2.38,1.35,2,2,0,0,0,1.35,2.37,12.91,12.91,0,0,0,7.43-.66,6.85,6.85,0,0,0,3.89-5.2,6.07,6.07,0,0,0-2.75-5.6c-2-1.43-4.52-1.64-6.89-1.79A1.93,1.93,0,0,0,57.74,211a214.19,214.19,0,0,0-4.5,22.72,2,2,0,0,0,1.35,2.37A1.94,1.94,0,0,0,57,234.76Z"/><path class="cls-2" d="M78.22,236.21a167.71,167.71,0,0,1,11.09-18.83l-3.52-.46a110.74,110.74,0,0,1,1.9,20c0,2.49,3.88,2.49,3.86,0a117.59,117.59,0,0,0-2-21c-.33-1.76-2.68-1.71-3.53-.46a167,167,0,0,0-11.09,18.84c-1.12,2.21,2.21,4.16,3.33,1.94Z"/><path class="cls-2" d="M81.15,230.62l7.34.25a1.94,1.94,0,0,0,1.93-1.93A2,2,0,0,0,88.49,227l-7.34-.26a1.93,1.93,0,0,0,0,3.86Z"/><path class="cls-2" d="M109.26,237.89c.58-6.4,1.17-12.8,1.67-19.21l-1,1.66c1.44-.62,3.33-1.5,4.91-.85a2,2,0,0,1,1.13,2.42c-.49,3.16-4.4,3.93-7,4.36-2.13.36-1.66,4,.51,3.79a8.59,8.59,0,0,1,9.57,8.12c.1,2.48,4,2.49,3.86,0a12.45,12.45,0,0,0-13.43-12L110,230c4.61-.77,9.91-3.19,9.87-8.65a5.78,5.78,0,0,0-3.86-5.52c-2.74-1-5.51.1-8,1.19a1.93,1.93,0,0,0-1,1.67c-.5,6.41-1.09,12.81-1.67,19.21a1.94,1.94,0,0,0,1.93,1.93,2,2,0,0,0,1.93-1.93Z"/><path class="cls-2" d="M137.82,218.7q-.73,10-1.46,20a2,2,0,0,0,1.93,1.93,2,2,0,0,0,1.93-1.93l1.46-20a1.94,1.94,0,0,0-1.93-1.92,2,2,0,0,0-1.93,1.92Z"/><path class="cls-2" d="M171,221a9.78,9.78,0,0,0-10.36-2,9.12,9.12,0,0,0-5.5,8.56,8.76,8.76,0,0,0,6.1,7.85c1.66.48,3.42.26,5.08.66a1.83,1.83,0,0,1,1.6,2.31c-.31,1.67-2.14,2.41-3.67,2.47-2.23.09-4.35-.87-6.34-1.77a2,2,0,0,0-2.63.69,1.93,1.93,0,0,0,.69,2.64c3.55,1.61,7.52,3.21,11.39,1.67,3.41-1.36,5.62-5.29,3.88-8.81a5.81,5.81,0,0,0-4-3c-1.62-.35-3.34-.16-4.93-.62a4.75,4.75,0,0,1-2.74-6.65,5.57,5.57,0,0,1,8.74-1.36c1.84,1.67,4.58-1,2.73-2.72Z"/><path class="cls-2" d="M204.86,220q-1,10.86-1.94,21.72a1.94,1.94,0,0,0,1.92,1.93,2,2,0,0,0,1.93-1.93L208.72,220a1.94,1.94,0,0,0-1.93-1.93,2,2,0,0,0-1.93,1.93Z"/><path class="cls-2" d="M201.79,250.73c-.14,1.17-.29,2.35-.43,3.52a1.94,1.94,0,0,0,3.3,1.37l.3-.39a2,2,0,0,0,.26-1l.42-3.52a1.9,1.9,0,0,0-.56-1.37,2,2,0,0,0-1.36-.56,2,2,0,0,0-1.37.56l-.3.39a2,2,0,0,0-.26,1Z"/><path class="cls-1" d="M137.36,372.51l32.24-8.89c2.73-.76,1.57-5-1.17-4.26l-32.24,8.9c-2.74.76-1.58,5,1.17,4.25Z"/><path class="cls-1" d="M179.68,360.63l5.5-1.81a2.29,2.29,0,0,0,1.32-1,2.24,2.24,0,0,0,.22-1.7,2.21,2.21,0,0,0-1-1.31,2.25,2.25,0,0,0-1.7-.23l-5.5,1.82a2.31,2.31,0,0,0-1.32,1,2.25,2.25,0,0,0-.22,1.7,2.2,2.2,0,0,0,2.71,1.54Z"/><path class="cls-1" d="M190.2,86l17.14,8.47a2.26,2.26,0,0,0,3-.8,2.22,2.22,0,0,0-.79-3l-17.14-8.47a2.25,2.25,0,0,0-3,.79,2.22,2.22,0,0,0,.79,3Z"/><path class="cls-1" d="M215.61,98.43l4,1.47a2.24,2.24,0,0,0,1.7-.22,2.22,2.22,0,0,0,.79-3l-.34-.45a2.21,2.21,0,0,0-1-.56l-4-1.47a2.21,2.21,0,0,0-2.49,3.24l.34.44a2.12,2.12,0,0,0,1,.57Z"/><path class="cls-1" d="M43,159.33a1.66,1.66,0,0,1-1.06-.39l-10.76-9.08a1.65,1.65,0,0,1,2.13-2.53l10.76,9.08A1.65,1.65,0,0,1,43,159.33Z"/><path class="cls-1" d="M51.09,158a1.66,1.66,0,0,1-1.15-.47,177.91,177.91,0,0,0-19.89-16.57A1.65,1.65,0,0,1,32,138.22,182.66,182.66,0,0,1,52.24,155.1,1.66,1.66,0,0,1,51.09,158Z"/><path class="cls-1" d="M57.71,156.84a1.71,1.71,0,0,1-1.1-.41L28.79,131.92A1.65,1.65,0,0,1,31,129.43L58.8,154a1.65,1.65,0,0,1-1.09,2.89Z"/><path class="cls-1" d="M38.79,408.7a1.66,1.66,0,0,1-1-.37l-11.51-9.28a1.65,1.65,0,0,1,2.07-2.57l11.52,9.28a1.65,1.65,0,0,1-1,2.94Z"/><path class="cls-1" d="M44.89,406.13a1.64,1.64,0,0,1-1-.33L25.09,391.65a1.65,1.65,0,0,1,2-2.64l18.8,14.15a1.65,1.65,0,0,1-1,3Z"/><path class="cls-1" d="M53.06,404.77a1.59,1.59,0,0,1-1-.32L24.32,384a1.64,1.64,0,0,1-.35-2.31,1.66,1.66,0,0,1,2.31-.35L54,401.79a1.65,1.65,0,0,1,.36,2.31A1.67,1.67,0,0,1,53.06,404.77Z"/><path class="cls-1" d="M111.67,517.65a1.64,1.64,0,0,1-1-.32l-11.58-8.5a1.66,1.66,0,0,1,2-2.67l11.58,8.51a1.65,1.65,0,0,1-1,3Z"/><path class="cls-1" d="M112.62,510.33a1.66,1.66,0,0,1-1.05-.37L100,500.5a1.65,1.65,0,0,1,2.09-2.56l11.58,9.46a1.65,1.65,0,0,1-1,2.93Z"/><path class="cls-1" d="M112.38,501.59a1.63,1.63,0,0,1-1.14-.46L99.89,490.26a1.66,1.66,0,0,1,0-2.34,1.64,1.64,0,0,1,2.33-.05l11.34,10.87a1.65,1.65,0,0,1,0,2.34A1.62,1.62,0,0,1,112.38,501.59Z"/><path class="cls-1" d="M35.54,158.57c-1.71-19.82-5.38-39.46-5.47-59.39l-1.82,2.1,128.51-20,36.71-5.72-1.91-.22,43.34,17.8,6.31,2.59c-.3-1-.59-2-.89-3q-12.81,21.56-25.6,43.13l2.14-1.08-62.23,7.31-99,11.63-22.54,2.64c-3.07.36-3.14,4.74,0,4.37l28.72-3.37L125,150l63.18-7.43c9.51-1.11,19.28-1.7,28.72-3.37,2.54-.45,3.51-3.39,4.72-5.43L229,121.25l14.68-24.73L244.6,95a2.08,2.08,0,0,0-.89-3L199.05,73.62a43,43,0,0,0-5.28-2.16c-2-.51-4.47.34-6.51.65l-8,1.24-16.52,2.57L99.14,85.83,26.93,97.08a2.26,2.26,0,0,0-1.82,2.1c.09,19.93,3.76,39.57,5.47,59.39C30.83,161.4,35.79,161.4,35.54,158.57Z"/><path class="cls-1" d="M14,341.51,139.11,306.8l35.74-9.92-1.91-.22,43.57,22.89,6.2,3.25-1.14-2.46-21.36,46.48,1.73-1.53-58.34,14L50.5,401.6,29,406.75,32,408.28q-7.14-30.43-14.29-60.87c-.67-2.86-1.35-5.72-2-8.58-.64-2.71-5.46-1.72-4.78,1.16q7.14,30.43,14.3,60.87l2,8.58c.3,1.26,1.94,1.79,3,1.52l27.59-6.61,60.39-14.48,59.62-14.29L197.06,371c2.38-.57,6.58-.75,7.94-3a64.69,64.69,0,0,0,2.86-6.22l6.27-13.64L225.65,323l.7-1.53a2.11,2.11,0,0,0-1.14-2.47L181.27,296a56.65,56.65,0,0,0-5.77-3,4.47,4.47,0,0,0-3.16.08c-2.79.72-5.56,1.54-8.34,2.32l-16.08,4.46L84.77,317.3l-72.09,20C9.59,338.16,11.07,342.32,14,341.51Z"/><path class="cls-1" d="M102.19,152.86l-1,40.74c-.07,2.85,4.89,2.86,5,0l1-40.74c.07-2.85-4.89-2.85-5,0Z"/><path class="cls-1" d="M117,149.38q-.26,22.6-.5,45.22c0,2.85,4.93,2.85,5,0q.24-22.62.5-45.22c0-2.85-4.93-2.86-5,0Z"/><path class="cls-1" d="M97.47,262.66q-.24,24.6-.49,49.19c0,2.85,4.93,2.86,5,0l.49-49.19c0-2.85-4.93-2.85-5,0Z"/><path class="cls-1" d="M113,265.15l-1.47,46.21c-.09,2.84,4.87,2.85,5,0L118,265.15c.1-2.85-4.86-2.86-5,0Z"/><path class="cls-1" d="M97.23,392.49q.27,62.43.57,124.87a2.4,2.4,0,0,0,2.48,2.19l13.74.18a2.38,2.38,0,0,0,2.48-2.18L117,474q.39-34.77.79-69.53l.18-16.06c0-2.85-4.92-2.86-5,0q-.24,21.78-.49,43.57-.4,34.77-.8,69.53l-.18,16.06,2.48-2.18c-4.58,0-9.16-.14-13.74-.19l2.48,2.18q-.27-62.43-.57-124.87c0-2.86-5-2.86-5,0Z"/><path class="cls-1" d="M107,28.5c5.77,7.37,11.26,19,4.29,27.45-2.84,3.47-7.44,5.27-11.75,3.57-4.09-1.61-6.9-5.43-9-9.13l-.89,3c7.38-3.92,12.23-10.73,15.83-18.1,4.1-8.39,6.79-18.1,13.25-25.09,3-3.21,6.83-5.78,11.33-5.84a16.83,16.83,0,0,1,11.39,4.78c6.5,6.06,7.88,15.71,7.15,24.17C147.32,48.81,138,63.1,125.33,71.85a49,49,0,0,1-44,6.19c-16.55-5.68-30-19.53-34.52-36.5l-.64,2.12,23-16.53-3.9-.44c7.7,10,13.88,21.46,24.25,29.06,2.24,1.65,6-1.22,3.5-3.08-10-7.38-16-18.48-23.47-28.18a2.72,2.72,0,0,0-3.89-.44l-23,16.52A2,2,0,0,0,42,42.7C46.38,59.32,58.9,73.1,74.5,80.1a54.45,54.45,0,0,0,48.75-1.66c14.88-8.17,26.48-23,29.62-39.79,1.65-8.88,1.29-18.57-3.18-26.62C145.53,4.53,137-.82,128.31.1c-11.07,1.18-17.45,11.67-21.68,20.82C101.82,31.34,98,43.85,87.19,49.61a2.1,2.1,0,0,0-.89,3C89,57.46,93,62,98.45,63.82a15.49,15.49,0,0,0,15-3.39C124.05,51,118.7,35.75,111.3,26.3c-1.69-2.17-6.16-.2-4.28,2.2Z"/><path class="cls-1" d="M65.32,134c-.71-7.52-1.43-15-2-22.56l-.72,1.54c1.66-1.2,3.58-2.69,5.73-2.69a2.56,2.56,0,0,1,2.7,2.75c0,4.31-4.78,6-8.15,7.07l1.92,4c5.55-2.37,11,1.75,11.89,7.33.2,1.27,2,1.78,3.06,1.52a2.23,2.23,0,0,0,1.73-2.68,13.46,13.46,0,0,0-6.58-9.42,14.2,14.2,0,0,0-12.61-.52c-2.6,1.11-.55,4.82,1.91,4,3.7-1.23,7.66-2.63,10-5.92,2.11-2.9,2.48-7.28,0-10-3-3.27-8-2.82-11.5-.87A28.41,28.41,0,0,0,60,109.2a2.89,2.89,0,0,0-1.57,3c.15,2.05.32,4.1.49,6.15.44,5.2.93,10.39,1.42,15.59a2.41,2.41,0,0,0,2.48,2.18c1.11,0,2.6-.88,2.48-2.18Z"/><path class="cls-1" d="M103,103.37c-3.77-3.51-9.85-1.87-12.4,2.25-2.76,4.48-1.79,10.31-.54,15.13s5.37,9.51,10.9,8.16c5.33-1.31,7.32-6.7,7.51-11.64a18.39,18.39,0,0,0-5.47-13.9c-2-2-5.71.83-3.51,3.09a13.58,13.58,0,0,1,4,8.37c.22,2.82.14,6.53-1.93,8.7a3.22,3.22,0,0,1-3.27,1.11,5.51,5.51,0,0,1-2.84-3.2,27.14,27.14,0,0,1-1.33-5.56,15.85,15.85,0,0,1-.13-5.62,6.13,6.13,0,0,1,2.32-4,2.47,2.47,0,0,1,3.2.17C101.58,108.39,105.33,105.53,103,103.37Z"/><path class="cls-1" d="M127.55,125.17a67.93,67.93,0,0,1,1.26-21.75l-4.54.52a104.94,104.94,0,0,1,8.91,15.22c.91,1.92,4,2.27,4.78,0a180.54,180.54,0,0,1,8.23-19.71l-4.53-.52,4.84,20c.66,2.71,5.48,1.71,4.79-1.16q-2.43-10-4.85-20c-.44-1.81-3.69-2.23-4.53-.52A190.47,190.47,0,0,0,133.18,118H138a112.38,112.38,0,0,0-9.4-16.26c-1-1.45-4.08-1.5-4.54.52a71.73,71.73,0,0,0-1.43,22.91,2.41,2.41,0,0,0,2.48,2.18c1.11,0,2.61-.88,2.48-2.18Z"/><path class="cls-1" d="M160.68,110.39l11.51-2.25A2.32,2.32,0,0,0,174,106c.51-4.25.62-9.16-3.08-12.1-3.49-2.77-8.51-2.26-10.83,1.73a16.63,16.63,0,0,0-1.85,6,39.36,39.36,0,0,0-.47,7.59c.15,3.91,1,8.27,4.6,10.44,4.84,2.89,10.45-.29,13.07-4.58,1.61-2.61-2.82-4.58-4.28-2.2a7,7,0,0,1-3.64,3.32,3,3,0,0,1-3.58-1.39,9.59,9.59,0,0,1-1.13-4.14,36,36,0,0,1,.13-7.11,16.54,16.54,0,0,1,1.27-5.46c.52-1,1.33-1.89,2.32-1.59,3.68,1.12,2.85,6.66,2.51,9.48l1.82-2.1-11.51,2.25a2.2,2.2,0,0,0-1.73,2.68,2.58,2.58,0,0,0,3.05,1.53Z"/><path class="cls-1" d="M35.75,357.79l5,19.46c.4,1.54,2.41,1.89,3.65,1.3A47.73,47.73,0,0,1,54.85,375a2.2,2.2,0,0,0,1.73-2.68,2.56,2.56,0,0,0-3-1.52,53,53,0,0,0-11.66,4l3.65,1.31q-2.49-9.73-5-19.46c-.69-2.7-5.52-1.7-4.78,1.16Z"/><path class="cls-1" d="M69,347.39a6.35,6.35,0,0,0-6.21-1.25,7.63,7.63,0,0,0-4.82,4.4,14,14,0,0,0-.69,6.76,25.08,25.08,0,0,0,1.42,6.9c1.67,4.2,5.71,8.2,10.63,7.05,4.54-1.05,5.86-6,5.78-10.11A20.3,20.3,0,0,0,69,347.39c-2-2-5.71.82-3.51,3.08a16.36,16.36,0,0,1,4.44,8.32c.45,2.38.54,5.76-1,7.64,0-.05-.42.4-.54.48.1-.07-.23.09-.25.1l-.41.09c.31-.06-.12,0-.16,0l-.16,0-.52-.13a5.88,5.88,0,0,1-2.78-2.59c-1.63-2.75-2.07-6.48-2-9.63,0-1.46.4-3.13,1.38-4a2.39,2.39,0,0,1,.71-.42c.39-.17-.27.11.13,0,.07,0,.62-.13.21-.08a2.69,2.69,0,0,1,.49,0c-.27,0-.1-.05.06,0,.5.21.16.06.09,0,.38.2-.06-.09.29.23C67.54,352.4,71.3,349.55,69,347.39Z"/><path class="cls-1" d="M59.28,349.93a8.53,8.53,0,0,0,7.45,8.19A8.71,8.71,0,0,0,76.06,352a2.23,2.23,0,0,0-1.73-2.69c-1.16-.23-2.72.24-3,1.53a2.63,2.63,0,0,1-.32.93c.31-.35,0-.09-.06.07s-.17.28-.26.41a3.52,3.52,0,0,0-.31.39c.19-.21.23-.26.12-.13l-.18.17a2.7,2.7,0,0,1-.76.64l.23-.16-.29.17-.44.23-.15.07c-.24.1-.2.09.13,0-.06.07-.31.1-.39.12a4.15,4.15,0,0,1-.48.11c-.57.11.24,0,0,0l-.5,0h-.24c.22,0,.22,0,0,0l-.16,0c-.16,0-.32-.09-.48-.13-.5-.13.4.21,0,0l-.44-.22a3.18,3.18,0,0,0-.43-.25c.25.17.31.2.17.1l-.2-.15-.37-.33-.17-.18c-.12-.12-.08-.08.1.14,0-.18-.48-.63-.58-.8a1.46,1.46,0,0,1-.25-.43l.11.22c0-.1-.09-.2-.13-.3a5.13,5.13,0,0,1-.26-.87,2,2,0,0,1,0-.24c0,.28,0,.34,0,.17s0-.38,0-.58c0-2.85-5-2.85-5,0Z"/><path class="cls-1" d="M88.59,363.57V343.72L84,344.82q5.16,9.49,11.17,18.49c1.21,1.82,4.5,1.19,4.62-1.1l1.14-22.08c.15-2.85-4.81-2.86-5,0L94.8,362.21l4.62-1.1q-6-9-11.17-18.5c-1-1.92-4.62-1.12-4.62,1.11v19.85c0,2.85,5,2.86,5,0Z"/><path class="cls-1" d="M106.74,337.57A115.92,115.92,0,0,0,110.52,358a2.57,2.57,0,0,0,3,1.52c6.12-1.35,12.15-5.58,13.61-12,1.41-6.2-1.61-13.22-8.29-14.53-4.14-.81-8.08.63-11.42,3a2,2,0,0,0,0,3.09,2.77,2.77,0,0,0,3.5,0,10.62,10.62,0,0,1,4.52-1.95,6.71,6.71,0,0,1,3.26.36,5.46,5.46,0,0,1,2.45,2,7.79,7.79,0,0,1,1.37,3.86c.5,6.33-4.69,10.67-10.32,11.92l3,1.52a109.41,109.41,0,0,1-3.6-19.25,2.41,2.41,0,0,0-2.48-2.18C108.11,335.39,106.62,336.27,106.74,337.57Z"/><path class="cls-1" d="M140.17,327.58a12,12,0,0,0-6.46,9.46,18.63,18.63,0,0,0,.46,6.81,14,14,0,0,0,2.21,5.39c3,3.89,8.48,3.15,11.08-.78,2.34-3.54,2.75-8.31,2.07-12.4a18.07,18.07,0,0,0-2.38-6.46,5.67,5.67,0,0,0-2.71-2.43,5.58,5.58,0,0,0-4.27.41,2.09,2.09,0,0,0-.89,3,2.72,2.72,0,0,0,3.39.78s.25-.15.22-.08c.28-.65.06.19.07,0l-.37-.12c-.43-.19-.48-.16-.14.08-.06-.11,1.33,1.58.09.11a7.4,7.4,0,0,1,.91,1.56,15.67,15.67,0,0,1,1.28,4.23,14.84,14.84,0,0,1-1.1,8.37,3.41,3.41,0,0,1-2.06,2.06.76.76,0,0,1-.56-.17,4.25,4.25,0,0,1-.89-1.15,13.68,13.68,0,0,1-1.21-3.71,15.36,15.36,0,0,1-.33-4.73,7.76,7.76,0,0,1,4.09-6.42,2.09,2.09,0,0,0,.89-3A2.72,2.72,0,0,0,140.17,327.58Z"/><path class="cls-1" d="M141.51,327.74c-1.89,1.15-3.79,2.49-4.67,4.61a5.33,5.33,0,0,0,1.7,6.11c4.17,3.39,9.91.89,13.14-2.59a16.42,16.42,0,0,0,3.75-6.44c.85-2.83-4-3.84-4.78-1.16q-.22.74-.51,1.44l-.18.4c.09-.19.08-.16,0,.07s-.21.39-.32.58a13.42,13.42,0,0,1-.84,1.28c-.13.18-.27.35-.4.52s-.19.23,0,.06l-.3.32c-.33.34-.68.67-1,1l-.6.48c-.08.06-.55.38-.21.16a14.78,14.78,0,0,1-1.51.83c-.27.11-.3.12-.09,0l-.35.11a5.87,5.87,0,0,1-.83.19c.49-.07-.2,0-.3,0-.3,0-.32,0-.06,0l-.39-.08c-.56-.1.34.21-.16-.05-.08,0-.65-.4-.45-.23s-.3-.29-.35-.34c.33.34,0-.09-.1-.18s-.13-.22,0,0c-.05-.12-.09-.24-.13-.36-.15-.44-.05.28,0-.19,0-.13,0-.26,0-.39,0,.26,0,.27,0,0,.05-.1.28-.6,0-.17a4.28,4.28,0,0,1,.37-.57A1.81,1.81,0,0,1,142,333c-.17.2-.17.2,0,0,.36-.33.72-.63,1.1-.93s-.28.17.18-.12c.22-.15.45-.29.68-.43a2.1,2.1,0,0,0,.89-3,2.69,2.69,0,0,0-3.39-.78Z"/><path class="cls-1" d="M166.25,346.24q0-10.12.1-20.24l-4.62,1.1a73.9,73.9,0,0,0,12.42,17.21c1.23,1.28,4.42.5,4.24-1.54a83.8,83.8,0,0,1,.67-20.81,2.26,2.26,0,0,0-1.74-2.69c-1-.25-2.84.25-3,1.53a88.33,88.33,0,0,0-.84,22l4.23-1.55A69.7,69.7,0,0,1,166,324.89c-1-2-4.61-1.09-4.62,1.11q0,10.11-.1,20.24c0,2.85,5,2.86,5,0Z"/><path class="cls-1" d="M148.64,13.45q4.35-2.92,8.69-5.86l-3.64-2.46-2.64,10.29a2.21,2.21,0,0,0,1.73,2.69L162,19.33c-.36-1.22-.73-2.44-1.09-3.65l-10.37,8a2,2,0,0,0,0,3.09,2.77,2.77,0,0,0,3.51,0l10.37-8a2.11,2.11,0,0,0-1.1-3.64L154.1,13.9l1.73,2.68,2.64-10.29a2.43,2.43,0,0,0-3.64-2.46l-8.69,5.85c-1,.68-1.64,1.84-.89,3a2.66,2.66,0,0,0,3.39.78Z"/><path class="cls-1" d="M121.1,20.3A7.07,7.07,0,0,0,127,27a7.74,7.74,0,0,0,5-.9,6.88,6.88,0,0,0,3.14-3.92,7,7,0,0,0-.7-5.45,2.66,2.66,0,0,0-3.39-.78,2.09,2.09,0,0,0-.89,3l.12.23-.13-.29a1.88,1.88,0,0,0,.16.43,4.45,4.45,0,0,1,.19.82l-.09-.58a5.2,5.2,0,0,1,0,1.42l.09-.58a4.91,4.91,0,0,1-.17.76c0,.13-.09.25-.14.37-.14.42.25-.4,0-.05s-.3.42-.44.64c.28-.45.23-.24.06-.07l-.28.25c-.15.12-.48.29.1-.05l-.32.19-.33.17c-.2.09-.53.13.13,0-.24.06-.48.13-.72.18-.47.1.64,0,.16,0h-.37a1.13,1.13,0,0,1-.37,0l.41.05-.24,0a2.11,2.11,0,0,1-.36-.09l-.12,0q-.36-.12.24.09c-.18-.12-.52-.16-.67-.34l.3.21-.2-.15-.28-.24a2.29,2.29,0,0,0-.27-.27l.22.26-.15-.19a5.25,5.25,0,0,1-.38-.58c-.24-.43.11.29,0,.08a3.65,3.65,0,0,1-.14-.35,5,5,0,0,1-.2-.78l.09.58c0-.2-.05-.41-.06-.61a2.5,2.5,0,0,0-5,0Z"/><path class="cls-1" d="M4.36,217.6C18.2,207.84,32,198.08,45.65,188l-1.76.64,57.91,6.81,91.88,10.81,21.07,2.48-2.48-2.19q-1.29,28-2.57,56.06-.18,4-.37,8l2.48-2.18-60.4-4.69-95.53-7.42-22-1.71L36,255.74,4.75,215c-1.67-2.19-6.14-.22-4.28,2.21l29.91,39.06c1.08,1.41,1.73,2.55,3.64,2.82,1,.15,2.1.16,3.14.24l16.64,1.3,58.85,4.57,64.1,5,23.06,1.79c3.79.3,7.69.91,11.49.9a4.21,4.21,0,0,1,.51,0,2.38,2.38,0,0,0,2.48-2.19q1.29-28,2.57-56.05.18-4,.37-8c.06-1.39-1.34-2-2.48-2.18l-68.33-8L52.31,185.3c-2.65-.31-5.63-1.08-8.31-1-2.15.08-4.11,2.29-5.76,3.49q-5.85,4.29-11.75,8.52C18,202.44,9.42,208.47.86,214.51-1.71,216.32,2.09,219.2,4.36,217.6Z"/></g></g></svg>