<svg xmlns="http://www.w3.org/2000/svg" viewBox="0 0 194.15 234.55"><defs><style>.cls-1{fill:#1a3869;}.cls-2{fill:#fff;}</style></defs><title>passport</title><g id="图层_2" data-name="图层 2"><g id="图层_9" data-name="图层 9"><path class="cls-1" d="M192.09,174.31A594.32,594.32,0,0,0,78.61,231.15c-29-49.1-55.82-98.35-75.86-150.54C43.31,61.46,86.78,41.69,127,21.78,149.43,71.6,170.58,122,192.09,174.31Z"/><path class="cls-2" d="M93.25,89.76a34.91,34.91,0,0,0-24.18,29.58C67.77,133,76,147,88.36,152.82c12.56,5.91,28.35,3.08,38.25-6.61s12.49-25.88,6.68-38.52c-6.88-15-24.43-22.3-40-17.93-2.64.74-1.52,4.85,1.13,4.11a30,30,0,0,1,33,11.94,30.45,30.45,0,0,1-.81,34c-7,9.7-20.41,14-31.86,10.86-11.77-3.23-20.7-14.6-21.44-26.74-.81-13.4,8.4-26.12,21.13-30C97,93.06,95.88,89,93.25,89.76Z"/><path class="cls-2" d="M74.07,114.55a44.33,44.33,0,0,0,36.85-19.92c1.5-2.31-2.18-4.44-3.68-2.15a39.93,39.93,0,0,1-33.17,17.81c-2.74,0-2.74,4.26,0,4.26Z"/><path class="cls-2" d="M98.64,153.52A40.54,40.54,0,0,1,131,133.92c2.72-.14,2.74-4.4,0-4.26A45,45,0,0,0,95,151.37c-1.4,2.36,2.28,4.51,3.68,2.15Z"/><path class="cls-2" d="M78,138.15a511.83,511.83,0,0,0,50.14-30.24c2.25-1.54.13-5.23-2.15-3.68a511.83,511.83,0,0,1-50.14,30.24c-2.42,1.29-.27,5,2.15,3.68Z"/><path class="cls-2" d="M88.18,97l27.28,51.77c1.28,2.42,5,.27,3.68-2.15L91.86,94.84c-1.28-2.42-5-.27-3.68,2.15Z"/><path class="cls-2" d="M78.92,99.26a55.13,55.13,0,0,0,29.53,55.59c2.43,1.25,4.59-2.43,2.15-3.68A51,51,0,0,1,83.18,99.26c.34-2.71-3.93-2.69-4.26,0Z"/><path class="cls-2" d="M101.18,92A72.59,72.59,0,0,1,124.52,143c.07,2.73,4.34,2.74,4.26,0A76.89,76.89,0,0,0,104.19,89c-2-1.86-5,1.15-3,3Z"/><path class="cls-2" d="M39.49,100c-2.16-4.24-4.35-8.48-6.26-12.85v2.15a9.87,9.87,0,0,1,.92-1.12c.11-.12.52-.49.5-.47s.66-.36.3-.21c.12,0,.83-.15.46-.14.11,0,.63,0,.26,0q.36.12.06,0c.21.13.23.13.05,0s0,.08.06.11a1.86,1.86,0,0,1,.07.34c0-.18,0-.14,0,.12s0,.31,0,.47c0-.15,0-.15,0,0a5.53,5.53,0,0,1-.19.78,2.2,2.2,0,0,1-.17.45,4.74,4.74,0,0,1-1.73,2A2.17,2.17,0,0,0,33,94.57a2.15,2.15,0,0,0,2.91.77A9.31,9.31,0,0,0,39.54,91a6.62,6.62,0,0,0-.07-5.75,4.73,4.73,0,0,0-5.35-1.92c-2,.56-3.37,2.24-4.57,3.86a2.15,2.15,0,0,0,0,2.15c1.91,4.37,4.1,8.61,6.26,12.85a2.15,2.15,0,0,0,2.91.77,2.18,2.18,0,0,0,.77-2.92Z"/><path class="cls-2" d="M51.53,95.33A80.1,80.1,0,0,1,49.37,80l-3.64,1.5L56.6,92.43c1.93,1.95,4.95-1.06,3-3L48.75,78.5A2.15,2.15,0,0,0,45.11,80a86.23,86.23,0,0,0,2.31,16.45,2.13,2.13,0,0,0,4.11-1.13Z"/><path class="cls-2" d="M51.14,93.24l4-2.36a2.23,2.23,0,0,0,1-1.27A2.18,2.18,0,0,0,55.89,88a2.11,2.11,0,0,0-1.27-1A2.23,2.23,0,0,0,53,87.2l-4,2.36a2.13,2.13,0,0,0-.77,2.91,2.13,2.13,0,0,0,1.28,1,2.23,2.23,0,0,0,1.64-.21Z"/><path class="cls-2" d="M57.59,72a6.78,6.78,0,0,0-2.54,6c.36,2.13,2.11,3.51,4,4.31.43.19.87.36,1.31.52l.6.23c.14.06.13,0,0,0l.39.18c.19.09.36.21.55.3.34.19-.07-.13.22.17.07.07.42.52.19.17.07.11.23.54.1.1,0,.16.08.33.13.49-.13-.42,0-.06,0,.12s-.09.46,0,.12c0,.17-.09.34-.14.5.13-.45,0,0-.07.12s-.31.38-.07.13a1.81,1.81,0,0,1-.24.24l.1-.07c-.18.08-.35.21-.53.29a2.14,2.14,0,0,0-.77,2.91,2.19,2.19,0,0,0,2.92.77,5.56,5.56,0,0,0,3-4.67,5.49,5.49,0,0,0-2.81-5.12,16.69,16.69,0,0,0-2.74-1.19l-.58-.22c.37.16-.16-.09-.23-.13s-.35-.2-.53-.3-.23-.15-.06,0l-.22-.19-.21-.21c.11.16.12.17,0,.05a1.65,1.65,0,0,1-.15-.25c.07.21.07.2,0-.06l-.05-.21c0,.22,0,.2,0,0-.14.39.05-.22.06-.26.11-.46-.13.13.12-.29.11-.19.22-.39.34-.57s.17-.25.08-.1l.15-.17c.21-.21.41-.43.63-.62a2.13,2.13,0,0,0-3-3Z"/><path class="cls-2" d="M68.45,66.28c-2,1.22-4,2.85-4,5.43a4.29,4.29,0,0,0,1.29,3.16c1.09,1,2.47,1,3.87,1.09a3,3,0,0,1,1.56.59,6.26,6.26,0,0,1,.52.51c.27.3,0-.14.17.24a5.77,5.77,0,0,1,.29.55c-.14-.34.07.3.09.38s0,.14,0,0c0,.14,0,.28,0,.41s0,.69,0,.27a4.42,4.42,0,0,1-.13.61c0,.13-.09.27-.14.4.07-.16.07-.17,0,0a2.67,2.67,0,0,1-1.47,1.5A2.13,2.13,0,0,0,72.66,85a7.11,7.11,0,0,0,1.63-11.35A7.55,7.55,0,0,0,71.38,72a6.94,6.94,0,0,0-1.69-.28H68.44a.08.08,0,0,1,.11,0c.07.06,0,0-.13-.07a.53.53,0,0,1,.27.24l-.09-.16c.1.23.11.23,0,0,0,.26,0,.26,0,0v-.19c0,.56.19-.35.06-.1s.14-.19.19-.24a4.79,4.79,0,0,1,.52-.49c.15-.12.81-.52,1.16-.73a2.13,2.13,0,1,0-2.15-3.68Z"/><path class="cls-2" d="M86.81,75.27c-2.46-3.88-4.64-7.91-6.84-11.94l-.33,2.58A7.73,7.73,0,0,1,80.77,65a4,4,0,0,1,.7-.38c-.41.16.71-.17.19,0q.34,0,.15,0l.15,0c.23.07.22.07,0,0,.2.12.2.11,0,0a2.59,2.59,0,0,1,.37.37c-.39-.48.21.56,0,0,.08.19.1.41.17.6s0,.12,0-.12c0,.12,0,.24,0,.36s0,.24,0,0c0,.14-.07.26-.11.39-.09.39.14-.14-.09.22,0,.07-.48.7-.24.39a3.47,3.47,0,0,1-.41.45c-.06,0-.65.53-.35.31-.22.16-.45.3-.68.44a2.13,2.13,0,1,0,2.15,3.68c3-1.76,5-5.27,3.31-8.65a4.78,4.78,0,0,0-4.27-2.59c-2,0-3.68,1.28-5.14,2.56a2.16,2.16,0,0,0-.33,2.58c2.2,4,4.38,8.06,6.84,11.94a2.13,2.13,0,1,0,3.68-2.15Z"/><path class="cls-2" d="M93.36,55.12a4.76,4.76,0,0,0-4.07,2.25,6.79,6.79,0,0,0-.72,4.9A16.3,16.3,0,0,0,92.16,70a7.29,7.29,0,0,0,3.66,2.67,4.24,4.24,0,0,0,4.7-1.73c1.41-2.22.7-5.41-.2-7.7a18.92,18.92,0,0,0-5.45-7.45,2.13,2.13,0,0,0-3,3,20.28,20.28,0,0,1,2.2,2.15l.27.33s.22.27.1.11.09.12.09.12l.25.34c.27.4.53.8.77,1.22s.45.83.65,1.26c0,.06.15.38,0,0,0,.09.07.18.11.28s.17.49.25.75a12.51,12.51,0,0,1,.32,1.24c0,.13,0,.25.07.38s.06.35,0,.11,0,.08,0,.1,0,.3,0,.44,0,.42,0,.63c0,.4.09-.24,0,.14,0,.11-.07.22-.1.33s.15-.33,0-.13.26-.23,0,0,.32-.18,0,0,.51-.14,0,0c0,0,.32.09.06,0,0,0-.45-.14-.24-.06a2.72,2.72,0,0,1-.84-.65c-.28-.29-.77-.85-.89-1s-.58-.83-.81-1.21-.45-.81-.65-1.24a2.55,2.55,0,0,1-.13-.29c.12.29,0,0,0-.09-.1-.27-.2-.53-.29-.81-.17-.55-.31-1.12-.43-1.69a6.59,6.59,0,0,1,0-1.28c0,.21.07-.25.08-.29.08-.34-.11.18,0-.08a2.69,2.69,0,0,1,.19-.32c.12-.21-.19.13,0,0,.05,0,.36-.26.14-.13s.3-.15,0,0,0,0,.08,0c-.42-.1,0,0,.15,0a2.14,2.14,0,0,0,2.13-2.13A2.17,2.17,0,0,0,93.36,55.12Z"/><path class="cls-2" d="M108.21,65.92c-1.76-4.46-3.53-8.92-5.55-13.26v2.15c.3-.53-.26.25.13-.21.1-.12.21-.16,0,0,.07-.05.56-.24.2-.13.06,0,.56-.1.3-.08s.33,0-.06,0c0,0,.53.14.31.07s.26.2,0,0c0,0,.42.46.2.15,0,0,.26.5.17.27s.06.26.07.31c-.06-.4,0,.19,0-.06s-.07.23-.09.29c.14-.37-.12.15-.16.19.22-.28-.19.1,0,0s-.29.16-.28.16c.31-.17-.11,0-.24,0a2.15,2.15,0,0,0-1.48,2.62,2.18,2.18,0,0,0,2.62,1.49,4.9,4.9,0,1,0-5.27-7.34c-.66,1.11-.25,2,.23,3.05.56,1.22,1.1,2.45,1.63,3.69,1.08,2.55,2.13,5.22,3.16,7.83a2.21,2.21,0,0,0,2.63,1.49,2.15,2.15,0,0,0,1.48-2.62Z"/><path class="cls-2" d="M104.1,60.76a18,18,0,0,1,2.25.75c.25.09-.42-.19-.07,0l.25.11.55.27c.36.18.72.38,1.06.59s.66.41,1,.62l.5.36c.22.17-.33-.26-.11-.08l.26.21a17.57,17.57,0,0,1,1.77,1.68,2.14,2.14,0,0,0,3,0,2.17,2.17,0,0,0,0-3,19.25,19.25,0,0,0-9.31-5.58,2.13,2.13,0,0,0-1.13,4.11Z"/><path class="cls-2" d="M112.24,49.32l8.8-4.26a2.14,2.14,0,0,0,.76-2.91,2.19,2.19,0,0,0-2.92-.77l-8.79,4.27a2.13,2.13,0,0,0-.76,2.91,2.17,2.17,0,0,0,2.91.76Z"/><path class="cls-2" d="M114.31,47q2.82,6.48,5.65,13a2.13,2.13,0,0,0,2.91.77,2.2,2.2,0,0,0,.77-2.92q-2.83-6.48-5.65-13a2.14,2.14,0,0,0-2.92-.76,2.19,2.19,0,0,0-.76,2.91Z"/><path class="cls-2" d="M55.55,170.46a194.94,194.94,0,0,1,12.52,23.81A2.15,2.15,0,0,0,71,195a2.19,2.19,0,0,0,.76-2.92,194.21,194.21,0,0,0-12.52-23.81c-1.44-2.33-5.13-.19-3.68,2.15Z"/><path class="cls-2" d="M73,202.62l2.7,4.17a2.26,2.26,0,0,0,1.27,1,2.18,2.18,0,0,0,1.64-.21,2.15,2.15,0,0,0,.77-2.92l-2.7-4.17a2.13,2.13,0,0,0-3.9.51,2.18,2.18,0,0,0,.22,1.64Z"/><path class="cls-1" d="M26.11,71a1.7,1.7,0,0,1-.81-.2l-6.05-3a1.83,1.83,0,0,1,1.63-3.27l6.05,3A1.83,1.83,0,0,1,26.11,71Z"/><path class="cls-1" d="M33.68,67.11a1.71,1.71,0,0,1-.82-.2l-8.64-4.32a1.83,1.83,0,0,1,1.63-3.27l8.65,4.33a1.83,1.83,0,0,1-.82,3.46Z"/><path class="cls-1" d="M39.33,64.45a1.71,1.71,0,0,1-.95-.27L29,58.44a1.82,1.82,0,1,1,1.91-3.11l9.35,5.74a1.82,1.82,0,0,1-1,3.38Z"/><path class="cls-1" d="M48.59,60a1.85,1.85,0,0,1-.88-.22L35.17,52.83a1.83,1.83,0,0,1,1.77-3.2l12.53,6.92A1.82,1.82,0,0,1,48.59,60Z"/><path class="cls-1" d="M55.94,55.87a1.75,1.75,0,0,1-.93-.26L41.83,47.83a1.82,1.82,0,1,1,1.85-3.14l13.19,7.78a1.83,1.83,0,0,1-.93,3.4Z"/><path class="cls-1" d="M.48,82.51c17.82,39.57,35.19,79.4,55.36,117.85q8.76,16.69,18.29,33a2.94,2.94,0,0,0,3.74.86c36.78-22.07,75.52-40.22,114.91-57.09a2.34,2.34,0,0,0,1.26-2.73Q162.4,97.47,131.3,20.33a2.91,2.91,0,0,0-4-1.44C85,38.26,43.19,58.5,1.36,78.77l3.32,3.78C32.56,56.17,60.45,29.79,89,4.12L84.42,3.05A160,160,0,0,0,99.58,33.37c1.65,2.58,6.56.42,4.73-2.43A153.58,153.58,0,0,1,89.7,1.77,2.91,2.91,0,0,0,85.12.71C56.58,26.38,28.69,52.76.81,79.14c-2.34,2.22.89,5,3.32,3.79C46,62.67,87.79,42.43,130,23.05l-4-1.44q31.24,77.09,62.74,154.06L190,173c-39.38,16.88-78.12,35-114.9,57.1l3.75.86c-28.13-48-50.29-99-73.09-149.68C4.51,78.45-.84,79.57.48,82.51Z"/></g></g></svg>