<svg xmlns="http://www.w3.org/2000/svg" viewBox="0 0 443.65 305.8"><defs><style>.cls-1{fill:#1a3869;}</style></defs><title>plane_1</title><g id="图层_2" data-name="图层 2"><g id="图层_9" data-name="图层 9"><path class="cls-1" d="M421.77,193.56a38.32,38.32,0,0,0-18.18,14,9.31,9.31,0,0,0-1.95,4.5A3.8,3.8,0,0,0,404,216c1.4.41,2.86-.31,4.14-1l27.38-14.72A124.72,124.72,0,0,0,421.77,193.56Z"/><path class="cls-1" d="M189.59,250.44a13.58,13.58,0,0,0-6.48,15.73c.52,1.63,3.09.93,2.57-.71a10.9,10.9,0,0,1,5.25-12.72c1.52-.79.18-3.09-1.34-2.3Z"/><path class="cls-1" d="M185.25,272.08c.47,1.18.93,2.35,1.39,3.53a1.47,1.47,0,0,0,.61.8,1.37,1.37,0,0,0,1,.13,1.31,1.31,0,0,0,.79-.61,1.29,1.29,0,0,0,.14-1c-.46-1.17-.93-2.35-1.39-3.53a1.42,1.42,0,0,0-.61-.79,1.32,1.32,0,0,0-1.82.47,1.29,1.29,0,0,0-.14,1Z"/><path class="cls-1" d="M237.72,200.85A15.89,15.89,0,0,1,253,187.75a1.33,1.33,0,0,0,0-2.66,18.55,18.55,0,0,0-17.8,15c-.31,1.68,2.26,2.4,2.57.71Z"/><path class="cls-1" d="M373.86,282.26a1,1,0,0,1-1-.91l-.77-8.17a1,1,0,0,1,.9-1.09,1,1,0,0,1,1.09.9l.77,8.18a1,1,0,0,1-.9,1.09Z"/><path class="cls-1" d="M369.83,289.57a1,1,0,0,1-1-.94l-.76-11.34a1,1,0,0,1,2-.13l.77,11.34a1,1,0,0,1-.93,1.06Z"/><path class="cls-1" d="M364.91,293.06a1,1,0,0,1-1-1l-.33-8.61a1,1,0,0,1,1-1,1,1,0,0,1,1,1l.33,8.61a1,1,0,0,1-1,1Z"/><path class="cls-1" d="M359.29,297h-.13a1,1,0,0,1-.87-1.11,37.37,37.37,0,0,0,.12-8.19,1,1,0,0,1,.9-1.08,1,1,0,0,1,1.09.9,40,40,0,0,1-.12,8.61A1,1,0,0,1,359.29,297Z"/><path class="cls-1" d="M353.44,300.15h0a1,1,0,0,1-1-1l.17-6.54a1,1,0,0,1,1-1h0a1,1,0,0,1,1,1l-.17,6.54A1,1,0,0,1,353.44,300.15Z"/><path class="cls-1" d="M345.81,301.78h-.11a1,1,0,0,1-.89-1.09l.44-4.36a1,1,0,1,1,2,.2l-.43,4.36A1,1,0,0,1,345.81,301.78Z"/><path class="cls-1" d="M269.05,297.41a.84.84,0,0,1-.27,0,1,1,0,0,1-.69-1.23,18.53,18.53,0,0,0,.43-7.7,1,1,0,0,1,.83-1.15,1,1,0,0,1,1.14.83,20.4,20.4,0,0,1-.48,8.55A1,1,0,0,1,269.05,297.41Z"/><path class="cls-1" d="M263.31,301.59h-.08a1,1,0,0,1-.92-1.08l.5-6a1,1,0,0,1,1.08-.91,1,1,0,0,1,.91,1.08l-.5,6A1,1,0,0,1,263.31,301.59Z"/><path class="cls-1" d="M257.14,304.09l-.22,0a1,1,0,0,1-.75-1.19l1.29-5.77a1,1,0,0,1,2,.44l-1.29,5.77A1,1,0,0,1,257.14,304.09Z"/><path class="cls-1" d="M249.1,305.25a.81.81,0,0,1-.31-.05,1,1,0,0,1-.64-1.25l1.83-5.64a1,1,0,0,1,1.9.62l-1.83,5.64A1,1,0,0,1,249.1,305.25Z"/><path class="cls-1" d="M243.6,304.08a1.1,1.1,0,0,1-.4-.08,1,1,0,0,1-.52-1.32l1.57-3.67a1,1,0,0,1,1.84.79l-1.58,3.67A1,1,0,0,1,243.6,304.08Z"/><path class="cls-1" d="M287.24,249.3a1,1,0,0,1-.74-.33l-2.75-3.06a1,1,0,0,1,1.49-1.34l2.74,3.06a1,1,0,0,1-.07,1.41A1,1,0,0,1,287.24,249.3Z"/><path class="cls-1" d="M284.85,252.31a1,1,0,0,1-.67-.25l-5.64-5a1,1,0,0,1,1.33-1.5l5.64,5a1,1,0,0,1,.08,1.42A1,1,0,0,1,284.85,252.31Z"/><path class="cls-1" d="M283.06,255.68a1,1,0,0,1-.67-.25l-7.67-6.87a1,1,0,1,1,1.33-1.49l7.67,6.87a1,1,0,0,1-.66,1.74Z"/><path class="cls-1" d="M266.32,255.08a175.77,175.77,0,0,1-3.92-21c-.45-3.59-.78-7.19-1-10.8-.18-2.81-.63-5.92,0-8.72a4.24,4.24,0,0,1,1.83-3c1.55-.82,3.46,0,4.89.73a43.88,43.88,0,0,1,7.58,4.91,51.09,51.09,0,0,1,11.62,13.12,1.65,1.65,0,0,0,2.05.48c20.24-8.89,40.5-17.79,61.29-25.32,10.34-3.74,20.8-7.15,31.41-10,10.11-2.73,21.23-5.3,31.7-3.19,8.28,1.67,16.48,5.91,23.13,11.06a20.13,20.13,0,0,1,3.26,2.85,2.91,2.91,0,0,1,.56,1.07,4.28,4.28,0,0,1-1.21,3.15c-2.66,3.41-6.86,5.78-10.54,7.9a195.11,195.11,0,0,1-18,8.94c-14.79,6.6-30,12.29-45.11,18-1.81.69-.1,2.89,1.52,2.28,14.24-5.39,28.5-10.75,42.45-16.86,6.54-2.86,13.05-5.86,19.29-9.34,4.27-2.39,8.85-5,12.16-8.68,2-2.23,3.47-5.29,1.32-8s-5.26-4.56-8-6.34a69.42,69.42,0,0,0-12.19-6.25c-9.69-3.77-19.72-3.7-29.85-1.84-11.29,2.08-22.38,5.68-33.24,9.35-24.36,8.22-47.94,18.56-71.47,28.89l2.05.47a51.92,51.92,0,0,0-16.45-16.76,22.49,22.49,0,0,0-7.11-3.43c-5-1-7.8,2.64-8.13,7.18a61.18,61.18,0,0,0,.31,8.77q.35,4.86,1,9.71a183.59,183.59,0,0,0,4,21.3c.4,1.63,3.32,1,2.89-.7Z"/><path class="cls-1" d="M339.27,240.93a104.46,104.46,0,0,1,38.35-8.48l-1.29-2c-6.93,10.32-14,20.76-23.05,29.33-4.47,4.22-9.67,8.55-15.41,10.93-3,1.22-6.4,1.11-7.67-2.28a13.3,13.3,0,0,1,0-7.58,60.13,60.13,0,0,1,9.6-20.41c1.07-1.51-1.62-2.7-2.58-1.33a63.74,63.74,0,0,0-9.72,20.28c-1.29,4.87-1.62,12,4.07,14.24,3.18,1.23,6.65,0,9.52-1.46a60.37,60.37,0,0,0,8.85-5.83,93.64,93.64,0,0,0,14.71-14.74c5.15-6.31,9.73-13.06,14.26-19.82.63-.93-.29-2-1.29-2a108.69,108.69,0,0,0-39.87,8.84C336,239.42,337.67,241.61,339.27,240.93Z"/><path class="cls-1" d="M274.32,265.92c1.26,3.91,5.43,5.5,9.26,5.17a32.41,32.41,0,0,0,7.17-1.83l8.11-2.64,32.08-10.42a1.33,1.33,0,1,0-.8-2.54l-27.85,9c-4.58,1.49-9.16,3-13.74,4.46-3.52,1.14-9.76,2.93-11.34-1.95-.52-1.6-3.44-1-2.89.7Z"/><path class="cls-1" d="M336.52,209.19a10.06,10.06,0,0,0-18.63-.08h2.89A13.39,13.39,0,0,0,295.1,207H298c-2.85-16.48-16.93-29.94-33.59-31.74-17.17-1.86-34.37,8.09-40.38,24.43a40.72,40.72,0,0,0,.76,29.33c.73-.5,1.46-1,2.2-1.49a13.81,13.81,0,0,0-14.73,2.15,13.29,13.29,0,0,0-3.32,14.47l2.2-1.49c-15.09-9.07-37.22.48-40.33,18a30.15,30.15,0,0,0,7,24.6,28,28,0,0,0,23.95,9.54c10.28-1,20.05-6.77,25.16-15.85l-2.8-.66c-.34,10.34,6,20.23,15.16,24.87,9.44,4.78,20.64,2.77,28.69-3.83A26.66,26.66,0,0,0,277.13,285l-2.74.31a20.21,20.21,0,0,0,35.91-2.48l-2.74.32A40.1,40.1,0,0,0,337,302.56a39.41,39.41,0,0,0,42.43-29.13l-2.5.58c8.82,8.55,22.24,14.83,34.12,8.42a17.47,17.47,0,0,0,9.19-13.38,13.47,13.47,0,0,0-6.35-13.39c-4.81-2.8-11.45-2.61-15.5,1.43l2.12,1.87c6.64-7.29,4.44-20-4.41-24.5-1.57-.79-3.25,1.4-1.52,2.28,7.12,3.61,9.24,14.39,3.81,20.35-1.27,1.4.9,3.09,2.12,1.87,3-3,7.58-3.22,11.25-1.36,4.17,2.12,6,6.68,5.51,11.19-1.16,11.09-13.3,15.38-22.91,12.8-5.9-1.58-11-5.24-15.31-9.45a1.59,1.59,0,0,0-2.51.58,37.36,37.36,0,0,1-20.88,24.59c-10.38,4.65-22.35,3.53-32.11-2.12a36.34,36.34,0,0,1-13.36-13.41c-.63-1.11-2.29-.69-2.74.31A17,17,0,0,1,277,283.94c-.57-.94-2.47-.86-2.74.31-2.09,9-9.62,16.14-18.49,18.33-9.29,2.29-18.66-1.95-24.11-9.62a24,24,0,0,1-4.53-14.66c0-1.37-2.16-1.79-2.79-.67-8.16,14.51-29.4,20-42.13,8.15a28.15,28.15,0,0,1-8.82-21.4,23,23,0,0,1,11.75-19c7.49-4.29,17-4.94,24.5-.41.92.55,2.66-.29,2.2-1.49A10.93,10.93,0,0,1,214,232a10.4,10.4,0,0,1,11.48-2.11c.91.39,2.74-.2,2.21-1.49-6.33-15.44-2.43-34.12,11.55-44,13-9.2,31-8.8,43.27,1.53a36.93,36.93,0,0,1,12.61,21.84c.25,1.44,2.46,1.09,2.89,0A10.68,10.68,0,0,1,309,201a10.91,10.91,0,0,1,8.85,8.77c.29,1.47,2.41,1.05,2.89,0a7,7,0,0,1,12.85.08c.68,1.53,3.61.92,2.89-.7Z"/><path class="cls-1" d="M420.52,192.28a66.41,66.41,0,0,0-12,7.33c-3,2.34-6,5-7.17,8.81-.93,3-.74,9.13,3.68,9,2.2-.05,4.61-1.92,6.5-2.91l7.38-3.85L435.65,202c1.72-.89.05-3.09-1.51-2.27l-15.33,8-7.95,4.14-4,2.07a5.45,5.45,0,0,1-1.55.8c-.79.07-.92-.25-1.19-1-1.64-4.45,2-8.6,5.18-11.2a61,61,0,0,1,12.7-7.95c1.76-.83.07-3-1.51-2.28Z"/><path class="cls-1" d="M289.46,242l-10.38,2.86q-2.64.72-5.27,1.47c-1.64.46-3.32.67-4.54,1.91-4.12,4.22-7.93,9.74-9.44,15.52-.61,2.33-.69,5.12,1.15,6.94,2,2,4.94,1.77,7.36.81,5.08-2,9.49-6.46,12.89-10.61a73,73,0,0,0,10.07-17.28c.71-1.62-2.22-2.23-2.89-.7-4,9.13-9.31,18-17.52,24-1.73,1.25-4.18,3.08-6.46,2.68-2.53-.44-2.12-3.71-1.6-5.49a34.62,34.62,0,0,1,8.07-13.46,3.55,3.55,0,0,1,1.57-1.15c.86-.3,1.78-.5,2.66-.75l5-1.39,10.13-2.79A1.33,1.33,0,1,0,289.46,242Z"/><path class="cls-1" d="M296.89,265.65q8.06-22.75,16.12-45.5c.59-1.68-2.33-2.29-2.89-.7Q302.07,242.21,294,265c-.59,1.68,2.33,2.29,2.89.7Z"/><path class="cls-1" d="M306.91,262.33l17.52-46.88c.62-1.67-2.3-2.28-2.89-.7L304,261.63c-.63,1.67,2.3,2.28,2.89.7Z"/><path class="cls-1" d="M344.72,261.78A27.55,27.55,0,0,0,354,251.56a1.27,1.27,0,0,0-.54-1.8,1.61,1.61,0,0,0-2,.47,26,26,0,0,1-1.63,2.74,28.1,28.1,0,0,1-1.88,2.43,25.14,25.14,0,0,1-2.27,2.23c-.4.35-.82.69-1.24,1-.21.17-.42.33-.64.48l-.55.38a1.29,1.29,0,0,0-.54,1.81,1.63,1.63,0,0,0,2.06.47Z"/><path class="cls-1" d="M357.07,246.11l2.25-2.25a1.21,1.21,0,0,0,0-1.87,1.64,1.64,0,0,0-2.12,0L355,244.25a1.29,1.29,0,0,0-.44.93,1.23,1.23,0,0,0,.44.93,1.63,1.63,0,0,0,1.06.39,1.65,1.65,0,0,0,1.06-.39Z"/><path class="cls-1" d="M4.45,112.8A39.55,39.55,0,0,0,34.53,79.56l-6.9.82c2.17,8.67,4.67,18,11.45,24.33,6.1,5.66,14.68,8,22.48,4.75,3.82-1.58.74-6.5-2.71-5.66C40,108.4,25.71,126,25.41,145.44c-.06,4.05,6.88,4,7,0,.36-9.44.77-20.62-5.52-28.43-5.68-7.07-14.8-9.28-23.41-10.29A3.34,3.34,0,0,0,0,109.81c0,2,1.81,2.9,3.51,3.1,6.48.75,14.05,2.52,18.06,8.16,4.88,6.84,4.14,16.42,3.84,24.37h7c.25-16.53,12.17-31.75,28.28-35.67-.9-1.89-1.81-3.77-2.71-5.66-5.89,2.43-12.5-1.43-16-6.09-4.23-5.58-5.9-12.62-7.57-19.28-.92-3.68-6.47-2.51-6.91.82A32.92,32.92,0,0,1,2.58,106.83C-1.86,107.85.26,113.76,4.45,112.8Z"/><path class="cls-1" d="M153.25,45c19.46-3.75,25.51-24.25,28.93-41.06.82-4.07-5.85-5.52-6.78-1.65-4.91,20.31,14.39,38,34.28,31.69L207,28.3A66.49,66.49,0,0,0,168.41,81c-.46,3.9,5.65,3.69,6.9.82,3.45-7.88,3.95-17,.4-25-4.21-9.38-12.88-14.93-22.46-17.8-4.13-1.24-6.22,4.66-1.86,6,7.86,2.36,15.15,7.12,18.2,15.05,2.54,6.63,1.74,13.73-1.05,20.13l6.9.82a60.16,60.16,0,0,1,35.08-47.33c3.68-1.64.79-6.77-2.71-5.66A20.07,20.07,0,0,1,182.18,3.91L175.4,2.26c-2.89,14.23-7.19,33.5-24,36.75C146.91,39.88,149.06,45.79,153.25,45Z"/></g></g></svg>