<svg xmlns="http://www.w3.org/2000/svg" viewBox="0 0 453.1 370.8"><defs><style>.cls-1{fill:#edbc2c;}.cls-2{fill:#fff;}</style></defs><title>资源 53</title><g id="图层_2" data-name="图层 2"><g id="图层_9" data-name="图层 9"><path class="cls-1" d="M52.11,207.19l.07.4.09.3h.31l.24,0,.22,0a11.88,11.88,0,0,1,1.22,0h.47a4.17,4.17,0,0,0,1-.07,14.38,14.38,0,0,0,1.73-.47c.48-.14,1-.31,1.57-.43.88-.19,1.78-.43,2.67-.66l.33-.09c.74-.19,1.51-.39,2.26-.56l.32-.06v-.32c0-.78-.11-1.56-.16-2.33s-.13-1.56-.17-2.35c0-.14,0-.29,0-.44v-.15a5.36,5.36,0,0,0-.32-2.13.79.79,0,0,0-.79-.44A5.45,5.45,0,0,0,61,198l-.29.13a20.35,20.35,0,0,1-4.54,1.41,8.3,8.3,0,0,1-1.1.15h-.13c-1.31.13-2.35.23-2.37,1.93a9.6,9.6,0,0,1-.16,1,18.42,18.42,0,0,0-.29,1.91l0,.39a10.94,10.94,0,0,0,0,2.14Z"/><path class="cls-1" d="M73.92,200.92l.08.29h.31l.31,0,.15,0a8,8,0,0,1,1.21,0h.55a4.66,4.66,0,0,0,.89-.07c.58-.12,1.13-.29,1.73-.47s1-.31,1.56-.44c.81-.18,1.62-.39,2.41-.59l.37-.1c.82-.21,1.66-.43,2.49-.61l.32-.07,0-.32c0-.79-.1-1.6-.16-2.32-.07-.87-.13-1.61-.17-2.36,0-.2,0-.4,0-.61a5,5,0,0,0-.33-2.12.76.76,0,0,0-.79-.44,5.58,5.58,0,0,0-2.13.71l-.27.13a20.59,20.59,0,0,1-4.53,1.41,9.4,9.4,0,0,0-3.51,2.21c-.17.16-.3.26-.39.34l-.16.12v.2a19.56,19.56,0,0,1,0,2.16l0,.34a10.12,10.12,0,0,0,0,2.2A4.61,4.61,0,0,0,73.92,200.92Z"/><path class="cls-1" d="M94.48,196l.09.29.29,0,.26,0,.22,0a6.74,6.74,0,0,1,1.21,0h.54a4.3,4.3,0,0,0,.89-.08,14.92,14.92,0,0,0,1.72-.46l.15-.05c.48-.15.94-.29,1.42-.39.9-.2,1.81-.43,2.64-.66l.17,0c.81-.21,1.63-.42,2.46-.6l.32-.07,0-.32c0-.77-.1-1.54-.16-2.29v0c-.08-.94-.13-1.66-.16-2.34,0-.2,0-.41,0-.62a5,5,0,0,0-.33-2.12.76.76,0,0,0-.79-.44,5.78,5.78,0,0,0-2.12.71l-.29.13a20.63,20.63,0,0,1-4.53,1.41,9.42,9.42,0,0,0-3.49,2.2l-.12.11a2.21,2.21,0,0,1-.28.23l-.16.13v.2a17.46,17.46,0,0,1,0,2.16l0,.36a10.31,10.31,0,0,0,0,2.16C94.4,195.54,94.43,195.81,94.48,196Z"/><path class="cls-1" d="M208.38,62.82c-.07-.78-.13-1.58-.17-2.37v-.3c0-.1,0-.21,0-.3a5.24,5.24,0,0,0-.34-2.14.78.78,0,0,0-.79-.42,5.46,5.46,0,0,0-2.13.71l-.27.13a20.57,20.57,0,0,1-4.53,1.4c-.4.08-.82.12-1.23.16-1.32.12-2.37.23-2.38,1.94a.62.62,0,0,1-.26.51l-.18.12v.22c0,.6,0,1.26,0,2.07l0,.34a10.67,10.67,0,0,0,0,2.19,4.52,4.52,0,0,0,.09.5l.08.31.31,0,.25,0,.23,0a7.69,7.69,0,0,1,1.2,0h.55a4.22,4.22,0,0,0,.88-.07,16.51,16.51,0,0,0,1.73-.47l.13,0c.47-.14.95-.29,1.44-.4.75-.16,1.49-.35,2.21-.54l.82-.21c.73-.19,1.49-.39,2.24-.55l.31-.07v-.32C208.5,64.35,208.44,63.57,208.38,62.82Z"/><path class="cls-1" d="M213.33,94.59l0-.48c-.06-.76-.12-1.54-.16-2.31,0-.19,0-.39,0-.6a5.41,5.41,0,0,0-.33-2.13.78.78,0,0,0-.8-.43,5.46,5.46,0,0,0-2.11.7l-.29.12a20.07,20.07,0,0,1-4.53,1.41,11.79,11.79,0,0,1-1.23.16c-1.32.13-2.36.23-2.38,1.93a.6.6,0,0,1-.26.53l-.18.12v.21c0,.61,0,1.29,0,2.08l0,.34a11.45,11.45,0,0,0,0,2.19l0,.1c0,.12,0,.28.08.39l.08.32.32,0,.29,0,.17,0a5.59,5.59,0,0,1,.62,0h1.09a5.12,5.12,0,0,0,.92-.07,16,16,0,0,0,1.78-.48,14.83,14.83,0,0,1,1.52-.42c.83-.18,1.65-.4,2.44-.6l.29-.08c.76-.19,1.65-.43,2.55-.63l.31-.08v-.32C213.44,95.84,213.39,95.2,213.33,94.59Z"/><path class="cls-1" d="M155.35,124.22l-.9.1a66,66,0,0,0-9.06,1.44A53.14,53.14,0,0,0,127.07,134c-3.26,2.38-8.18,6-10.47,10.6l-.4.8.86-.27c9.6-3,19.9-5.71,31.5-8.27,12.49-2.77,23.77-5.19,35.33-6.72l1.36-.17-1.25-.55a74.36,74.36,0,0,0-17.23-5.08A39.54,39.54,0,0,0,155.35,124.22Z"/><path class="cls-1" d="M210.83,78.66c-.05-.77-.12-1.57-.15-2.36,0-.2,0-.39,0-.61a5.31,5.31,0,0,0-.32-2.11.77.77,0,0,0-.8-.45,5.6,5.6,0,0,0-2.08.68l-.32.16a20.89,20.89,0,0,1-4.54,1.41,12,12,0,0,1-1.22.16c-1.32.12-2.37.22-2.38,1.92a.6.6,0,0,1-.26.52l-.18.12v.22a18.11,18.11,0,0,1,0,2.08l0,.48a10.14,10.14,0,0,0,0,2.06v.11a3.41,3.41,0,0,0,.08.37l.07.3H199l.24,0,.23,0a5.16,5.16,0,0,1,.73,0h1a5,5,0,0,0,.94-.07,15.1,15.1,0,0,0,1.73-.48c.51-.14,1-.31,1.56-.42.86-.19,1.67-.4,2.64-.66s1.74-.45,2.64-.64l.31-.07,0-.32C211,80.17,210.9,79.39,210.83,78.66Z"/><path class="cls-1" d="M289.47,255.5a100.26,100.26,0,0,1-11-6.74l-.15-.12-.19.07c-5.44,1.78-10.63,3.53-16.33,5.52l-.74.25.66.43c2.09,1.35,4.29,2.53,6.42,3.68l.45.25,2.93,1.6A50.3,50.3,0,0,0,277,263l.47.2c1,.42,2.08.86,3.1,1.34l.15.06,1.27-.47,2.76-1,7.18-2.67,3.61-1.35.88-.33-.86-.38C293.36,257.38,291.41,256.5,289.47,255.5Z"/><path class="cls-1" d="M274.73,264.17l-.39-.17c-1.92-.86-3.91-1.74-5.83-2.74a91.31,91.31,0,0,1-9.73-5.84l-.16-.11-3.31,1.15-4.84,1.69-10.79,3.77-.27.09-.81.3.71.4.16.1c2.3,1.54,4.76,2.85,7.12,4.13l1.13.61,2.07,1.13a49,49,0,0,0,5.41,2.51l.15.06c1.26.51,2.39,1,3.51,1.51l.15.07.14-.06c3.36-1.27,7-2.66,11.56-4.4l4.06-1.54,3.18-1.22-1.64-.73C275.78,264.63,275.24,264.4,274.73,264.17Z"/><path class="cls-1" d="M309.79,248.7a95.47,95.47,0,0,1-10.66-6.49l-.16-.1-1.87.58c-4.44,1.38-10,3.09-15.16,4.77l-.36.11-.86.26.64.44c.26.19.51.36.77.53,2.24,1.49,4.62,2.78,6.91,4l.29.16c.93.5,2,1.09,3.12,1.7a49.64,49.64,0,0,0,5.56,2.55c.33.14.65.28,1,.41l.13.05.13-.05c6.86-2.54,11.59-4.26,15.81-5.73l.91-.32-.88-.39C313.39,250.45,311.58,249.63,309.79,248.7Z"/><path class="cls-1" d="M213.8,286.43c-1.26-.58-2.58-1.17-3.74-1.69-2.22-1-4.22-1.87-6.19-2.89-2.32-1.19-4.66-2.54-7.15-4.14l-.17-.11-.18.07c-4.94,1.9-10.13,3.91-15.86,6.18l-.75.3.71.39,1,.56,1.05.57c.95.51,1.93,1,2.88,1.57a46.56,46.56,0,0,0,5.56,2.55c1.32.55,2.73,1.13,4.08,1.79a23.59,23.59,0,0,1,4.09,2.71l.17.13.71-.25,1.31-.48c4-1.45,8-2.95,11.94-4.41l3.37-1.25-.67-.41C215.25,287.17,214.54,286.78,213.8,286.43Z"/><path class="cls-1" d="M336.85,244.53l-.87-.39c-1.82-.81-3.1-1.42-4.3-2a97.38,97.38,0,0,1-11.09-6.76l-.16-.11-.32.11-2.95,1c-4.36,1.43-9,2.9-15,4.76l-.75.24.76.51.22.15c2.41,1.59,5,3,7.21,4.17l.48.26c.87.47,1.76,1,2.63,1.45a54.53,54.53,0,0,0,5.57,2.56l.46.18.13,0c2.29-.79,4.41-1.5,6.67-2.25,3.86-1.27,7.25-2.41,10.35-3.49Z"/><path class="cls-1" d="M231.5,279l-.21-.1c-2-.87-4-1.78-6-2.79a96.32,96.32,0,0,1-9.36-5.59l-.15-.11-.18.07c-5.85,2.13-11.05,4.06-15.91,5.91l-.76.28.71.41c1.37.79,2.8,1.56,4.06,2.24l.44.24c.89.47,1.79,1,2.68,1.46a48.27,48.27,0,0,0,5.48,2.52l.07,0c1.35.55,2.74,1.13,4.09,1.79a16.83,16.83,0,0,1,2.59,1.59l.16.12.2-.07c6.71-2.48,11.38-4.17,15.64-5.68L236,281l-.85-.39C233.84,280.05,232.62,279.5,231.5,279Z"/><path class="cls-1" d="M253.94,272.82l-.92-.41c-1.94-.86-4.13-1.83-6.21-2.9a98,98,0,0,1-10.39-6.29l-.16-.11-.18.07c-6.74,2.35-12.2,4.29-17.19,6.1l-.73.27.66.41c2.11,1.33,4.37,2.56,6.37,3.64l.56.31c.84.45,1.69.91,2.53,1.38a48.46,48.46,0,0,0,5.39,2.48l.3.13c1.31.53,2.67,1.09,3.94,1.72.24.12.47.24.65.35l.15.09.17-.06,1.28-.44,2.67-.92c3.84-1.3,7.83-2.72,12.54-4.47l.87-.32-.85-.38Z"/><path class="cls-1" d="M259.89,208.43l.05,0a40.88,40.88,0,0,1,4.54,3.39c1,.93,2.1,1.86,3.24,2.84l.17.14.21-.08c6.6-2.54,12.17-4.61,17.52-6.55l.6-.21-.47-.43-1.28-1.17a30.9,30.9,0,0,0-4.48-3.33l0,0a32,32,0,0,1-4.16-3l-.16-.15-.21.06c-5.19,1.57-10.51,3.08-15.65,4.54l-.2.06-2.38.67-1.28.36.58.47C257.56,206.85,258.66,207.61,259.89,208.43Z"/><path class="cls-1" d="M281.79,201.82l.24.17a41,41,0,0,1,4.34,3.26c.64.58,1.32,1.18,2,1.77l.16.15.21-.08c5.42-1.91,10.42-3.59,15.3-5.14l.66-.2-.53-.45c-1.35-1.14-2.37-2-3.31-2.93a30.82,30.82,0,0,0-4.48-3.32l-1.42-.94-.16-.09-.17,0c-.31.09-.64.18-.95.25l-.56.13-.67.2a18.23,18.23,0,0,1-2.28.71.81.81,0,0,1-.41,0l-.12,0-.12,0c-3.44,1.21-7,2.37-10.82,3.56l-.7.22.59.45C279.64,200.37,280.74,201.12,281.79,201.82Z"/><path class="cls-1" d="M228.8,58.36c-.06-.78-.14-1.59-.18-2.4,0-.2,0-.39,0-.61a5.05,5.05,0,0,0-.33-2.12.75.75,0,0,0-.78-.43,5.64,5.64,0,0,0-2.14.71l-.27.13a20.58,20.58,0,0,1-4.54,1.4,11.56,11.56,0,0,1-1.22.17c-1.31.12-2.36.21-2.37,1.92a.62.62,0,0,1-.27.52l-.19.12,0,.22c0,.61,0,1.3,0,2.07l0,.32a11.89,11.89,0,0,0,0,2.23l0,.09c0,.12.05.29.08.4l.09.32.32,0,.18,0,.27,0a5.66,5.66,0,0,1,.63,0h.75l.37,0a4.7,4.7,0,0,0,.9-.08c.55-.12,1.09-.27,1.72-.47l.13,0c.47-.14,1-.29,1.44-.4.88-.19,1.76-.42,2.64-.65s1.73-.45,2.62-.65L229,61v-.32C228.92,59.89,228.86,59.12,228.8,58.36Z"/><path class="cls-1" d="M290.86,209.15l.51.43c1.38,1.14,2.7,2.2,3.93,3.14,1.79,1.38,3.76,3,6,4.83l.16.14.21-.08c2.9-1.09,5.58-2,8.19-2.86,2.35-.76,4.76-1.53,6.89-2.2l.67-.21-.54-.44c-2-1.65-4.21-3.5-7.19-6-.7-.6-1.42-1.19-2.11-1.75l-.5-.42-.2.07c-4.79,1.49-9.83,3.17-15.4,5.16Z"/><path class="cls-1" d="M303.76,219.58l.51.43c3.2,2.69,6.53,5.46,9.93,8l1,.76c1.5,1.13,3.21,2.41,4.9,3.64l.16.12.19-.06c3.6-1.25,6.77-2.45,9.69-3.67,1.59-.67,3.26-1.37,5-2.11l.62-.27-.55-.39c-2.39-1.7-4.76-3.49-6.56-4.85-2.79-2.11-5.63-4.34-8.68-6.8l-.16-.13-.2.06c-4.88,1.53-10.08,3.18-15.21,5Z"/><path class="cls-1" d="M334.25,229.74c-3.51,1.46-7.15,3-10.78,4.35l-.65.24.57.42.95.65c2.32,1.54,4.8,2.87,7.19,4.17l3.13,1.7a43.25,43.25,0,0,0,4.8,2.25l.14,0,.14,0c2.16-.77,4.16-1.48,6.26-2.25,1.12-.41,2.27-.86,3.33-1.29,1.7-.67,3.61-1.42,5.52-2l1-.31-.95-.4-.48-.22-.12-.05c-1.92-.85-4.1-1.81-6.2-2.89a95.24,95.24,0,0,1-9.75-5.86l-.16-.11-.19.08-3.42,1.41Z"/><path class="cls-1" d="M221.52,94.44l.08.29h.31l.23,0,.24,0a6.56,6.56,0,0,1,1.2,0h.48a6.05,6.05,0,0,0,1-.07c.55-.11,1.06-.27,1.61-.43l.13,0c.45-.14,1-.31,1.54-.43.88-.2,1.7-.41,2.7-.67.82-.22,1.69-.44,2.58-.64l.31-.07V92c0-.77-.11-1.55-.17-2.31l0-.58c-.05-.59-.09-1.19-.13-1.77v-.68a5.09,5.09,0,0,0-.32-2.06.8.8,0,0,0-.8-.44,5.43,5.43,0,0,0-2.14.71L230,85a21.14,21.14,0,0,1-4.53,1.41c-.4.07-.8.11-1.24.16-1.36.13-2.36.22-2.37,1.92a.62.62,0,0,1-.27.53l-.17.11v.22c0,.61,0,1.3,0,2.09l0,.36a10.25,10.25,0,0,0,0,2.15S221.47,94.24,221.52,94.44Z"/><path class="cls-2" d="M33.18,192.51l.61-.76c4-5,9.31-8.71,14.48-12.34l1.5-1.06c6.59-4.65,13.25-8.9,19.78-12.62a237.56,237.56,0,0,1,43.69-19.36l1.25-.4.07-.18c1.71-5.15,6.35-9.06,11.12-12.53a55.41,55.41,0,0,1,18.17-8.59,74.38,74.38,0,0,1,11.3-1.88,58.34,58.34,0,0,1,6.09-.38,28.68,28.68,0,0,1,5,.4,76.14,76.14,0,0,1,21.31,6.67.7.7,0,0,1,.16.1l.12.1.16,0c10.9-1.21,22-1.53,32.67-1.83l3.79-.11c2.07-.07,4-.1,5.78-.1a65.83,65.83,0,0,1,13.37,1.14l2.11.42a61.43,61.43,0,0,1,13.05,3.67l.54.25,0-2.47c0-1.84-.06-3.71-.07-5.31v-.7c0-3.67-.09-7.46-.28-11.18l-.14-2.48c-.24-4.35-.51-9.29-.51-14.08,0-3,0-6.06,0-9V86.77c0-8.13-.05-16.53.21-24.79.07-2.07.19-4.18.31-6.22l.05-.93c.19-3.28.38-6.67.38-10V29.46l-.46.11-1.79.41-.93.21c-3.26.74-6.63,1.5-9.8,2.47l-.71.21-1.91.59-.48.15c-3.58,1.1-7.28,2.23-11,3.12-8.78,2.08-19.2,4.47-30,6.41-13.15,2.37-26.91,5-38,7.11l-1.91.37c-15.92,3-32.37,6.17-48.6,9-4.43.75-9,1.51-13,2.16-10.22,1.67-20.79,3.4-31.13,5.54-6.81,1.41-14.06,2.89-21.27,4.18-1.35.24-2.72.5-4,.76l-.85.17a106.21,106.21,0,0,1-14.74,2.17l-.43,0,.07.42a77.54,77.54,0,0,1,.55,15l-.06,2.14c-.13,5.64-.08,11.39,0,17l0,3c.14,15.75.44,28.92,1.44,42.07.4,5.18.87,10.47,1.29,15.13l0,.32c.64,7.17,1.29,14.58,1.75,21.95ZM219.68,87a.51.51,0,0,1,.11-.47c.47-.64,2.42-1.29,3.62-1.34a19.67,19.67,0,0,0,6.43-1.73l.16-.06c.44-.17.88-.35,1.3-.5a3.65,3.65,0,0,1,1.32-.27c.78,0,1.78.36,2.16,2.08a37.65,37.65,0,0,1,.56,7.21v.84a.73.73,0,0,1-.61.8c-1.57.29-3.17.75-4.58,1.14l-.06,0a30.44,30.44,0,0,1-8,1.48l-.88,0c-1.14-.06-1.24-2.15-1.27-3s0-1.41,0-2.07v-.11A13.36,13.36,0,0,0,219.68,87Zm12.6-8.94c-1.5.28-3,.71-4.5,1.12l-.09,0a30,30,0,0,1-8.07,1.49l-.87,0c-1.15-.07-1.24-2.24-1.27-3v0c0-.6,0-1.2,0-1.78v-.29a13.19,13.19,0,0,0-.28-4.12.55.55,0,0,1,.11-.45c.48-.66,2.42-1.3,3.62-1.35A20.25,20.25,0,0,0,227.41,68h.05c.46-.19.91-.37,1.38-.54a3.69,3.69,0,0,1,1.32-.28c.77,0,1.77.36,2.14,2.09a36.75,36.75,0,0,1,.58,7.33l0,.72A.75.75,0,0,1,232.28,78.1Zm-2.47-15.83c-1.51.27-3,.7-4.51,1.11l-.07,0a30,30,0,0,1-8.06,1.48l-.88,0c-1.17-.06-1.25-2.25-1.28-3s0-1.29,0-1.91v-.14a13.46,13.46,0,0,0-.28-4.14.52.52,0,0,1,.11-.45c.47-.65,2.42-1.29,3.62-1.34a20.06,20.06,0,0,0,6.5-1.77l1.39-.54a3.88,3.88,0,0,1,1.32-.27c.77,0,1.78.36,2.15,2.08a36.62,36.62,0,0,1,.58,7.26v.8A.75.75,0,0,1,229.81,62.27Zm-14.87,35a.74.74,0,0,1-.61.8c-1.53.28-3.09.72-4.62,1.15a30.2,30.2,0,0,1-8,1.49q-.43,0-.87,0c-.8,0-1.23-1-1.27-3,0-.63,0-1.27,0-1.89v-.17a13.12,13.12,0,0,0-.29-4.1.5.5,0,0,1,.11-.46c.48-.65,2.42-1.3,3.61-1.34A20.43,20.43,0,0,0,209.49,88l.18-.08,1.22-.47a3.93,3.93,0,0,1,1.32-.27c.78,0,1.77.37,2.15,2.08a38.2,38.2,0,0,1,.57,7.34ZM211.87,82.6c-1.56.28-3.17.74-4.61,1.14h0a30,30,0,0,1-8,1.48h0l-.85,0c-1-.06-1.22-1.71-1.27-3,0-.62,0-1.21,0-1.79v-.3A13.82,13.82,0,0,0,196.8,76a.57.57,0,0,1,.1-.45c.49-.66,2.42-1.3,3.62-1.36A19.42,19.42,0,0,0,207,72.49l.6-.23c.29-.11.58-.23.87-.33a3.6,3.6,0,0,1,1.32-.28c.77,0,1.78.36,2.15,2.09a38.13,38.13,0,0,1,.57,7.32v.73A.75.75,0,0,1,211.87,82.6ZM209.4,66.75c-1.47.27-3,.69-4.39,1.08l-.2.06a30,30,0,0,1-8.06,1.5c-.3,0-.59,0-.88,0-1.15-.07-1.25-2.24-1.28-3v0c0-.65,0-1.3,0-1.92v-.14a13.07,13.07,0,0,0-.28-4.13.52.52,0,0,1,.11-.45c.47-.65,2.42-1.3,3.62-1.35a20.16,20.16,0,0,0,6.49-1.75l1.41-.55a3.82,3.82,0,0,1,1.31-.28c.78,0,1.78.37,2.16,2.1a37.38,37.38,0,0,1,.56,7.19l0,.86A.77.77,0,0,1,209.4,66.75Z"/><path class="cls-1" d="M231.28,74.49l0-.42c-.06-.74-.12-1.51-.15-2.26a2.71,2.71,0,0,1,0-.29c0-.11,0-.2,0-.3a5.16,5.16,0,0,0-.32-2.11.77.77,0,0,0-.8-.47,5.62,5.62,0,0,0-2.14.71l-.26.13A20,20,0,0,1,223,70.89a9.52,9.52,0,0,1-1.18.15h-.05c-1.32.12-2.35.22-2.37,1.93a.58.58,0,0,1-.27.51l-.18.12v.22a20.61,20.61,0,0,1,0,2.07l0,.35a10.81,10.81,0,0,0,0,2.2l0,.11c0,.12,0,.27.07.38l.08.31.33,0,.29,0,.16,0c.19,0,.4,0,.66,0h1.07a4.47,4.47,0,0,0,.91-.07,15.55,15.55,0,0,0,1.59-.42l.15,0a15.75,15.75,0,0,1,1.55-.44c.87-.19,1.73-.41,2.68-.66l.25-.07c.77-.19,1.56-.4,2.35-.58l.32-.07,0-.32C231.39,75.82,231.33,75.15,231.28,74.49Z"/><path class="cls-1" d="M192.4,292.65c-1.25-.59-2.57-1.17-3.73-1.69-2-.91-4.16-1.84-6.2-2.9-1.61-.82-3.26-1.75-5.05-2.83l-.16-.1-.17.07c-4,1.59-8.05,3.21-12,4.8l-4.33,1.72,1,.54c1.18.64,2.21,1.19,3.14,1.71a51.52,51.52,0,0,0,5.56,2.56l.45.19c1.21.5,2.45,1,3.63,1.59a24,24,0,0,1,4.45,3l.16.12.2-.06c6.63-2.24,12-4.09,16.83-5.81l.7-.25-.61-.42A26,26,0,0,0,192.4,292.65Z"/><path class="cls-1" d="M171.84,299.39c-1.19-.57-2.41-1.11-3.58-1.63l-.16-.07c-2.22-1-4.21-1.87-6.2-2.89-1-.53-2.16-1.15-3.56-2l-.16-.09-1.06.42-2.61,1.05-1.61.65c-2.9,1.16-5.91,2.37-8.9,3.51l-.79.3.75.39c1.61.84,3.34,1.55,4.88,2.19,1.35.55,2.74,1.12,4.07,1.77a27.4,27.4,0,0,1,4.89,3.36l.37.29c.49.39,1,.78,1.49,1.15l.15.13.19-.06,4.87-1.64.61-.21,2.45-.83.18-.07,6.07-2,2.43-.82-.61-.43A27.2,27.2,0,0,0,171.84,299.39Z"/><path class="cls-1" d="M239.53,215.19l.05,0a44.46,44.46,0,0,1,4.59,3.43c1.31,1.19,2.68,2.39,4.1,3.58l.17.14.21-.08,2.84-1.1,2.84-1.1,2.23-.87,8.48-3.29.59-.23-.48-.41c-1-.89-1.85-1.62-2.57-2.3a29.5,29.5,0,0,0-4.49-3.33,30.18,30.18,0,0,1-4.43-3.28l-.16-.15-.2.07c-5.57,1.6-11.57,3.36-17.63,5.33l-.66.21.53.44A48.76,48.76,0,0,0,239.53,215.19Z"/><path class="cls-1" d="M157.19,364.18c-6-3.43-11.09-8.26-15.38-12.51a95,95,0,0,0-12.2-9.69c-1.1-.78-2.37-1.69-3.6-2.59-3.06-2.23-6.35-4.18-9.53-6.06l-.19-.11c-2.5-1.48-5.09-3-7.56-4.67a51,51,0,0,1-7.71-6.26,53.77,53.77,0,0,0-5.24-4.36l-.09-.07c-.71-.54-1.44-1.1-2.14-1.66a32.56,32.56,0,0,0-5.67-3.41l-.33-.18c-.89-.45-1.79-.92-2.68-1.44-1.38-.8-2.75-1.68-4.07-2.52l-.35-.22c-1.49-1-2.94-1.89-4.43-2.76a98.29,98.29,0,0,1-17-12.27c-2.47-2.24-4.93-4.59-7.29-6.87l-.72-.7c-2.22-2.13-4.52-4.34-6.82-6.45a123.27,123.27,0,0,0-15.91-12.93l-.44-.3-1.37-.89c-5-3.29-10.15-6.68-16.12-8.09l-.39-.1-.07.41a8.42,8.42,0,0,0-.12,2.84c.37,2,1.68,3.06,3.67,4.1s4.08,1.94,6.1,2.81l.16.07c1,.44,2.1.91,3.17,1.39a32.77,32.77,0,0,1,8.46,5.16c1.26,1.12,2.56,2.26,3.56,3.13l.1.09c1.21,1.05,2.45,2.14,3.66,3.22,2.27,2,4.62,4,6.88,6l.75.64c2.7,2.32,5.49,4.71,8.18,7.13a136.67,136.67,0,0,0,16,12.33l4.82,3.19,1.57,1c4,2.6,8.19,5.37,12.19,8.15,2.36,1.63,4.93,3.22,7.18,4.63l.22.12a119.13,119.13,0,0,1,10.07,6.79c2.79,2.17,5.7,4.26,8.7,6.38l.17.12c2.73,1.95,5.55,4,8.25,6.06,5.1,3.95,10.68,8,17.57,12.82l1.08.75,1,.69c4.41,3.12,9,6.34,14.19,8.11l3.58,1.2-3.27-1.89-.21-.12Z"/><path class="cls-1" d="M229.29,232.35l-.2.07c-6.2,2.31-11.64,4.26-17.11,6.15l-1.54.51-.95.32.57.44.2.16.17.14c3,2.26,5.83,4.67,8.62,7l.22.19.21-.06,9.12-2.92,3.43-1.1,6.79-2.17.67-.21-.54-.45c-2.61-2.13-5.5-4.53-8.83-7.37Z"/><path class="cls-1" d="M132.41,247.68l.17.12a41.29,41.29,0,0,1,4.58,3.42c2.24,2,4.46,3.92,6.63,5.66l.16.12.19-.06c6.08-1.9,11.56-3.6,17.78-5.48l.67-.21-.55-.45c-1.61-1.32-3.6-3-5.37-4.65a30,30,0,0,0-4.46-3.3l-.06,0c-1.11-.72-2.25-1.47-3.3-2.31l-.15-.12-.18.05c-.26.07-.51.13-.75.21l-1.41.4c-5.39,1.51-10.51,2.9-16.1,4.39l-.77.2.64.47C130.88,246.65,131.66,247.17,132.41,247.68Z"/><path class="cls-1" d="M175.4,235.83a42.5,42.5,0,0,1,4.6,3.43c1.82,1.65,3.7,3.27,5.58,4.81l.15.13.2-.06c7.17-2.21,12.91-4,18.1-5.73l.66-.21-.54-.44c-1.49-1.23-3.07-2.55-4.54-4a31,31,0,0,0-4.48-3.32l-.1-.06a33.37,33.37,0,0,1-4-2.9l-.17-.15-.78.26-1,.32-3.95,1.24-4.24,1.34q-4.12,1.32-8.27,2.61l-.71.23.59.44C173.46,234.51,174.46,235.2,175.4,235.83Z"/><path class="cls-1" d="M153.91,241.54l.23.16a41.94,41.94,0,0,1,4.42,3.3c2,1.8,4.1,3.62,6.29,5.39l.16.13,8.59-2.62,9.06-2.76.68-.21-.55-.45c-1.44-1.18-3.11-2.58-4.69-4.08a29,29,0,0,0-4.32-3.21l-.2-.13a36.17,36.17,0,0,1-3.9-2.8l-.16-.14-.2.07c-6.75,2.09-12.27,3.77-17.37,5.25l-.76.21.64.46C152.51,240.6,153.22,241.08,153.91,241.54Z"/><path class="cls-1" d="M196.92,229.24a40.92,40.92,0,0,1,4.58,3.42c1.8,1.62,3.62,3.18,5.39,4.64l.16.13.2-.07c6.86-2.26,13.13-4.43,19.17-6.63l.63-.23-.52-.42c-1.71-1.41-3.53-2.91-5.23-4.53a30.82,30.82,0,0,0-4.47-3.32,38,38,0,0,1-3.54-2.48l-.17-.14-.2.08c-5.66,2.07-12.25,4.46-19,6.7l-.69.23.58.44C194.86,227.84,196,228.59,196.92,229.24Z"/><path class="cls-1" d="M218.1,220.64l.59.4a41.51,41.51,0,0,1,4.52,3.38c1.83,1.65,3.82,3.37,5.94,5.11l.17.14.21-.08c5-1.85,10.08-3.79,16.07-6.11l.6-.24-.5-.41c-1-.81-2.22-1.89-3.44-3a30,30,0,0,0-4.38-3.26l-.12-.08a29.57,29.57,0,0,1-4.47-3.32.89.89,0,0,1-.22-.29l-.15-.28-1.08.34-1.14.39c-4.78,1.66-9.43,3.35-14.58,5.24l-.66.24.56.42C216.69,219.69,217.41,220.18,218.1,220.64Z"/><path class="cls-1" d="M281.17,225.6l.17.15.21-.09c2.74-1.1,5.22-2.11,7.57-3.08,3.75-1.54,6.6-2.69,9.24-3.71l.6-.23-.5-.41c-2-1.69-3.66-3.08-5.17-4.36-1-.87-2.1-1.75-3-2.5l-1.17-1-.54-.44-.2.08c-6.2,2.23-12.27,4.55-17.47,6.54l-.62.23.51.42c1,.82,1.85,1.48,2.63,2.08C276.12,221.4,278.74,223.57,281.17,225.6Z"/><path class="cls-1" d="M298.8,239.46l.18-.06c3.43-1.07,6.85-2.15,10.48-3.3l.5-.15c2.33-.75,4.76-1.51,7.19-2.33l.71-.23-.6-.44c-1.36-1-2.82-2.06-5-3.73-3.36-2.54-6.89-5.34-10.81-8.55l-.16-.14-.46.17c-.26.09-.5.19-.75.29-4.42,1.71-8.88,3.55-13.19,5.34l-.42.18-1,.41-1.21.51-.58.24.48.4c2.2,1.82,5.2,4.32,8.19,6.56l1.16.87c1.69,1.27,3.43,2.58,5.17,3.84Z"/><path class="cls-1" d="M268,217.69l-3.23,1.23-11.68,4.47-2.38.89.52.41c.74.59,1.3,1,1.84,1.43,3.08,2.37,6.13,4.93,8.58,7l.17.14.2-.08c5.35-1.95,10.8-4,16.23-6.18l.59-.24-.49-.41c-2.07-1.71-4.3-3.57-7-5.85-.89-.76-1.81-1.52-2.71-2.26Z"/><path class="cls-1" d="M137.44,298l-.71-.42a155.59,155.59,0,0,1-15.89-10.93l-1.14-.87-.39-.29-.21.09c-1.28.6-2.58,1.23-3.83,1.84l-1.12.54c-3.31,1.62-6.72,3.29-10.16,4.68l-.81.15.59.52c.74.67,1.86,1.65,3,2.55,2.4,1.85,4.8,3.79,6.92,5.51l2.31,1.87.3.24.2-.07a101.8,101.8,0,0,0,20.15-5.14Z"/><path class="cls-1" d="M150.23,304.1c-1.23-.58-2.46-1.12-3.73-1.68l-.25-.11c-1.82-.81-3.7-1.65-5.53-2.58l-.14-.07-.16.06a119,119,0,0,1-20.34,5.74l-.91.16.76.53c2.1,1.45,4.39,2.9,7,4.4.6.36,1.19.78,1.71,1.15l.05,0a12.75,12.75,0,0,0,3.06,1.78A13.75,13.75,0,0,1,135,315l.07,0a1.11,1.11,0,0,1,.39.24l.1.1h.21a16.93,16.93,0,0,0,6-1.53l.77-.3.44-.16c2.63-1,5.47-2,8.42-2.8,1.52-.42,3.19-.91,5.23-1.56l.7-.22-.58-.44A35.51,35.51,0,0,0,150.23,304.1Z"/><path class="cls-1" d="M103.74,289.81l.14.05.13-.06c3.13-1.32,6.19-2.82,9.14-4.26l.14-.07c1-.51,2.09-1,3.15-1.53l.55-.27-.48-.38c-3.52-2.76-7.37-5.89-11.74-9.57l-.17-.15-.22.09-1,.42-.91.37-.29.12c-2.16.88-4.38,1.8-6.57,2.78l-.1,0a28.25,28.25,0,0,1-6.87,2.41l-.68.11.46.52.57.64a39.26,39.26,0,0,0,7.7,6.38l.29.21.61.42a45.36,45.36,0,0,1,4,3.21l.63.56v-1a1,1,0,0,1,1.09-1.09A1.66,1.66,0,0,1,103.74,289.81Z"/><path class="cls-1" d="M248.49,225.13l-2.83,1.07c-4.54,1.72-9,3.4-13.4,5.05l-.64.24.54.42c3,2.33,6,4.81,8.87,7.21l1.05.89.21-.06,3.68-1.21,1.91-.62c3.56-1.18,7.09-2.4,10.81-3.74l.63-.23-.52-.42c-2.27-1.86-4.72-3.9-7.71-6.45-.8-.68-1.6-1.34-2.44-2Z"/><path class="cls-1" d="M90.41,259.25A42.46,42.46,0,0,1,95,262.67c3.07,2.76,6.07,5.27,8.93,7.47a4.54,4.54,0,0,1,.41.33l0,0a.62.62,0,0,1,.12.08l.18.17.22-.1c3.21-1.33,6.09-2.48,8.78-3.51,2.14-.82,4.32-1.62,6.67-2.45l.64-.23-.52-.42c-2-1.64-4-3.24-5.76-5a30.11,30.11,0,0,0-4.4-3.28l-.08,0a32.26,32.26,0,0,1-4.5-3.33,2,2,0,0,1-.19-.25l-.15-.23-1.48.39c-2.21.58-4.65,1.23-7.48,2l-.78.2c-2.57.7-5.23,1.41-7.86,2.1l-.76.2.64.47C88.57,258,89.54,258.66,90.41,259.25Z"/><path class="cls-1" d="M99.85,272.79c.65-.29,1.31-.56,2-.84l.46-.21-.33-.4,0,0c-1-.84-2-1.69-3-2.48-1.83-1.5-3.92-3.19-5.82-5a29.65,29.65,0,0,0-4.48-3.32l0,0a34.46,34.46,0,0,1-3.93-2.82l-.15-.13-.2.05c-6.83,1.73-12.46,3-17.71,3.88l-.79.14.61.52c.6.5,1.18,1,1.75,1.52,1.12,1,2.39,2.09,3.7,3.06a21,21,0,0,1,2.6,2.42l.16.17a24,24,0,0,0,1.85,1.79,25.89,25.89,0,0,0,3,2.1l.37.23.93.6a44.13,44.13,0,0,1,5.13,3.93l.32.29.25-.35a1.13,1.13,0,0,1,.86-.47c3.33-.35,6.61-1.87,9.81-3.36C98,273.59,98.94,273.17,99.85,272.79Z"/><path class="cls-1" d="M111.9,254.46l.13.09a40.28,40.28,0,0,1,4.56,3.4c2.21,2,4.41,3.87,6.55,5.59l.16.13.2-.06c5.33-1.82,10.78-3.55,16.06-5.22l2-.63-.54-.45c-1.83-1.49-3.91-3.19-5.76-4.95a30.17,30.17,0,0,0-4.49-3.32,38,38,0,0,1-3.68-2.61l-.15-.12-.19,0c-3.68,1-7.42,2-11.09,2.91l-4.74,1.25-2.51.66-.73.18.57.48C109.43,252.78,110.68,253.63,111.9,254.46Z"/><path class="cls-1" d="M122.81,285.45l.62.47.84.62.1.08c2.78,2.09,5.64,4.25,8.58,6.2,2.21,1.46,4.5,2.72,7.05,4.09l.15.08.16-.06c3-1.1,5.89-2.23,9.1-3.49l1-.39,1.84-.73,1.61-.64,1.56-.62-.63-.4c-4.07-2.59-7.87-5.37-12.33-8.75-1.41-1.05-2.87-2.18-4.46-3.44l-.17-.13-.2.07c-5,1.69-9.48,3.24-13.85,5.07-.52.21-1.09.46-1.67.71l-.58.25.5.4Z"/><path class="cls-1" d="M143.94,259.73l-.2.06c-6.57,2.08-12.21,3.9-17.24,5.56h-1.06l.88.69c2.7,2.11,5.3,4.27,8.18,6.68l3.23,2.69.17.15.2-.08c5.56-2,11-4,16.52-6.14l.62-.23-.51-.42c-3.29-2.65-6.76-5.54-10.63-8.82Z"/><path class="cls-1" d="M123.36,266.42l-.22.08c-5.24,1.8-10.47,3.77-15.54,5.84l-.6.25.5.4c1.81,1.46,3.6,2.95,5.28,4.36l.5.42c1.88,1.56,3.81,3.17,5.74,4.72l.19.15.21-.1c5.1-2.29,10.31-4.14,13.79-5.33l.95-.34,1.26-.43-.54-.44c-3.47-2.79-7.08-5.78-11.35-9.41Z"/><path class="cls-1" d="M165,253.21l-.19.06c-6.92,2.1-12.55,3.83-17.68,5.45l-.69.22.57.44c2.53,2,5.05,4.08,7.48,6.1l.61.51,2.44,2,.17.14.21-.07c2-.77,4.13-1.58,6.29-2.39,3-1.14,6.44-2.36,10.41-3.72l.65-.22-.53-.44c-2.83-2.31-5.85-4.83-9.24-7.7Z"/><path class="cls-1" d="M207.13,240.2l-.2.07c-5.44,1.81-11.16,3.63-18,5.73l-.77.26.71.44s.05,0,.05,0c2.92,2.24,5.79,4.65,8.57,7l.66.56.2-.06c2.46-.81,5.12-1.68,7.87-2.6,3-1,6.14-2,9.76-3.22l.66-.21-.53-.44c-2.49-2-5-4.16-7.7-6.44Z"/><path class="cls-1" d="M186.3,247.37l-.5-.42-.2.06c-4.67,1.43-9.39,2.83-13.45,4.05l-2.92.87-.7.21-.18.05-.17.06-.72.2.59.46c2.82,2.19,5.59,4.51,8.28,6.76l1.47,1.23.21-.07c4.91-1.65,9.94-3.27,14.66-4.79l2.89-.94-.54-.44c-2.36-1.93-4.93-4.08-8.11-6.77Z"/><path class="cls-1" d="M278.11,246l.19-.06c5.78-1.87,11.7-3.73,17.29-5.48l.71-.22-.61-.45c-1.6-1.15-3.3-2.41-5.35-4-2.69-2-5.53-4.25-8.94-7l-.17-.14-.2.08c-4.4,1.81-8.18,3.3-11.57,4.57-1.47.55-3,1.13-4.61,1.69l-.63.22.51.43c2.25,1.85,4.67,3.83,7.26,5.79l1.09.81c1.55,1.17,3.22,2.42,4.88,3.63Z"/><path class="cls-1" d="M236,260.42l.18-.08c6.9-2.42,13-4.53,19.05-6.63l.7-.24-.6-.43c-2.19-1.56-4.32-3.17-6.3-4.66-2.23-1.69-4.53-3.48-7-5.47l-.16-.12-.19.06c-4.47,1.44-8.94,2.87-13.66,4.36l-.86.28-4,1.27-1.58.51.54.44c2.7,2.25,5,4.13,7.18,5.73l2.46,1.85c1.33,1,2.7,2,4.06,3Z"/><path class="cls-1" d="M215.55,267.76l.19-.07c5-1.85,10.52-3.81,17.2-6.19l.68-.24-.58-.43c-1.58-1.14-3.34-2.44-5.68-4.21-2.73-2.06-5.4-4.15-8.17-6.39l-.16-.13-.19.07c-5.3,1.71-10.41,3.39-16.33,5.34l-2,.67.53.44c2.1,1.73,4.38,3.59,6.83,5.42l.42.33.94.7.38.29c1.89,1.42,3.85,2.89,5.83,4.28Z"/><path class="cls-1" d="M258.37,252.64l.19-.06,4.42-1.52,4.43-1.52c2.1-.71,4.43-1.48,7.55-2.51l.71-.23-.61-.44c-1.41-1-3-2.18-5-3.75-2.67-2-5.34-4.1-8.14-6.36l-.17-.14-.19.07c-4.87,1.72-10.24,3.54-16.42,5.57l-.66.21.53.44c1.64,1.35,3.81,3.12,6.06,4.8l.61.45.71.54.12.09c1.87,1.41,3.8,2.87,5.74,4.24Z"/><path class="cls-1" d="M176.73,282.38l.16.1.18-.07c2.57-1,4.75-1.89,7-2.76,3.08-1.21,6.09-2.37,9.16-3.54l.67-.26-.59-.41c-3-2.09-6.07-4.35-8.88-6.47-2.15-1.63-4.32-3.32-6.62-5.16l-.16-.12-.2.06c-4.81,1.63-8.7,3-12.26,4.35l-4.53,1.76-.61.24.5.41c1.59,1.29,3,2.43,4.46,3.49l.82.62.62.46c2.66,2,5.68,4.29,8.69,6.29C175.56,281.66,176.05,282,176.73,282.38Z"/><path class="cls-1" d="M157.82,290.11l3.91-1.56,5.27-2.12,3.25-1.3,3.61-1.45.67-.27-.6-.4c-3.82-2.51-7.5-5.25-10.92-7.83-1.52-1.15-3.16-2.42-5.17-4l-.18-.14-.55.22c-4,1.6-8.52,3.39-13,4.95-1.07.38-2.14.75-3.15,1.08l-.67.23.55.43c1.36,1.09,2.5,2,3.58,2.79l1.47,1.1c2.8,2.11,5.7,4.3,8.67,6.27.89.59,1.87,1.2,3.1,1.91Z"/><path class="cls-1" d="M196.24,275l.18-.07c4.78-1.82,10-3.79,16.08-6l.68-.25-.59-.42c-2.41-1.73-4.77-3.49-6.74-5-2.5-1.9-5-3.88-7.77-6.08l-.17-.13-.2.07-11.36,3.72c-2,.65-3.84,1.24-5.55,1.81l-.66.21.54.44c2.23,1.84,4,3.23,5.71,4.52l1.31,1,.08.06c2.68,2,5.45,4.1,8.3,6Z"/><path d="M326.8,285l-.41-.39a42.63,42.63,0,0,0-7.55-5.43c-2.59-1.58-5.26-3.12-7.85-4.59l-.05,0a10,10,0,0,1-1.28-.87,12.59,12.59,0,0,0-1.81-1.15,6,6,0,0,1-1.68-1.42A11.71,11.71,0,0,0,305,270a1.65,1.65,0,0,0-1-.36,1.87,1.87,0,0,0-.32,0,65.21,65.21,0,0,0-15.46,3.89l-2,.73c-4.83,1.74-9.84,3.54-14.71,5.37l-1,.36-.76.29h0a14.62,14.62,0,0,1-4.25,1.63l-.06,0c-3.94,1.51-7.11,2.78-10,4-1.9.81-3.81,1.69-5.67,2.55-3.49,1.61-11.49,4.95-11.66,5.32a1.79,1.79,0,0,0-.07,1.4,16,16,0,0,0,2,3.72,12.76,12.76,0,0,0,2.56,1.66,19.55,19.55,0,0,1,1.72,1,35.8,35.8,0,0,1,4,3.44c.3.3.62.59.93.88,1.45,1.33,3,2.57,4.34,3.64.65.51,1.25,1.11,1.85,1.67a20,20,0,0,0,2.43,2.13c.58.41,1.17.89,1.8,1.39a30,30,0,0,0,2.43,1.86c.1.78,1.77,1.52,1.8,1.51.35,0,2,0,2.08,0a44,44,0,0,0,4.27-1.48c2.21-.75,4.41-1.6,6.55-2.43l2.5-1,5.32-2c3.74-1.39,7.59-2.84,11.35-4.34,1.6-.64,3.17-1.43,4.69-2.19,1-.51,2.08-1.05,3.13-1.52,1.59-.72,3.25-1.38,4.85-2,1.27-.49,2.59-1,3.86-1.56,5.32-2.29,10.51-5.06,15.52-7.73l.69-.37a1.75,1.75,0,0,0,1-1.73C329.8,287.9,328.13,286.31,326.8,285Zm-14.64,11.25c-2,.9-4.08,1.78-6.07,2.62-3.46,1.46-7,3-10.5,4.71a103.45,103.45,0,0,1-12.47,4.89l-3.28,1.14c-1.64.58-3.3,1.23-4.9,1.85l-3.32,1.28a38,38,0,0,1-6.18,1.9,11.67,11.67,0,0,1-3.11-2.15,21.14,21.14,0,0,0-1.71-1.36,29.53,29.53,0,0,1-3.74-3.09c-.89-.8-1.8-1.64-2.79-2.39-1.25-1-2.46-2.11-3.61-3.2-.91-.85-1.85-1.73-2.83-2.54a19.22,19.22,0,0,0-3.46-2.37,16.91,16.91,0,0,1-1.54-.89l-.37-.27a1.88,1.88,0,0,0-.19-.51,1.16,1.16,0,0,0,.13-.41c3.13-1.18,6.21-2.59,9.19-4,1.51-.69,3.08-1.41,4.62-2.09,5.3-2.32,10.73-4.35,16-6.32,2.63-1,5.32-1.95,7.92-2.88s5.37-1.93,8-2.93a66.47,66.47,0,0,1,15.56-4.19c.38.33.74.65,1.09,1a13,13,0,0,0,3.08,2.33c1.58.81,3.16,1.79,4.69,2.75l2.46,1.5c2.11,1.25,4.39,2.63,6.58,4.21l.49.34c1.34.95,3.52,2.49,4.33,4C321.77,291.61,317,294.1,312.16,296.28Z"/><path d="M.18,64H.31a32.47,32.47,0,0,1,0,4.3c0,.7,0,1.42-.06,2.12,0,2.75.1,5.55.22,8.25,0,.68.07,1.38.09,2.06.28,6.5.6,13.86.6,21,0,13.06.51,26,1.13,40.4.11,2.8,1.17,36,1.46,42.63.15,3.48.41,7,.65,10.4.27,3.73.55,7.57.69,11.36.17,4.41.44,8.88.7,13.22.17,2.84.35,5.79.49,8.7.1,1.75.22,3.53.36,5.23.22,2.94.46,6,.46,9,0,3.88.16,17.79.83,20.08.81,2.77,3.53,4.11,5.91,5.28l.59.3c1.78.88,3.64,1.67,5.42,2.43,1.11.48,2.24,1,3.34,1.46a32.49,32.49,0,0,1,8.89,6.09c3.52,3.18,7.18,6.3,10.71,9.33,1.64,1.39,3.32,2.83,5,4.25,1.45,1.26,2.91,2.55,4.32,3.81,3.57,3.17,7.26,6.46,11.18,9.37s8.19,5.68,12.28,8.32c1.9,1.23,3.87,2.51,5.78,3.77,1.05.7,2.1,1.4,3.14,2.11,4.8,3.21,9.76,6.54,14.81,9.59a132.19,132.19,0,0,1,11,7.7c2,1.49,4,3,6.08,4.45,3.14,2.21,6.25,4.59,9.24,6.89,2.61,2,5.31,4.09,8,6.05,1.11.8,2.26,1.62,3.35,2.43,6,4.37,12.15,8.89,19,11.64A32.74,32.74,0,0,0,168,370.8h.68c1.67-.06,13.91-4.64,17.19-5.73,2.85-.94,5.78-1.92,8.67-2.85,5.06-1.63,10.09-3.67,14.94-5.64l5.76-2.32c13.25-5.2,27.5-10.69,42-15.6,13.16-4.45,26.65-8.76,39.68-12.93,14.65-4.68,29.81-9.54,44.62-14.61,18.49-6.32,36.14-13.81,57-23.11,8.13-3.63,17.19-7.08,28.53-10.87,2.4-.8,4.84-1.59,7.21-2.34,6.8-2.18,18.93-6.77,18.76-7.57s-25.52-15.5-30.55-18.75l-1.9-1.23c-2.89-1.86-5.73-3.88-8.38-5.79-1-.71-2-1.5-2.93-2.24a58,58,0,0,0-5-3.65c-1.86-1.14-3.64-2.47-5.37-3.77-.54-.42-1.08-.82-1.62-1.22-1.93-1.42-4-2.71-6-4-1-.58-1.92-1.2-2.87-1.8-2.84-1.84-5.68-3.79-8.43-5.66-3-2-6.11-4.17-9.22-6.16-5.69-3.63-11.72-7.37-18.46-11.41-11.69-7-24.4-14-38.13-17.56-1.56-.4-3.16-.85-4.7-1.28-2.66-.74-5.41-1.51-8.15-2.11-.76-.18-1.53-.33-2.29-.49-1.39-.29-2.81-.58-4.19-.93l-1-.27c-1.11-.29-2.14-.57-3.25-.75a1.65,1.65,0,0,0,0-.59,19.18,19.18,0,0,1,.74-6.69c.21-.91.4-1.78.56-2.63s.3-1.72.45-2.56a79.13,79.13,0,0,0,1.17-8.17c.19-2.81.46-5.67.73-8.44.41-4.28.83-8.7,1-13.07a378.15,378.15,0,0,0-.69-44l-.6-7.22c-1-12.33-2.1-25.09-1.91-37.74.25-17.11.8-30.91,1.77-43.43a8.18,8.18,0,0,0-1.28-3A1.56,1.56,0,0,0,291.23,0,.75.75,0,0,0,291,0a106.49,106.49,0,0,0-11.79,2.15c-3,.67-6.13,1.36-9.24,1.82-2.65.41-5.35.79-7.95,1.16-4.61.65-9.38,1.32-14.08,2.11-17,2.85-31,5.29-44,7.68-33.85,6.23-61.72,11.77-87.74,17.43l-2.45.54c-36.64,8-74.53,16.22-111.06,27C2.4,59.54-.78,64,.18,64Zm144,293.28-2.08-1.45c-6.86-4.77-12.45-8.84-17.55-12.81-2.76-2.14-5.65-4.19-8.44-6.18s-5.85-4.17-8.68-6.38a117.68,117.68,0,0,0-10.32-6.93c-2.38-1.48-4.84-3-7.17-4.62-4-2.78-8.17-5.52-12.19-8.15-2.1-1.38-4.27-2.81-6.39-4.23a133.36,133.36,0,0,1-15.93-12.29c-2.73-2.46-5.57-4.9-8.31-7.24-2.47-2.12-5-4.31-7.49-6.52-1.25-1.12-2.54-2.23-3.78-3.31s-2.37-2.08-3.55-3.13a32.71,32.71,0,0,0-8.56-5.22c-1.06-.48-2.13-.94-3.17-1.39-2.07-.89-4.21-1.82-6.24-2.87s-3.13-2-3.46-3.83A7.74,7.74,0,0,1,11,258c5.9,1.39,11,4.77,16,8l1.8,1.18a124.52,124.52,0,0,1,15.86,12.91c2.4,2.2,4.78,4.49,7.09,6.71,2.51,2.41,5.11,4.93,7.74,7.3a98.14,98.14,0,0,0,17,12.32c1.5.87,3,1.82,4.41,2.75s2.92,1.88,4.43,2.75c1,.59,2,1.11,3,1.63A32.47,32.47,0,0,1,94,317c.74.59,1.5,1.17,2.23,1.73a51.88,51.88,0,0,1,5.2,4.33,51,51,0,0,0,7.78,6.31c2.46,1.66,5.07,3.19,7.58,4.68,3.23,1.92,6.59,3.89,9.68,6.15,1.19.87,2.42,1.75,3.61,2.59a95.56,95.56,0,0,1,12.15,9.66c4.3,4.26,9.39,9.1,15.45,12.56l.6.35C153.13,363.59,148.58,360.39,144.18,357.28ZM294.26,182.43c.9.25,1.82.49,2.75.69,4,.87,7.28,1.68,10.43,2.55,1.14.32,2.3.63,3.42.92,2.1.54,4.27,1.11,6.36,1.79,2.52.8,5,1.8,7.38,2.78l2.92,1.17c11.92,4.67,23,11.75,33.8,18.6l3.89,2.47c3.3,2.1,6.6,4.34,9.77,6.5,2.58,1.76,5.24,3.58,7.91,5.3.75.5,1.51,1,2.27,1.48,2,1.3,4.13,2.66,6.16,4,.86.58,1.76,1.14,2.65,1.68a34.3,34.3,0,0,1,5.37,3.82,30.88,30.88,0,0,0,3.88,2.84,37.86,37.86,0,0,1,3.11,2.2c2.21,1.8,4.64,3.46,7,5.06l1.8,1.24c4.73,3.28,9.76,6.35,14.62,9.31l2.58,1.58c1.61,1,3.31,1.89,5,2.76s3.1,1.65,4.6,2.55l1.26.77c.84.54,1.72,1.08,2.65,1.57a8.05,8.05,0,0,1,.93.57,4.55,4.55,0,0,0,.43.28c-6,2.33-12.3,4.32-18.37,6.25-5,1.6-10.19,3.24-15.21,5.07-9.71,3.51-19.3,7.83-28.57,12-3.88,1.74-7.9,3.53-11.85,5.26-22.22,9.62-45.78,17.09-68.56,24.31-4.77,1.52-9.72,3.09-14.56,4.65l-10,3.19c-16.3,5.2-33.17,10.58-49.33,16.93l-29.17,11.46c-7.36,2.9-27.79,9.47-27.79,9.47a19.37,19.37,0,0,1-2.9.81c-5.7,0-11.2-3.81-15.21-6.6a71.15,71.15,0,0,1-8.76-7.61c-2-1.9-4-3.86-6.16-5.64-1.92-1.57-4-3-6-4.44l-1.76-1.22c-1.09-.78-2.18-1.59-3.24-2.38-1.71-1.27-3.49-2.59-5.31-3.79-2.29-1.52-4.68-2.92-7-4.29a116.79,116.79,0,0,1-9.91-6.33,48.19,48.19,0,0,1-4.36-3.85c-.89-.83-1.8-1.7-2.71-2.5a50.69,50.69,0,0,0-8-5.87c-1.11-.63-2.25-1.22-3.35-1.8-1.78-.93-3.63-1.9-5.37-3-2.59-1.65-5.25-3.24-7.83-4.78l-1.73-1C66,296.35,59,289.53,52.28,282.94c-3-2.91-6-5.91-9.14-8.68A135.86,135.86,0,0,0,27.4,262.32a55.64,55.64,0,0,0-13.57-7,19.22,19.22,0,0,0,4.22-.82l1.12-.3c2.29-.58,4.62-1.25,6.87-1.89l2.79-.81c3.85-1.08,7.72-2.36,11.47-3.6,3-1,6.15-2.05,9.25-3,2.37-.71,4.78-1.46,7.11-2.18,4.7-1.45,9.56-3,14.39-4.24,2.9-.76,5.87-1.47,8.74-2.16,3.73-.9,7.6-1.83,11.37-2.87,7.44-2.08,14.89-4.54,22.1-6.93,6.45-2.13,13.11-4.33,19.75-6.25,3.69-1.07,7.46-2.08,11.11-3.07,3.31-.89,6.74-1.81,10.1-2.77l6.4-1.86c5-1.45,10.1-3,15.21-4.24,3.27-.83,6.57-1.72,9.76-2.58,6.13-1.65,12.47-3.36,18.83-4.66,10.57-2.15,20.1-4.11,29.63-6.23,3.26-.73,6.58-1.35,9.81-2l4.47-.85c3.46-.67,6.94-1.64,10.29-2.56,1.35-.38,2.74-.77,4.1-1.13,2.91-.76,5.82-1.64,8.63-2.48,1.75-.54,3.57-1.08,5.36-1.59,2.69-.77,4.74-1.38,6.63-2,.76-.24,1.56-.43,2.35-.61s1.42-.34,2.12-.55a1.72,1.72,0,0,0,.52.1A27.12,27.12,0,0,1,294.26,182.43ZM83.62,43.09l2.29-.52C117,35.49,145.7,29.41,173.8,24c16.15-3.11,37.41-7.14,58.72-10.75,5.42-.92,10.88-1.83,15-2.52,1.55-.27,3.13-.57,4.65-.85,3.44-.64,7-1.31,10.46-1.62,4.84-.42,9.73-1.24,14.46-2l.26,0a38.81,38.81,0,0,0,4-1c.87-.25,1.77-.49,2.66-.71a60.61,60.61,0,0,1,6.41-1.07c-1.18,15.39-1.54,30.54-1.77,43.33-.22,13.47.94,27.07,2.07,40.21.1,1.24.2,2.49.31,3.73a383.38,383.38,0,0,1,.84,45c-.16,4.51-.6,9.08-1,13.5-.25,2.63-.5,5.33-.71,8a81.63,81.63,0,0,1-1.47,9.86c-.15.81-.35,1.64-.54,2.52a28.13,28.13,0,0,0-1,7,9,9,0,0,0,.09,1.26,16.37,16.37,0,0,1-1.64.38c-.46.09-.93.18-1.37.31-.91.24-1.81.54-2.67.84-.62.21-1.24.42-1.85.61-3.37,1-7,2.12-11.09,3.34-7.3,2.16-14.45,4.23-21.62,5.63-9,1.74-18,3.65-26.75,5.48-5.36,1.13-10.89,2.29-16.34,3.4-8.6,1.76-15.14,3.35-21.19,5.16-3.1.92-6.29,1.73-9.37,2.5-3.89,1-7.91,2-11.79,3.26-7.18,2.34-14.6,4.37-21.76,6.33-6.79,1.84-13.8,3.76-20.61,5.94-3.33,1.06-6.69,2.17-9.95,3.24C103.73,226.1,98,228,92.34,229.7c-4.71,1.43-9.6,2.6-14.32,3.73-3.92.93-8,1.9-11.91,3-8,2.27-16,4.79-23.85,7.22l-3.21,1c-1.75.53-3.48,1.13-5.17,1.7-2.71.91-5.52,1.86-8.34,2.62l-1.24.33c-1.56.42-12.64,2.78-13,3.08a67.14,67.14,0,0,1-.91-8.57v-.21A98,98,0,0,0,10,233c-.8-7.36-1.15-15-1.42-21.61-.21-5-.54-10-.86-14.88-.63-9.5-1.28-19.32-1-29,.09-3.1.17-6.39.08-9.69-.07-2.21-.31-4.44-.54-6.6-.15-1.44-.31-2.94-.42-4.4-.25-3.55-.34-7.19-.43-10.69-.08-3.26-.16-6.63-.38-9.94-.4-6.25-.6-13-.6-20.65,0-3.9-.12-7.84-.24-11.66C4.17,91,4.07,88.05,4,85.11c0-2.3-.13-4.65-.22-6.91-.09-2-.17-4.07-.21-6.1,0-1.11,0-2.24,0-3.33a39.78,39.78,0,0,0-.09-5.67C29.94,55.34,57.23,49.11,83.62,43.09Z"/><path d="M25.9,90.58c0,1.08-.06,2.2-.08,3.3-.11,5.66-.05,11.43,0,17,0,1.16,0,2.31,0,3.46.11,11.94.4,27.67,1.64,43.36.34,4.43.75,8.92,1.14,13.27.85,9.46,1.73,19.22,2.1,28.87.19,5,.15,10,.1,15,0,2,0,4.17,0,6.26,0,2.43,0,5.18-.24,7.87a18.86,18.86,0,0,0,1.12,6.12,1.55,1.55,0,0,0,1.22.57l.24,0c4.92-.61,9.57-2.43,14.08-4.17,1.62-.62,3.3-1.28,5-1.87,5.95-2.08,12.13-3.78,18.1-5.43l2.54-.7c6.58-1.82,13.2-3.88,19.61-5.86,7.65-2.37,15.57-4.83,23.46-6.91C129.73,207,144,203.28,158,198.73c6.78-2.21,14-4.53,21.37-6.45,2.19-.58,4.43-1.15,6.59-1.71,4.54-1.17,9.23-2.36,13.83-3.65,8.56-2.41,17.17-5.15,25.5-7.82,12.34-3.93,25.11-8,37.94-11,1.05-.23.2-7.44.26-9.46.13-3,.25-6.18.23-9.28,0-4.23-.13-8.52-.23-12.68,0-1.4-.06-2.79-.09-4.19-.05-2.14-.06-4.31-.09-6.42,0-3.54-.06-7.21-.22-10.82-.08-1.77-.18-3.57-.28-5.31-.22-4-.45-8.14-.45-12.22,0-2.92,0-5.89,0-8.75,0-8.57-.06-17.42.2-26.12.07-2.3.21-4.66.34-6.93.19-3.35.39-6.82.39-10.23V28.3a1.51,1.51,0,0,0-.08-.51,1.82,1.82,0,0,0-.38-1.35,1.33,1.33,0,0,0-1-.46,2,2,0,0,0-.42,0c-1.69.43-3.42.83-5.08,1.23-4.82,1.13-9.79,2.31-14.57,3.92a171.89,171.89,0,0,1-17.31,4.49l-4.17.94c-9.39,2.16-19,3.92-28.37,5.63-5.06.92-10.31,1.88-15.45,2.89C145.76,51.13,113.71,56.59,88,61c-9,1.54-18,3.33-26.81,5.06l-3.45.68c-5.34,1-10.55,2-15.49,2.82l-3.6.63c-3.33.61-11.18.59-11.81.59s-2,2.21-1.91,2.81C26.22,79.16,26.05,85,25.9,90.58Zm18-17.83c1.61-.31,3.28-.64,4.9-.93C56,70.52,63.27,69,70.05,67.64c10.31-2.14,20.89-3.87,31.13-5.55,4.25-.7,8.66-1.41,13-2.15,16.87-2.89,34-6.16,50.51-9.32,12.42-2.37,25.28-4.84,38-7.11,10.82-1.94,21.26-4.33,30-6.41,3.93-.93,7.79-2.13,11.52-3.27l2.62-.8c3.22-1,6.57-1.74,9.82-2.47l3.3-.76V45.32c0,3.44-.2,7-.39,10.37-.14,2.22-.27,4.52-.35,6.78-.28,8.61-.23,17.38-.2,25.87,0,3,0,6,0,9,0,4.76.26,9.57.52,14.22,0,.78.09,1.56.14,2.34.2,4,.24,8,.28,11.89,0,1.74,0,3.53.07,5.3l.06,2.66c-5-2.42-10.46-3.32-15.85-4.42-6.26-1.28-12.78-1.23-19.13-1-12.27.36-24.49.59-36.69,2a.59.59,0,0,0-.26-.23,76.64,76.64,0,0,0-21.27-6.67,40.34,40.34,0,0,0-11,0,75.57,75.57,0,0,0-11.29,1.88,55.09,55.09,0,0,0-18.14,8.57c-4.41,3.21-9.46,7.3-11.15,12.71l-1.3.41a236.88,236.88,0,0,0-43.67,19.35c-6.8,3.88-13.39,8.11-19.78,12.63-5.91,4.17-12.23,8.35-16.61,14.21a.61.61,0,0,0,1,.74c3.6-4.83,8.52-8.26,13.34-11.79,5-3.71,10.25-7.2,15.57-10.5a228.33,228.33,0,0,1,33.89-17.35c5.79-2.38,11.66-4.51,17.6-6.44.3.27.81.29.93-.2a.49.49,0,0,1,0-.11c17.58-5.64,35.71-9.54,53.83-13.08,7.32-1.43,14.71-2.57,22.14-3.3,3.75-.37,7.49-.79,11.26-1s7.63,0,11.45-.18c7.9-.33,15.78-.85,23.68-.16a92.08,92.08,0,0,1,11,1.89,43,43,0,0,1,10,3.2.48.48,0,0,0,.47.42c0,.72,0,1.44.05,2.16.1,3.78.19,7.69.22,11.53,0,3.12-.1,6.27-.23,9.34-.08,2.32-.18,4.72-.21,7.1-13,3.2-25.74,7.34-38.09,11.34-13.16,4.27-26.39,7.88-42.19,12-8,2.06-15.91,4.62-23.58,7.09-5.77,1.87-11.74,3.79-17.67,5.49s-12.21,3.33-18.18,4.89c-8.21,2.14-16.7,4.35-25,6.91-10,3.08-20.41,6.19-32,9.48-6,1.71-10.9,3.3-15.53,5-.92.34-1.84.71-2.74,1.05a61.4,61.4,0,0,1-10.73,3.38,1.88,1.88,0,0,0-.28-.34c-.54-.49-.2-2.65,0-3.94.08-.58.16-1.08.17-1.41.07-2.23.05-4.51,0-6.7,0-1.1,0-2.23,0-3.34,0-1.36,0-2.7,0-4.05,0-5.35,0-10.86-.25-16.27-.47-8.78-1.25-17.66-2-26.25-.44-5-.89-10.1-1.28-15.16-1-13.19-1.31-26.36-1.45-42.06,0-.92,0-1.84,0-2.75-.06-5.65-.11-11.48,0-17.21,0-.72,0-1.42.07-2.13.14-5.1.29-10.38-.64-15.51A103.25,103.25,0,0,0,43.87,72.75ZM186.3,130.53c-12.46,1.55-24.8,4.22-37.05,6.92-10.95,2.43-21.82,5.22-32.53,8.61,2-5,6.8-8.62,11-11.65A53.26,53.26,0,0,1,146,126.13a71.25,71.25,0,0,1,10-1.54,39.93,39.93,0,0,1,11.45.14A73.74,73.74,0,0,1,186.3,130.53Z"/><path d="M32.93,236.12a2.08,2.08,0,0,1-1.6-.74,18.37,18.37,0,0,1-1.22-6.48c.23-2.67.23-5.41.23-7.83,0-2.09,0-4.22,0-6.27,0-4.89.08-9.94-.11-14.94-.37-9.67-1.25-19.41-2.1-28.84-.39-4.35-.79-8.85-1.14-13.28-1.24-15.7-1.52-31.44-1.64-43.4l0-3.42c-.06-5.6-.12-11.38,0-17,0-.87,0-1.77.07-2.64v-.66c.17-5.58.34-11.35-1-16.88a4.13,4.13,0,0,1,1.06-2.5c.48-.61.91-.91,1.32-.91l.14.49v-.49a91.27,91.27,0,0,0,11.58-.58c1.18-.22,2.4-.43,3.61-.63,4.89-.81,10.09-1.76,15.48-2.82l3.45-.68c8.74-1.73,17.78-3.52,26.82-5.06l.21,0c25.69-4.38,57.65-9.84,88.18-15.84,4.74-.92,9.59-1.81,14.28-2.67l1.17-.22c9.29-1.69,18.89-3.44,28.36-5.61,1.38-.32,2.77-.64,4.17-.94a174.5,174.5,0,0,0,17.26-4.49c4.83-1.62,9.79-2.8,14.6-3.93l5.08-1.21a1.87,1.87,0,0,1,1.94.55,2.32,2.32,0,0,1,.52,1.63,2.1,2.1,0,0,1,.07.56V45.65c0,3.47-.21,7.08-.4,10.26v.34c-.13,2.16-.25,4.39-.32,6.58-.28,8.83-.24,18-.2,26.1,0,2.86,0,5.83,0,8.75,0,4,.23,8.06.44,12l.06.94c.09,1.51.17,3,.24,4.57.15,3.52.2,7,.23,10.85v.17c0,2,0,4.16.07,6.25l.12,4.88c.09,3.92.18,8,.21,12,0,3-.1,6.11-.22,9.08v.22c0,.58.05,1.61.11,2.81.29,5.14.23,6.88-.75,7.12-12.76,3-25.47,7-37.75,11l-.16,0c-7.89,2.52-16.85,5.39-25.51,7.82-4.51,1.27-9.14,2.45-13.6,3.6l-1.75.44-5.08,1.32c-7.31,1.92-14.55,4.24-21.34,6.44-14,4.57-28.25,8.33-42.08,11.95-7.89,2.09-15.8,4.54-23.44,6.91l-.46.13c-6.26,1.94-12.73,3.94-19.15,5.73l-2.55.7c-6,1.64-12.12,3.34-18.06,5.43-1.53.53-3.07,1.13-4.56,1.7l-.39.15c-4.53,1.76-9.21,3.58-14.2,4.21ZM26.81,71.27a4.24,4.24,0,0,0-1.43,2.22c1.33,5.62,1.16,11.46,1,17.1v.66c0,.88-.05,1.77-.07,2.65-.1,5.65,0,11.41,0,17l0,3.47c.11,11.93.39,27.64,1.63,43.32.35,4.42.75,8.92,1.15,13.27.84,9.44,1.73,19.2,2.1,28.89.19,5,.15,10.08.1,15,0,2.05,0,4.17,0,6.26,0,2.44,0,5.2-.23,7.91a19.68,19.68,0,0,0,1,5.79,1.07,1.07,0,0,0,1,.36c4.87-.62,9.5-2.41,14-4.15l.38-.15c1.51-.58,3.06-1.18,4.59-1.71,6-2.1,12.15-3.8,18.13-5.45l2.54-.7c6.42-1.78,12.88-3.78,19.13-5.72l.45-.14c7.66-2.37,15.58-4.83,23.5-6.92,13.79-3.62,28.07-7.38,42-11.92,6.81-2.22,14.07-4.55,21.39-6.46l5.11-1.33L186,190c4.46-1.15,9.08-2.32,13.59-3.6,8.64-2.42,17.58-5.28,25.47-7.8l.17,0c12.3-3.93,25-8,37.82-11,.32-.45.1-4.13,0-6.1-.06-1.23-.13-2.28-.1-2.91v-.22c.11-3,.23-6,.21-9,0-4-.12-8.06-.2-12l-.12-4.88c0-2.09-.07-4.21-.08-6.27V126c0-3.85-.08-7.31-.22-10.81-.07-1.52-.16-3.07-.24-4.57l0-.94c-.23-3.94-.45-8-.45-12,0-2.92,0-5.88,0-8.75,0-8.1-.07-17.28.2-26.14.07-2.19.2-4.43.32-6.6l0-.33c.18-3.18.39-6.77.39-10.21V28.3a1.57,1.57,0,0,0-.05-.37l0-.09v-.1a1.33,1.33,0,0,0-.27-1,1,1,0,0,0-1-.26c-1.69.42-3.42.83-5.09,1.23-4.78,1.12-9.72,2.29-14.52,3.89a170.25,170.25,0,0,1-17.35,4.52l-4.17.94c-9.48,2.18-19.1,3.93-28.39,5.63l-1.18.21c-4.68.85-9.53,1.74-14.26,2.67-30.53,6-62.51,11.46-88.21,15.85l-.21,0C79,63,70,64.8,61.25,66.53l-3.45.68c-5.39,1.06-10.61,2-15.5,2.82-1.2.2-2.42.42-3.6.64a92.82,92.82,0,0,1-11.75.6ZM34,232.59l-.18-.27a.9.9,0,0,0-.2-.23c-.68-.63-.47-2.35-.16-4.38.09-.57.17-1.06.18-1.35.06-2.19,0-4.43,0-6.59,0-1.19,0-2.33,0-3.44v-4.05c0-5.38,0-10.87-.26-16.25,0-.79-.08-1.59-.13-2.39v-.2c-.47-7.9-1.18-15.9-1.86-23.64-.44-5-.9-10.1-1.29-15.15-1-13.22-1.31-26.39-1.44-42.11l0-2.75c-.05-5.66-.11-11.49,0-17.22l.06-2.14c.14-5.07.29-10.32-.64-15.41L28,74.47l.55,0a100.93,100.93,0,0,0,15.18-2.18l.21,0c1.55-.31,3.16-.62,4.73-.9,7.22-1.29,14.47-2.77,21.26-4.18C80.28,65,90.86,63.28,101.1,61.61c4.26-.7,8.65-1.42,13-2.16,16.72-2.86,33.67-6.1,50.07-9.23l.43-.08C177,47.77,189.79,45.32,202.53,43c10.87-2,21.27-4.34,30-6.41,3.84-.91,7.61-2.07,11.26-3.19l.23-.06c.87-.28,1.73-.54,2.61-.8,3.2-1,6.53-1.74,9.74-2.47l1-.22,2.39-.55.59-.15V45.32c0,3.38-.2,6.83-.39,10.17v.22c-.14,2.2-.27,4.52-.34,6.77-.28,8.45-.25,17-.22,25.36v.5c0,3,0,6,0,9,0,4.7.27,9.46.53,14.06l.12,2.47c.22,3.85.26,7.77.3,11.57v.34c0,1.74,0,3.53.07,5.31l.06,3.44-.71-.35c-4.3-2.08-9.08-3-13.7-4l-2-.41a65.18,65.18,0,0,0-13.24-1.13c-2.06,0-4.07.05-5.78.11l-3.78.1c-10.78.31-21.93.63-32.87,1.86l-.3,0-.17-.27a75.24,75.24,0,0,0-21.2-6.66,28.49,28.49,0,0,0-4.86-.39,57.12,57.12,0,0,0-6,.38,73,73,0,0,0-11.21,1.87,54.4,54.4,0,0,0-18,8.49c-4.76,3.46-9.39,7.36-11,12.45l-.07.25-1.54.49a236.51,236.51,0,0,0-43.58,19.31c-6.52,3.71-13.16,7.95-19.74,12.59l-1.5,1.07c-5.43,3.8-11,7.74-15,13.05h0v.11a.22.22,0,0,0,.15.08c3.46-4.61,8.06-8,12.51-11.22l1-.73c4.85-3.56,10.1-7.11,15.6-10.52a231.18,231.18,0,0,1,34-17.39c5.6-2.3,11.36-4.41,17.63-6.44l.27-.09.21.19a.22.22,0,0,0,.13.06l.11-.36.25-.12c18.05-5.78,36.56-9.71,53.88-13.09,7.63-1.49,15.1-2.61,22.2-3.32l1.67-.16c3.14-.32,6.38-.64,9.6-.79,3.83-.16,7.66,0,11.46-.17l3.21-.14c3.94-.18,8-.37,12-.37,3.1,0,5.89.11,8.5.34a85.51,85.51,0,0,1,10.46,1.77l.64.13a43.43,43.43,0,0,1,10.08,3.25l.22.11,0,.24.46,0,0,.46.05,2.06c.08,3.62.18,7.7.22,11.65,0,3-.1,6-.21,8.94v.41c-.1,2.37-.19,4.75-.22,7.1v.38l-.37.09c-13,3.19-25.7,7.32-38,11.32-13.19,4.28-26.44,7.88-42.26,12-8,2.06-15.89,4.61-23.55,7.1-5.46,1.75-11.63,3.74-17.68,5.48-5.85,1.68-11.85,3.24-17.64,4.75l-.55.15c-8.21,2.13-16.7,4.34-24.94,6.9-10,3.1-20.46,6.2-32,9.49-6,1.69-10.88,3.28-15.49,5l-2.75,1a60.87,60.87,0,0,1-10.81,3.41Zm.3-38c0,.46.05.92.07,1.38.28,5.41.27,10.91.25,16.23v4.12c0,1.1,0,2.24,0,3.33,0,2.27,0,4.52,0,6.72a13.88,13.88,0,0,1-.18,1.46c-.33,2.1-.38,3.28-.15,3.52l.15.16a61.75,61.75,0,0,0,10.3-3.28l2.8-1.06c4.64-1.73,9.59-3.32,15.57-5,11.54-3.29,22-6.4,32-9.48,8.27-2.57,16.76-4.78,25-6.92l.56-.14c5.78-1.52,11.77-3.08,17.61-4.75,6-1.73,12.2-3.72,17.65-5.48,7.67-2.48,15.6-5,23.61-7.11,15.81-4.1,29-7.7,42.16-12,12.26-4,24.89-8.08,37.75-11.26.05-2.24.13-4.49.22-6.67l0-.5c.1-2.91.23-5.92.2-8.88,0-3.95-.13-8-.2-11.53l-.05-1.81a.86.86,0,0,1-.4-.42,42.2,42.2,0,0,0-9.67-3.08l-.64-.14a87.49,87.49,0,0,0-10.34-1.74c-2.59-.24-5.34-.34-8.42-.34-4,0-8.05.18-12,.36l-3.22.14c-3.83.17-7.66,0-11.45.18-3.2.14-6.43.47-9.55.78l-1.68.17c-7.06.7-14.5,1.81-22.1,3.3-17.22,3.36-35.62,7.27-53.54,13a1,1,0,0,1-1.42.46c-6.16,2-11.83,4.08-17.33,6.35A230.82,230.82,0,0,0,64,172c-5.47,3.4-10.7,6.94-15.54,10.48l-1,.73c-4.38,3.21-8.92,6.53-12.23,11A1.14,1.14,0,0,1,34.33,194.6ZM29.17,75.4a78.49,78.49,0,0,1,.56,15.06l-.06,2.13c-.13,5.72-.07,11.54,0,17.18l0,2.77c.14,15.69.43,28.84,1.44,42,.39,5.06.84,10.17,1.28,15.13C33,177,33.7,184.49,34.17,192c4-5,9.36-8.76,14.56-12.41l1.5-1.06c6.61-4.66,13.27-8.91,19.82-12.64a237.49,237.49,0,0,1,43.76-19.39l1.06-.34c1.75-5.24,6.44-9.21,11.27-12.72a55.73,55.73,0,0,1,18.29-8.64,74.13,74.13,0,0,1,11.36-1.89,58.59,58.59,0,0,1,6.13-.39,29.56,29.56,0,0,1,5,.4,77.12,77.12,0,0,1,21.4,6.71,1,1,0,0,1,.24.15c10.9-1.22,22-1.53,32.71-1.84l3.78-.1c1.7-.06,3.73-.1,5.8-.1a66.56,66.56,0,0,1,13.44,1.14l2,.4A62.1,62.1,0,0,1,259.56,133l0-1.87c0-1.77-.06-3.57-.08-5.31v-.33c-.05-3.8-.08-7.7-.29-11.53l-.13-2.48c-.26-4.61-.52-9.38-.52-14.11,0-3,0-6,0-9v-.49c0-8.34-.06-16.94.21-25.4.07-2.27.21-4.6.34-6.79v-.23c.19-3.32.38-6.76.38-10.11V30.41l-1.78.41-.93.21c-3.3.75-6.62,1.5-9.78,2.47l-2.61.8-.23.07c-3.67,1.12-7.46,2.29-11.31,3.21C224,39.65,213.59,42,202.71,44c-12.74,2.29-25.56,4.74-38,7.11l-.43.09c-16.4,3.12-33.35,6.36-50.09,9.22-4.32.74-8.73,1.47-13,2.17C91,64.25,80.46,66,70.15,68.11c-6.8,1.41-14.06,2.9-21.29,4.19-1.56.28-3.15.59-4.72.89l-.17,0A108.64,108.64,0,0,1,29.17,75.4Zm86.72,71.44.38-1c2.11-5.3,7.54-9.25,11.13-11.87a53.84,53.84,0,0,1,18.52-8.36,66,66,0,0,1,9.14-1.45l.9-.1a39.59,39.59,0,0,1,11.59.15,75,75,0,0,1,19,5.83l1.54.72-1.69.21c-12,1.49-23.87,4-37,6.92-11.93,2.64-22.56,5.45-32.48,8.6Zm45.7-22.1a48.82,48.82,0,0,0-5.53.34l-.89.09a66.11,66.11,0,0,0-9,1.43A52.6,52.6,0,0,0,128,134.8c-3.27,2.39-8.12,5.91-10.37,10.47,9.66-3,20-5.74,31.54-8.29,12.52-2.77,23.9-5.2,35.37-6.72a74.42,74.42,0,0,0-17.13-5A34.06,34.06,0,0,0,161.59,124.74Z"/><path d="M248.25,205.5l-1.45.43c-6.55,1.95-13.33,3.95-19.91,6.26-4.42,1.56-8.91,3.2-13.24,4.78l-.14.05a1.55,1.55,0,0,0-.51.18c-2.29.85-4.55,1.67-6.83,2.49-12.69,4.58-26.5,9.11-42.2,13.84-3.91,1.18-9.05,2.72-14.32,4.27a1.17,1.17,0,0,0-.63-.2,1.4,1.4,0,0,0-1.16.72c-7.3,2.12-13.84,3.93-20,5.53a1,1,0,0,0-.28,0,1.27,1.27,0,0,0-.83.32c-2.4.62-4.5,1.15-6.44,1.61-6.36,1.55-12.8,3.25-19,4.88-3.25.86-6.61,1.75-9.91,2.6l-1.87.48c-8.45,2.18-17.2,4.44-26,5.8a1.7,1.7,0,0,0-.85-.24,1.85,1.85,0,0,0-1.54.88,1.49,1.49,0,0,0-.16,1.39A1.59,1.59,0,0,0,62.56,263l.26,0a66,66,0,0,1,7.81,6.52A63.46,63.46,0,0,0,79,276.39a38.86,38.86,0,0,1,8.83,7.55,40.18,40.18,0,0,0,8.68,7,43.8,43.8,0,0,1,5.64,4.63c.95.87,1.92,1.77,2.91,2.6,1.75,1.46,3.57,2.89,5.33,4.27,1.33,1,2.7,2.12,4,3.21A83.52,83.52,0,0,0,125.13,313c1.28.74,2.55,1.54,3.78,2.31.35.21.68.43,1,.65a14.85,14.85,0,0,0,2.06,1,16.16,16.16,0,0,1,1.67.78,1.6,1.6,0,0,0,1.29,1,10,10,0,0,0,1.44.1,18.19,18.19,0,0,0,6.7-1.58c3.57-1.39,7.21-2.52,10.94-3.64,5.26-1.59,10.55-3.38,15.67-5.11l5.11-1.72c13.42-4.48,27.44-9.43,41.63-14.72l4-1.48c5.47-2,11.12-4.14,16.68-6.19,3.66-1.34,7.43-2.59,11.08-3.79,3.23-1.08,6.58-2.19,9.84-3.36,8.86-3.18,17.78-6.65,26.42-10,5-1.94,10.16-3.93,15.24-5.86,7.77-2.94,15.76-5.65,23.49-8.28,3.74-1.26,7.61-2.59,11.41-3.91l2.17-.75c5.31-1.85,10.8-3.76,16.15-5.79,1.52-.57,3.12-1.1,4.64-1.6.84-.26,1.7-.55,2.54-.84a.28.28,0,0,0,.19-.19c.05-.15.11-.3.17-.46a9.83,9.83,0,0,0,.44-1.36.33.33,0,0,0-.13-.32l-.14-.11h0l0,0c-.15-.11-.28-.22-.42-.34h0l0,0a2.65,2.65,0,0,1-.33-.34l0,0a.32.32,0,0,0-.17-.09c-.71-.32-1.45-.62-2.15-.91a49.28,49.28,0,0,1-5.53-2.54c-1-.58-2.1-1.16-3.12-1.71-2.38-1.29-4.85-2.61-7.17-4.15-3-2-5.89-4.17-8.7-6.28l-1.42-1.08c-3.43-2.57-6.77-5.37-10-8.07-2.88-2.41-5.85-4.91-8.89-7.23-2.86-2.19-5.85-4.7-8.91-7.46a43.54,43.54,0,0,0-4.63-3.46c-1.15-.78-2.33-1.58-3.43-2.45a.36.36,0,0,0-.2-.06h0a10,10,0,0,0-1.89.29l-.62.15-.21,0h0a4.85,4.85,0,0,1-.55.08l-.09,0-.34.14a10.8,10.8,0,0,0-1.34.47h0l-.22,0c-10.24,3.64-20.89,6.71-31.18,9.68C255.45,203.4,251.82,204.45,248.25,205.5Zm5.82,1.63a30.48,30.48,0,0,0,4.51,3.33,31.73,31.73,0,0,1,4.42,3.27c.75.73,1.58,1.47,2.58,2.32-3.59,1.38-7.2,2.79-10.71,4.16l-5.68,2.2c-1.36-1.14-2.74-2.35-4.09-3.57a42.23,42.23,0,0,0-4.64-3.45c-1.33-.91-2.72-1.86-4-2.92C242.71,210.43,248.86,208.64,254.07,207.13Zm-14.69,34.05-10.22,3.28L220,247.37c-2.81-2.35-5.71-4.77-8.69-7.06L211,240l.28-.1,1.55-.51c5.11-1.77,10.55-3.71,17.1-6.15l.66.55C233.79,236.56,236.68,239,239.38,241.18Zm-6.31-9.1c4.47-1.67,9-3.39,13.4-5.05l2.63-1c.78.64,1.61,1.31,2.42,2,2.76,2.35,5.27,4.46,7.71,6.45-3.78,1.37-7.32,2.59-10.8,3.74l-5.58,1.83-.9-.75C239.07,236.9,236.1,234.41,233.07,232.08ZM216.55,248.5c-3.61,1.16-6.81,2.22-9.76,3.21s-5.55,1.84-7.87,2.6l-.21-.19c-2.88-2.4-5.85-4.89-8.88-7.22l-.1-.06c6.9-2.13,12.63-4,18-5.74l1.12,1C211.62,244.4,214.15,246.52,216.55,248.5Zm-21.1,6.93-2.23.73c-4.81,1.54-9.78,3.15-14.66,4.78l-1.18-1c-2.73-2.28-5.55-4.64-8.42-6.86l.19-.07c.28-.08.57-.17.86-.24l2.92-.89c4.41-1.31,9-2.68,13.46-4,.32.27.63.54,1,.8C190.26,251.13,192.91,253.34,195.45,255.43Zm-20.3,6.67c-3.83,1.32-7.25,2.54-10.42,3.74-2.11.77-4.2,1.57-6.3,2.37l-2.44-2c-2.64-2.19-5.35-4.46-8.1-6.61,5.64-1.78,11.43-3.56,17.67-5.45l.06,0,.29.23C169.31,257.28,172.33,259.81,175.15,262.1Zm-20,7.36c-5.56,2.11-11,4.17-16.51,6.14-1.08-.9-2.16-1.79-3.23-2.7-2.66-2.22-5.4-4.51-8.19-6.69h0c5.27-1.75,10.94-3.57,17.3-5.58C148.46,264,152,266.86,155.16,269.46Zm-19.84,7.31-.15.05-1.41.5c-3.84,1.31-8.87,3.12-13.82,5.35-2.1-1.69-4.21-3.44-6.25-5.14-1.72-1.44-3.49-2.92-5.27-4.36,5.08-2.08,10.3-4,15.51-5.84h0C128.27,271,131.9,274,135.32,276.77ZM124.6,284.3c4.36-1.82,8.85-3.37,13.82-5.06,1.58,1.24,3.05,2.38,4.48,3.45,4.48,3.4,8.33,6.21,12.36,8.77l-.87.34-3.46,1.37-1,.39c-3,1.16-6,2.36-9.09,3.49-2.33-1.26-4.74-2.57-7-4.07-3-2-5.86-4.15-8.67-6.26l-1.46-1.1-.79-.61C123.44,284.78,124,284.54,124.6,284.3ZM146.75,282c-.47-.35-1-.71-1.42-1.07-1.08-.8-2.22-1.69-3.58-2.78,1-.34,2.09-.71,3.17-1.09,4.38-1.52,8.77-3.26,13-4.95l.34-.14c1.87,1.47,3.56,2.79,5.2,4,4,3,7.37,5.51,10.93,7.85-2.3.92-4.59,1.83-6.86,2.75l-9,3.6c-1.19-.69-2.18-1.3-3.09-1.9C152.47,286.28,149.56,284.09,146.75,282Zm20.59-6.72-1.44-1.08c-1.37-1-2.83-2.17-4.45-3.48,1.31-.51,2.91-1.14,4.54-1.76,3.67-1.39,7.56-2.77,12.24-4.34,2.33,1.87,4.51,3.56,6.63,5.16,2.82,2.13,5.83,4.38,8.89,6.48-3.3,1.26-6.3,2.42-9.17,3.54-2.22.87-4.4,1.74-7,2.77-.61-.38-1.12-.7-1.59-1C173,279.56,170.14,277.36,167.34,275.25ZM188.6,269l-1.3-1c-1.71-1.28-3.48-2.68-5.7-4.5l5.54-1.82c4.11-1.34,8.23-2.68,11.37-3.72,2.77,2.23,5.32,4.22,7.79,6.08,2,1.53,4.35,3.29,6.75,5-5.47,2-10.89,4-16.08,6C194.1,273.09,191.32,271,188.6,269Zm21.49-5.71-1.35-1c-2.48-1.86-4.82-3.76-6.82-5.42,6.51-2.14,12-4,17.71-5.8,2.91,2.35,5.59,4.45,8.18,6.4,2.2,1.67,4,3,5.68,4.21-6.26,2.23-11.9,4.26-17.2,6.2C214.19,266.32,212.11,264.76,210.09,263.24Zm21.25-6.78-1.1-.85c-2.55-1.91-5-3.93-7.18-5.71l.93-.3,4.83-1.55c4.59-1.46,9.11-2.9,13.65-4.37,2.47,2,4.77,3.78,7,5.48,1.87,1.41,4.05,3.05,6.31,4.67-6.87,2.36-13.12,4.54-19.05,6.63C234.93,259.15,233.12,257.77,231.34,256.46Zm21.91-8.1c-.43-.33-.88-.67-1.32-1-2.22-1.67-4.35-3.4-6-4.79,6-2,11.43-3.8,16.43-5.56,2.91,2.35,5.58,4.43,8.15,6.37,1.91,1.45,3.52,2.65,5,3.75-2.9,1-5.31,1.76-7.55,2.52-3,1-5.91,2-8.86,3C257.13,251.29,255.15,249.8,253.25,248.36ZM274,242.42l-1.08-.82c-2.55-1.92-5-3.9-7.25-5.77,1.55-.55,3.09-1.12,4.62-1.69,4.25-1.58,8.39-3.26,11.57-4.57,3.2,2.59,6.12,4.9,8.94,7,2,1.55,3.77,2.83,5.36,4-5.87,1.84-11.62,3.65-17.29,5.48C277.22,244.85,275.58,243.62,274,242.42Zm20.32-6.81-1.08-.81c-2.88-2.16-5.71-4.49-8.18-6.55l2.21-.91c4.45-1.85,9.05-3.76,13.6-5.52l.76-.29.24-.09c3.93,3.22,7.47,6,10.82,8.55,1.91,1.44,3.52,2.64,5,3.75-2.61.86-5.24,1.7-7.69,2.48-3.48,1.1-6.94,2.19-10.48,3.29C297.78,238.23,296,236.9,294.3,235.61Zm-4.65-12.9c-2.35,1-4.83,2-7.57,3.07-2.45-2.05-5.08-4.22-7.76-6.29-.79-.61-1.64-1.27-2.62-2.07,5.5-2.11,11.41-4.35,17.47-6.54.51.42,1,.84,1.54,1.26,1,.81,2,1.65,3,2.5,1.76,1.5,3.51,3,5.17,4.35C296.2,220,293.31,221.2,289.65,222.71Zm-17.82-1.47c2.51,2.13,4.79,4,7,5.85-5.53,2.2-11,4.27-16.21,6.19-2.77-2.31-5.62-4.7-8.6-7l-1.83-1.42.52-.2,1.23-.46c4.27-1.61,8.59-3.27,12.77-4.87l1.94-.74.18.13C269.8,219.55,270.84,220.39,271.83,221.24Zm-40.33-7.12,1.57-.52.34-.11a1.58,1.58,0,0,0,.29.39,30.54,30.54,0,0,0,4.56,3.38,29.93,29.93,0,0,1,4.42,3.28c1.19,1.13,2.45,2.21,3.45,3.06-6.2,2.4-11.33,4.35-16.06,6.11-2-1.63-4-3.33-5.93-5.1a41.68,41.68,0,0,0-4.64-3.46c-.85-.59-1.74-1.17-2.57-1.79C222.29,217.39,226.81,215.75,231.5,214.12Zm-17.77,6.4a36.88,36.88,0,0,0,3.56,2.5,29.93,29.93,0,0,1,4.42,3.28c1.72,1.64,3.58,3.17,5.25,4.54-6,2.19-12.25,4.36-19.16,6.64-1.82-1.5-3.62-3.06-5.37-4.63a41.19,41.19,0,0,0-4.63-3.45c-1-.69-2.07-1.41-3.07-2.17C201.22,225.07,207.66,222.74,213.73,220.52Zm-32,10.85,8.19-2.58,1-.32.57-.19a33.52,33.52,0,0,0,4.13,3,29.93,29.93,0,0,1,4.42,3.28c1.5,1.43,3.11,2.78,4.56,4-5.46,1.79-11.38,3.66-18.08,5.73-1.89-1.56-3.76-3.16-5.58-4.79a41.07,41.07,0,0,0-4.63-3.47c-.95-.64-1.93-1.31-2.86-2ZM170.11,235a35.84,35.84,0,0,0,4,2.85,31,31,0,0,1,4.42,3.28c1.54,1.46,3.15,2.82,4.71,4.1l-13.61,4.15-3.85,1.17c-2.06-1.68-4.18-3.48-6.26-5.37a43.75,43.75,0,0,0-4.63-3.45c-.71-.48-1.44-1-2.14-1.47C157.84,238.79,163.38,237.12,170.11,235Zm-23,6.86,1.42-.4.73-.21c1.08.86,2.24,1.61,3.37,2.35a30.55,30.55,0,0,1,4.43,3.28c1.72,1.63,3.59,3.17,5.4,4.67-7.13,2.17-12.64,3.87-17.77,5.48-2.15-1.72-4.38-3.62-6.62-5.64a43.19,43.19,0,0,0-4.63-3.46c-.8-.54-1.63-1.1-2.43-1.69C137.15,244.64,142.28,243.24,147.13,241.88ZM114,250.75l13.56-3.55a39.16,39.16,0,0,0,3.72,2.63,30.28,30.28,0,0,1,4.42,3.28c1.84,1.75,3.85,3.39,5.78,5l-1.18.37c-5.33,1.69-10.84,3.43-16.23,5.27-2.11-1.71-4.31-3.58-6.53-5.57a40.87,40.87,0,0,0-4.62-3.46c-1.25-.85-2.53-1.71-3.71-2.68Zm-16.8,4.44,7.48-2,.8-.21.42-.11a1.85,1.85,0,0,0,.25.32,30.65,30.65,0,0,0,4.56,3.37,30.28,30.28,0,0,1,4.42,3.28c1.84,1.75,3.83,3.39,5.78,5-2.38.83-4.57,1.64-6.69,2.45-2.66,1-5.53,2.17-8.79,3.51l-.16-.11a4.7,4.7,0,0,0-.43-.35c-2.85-2.19-5.85-4.7-8.9-7.44a41.18,41.18,0,0,0-4.64-3.47c-.9-.61-1.84-1.24-2.73-1.91C91.44,256.74,94.36,256,97.18,255.19Zm-9.24,22.28a1.58,1.58,0,0,0-1.13.63,43.82,43.82,0,0,0-5.17-4l-1.3-.84a26.11,26.11,0,0,1-3-2.06c-.68-.58-1.34-1.27-2-1.94a22.7,22.7,0,0,0-2.64-2.46c-1.28-.94-2.5-2-3.68-3l-1.75-1.52c5.26-.92,10.92-2.15,17.74-3.88a36.1,36.1,0,0,0,4,2.89,29.75,29.75,0,0,1,4.42,3.28c1.86,1.77,3.89,3.43,5.85,5,1,.8,2,1.63,3,2.47h0l-2,.84c-.9.39-1.8.8-2.75,1.24C94.48,275.62,91.22,277.13,87.94,277.47Zm16,12.35a1.4,1.4,0,0,0-1.46,1.47v.19a46.46,46.46,0,0,0-4-3.24c-.31-.2-.6-.41-.91-.62a39.18,39.18,0,0,1-7.63-6.32l-.57-.65a29.17,29.17,0,0,0,7.07-2.48h0c2.24-1,4.57-2,6.82-2.88.63-.27,1.29-.53,1.92-.79,4.3,3.61,8.15,6.76,11.75,9.57l-3.29,1.61c-3,1.45-6,2.94-9.12,4.26A1.87,1.87,0,0,0,103.93,289.82Zm13.13,13.68-2.43-2c-2.25-1.82-4.58-3.71-6.93-5.52-1-.81-2.08-1.7-3-2.52l.08,0c3.52-1.41,7-3.11,10.33-4.75,1.58-.76,3.2-1.56,4.82-2.32l.22.16,1.13.87a157.72,157.72,0,0,0,15.94,10.95,100.82,100.82,0,0,1-20.07,5.12ZM152,310.65c-3,.83-5.95,1.89-8.44,2.81l-1.22.46a16.68,16.68,0,0,1-5.88,1.5h-.06a1.62,1.62,0,0,0-.49-.31,14.19,14.19,0,0,0-3.3-1.48,12.87,12.87,0,0,1-3-1.77c-.6-.43-1.18-.82-1.74-1.16-2.63-1.5-4.93-2.94-7-4.39a119.55,119.55,0,0,0,20.41-5.76c1.91,1,3.88,1.84,5.79,2.69,1.23.54,2.49,1.1,3.72,1.68a35.72,35.72,0,0,1,6.45,4.17C155.29,309.69,153.57,310.21,152,310.65Zm22.76-7.43-6.06,2-2.63.89c-1.8.62-3.65,1.24-5.48,1.85-.6-.45-1.2-.94-1.8-1.41a27.89,27.89,0,0,0-5-3.44c-1.34-.65-2.74-1.23-4.1-1.79-1.61-.66-3.26-1.35-4.83-2.16,3.24-1.24,6.48-2.54,9.61-3.8L158,294l.34-.14.54-.21c1.36.77,2.5,1.41,3.57,2,2,1.06,4.17,2,6.23,2.9,1.21.54,2.48,1.11,3.72,1.69a27.57,27.57,0,0,1,4.1,2.44Zm5.14-1.73a25.55,25.55,0,0,0-4.51-3.05c-1.34-.65-2.74-1.22-4.1-1.79a51.06,51.06,0,0,1-5.53-2.53c-1-.58-2.1-1.16-3.14-1.72l-.28-.15,1.48-.59L177.9,286c1.75,1.05,3.41,2,5.07,2.85,2.06,1.06,4.17,2,6.23,2.91,1.22.54,2.49,1.1,3.72,1.68a24.94,24.94,0,0,1,3.78,2.21C190.85,297.76,184.94,299.78,179.87,301.49ZM214,289.35c-3.95,1.47-8,3-12.07,4.46l-1.31.48-.5.18a23.75,23.75,0,0,0-4.17-2.76c-1.34-.66-2.74-1.23-4.11-1.79a48.84,48.84,0,0,1-5.5-2.54c-1-.57-2.1-1.15-3.13-1.7l-1.85-1c5.8-2.3,11-4.32,15.86-6.18,2.5,1.6,4.86,3,7.18,4.16,2,1.06,4.17,2,6.21,2.91,1.22.54,2.5,1.1,3.74,1.68.69.34,1.41.72,2.16,1.17Zm6-2.22a17.35,17.35,0,0,0-2.65-1.63c-1.34-.66-2.75-1.24-4.11-1.8a50.53,50.53,0,0,1-5.5-2.52c-1-.58-2.11-1.16-3.13-1.71-1.34-.72-2.72-1.47-4.06-2.24,5-1.91,10.26-3.85,15.9-5.92a95.89,95.89,0,0,0,9.39,5.62c2.05,1.05,4.16,2,6.21,2.9,1.19.52,2.4,1.07,3.61,1.62C231.1,283,226.23,284.82,220,287.13Zm23.41-8.37-3.94,1.35-.68-.36c-1.33-.66-2.75-1.23-4.11-1.79a51.57,51.57,0,0,1-5.51-2.52c-1-.58-2.09-1.15-3.1-1.7-2.1-1.14-4.27-2.32-6.34-3.62,5.39-2,11-4,17.19-6.11a98.27,98.27,0,0,0,10.42,6.31c2.06,1.06,4.18,2,6.23,2.91l2.38,1.06C251.15,276.05,247.16,277.48,243.38,278.76Zm27.87-10.27c-3.78,1.45-7.69,2.94-11.55,4.4-1.16-.54-2.36-1-3.53-1.52a49.13,49.13,0,0,1-5.52-2.54l-3.12-1.71c-2.38-1.28-4.86-2.61-7.18-4.15l-.17-.11a1.9,1.9,0,0,1,.28-.1L251.27,259c2.65-.94,5.3-1.85,8-2.79a93.77,93.77,0,0,0,9.78,5.88c2.06,1.06,4.18,2,6.23,2.91.78.34,1.58.71,2.4,1.06Zm21.19-8-7.17,2.68c-1.3.47-2.59,1-3.89,1.46-1.16-.55-2.35-1-3.52-1.52a50.75,50.75,0,0,1-5.51-2.53c-1.05-.59-2.1-1.15-3.13-1.71-2.21-1.2-4.49-2.42-6.66-3.82,6.19-2.15,11.41-3.91,16.33-5.52A98.39,98.39,0,0,0,290,256.31c2,1,4.08,2,6.08,2.85Zm7.37-2.74c-.34-.13-.65-.27-1-.4a49.28,49.28,0,0,1-5.53-2.54c-1-.58-2.1-1.15-3.13-1.7-2.38-1.29-4.85-2.62-7.16-4.16l-.76-.52c.16-.05.33-.09.49-.15,5-1.63,10.17-3.22,15.13-4.75l1.71-.54a95.77,95.77,0,0,0,10.7,6.51c1.8.94,3.65,1.76,5.33,2.51C311,253.63,306.11,255.42,299.81,257.76Zm26.33-9.32-6.67,2.25-.32-.13a50,50,0,0,1-5.52-2.54l-3.12-1.71c-2.39-1.28-4.85-2.62-7.19-4.15a3.46,3.46,0,0,0-.31-.22c4.75-1.48,9.82-3.08,14.95-4.77.94-.3,1.92-.65,3.09-1.06a99.27,99.27,0,0,0,11.13,6.8c1.37.71,2.74,1.35,4.32,2.05C333.05,246.16,329.57,247.31,326.14,248.44Zm22.44-13.54c2.06,1.06,4.18,2,6.22,2.9l.61.27c-1.87.6-3.74,1.33-5.54,2-1.1.44-2.22.88-3.32,1.29-1.88.68-3.87,1.4-6.26,2.24a44.7,44.7,0,0,1-4.78-2.22c-1-.58-2.1-1.16-3.11-1.71-2.4-1.29-4.86-2.62-7.17-4.15-.32-.21-.64-.43-.94-.65,3.74-1.41,7.46-3,11.09-4.47L338.8,229A99.08,99.08,0,0,0,348.58,234.9ZM329.09,222c2,1.48,4.24,3.2,6.56,4.85-1.62.7-3.3,1.42-5,2.11-2.88,1.21-6.05,2.41-9.67,3.66-1.64-1.19-3.29-2.44-4.9-3.64l-1-.76c-3.4-2.56-6.71-5.33-9.92-8,5-1.8,10.07-3.4,15.21-5C323.52,217.7,326.36,219.92,329.09,222Zm-19-15.36c2.58,2.19,4.92,4.16,7.19,6l-6.89,2.2c-2.58.84-5.26,1.77-8.21,2.87-1.76-1.47-3.84-3.17-6-4.84-1.26-1-2.58-2-3.91-3.13,5.46-1.95,10.51-3.64,15.38-5.16C308.47,205.25,309.31,205.93,310.13,206.63Zm-19.8-10.45a1.24,1.24,0,0,0,.37.06l.21,0a8.75,8.75,0,0,0,1.6-.46l.77-.27a5.92,5.92,0,0,1,.62-.19l.43-.1c.36-.09.73-.18,1.1-.29l1.43.93a30.75,30.75,0,0,1,4.43,3.28c.94.91,2,1.83,3.32,2.95-4.91,1.55-9.93,3.24-15.31,5.14-.66-.57-1.33-1.16-2-1.77a43.42,43.42,0,0,0-4.62-3.46c-1.06-.71-2.15-1.45-3.18-2.24C283.4,198.53,287,197.36,290.33,196.18Zm-14.12,4.57a33.24,33.24,0,0,0,4.25,3.11,30.49,30.49,0,0,1,4.43,3.27c.38.37.8.75,1.28,1.19-5.23,1.89-10.83,4-17.53,6.55-1.19-1-2.24-1.94-3.23-2.83a41.19,41.19,0,0,0-4.63-3.45c-1.12-.76-2.29-1.55-3.38-2.41,1-.28,2-.55,3-.84C265.55,203.87,270.94,202.35,276.21,200.75Z"/><path d="M195.38,66.83c0,.66.09,2.83,1.17,2.89,4.63.28,9-1.77,13.5-2.6a.65.65,0,0,0,.53-.7,41.64,41.64,0,0,0-.59-8c-.39-1.8-1.55-2.39-3.31-1.72-2.58,1-5.14,2.2-7.94,2.31-1.36.05-3.83.92-3.63,1.65C195.69,62.72,195.3,64.71,195.38,66.83Zm1.27-4.22a.49.49,0,0,0,.45-.52c0-2.33,1.89-1.82,3.7-2.19a21.33,21.33,0,0,0,4.5-1.39c.74-.35,2.8-1.51,3.34-.36a7.42,7.42,0,0,1,.36,2.77c.08,1.7.27,3.39.34,5.1-1.9.39-3.77,1-5.67,1.38-1.13.25-2.17.69-3.3.91-.87.16-1.78,0-2.66.08s-.91.19-1.06-.82a12,12,0,0,1,0-2.54A19.54,19.54,0,0,0,196.65,62.61Z"/><path d="M197.42,70.24h0l-.9,0c-1.52-.09-1.6-2.54-1.63-3.35s0-1.41,0-2.1a13.17,13.17,0,0,0-.27-4,.87.87,0,0,1,.17-.77c.61-.84,2.76-1.46,3.91-1.51a19.9,19.9,0,0,0,6.37-1.72l1.42-.55a4,4,0,0,1,1.44-.3c.75,0,2.07.31,2.53,2.39a39.66,39.66,0,0,1,.57,7.4l0,.73a1.14,1.14,0,0,1-.92,1.18c-1.53.28-3.07.72-4.56,1.13A30.55,30.55,0,0,1,197.42,70.24ZM208,56.87a3.32,3.32,0,0,0-1.1.24l-1.41.54a20.3,20.3,0,0,1-6.68,1.8,5.65,5.65,0,0,0-3.18,1.13,13.12,13.12,0,0,1,.31,4.22c0,.66,0,1.33,0,2,.07,2.22.56,2.42.71,2.43l.84,0h0a29.92,29.92,0,0,0,7.91-1.47c1.51-.42,3.07-.86,4.63-1.15.06,0,.14,0,.13-.21V65.7a37.53,37.53,0,0,0-.56-7.21C209.17,56.87,208.25,56.87,208,56.87Zm-10.8,12.07c-.79,0-.89-.66-1-1.3a9.92,9.92,0,0,1,0-2.31l0-.33a20.42,20.42,0,0,0,0-2.36l0-.47.46-.05c0-2.28,1.65-2.42,2.95-2.55a10.26,10.26,0,0,0,1.16-.15,20.3,20.3,0,0,0,4.4-1.36l.25-.12a6.11,6.11,0,0,1,2.4-.77,1.39,1.39,0,0,1,1.33.78,5.77,5.77,0,0,1,.39,2.36,5.72,5.72,0,0,0,0,.59c0,.78.1,1.56.16,2.34s.14,1.84.17,2.76l0,.41-.4.08c-1,.21-2,.47-3,.73s-1.79.47-2.69.66a14.6,14.6,0,0,0-1.51.43,16.94,16.94,0,0,1-1.8.47,4.18,4.18,0,0,1-1,.09h-.57a7.13,7.13,0,0,0-1.13,0h-.16A2.19,2.19,0,0,1,197.15,68.94Zm0-6c0,.65,0,1.35,0,2.13l0,.33a9.81,9.81,0,0,0,0,2.1,3.47,3.47,0,0,0,.09.47l.27,0,.17,0a6.71,6.71,0,0,1,1.27,0h.54a3.6,3.6,0,0,0,.8-.07,14.59,14.59,0,0,0,1.69-.46c.53-.16,1.06-.33,1.61-.44.88-.2,1.76-.43,2.64-.66s1.74-.46,2.63-.65c0-.77-.1-1.53-.17-2.3s-.12-1.58-.16-2.38c0-.2,0-.41,0-.61a4.88,4.88,0,0,0-.29-2c0-.1-.14-.22-.45-.22a5.57,5.57,0,0,0-2,.68l-.27.13a21.78,21.78,0,0,1-4.62,1.43,11.6,11.6,0,0,1-1.27.16c-1.43.14-2,.24-2,1.56A1,1,0,0,1,197.16,62.93Z"/><path d="M215.8,62.34c0,.67.09,2.83,1.17,2.9,4.62.28,9-1.78,13.5-2.61a.64.64,0,0,0,.53-.69,43.15,43.15,0,0,0-.58-8c-.41-1.81-1.56-2.4-3.33-1.73-2.58,1-5.13,2.19-7.93,2.3-1.36.06-3.83.93-3.63,1.66C216.1,58.23,215.72,60.23,215.8,62.34Zm1.26-4.22a.49.49,0,0,0,.46-.51c0-2.34,1.9-1.83,3.69-2.2A20.84,20.84,0,0,0,225.72,54c.74-.34,2.8-1.51,3.34-.35a7.14,7.14,0,0,1,.35,2.76c.08,1.71.28,3.39.34,5.1-1.9.39-3.77,1-5.66,1.39-1.13.24-2.18.68-3.3.9-.87.17-1.78,0-2.65.08s-.92.19-1.08-.81a13.58,13.58,0,0,1,0-2.55A16.29,16.29,0,0,0,217.06,58.12Z"/><path d="M217.84,65.75h0l-.9,0c-1.51-.09-1.61-2.55-1.64-3.36s0-1.4,0-2.08a12.7,12.7,0,0,0-.28-4,.9.9,0,0,1,.18-.77c.61-.83,2.75-1.45,3.91-1.5a19.85,19.85,0,0,0,6.37-1.73c.46-.19.93-.37,1.41-.55a4,4,0,0,1,1.45-.3c.75,0,2.07.31,2.52,2.39a38.1,38.1,0,0,1,.59,7.4v.73a1.12,1.12,0,0,1-.93,1.18c-1.52.28-3.06.71-4.55,1.14A30.54,30.54,0,0,1,217.84,65.75Zm10.53-13.36a3.09,3.09,0,0,0-1.11.24c-.47.17-.93.35-1.4.54a20.72,20.72,0,0,1-6.69,1.8A5.59,5.59,0,0,0,216,56.09a13.52,13.52,0,0,1,.3,4.24c0,.65,0,1.32,0,2,.07,2.22.56,2.42.71,2.43l.84,0h0a29.46,29.46,0,0,0,7.9-1.47c1.52-.43,3.08-.86,4.65-1.15.05,0,.12,0,.12-.2v-.74a37.53,37.53,0,0,0-.57-7.21C229.59,52.39,228.66,52.39,228.37,52.39Zm-10.8,12.06c-.78,0-.9-.66-1-1.3a10.69,10.69,0,0,1,0-2.33l0-.31a23.18,23.18,0,0,0,0-2.36l0-.47.47,0c.05-2.28,1.65-2.42,2.94-2.55.38,0,.77-.07,1.17-.14a19.94,19.94,0,0,0,4.4-1.37l.25-.12a6.06,6.06,0,0,1,2.4-.77,1.36,1.36,0,0,1,1.33.78,5.58,5.58,0,0,1,.38,2.35c0,.21,0,.41,0,.6,0,.8.1,1.59.17,2.38s.15,1.81.18,2.72v.42l-.4.08c-1,.2-2,.47-3,.73s-1.77.46-2.67.65c-.51.12-1,.27-1.52.42a16.16,16.16,0,0,1-1.79.49,4.9,4.9,0,0,1-1,.08h-.57a7.11,7.11,0,0,0-1.13,0l-.15,0C217.84,64.43,217.69,64.45,217.57,64.45Zm0-6c0,.65,0,1.34,0,2.12l0,.3a10.19,10.19,0,0,0,0,2.14,2.45,2.45,0,0,0,.09.46l.27,0,.17,0a8.84,8.84,0,0,1,1.26,0l.54,0h0a4.4,4.4,0,0,0,.8-.07c.57-.12,1.11-.28,1.7-.46s1.06-.33,1.59-.44c.89-.19,1.76-.42,2.63-.65s1.75-.46,2.64-.66c0-.75-.1-1.51-.15-2.26s-.13-1.61-.17-2.42c0-.2,0-.4,0-.62a4.84,4.84,0,0,0-.29-2c0-.07-.1-.22-.45-.22a5.5,5.5,0,0,0-2,.67l-.28.14a20.9,20.9,0,0,1-4.62,1.43,11.67,11.67,0,0,1-1.27.17c-1.43.13-2,.24-2,1.55A1,1,0,0,1,217.57,58.45Z"/><path d="M209.14,72.5c-2.58,1-5.14,2.2-7.94,2.31-1.36.06-3.82.93-3.62,1.65.57,2.11.19,4.1.26,6.22,0,.66.1,2.82,1.18,2.89,4.63.27,9-1.78,13.49-2.6a.65.65,0,0,0,.53-.7,41.46,41.46,0,0,0-.58-8C212.06,72.42,210.91,71.83,209.14,72.5Zm2,1.5a7,7,0,0,1,.36,2.77c.08,1.7.28,3.38.34,5.09-1.91.39-3.77,1-5.66,1.39-1.12.24-2.18.68-3.31.9-.86.17-1.77,0-2.65.09s-.91.18-1.07-.83a11.89,11.89,0,0,1,0-2.53,21.89,21.89,0,0,0,0-2.43.49.49,0,0,0,.46-.51c0-2.34,1.89-1.83,3.68-2.2a19.74,19.74,0,0,0,4.52-1.4C208.5,74,210.56,72.83,211.1,74Z"/><path d="M199.89,86.09h0l-.9,0c-1.5-.09-1.58-2.45-1.62-3.33s0-1.43,0-2.11a13.54,13.54,0,0,0-.26-4,.91.91,0,0,1,.16-.78c.61-.83,2.76-1.45,3.91-1.5a19.6,19.6,0,0,0,6.37-1.73L209,72a4.18,4.18,0,0,1,1.46-.3c.74,0,2.06.32,2.52,2.39a38.9,38.9,0,0,1,.58,7.4v.74a1.1,1.1,0,0,1-.92,1.17c-1.53.28-3.07.72-4.56,1.14A30.4,30.4,0,0,1,199.89,86.09Zm10.53-13.37a3.14,3.14,0,0,0-1.11.24l-1.41.54a20.61,20.61,0,0,1-6.68,1.8,5.59,5.59,0,0,0-3.17,1.12,13.46,13.46,0,0,1,.3,4.23c0,.66,0,1.33,0,2,.09,2.22.57,2.41.72,2.42s.56,0,.83,0h0a29.85,29.85,0,0,0,7.9-1.47c1.52-.43,3.07-.87,4.64-1.16,0,0,.13,0,.13-.2l0-.74a37.36,37.36,0,0,0-.56-7.2C211.63,72.72,210.71,72.72,210.42,72.72Zm-10.8,12.06c-.79,0-.89-.65-1-1.29a10.23,10.23,0,0,1,0-2.28l0-.36a23.17,23.17,0,0,0,0-2.36l0-.46.46-.06c.06-2.28,1.66-2.43,2.95-2.55.37,0,.77-.08,1.15-.15a19.8,19.8,0,0,0,4.42-1.37l.25-.12a6.22,6.22,0,0,1,2.4-.77,1.37,1.37,0,0,1,1.33.78,5.69,5.69,0,0,1,.38,2.38c0,.2,0,.38,0,.57,0,.79.1,1.57.16,2.35s.15,1.83.18,2.75l0,.41-.41.09c-1,.2-2,.47-3,.73s-1.77.46-2.67.65c-.51.12-1,.27-1.51.43s-1.17.36-1.79.48a6.9,6.9,0,0,1-1.56.07,8.56,8.56,0,0,0-1.13,0l-.16,0C199.89,84.76,199.74,84.78,199.62,84.78Zm0-6a19.14,19.14,0,0,1,0,2.13l0,.37a11,11,0,0,0,0,2.07c0,.09.06.33.09.46s.17,0,.27,0l.18,0a9,9,0,0,1,1.27,0,7.06,7.06,0,0,0,1.34,0c.56-.12,1.11-.29,1.69-.47s1.06-.32,1.6-.44c.88-.19,1.75-.42,2.62-.65s1.76-.45,2.65-.65c0-.77-.1-1.54-.17-2.31s-.12-1.57-.16-2.37c0-.2,0-.4,0-.61a5.23,5.23,0,0,0-.29-2c0-.08-.11-.23-.45-.23a5.49,5.49,0,0,0-2,.68l-.27.13a20.47,20.47,0,0,1-4.61,1.43,11.67,11.67,0,0,1-1.27.17c-1.44.13-2,.24-2,1.55A1,1,0,0,1,199.62,78.77Z"/><path d="M229.56,68c-2.58,1-5.13,2.2-7.94,2.31-1.36.05-3.82.93-3.63,1.66.58,2.1.19,4.09.27,6.21,0,.65.1,2.83,1.18,2.89,4.62.27,9-1.77,13.49-2.61a.63.63,0,0,0,.53-.69,43,43,0,0,0-.58-8C232.48,67.93,231.32,67.35,229.56,68Zm2,1.5a7.42,7.42,0,0,1,.36,2.77c.08,1.7.29,3.39.34,5.09-1.91.39-3.77,1-5.67,1.38-1.12.26-2.17.69-3.31.92-.85.17-1.77,0-2.64.08s-.91.18-1.07-.82a11.44,11.44,0,0,1,0-2.55,17.77,17.77,0,0,0,0-2.42.48.48,0,0,0,.45-.52c0-2.32,1.89-1.81,3.7-2.18a21.35,21.35,0,0,0,4.5-1.4C228.92,69.52,231,68.35,231.52,69.51Z"/><path d="M220.29,81.6h0l-.88,0c-1.53-.09-1.61-2.55-1.64-3.35s0-1.41,0-2.1a13.22,13.22,0,0,0-.27-4,.91.91,0,0,1,.17-.76c.61-.84,2.76-1.46,3.91-1.51A19.73,19.73,0,0,0,228,68.09l1.39-.53a4.13,4.13,0,0,1,1.45-.3c.76,0,2.08.31,2.52,2.38a38.16,38.16,0,0,1,.58,7.4l0,.73A1.11,1.11,0,0,1,233,79c-1.51.28-3.05.72-4.55,1.14A30.62,30.62,0,0,1,220.29,81.6Zm10.54-13.36a3.28,3.28,0,0,0-1.1.23c-.47.17-.92.35-1.38.54a21,21,0,0,1-6.71,1.8c-1.29.06-3,.77-3.17,1.13a13.33,13.33,0,0,1,.3,4.21c0,.67,0,1.34,0,2,.08,2.22.57,2.41.72,2.42s.55,0,.82,0h0a30.09,30.09,0,0,0,7.92-1.48c1.51-.42,3.07-.86,4.64-1.15.06,0,.13,0,.13-.2l0-.73a38.22,38.22,0,0,0-.56-7.21C232.05,68.24,231.13,68.24,230.83,68.24ZM220,80.29c-.79,0-.89-.65-1-1.28a10.62,10.62,0,0,1,0-2.32l0-.33A20.32,20.32,0,0,0,219,74l0-.46.46-.06c.05-2.28,1.65-2.44,2.94-2.55a9.65,9.65,0,0,0,1.17-.16,19.62,19.62,0,0,0,4.4-1.36l.26-.11a5.87,5.87,0,0,1,2.39-.78,1.38,1.38,0,0,1,1.33.78,5.75,5.75,0,0,1,.39,2.39c0,.19,0,.38,0,.57,0,.76.1,1.53.15,2.29.08.93.15,1.87.19,2.8v.41l-.4.09c-1,.2-2,.47-3,.72s-1.78.47-2.69.66c-.51.12-1,.27-1.51.43a16.34,16.34,0,0,1-1.8.48,7.43,7.43,0,0,1-1.55.07c-.39,0-.75,0-1.13,0l-.17,0Zm0-6a18.87,18.87,0,0,1,0,2.12l0,.33a9.91,9.91,0,0,0,0,2.11,4.16,4.16,0,0,0,.09.47l.27,0,.17,0a10.77,10.77,0,0,1,1.27,0,6.77,6.77,0,0,0,1.34-.06,16.09,16.09,0,0,0,1.71-.46c.52-.15,1-.32,1.58-.44.89-.19,1.78-.43,2.66-.66s1.73-.45,2.62-.64c0-.79-.11-1.57-.16-2.35s-.13-1.55-.17-2.32c0-.21,0-.4,0-.61a4.77,4.77,0,0,0-.3-2c0-.11-.12-.23-.44-.23a5.63,5.63,0,0,0-2,.68l-.27.13a20.22,20.22,0,0,1-4.62,1.43,11.67,11.67,0,0,1-1.27.17c-1.43.13-2,.24-2,1.55A1,1,0,0,1,220,74.29Z"/><path d="M211.61,88c-2.58,1-5.14,2.2-7.94,2.3-1.36.06-3.83.93-3.63,1.66.57,2.1.19,4.1.27,6.21,0,.66.09,2.83,1.17,2.9,4.63.28,9-1.78,13.5-2.62a.62.62,0,0,0,.53-.68,43,43,0,0,0-.58-8C214.53,87.92,213.37,87.33,211.61,88Zm2,1.5a7.14,7.14,0,0,1,.35,2.76c.1,1.7.29,3.39.35,5.09-1.91.4-3.77,1-5.68,1.4-1.11.24-2.16.68-3.3.9-.85.17-1.77,0-2.64.09s-.92.17-1.08-.83a12,12,0,0,1,0-2.54,19.51,19.51,0,0,0,0-2.42.49.49,0,0,0,.46-.52c0-2.33,1.9-1.82,3.69-2.19a21.1,21.1,0,0,0,4.52-1.39C211,89.5,213,88.34,213.57,89.5Z"/><path d="M202.35,101.58l-.9,0c-1.54-.1-1.61-2.56-1.62-3.38s0-1.38,0-2.07a13.22,13.22,0,0,0-.27-4,.9.9,0,0,1,.17-.77c.6-.83,2.75-1.46,3.91-1.5A19.87,19.87,0,0,0,210,88.08l1.41-.54a4.07,4.07,0,0,1,1.46-.29c.74,0,2.06.3,2.52,2.38a39.84,39.84,0,0,1,.58,7.49v.64a1.12,1.12,0,0,1-.93,1.17c-1.51.28-3,.72-4.55,1.14A30.55,30.55,0,0,1,202.35,101.58Zm10.54-13.36a3.09,3.09,0,0,0-1.11.24c-.48.17-.93.35-1.4.54a20.66,20.66,0,0,1-6.69,1.79,5.78,5.78,0,0,0-3.18,1.12,13.24,13.24,0,0,1,.31,4.24c0,.66,0,1.33,0,2,.07,2.28.6,2.43.71,2.43,3,.2,5.91-.65,8.75-1.45,1.51-.43,3.07-.86,4.63-1.15.06,0,.13,0,.12-.2v-.65a38.24,38.24,0,0,0-.56-7.29C214.11,88.22,213.18,88.22,212.89,88.22Zm-10.8,12c-.8,0-.9-.65-1-1.28a10.6,10.6,0,0,1,0-2.32l0-.32a18.69,18.69,0,0,0,0-2.37l0-.47.47,0c0-2.28,1.64-2.43,2.93-2.55.38,0,.77-.08,1.16-.16A19.8,19.8,0,0,0,210,89.4l.27-.13a6.23,6.23,0,0,1,2.39-.77,1.4,1.4,0,0,1,1.34.79,5.88,5.88,0,0,1,.38,2.38,5.33,5.33,0,0,0,0,.57c0,.77.09,1.53.15,2.29.08.93.15,1.87.18,2.81l0,.41-.41.08c-1,.21-1.94.46-2.91.71s-1.83.48-2.75.67c-.5.13-1,.27-1.48.43a18.19,18.19,0,0,1-1.83.48,7,7,0,0,1-1.57.08,8.2,8.2,0,0,0-1.11,0l-.17,0Zm0-6c0,.65,0,1.35,0,2.12l0,.33a9.2,9.2,0,0,0,0,2.1c0,.09.05.33.08.47l.28,0,.17,0a7.53,7.53,0,0,1,1.26,0,7,7,0,0,0,1.35,0c.58-.12,1.14-.29,1.73-.47s1-.31,1.55-.43c.92-.2,1.82-.44,2.72-.67s1.71-.45,2.56-.64c0-.79-.1-1.57-.17-2.35s-.11-1.55-.15-2.33c0-.19,0-.39,0-.59a4.91,4.91,0,0,0-.29-2c0-.08-.1-.22-.45-.22a5.48,5.48,0,0,0-2,.66l-.29.13a19.94,19.94,0,0,1-4.61,1.44c-.43.08-.85.12-1.27.17-1.43.14-2,.24-2,1.55A1,1,0,0,1,202.09,94.28Z"/><path d="M232,83.51c-2.57,1-5.13,2.2-7.93,2.31-1.37.05-3.83.92-3.63,1.65.57,2.1.19,4.1.26,6.21,0,.66.1,2.83,1.17,2.9,4.64.28,9-1.78,13.5-2.61a.63.63,0,0,0,.53-.69,43,43,0,0,0-.58-8C235,83.43,233.79,82.84,232,83.51Zm2,1.5a7.19,7.19,0,0,1,.35,2.77c.08,1.7.29,3.38.34,5.08-1.9.4-3.77,1-5.66,1.4-1.12.24-2.18.68-3.3.9-.86.17-1.78,0-2.66.09s-.9.18-1.07-.83a12.68,12.68,0,0,1,0-2.54,19.54,19.54,0,0,0,0-2.42.48.48,0,0,0,.46-.51c0-2.33,1.89-1.83,3.69-2.2a20.17,20.17,0,0,0,4.51-1.4C231.39,85,233.44,83.85,234,85Z"/><path d="M222.77,97.09l-.91,0c-1.5-.08-1.59-2.44-1.62-3.33,0-.72,0-1.4,0-2.09a13.7,13.7,0,0,0-.27-4,.87.87,0,0,1,.17-.77c.61-.83,2.75-1.45,3.91-1.5a19.91,19.91,0,0,0,6.38-1.73l1.4-.55a4.06,4.06,0,0,1,1.45-.29c.75,0,2.07.31,2.52,2.38a37.79,37.79,0,0,1,.58,7.37v.76a1.12,1.12,0,0,1-.92,1.18c-1.52.28-3.06.71-4.55,1.13A30.69,30.69,0,0,1,222.77,97.09ZM233.3,83.73a3.38,3.38,0,0,0-1.11.23l-1.39.55a20.66,20.66,0,0,1-6.7,1.8,5.65,5.65,0,0,0-3.17,1.12,13.59,13.59,0,0,1,.31,4.25c0,.66-.05,1.32,0,2,.09,2.22.57,2.42.72,2.43,2.94.18,5.9-.65,8.74-1.45,1.52-.42,3.08-.86,4.64-1.16.06,0,.13,0,.12-.19v-.77a38.7,38.7,0,0,0-.56-7.17C234.51,83.73,233.6,83.73,233.3,83.73ZM222.5,95.8c-.79,0-.89-.67-1-1.3a10.88,10.88,0,0,1,0-2.28l0-.37a18.55,18.55,0,0,0,0-2.36l0-.46.47-.06c0-2.27,1.65-2.43,2.93-2.55a9.36,9.36,0,0,0,1.17-.15,19.71,19.71,0,0,0,4.41-1.36l.25-.12a6,6,0,0,1,2.4-.77,1.4,1.4,0,0,1,1.34.78,5.84,5.84,0,0,1,.37,2.38c0,.19,0,.39,0,.57,0,.79.1,1.57.16,2.35s.15,1.83.18,2.75v.41l-.39.08c-1,.21-2,.47-2.95.72s-1.81.47-2.72.67c-.51.11-1,.27-1.49.42a17.34,17.34,0,0,1-1.82.49,7.56,7.56,0,0,1-1.57.08,7,7,0,0,0-1.12,0l-.16,0A3.17,3.17,0,0,1,222.5,95.8Zm0-6c0,.66,0,1.35,0,2.12l0,.37a10.21,10.21,0,0,0,0,2.07c0,.09.05.33.08.46a2.66,2.66,0,0,0,.28,0l.16,0a7.7,7.7,0,0,1,1.27,0,6.92,6.92,0,0,0,1.35-.06,17.28,17.28,0,0,0,1.71-.46c.52-.16,1-.32,1.58-.44.9-.2,1.8-.43,2.68-.66s1.72-.45,2.6-.65c-.05-.76-.11-1.53-.18-2.29s-.12-1.58-.16-2.38c0-.2,0-.41,0-.61a4.78,4.78,0,0,0-.28-2c0-.08-.11-.22-.45-.22a5.41,5.41,0,0,0-2,.67l-.26.12a20.87,20.87,0,0,1-4.62,1.44,11.67,11.67,0,0,1-1.27.17c-1.44.14-2,.24-2,1.55A1,1,0,0,1,222.5,89.79Z"/><path d="M51.4,206.85c0,.66.09,2.83,1.17,2.9,4.62.27,9-1.79,13.5-2.62a.61.61,0,0,0,.52-.68,42.25,42.25,0,0,0-.57-8c-.4-1.81-1.56-2.4-3.33-1.74-2.57,1-5.13,2.2-7.94,2.32-1.36,0-3.82.91-3.62,1.65C51.7,202.74,51.32,204.73,51.4,206.85Zm1.27-1.8c0-.82.45-2.61.45-2.94,0-2.34,1.9-1.82,3.69-2.2a20.14,20.14,0,0,0,4.51-1.39c.74-.34,2.79-1.51,3.34-.34a7,7,0,0,1,.35,2.76c.08,1.71.28,3.39.34,5.09-1.9.4-3.76,1-5.67,1.39-1.11.24-2.17.68-3.29.9-.87.18-1.78,0-2.65.09s-.92.19-1.07-.82A12,12,0,0,1,52.67,205.05Z"/><path d="M53.42,210.26h0l-.88,0c-1.51-.08-1.59-2.45-1.62-3.34a21,21,0,0,1,0-2.1,13,13,0,0,0-.28-4,.92.92,0,0,1,.17-.76c.61-.84,2.76-1.46,3.91-1.51a20,20,0,0,0,6.41-1.73c.45-.19.92-.37,1.38-.54a4.13,4.13,0,0,1,1.45-.3c.75,0,2.07.3,2.52,2.38a38.47,38.47,0,0,1,.59,7.43v.71a1.13,1.13,0,0,1-.93,1.18c-1.51.27-3.06.71-4.55,1.13A30.62,30.62,0,0,1,53.42,210.26ZM64,196.9a3.14,3.14,0,0,0-1.11.23l-1.37.53a20,20,0,0,1-6.72,1.8c-1.28.06-3,.78-3.17,1.14a13.77,13.77,0,0,1,.31,4.23c0,.66,0,1.32,0,2,.08,2.22.56,2.42.71,2.42s.55,0,.82,0h0a29.54,29.54,0,0,0,7.92-1.48c1.51-.42,3.08-.86,4.64-1.14.06,0,.13,0,.13-.2v-.72a37.74,37.74,0,0,0-.57-7.23C65.18,196.9,64.27,196.9,64,196.9ZM53.17,209c-.78,0-.89-.66-1-1.3a10.78,10.78,0,0,1,0-2.27l0-.37c0-.5.19-1.32.31-2a9,9,0,0,0,.15-.94c0-2.24,1.63-2.39,2.92-2.5.37,0,.77-.09,1.16-.16a20,20,0,0,0,4.41-1.37l.27-.13a6.12,6.12,0,0,1,2.38-.76,1.37,1.37,0,0,1,1.33.79,5.64,5.64,0,0,1,.38,2.37c0,.2,0,.39,0,.58,0,.77.1,1.55.17,2.33s.14,1.84.17,2.77l0,.4-.41.09c-1,.21-2,.47-3,.71s-1.79.48-2.7.68a15.31,15.31,0,0,0-1.51.42,17,17,0,0,1-1.8.48,7.55,7.55,0,0,1-1.56.08,6.94,6.94,0,0,0-1.12,0l-.16,0C53.44,208.94,53.29,209,53.17,209Zm10.6-10.8a5.2,5.2,0,0,0-2,.67l-.3.14a21.17,21.17,0,0,1-4.61,1.43,11.3,11.3,0,0,1-1.27.16c-1.44.14-2,.25-2,1.56a7.66,7.66,0,0,1-.18,1.09c-.11.64-.25,1.42-.27,1.87l0,.37a10.22,10.22,0,0,0,0,2.07c0,.08.05.32.08.45l.28,0,.17,0a10.73,10.73,0,0,1,1.27,0,5.58,5.58,0,0,0,1.34-.06,15.93,15.93,0,0,0,1.7-.46c.52-.16,1-.32,1.59-.44.89-.19,1.77-.42,2.66-.66s1.73-.45,2.61-.64c0-.77-.1-1.54-.16-2.31s-.13-1.57-.16-2.36c0-.21,0-.41,0-.61a4.93,4.93,0,0,0-.29-2C64.16,198.27,64.09,198.16,63.77,198.16Z"/><path d="M73.12,200.16c0,.67.09,2.84,1.17,2.9,4.63.28,9-1.78,13.51-2.6a.65.65,0,0,0,.52-.7,42.21,42.21,0,0,0-.58-8c-.39-1.82-1.56-2.41-3.32-1.74-2.57,1-5.14,2.2-7.93,2.31-1.36.06-3.83.93-3.64,1.66C73.42,196.05,73.05,198.05,73.12,200.16Zm1.27-4.22c.24,0,2.35-2.33,4.15-2.7a21.62,21.62,0,0,0,4.51-1.4c.73-.34,2.79-1.5,3.34-.35a7.42,7.42,0,0,1,.35,2.77c.08,1.7.28,3.39.35,5.09-1.92.4-3.77,1-5.68,1.39-1.12.25-2.17.68-3.3.9-.86.17-1.77,0-2.65.09s-.91.19-1.07-.82a12.78,12.78,0,0,1,0-2.55A17.77,17.77,0,0,0,74.39,195.94Z"/><path d="M75.16,203.57h0l-.9,0c-1.51-.09-1.59-2.55-1.62-3.36s0-1.39,0-2.07a13.59,13.59,0,0,0-.27-4,.89.89,0,0,1,.16-.77c.62-.84,2.76-1.46,3.92-1.51a19.85,19.85,0,0,0,6.4-1.74l1.37-.53a4.14,4.14,0,0,1,1.46-.3c.74,0,2.07.31,2.51,2.38a37.4,37.4,0,0,1,.59,7.4v.74a1.13,1.13,0,0,1-.93,1.18c-1.51.28-3.06.71-4.54,1.13A30.54,30.54,0,0,1,75.16,203.57ZM85.7,190.22a3.1,3.1,0,0,0-1.11.23l-1.36.53a20.59,20.59,0,0,1-6.73,1.81,5.57,5.57,0,0,0-3.18,1.13,13.47,13.47,0,0,1,.32,4.23c0,.66-.06,1.32,0,2,.08,2.22.57,2.43.72,2.43s.55,0,.83,0h0a30,30,0,0,0,7.92-1.47c1.51-.43,3.07-.87,4.63-1.16.06,0,.12,0,.12-.2V199a38.24,38.24,0,0,0-.55-7.2C86.91,190.22,86,190.22,85.7,190.22ZM74.89,202.28c-.78,0-.88-.66-1-1.29a10.6,10.6,0,0,1,0-2.32v-.33a18.54,18.54,0,0,0,0-2.36l0-.47.36,0c.1-.07.24-.2.43-.37a10.11,10.11,0,0,1,3.77-2.35,20.23,20.23,0,0,0,4.4-1.35l.27-.14a6.11,6.11,0,0,1,2.39-.76,1.37,1.37,0,0,1,1.32.78,5.51,5.51,0,0,1,.4,2.37c0,.19,0,.39,0,.59,0,.78.1,1.55.16,2.33.07.93.15,1.84.18,2.77l0,.41-.41.08c-1,.21-2,.47-3,.73s-1.77.46-2.67.66c-.51.11-1,.27-1.52.42a17.93,17.93,0,0,1-1.79.49,5.58,5.58,0,0,1-1,.08h-.57a7,7,0,0,0-1.12,0l-.16,0A3.14,3.14,0,0,1,74.89,202.28Zm0-6.09a20.29,20.29,0,0,1,0,2.2l0,.34a9.91,9.91,0,0,0,0,2.11,3.55,3.55,0,0,0,.09.45l.28,0,.16,0a9,9,0,0,1,1.27,0h.54a4.62,4.62,0,0,0,.81-.06c.57-.12,1.12-.28,1.69-.46s1.06-.33,1.6-.45c.88-.19,1.76-.42,2.62-.65s1.76-.45,2.65-.64c0-.78-.1-1.54-.16-2.32s-.13-1.58-.17-2.37c0-.2,0-.41,0-.62a5,5,0,0,0-.3-2c0-.08-.1-.22-.44-.22a5.48,5.48,0,0,0-2,.67l-.28.13a21,21,0,0,1-4.61,1.44,9,9,0,0,0-3.33,2.12A4.25,4.25,0,0,1,74.89,196.19Z"/><path d="M93.68,195.21c0,.66.1,2.83,1.17,2.9,4.63.28,9-1.77,13.5-2.61a.63.63,0,0,0,.53-.69,41.41,41.41,0,0,0-.58-8c-.39-1.82-1.56-2.4-3.32-1.74-2.57,1-5.14,2.19-7.94,2.31-1.36.05-3.83.93-3.63,1.66C94,191.11,93.61,193.1,93.68,195.21ZM95,191c.24,0,2.35-2.33,4.15-2.7a21.44,21.44,0,0,0,4.51-1.4c.73-.34,2.79-1.5,3.33-.34a6.94,6.94,0,0,1,.36,2.76c.09,1.7.28,3.39.34,5.09-1.91.4-3.76,1-5.66,1.39-1.13.25-2.18.68-3.3.91-.87.16-1.79,0-2.66.08S95.11,197,95,196a12,12,0,0,1,0-2.54A19.7,19.7,0,0,0,95,191Z"/><path d="M95.72,198.63h0l-.9,0c-1.5-.09-1.59-2.46-1.63-3.34,0-.72,0-1.42,0-2.1a13,13,0,0,0-.27-4,1,1,0,0,1,.17-.77c.62-.83,2.76-1.45,3.92-1.5a19.85,19.85,0,0,0,6.37-1.73c.47-.19.93-.37,1.4-.54a4.18,4.18,0,0,1,1.46-.3c.74,0,2.06.31,2.52,2.38a38.4,38.4,0,0,1,.58,7.43v.7a1.12,1.12,0,0,1-.92,1.18c-1.52.29-3.06.72-4.55,1.14A30.55,30.55,0,0,1,95.72,198.63Zm10.54-13.36a3.1,3.1,0,0,0-1.11.23l-1.39.54a21,21,0,0,1-6.7,1.8A5.53,5.53,0,0,0,93.89,189a13.44,13.44,0,0,1,.3,4.23c0,.65,0,1.33,0,2,.08,2.22.57,2.41.71,2.42l.84,0h0a29.85,29.85,0,0,0,7.91-1.47c1.51-.43,3.08-.87,4.63-1.16.06,0,.14,0,.13-.2v-.71a37.67,37.67,0,0,0-.56-7.23C107.47,185.27,106.56,185.27,106.26,185.27Zm-10.8,12.06c-.79,0-.89-.66-1-1.29a11,11,0,0,1,0-2.29l0-.36a15.46,15.46,0,0,0,0-2.36l0-.47.37-.05c.09-.06.25-.2.44-.36A9.52,9.52,0,0,1,99,187.81a20.08,20.08,0,0,0,4.41-1.37l.27-.12a6,6,0,0,1,2.39-.77,1.37,1.37,0,0,1,1.33.79,5.77,5.77,0,0,1,.39,2.36c0,.2,0,.39,0,.59,0,.78.1,1.55.16,2.33s.14,1.84.18,2.76l0,.42-.41.08c-1,.2-2,.47-3,.73s-1.78.46-2.67.66a13.18,13.18,0,0,0-1.52.43c-.58.16-1.17.35-1.79.47a4.88,4.88,0,0,1-1,.09H97.2a7,7,0,0,0-1.12,0l-.16,0C95.73,197.31,95.58,197.33,95.46,197.33Zm0-6.09a20.39,20.39,0,0,1,0,2.2l0,.36a11.1,11.1,0,0,0,0,2.08c0,.09.06.33.09.46l.27,0,.17,0a6.74,6.74,0,0,1,1.27,0h.54a4.62,4.62,0,0,0,.81-.06c.57-.12,1.11-.28,1.68-.46s1.06-.33,1.61-.45c.88-.19,1.75-.42,2.63-.65s1.75-.46,2.64-.65c0-.77-.11-1.54-.16-2.31s-.13-1.58-.17-2.36c0-.21,0-.41,0-.62a4.86,4.86,0,0,0-.29-2c0-.07-.1-.22-.44-.22a5.42,5.42,0,0,0-2,.67l-.28.13a20.84,20.84,0,0,1-4.61,1.43,9.15,9.15,0,0,0-3.32,2.12Z"/></g></g></svg>