<svg xmlns="http://www.w3.org/2000/svg" viewBox="0 0 665.58 271.71"><title>资源 58</title><g id="图层_2" data-name="图层 2"><g id="图层_9" data-name="图层 9"><path d="M76,22.29C65,12.48,53,5.82,40.27,2.54A66.12,66.12,0,0,0,30.67.86,12.18,12.18,0,0,0,26.31,0c-8.82-.12-18,8.89-22,15S-.88,27.83.62,35.4A108.35,108.35,0,0,0,7.38,56.49,106.39,106.39,0,0,0,15.71,71.7c.82,1.33,1.66,2.71,2.49,4.08C21.49,81.23,25.59,88,31.32,92.42a15.93,15.93,0,0,0,9.74,3.39c7.47.11,15.15-4.3,21.95-8.19,1.55-.9,3-1.75,4.42-2.49.91-.48,1.8-1,2.65-1.46,2.07-1.15,4.2-2.33,6.43-3.3a40.07,40.07,0,0,1,6.28-2c1.44-.37,2.94-.75,4.37-1.23,5.92-2,9.87-4.88,12-8.84,3.54-6.45,2.07-14.6-4.46-25C89.08,34.44,81.35,27.07,76,22.29ZM25.79,4.39a2,2,0,0,0,1.4.63l2.47.2.33.2a2.11,2.11,0,0,0,1.19.36,2.25,2.25,0,0,0,1-.23c13,1.85,26.1,7.85,37.9,17.38a63.29,63.29,0,0,0-13.65,1.29A94.14,94.14,0,0,0,43.89,28.4c-1.65.64-3.34,1.3-5,1.89-1,.38-2.12.79-3.29,1.29-.29-.87-.61-1.73-1-2.57s-.57-1.45-.81-2.15a15.88,15.88,0,0,0-1.16-2.48c-.31-.6-.64-1.22-.88-1.82s-.48-1-.74-1.46a9.47,9.47,0,0,1-1-2.35,25.34,25.34,0,0,0-2.7-7.59c-.33-.57-.62-1.16-.94-1.79A21.13,21.13,0,0,0,23.57,4.8,10.36,10.36,0,0,1,25.79,4.39ZM9.2,46.82a2.74,2.74,0,0,0-.83-.61C7.9,44.79,7.45,43.34,7,41.92c-.26-.78-.5-1.56-.75-2.34-2.44-7.82-2.4-13.8.17-19.4,1.84-4,5-7.66,10.06-11.5.9-.68,1.81-1.3,2.66-1.84,1.44.91,2.17,2.41,2.94,4a24,24,0,0,0,1.24,2.29A13.34,13.34,0,0,1,25,17.64a23.52,23.52,0,0,0,.89,3,78.28,78.28,0,0,0,3.38,7.18,23.55,23.55,0,0,1,2.22,5.54c-2.89,1.39-5.78,2.92-8.49,4.37-.52.28-1.88,1.26-3.58,2.51-3.13,2.3-9,6.56-10.25,6.54ZM95.38,66.15C93,71,86.74,73,81.12,74.37c-6.59,1.66-12.13,4.8-18,8.11l-.41.22c-.67.38-1.34.78-2,1.16A75,75,0,0,1,48,90.08a20.58,20.58,0,0,1-7,1.14c-.45,0-.88,0-1.32-.06-3.2-.26-5.6-2.07-7.51-3.8-3.84-3.44-6.86-8.41-9.53-12.8-.28-.47-.56-.91-.83-1.37l-2.09-3.35A110.61,110.61,0,0,1,12.2,56.5c-.72-1.58-1.41-3.31-2.12-5.25,2.18-.37,4.38-2.06,6.2-3.44.36-.27.71-.55,1.07-.8s1-.75,1.53-1.12a53.43,53.43,0,0,1,6.69-4.48c3.44-1.84,6.31-3.28,9-4.53a75.94,75.94,0,0,1,8.53-3.35c1.87-.62,3.73-1.34,5.53-2.05,1.45-.56,2.94-1.15,4.42-1.67,7-2.43,14.25-2.55,21.06-2.46a2.21,2.21,0,0,0,.93-.18A107.28,107.28,0,0,1,88,41.49C93.11,48.22,99.4,58.08,95.38,66.15Z"/><path d="M373,226.74a1.72,1.72,0,0,0-1.27-.42,1.79,1.79,0,0,0-.59.16c-4.87,2.24-5.85,4.75-6,6.05a3.46,3.46,0,0,0,.92,2.9,4.71,4.71,0,0,0,3.79,1.21,5,5,0,0,0,1.37-.32,9.32,9.32,0,0,0,3.47-2.31c1.13-1.19,1.14-2.36,1.17-3.84v0a3.18,3.18,0,0,0-.58-2.14,1.9,1.9,0,0,0-.36-.34c0-.14-.21-.35-1-.7A4.65,4.65,0,0,0,373,226.74Zm-.58,4.25c0,.1,0,.19,0,.29s0,.17,0,.22a4.54,4.54,0,0,1-.38.38l-.05.05a6.31,6.31,0,0,1-2,1.25,1.91,1.91,0,0,1-.58.15c-.34,0-.62-.05-.71-.24s-.06-.5.2-.85a5.67,5.67,0,0,1,1.37-1.35,1.38,1.38,0,0,0,.77.14,1.54,1.54,0,0,0,1-.49,1.41,1.41,0,0,1,.44-.33A6.57,6.57,0,0,1,372.46,231Z"/><path d="M229.68,210.71a1.93,1.93,0,0,0,1.81,1.17,8.12,8.12,0,0,0,2.21,1.82c.28.18.59.38.87.59,2.45,1.75,5,3.42,7.85,5.12a98.31,98.31,0,0,0,15.88,7.67c7.3,2.78,14.94,4.88,22.32,6.91,4.19,1.15,8.52,2.35,12.75,3.64s8.73,3.1,12.94,4.79c1.39.56,2.83,1.14,4.25,1.69s2.72,1.11,4.05,1.68c3.88,1.65,7.91,3.36,12.15,4a17.92,17.92,0,0,0,4.51.14c8.14-.78,15.14-6.8,21.48-13.2,1.5-1.5,3-3,4.54-4.46,2.46-2.42,5-4.92,7.43-7.48,3.44-3.67,7.36-7.85,8.09-13.37.5-3.76-2.47-6.68-8.83-8.68-3.38-1.06-6.91-1.8-10.34-2.51-1.47-.31-3-.63-4.47-1a157.58,157.58,0,0,1-17.34-5c-2.44-.87-4.9-1.81-7.27-2.72-3.32-1.29-6.75-2.61-10.2-3.73-5.43-1.76-11.06-3.57-16.63-5.59a135.41,135.41,0,0,0-16.86-5.2,24.72,24.72,0,0,0-7.62-.49A23.54,23.54,0,0,0,267.1,178c-3.92,1.52-7.12,4.4-10.22,7.18l-1.39,1.25c-2.32,2-4.6,4.25-6.79,6.37-1.8,1.75-3.67,3.56-5.56,5.29-4.32,3.92-8.67,7.58-12.94,10.87A1.43,1.43,0,0,0,229.68,210.71ZM251,195.33c2.84-2.64,5.77-5.39,8.72-8,4.56-4.08,8.67-6.89,13.93-7.39l.77,0c5.1-.25,10.53,1.59,15.34,3.21.55.2,1.1.38,1.64.56,2.64.88,5.3,1.85,7.87,2.78,2.87,1.05,5.85,2.14,8.81,3.1,5.66,1.84,11.5,3.75,17.21,5.95,10.53,4.07,21.34,6.69,33.36,9.44a46.84,46.84,0,0,1,6.54,1.87,13.66,13.66,0,0,1,2.93,1.61c1.28.91,1.59,2.2,1,4.17-.74,2.67-2.34,4.72-4.37,7.12s-4.39,4.78-6.34,6.71l-3.81,3.79c-2.55,2.54-5.17,5.16-7.83,7.64-3.32,3.07-7.85,6.8-13.41,8.29a14.36,14.36,0,0,1-2.25.41c-4.66.44-9.21-1.42-13.62-3.22l-.25-.11c-5.45-2.24-11.09-4.53-16.67-6.65-6.66-2.54-13.65-4.44-20.41-6.29-4.84-1.31-9.84-2.68-14.68-4.25a110.15,110.15,0,0,1-31-16C240.22,205.37,245.67,200.27,251,195.33Z"/><path d="M232.4,193.7c-.93,1-1.9,2.06-2.87,3.07a83.06,83.06,0,0,1-6.41,5.74c-.89.77-1.83,1.54-2.73,2.32-.34.3-.69.59-1,.88a24.33,24.33,0,0,0-3,2.87l-.15.18c-.72.86-1.71,2-2.77,2.13a1.61,1.61,0,0,1-.31,0h-.37a1.43,1.43,0,0,0-1.07.64,2,2,0,0,0-1.22-.3,1.76,1.76,0,0,0-1.21.66,6.67,6.67,0,0,0-.9,1.38,1.81,1.81,0,0,0-.9,1,1.61,1.61,0,0,0,.11,1.33,28.44,28.44,0,0,0,3.9,6.12c1.8,2,4.5,3,6.88,3.88l.34.13c3.42,1.28,7,2.25,10.4,3.18,2.1.57,4.26,1.16,6.38,1.82A119,119,0,0,1,252,237c2.32,1.12,4.63,2.37,6.87,3.58,2.83,1.53,5.75,3.12,8.75,4.46a277.69,277.69,0,0,0,35,12.67c5.84,1.7,11.85,3.13,17.66,4.52,6.2,1.47,12.61,3,18.81,4.85,1.38.42,2.82.89,4.2,1.35,5.58,1.83,11.34,3.73,17.11,3.18a18.81,18.81,0,0,0,5.34-1.3,35.87,35.87,0,0,0,10.55-7.18c3.74-3.41,7.26-7,10.22-10.14,7.34-7.69,14.52-16.07,20.85-23.46.55-.65,1.15-1.31,1.77-2,4.08-4.53,9.14-10.16,6.61-16.56a1.72,1.72,0,0,0-.51-1.31,1.78,1.78,0,0,0-1.33-.54,18.21,18.21,0,0,0-4.44-1.89l-1-.35c-1-.33-2-.71-3-1.06-1.59-.6-3.24-1.22-4.94-1.71-5.41-1.55-11-2.87-16.37-4.15l-.76-.19c-5.09-1.21-10.12-2.91-15-4.56l-2.87-1c-6.5-2.19-11.92-4-17.46-6.17-1.43-.54-2.88-1-4.3-1.53-1.11-.37-2.25-.76-3.37-1.18a16.67,16.67,0,0,1-1.93-.86c-.65-.31-1.31-.63-2-.88-1.62-.61-3.27-1.16-4.88-1.68l-.09,0-.73-.24c-2.55-.84-5.19-1.71-7.74-2.69a49.63,49.63,0,0,0-6.09-1.72c-1-.24-2.1-.49-3.1-.77l-.76-.21a21.26,21.26,0,0,0,7-9.77c1.53-4.61,1.54-9.74,1.55-14.7,0-1.24,0-2.41,0-3.59.25-11.18.7-22.09,3.47-32.74,3.4-13,9.35-21.88,17.71-26.37A17.55,17.55,0,0,1,349.51,87a12.27,12.27,0,0,1,8.16,2c3.16,2.1,5.47,5.41,7.7,8.62.36.5.7,1,1.05,1.48l.11.16c4.7,6.59,9.56,13.42,17.48,16.16a22.21,22.21,0,0,0,9.61,1c6.17-.59,12.38-3.15,17.84-5.4l.33-.13c4.93-2,10.66-4.24,16.32-4.77a21.45,21.45,0,0,1,13.54,2.8c3.32,2,6,5,8.63,7.82.92,1,1.87,2,2.83,3a41,41,0,0,0,12.06,8.79,38.66,38.66,0,0,0,20.12,3,66.4,66.4,0,0,0,14.1-3c4.58-1.5,9.11-3.48,13.48-5.4,6.39-2.8,13-5.7,19.91-7.1a30.21,30.21,0,0,1,3.22-.49,25.1,25.1,0,0,1,13.5,2.29,40.86,40.86,0,0,1,5.75,3.66,36.92,36.92,0,0,0,6.71,4.12,14.36,14.36,0,0,0,7.17,1.08,20.28,20.28,0,0,0,7.41-2.3l4.78-2.51c3.46-1.84,7-3.74,10.63-5.5,4.61-2.28,8.58-3.94,12.92-4.65.37-.06.74-.12,1.12-.15a17.1,17.1,0,0,1,12.8,4.32,54.57,54.57,0,0,1,7.62,8.53l1.5,1.91a47.06,47.06,0,0,0,3.74,4c.64.62,1.29,1.27,1.9,1.91l.44.46c1.34,1.4,2.74,2.86,4.14,4.27a5.56,5.56,0,0,0,.44,3,1.5,1.5,0,0,0,.67,1.09l0,.06c-.32.29-.67.57-1,.84s-.52.4-.77.62a8.45,8.45,0,0,0-3,6.24,17.08,17.08,0,0,0,.21,3.15,11.25,11.25,0,0,1,0,4.13,9.59,9.59,0,0,1-4.45,5.9c-2,1.26-4.58,2-8.32,2.32-1.34.13-2.7.2-4,.27-.85,0-1.65.08-2.43.14a38.13,38.13,0,0,1-16.28-2c-4.14-1.52-8.68-4.7-13.49-9.41-1.08-1-2.06-2.24-3-3.37-.65-.79-1.33-1.61-2-2.38l-1.09-1.19c-1.37-1.51-2.78-3.06-4.27-4.51a30.41,30.41,0,0,0-24.25-8.41l-.41,0a33.58,33.58,0,0,0-23.14,12.8,24.85,24.85,0,0,0-4.8,14.7A61.4,61.4,0,0,0,524,172.56c.35,2.15.72,4.38.93,6.56a1.8,1.8,0,0,0,1.31,1.56,11.29,11.29,0,0,0,.24,3l0,.27a32.66,32.66,0,0,0,1.44,6,21.72,21.72,0,0,0-9.64,3.31,13.22,13.22,0,0,0-5.4,10.38,15.07,15.07,0,0,0,3.53,10.42c2.48,2.94,6.5,4.32,11.32,3.86l.17,0c3.09-.32,8.7-1.52,11.59-6a11.88,11.88,0,0,0,.37-12.35,19.11,19.11,0,0,0-4.44-4.94,19.72,19.72,0,0,1-2.24-2.24l0-.17a1.93,1.93,0,0,0,.15-2.08c.29-4.17.31-8.49-2.54-11.53a2.75,2.75,0,0,0-2.24-.84,2.7,2.7,0,0,0-.41.07c-.21-1.83-.51-3.67-.79-5.45a85.35,85.35,0,0,1-1.17-10,22.48,22.48,0,0,1,4.56-14.65c4.58-6,12.32-10.09,20.73-10.89.71-.07,1.44-.11,2.15-.13a28.35,28.35,0,0,1,12.91,2.87c4.19,2,7.38,5.53,10.47,8.95l.82.9,1.37,1.52a67.72,67.72,0,0,0,9.74,9.48c5,3.79,9.48,6,14.4,7,5.75,1.25,11.51.77,17.09.31l1.15-.11c5.41-.52,9.76-1.56,13.33-5a12.16,12.16,0,0,0,3.38-6.73,12.78,12.78,0,0,0-.1-4.19,11.71,11.71,0,0,1-.07-4.17c.33-1.48,1.66-2.59,3-3.67.31-.27.64-.53.93-.8a4.28,4.28,0,0,0,1.58.16l.49-.08a51.62,51.62,0,0,0,8.57,8.32,27.41,27.41,0,0,1,5.66,5.67,20.74,20.74,0,0,1,2.91,8.47c.88,5.25,2.07,12.43-.56,17.54-1.71,3.34-5,6.1-10,8.45a35.2,35.2,0,0,1-10.27,2.95c-1,.13-1.94.27-2.9.47a31.2,31.2,0,0,1-3.89.59,85.9,85.9,0,0,1-9.89.16c-1.62,0-3.29-.08-4.93-.07h-1.06a27.12,27.12,0,0,1-7.56-.62,31.27,31.27,0,0,1-7.81-3.74c-1.44-.9-2.89-2-4.28-3a36.42,36.42,0,0,0-7.94-4.94,11.11,11.11,0,0,0-5-.8,6.37,6.37,0,0,0-4.54,2.36,1.29,1.29,0,0,0-.56-.06l-.39.09c-2.08.68-1.75,2.92-1.54,4.26a29.54,29.54,0,0,0,.82,3.86c0,.36.12.71.18,1.08a11.8,11.8,0,0,0,1.61,4.22,1.79,1.79,0,0,0-.46.75c-.67,2.22-2.16,3.89-3.74,5.66a19.15,19.15,0,0,0-3.52,4.93,13.54,13.54,0,0,0,1,12.28,16.93,16.93,0,0,0,16.32,8.46,16.41,16.41,0,0,0,4.75-1.19,11.75,11.75,0,0,0,6.94-8c1.2-5-1.59-9.6-4.14-12.59a38.78,38.78,0,0,0-7.89-6.55c-1.61-1.1-3.28-2.26-4.79-3.53l-.2-.17,0,0q-.48-1-1-2l-.79-1.56a15.2,15.2,0,0,1-.94-2.72,16.52,16.52,0,0,1,0-2.11c.17-2.37,1.42-3.78,3.51-4a7,7,0,0,1,3.59.71,27,27,0,0,1,5,3.17l.84.64c2,1.48,4.22,3,6.55,4.36a36.17,36.17,0,0,0,6.9,3.25,27.1,27.1,0,0,0,8.51,1h.26c1.55,0,3.12,0,4.66.06a102.38,102.38,0,0,0,12.25-.2l1-.11c8.15-1,18.41-2.93,25.35-9.93,3.35-3.36,5-7.88,5-13.42,0-6.73-.88-12.24-2.46-16.4-1.74-4.47-4.92-7.5-8.12-10.12a49.3,49.3,0,0,1-8.45-8.23c.82-2.67-1-5.47-3.37-6.44a2.71,2.71,0,0,0-1.37-.21,3,3,0,0,0-1.3.43c-1.58-1.61-3.14-3.23-4.46-4.61-.6-.64-1.25-1.28-1.85-1.9a59,59,0,0,1-4.52-4.93l-.37-.46c-3-3.87-6.21-7.88-10.31-10.87a18.66,18.66,0,0,0-13.31-3.44c-5.65.54-11.16,3-15.33,5-2.1,1-4.19,2.18-6.24,3.27l-1,.56c-1.23.66-2.51,1.29-3.74,1.89-1.47.74-3,1.48-4.45,2.3a15.92,15.92,0,0,1-6.41,1.93c-.45,0-.9.07-1.36.09-2.79.08-5.45-1.64-7.4-2.89-1-.63-1.93-1.28-2.84-1.9-3.3-2.25-6.43-4.38-10.36-5.57a27.67,27.67,0,0,0-10.69-.89,46.6,46.6,0,0,0-5.16.82,82.81,82.81,0,0,0-14.33,5.11l-1.68.73-1,.41c-5.36,2.29-10.91,4.65-16.57,6.43a57.43,57.43,0,0,1-11.81,2.48c-8.7.83-16.36-.79-22.74-4.82-3.58-2.27-6.57-5.46-9.46-8.54-4-4.27-8.15-8.68-13.92-10.72a26.45,26.45,0,0,0-11.52-1.32c-6,.57-11.93,2.85-17.48,5.14-5.17,2.12-11,4.53-16.8,5.08a19.15,19.15,0,0,1-11.12-2c-5.62-3-9.43-8.43-13.1-13.73-1-1.49-2.11-3-3.18-4.43-2.49-3.31-5.68-6.93-10.44-8.69a13.15,13.15,0,0,0-5.91-.7,23.92,23.92,0,0,0-8.39,2.62c-8.08,4.07-14.24,12.4-18.3,24.75-3.6,10.93-4.28,22.41-4.49,32.2,0,1,0,2.08,0,3.13a138.62,138.62,0,0,1-.8,15.38c-.71,5.62-3.37,9.81-8.64,13.57l0,0c-4.77-1.33-9.08-2.57-13.15-3.78-1.89-.57-3.81-1.16-5.66-1.75-.85-.27-1.7-.55-2.55-.81-1.11-.35-2.26-.65-3.37-1a52.87,52.87,0,0,1-5.61-1.74,83.69,83.69,0,0,0-9-2.85l-.09,0a10.17,10.17,0,0,0-3.58-.54l-.52.07a9.26,9.26,0,0,0-3.16,1.93c-.35.27-.67.53-1,.74a87,87,0,0,0-15.72,14.93,88.3,88.3,0,0,1-7.88,7.81C235.87,189.92,234.11,191.84,232.4,193.7Zm297.09-.55a16.21,16.21,0,0,0,1.73,2.27,24.15,24.15,0,0,0,2.33,2.21,21.92,21.92,0,0,1,2.59,2.51,7.83,7.83,0,0,1,1.59,7.13c-1.23,5.24-6.37,6.85-10.46,7.28h-.12c-4.52.43-8-1.5-9.86-5.44a11.63,11.63,0,0,1,.8-11C520.34,194.62,525.1,193.64,529.49,193.15Zm56.14,13.56c.19.26.4.51.6.76.63.79,1.27,1.61,1.85,2.43,1.24,1.79,2.48,3.84,1.41,5.6a3.78,3.78,0,0,1-3,1.66,6.41,6.41,0,0,1-3.22-.55c-1.59-.72-3.26-2.37-2.68-4.63.52-2.09,1.94-3.08,3.45-4.11C584.6,207.5,585.12,207.14,585.63,206.71Zm-2.37-3.51a1.69,1.69,0,0,0-1,.7,2,2,0,0,0-.33,1.38l-.26.18c-1.67,1.19-3.27,2.31-4,4.7-.88,2.87-.61,4.92.94,7a8.92,8.92,0,0,0,8,3.35,7.57,7.57,0,0,0,5.46-2.89c3-4-.15-8.49-2.88-11.94,3.22,2.32,6.17,4.8,8.11,8.09,2.35,4,1.72,8.36-1.61,11.11a10.15,10.15,0,0,1-5.59,2.19,15.66,15.66,0,0,1-5.34-.49,13.67,13.67,0,0,1-9.14-9.19c-1.46-4.87,1.56-8.34,4.5-11.69a17.22,17.22,0,0,0,2.58-3.76C582.9,202.38,583.06,202.79,583.26,203.2ZM408,223.67c-1.77,2.05-3.59,4.11-5.35,6.1s-3.39,3.85-5.07,5.78c-7.82,9-15.56,17.73-24.07,25.49-3.33,3-7.83,6.59-13,7.08l-.66.05c-5.94.27-11.43-1.59-16.73-3.38-7.19-2.43-14.75-4.2-22.05-5.91-4.57-1.07-9.29-2.19-13.87-3.44-8.39-2.3-16.53-5.14-26.17-8.67-4.91-1.81-8.95-3.44-12.69-5.13-2.55-1.16-5.08-2.54-7.53-3.88-1.48-.81-3-1.66-4.55-2.43a124.89,124.89,0,0,0-23.82-9.06l-.94-.26c-4.08-1.12-7.92-2.17-11.83-3.57a15.25,15.25,0,0,1-5.71-3.07,10.85,10.85,0,0,1-1.5-1.9A87.11,87.11,0,0,1,227,222.08c3.59,1.5,7.35,2.68,11,3.82,2.18.68,4.44,1.39,6.63,2.16a182.91,182.91,0,0,1,21,9.39c3.85,1.92,7.84,3.91,11.83,5.7,8.77,3.93,18.07,6.58,27.07,9.15,2.55.72,5.18,1.47,7.77,2.25,4.3,1.27,8.71,2.29,13,3.27,1.46.34,3,.68,4.49,1a130.05,130.05,0,0,1,13,4.08l2.53.88a25.9,25.9,0,0,0,11,1.76,15.21,15.21,0,0,0,7.51-2.83,40,40,0,0,0,7.05-7,88.36,88.36,0,0,1,7.21-7.82c5-4.72,9.89-9.66,14.64-14.43,1.28-1.28,2.57-2.59,3.86-3.87,5.33-5.35,10.86-10.42,16.5-15.57C413.29,217.59,410.26,221.09,408,223.67ZM244.35,186.86a48.85,48.85,0,0,0,4-4.39c.61-.73,1.25-1.49,1.89-2.21a86.82,86.82,0,0,1,12.31-11.47c1-.77,2.15-1.56,3.59-2.49a1.28,1.28,0,0,1,.54-.18,6.07,6.07,0,0,1,2.06.4l.58.18.85.22A53.59,53.59,0,0,1,277,169.1a47.66,47.66,0,0,0,5.62,1.8c.9.24,1.83.49,2.72.77,1.36.41,2.71.84,4,1.26,1.56.49,3.17,1,4.75,1.48,5.19,1.57,10.77,3.15,18.07,5.15,2.76.76,5.46,1.5,8.46,2.3,2,.53,3.93,1.24,5.83,1.93,1.1.38,2.22.79,3.34,1.15,1.36.45,3.15,1,4.94,1.68.93.33,1.84.74,2.71,1.15s1.68.77,2.56,1.09c1.38.51,2.8,1,4.17,1.5,2.05.73,4.18,1.49,6.24,2.28,4.86,1.88,9.9,3.53,14.77,5.12,2.36.77,4.79,1.57,7.18,2.39,4.48,1.52,9.13,2.65,13.64,3.75,2.69.65,5.48,1.33,8.21,2.08l2.62.71c2.36.63,4.81,1.29,7.17,2.12.66.22,1.32.49,1.95.74.8.33,1.63.66,2.46.93a21.21,21.21,0,0,1,2.46.89c-7.57,7-15.63,14.71-25.29,24.36-1.7,1.71-3.51,3.38-5.25,5-2.79,2.62-5.69,5.31-8.27,8.18-1.06,1.16-2.07,2.39-3.05,3.57a48.51,48.51,0,0,1-6.64,7,11.75,11.75,0,0,1-6.47,2.65,21.43,21.43,0,0,1-8.49-1.23c-2-.62-4-1.32-5.93-2-3.06-1.07-6.23-2.18-9.45-3-2.3-.58-4.65-1.1-6.92-1.6-3.46-.77-7-1.57-10.5-2.62-6.21-1.88-12.67-3.68-18.36-5.27-10.65-3-20.69-7.86-30.4-12.57-3.67-1.77-7.44-3.61-11.21-5.32a170.11,170.11,0,0,0-17.35-6.43L233,220.66c-1.84-.62-3.67-1.34-5.46-2s-3.67-1.44-5.55-2.06c-2.49-.85-5.16-1.58-8.08-2.27a7.27,7.27,0,0,0,4.1-2.49c2-2,4-3.82,6.47-6l2.1-1.8c1.61-1.36,3.29-2.77,4.82-4.27,1.33-1.3,2.61-2.7,3.84-4.05.9-1,1.85-2,2.79-3,1.28-1.32,2.66-2.56,4-3.75C242.78,188.29,243.58,187.58,244.35,186.86Z"/></g></g></svg>