<svg xmlns="http://www.w3.org/2000/svg" viewBox="0 0 130.16 173.32"><defs><style>.cls-1{fill:#1a3869;}</style></defs><title>pencil</title><g id="图层_2" data-name="图层 2"><g id="图层_9" data-name="图层 9"><g id="p6"><path class="cls-1" d="M380.34,119.88c-10.79-16.16-21.88-32.18-34-47.35a189.71,189.71,0,0,0-18.36-20.38l-.09-.07a1.89,1.89,0,0,0-.32-.31c-10-7.94-20.14-15.92-31.15-22.48a92.35,92.35,0,0,0-14.29-7.11c-4.22-1.6-8.4-2.14-12.11.93-4.55,3.75-4.7,10.8-4.69,16.2,0,1.36.09,2.72.15,4.07a2.15,2.15,0,0,0,0,1.07,164.14,164.14,0,0,0,2.61,20.62,221.14,221.14,0,0,0,6.89,28,1.88,1.88,0,0,0,.18.57,1.93,1.93,0,0,0,.24.5,381.76,381.76,0,0,0,36.56,61.74c6.48,8.94,13.13,17.82,20,26.47,3.75,4.73,8.25,9.32,14.23,11a27.64,27.64,0,0,0,15.65-.67,54.85,54.85,0,0,0,28.74-21.08,2.64,2.64,0,0,0,.34-.39,27.47,27.47,0,0,0,1.49-2.56l.16-.27a1.65,1.65,0,0,0,.17-.39c3.31-6.91,3.43-15,1.35-22.4C391.38,136.14,385.75,128,380.34,119.88ZM326.05,56.75a2,2,0,0,0,.9.17c11.16,10.88,20.65,23.59,29.78,36.15,5.5,7.56,10.84,15.24,16.09,23,1.21,1.78,2.44,3.57,3.67,5.36a139.36,139.36,0,0,0-18.63,9.68q-20.48-30.77-42.12-60.75a2.58,2.58,0,0,0,0-.29c-.33-3.64-.13-7.84,2.24-10.83A6.94,6.94,0,0,1,326.05,56.75ZM354.4,133.3A141.38,141.38,0,0,0,339.14,145C324.83,125.3,312.33,104.41,298,84.79c-2.28-4.62-2.34-11.14,2-14.64,3.55-2.88,9.23-2.47,11.95,1.24a2.06,2.06,0,0,0,.42,1.24Q333.94,102.56,354.4,133.3ZM269.62,34.21A16.91,16.91,0,0,1,271.16,28c1.68-3,5.06-3.48,8.36-2.32,1.78.64,3.53,1.38,5.25,2.17a32.25,32.25,0,0,0-15.35,9.65C269.46,36.37,269.52,35.29,269.62,34.21ZM278,89a193.19,193.19,0,0,1-8.42-44.61.49.49,0,0,1,0-.12,28.09,28.09,0,0,1,21.13-13.39l.12,0c.87.48,1.74,1,2.59,1.46,10,5.87,19.2,12.93,28.28,20.09a12,12,0,0,0-6.28,3.6,15.51,15.51,0,0,0-3.73,9.7,13.31,13.31,0,0,0-13.9,1c-5,3.63-6.28,10.22-4.92,16A15.79,15.79,0,0,0,278,89Zm19,37.18a354.79,354.79,0,0,1-17-32.13,1.82,1.82,0,0,0,.18-.37c2.17-5.83,9.17-8.5,14.76-6.18,14.38,19.65,26.89,40.58,41.24,60.25a139.6,139.6,0,0,0-14,15C313.21,150.89,304.6,138.82,296.93,126.16Zm27.72,40,0,0a137,137,0,0,1,54.16-41.19c1.32,2,2.61,4,3.84,6a123.76,123.76,0,0,0-53.93,40.66Zm64.08.66c-5.67,9.73-15,16.91-25.43,21-4.81,1.91-10.33,3.06-15.45,1.75-6-1.52-10.06-6.35-13.67-11l-2.82-3.66a119.75,119.75,0,0,1,53.43-40.45c1,1.86,2,3.76,2.89,5.7C391.42,148.44,393.05,158.48,388.73,166.77Z" transform="translate(-265.28 -20.89)"/><path class="cls-1" d="M374,166.35a2.12,2.12,0,0,0,2.23-1.88q.7-5.61,1.42-11.22a2.08,2.08,0,0,0-1.88-2.23,2.1,2.1,0,0,0-2.22,1.88q-.72,5.61-1.43,11.22A2.08,2.08,0,0,0,374,166.35Z" transform="translate(-265.28 -20.89)"/><path class="cls-1" d="M366.31,164.3c.22-2.72.43-5.43.65-8.14a2.06,2.06,0,0,0-4.11-.35c-.22,2.71-.43,5.43-.65,8.14a2.06,2.06,0,0,0,4.11.35Z" transform="translate(-265.28 -20.89)"/></g></g></g></svg>