<svg xmlns="http://www.w3.org/2000/svg" viewBox="0 0 392.46 475.59"><defs><style>.cls-1{fill:#1a3869;}.cls-2{fill:#fff;}.cls-3{fill:none;stroke:#3f89ff;stroke-miterlimit:10;stroke-width:0.66px;}.cls-4{fill:#edbc2c;}</style></defs><title>资源 51</title><g id="图层_2" data-name="图层 2"><g id="图层_9" data-name="图层 9"><path class="cls-1" d="M390.71,356.37a1.53,1.53,0,0,0-1.24-.93,1.35,1.35,0,0,0-.29,0l-.17,0h0l-1.46-.24c-.76-.13-1.52-.26-2.31-.36a10.59,10.59,0,0,0-5,.92,52,52,0,0,0-7.7,3.73,3.31,3.31,0,0,0-2.6-.92,11.75,11.75,0,0,0-5.18,1.61c-2.44,1.4-4.86,2.88-7.21,4.43-1.72,1.12-3.38,2.28-4.95,3.46-4.49,3.3-9.15,6.61-13.25,9.52-.48.36-1,.71-1.47,1a2.21,2.21,0,0,0-1.64-2.5,3.12,3.12,0,0,0-2.79.53,12.38,12.38,0,0,0-2.9,3.07,7,7,0,0,0-1.22,2.68,2.35,2.35,0,0,0,.95,2.6c1.2.75,2.64.6,4.43-.43a7,7,0,0,0,1.88-.78l.06,0a1.92,1.92,0,0,0,.8-1.07c2.24-1.61,4.52-3.21,6.73-4.77,3.21-2.25,6.53-4.59,9.75-7,1.29-1,2.78-2,4.48-3.11s3.23-2.1,4.83-3.1l.13-.08c.17-.12.37-.23.55-.37l.34-.23.37-.24a12.09,12.09,0,0,1,3.59-1.8l.24-.05-1.33.87L363.89,365c-.61.42-1.19.81-1.8,1.2a214.29,214.29,0,0,0-18,13.65c-4.4,3.65-8.68,7.6-12.79,11.43-1.31,1.19-2.66,2.45-4,3.66-2.77,2.54-5.72,5.22-8.81,7.76l-2,1.59a70,70,0,0,0-6,5.17,166.81,166.81,0,0,1-12.85,11.13l-3,2.42-2.66,2.19-1.12.91a1.69,1.69,0,0,0-1.36.26,2.06,2.06,0,0,0-1,1.65l-2.71,2.15c-.77.6-1.51,1.25-2.21,1.89-.45.42-.95.86-1.44,1.27s-1.13.89-1.7,1.3-1.23.89-1.8,1.37c-2,1.69-4.16,3.22-6.27,4.7l-2.51,1.8c-3,2.18-6.1,4.24-8.81,6l-4.59,3-.48.31c-.17.12-.36.23-.53.34a6.08,6.08,0,0,0-1.92,1.76,6.72,6.72,0,0,0-.89,2.22,8.86,8.86,0,0,1-2.6,2.85,2.7,2.7,0,0,0-1,2.32,2,2,0,0,0,0,.26c-.13.14-.26.31-.33.38a2,2,0,0,0-.42.63,1.59,1.59,0,0,0-.12.41,7.81,7.81,0,0,0-1.66,2.08,5,5,0,0,1-1,1.22l-.3.34a8.15,8.15,0,0,0-2,2.95l-.22.15c-.3.2-.63.39-.94.6l-.8.56-.48.31a1.66,1.66,0,0,0-.63.79,4.08,4.08,0,0,0-.78,1.86,1.41,1.41,0,0,0,1,1.59c1.13.39,2.47.08,4.11-1,.39-.25.77-.46,1.16-.68s.86-.46,1.27-.74a6,6,0,0,0,1.2-1l.19,0,.19,0a14,14,0,0,0,5.49-1.86,2.06,2.06,0,0,0,.55,0,5.1,5.1,0,0,0,2.75-1c.47-.32.92-.67,1.36-1s.58-.44.85-.63a1.63,1.63,0,0,0,.22-.17,5.51,5.51,0,0,0,1.15.05,8.51,8.51,0,0,0,4.32-1.56,27.09,27.09,0,0,0,3.25-2.63c.73-.65,1.4-1.27,2.13-1.81,2.32-1.8,4.57-3.78,6.75-5.68a112.27,112.27,0,0,1,9.19-7.48,44.75,44.75,0,0,0,5.61-4.95c.79-.78,1.57-1.57,2.39-2.3l1.33-1.24c2.14-2,4.34-4,6.67-5.84,5-3.78,9.88-7.77,14.64-11.63,6.34-5.14,12.91-10.46,19.61-15.38q3.54-2.6,7.08-5.16c9.53-7,19.4-14.16,28.78-21.61,2.52-2,5.19-4.15,8.38-6.74,1-.76,2-1.51,3-2.23a51.83,51.83,0,0,0,4.91-4,10.27,10.27,0,0,0,3.43-6.63A5.2,5.2,0,0,0,390.71,356.37Zm-140,108.75c.17.28.35.56.53.84a5.74,5.74,0,0,1,.64,1.48c0,.1.07.2.1.3a10.68,10.68,0,0,1-3.7,1,1.26,1.26,0,0,0-.22-.39,5.49,5.49,0,0,1,.43-.4,5.45,5.45,0,0,0,1.35-1.65A7.42,7.42,0,0,1,250.7,465.12Zm6.08.64c-.2.15-.44.32-.67.46a7.32,7.32,0,0,1-.64.39,5,5,0,0,0-1.11-2.33c-.17-.25-.35-.51-.51-.76a2.06,2.06,0,0,0-.15-.24c-1.08-1.67-1.1-2.12-1-2.24l.59-.47c.17.28.35.57.52.9A18.19,18.19,0,0,0,256.78,465.76Zm35.37-26.71c-.68.64-1.36,1.33-2,2a36.67,36.67,0,0,1-4.81,4.32,118.62,118.62,0,0,0-9.34,7.57c-2.17,1.87-4.4,3.83-6.69,5.61-1.3,1-2.53,2.08-3.75,3.11l-.51.45-.32.27a15.5,15.5,0,0,1-1.41,1.13,3.49,3.49,0,0,1-1.36.58c-2.58.42-4-2.21-5.11-4.33-.24-.45-.47-.87-.69-1.24l0-.1a5.57,5.57,0,0,1-.1-1.81,3.4,3.4,0,0,1,1.82-2.25l.69-.44.69-.43,1.31-.86,1.32-.88,1.32-.87.5-.33c2.76-1.82,5.62-3.7,8.33-5.7l3.58-2.66,5.22-3.87c1.46-1.06,2.83-2.22,4.16-3.35l2.24-1.88.33.52a35.79,35.79,0,0,0,2.05,3,12.38,12.38,0,0,0,1.73,1.67C291.58,438.55,291.88,438.79,292.15,439.05Zm2.82-2.6a2.18,2.18,0,0,0-.22.21c-.27-.25-.53-.47-.79-.67a11,11,0,0,1-1.93-2c-.64-1-1.27-2-1.93-2.95l-.11-.16.1-.09h0C291.38,432.9,292.84,435.17,295,436.45ZM334.4,381a5,5,0,0,1-.55.39.23.23,0,0,0-.07.07,3.07,3.07,0,0,1-.5.07.55.55,0,0,1,.07-.21.62.62,0,0,1,.14-.14A1.81,1.81,0,0,1,334.4,381Zm43.67-9.19a.35.35,0,0,0-.05.13c-2.12,1.69-4.38,3.51-6.62,5.31-5.17,4.11-10.58,8.14-15.81,12l-2.13,1.6c-4.18,3.11-8.45,6.25-12.6,9.27L335.6,404c-3,2.21-6,4.6-8.8,6.91s-5.56,4.53-8.44,6.67c-3.28,2.41-6.52,5-9.65,7.56-2.4,1.94-4.89,4-7.39,5.87-1.11.86-2.26,1.81-3.59,3a8,8,0,0,1-3.06-2.78c-.59-.87-1.17-1.75-1.75-2.64,3.91-3.13,7.86-6.39,11.73-9.64,2.77-2.33,5.46-4.62,8-7.2a69.13,69.13,0,0,1,5.62-4.85l2.27-1.84c4.88-4.07,9.63-8.44,14.23-12.66,6.24-5.73,12.7-11.69,19.6-16.95,3.82-2.9,7.72-5.66,11.59-8.22q2.75-1.81,5.49-3.48a1.15,1.15,0,0,0,.62.17c.83.93,1.75,1.82,2.62,2.69.34.33.68.65,1,1l.3.29C377,368.83,378.73,370.46,378.07,371.79Zm11-11.12a4.68,4.68,0,0,1-1.39,3.36,38.29,38.29,0,0,1-5.73,4.84c-.16.13-.33.24-.51.37-.74-2.24-3-4.3-4.85-6-.62-.56-1.21-1.1-1.69-1.59a28.67,28.67,0,0,1,8.06-3.58,11.27,11.27,0,0,1,4.34.3l.39.08A2.83,2.83,0,0,1,389.06,360.67Z"/><g id="_6-牙膏" data-name="6-牙膏"><path class="cls-2" d="M189.43,194.79c1.59-2,3.14-3.92,4.73-5.82l.29-.34-.41-.18c-.4-.17-1-.44-1.57-.75a53.23,53.23,0,0,1-8.89-6.34l-2.52-2-.08-.06c-3.49-2.76-7.45-5.88-9.35-10.09a27,27,0,0,1-1.42-4.65c-.08-.3-.15-.6-.23-.9a3.68,3.68,0,0,0-1.37-2.48,1.86,1.86,0,0,0-.94-.25,4.64,4.64,0,0,0-2,.66c-1,.54-1.94,1.16-2.87,1.77l-.44.28c-.75.48-1.5,1-2.27,1.43-2,1.14-4.28,2.51-6.46,4-.57.39-1.18.78-1.71,1.1a28.09,28.09,0,0,0-3.38,2.36,2.6,2.6,0,0,0-1.2,2.37,15.76,15.76,0,0,0,1,3.42c1.14,2.67,2.07,5.52,2.88,8l.09.24c.55,1.71,1.13,3.47,1.76,5.18l.13.35a25.68,25.68,0,0,0,3.37,6.92c1.52,1.95,3.16,4,5,6.14l1.22,1.46a28.74,28.74,0,0,0,4.21,4.47l.13.1c.48.38,1,.81,1.52,1.28l.11.1h.15c3.29-.33,6.57-2.12,9.77-5.32A155.47,155.47,0,0,0,189.43,194.79Z"/><path class="cls-1" d="M164.06,216.13h1.74l.64,0c.69,0,1.39.05,2.08.05.14,0,2.85-.22,3-.25,3.18-.63,6.36-2.51,9.72-5.73a126.52,126.52,0,0,0,10.77-12.34c1.72-2.16,3.5-4.4,5.32-6.52l.22-.26c2.63-3.06,5.34-6.22,7.91-9.41,1.22-1.52,2.5-3.1,3.8-4.68.59-.69,7-8.66,8.28-10.87.87-1.58,1.67-3.24,2.45-4.84.41-.83.82-1.7,1.24-2.54a69.83,69.83,0,0,1,5.18-8.87c.57-.82,1.14-1.7,1.68-2.52a36.87,36.87,0,0,1,4.68-6.21l.76-.77c.82-.8,1.65-1.63,2.46-2.49l.33-.37c.66-.76,1.5-1.68,2.36-1.77a1.59,1.59,0,0,0,1.41-1.05,2,2,0,0,0-.29-1.86,6.48,6.48,0,0,0-.7-6c-.58-1-1.15-2-1.69-3-.93-1.66-1.88-3.39-2.94-5,.36-.69.69-1.37,1-2l.16-.33c.69-1.44,1.49-2.89,2.27-4.27A50,50,0,0,0,241.5,105a15.36,15.36,0,0,0,.91-4.21,1.75,1.75,0,0,0,.48-1.38,1.5,1.5,0,0,0-.73-1.1,3.75,3.75,0,0,0-2.63-2.6c-.14-.13-.26-.26-.37-.38a14.67,14.67,0,0,0-3.12-2c-.31-.16-.62-.32-.91-.49A13.36,13.36,0,0,0,228.77,91a10,10,0,0,0-2.71.39,1.45,1.45,0,0,0-1,.79,1.52,1.52,0,0,0-.32.3,76.62,76.62,0,0,0-8.94,12.31,30.71,30.71,0,0,1-2,2.91l-.05.07a1.63,1.63,0,0,0-.7-.51,7.28,7.28,0,0,0-2.82-.56c-3,0-6.1,1.63-9,3.29a16.27,16.27,0,0,0-3.67,3.12c-.33.36-.69.74-1.08,1.1a20.76,20.76,0,0,1-1.68,1.51,4.79,4.79,0,0,0-.56.26,1.75,1.75,0,0,0-.76.81l-.43.33c-.67.53-1.37,1.07-2,1.61l-3.26,2.76-2.39,2a50.47,50.47,0,0,1-7.74,4.62c-.8,0-4.09,2.24-5.08,2.57-2.38.79-5.24,1.72-8.15,2.56s-6,1.49-9,2.1c-2.24.48-4.57,1-6.84,1.53-.43.12-.87.22-1.31.32a50.61,50.61,0,0,0-5.73,1.67c-2.34.89-4.68,1.93-7.18,3.12-1.35.64-2.65,1.39-3.91,2.11-2.8,1.6-5.43,3.1-8.6,3.68-1.08.2-2.18.3-3.25.41a30,30,0,0,0-3.61.46,32.47,32.47,0,0,0-7.15,2.3,20.85,20.85,0,0,0-5.54,4.14l-.3.28a20.51,20.51,0,0,0-3.6,4.11c-.56-.39-1.08-.73-1.58-1.06-.68-.44-1.41-.84-2.12-1.21a26.27,26.27,0,0,1-2.45-1.45c-.41-.28-.82-.58-1.21-.89-.73-.56-3.06-2.72-3.83-2.72-1.76,0-2.91.07-4.21,1.3a12,12,0,0,0-2.25,3.39c-.71,1.42-.63,5-.63,5a35.47,35.47,0,0,0-1.48,3.43,2,2,0,0,0,.92,2,11.57,11.57,0,0,0,2.7,2.93c.3.28.6.53.87.78,1.24,1.15,2.57,2.28,3.84,3.36s2.54,2.13,3.75,3.25A117.5,117.5,0,0,1,105,192.81l.34.46c4.06,5.43,8.26,11,11.37,17.16,1.23,2.41,2.35,4.92,3.43,7.34.28.61.55,1.22.83,1.82.44,1,.92,2,1.38,3,1,2.1,4.3,8.5,4.47,8.67a1.86,1.86,0,0,0,.77.56,3.4,3.4,0,0,0,.89.14,2.63,2.63,0,0,0,1.46-.47,9,9,0,0,0,3-3.46c.86-1.49,1.43-2.37,3.05-3a17,17,0,0,1,5.55-1.23,1.45,1.45,0,0,0,1.3-.8,2.15,2.15,0,0,0-.07-2.06,2.61,2.61,0,0,1,.8-1.95,10.85,10.85,0,0,0,1.65-1.3,13.48,13.48,0,0,1,4.46-3.21,4.37,4.37,0,0,1,1.66-.28,16.17,16.17,0,0,1,3.13.44l.47.1c1,.22,2.08.45,3.1.69l1.93.45a16.36,16.36,0,0,0,3.48.28ZM189.77,195A151.38,151.38,0,0,1,179,207.39c-3.15,3.16-6.36,4.91-9.57,5.23-.49-.47-1-.89-1.53-1.3l-.15-.11a29,29,0,0,1-4.15-4.41c-.39-.49-.81-1-1.23-1.47-1.84-2.15-3.47-4.16-5-6.13a25.43,25.43,0,0,1-3.31-6.83L154,192c-.65-1.78-1.26-3.64-1.84-5.41-.88-2.67-1.77-5.42-2.89-8.06a14.46,14.46,0,0,1-1-3.35c-.14-.88.37-1.4,1.1-2a22.75,22.75,0,0,1,3.33-2.33c.57-.36,1.16-.72,1.72-1.12,2.1-1.42,4.33-2.74,6.43-4,.85-.5,1.7-1.05,2.52-1.58,1-.64,2-1.31,3.07-1.88a4.11,4.11,0,0,1,1.84-.62,1.47,1.47,0,0,1,.77.2,3.4,3.4,0,0,1,1.22,2.27c.08.29.15.59.22.9a27.62,27.62,0,0,0,1.45,4.7c1.94,4.27,5.93,7.44,9.45,10.22l.08.06c.84.67,1.7,1.36,2.51,2a55.33,55.33,0,0,0,8.95,6.37c.53.29,1.09.54,1.59.76C192.89,191.1,191.3,193.08,189.77,195Zm24.5-81.14a9.12,9.12,0,0,1,2.21-4l.28-.35a50.44,50.44,0,0,0,3.22-4.72,73,73,0,0,1,6.9-9.27,18,18,0,0,0,7.75,3.22,13.17,13.17,0,0,0,1.77.13c.45,0,.9,0,1.34.08.11.15.23.27.34.41s.51.58.78.86a17.18,17.18,0,0,1-.73,3.4,28.75,28.75,0,0,1-2.92,5.91c-.63,1.09-1.28,2.21-1.85,3.35-.3.62-.6,1.27-.88,1.9-1,2.34-2.12,4.76-4.2,6.24a3.38,3.38,0,0,1-2,.59,7.58,7.58,0,0,1-2.68-.59,32.5,32.5,0,0,1-4.35-2c-.54-.32-1.1-.6-1.64-.87s-1.3-.65-1.91-1C214.38,116.32,214,115.53,214.27,113.85ZM199.73,116a16.85,16.85,0,0,1,5.72-4.19l.08,0a11.49,11.49,0,0,1,4.67-1.5,3.84,3.84,0,0,1,.76.06,1.91,1.91,0,0,0,.66.57,8.65,8.65,0,0,0-1.06,4.26c0,3.47,3.07,5,5.75,6.34.28.14.58.29.85.44l.82.43c2.62,1.38,5.33,2.81,8.24,2.81a7.6,7.6,0,0,0,2.18-.3,7.83,7.83,0,0,0,3.93-2.64c.33.6.67,1.19,1,1.8.56,1.06,1.13,2.14,1.81,3.18.1.18.24.37.37.56a5.41,5.41,0,0,1,1.26,2.83c0,1-1,1.81-1.87,2.49-3.9,3-8.55,3.2-13.36,3.2h-1.7c-5.93,0-10.44-1.22-13.78-3.7s-5.1-6.75-6.29-10.55a17,17,0,0,0-1.15-1.76c-.12-.69-.24-1.34-.3-2.06a3.52,3.52,0,0,0-.14-.69A18.05,18.05,0,0,0,199.73,116ZM137,220.87c-.22.07-.45.12-.68.2a10.22,10.22,0,0,0-3.85,1.54,10,10,0,0,0-2.07,2.81,10.2,10.2,0,0,1-1.73,2.44,2,2,0,0,0-.41-.8c-.52-1.28-1.13-2.53-1.73-3.73a44.82,44.82,0,0,1-2-4.58,62.33,62.33,0,0,0-3.33-7.37l-.91-1.83c-3-6-6.71-11.23-11.32-17.45a97.79,97.79,0,0,0-13.3-14.77c-1-.87-1.93-1.75-2.86-2.63-1.59-1.45-3.23-3-4.91-4.4l-.59-.49c-.81-.69-1.67-1.41-2.47-2.16-.15-.11-.33-.26-.54-.44a11.85,11.85,0,0,1-1.23-1.11s0,0,0,0a7,7,0,0,0,.71-4,8.34,8.34,0,0,1,.48-4.15,9.45,9.45,0,0,1,1.06-1.66,1.41,1.41,0,0,1,.55-.48,1.59,1.59,0,0,0,.53.33A12.29,12.29,0,0,1,89.28,158c.41.33.84.67,1.28,1a23.58,23.58,0,0,0,2.51,1.48c.71.37,1.44.76,2.11,1.19a56.9,56.9,0,0,1,8.31,6.7c1.81,1.73,3.51,3.69,5.16,5.58.85,1,1.72,2,2.58,2.92,2.58,2.8,5.3,5.8,8,8.89s4.87,5.84,7,8.71a51.81,51.81,0,0,1,5.54,10.31c1.22,2.86,2.44,5.77,3.61,8.57l.4,1,.51,1.23c.69,1.67,1.39,3.38,2.21,5Zm20.64-9.22-.19,0-.62-.14a24.75,24.75,0,0,0-5.52-.84,8.27,8.27,0,0,0-4.38,1.11,16,16,0,0,0-4.32,3.38,7.62,7.62,0,0,1-1.82,1.52l-.18.12c-.36-.84-.7-1.7-1-2.54l-.73-1.81-.14-.33c-1.35-3.21-2.73-6.54-4.14-9.8-3.26-7.5-8.15-13.69-12.95-19.26-2.49-2.89-5.11-5.76-7.64-8.53l-.32-.35-2.5-2.79c-1.73-2-3.54-4-5.44-5.86a57.46,57.46,0,0,0-4.44-3.89,1.69,1.69,0,0,0,.21-.31,14.76,14.76,0,0,1,3.44-3.76l.84-.76a18,18,0,0,1,6.74-3.78,33.78,33.78,0,0,1,6.75-1.29c1.56-.2,3.16-.4,4.74-.76a7.1,7.1,0,0,1-.16.88c0,.1,0,.2,0,.3a14.76,14.76,0,0,0-.18,3v.62s1,10.68,2,10.68c.79,0,1.58-11,1.58-11a15.66,15.66,0,0,1,.22-2.28,13.6,13.6,0,0,0,.18-3.42,31.64,31.64,0,0,0,3-1.67c.51-.33,1.05-.66,1.6-1,2.41-1.36,4.91-2.5,6.83-3.34a83.89,83.89,0,0,1,15.11-4.58l3.81-.85c3.8-.85,7.74-1.71,11.56-2.91,2.35-.73,4.53-1.53,6.62-2.41-.08.61-.23,1.24-.37,1.84l0,.1a18.34,18.34,0,0,0-.45,5c.1,3.67,5.66,9.15,6,8.51s-2.41-7.45-2.42-10.69a9.88,9.88,0,0,1,.46-2.6,16,16,0,0,0,.41-1.76,8.3,8.3,0,0,0,.05-2.05c1.25-.63,2.4-1.25,3.52-1.88a57,57,0,0,0,8.56-6.66c1-.87,2-1.76,3-2.61a4.18,4.18,0,0,0,.08.49,6,6,0,0,1,.11.73c.06.52,1.19,2.75,1.22,3.05.08.62,5,9.06,7.93,11.25,5,3.69,11.42,4.16,16.47,4.16h1.68a36.48,36.48,0,0,0,7.19-.53,25.23,25.23,0,0,0-2.24,2.84c-.23.32-.44.64-.67.92a93.62,93.62,0,0,0-9.95,16.68c-2.23,4.87-4.58,9.51-8.88,12.32a11.54,11.54,0,0,1-6.08,2,7,7,0,0,1-2.29-.37c-.91-.33-1.8-.76-2.67-1.17-.52-.25-1.06-.51-1.6-.75-.83-.36-6.28-2.17-6.57-1.48a1.45,1.45,0,0,0,.38,1.62,19.55,19.55,0,0,0,5.71,3.57c.41.19.83.4,1.25.61a13,13,0,0,0,5.83,1.53,11.68,11.68,0,0,0,2.64-.32l-.69.83c-2.48,3.05-5,6.08-7.48,9A.92.92,0,0,0,196,187a42.47,42.47,0,0,1-9.36-6.22c-.85-.68-1.72-1.38-2.61-2.07l-.07,0c-4-3.07-8.13-6.25-10-10.92a18.43,18.43,0,0,1-.69-2.55c-.56-2.56-1.2-5.46-4-6a3.82,3.82,0,0,0-.9-.1,7.15,7.15,0,0,0-3.61,1.19c-.84.5-1.66,1-2.47,1.55s-1.94,1.25-2.94,1.83c-2.41,1.39-4.53,2.69-6.47,4l-1.51,1a37.61,37.61,0,0,0-3.59,2.48,4.78,4.78,0,0,0-2.12,3.92,16.87,16.87,0,0,0,2.13,6.53,27.88,27.88,0,0,1,1.53,4.46c.19.64.38,1.32.58,2,.69,2.17,1.53,4.72,2.54,7.23a24.72,24.72,0,0,0,3.33,6.07c1.67,2.16,3.41,4.22,5.51,6.66.34.41.69.81,1,1.22a32.46,32.46,0,0,0,3,3.31,1.36,1.36,0,0,0,.12.12h-.11c-.7-.05-1.42-.07-2.12-.09A26.09,26.09,0,0,1,157.66,211.65Z"/><path class="cls-2" d="M21.79,59.5l-.57-.24v9.3l.33.06a4.08,4.08,0,0,0,.77.07,2.56,2.56,0,0,0,2.29-1.35,5.74,5.74,0,0,0,.06-5.2A5.53,5.53,0,0,0,21.79,59.5Z"/><path class="cls-2" d="M126,38.42c1.64-.07,3.23-.16,4.73-.26l.62,0c2.46-.14,5-.27,7.55-.27H140a9.53,9.53,0,0,0,3.53-.49c1.28-.53,1.08-1.9.89-3.11-.05-.34-.08-.64-.11-.88l0-.75c-.3-3.72-.58-7.23-.64-10.88v-.31l-.3-.08a6.75,6.75,0,0,0-1.44-.14,22.9,22.9,0,0,0-2.44.18l-.12,0c-.6.06-1.17.12-1.61.12-.75,0-1.5,0-2.16-.07-.91,0-1.66-.07-2.34-.07a12.65,12.65,0,0,0-3.67.44L129,22l-.71.23c-.83.25-1.67.52-2.51.75l-.31.08v1.43c0,2.5,0,5.62.08,8.58a19.72,19.72,0,0,1-.3,4.84l-.12.5H126Z"/><path class="cls-2" d="M90.52,52.25l1.42-.32.18,0c5-1.13,10.22-2.3,14.76-4.88a23.2,23.2,0,0,0,2.6-1.77l.67-.49a2,2,0,0,0,.26-.2l.28-.18,0-.25a1.47,1.47,0,0,1,.46-1.22,13.5,13.5,0,0,0,3.48-5.46,19.66,19.66,0,0,0,.53-4.87c0-.51,0-1,0-1.52,0-.25,0-.49,0-.74s0-.58,0-.89c.23-4,.49-8.6-1.59-12.24-1.92-3.36-6.2-4.39-10-5.29l-.62-.14c-.7-.17-1.36-.33-2-.52a35.36,35.36,0,0,1-7.35-3l-.79-.45-.14-.07A33,33,0,0,0,87.59,5.3l-.49-.16,0,.52a1.79,1.79,0,0,0,0,.23c0,.18,0,.36,0,.56,0,1,0,2,0,3v.16a39.62,39.62,0,0,1-.16,4.47l0,.22c-.28,2.51-.57,5.09-1,7.61-.11.78-.31,1.59-.52,2.46v.07a17,17,0,0,0-.73,4.78,4.88,4.88,0,0,1-.78,3.6,5.06,5.06,0,0,1-3.67,1.41h-.34c-.89-.07-1.86-.1-3-.1-1.88,0-3.78.1-5.61.21h-.27c-1.72.1-3.57.2-5.42.22a1.2,1.2,0,0,1-1.29-1c-.46-1.89.19-3.7.83-5.44v0c.1-.26.2-.53.29-.79a22,22,0,0,0,.72-7V19.2c0-2.75-.15-5.54-.3-8.24l0-.84c-.07-1.21-.14-2.47-.19-3.72l0-.54L65,6c-2.65.89-5.52,2-9,3.49A33.18,33.18,0,0,0,43.39,18.1c-1.49,1.71-3,3.57-4.61,5.85-.32.45-.66.92-1,1.38l-.13.18c-.77,1-1.58,2.13-2.28,3.23l-.11.18.09.21a2,2,0,0,1,.17.79c0,.58,0,1.15,0,1.74v.57c-.11,5.46-.22,11.09,2.91,15.88.47.7,1,1.4,1.52,2.07a15.64,15.64,0,0,1,2.92,4.88,24.88,24.88,0,0,1,.75,7.12,1.49,1.49,0,0,1-.4,1.1,1.55,1.55,0,0,1-1.1.4,2,2,0,0,1-2-1.94c0-3.41-.34-5.72-2.15-8.16l-.15-.2a29.8,29.8,0,0,1-3.88-6.27c-.25-.63-.48-1.25-.69-1.92l-1-3.23.23,3.38c.13,2,.26,4.43.2,6.87a56.44,56.44,0,0,1-.88,7.62l-.1.73a26.53,26.53,0,0,1-.78,3.07l0,.06a16.16,16.16,0,0,0-.87,4.08,1.47,1.47,0,0,1-1.58,1.5,1.58,1.58,0,0,1-.41,0l-.27-.06-.16.23A6.52,6.52,0,0,1,24,72.12a4.83,4.83,0,0,1-1.51.22,10.33,10.33,0,0,1-3.05-.59l-.06,0a2.49,2.49,0,0,1-.74-.25l-.38-.16L18,71.23c-.16,0-.32-.1-.49-.17a1.52,1.52,0,0,1-1.11-1.45,2,2,0,0,1,1-1.77l.22-.11v-8.9l-.44.05a12.09,12.09,0,0,0-8.6,4.78c-1.93,2.55-4.06,6.59-4.22,10.28A11.77,11.77,0,0,0,11.47,85.5a28.16,28.16,0,0,0,11.14,2.56A21.81,21.81,0,0,0,29.31,87c7.32-2.34,13-7.68,18.47-12.84a89.35,89.35,0,0,1,9.73-8.33A70.58,70.58,0,0,1,73,57.27,132.38,132.38,0,0,1,89.89,52.4ZM51.87,41.55c.06.46.14,1.13.19,1.77.08,1,.18,2.08.27,3.09.11,1.18.21,2.4.3,3.61,0,.42.08.88.12,1.35C53.24,57.17,54,66,47,67.46a1.74,1.74,0,0,1-.39.05A1.54,1.54,0,0,1,45.07,66a1.84,1.84,0,0,1,1.45-2.08c2.93-.64,2.87-4.34,2.81-6.78v-.72c0-4.08-.39-8.21-.75-12.2l-.1-1.14c-.33-3.63-.67-7.37,1-11.17a53.29,53.29,0,0,1,5.81-9.5,1.5,1.5,0,0,1,1.29-.71,1.94,1.94,0,0,1,1.69,1.07,1.66,1.66,0,0,1-.15,1.8l-.5.69-.22.32c-2.37,3.27-5,7-5.65,11.09A18.64,18.64,0,0,0,51.87,41.55Z"/><path class="cls-2" d="M31.18,19.92l.58-1.38c.74-1.75,1.57-3.73,2.47-5.62l.07-.16A26,26,0,0,0,35.85,9L36,8.38l-.59,0c-5.79.43-9.67,5.47-13.09,9.91l-.23.29c-3.95,5.13-6,11-8,17.58-1.21,3.89-2.75,7.67-4.23,11.33-.94,2.31-2.11,5.18-3.09,7.94a40.32,40.32,0,0,0-1.6,5.61L4.83,62.8l1.08-1.38a15,15,0,0,1,6.9-5.19,17.51,17.51,0,0,1,5.52-.95,11.91,11.91,0,0,1,5.76,1.39,8.73,8.73,0,0,1,3.27,3.1l.61.93.14-1.1.15-1c0-.22.07-.43.09-.64A43.13,43.13,0,0,0,29,51.77c0-3-.2-6.17-.4-9s-.39-5.57-.39-8.36v-.78A29.51,29.51,0,0,1,28.72,27,42.73,42.73,0,0,1,31.18,19.92Z"/><path class="cls-2" d="M82.55,26.9c.91-4.25,1.46-8.62,1.87-12.33a56.41,56.41,0,0,0,.27-6.39,12.39,12.39,0,0,1,.09-1.27V6.76a13.78,13.78,0,0,0,.06-1.92v-.3l-.3-.07a28.3,28.3,0,0,0-13.35-.24c-1,.24-2,.52-3.1.83l-.3.09v.32c.06,1.88.19,3.84.29,5.57v.18c.16,2.71.32,5.51.29,8.27a47.34,47.34,0,0,1-.62,7.86,11.42,11.42,0,0,1-.65,2.06l0,.07a8.84,8.84,0,0,0-.65,2.28l-.06.47.49,0c1.15-.06,2.32-.16,3.53-.27h.12c1.76-.16,3.59-.32,5.38-.32.55,0,1,0,1.43,0a3.16,3.16,0,0,1,.52.06l.57.08a14.39,14.39,0,0,0,1.79.15c1.14,0,1.8-.31,2-.92a4.6,4.6,0,0,0,.06-1.43v-.05c0-.16,0-.3,0-.46a7.48,7.48,0,0,1,.23-1.84Z"/><path class="cls-2" d="M118.74,29.89c0,.77-.06,1.56-.08,2.32a24.48,24.48,0,0,1-.78,6l-.17.61.63-.09a10.92,10.92,0,0,1,1.38-.16c.39,0,.8-.05,1.15-.05h.2l.12-.16c1.06-1.42.93-3.49.81-5.32v-.23c0-.42-.06-.8-.06-1.18,0-2.14,0-4.29,0-6.37V23.7h-.73a9.26,9.26,0,0,1-1.9-.19l-.52-.11,0,.53c.08,1.95,0,3.95-.07,5.89Z"/><path class="cls-1" d="M87.75,57.66c1.9-.51,3.85-.94,5.73-1.36,2.1-.47,4.29-1,6.41-1.55l.23-.06c3.49-1,7.46-2.06,10.32-4.3.32-.24.82-.58,1.39-1,2.2-1.48,5.49-3.66,5.78-6,.94-.06,1.87-.16,2.77-.23,1.45-.15,3-.29,4.47-.31,2.4,0,4.82-.19,7.17-.31,2-.12,4.08-.24,6.13-.3h2.31c2.33,0,4.76-.12,6.68-1.44,2.48-1.7,2.18-4.59,1.92-7.12,0-.52-.09-1-.12-1.48-.06-1-.17-1.94-.27-2.9s-.23-2.12-.29-3.17-.06-2.27-.07-3.49c0-.2,0-.41,0-.63a3.73,3.73,0,0,0-.45-2.52c-1.17-1.53-3.23-1.7-4.68-1.7-.87,0-1.74.08-2.49.13l-1.27.09c-.42,0-.86,0-1.35,0-.68,0-1.38,0-2.05-.05l-2,0a18.23,18.23,0,0,0-5.19.63c-.47.13-1,.3-1.5.47A17.61,17.61,0,0,1,122,20.36a4.73,4.73,0,0,1-2.48-.61,1.63,1.63,0,0,0-.23-.11,19,19,0,0,0-.77-2.48c-2-5.1-6.93-6.83-11.77-8.17l-1.36-.38a56.8,56.8,0,0,1-6.83-2.15,42,42,0,0,1-4-2c-1.27-.7-2.57-1.42-3.92-2A34.08,34.08,0,0,0,78.06,0,29,29,0,0,0,73.6.33C68.2,1.2,63,3.26,57.9,5.26l-1.45.57a38.76,38.76,0,0,0-14,8.79,71.1,71.1,0,0,0-7.94,9.76c.34-.88.73-1.74,1.1-2.58l.55-1.24c.43-1,.92-2,1.44-3.08,1.57-3.23,3.2-6.58,3.36-10a2.22,2.22,0,0,0-1.91-2.41A15.69,15.69,0,0,0,37,4.93c-5.25,0-10.08,2.78-14.77,8.51a57.93,57.93,0,0,0-5.85,8.22A57.31,57.31,0,0,0,12.2,31.9c-.35,1.06-.68,2.16-1,3.2a59.39,59.39,0,0,1-2.35,6.8c-1.57,3.59-3.1,7.36-4.53,11.23a50.41,50.41,0,0,0-2.8,10.79c-.13.87-.16,1.75-.21,2.6A20.86,20.86,0,0,1,1,69.68c-.11.55-.28,1.11-.44,1.65A12.12,12.12,0,0,0,0,74a2.2,2.2,0,0,0,1.27,2.13,17,17,0,0,0,.78,4.39C3.37,84.69,6.69,88,11.91,90.2a29.18,29.18,0,0,0,11.44,2.47A23.69,23.69,0,0,0,29,92c3.05-.75,7.93-2.41,15-8.18,2.45-2,4.8-4.1,7.07-6.17A95.46,95.46,0,0,1,63.65,67.48a62.79,62.79,0,0,1,11.55-6A112.15,112.15,0,0,1,86.84,57.9Zm38.92-24.07c-.08-2.86-.08-5.77-.08-8.57v-.79h0V23.9c1-.27,2-.58,2.95-.89l.88-.28a12.54,12.54,0,0,1,3.55-.41c.77,0,1.55,0,2.32.06s1.47.07,2.17.07c.5,0,1.12-.07,1.78-.13a21,21,0,0,1,2.39-.18,5.77,5.77,0,0,1,1.35.13c.06,3.72.34,7.3.65,11.09l0,.56c0,.29.07.61.11.9.21,1.37.28,2.3-.64,2.69a9.4,9.4,0,0,1-3.37.45h-1.24c-2.72,0-5.48.16-8.14.3-1.55.11-3.16.2-4.73.26h-.3A19.15,19.15,0,0,0,126.67,33.59Zm-6.88-.86c0-.76.06-1.55.09-2.32.07-2,.15-4,.06-6a9.2,9.2,0,0,0,2,.2h.31v1.14c0,2.09,0,4.24,0,6.38,0,.45,0,.93.07,1.43.11,1.75.23,3.75-.73,5l-1.16,0c-.5,0-1,.1-1.43.17A25.1,25.1,0,0,0,119.79,32.73ZM68.22,30.06a12.29,12.29,0,0,0,.67-2.13A47.39,47.39,0,0,0,69.51,20c0-2.84-.14-5.71-.3-8.48C69.1,9.7,69,7.81,68.93,6c1.12-.33,2.13-.6,3.07-.83a23.88,23.88,0,0,1,5.74-.68,32.14,32.14,0,0,1,7.43.93,15.35,15.35,0,0,1-.07,2A12.74,12.74,0,0,0,85,8.69,55,55,0,0,1,84.74,15a119,119,0,0,1-1.87,12.29l-.06.29a8.1,8.1,0,0,0-.27,2l0,.53a4.24,4.24,0,0,1,0,1.29c-.12.41-.65.62-1.6.62a15.76,15.76,0,0,1-2-.19,7.75,7.75,0,0,0-.86-.11c-.45,0-.93,0-1.43,0-1.84,0-3.73.17-5.54.33-1.15.11-2.34.22-3.52.27A9.31,9.31,0,0,1,68.22,30.06ZM7.89,56.13c1-2.67,2-5.35,3.09-7.93,1.49-3.68,3-7.49,4.25-11.36,2-6.54,4-12.38,7.93-17.45l.23-.28c3.37-4.38,7.18-9.35,12.8-9.77a28.43,28.43,0,0,1-1.61,3.91v0c-.88,1.84-1.67,3.75-2.46,5.61l-.59,1.38a43.43,43.43,0,0,0-2.47,7.16,28.7,28.7,0,0,0-.5,6.73V35c0,2.8.2,5.65.39,8.4.22,2.93.43,5.95.39,8.93a43.5,43.5,0,0,1-.65,6.13c-.08.54-.17,1.09-.24,1.65A9.39,9.39,0,0,0,25,56.82a12.31,12.31,0,0,0-6-1.44,18,18,0,0,0-5.64,1,15.42,15.42,0,0,0-7.1,5.33A43.22,43.22,0,0,1,7.89,56.13ZM25,67.64A2.14,2.14,0,0,1,23,68.8a4.6,4.6,0,0,1-.69-.07V60.38A5.13,5.13,0,0,1,25,62.83,5.33,5.33,0,0,1,25,67.64ZM73.54,57.39A70.7,70.7,0,0,0,58,66a91.93,91.93,0,0,0-9.78,8.36c-5.46,5.16-11.1,10.45-18.31,12.75a21.18,21.18,0,0,1-6.58,1,27.86,27.86,0,0,1-11-2.52,11.35,11.35,0,0,1-6.8-11.18c.15-3.59,2.24-7.54,4.13-10.06A11.67,11.67,0,0,1,18,59.8V68a2.45,2.45,0,0,0-1.25,2.14A1.94,1.94,0,0,0,18.14,72c.24.1.49.17.73.26l.33.13a2.81,2.81,0,0,0,.87.3,10.63,10.63,0,0,0,3.18.61A5.15,5.15,0,0,0,24.88,73a7,7,0,0,0,3.68-2.87,2,2,0,0,0,.49,0,1.89,1.89,0,0,0,2-1.9,16.33,16.33,0,0,1,.87-4,23.36,23.36,0,0,0,.79-3.12l.12-.73a59.21,59.21,0,0,0,.87-7.67c.06-2.31,0-4.63-.2-6.91.2.67.44,1.31.7,2a29.51,29.51,0,0,0,3.94,6.36l.13.19c1.74,2.35,2.08,4.61,2.08,7.93a2.38,2.38,0,0,0,2.44,2.35,2,2,0,0,0,1.39-.53,1.92,1.92,0,0,0,.52-1.38,25.32,25.32,0,0,0-.76-7.24,16.14,16.14,0,0,0-3-5c-.54-.71-1.06-1.37-1.51-2-3.06-4.68-3-10.25-2.84-15.64,0-.78,0-1.55,0-2.31a2.14,2.14,0,0,0-.2-1c.74-1.16,1.58-2.28,2.39-3.39.35-.45.69-.92,1-1.38,1.65-2.29,3.11-4.14,4.58-5.82a32.9,32.9,0,0,1,12.41-8.49c3.49-1.46,6.37-2.57,9-3.47.06,1.51.15,3,.23,4.48.16,2.72.33,5.54.31,8.31,0,.38,0,.76,0,1.13a21.53,21.53,0,0,1-.7,6.84l-.29.78c-.65,1.82-1.34,3.69-.86,5.71a1.62,1.62,0,0,0,1.7,1.32h0c1.82,0,3.65-.12,5.41-.23,1.92-.1,3.91-.22,5.86-.22,1,0,2,0,2.94.1h.36a5.41,5.41,0,0,0,4-1.57,5.3,5.3,0,0,0,.86-3.87,16.82,16.82,0,0,1,.71-4.66c.22-.89.43-1.74.55-2.57.42-2.6.72-5.28,1-7.85A43.2,43.2,0,0,0,88.11,10c0-1,0-2,0-3,0-.2,0-.38,0-.56a1.48,1.48,0,0,1,0-.22,33.36,33.36,0,0,1,5.28,2.48l.79.45a36.19,36.19,0,0,0,7.44,3c.79.24,1.65.43,2.55.65,3.72.89,7.91,1.89,9.77,5.11,2,3.55,1.76,8.05,1.53,12,0,.56-.06,1.1-.08,1.62s0,1,0,1.54a19.87,19.87,0,0,1-.51,4.77,12.9,12.9,0,0,1-3.39,5.28,1.88,1.88,0,0,0-.57,1.56l-.06,0a1.33,1.33,0,0,1-.26.21l-.67.49a25.1,25.1,0,0,1-2.56,1.74c-4.55,2.58-9.78,3.74-14.84,4.88l-2,.46A136.07,136.07,0,0,0,73.54,57.39Z"/><path d="M57.29,21.8a2,2,0,0,0-1.63.89,52.84,52.84,0,0,0-5.84,9.57c-1.71,3.89-1.37,7.69-1,11.36l.09,1c.36,4,.74,8.2.77,12.32,0,.22,0,.46,0,.72.05,2.45.1,5.82-2.5,6.38a2.25,2.25,0,0,0-1.77,2.51,2,2,0,0,0,1.91,1.88,2.14,2.14,0,0,0,.5-.06c7.35-1.59,6.58-10.58,6.08-16.53,0-.46-.08-.92-.12-1.34-.09-1.21-.19-2.43-.3-3.6s-.19-2.06-.27-3.1c0-.58-.12-1.2-.19-1.78a18.7,18.7,0,0,1-.15-4.77c.6-4,3.25-7.68,5.59-10.93.23-.33.48-.66.71-1a2.08,2.08,0,0,0,.2-2.22A2.41,2.41,0,0,0,57.29,21.8Z"/><path class="cls-2" d="M77.73,81.24l-.12.19c-.29.53-.59,1.06-.89,1.58-.14.25-.29.5-.43.76l-.19.36-.79,1.41A110.79,110.79,0,0,1,69.12,95c-.63.9-1.26,1.81-1.86,2.7l-.2.28c-.67,1-1.42,2.09-2.18,3.14l-.44.62.75-.13c1.42-.27,2.8-.58,4.35-.92l.58-.13c1.29-.28,2.64-.58,3.95-.8a37.05,37.05,0,0,1,13.16,0c1.63.31,3.23.79,4.78,1.24a31.81,31.81,0,0,0,7.75,1.58c.35,0,.71,0,1.16.1l1,.07h.1a4.53,4.53,0,0,0,.5,0c.7,0,1.13-.18,1.39-1.15.35-1.29.73-2.6,1.1-3.84.17-.6.35-1.2.53-1.82s.31-1.19.47-1.86a19.53,19.53,0,0,1,1.3-4.1c.22-.46.41-.93.62-1.44l.07-.13a12,12,0,0,1,1.77-3.34,2.29,2.29,0,0,0,.72-1.56,1,1,0,0,0-.39-.66,7.62,7.62,0,0,0-1.95-1c-.93-.33-1.89-.58-2.84-.83h0l-.55-.16c-.26-.06-.52-.13-.8-.22l-.2,0A36.54,36.54,0,0,0,96.6,79a62.42,62.42,0,0,0-7.44,0h-.3a19.51,19.51,0,0,0-6.71,1l-.18.07a15.82,15.82,0,0,1-3.77,1.15H78Z"/><path class="cls-2" d="M101.91,56.63l.4,0c.83-.08,1.68-.11,2.55-.11a22.81,22.81,0,0,1,7.83,1.26l.3.11.1-.3.16-.39a3.88,3.88,0,0,0,.35-1.29c.11-1,.13-1.91.15-3v-.27c0-.47,0-1,0-1.46,0-.18,0-.39.08-.61l0-.12c.15-1,.32-2.05-.65-2.46a6.32,6.32,0,0,0-2.6-.47c-.39,0-.82,0-1.25-.05l-.6,0c-.54,0-1.1-.06-1.66-.06-2.22,0-3.57.53-4.34,1.74A13.22,13.22,0,0,0,101,54.56l0,.23.21.09a1.46,1.46,0,0,1,.74.75,1.16,1.16,0,0,1,.07.61Z"/><path class="cls-2" d="M108.49,143.73l-.63.12-1.23.26h0a25.82,25.82,0,0,1-4.72.68H100c-2,0-4,0-6.29-.1H93.1c-1.88,0-3.82-.1-5.72-.1H86.14c-.4,0-.82,0-1.21,0a42.34,42.34,0,0,1-4.45-.18l-.25,0c-2.2-.24-4.46-.5-6.68-.82a70.67,70.67,0,0,1-7.08-1.37c-1.34-.33-2.68-.78-4-1.21l-.19-.05c-.85-.29-1.62-.54-2.4-.78a44.19,44.19,0,0,1-6.72-2.68c-.59-.29-1.2-.62-1.79-.94l-.16-.08a28.87,28.87,0,0,0-4.14-2l-.29-.1L45.68,134a23.59,23.59,0,0,0-5.25-1.48c-1.34-.16-2.87-.26-4.65-.3H35.7l-.06,0a1.48,1.48,0,0,1-1.25,0l-.07,0H34a11.21,11.21,0,0,0-4.07.8l-.79.31.8.27a22.11,22.11,0,0,1,5,2.48c2.72,1.74,5.41,3.67,8,5.54l.1.08c.26.17.5.35.75.52l1.26.9a32.07,32.07,0,0,0,12.12,5.16l1.05.23.44.09c1.63.36,3.31.74,4.93,1.27a38.23,38.23,0,0,1,4.35,1.79l.6.27c.43.19.85.39,1.28.56A40.33,40.33,0,0,0,84,156c.38,0,.8,0,1.28,0a36.19,36.19,0,0,0,12.38-2.58,32.46,32.46,0,0,0,10.36-5.66,25.55,25.55,0,0,0,3-3.28l.06-.07.68-.83.58-.71-.9.23C110.45,143.37,109.39,143.57,108.49,143.73Z"/><path class="cls-3" d="M112.81,60.71a20.13,20.13,0,0,0-8-1.56c-.64,0-1.31,0-2,.08-7.12.59-13.35,4.42-16.27,10l-.19.36.39.09a4.59,4.59,0,0,0,.7,0h.59a1.07,1.07,0,0,1,1.16,1.13,1.49,1.49,0,0,1-1.47,1.55,2.77,2.77,0,0,0-1.15.31,4.94,4.94,0,0,1-.49.19,7.7,7.7,0,0,0-2.14,1,17.35,17.35,0,0,0-3.57,3.34c-.38.48-.72,1-1.06,1.44l-.51.74.86-.28c.69-.22,1.38-.5,2-.76l.43-.17c.4-.16.82-.33,1.22-.47a10.12,10.12,0,0,1,2.79-.34h.11l.87,0c1.28-.08,2.43-.11,3.55-.13l1.83,0c.54,0,1.08,0,1.63,0a24,24,0,0,1,3.24.18A51.07,51.07,0,0,1,104.57,79c.36.11.74.2,1.11.3l.45.12a21,21,0,0,1,2.64.79A5.86,5.86,0,0,1,112,82.44c.68,1.28-.11,2.52-.82,3.62l0,.06a35.19,35.19,0,0,0-3.73,9.54l0,.11c-.22.77-.45,1.55-.68,2.33-.07.2-.12.42-.19.62v0c-.3,1-.59,1.87-.8,2.81a4.74,4.74,0,0,1-.84,2,2.83,2.83,0,0,1-2.31.91c-.43,0-.87,0-1.29-.08s-.9-.08-1.34-.12h-.13a25.31,25.31,0,0,1-4.33-.58c-1.23-.28-2.45-.65-3.64-1l-.53-.16c-.28-.07-.56-.16-.83-.24l-1-.29a31.44,31.44,0,0,0-8.65-1.17,35.24,35.24,0,0,0-6,.51c-1.51.26-3,.61-4.52.94l-.31.07a67.57,67.57,0,0,1-7,1.29l-.12,0-.09.1c-4.49,5.56-10,9.79-14.89,13.21A25.69,25.69,0,0,0,44,120.29c-.29.31-.56.63-.84.93l-.27.32c-.61.69-1.24,1.41-1.93,2.06-1.81,1.72-3.49,3.43-4.28,5.57l-.14.41H37a23.88,23.88,0,0,1,4.76.43A46.23,46.23,0,0,1,47,131.63l.62.21a48.35,48.35,0,0,1,5.78,2.6l.16.08a43,43,0,0,0,6.81,3c.86.27,1.73.57,2.47.82a45.82,45.82,0,0,0,4.84,1.45c2.35.5,4.57.91,6.76,1.22,2.4.34,4.82.61,7.31.88l.16,0a24.57,24.57,0,0,0,2.76.13l1.61,0,1,0c1.23,0,2.46,0,3.69,0h2.14c1.3,0,2.38,0,3.39.06l1.06.06.51,0c.82.05,1.84.11,2.82.11a15.14,15.14,0,0,0,2.8-.23c2.1-.43,4.55-.92,6.91-1.31a14.3,14.3,0,0,0,3.33-1.12l.93-.48a10.54,10.54,0,0,1,1.11-.57l.13-.06,0-.14a50.51,50.51,0,0,0,2.58-12.5c.16-2.83,0-5.69-.07-8.46v-.1c-.08-1.77-.18-4-.16-6.1a104.39,104.39,0,0,1,1-14.94c.26-1.7.62-3.41,1-5.08a56.63,56.63,0,0,0,1.4-9,31.08,31.08,0,0,0-2.15-13.29C118.44,65.71,116.62,62.36,112.81,60.71Z"/><path class="cls-1" d="M129.4,139.29a14.32,14.32,0,0,1-1.69-.64,8.92,8.92,0,0,0-2.94-.86q-.83-.06-1.68-.06c-1,0-2,.06-3,.16a46,46,0,0,0,1.91-8.58,62.4,62.4,0,0,0,.36-6.89c0-1.26-.1-2.54-.18-3.77s-.18-2.5-.18-3.74a136.35,136.35,0,0,1,.6-15c.3-2.63.83-5.22,1.34-7.77.44-2.18.9-4.44,1.2-6.71a35.7,35.7,0,0,0-.7-13.09c-1.13-4.62-2.85-8.22-5.14-10.69a14.62,14.62,0,0,0-2.86-2.36,9.41,9.41,0,0,0,.4-1.28,24,24,0,0,0,.44-4.73c0-.59,0-1.18,0-1.78,0-.27,0-.53.06-.78a5.42,5.42,0,0,0-.71-3.85c-.86-1.27-2.7-1.76-4.08-1.95a15.13,15.13,0,0,0-2.15-.13c-.64,0-1.3,0-1.94.05s-1.25,0-1.85,0a6.29,6.29,0,0,0-5,1.86c-2.51,2.64-3.43,7.18-3.24,10.59-7.31,1.89-13.29,7.34-15.28,13.92a1.89,1.89,0,0,0-.05.23c-3.65,2.35-6.35,6.67-8.07,9.72a207.43,207.43,0,0,1-12.91,19.59c-.34.46-.71,1-1.16,1.52a1,1,0,0,0-.31.38c-4.06,5-9.06,8.61-14.35,12.48l-.52.39a38.05,38.05,0,0,0-5.18,4.88c-.84.9-1.7,1.82-2.58,2.69a14.06,14.06,0,0,0-3.95,6.43c-.68,0-1.34.06-2,.11a7.38,7.38,0,0,0-2.07.66,5.36,5.36,0,0,1-.6.24A23.86,23.86,0,0,0,26.83,132c-.56.32-1.14.64-1.74.93a12.2,12.2,0,0,0-1.68.26,1.38,1.38,0,0,0-.62-.15,1.4,1.4,0,0,0-1,.45l-.47.46a1.87,1.87,0,0,0-.41,2,1.5,1.5,0,0,0,1.39.94,1.9,1.9,0,0,0,.68-.13,8,8,0,0,1,1.31-.4,1.51,1.51,0,0,0,.41.06l.21,0a4.08,4.08,0,0,0,1-.23h.16c3.13,0,6.16,1.74,8.46,3.23s4.68,3.23,6.94,4.85l3.15,2.24a32.92,32.92,0,0,0,11.68,4.92c.67.16,1.36.31,2,.45,1.4.31,2.85.63,4.25,1a33.11,33.11,0,0,1,4.92,2l1.76.79A45.16,45.16,0,0,0,83,159.26c.93.09,1.87.13,2.8.13a35.55,35.55,0,0,0,10.83-1.86,46.42,46.42,0,0,0,10.77-4.78,30.86,30.86,0,0,0,8.2-7.85,6.25,6.25,0,0,1,1.54-1.47,20.56,20.56,0,0,1,3.53-.94h2.65c.9,0,7-.87,7.15-1.66A1.36,1.36,0,0,0,129.4,139.29ZM103.6,49.67c.71-1.1,2-1.61,4.08-1.61.63,0,1.26,0,1.88.09s1.12.06,1.62.06a6.18,6.18,0,0,1,2.5.44c.69.3.62,1.07.45,2.14a7.58,7.58,0,0,0-.1.76c0,.59,0,1.17,0,1.74a24,24,0,0,1-.15,2.92,3.58,3.58,0,0,1-.32,1.21,4.09,4.09,0,0,0-.16.42,23,23,0,0,0-7.94-1.29c-.85,0-1.72,0-2.58.12a1.5,1.5,0,0,0-.09-.78,1.83,1.83,0,0,0-.91-.91A12.89,12.89,0,0,1,103.6,49.67ZM67.86,98.5c.67-1,1.36-2,2.06-3a108.83,108.83,0,0,0,6.2-9.46c.34-.59.67-1.18,1-1.76.43-.76.87-1.56,1.32-2.34a.68.68,0,0,0,.2,0h.16a16.73,16.73,0,0,0,3.91-1.2l.13,0a19.31,19.31,0,0,1,6.62-1h.28c1.31-.06,2.71-.11,4.1-.11,1.21,0,2.28,0,3.29.12a36.48,36.48,0,0,1,7.1,1.51l.14,0,1.34.37c.94.24,1.92.5,2.86.84a7.54,7.54,0,0,1,1.88,1,.61.61,0,0,1,.26.44c0,.22-.06.64-.65,1.33a11.91,11.91,0,0,0-1.82,3.42c-.24.55-.45,1-.69,1.54a20.69,20.69,0,0,0-1.31,4.17c-.16.65-.31,1.27-.47,1.85s-.35,1.22-.53,1.82c-.37,1.26-.74,2.57-1.1,3.85-.23.83-.51.92-1.09.92l-.57,0h0l-.94-.08c-.38,0-.77-.08-1.18-.09A31.2,31.2,0,0,1,92.64,101c-1.55-.46-3.17-.93-4.8-1.25a34.33,34.33,0,0,0-6.48-.59,39.27,39.27,0,0,0-6.79.59c-1.53.27-3.06.62-4.56.94s-2.88.65-4.32.92C66.43,100.61,67.16,99.54,67.86,98.5Zm43.62,46.11a27.52,27.52,0,0,1-3.07,3.32,32.48,32.48,0,0,1-10.27,5.6,35.79,35.79,0,0,1-12.28,2.56c-.41,0-.84,0-1.26,0a40.15,40.15,0,0,1-14.12-3.48c-.63-.26-1.26-.57-1.87-.84a40.09,40.09,0,0,0-4.39-1.81c-1.74-.56-3.55-1-5.3-1.34l-1.15-.25a31.58,31.58,0,0,1-12-5.11c-.67-.46-1.35-.95-2-1.42-2.65-1.9-5.38-3.86-8.15-5.63a23.45,23.45,0,0,0-5-2.52,11.21,11.21,0,0,1,4-.77h.25a1.93,1.93,0,0,0,.79.17,1.84,1.84,0,0,0,.73-.16c1.73,0,3.24.13,4.61.3a23.46,23.46,0,0,1,5.2,1.47l1.4.5a31.7,31.7,0,0,1,4.26,2c.59.33,1.2.66,1.81,1a44.88,44.88,0,0,0,6.76,2.68c.8.25,1.61.52,2.39.78,1.36.44,2.77.91,4.18,1.28a72.28,72.28,0,0,0,7.11,1.36c2.25.35,4.55.6,6.78.84l.15,0a41.07,41.07,0,0,0,4.49.19h2.45c2.1,0,4.23.06,6.29.12s4.21.09,6.31.09h1.91a25.71,25.71,0,0,0,4.81-.7l1.53-.3.32-.07c1.06-.19,2.07-.38,3.07-.63Zm7.4-27c.12,2.79.24,5.67.09,8.51a50.41,50.41,0,0,1-2.57,12.44,12.2,12.2,0,0,0-1.14.58c-.33.18-.62.34-.91.47a13.07,13.07,0,0,1-3.25,1.1c-2.36.39-4.79.88-6.91,1.31a14.16,14.16,0,0,1-2.76.23c-.92,0-1.88-.05-2.8-.11-.52,0-1-.07-1.56-.09-1,0-2.08-.06-3.42-.06H89.4l-2.08,0c-.69,0-1.41,0-2.11,0a21.64,21.64,0,0,1-2.72-.14h-.17c-2.39-.26-4.87-.54-7.28-.89-2.1-.29-4.3-.68-6.75-1.22a39.39,39.39,0,0,1-4.79-1.43c-.82-.27-1.66-.56-2.49-.82a42.38,42.38,0,0,1-6.76-2.94,50.47,50.47,0,0,0-6-2.7l-.43-.15a52.69,52.69,0,0,0-5.47-1.68,24.22,24.22,0,0,0-4.82-.44c.77-2.1,2.42-3.77,4.2-5.46a27.15,27.15,0,0,0,1.95-2.08c.36-.41.73-.83,1.1-1.23a25.65,25.65,0,0,1,3.89-3.28c4.85-3.42,10.42-7.67,15-13.26,2.4-.28,4.81-.82,7.13-1.33,1.54-.34,3.14-.71,4.7-1a33.71,33.71,0,0,1,5.94-.51A30.79,30.79,0,0,1,90,102.69l1.78.54c1.37.4,2.78.83,4.19,1.17a25.57,25.57,0,0,0,4.37.58l1.47.13c.41,0,.87.09,1.32.09a3.2,3.2,0,0,0,2.55-1,5.18,5.18,0,0,0,.89-2.14c.23-1,.52-1.89.8-2.8.07-.23.14-.45.2-.67.25-.81.48-1.63.71-2.44a35.13,35.13,0,0,1,3.7-9.46l0-.06c.71-1.11,1.59-2.5.83-3.93a6,6,0,0,0-3.38-2.4,26.78,26.78,0,0,0-2.86-.86c-.45-.11-.92-.23-1.37-.36A49.68,49.68,0,0,0,98,77.43a24,24,0,0,0-3.27-.18c-.72,0-1.44,0-2.15,0l-1.32,0c-1.14,0-2.3.06-3.55.13l-.87,0a10.24,10.24,0,0,0-3,.36c-.55.19-1.11.42-1.66.65s-1.32.53-2,.74c.35-.5.7-1,1-1.42a17.53,17.53,0,0,1,3.5-3.28,7.56,7.56,0,0,1,2.06-1l.52-.2a2.52,2.52,0,0,1,1-.28,1.82,1.82,0,0,0,1.78-1.86,1.37,1.37,0,0,0-1.44-1.44H88a3.35,3.35,0,0,1-.63-.05c2.88-5.48,9-9.23,16-9.82.65-.05,1.32-.08,2-.08a19.86,19.86,0,0,1,7.86,1.54c3.69,1.61,5.48,4.89,6.74,7.9a30.43,30.43,0,0,1,2.13,13.16,56.29,56.29,0,0,1-1.39,9c-.35,1.67-.72,3.4-1,5.1a105.57,105.57,0,0,0-1,15C118.71,113.54,118.81,115.61,118.88,117.61Z"/></g><path class="cls-4" d="M147.54,380.42a115.66,115.66,0,0,0,12.64-6.48l.08-.05,1.49-.84,1.37-.77A115.44,115.44,0,0,1,177,365.82l.06,0a24.62,24.62,0,0,0,6.42-3.38c2.22-1.85,2.92-4,2.07-6.38a12.83,12.83,0,0,0-3.43-5.16,18.7,18.7,0,0,0-5.33-3.48,31.17,31.17,0,0,0-12.38-2.55h-.24c-9.92.08-18.78,5-27.36,9.79l-.94.53c-4.41,2.45-9.08,4.74-14.69,7.21a39,39,0,0,0-8.3,4.56l-.82.64h1c.66,0,1.34,0,1.94.05l1.91.07,3.11,0h4.74c.88,0,1.76,0,2.69-.07l1.31-.05c.91,0,1.84-.07,2.75-.07a19.48,19.48,0,0,1,6.12.79,21.61,21.61,0,0,1,5.07,2.4l.39.26.15-.44a.86.86,0,0,1,.57-.57,56.3,56.3,0,0,0,8.22-4.2l.34-.21c1.93-1.11,3.92-2.27,5.94-3.2a1,1,0,0,1,.43-.11,1,1,0,0,1,.33,2c-2,.93-4,2.08-5.91,3.2l-.45.26a56.22,56.22,0,0,1-7.87,4.05l-.51.2.39.39a9,9,0,0,1,1.15,1.36,8.22,8.22,0,0,1,1,3.93c0,.3,0,.6.09.89a13.65,13.65,0,0,1,.09,1.58l0,.55Z"/><path class="cls-4" d="M144.65,376.1a4.87,4.87,0,0,0-2.45-3.19,17.38,17.38,0,0,0-9.26-3.28c-.7,0-1.47,0-2.44,0-1.22,0-2.46,0-3.67,0l-.78,0c-1.37,0-2.92.07-4.45.07-1.23,0-2.52-.06-3.62-.11s-2.44-.1-3.72-.1a26.47,26.47,0,0,0-3.61.2,1,1,0,0,1-.4,0l-.23-.07-.15.18a10.6,10.6,0,0,0-.66.88l-.08.09a.85.85,0,0,1-.72.41h-.22l-.11.2a7.81,7.81,0,0,0-.54,3.38c0,.25,0,.52,0,.82v.09a5.72,5.72,0,0,0,.29,2.91c.45.84,1.59,1.23,3.6,1.23.5,0,1,0,1.44-.05l.67,0,.51,0c1.12,0,2.16,0,3.4,0h5.89a76.87,76.87,0,0,1,9.76.46c1.45.19,2.9.29,4.5.39a45.53,45.53,0,0,1,6.9.82l.26.05.13-.22a.59.59,0,0,0,0-.08c.48-.88.18-2.8-.14-4.54l0-.09C144.7,376.33,144.67,376.21,144.65,376.1Z"/><path d="M174.17,370.18c1.1-.47,2.25-.92,3.35-1.34,3.24-1.25,6.58-2.55,9.18-5.11a7.19,7.19,0,0,0,2.12-5,9.21,9.21,0,0,0-1.39-5.23c-3.94-6.28-11.55-10.14-20.89-10.62H165c-9.44,0-18.15,4.3-25.6,8.35l-.2.11c-5.79,3.15-11.25,6.11-17.15,8.71l-.07,0c-4.72,2.08-9.59,4.22-13,8.24-3.1,1.67-3.15,4.88-3.2,8,0,.21,0,.43,0,.63,0,1.37.1,3.08,1.28,4.18,1.51,1.43,3.87,1.43,5.75,1.43h.11c1.49,0,3,0,4.45,0h4.44c2.91,0,5.26,0,7.41.12,1.59.06,3.2.22,4.76.36,1.17.13,2.37.23,3.57.31l.46,0a45.07,45.07,0,0,1,6.32.69,1.21,1.21,0,0,0,.77.25h.36l.21,0a1.67,1.67,0,0,0,.42-.07c5.82-2,11.25-5,16.5-8C166.32,374.14,170.19,372,174.17,370.18Zm-29,11.21a.43.43,0,0,1,0,.05,44.93,44.93,0,0,0-7-.83c-1.47-.09-3-.19-4.47-.39a78.13,78.13,0,0,0-9.81-.45H118c-1.37,0-2.43,0-3.41,0-.23,0-.49,0-.8,0-.54,0-1.17.06-1.8.06-1.85,0-2.92-.33-3.29-1a5.56,5.56,0,0,1-.25-2.74c0-.33,0-.63,0-.91A7.59,7.59,0,0,1,109,372h0a1.23,1.23,0,0,0,1-.57c.22-.3.44-.61.71-.95a1.13,1.13,0,0,0,.36.06l.2,0a25.37,25.37,0,0,1,3.56-.2c1.24,0,2.5.05,3.71.1s2.45.11,3.64.11c1.49,0,3,0,4.45-.07s3-.06,4.43-.06c.89,0,1.68,0,2.43,0a17.15,17.15,0,0,1,9.1,3.22,4.52,4.52,0,0,1,2.27,3c0,.11.06.24.09.38C145.22,378.14,145.69,380.56,145.18,381.39Zm2.86-.85a11.89,11.89,0,0,0-.1-1.63c0-.29-.05-.58-.08-.89a8.3,8.3,0,0,0-1.05-4.09,8.88,8.88,0,0,0-1.2-1.42,58.46,58.46,0,0,0,8.1-4.18c2-1.16,4.07-2.37,6.15-3.34a1.4,1.4,0,0,0-.49-2.67,1.4,1.4,0,0,0-.57.14c-2.12,1-4.2,2.2-6.22,3.37a56.9,56.9,0,0,1-8.26,4.23,1.25,1.25,0,0,0-.78.79,21.89,21.89,0,0,0-5.16-2.45,20,20,0,0,0-6.22-.8c-1.17,0-2.33.06-3.47.1s-2.22.09-3.28.09h-7.85l-1.91-.07c-.63,0-1.28-.05-1.94-.05a38.05,38.05,0,0,1,8.21-4.51c5.65-2.49,10.32-4.79,14.73-7.23l.94-.53c8.54-4.75,17.36-9.66,27.19-9.75H165a30.92,30.92,0,0,1,12.24,2.52,18.21,18.21,0,0,1,5.23,3.41,12.52,12.52,0,0,1,3.34,5c.81,2.27.15,4.23-2,6a24.09,24.09,0,0,1-6.38,3.35,114.08,114.08,0,0,0-13.88,6.47c-1,.53-1.91,1.08-2.86,1.61A116.67,116.67,0,0,1,148,380.54Z"/></g></g></svg>